<svg width="22" height="21" viewBox="0 0 22 21" fill="none" xmlns="http://www.w3.org/2000/svg">
<path d="M11.4123 16.8781L16.1373 19.8781C16.7466 20.2625 17.4966 19.6906 17.3185 18.9875L15.9498 13.6063C15.9127 13.4571 15.9186 13.3005 15.9667 13.1546C16.0148 13.0086 16.1032 12.8792 16.2216 12.7813L20.4591 9.2469C21.0123 8.78752 20.731 7.8594 20.0091 7.81252L14.4779 7.45627C14.327 7.44749 14.1819 7.39494 14.0603 7.30503C13.9388 7.21513 13.8461 7.09177 13.7935 6.95002L11.731 1.75627C11.6764 1.60618 11.5769 1.47653 11.4461 1.38491C11.3153 1.29329 11.1595 1.24414 10.9998 1.24414C10.84 1.24414 10.6842 1.29329 10.5534 1.38491C10.4226 1.47653 10.3231 1.60618 10.2685 1.75627L8.206 6.95002C8.15344 7.09177 8.06072 7.21513 7.93918 7.30503C7.81764 7.39494 7.67255 7.44749 7.52163 7.45627L1.99038 7.81252C1.2685 7.8594 0.987252 8.78752 1.54038 9.2469L5.77788 12.7813C5.89632 12.8792 5.98468 13.0086 6.03278 13.1546C6.08088 13.3005 6.08676 13.4571 6.04975 13.6063L4.78413 18.5938C4.5685 19.4375 5.4685 20.1219 6.19038 19.6625L10.5873 16.8781C10.7105 16.7997 10.8536 16.7581 10.9998 16.7581C11.1459 16.7581 11.289 16.7997 11.4123 16.8781V16.8781Z" stroke="#1F1F29" stroke-linecap="round" stroke-linejoin="round"/>
</svg>
