<svg width="22" height="19" viewBox="0 0 22 19" fill="none" xmlns="http://www.w3.org/2000/svg">
<path d="M9.70585 1.74999L1.45585 16C1.32442 16.2276 1.25512 16.4858 1.25488 16.7487C1.25465 17.0115 1.3235 17.2698 1.45452 17.4977C1.58555 17.7256 1.77416 17.915 2.00145 18.0471C2.22875 18.1791 2.48674 18.2491 2.7496 18.25H19.2496C19.5125 18.2491 19.7705 18.1791 19.9977 18.0471C20.225 17.915 20.4136 17.7256 20.5447 17.4977C20.6757 17.2698 20.7445 17.0115 20.7443 16.7487C20.7441 16.4858 20.6748 16.2276 20.5434 16L12.2934 1.74999C12.1629 1.52206 11.9746 1.33263 11.7474 1.20088C11.5202 1.06914 11.2622 0.999756 10.9996 0.999756C10.737 0.999756 10.479 1.06914 10.2518 1.20088C10.0246 1.33263 9.83629 1.52206 9.70585 1.74999V1.74999Z" stroke="#1F1F29" stroke-linecap="round" stroke-linejoin="round"/>
</svg>
