<svg width="800" height="800" viewBox="0 0 800 800" fill="none" xmlns="http://www.w3.org/2000/svg">
<path fill-rule="evenodd" clip-rule="evenodd" d="M400 82C366.575 82 333.901 91.9703 306.109 110.65C278.317 129.33 256.656 155.88 243.864 186.944C231.073 218.007 227.726 252.189 234.247 285.165C240.768 318.142 256.864 348.433 280.499 372.208C304.134 395.983 334.247 412.174 367.03 418.733C399.813 425.293 433.793 421.926 464.674 409.059C495.554 396.193 521.948 374.403 540.518 346.447C559.088 318.491 569 285.623 569 252C569 206.913 551.195 163.673 519.501 131.792C487.807 99.9107 444.822 82 400 82ZM400 124.5C425.069 124.5 449.575 131.978 470.419 145.988C491.262 159.997 507.508 179.91 517.102 203.208C526.695 226.505 529.205 252.141 524.315 276.874C519.424 301.607 507.352 324.325 489.626 342.156C471.9 359.987 449.315 372.13 424.728 377.05C400.141 381.97 374.655 379.445 351.495 369.795C328.334 360.144 308.539 343.802 294.611 322.835C280.684 301.868 273.25 277.217 273.25 252C273.25 218.185 286.604 185.755 310.374 161.844C334.144 137.933 366.384 124.5 400 124.5Z" fill="black"/>
<path fill-rule="evenodd" clip-rule="evenodd" d="M400 468C280.072 468 176.17 492.894 124.4 527.746C112.472 534.255 102.351 543.628 94.9495 555.019C87.5479 566.41 83.0978 579.462 82 593C83.0978 606.538 87.5479 619.59 94.9495 630.981C102.351 642.372 112.472 651.745 124.4 658.254C176.17 693.106 280.072 718 400 718C519.928 718 623.83 693.106 675.6 658.254C687.528 651.745 697.649 642.372 705.051 630.981C712.452 619.59 716.902 606.538 718 593C716.902 579.462 712.452 566.41 705.051 555.019C697.649 543.628 687.528 534.255 675.6 527.746C623.83 492.894 519.928 468 400 468ZM400 510.373C478.762 507.847 557.196 521.616 630.38 550.818C643.674 556.632 655.832 564.751 666.293 574.801C669.174 576.882 671.52 579.618 673.138 582.781C674.755 585.945 675.599 589.447 675.599 593C675.599 596.553 674.755 600.055 673.138 603.219C671.52 606.382 669.174 609.117 666.293 611.199C655.832 621.249 643.674 629.368 630.38 635.182C557.196 664.384 478.762 678.153 400 675.627C321.238 678.153 242.804 664.384 169.62 635.182C156.326 629.368 144.168 621.249 133.707 611.199C130.826 609.117 128.48 606.382 126.862 603.219C125.245 600.055 124.401 596.553 124.401 593C124.401 589.447 125.245 585.945 126.862 582.781C128.48 579.618 130.826 576.882 133.707 574.801C144.168 564.751 156.326 556.632 169.62 550.818C242.804 521.616 321.238 507.847 400 510.373Z" fill="black"/>
</svg>
