<svg width="24" height="24" viewBox="0 0 24 24" fill="none" xmlns="http://www.w3.org/2000/svg">
<path d="M11 22C9.61667 22 8.31667 21.7375 7.1 21.2125C5.88333 20.6875 4.825 19.975 3.925 19.075C3.025 18.175 2.3125 17.1167 1.7875 15.9C1.2625 14.6833 1 13.3833 1 12C1 10.6167 1.2625 9.31667 1.7875 8.1C2.3125 6.88333 3.025 5.825 3.925 4.925C4.825 4.025 5.88333 3.3125 7.1 2.7875C8.31667 2.2625 9.61667 2 11 2C11.7167 2 12.4083 2.07083 13.075 2.2125C13.7417 2.35417 14.3833 2.55833 15 2.825V5.075C14.4167 4.74167 13.7875 4.47917 13.1125 4.2875C12.4375 4.09583 11.7333 4 11 4C8.78333 4 6.89583 4.77917 5.3375 6.3375C3.77917 7.89583 3 9.78333 3 12C3 14.2167 3.77917 16.1042 5.3375 17.6625C6.89583 19.2208 8.78333 20 11 20C13.2167 20 15.1042 19.2208 16.6625 17.6625C18.2208 16.1042 19 14.2167 19 12C19 11.4667 18.9458 10.95 18.8375 10.45C18.7292 9.95 18.5833 9.46667 18.4 9H20.55C20.7 9.48333 20.8125 9.97083 20.8875 10.4625C20.9625 10.9542 21 11.4667 21 12C21 13.3833 20.7375 14.6833 20.2125 15.9C19.6875 17.1167 18.975 18.175 18.075 19.075C17.175 19.975 16.1167 20.6875 14.9 21.2125C13.6833 21.7375 12.3833 22 11 22ZM19 5H18C17.7167 5 17.4792 4.90417 17.2875 4.7125C17.0958 4.52083 17 4.28333 17 4C17 3.71667 17.0958 3.47917 17.2875 3.2875C17.4792 3.09583 17.7167 3 18 3H19V2C19 1.71667 19.0958 1.47917 19.2875 1.2875C19.4792 1.09583 19.7167 1 20 1C20.2833 1 20.5208 1.09583 20.7125 1.2875C20.9042 1.47917 21 1.71667 21 2V3H22C22.2833 3 22.5208 3.09583 22.7125 3.2875C22.9042 3.47917 23 3.71667 23 4C23 4.28333 22.9042 4.52083 22.7125 4.7125C22.5208 4.90417 22.2833 5 22 5H21V6C21 6.28333 20.9042 6.52083 20.7125 6.7125C20.5208 6.90417 20.2833 7 20 7C19.7167 7 19.4792 6.90417 19.2875 6.7125C19.0958 6.52083 19 6.28333 19 6V5ZM14.5 11C14.9167 11 15.2708 10.8542 15.5625 10.5625C15.8542 10.2708 16 9.91667 16 9.5C16 9.08333 15.8542 8.72917 15.5625 8.4375C15.2708 8.14583 14.9167 8 14.5 8C14.0833 8 13.7292 8.14583 13.4375 8.4375C13.1458 8.72917 13 9.08333 13 9.5C13 9.91667 13.1458 10.2708 13.4375 10.5625C13.7292 10.8542 14.0833 11 14.5 11ZM7.5 11C7.91667 11 8.27083 10.8542 8.5625 10.5625C8.85417 10.2708 9 9.91667 9 9.5C9 9.08333 8.85417 8.72917 8.5625 8.4375C8.27083 8.14583 7.91667 8 7.5 8C7.08333 8 6.72917 8.14583 6.4375 8.4375C6.14583 8.72917 6 9.08333 6 9.5C6 9.91667 6.14583 10.2708 6.4375 10.5625C6.72917 10.8542 7.08333 11 7.5 11ZM11 17.5C11.9667 17.5 12.8583 17.2667 13.675 16.8C14.4917 16.3333 15.15 15.7 15.65 14.9C15.75 14.7 15.7417 14.5 15.625 14.3C15.5083 14.1 15.3333 14 15.1 14H6.9C6.66667 14 6.49167 14.1 6.375 14.3C6.25833 14.5 6.25 14.7 6.35 14.9C6.85 15.7 7.5125 16.3333 8.3375 16.8C9.1625 17.2667 10.05 17.5 11 17.5Z" fill="#1C1B1F"/>
</svg>
