<svg width="32" height="32" viewBox="0 0 32 32" fill="none" xmlns="http://www.w3.org/2000/svg">
<path d="M3 27H21" stroke="black" stroke-linecap="round" stroke-linejoin="round"/>
<path d="M2.11274 17.55L6.82524 21.9625C7.4536 22.5516 8.2553 22.9221 9.11111 23.0189C9.96693 23.1157 10.8311 22.9338 11.5752 22.5L30.5002 11.5L28.1752 8.65003C27.5704 7.91137 26.7214 7.41337 25.7815 7.24602C24.8416 7.07868 23.8728 7.25301 23.0502 7.73753L17.5002 11L10.0002 8.50003L7.93774 9.38753C7.78344 9.45366 7.64826 9.55757 7.54468 9.68968C7.4411 9.8218 7.37245 9.97786 7.34505 10.1435C7.31765 10.3091 7.33239 10.479 7.38792 10.6374C7.44344 10.7958 7.53795 10.9377 7.66274 11.05L11.5002 14.5L8.00024 16.5L4.50024 15L2.40024 15.9C2.24746 15.9657 2.11345 16.0683 2.01035 16.1988C1.90725 16.3293 1.83831 16.4834 1.80977 16.6472C1.78122 16.811 1.79398 16.9794 1.84688 17.137C1.89978 17.2946 1.99116 17.4366 2.11274 17.55V17.55Z" stroke="black" stroke-linecap="round" stroke-linejoin="round"/>
</svg>
