<svg width="32" height="32" viewBox="0 0 32 32" fill="none" xmlns="http://www.w3.org/2000/svg">
<path d="M12 27H30" stroke="black" stroke-linecap="round" stroke-linejoin="round"/>
<path d="M3.00001 12.9625V6.38753C2.99999 6.22941 3.03748 6.07353 3.10939 5.9327C3.1813 5.79187 3.28558 5.6701 3.41367 5.57738C3.54176 5.48467 3.69002 5.42365 3.84627 5.39934C4.00251 5.37503 4.1623 5.38812 4.31251 5.43753L6.00001 6.00003L8.00001 9.75003L12 11V6.38753C12 6.22941 12.0375 6.07353 12.1094 5.9327C12.1813 5.79187 12.2856 5.6701 12.4137 5.57738C12.5418 5.48467 12.69 5.42365 12.8463 5.39934C13.0025 5.37503 13.1623 5.38812 13.3125 5.43753L15 6.00003L19 13L25.075 14.6875C25.9169 14.9203 26.6592 15.4231 27.1876 16.1186C27.716 16.8142 28.0015 17.664 28 18.5375V23L5.92501 16.8125C5.08306 16.5798 4.34085 16.077 3.81241 15.3814C3.28397 14.6859 2.99855 13.8361 3.00001 12.9625V12.9625Z" stroke="black" stroke-linecap="round" stroke-linejoin="round"/>
</svg>
