<svg width="32" height="32" viewBox="0 0 32 32" fill="none" xmlns="http://www.w3.org/2000/svg">
<path d="M9 27H27" stroke="black" stroke-linecap="round" stroke-linejoin="round"/>
<path d="M3.34994 10H5.49994L7.99994 13H11.9999L10.4374 8.3125C10.388 8.16229 10.3749 8.00251 10.3992 7.84626C10.4236 7.69001 10.4846 7.54176 10.5773 7.41366C10.67 7.28557 10.7918 7.18129 10.9326 7.10938C11.0734 7.03747 11.2293 6.99999 11.3874 7H13.4999L18.9999 13H25.9999C27.0608 13 28.0782 13.4214 28.8284 14.1716C29.5785 14.9217 29.9999 15.9391 29.9999 17V20H7.97494C7.11585 19.9987 6.28002 19.7208 5.59114 19.2075C4.90225 18.6943 4.39692 17.9728 4.14994 17.15L2.38744 11.2875C2.3425 11.1378 2.33328 10.9796 2.36052 10.8257C2.38775 10.6718 2.45069 10.5264 2.54428 10.4012C2.63787 10.276 2.7595 10.1745 2.89942 10.1049C3.03933 10.0352 3.19363 9.99926 3.34994 10V10Z" stroke="black" stroke-linecap="round" stroke-linejoin="round"/>
</svg>
