<svg width="24" height="24" viewBox="0 0 24 24" fill="none" xmlns="http://www.w3.org/2000/svg">
<path d="M3 4C2.71667 4 2.47917 3.90417 2.2875 3.7125C2.09583 3.52083 2 3.28333 2 3C2 2.71667 2.09583 2.47917 2.2875 2.2875C2.47917 2.09583 2.71667 2 3 2H21C21.2833 2 21.5208 2.09583 21.7125 2.2875C21.9042 2.47917 22 2.71667 22 3C22 3.28333 21.9042 3.52083 21.7125 3.7125C21.5208 3.90417 21.2833 4 21 4H3ZM11.5 20C11.2167 20 10.9792 19.9042 10.7875 19.7125C10.5958 19.5208 10.5 19.2833 10.5 19V7C10.5 6.71667 10.5958 6.47917 10.7875 6.2875C10.9792 6.09583 11.2167 6 11.5 6H12.5C12.7833 6 13.0208 6.09583 13.2125 6.2875C13.4042 6.47917 13.5 6.71667 13.5 7V19C13.5 19.2833 13.4042 19.5208 13.2125 19.7125C13.0208 19.9042 12.7833 20 12.5 20H11.5Z" fill="#1C1B1F"/>
</svg>
