<svg width="24" height="24" viewBox="0 0 24 24" fill="none" xmlns="http://www.w3.org/2000/svg">
<path d="M3 22C2.71667 22 2.47917 21.9042 2.2875 21.7125C2.09583 21.5208 2 21.2833 2 21C2 20.7167 2.09583 20.4792 2.2875 20.2875C2.47917 20.0958 2.71667 20 3 20H21C21.2833 20 21.5208 20.0958 21.7125 20.2875C21.9042 20.4792 22 20.7167 22 21C22 21.2833 21.9042 21.5208 21.7125 21.7125C21.5208 21.9042 21.2833 22 21 22H3ZM11.5 18C11.2167 18 10.9792 17.9042 10.7875 17.7125C10.5958 17.5208 10.5 17.2833 10.5 17V5C10.5 4.71667 10.5958 4.47917 10.7875 4.2875C10.9792 4.09583 11.2167 4 11.5 4H12.5C12.7833 4 13.0208 4.09583 13.2125 4.2875C13.4042 4.47917 13.5 4.71667 13.5 5V17C13.5 17.2833 13.4042 17.5208 13.2125 17.7125C13.0208 17.9042 12.7833 18 12.5 18H11.5Z" fill="#1C1B1F"/>
</svg>
