<svg width="24" height="24" viewBox="0 0 24 24" fill="none" xmlns="http://www.w3.org/2000/svg">
<path d="M21 22C20.7167 22 20.4792 21.9042 20.2875 21.7125C20.0958 21.5208 20 21.2833 20 21V3C20 2.71667 20.0958 2.47917 20.2875 2.2875C20.4792 2.09583 20.7167 2 21 2C21.2833 2 21.5208 2.09583 21.7125 2.2875C21.9042 2.47917 22 2.71667 22 3V21C22 21.2833 21.9042 21.5208 21.7125 21.7125C21.5208 21.9042 21.2833 22 21 22ZM15 17C14.7167 17 14.4792 16.9042 14.2875 16.7125C14.0958 16.5208 14 16.2833 14 16V8C14 7.71667 14.0958 7.47917 14.2875 7.2875C14.4792 7.09583 14.7167 7 15 7H16C16.2833 7 16.5208 7.09583 16.7125 7.2875C16.9042 7.47917 17 7.71667 17 8V16C17 16.2833 16.9042 16.5208 16.7125 16.7125C16.5208 16.9042 16.2833 17 16 17H15ZM9 17C8.71667 17 8.47917 16.9042 8.2875 16.7125C8.09583 16.5208 8 16.2833 8 16V8C8 7.71667 8.09583 7.47917 8.2875 7.2875C8.47917 7.09583 8.71667 7 9 7H10C10.2833 7 10.5208 7.09583 10.7125 7.2875C10.9042 7.47917 11 7.71667 11 8V16C11 16.2833 10.9042 16.5208 10.7125 16.7125C10.5208 16.9042 10.2833 17 10 17H9Z" fill="#1C1B1F"/>
</svg>
