<svg width="24" height="24" viewBox="0 0 24 24" fill="none" xmlns="http://www.w3.org/2000/svg">
<path d="M11 21V17H7.5C7.08333 17 6.72917 16.8542 6.4375 16.5625C6.14583 16.2708 6 15.9167 6 15.5C6 15.0833 6.14583 14.7292 6.4375 14.4375C6.72917 14.1458 7.08333 14 7.5 14H11V10H4.5C4.08333 10 3.72917 9.85417 3.4375 9.5625C3.14583 9.27083 3 8.91667 3 8.5C3 8.08333 3.14583 7.72917 3.4375 7.4375C3.72917 7.14583 4.08333 7 4.5 7H11V3C11 2.71667 11.0958 2.47917 11.2875 2.2875C11.4792 2.09583 11.7167 2 12 2C12.2833 2 12.5208 2.09583 12.7125 2.2875C12.9042 2.47917 13 2.71667 13 3V7H19.5C19.9167 7 20.2708 7.14583 20.5625 7.4375C20.8542 7.72917 21 8.08333 21 8.5C21 8.91667 20.8542 9.27083 20.5625 9.5625C20.2708 9.85417 19.9167 10 19.5 10H13V14H16.5C16.9167 14 17.2708 14.1458 17.5625 14.4375C17.8542 14.7292 18 15.0833 18 15.5C18 15.9167 17.8542 16.2708 17.5625 16.5625C17.2708 16.8542 16.9167 17 16.5 17H13V21C13 21.2833 12.9042 21.5208 12.7125 21.7125C12.5208 21.9042 12.2833 22 12 22C11.7167 22 11.4792 21.9042 11.2875 21.7125C11.0958 21.5208 11 21.2833 11 21Z" fill="#1C1B1F"/>
</svg>
