<svg width="24" height="24" viewBox="0 0 24 24" fill="none" xmlns="http://www.w3.org/2000/svg">
<path d="M3 22C2.71667 22 2.47917 21.9042 2.2875 21.7125C2.09583 21.5208 2 21.2833 2 21V3C2 2.71667 2.09583 2.47917 2.2875 2.2875C2.47917 2.09583 2.71667 2 3 2C3.28333 2 3.52083 2.09583 3.7125 2.2875C3.90417 2.47917 4 2.71667 4 3V21C4 21.2833 3.90417 21.5208 3.7125 21.7125C3.52083 21.9042 3.28333 22 3 22ZM14 17C13.7167 17 13.4792 16.9042 13.2875 16.7125C13.0958 16.5208 13 16.2833 13 16V8C13 7.71667 13.0958 7.47917 13.2875 7.2875C13.4792 7.09583 13.7167 7 14 7H15C15.2833 7 15.5208 7.09583 15.7125 7.2875C15.9042 7.47917 16 7.71667 16 8V16C16 16.2833 15.9042 16.5208 15.7125 16.7125C15.5208 16.9042 15.2833 17 15 17H14ZM8 17C7.71667 17 7.47917 16.9042 7.2875 16.7125C7.09583 16.5208 7 16.2833 7 16V8C7 7.71667 7.09583 7.47917 7.2875 7.2875C7.47917 7.09583 7.71667 7 8 7H9C9.28333 7 9.52083 7.09583 9.7125 7.2875C9.90417 7.47917 10 7.71667 10 8V16C10 16.2833 9.90417 16.5208 9.7125 16.7125C9.52083 16.9042 9.28333 17 9 17H8Z" fill="#1C1B1F"/>
</svg>
