<svg width="24" height="24" viewBox="0 0 24 24" fill="none" xmlns="http://www.w3.org/2000/svg">
<path d="M8.5 21C8.08333 21 7.72917 20.8542 7.4375 20.5625C7.14583 20.2708 7 19.9167 7 19.5V13H3C2.71667 13 2.47917 12.9042 2.2875 12.7125C2.09583 12.5208 2 12.2833 2 12C2 11.7167 2.09583 11.4792 2.2875 11.2875C2.47917 11.0958 2.71667 11 3 11H7V4.5C7 4.08333 7.14583 3.72917 7.4375 3.4375C7.72917 3.14583 8.08333 3 8.5 3C8.91667 3 9.27083 3.14583 9.5625 3.4375C9.85417 3.72917 10 4.08333 10 4.5V11H14V7.5C14 7.08333 14.1458 6.72917 14.4375 6.4375C14.7292 6.14583 15.0833 6 15.5 6C15.9167 6 16.2708 6.14583 16.5625 6.4375C16.8542 6.72917 17 7.08333 17 7.5V11H21C21.2833 11 21.5208 11.0958 21.7125 11.2875C21.9042 11.4792 22 11.7167 22 12C22 12.2833 21.9042 12.5208 21.7125 12.7125C21.5208 12.9042 21.2833 13 21 13H17V16.5C17 16.9167 16.8542 17.2708 16.5625 17.5625C16.2708 17.8542 15.9167 18 15.5 18C15.0833 18 14.7292 17.8542 14.4375 17.5625C14.1458 17.2708 14 16.9167 14 16.5V13H10V19.5C10 19.9167 9.85417 20.2708 9.5625 20.5625C9.27083 20.8542 8.91667 21 8.5 21Z" fill="#1C1B1F"/>
</svg>
