<svg width="32" height="32" viewBox="0 0 32 32" fill="none" xmlns="http://www.w3.org/2000/svg">
<path d="M20.5 20.5C21.0523 20.5 21.5 20.0523 21.5 19.5C21.5 18.9477 21.0523 18.5 20.5 18.5C19.9477 18.5 19.5 18.9477 19.5 19.5C19.5 20.0523 19.9477 20.5 20.5 20.5Z" fill="black"/>
<path d="M11.5 20.5C12.0523 20.5 12.5 20.0523 12.5 19.5C12.5 18.9477 12.0523 18.5 11.5 18.5C10.9477 18.5 10.5 18.9477 10.5 19.5C10.5 20.0523 10.9477 20.5 11.5 20.5Z" fill="black"/>
<path d="M3 24V21.1375C3 13.95 8.775 8.02497 15.95 7.99997C17.6614 7.99339 19.3572 8.32479 20.9402 8.97515C22.5232 9.62552 23.9623 10.582 25.1747 11.7899C26.3872 12.9977 27.3492 14.433 28.0057 16.0135C28.6621 17.594 29 19.2886 29 21V24C29 24.2652 28.8946 24.5195 28.7071 24.7071C28.5196 24.8946 28.2652 25 28 25H4C3.73478 25 3.48043 24.8946 3.29289 24.7071C3.10536 24.5195 3 24.2652 3 24Z" stroke="black" stroke-linecap="round" stroke-linejoin="round"/>
<path d="M4 7L7.8875 10.8875" stroke="black" stroke-linecap="round" stroke-linejoin="round"/>
<path d="M28 7L24.1375 10.8625" stroke="black" stroke-linecap="round" stroke-linejoin="round"/>
</svg>
