<svg width="32" height="32" viewBox="0 0 32 32" fill="none" xmlns="http://www.w3.org/2000/svg">
<path d="M16 18C17.6569 18 19 16.6569 19 15C19 13.3431 17.6569 12 16 12C14.3431 12 13 13.3431 13 15C13 16.6569 14.3431 18 16 18Z" stroke="black" stroke-linecap="round" stroke-linejoin="round"/>
<path d="M16.3624 28H15.6374C15.1742 28.0001 14.7252 27.8394 14.3673 27.5453C14.0094 27.2512 13.7647 26.842 13.6749 26.3875L12.4749 20.3875C12.4177 20.0976 12.4254 19.7986 12.4975 19.512C12.5696 19.2254 12.7043 18.9583 12.892 18.73C13.0796 18.5017 13.3156 18.3178 13.5828 18.1916C13.85 18.0654 14.1419 17.9999 14.4374 18H17.5624C17.8579 17.9999 18.1498 18.0654 18.417 18.1916C18.6842 18.3178 18.9202 18.5017 19.1078 18.73C19.2955 18.9583 19.4302 19.2254 19.5023 19.512C19.5745 19.7986 19.5822 20.0976 19.5249 20.3875L18.3249 26.3875C18.2352 26.842 17.9904 27.2512 17.6325 27.5453C17.2746 27.8394 16.8257 28.0001 16.3624 28V28Z" stroke="black" stroke-linecap="round" stroke-linejoin="round"/>
<path d="M8.5375 18.9C8.06927 17.6879 7.9033 16.3801 8.05396 15.0895C8.20461 13.7989 8.66735 12.5645 9.40215 11.4929C10.137 10.4213 11.1217 9.54478 12.2713 8.93918C13.4209 8.33357 14.7007 8.01709 16 8.01709C17.2993 8.01709 18.5791 8.33357 19.7287 8.93918C20.8783 9.54478 21.863 10.4213 22.5978 11.4929C23.3327 12.5645 23.7954 13.7989 23.946 15.0895C24.0967 16.3801 23.9307 17.6879 23.4625 18.9" stroke="black" stroke-linecap="round" stroke-linejoin="round"/>
<path d="M9.55 26.1124C7.36041 24.7168 5.68258 22.6486 4.76838 20.2183C3.85417 17.788 3.75291 15.1267 4.4798 12.634C5.20669 10.1412 6.72251 7.9515 8.79972 6.3935C10.8769 4.8355 13.4034 3.99329 16 3.99329C18.5966 3.99329 21.1231 4.8355 23.2003 6.3935C25.2775 7.9515 26.7933 10.1412 27.5202 12.634C28.2471 15.1267 28.1458 17.788 27.2316 20.2183C26.3174 22.6486 24.6396 24.7168 22.45 26.1124" stroke="black" stroke-linecap="round" stroke-linejoin="round"/>
</svg>
