<svg width="32" height="32" viewBox="0 0 32 32" fill="none" xmlns="http://www.w3.org/2000/svg">
<path d="M17.2625 4.0625C17.5532 3.30751 18.0661 2.65843 18.7333 2.20094C19.4006 1.74344 20.1909 1.49905 21 1.5" stroke="black" stroke-linecap="round" stroke-linejoin="round"/>
<path d="M27.3125 20.3625C25.7375 24.2125 22.8875 27 20.5 27H11.5C8 27 3.5 21 3.5 14.5C3.50052 13.0525 3.91995 11.6359 4.70768 10.4215C5.49542 9.20696 6.61779 8.24638 7.93936 7.65564C9.26093 7.0649 10.7252 6.86924 12.1555 7.09227C13.5858 7.3153 14.921 7.94749 16 8.91255V8.91255C16.7637 8.22832 17.6597 7.70797 18.6325 7.38365C19.6052 7.05934 20.6342 6.93795 21.6557 7.02698C22.6773 7.11602 23.6697 7.41358 24.5717 7.9013C25.4737 8.38901 26.2661 9.05651 26.9 9.86255V9.86255C25.9813 10.4173 25.2282 11.2083 24.7192 12.1531C24.2102 13.0979 23.9639 14.162 24.006 15.2343C24.0482 16.3067 24.3772 17.3482 24.9587 18.2501C25.5403 19.1521 26.3531 19.8816 27.3125 20.3625V20.3625Z" stroke="black" stroke-linecap="round" stroke-linejoin="round"/>
</svg>
