<svg width="32" height="32" viewBox="0 0 32 32" fill="none" xmlns="http://www.w3.org/2000/svg">
<path d="M27 6H5C4.44772 6 4 6.44772 4 7V25C4 25.5523 4.44772 26 5 26H27C27.5523 26 28 25.5523 28 25V7C28 6.44772 27.5523 6 27 6Z" stroke="black" stroke-linecap="round" stroke-linejoin="round"/>
<path d="M8.5 11.5C9.05228 11.5 9.5 11.0523 9.5 10.5C9.5 9.94772 9.05228 9.5 8.5 9.5C7.94772 9.5 7.5 9.94772 7.5 10.5C7.5 11.0523 7.94772 11.5 8.5 11.5Z" fill="black"/>
<path d="M13.5 11.5C14.0523 11.5 14.5 11.0523 14.5 10.5C14.5 9.94772 14.0523 9.5 13.5 9.5C12.9477 9.5 12.5 9.94772 12.5 10.5C12.5 11.0523 12.9477 11.5 13.5 11.5Z" fill="black"/>
</svg>
