<svg width="32" height="32" viewBox="0 0 32 32" fill="none" xmlns="http://www.w3.org/2000/svg">
<path d="M22.0249 12.4625H28.0249V6.46252" stroke="black" stroke-linecap="round" stroke-linejoin="round"/>
<path d="M8.2251 8.22505C9.24559 7.20307 10.4576 6.3923 11.7917 5.83913C13.1258 5.28595 14.5558 5.00122 16.0001 5.00122C17.4443 5.00122 18.8744 5.28595 20.2085 5.83913C21.5426 6.3923 22.7546 7.20307 23.7751 8.22505L28.0251 12.4626" stroke="black" stroke-linecap="round" stroke-linejoin="round"/>
<path d="M9.9751 19.5375H3.9751V25.5375" stroke="black" stroke-linecap="round" stroke-linejoin="round"/>
<path d="M23.7751 23.775C22.7546 24.797 21.5426 25.6077 20.2085 26.1609C18.8744 26.7141 17.4443 26.9988 16.0001 26.9988C14.5558 26.9988 13.1258 26.7141 11.7917 26.1609C10.4576 25.6077 9.24559 24.797 8.2251 23.775L3.9751 19.5375" stroke="black" stroke-linecap="round" stroke-linejoin="round"/>
</svg>
