<svg width="32" height="32" viewBox="0 0 32 32" fill="none" xmlns="http://www.w3.org/2000/svg">
<path d="M16 21C18.7614 21 21 18.7614 21 16C21 13.2386 18.7614 11 16 11C13.2386 11 11 13.2386 11 16C11 18.7614 13.2386 21 16 21Z" stroke="black" stroke-linecap="round" stroke-linejoin="round"/>
<path d="M22.6375 26C20.4101 27.4788 17.7527 28.1715 15.0868 27.968C12.421 27.7646 9.89942 26.6767 7.92226 24.8769C5.9451 23.0772 4.6256 20.6687 4.17312 18.0337C3.72064 15.3986 4.1611 12.688 5.42462 10.3318C6.68813 7.97555 8.70233 6.10878 11.1476 5.02766C13.5929 3.94654 16.3292 3.71299 18.9223 4.36407C21.5154 5.01515 23.8168 6.51357 25.4614 8.62156C27.1059 10.7296 27.9994 13.3264 28 16C28 18.7625 27 21 24.5 21C22 21 21 18.7625 21 16V11" stroke="black" stroke-linecap="round" stroke-linejoin="round"/>
</svg>
