<svg width="32" height="32" viewBox="0 0 32 32" fill="none" xmlns="http://www.w3.org/2000/svg">
<path d="M26.2555 26.253C28.4034 24.1051 25.5542 17.7735 19.8916 12.1109C14.229 6.44826 7.89732 3.59902 5.74944 5.7469C3.60156 7.89478 6.4508 14.2264 12.1134 19.889C17.776 25.5516 24.1077 28.4009 26.2555 26.253Z" stroke="black" stroke-linecap="round" stroke-linejoin="round"/>
<path d="M19.8916 19.8891C25.5542 14.2265 28.4034 7.89489 26.2555 5.747C24.1077 3.59912 17.776 6.44836 12.1134 12.111C6.4508 17.7736 3.60156 24.1052 5.74944 26.2531C7.89732 28.401 14.229 25.5517 19.8916 19.8891Z" stroke="black" stroke-linecap="round" stroke-linejoin="round"/>
<path d="M16 17C16.5523 17 17 16.5523 17 16C17 15.4477 16.5523 15 16 15C15.4477 15 15 15.4477 15 16C15 16.5523 15.4477 17 16 17Z" fill="black"/>
</svg>
