<svg width="32" height="32" viewBox="0 0 32 32" fill="none" xmlns="http://www.w3.org/2000/svg">
<path d="M16 28C22.6274 28 28 22.6274 28 16C28 9.37258 22.6274 4 16 4C9.37258 4 4 9.37258 4 16C4 22.6274 9.37258 28 16 28Z" stroke="black" stroke-linecap="round" stroke-linejoin="round"/>
<path d="M11.5 17C12.0523 17 12.5 16.5523 12.5 16C12.5 15.4477 12.0523 15 11.5 15C10.9477 15 10.5 15.4477 10.5 16C10.5 16.5523 10.9477 17 11.5 17Z" fill="black"/>
<path d="M20.5 17C21.0523 17 21.5 16.5523 21.5 16C21.5 15.4477 21.0523 15 20.5 15C19.9477 15 19.5 15.4477 19.5 16C19.5 16.5523 19.9477 17 20.5 17Z" fill="black"/>
<path d="M19.3125 21C18.3308 21.652 17.1785 21.9998 16 21.9998C14.8215 21.9998 13.6692 21.652 12.6875 21" stroke="black" stroke-linecap="round" stroke-linejoin="round"/>
<path d="M16 4C14 6.5 14 9 14 9C14 9.53043 14.2107 10.0391 14.5858 10.4142C14.9609 10.7893 15.4696 11 16 11C16.5304 11 17.0391 10.7893 17.4142 10.4142C17.7893 10.0391 18 9.53043 18 9" stroke="black" stroke-linecap="round" stroke-linejoin="round"/>
</svg>
