<svg width="32" height="32" viewBox="0 0 32 32" fill="none" xmlns="http://www.w3.org/2000/svg">
<path d="M20.175 6.17497C20.9359 5.48553 21.9328 5.1151 22.9592 5.14037C23.9857 5.16565 24.9632 5.58469 25.6892 6.31073C26.4152 7.03678 26.8343 8.01423 26.8596 9.04071C26.8848 10.0672 26.5144 11.0641 25.825 11.825L11.825 25.825C11.0641 26.5144 10.0672 26.8848 9.04071 26.8596C8.01423 26.8343 7.03678 26.4152 6.31073 25.6892C5.58469 24.9632 5.16565 23.9857 5.14037 22.9592C5.1151 21.9328 5.48553 20.9359 6.17497 20.175L20.175 6.17497Z" stroke="black" stroke-linecap="round" stroke-linejoin="round"/>
<path d="M6.17497 11.825C5.48553 11.0641 5.1151 10.0672 5.14037 9.04071C5.16565 8.01423 5.58469 7.03678 6.31073 6.31073C7.03678 5.58469 8.01423 5.16565 9.04071 5.14037C10.0672 5.1151 11.0641 5.48553 11.825 6.17497L25.825 20.175C26.5144 20.9359 26.8848 21.9328 26.8596 22.9592C26.8343 23.9857 26.4152 24.9632 25.6892 25.6892C24.9632 26.4152 23.9857 26.8343 22.9592 26.8596C21.9328 26.8848 20.9359 26.5144 20.175 25.825L6.17497 11.825Z" stroke="black" stroke-linecap="round" stroke-linejoin="round"/>
<path opacity="0.5" d="M16 16.5C16.2761 16.5 16.5 16.2761 16.5 16C16.5 15.7239 16.2761 15.5 16 15.5C15.7239 15.5 15.5 15.7239 15.5 16C15.5 16.2761 15.7239 16.5 16 16.5Z" stroke="black" stroke-linecap="round" stroke-linejoin="round"/>
<path d="M16 17C16.5523 17 17 16.5523 17 16C17 15.4477 16.5523 15 16 15C15.4477 15 15 15.4477 15 16C15 16.5523 15.4477 17 16 17Z" fill="black"/>
</svg>
