<svg width="32" height="32" viewBox="0 0 32 32" fill="none" xmlns="http://www.w3.org/2000/svg">
<path d="M16 28C22.6274 28 28 22.6274 28 16C28 9.37258 22.6274 4 16 4C9.37258 4 4 9.37258 4 16C4 22.6274 9.37258 28 16 28Z" stroke="black" stroke-linecap="round" stroke-linejoin="round"/>
<path d="M7.5 7.52502C9.74368 9.77457 11.0026 12.8228 11 16C11.0026 19.1772 9.74368 22.2255 7.5 24.475" stroke="black" stroke-linecap="round" stroke-linejoin="round"/>
<path d="M24.4998 7.52502C22.2587 9.77623 21.0005 12.8235 21.0005 16C21.0005 19.1766 22.2587 22.2238 24.4998 24.475" stroke="black" stroke-linecap="round" stroke-linejoin="round"/>
<path d="M4 16H28" stroke="black" stroke-linecap="round" stroke-linejoin="round"/>
<path d="M16 4V28" stroke="black" stroke-linecap="round" stroke-linejoin="round"/>
</svg>
