<svg width="32" height="32" viewBox="0 0 32 32" fill="none" xmlns="http://www.w3.org/2000/svg">
<path d="M15.5 11V16" stroke="black" stroke-linecap="round" stroke-linejoin="round"/>
<path d="M31 12V20" stroke="black" stroke-linecap="round" stroke-linejoin="round"/>
<path d="M27 23V9C27 7.89543 26.1046 7 25 7L6 7C4.89543 7 4 7.89543 4 9V23C4 24.1046 4.89543 25 6 25H25C26.1046 25 27 24.1046 27 23Z" stroke="black" stroke-linecap="round" stroke-linejoin="round"/>
<path d="M15.5 21.5C16.0523 21.5 16.5 21.0523 16.5 20.5C16.5 19.9477 16.0523 19.5 15.5 19.5C14.9477 19.5 14.5 19.9477 14.5 20.5C14.5 21.0523 14.9477 21.5 15.5 21.5Z" fill="black"/>
</svg>
