<svg width="32" height="32" viewBox="0 0 32 32" fill="none" xmlns="http://www.w3.org/2000/svg">
<path d="M21 10H29" stroke="black" stroke-linecap="round" stroke-linejoin="round"/>
<path d="M20 19H30C29.9979 17.8466 29.5961 16.7296 28.863 15.8392C28.13 14.9487 27.1109 14.3398 25.9794 14.1162C24.8479 13.8926 23.6739 14.0681 22.6572 14.6128C21.6405 15.1575 20.844 16.0377 20.4034 17.1036C19.9627 18.1695 19.9051 19.3551 20.2403 20.4587C20.5756 21.5623 21.2829 22.5156 22.242 23.1563C23.2011 23.797 24.3525 24.0855 25.5004 23.9727C26.6483 23.8599 27.7215 23.3527 28.5375 22.5375" stroke="black" stroke-linecap="round" stroke-linejoin="round"/>
<path d="M4 15.5H12.25C13.3772 15.5 14.4582 15.9478 15.2552 16.7448C16.0522 17.5418 16.5 18.6228 16.5 19.75C16.5 20.8772 16.0522 21.9582 15.2552 22.7552C14.4582 23.5522 13.3772 24 12.25 24H4V8H10.75C11.7446 8 12.6984 8.39509 13.4017 9.09835C14.1049 9.80161 14.5 10.7554 14.5 11.75C14.5 12.7446 14.1049 13.6984 13.4017 14.4017C12.6984 15.1049 11.7446 15.5 10.75 15.5" stroke="black" stroke-linecap="round" stroke-linejoin="round"/>
</svg>
