<svg width="32" height="32" viewBox="0 0 32 32" fill="none" xmlns="http://www.w3.org/2000/svg">
<path d="M7.0249 14C7.0249 12.8214 7.25704 11.6543 7.70808 10.5654C8.15911 9.47654 8.82021 8.48715 9.65361 7.65374C10.487 6.82034 11.4764 6.15924 12.5653 5.70821C13.6542 5.25717 14.8213 5.02502 15.9999 5.02502C17.1785 5.02502 18.3456 5.25717 19.4345 5.70821C20.5234 6.15924 21.5128 6.82034 22.3462 7.65374C23.1796 8.48715 23.8407 9.47654 24.2917 10.5654C24.7427 11.6543 24.9749 12.8214 24.9749 14V14C24.9749 18.475 25.9124 21.075 26.7374 22.5C26.825 22.6518 26.8712 22.8239 26.8714 22.9991C26.8715 23.1744 26.8256 23.3466 26.7383 23.4985C26.6509 23.6504 26.5252 23.7767 26.3737 23.8647C26.2221 23.9528 26.0501 23.9994 25.8749 24H6.1249C5.94966 23.9994 5.77766 23.9528 5.62613 23.8647C5.4746 23.7767 5.34886 23.6504 5.26151 23.4985C5.17416 23.3466 5.12826 23.1744 5.12842 22.9991C5.12857 22.8239 5.17478 22.6518 5.2624 22.5C6.0874 21.075 7.0249 18.475 7.0249 14Z" stroke="black" stroke-linecap="round" stroke-linejoin="round"/>
<path d="M12 24V25C12 26.0609 12.4214 27.0783 13.1716 27.8284C13.9217 28.5786 14.9391 29 16 29C17.0609 29 18.0783 28.5786 18.8284 27.8284C19.5786 27.0783 20 26.0609 20 25V24" stroke="black" stroke-linecap="round" stroke-linejoin="round"/>
<path d="M22.9248 3C24.9609 4.28526 26.6041 6.10584 27.6748 8.2625" stroke="black" stroke-linecap="round" stroke-linejoin="round"/>
<path d="M4.3252 8.2625C5.39585 6.10584 7.03913 4.28526 9.0752 3" stroke="black" stroke-linecap="round" stroke-linejoin="round"/>
</svg>
