<svg width="32" height="32" viewBox="0 0 32 32" fill="none" xmlns="http://www.w3.org/2000/svg">
<path d="M6 5L26 27" stroke="black" stroke-linecap="round" stroke-linejoin="round"/>
<path d="M12 28H20" stroke="black" stroke-linecap="round" stroke-linejoin="round"/>
<path d="M11.5625 5.175C12.9309 4.38914 14.4846 3.98347 16.0625 4C21.0125 4.0375 24.975 8.15 24.975 13.1125V14C24.975 17.3375 25.5 19.625 26.1 21.1625" stroke="black" stroke-linecap="round" stroke-linejoin="round"/>
<path d="M23.2749 24H6.12491C5.94782 24.0007 5.77373 23.9543 5.62043 23.8657C5.46714 23.777 5.34013 23.6492 5.25241 23.4954C5.16468 23.3415 5.11939 23.1672 5.12114 22.9901C5.1229 22.813 5.17165 22.6396 5.26241 22.4875C6.08741 21.075 7.02491 18.475 7.02491 14V13C7.02388 11.1705 7.57738 9.3836 8.61241 7.875" stroke="black" stroke-linecap="round" stroke-linejoin="round"/>
</svg>
