<svg width="32" height="32" viewBox="0 0 32 32" fill="none" xmlns="http://www.w3.org/2000/svg">
<path d="M20.5 9.5C21.0523 9.5 21.5 9.05228 21.5 8.5C21.5 7.94772 21.0523 7.5 20.5 7.5C19.9477 7.5 19.5 7.94772 19.5 8.5C19.5 9.05228 19.9477 9.5 20.5 9.5Z" fill="black"/>
<path d="M15 17L10 23" stroke="black" stroke-linecap="round" stroke-linejoin="round"/>
<path d="M26 12.0001V15.0001C26 18.1827 24.7357 21.2349 22.4853 23.4854C20.2348 25.7358 17.1826 27.0001 14 27.0001H1L13 12.0001V9.5001C13.0026 7.92107 13.58 6.39699 14.6242 5.21253C15.6684 4.02806 17.1081 3.26421 18.6744 3.06365C20.2406 2.86308 21.8263 3.23952 23.1353 4.12264C24.4443 5.00576 25.3871 6.33518 25.7875 7.8626L29 10.0001L26 12.0001Z" stroke="black" stroke-linecap="round" stroke-linejoin="round"/>
</svg>
