<?xml version="1.0" encoding="utf-8"?><!-- Uploaded to: SVG Repo, www.svgrepo.com, Generator: SVG Repo Mixer Tools -->
<svg width="800px" height="800px" viewBox="0 0 24 24" fill="none" xmlns="http://www.w3.org/2000/svg">
<path d="M11.09 21.5C11.0106 21.5145 10.9293 21.5145 10.85 21.5C10.6768 21.4478 10.5255 21.3403 10.419 21.1941C10.3125 21.0479 10.2566 20.8709 10.26 20.69V20.58L11.16 14.23H6.82C6.67364 14.2302 6.53005 14.1901 6.40487 14.1143C6.27968 14.0385 6.17769 13.9298 6.11 13.8C6.03352 13.6696 5.99321 13.5212 5.99321 13.37C5.99321 13.2189 6.03352 13.0704 6.11 12.94L8.11 9.45003L12.21 2.93003C12.3011 2.77619 12.4417 2.65781 12.6088 2.59423C12.7759 2.53066 12.9597 2.52565 13.13 2.58003C13.3032 2.6323 13.4545 2.73972 13.561 2.88594C13.6675 3.03216 13.7234 3.20916 13.72 3.39003V3.50003L12.82 9.85003H17.17C17.3164 9.8499 17.4599 9.88992 17.5851 9.96574C17.7103 10.0416 17.8123 10.1503 17.88 10.28C17.9565 10.4104 17.9968 10.5589 17.9968 10.71C17.9968 10.8612 17.9565 11.0096 17.88 11.14L15.88 14.63L11.78 21.15C11.7047 21.2626 11.6016 21.354 11.4808 21.4153C11.3599 21.4766 11.2254 21.5058 11.09 21.5ZM7.93 12.69H11.93C12.0403 12.6913 12.1493 12.7144 12.2507 12.7578C12.3521 12.8012 12.444 12.8642 12.5211 12.9431C12.5981 13.022 12.6589 13.1154 12.6999 13.2178C12.7409 13.3202 12.7613 13.4297 12.76 13.54V13.65L12.17 17.79L14.67 13.79L16.11 11.31H12.11C11.9997 11.3087 11.8907 11.2857 11.7893 11.2423C11.6879 11.1988 11.596 11.1359 11.5189 11.0569C11.4419 10.978 11.3811 10.8847 11.3401 10.7823C11.2991 10.6798 11.2787 10.5703 11.28 10.46V10.35L11.87 6.21003L9.37 10.21L7.93 12.69Z" fill="#000000"/>
</svg>