<svg width="32" height="32" viewBox="0 0 32 32" fill="none" xmlns="http://www.w3.org/2000/svg">
<path d="M10 5H6C5.44772 5 5 5.44772 5 6V26C5 26.5523 5.44772 27 6 27H10C10.5523 27 11 26.5523 11 26V6C11 5.44772 10.5523 5 10 5Z" stroke="black" stroke-linecap="round" stroke-linejoin="round"/>
<path d="M5 10H11" stroke="black" stroke-linecap="round" stroke-linejoin="round"/>
<path d="M16 5H12C11.4477 5 11 5.44772 11 6V26C11 26.5523 11.4477 27 12 27H16C16.5523 27 17 26.5523 17 26V6C17 5.44772 16.5523 5 16 5Z" stroke="black" stroke-linecap="round" stroke-linejoin="round"/>
<path d="M11 22H17" stroke="black" stroke-linecap="round" stroke-linejoin="round"/>
<path d="M21.8304 4.67978L17.9667 5.71506C17.4332 5.858 17.1166 6.40634 17.2596 6.9398L22.4359 26.2583C22.5789 26.7918 23.1272 27.1084 23.6607 26.9654L27.5244 25.9301C28.0578 25.7872 28.3744 25.2389 28.2315 24.7054L23.0551 5.38689C22.9122 4.85342 22.3638 4.53684 21.8304 4.67978Z" stroke="black" stroke-linecap="round" stroke-linejoin="round"/>
<path d="M21.3999 22.3999L27.1999 20.8374" stroke="black" stroke-linecap="round" stroke-linejoin="round"/>
<path d="M18.3 10.8L24.1 9.25" stroke="black" stroke-linecap="round" stroke-linejoin="round"/>
</svg>
