<svg width="32" height="32" viewBox="0 0 32 32" fill="none" xmlns="http://www.w3.org/2000/svg">
<path d="M19.5 11.5C20.0523 11.5 20.5 11.0523 20.5 10.5C20.5 9.94772 20.0523 9.5 19.5 9.5C18.9477 9.5 18.5 9.94772 18.5 10.5C18.5 11.0523 18.9477 11.5 19.5 11.5Z" fill="black"/>
<path d="M12.5 11.5C13.0523 11.5 13.5 11.0523 13.5 10.5C13.5 9.94772 13.0523 9.5 12.5 9.5C11.9477 9.5 11.5 9.94772 11.5 10.5C11.5 11.0523 11.9477 11.5 12.5 11.5Z" fill="black"/>
<path d="M25.9875 18.5C25.9875 21.1522 24.934 23.6957 23.0586 25.5711C21.1833 27.4464 18.6397 28.5 15.9875 28.5C13.3354 28.5 10.7918 27.4464 8.91648 25.5711C7.04112 23.6957 5.98755 21.1522 5.98755 18.5V13.5C5.98755 10.8478 7.04112 8.3043 8.91648 6.42893C10.7918 4.55357 13.3354 3.5 15.9875 3.5C18.6397 3.5 21.1833 4.55357 23.0586 6.42893C24.934 8.3043 25.9875 10.8478 25.9875 13.5V18.5Z" stroke="black" stroke-linecap="round" stroke-linejoin="round"/>
<path d="M25.9875 16H5.98755" stroke="black" stroke-linecap="round" stroke-linejoin="round"/>
<path d="M6.98755 3.5L9.52505 5.8625" stroke="black" stroke-linecap="round" stroke-linejoin="round"/>
<path d="M24.9874 3.5L22.45 5.8625" stroke="black" stroke-linecap="round" stroke-linejoin="round"/>
</svg>
