<svg width="32" height="32" viewBox="0 0 32 32" fill="none" xmlns="http://www.w3.org/2000/svg">
<path d="M22 8H10V14H22V8Z" stroke="black" stroke-linecap="round" stroke-linejoin="round"/>
<path d="M26 27V5C26 4.44772 25.5523 4 25 4L7 4C6.44772 4 6 4.44772 6 5V27C6 27.5523 6.44772 28 7 28H25C25.5523 28 26 27.5523 26 27Z" stroke="black" stroke-linecap="round" stroke-linejoin="round"/>
<path d="M11 19.5C11.5523 19.5 12 19.0523 12 18.5C12 17.9477 11.5523 17.5 11 17.5C10.4477 17.5 10 17.9477 10 18.5C10 19.0523 10.4477 19.5 11 19.5Z" fill="black"/>
<path d="M16 19.5C16.5523 19.5 17 19.0523 17 18.5C17 17.9477 16.5523 17.5 16 17.5C15.4477 17.5 15 17.9477 15 18.5C15 19.0523 15.4477 19.5 16 19.5Z" fill="black"/>
<path d="M21 19.5C21.5523 19.5 22 19.0523 22 18.5C22 17.9477 21.5523 17.5 21 17.5C20.4477 17.5 20 17.9477 20 18.5C20 19.0523 20.4477 19.5 21 19.5Z" fill="black"/>
<path d="M11 24.5C11.5523 24.5 12 24.0523 12 23.5C12 22.9477 11.5523 22.5 11 22.5C10.4477 22.5 10 22.9477 10 23.5C10 24.0523 10.4477 24.5 11 24.5Z" fill="black"/>
<path d="M16 24.5C16.5523 24.5 17 24.0523 17 23.5C17 22.9477 16.5523 22.5 16 22.5C15.4477 22.5 15 22.9477 15 23.5C15 24.0523 15.4477 24.5 16 24.5Z" fill="black"/>
<path d="M21 24.5C21.5523 24.5 22 24.0523 22 23.5C22 22.9477 21.5523 22.5 21 22.5C20.4477 22.5 20 22.9477 20 23.5C20 24.0523 20.4477 24.5 21 24.5Z" fill="black"/>
</svg>
