<svg width="32" height="32" viewBox="0 0 32 32" fill="none" xmlns="http://www.w3.org/2000/svg">
<path d="M16 24V28" stroke="black" stroke-linecap="round" stroke-linejoin="round"/>
<path d="M10.5 18.5C11.0523 18.5 11.5 18.0523 11.5 17.5C11.5 16.9477 11.0523 16.5 10.5 16.5C9.94772 16.5 9.5 16.9477 9.5 17.5C9.5 18.0523 9.94772 18.5 10.5 18.5Z" fill="black"/>
<path d="M21.5 18.5C22.0523 18.5 22.5 18.0523 22.5 17.5C22.5 16.9477 22.0523 16.5 21.5 16.5C20.9477 16.5 20.5 16.9477 20.5 17.5C20.5 18.0523 20.9477 18.5 21.5 18.5Z" fill="black"/>
<path d="M16 6V11" stroke="black" stroke-linecap="round" stroke-linejoin="round"/>
<path d="M18 22L16 24L14 22" stroke="black" stroke-linecap="round" stroke-linejoin="round"/>
<path d="M12 6.625V11" stroke="black" stroke-linecap="round" stroke-linejoin="round"/>
<path d="M20 6.625V11" stroke="black" stroke-linecap="round" stroke-linejoin="round"/>
<path d="M4 16.9999V6.41239C4.00033 6.2141 4.05961 6.02039 4.17029 5.85586C4.28098 5.69134 4.43808 5.56344 4.62163 5.48841C4.80518 5.41338 5.00689 5.39462 5.20113 5.4345C5.39537 5.47438 5.57336 5.57111 5.7125 5.71239L8.45 8.44989C10.637 6.84114 13.2851 5.98182 16 5.99989C18.7149 5.98182 21.363 6.84114 23.55 8.44989V8.44989L26.2875 5.71239C26.4266 5.57111 26.6046 5.47438 26.7989 5.4345C26.9931 5.39462 27.1948 5.41338 27.3784 5.48841C27.5619 5.56344 27.719 5.69134 27.8297 5.85586C27.9404 6.02039 27.9997 6.2141 28 6.41239V16.9999C28 23.0749 22.625 27.9999 16 27.9999C9.375 27.9999 4 23.0749 4 16.9999Z" stroke="black" stroke-linecap="round" stroke-linejoin="round"/>
</svg>
