<svg width="32" height="32" viewBox="0 0 32 32" fill="none" xmlns="http://www.w3.org/2000/svg">
<path d="M24.9999 5.41251V26C24.9999 26.2652 24.8945 26.5196 24.707 26.7071C24.5195 26.8947 24.2651 27 23.9999 27H3.41239C3.2141 26.9997 3.02039 26.9404 2.85586 26.8297C2.69134 26.719 2.56344 26.5619 2.48841 26.3784C2.41338 26.1948 2.39462 25.9931 2.4345 25.7989C2.47438 25.6046 2.57111 25.4266 2.71239 25.2875L23.2874 4.71251C23.4265 4.57123 23.6045 4.4745 23.7988 4.43462C23.993 4.39474 24.1947 4.4135 24.3783 4.48853C24.5618 4.56356 24.7189 4.69146 24.8296 4.85598C24.9403 5.02051 24.9996 5.21422 24.9999 5.41251Z" stroke="black" stroke-linecap="round" stroke-linejoin="round"/>
</svg>
