<svg width="32" height="32" viewBox="0 0 32 32" fill="none" xmlns="http://www.w3.org/2000/svg">
<path d="M6 5L26 27" stroke="black" stroke-linecap="round" stroke-linejoin="round"/>
<path d="M16.9248 11.075L23.2873 4.71251C23.4264 4.57123 23.6044 4.4745 23.7987 4.43462C23.9929 4.39474 24.1946 4.4135 24.3782 4.48853C24.5617 4.56356 24.7188 4.69146 24.8295 4.85598C24.9402 5.02051 24.9995 5.21422 24.9998 5.41251V19.95" stroke="black" stroke-linecap="round" stroke-linejoin="round"/>
<path d="M25.9999 27H3.41239C3.2141 26.9997 3.02039 26.9404 2.85586 26.8297C2.69134 26.719 2.56344 26.5619 2.48841 26.3784C2.41338 26.1948 2.39462 25.9931 2.4345 25.7989C2.47438 25.6047 2.57111 25.4267 2.71239 25.2875L14.0999 13.9" stroke="black" stroke-linecap="round" stroke-linejoin="round"/>
</svg>
