<svg width="32" height="32" viewBox="0 0 32 32" fill="none" xmlns="http://www.w3.org/2000/svg">
<path d="M5.67509 22.125C4.1862 19.613 3.66541 16.6439 4.21048 13.7752C4.75555 10.9064 6.329 8.33525 8.63545 6.54438C10.9419 4.75352 13.8227 3.86611 16.7371 4.04875C19.6514 4.2314 22.3989 5.47153 24.4637 7.53634C26.5285 9.60115 27.7687 12.3486 27.9513 15.263C28.134 18.1774 27.2465 21.0582 25.4557 23.3646C23.6648 25.6711 21.0937 27.2445 18.2249 27.7896C15.3561 28.3347 12.3871 27.8139 9.87509 26.325V26.325L5.72509 27.5C5.55507 27.5497 5.37479 27.5528 5.20317 27.5089C5.03154 27.465 4.87488 27.3757 4.74962 27.2504C4.62435 27.1252 4.53509 26.9685 4.49119 26.7969C4.44729 26.6253 4.45036 26.445 4.50009 26.275L5.67509 22.125Z" stroke="black" stroke-linecap="round" stroke-linejoin="round"/>
</svg>
