<svg width="32" height="32" viewBox="0 0 32 32" fill="none" xmlns="http://www.w3.org/2000/svg">
<path d="M12 22H3.75C3.55109 22 3.36032 21.921 3.21967 21.7803C3.07902 21.6397 3 21.4489 3 21.25V13C3 10.6131 3.94821 8.32387 5.63604 6.63604C7.32387 4.94821 9.61305 4 12 4V4C14.3869 4 16.6761 4.94821 18.364 6.63604C20.0518 8.32387 21 10.6131 21 13V13C21 15.3869 20.0518 17.6761 18.364 19.364C16.6761 21.0518 14.3869 22 12 22V22Z" stroke="black" stroke-linecap="round" stroke-linejoin="round"/>
<path d="M11.5125 22C12.133 23.7551 13.2824 25.2746 14.8025 26.3491C16.3226 27.4237 18.1384 28.0005 20 28H28.25C28.4489 28 28.6396 27.921 28.7803 27.7803C28.9209 27.6397 29 27.4489 29 27.25V19C29.0032 16.6964 28.1218 14.4796 26.5377 12.8071C24.9536 11.1346 22.7878 10.1343 20.4875 10.0125" stroke="black" stroke-linecap="round" stroke-linejoin="round"/>
</svg>
