<svg width="32" height="32" viewBox="0 0 32 32" fill="none" xmlns="http://www.w3.org/2000/svg">
<path d="M5.67509 22.125C4.1862 19.613 3.66541 16.6439 4.21048 13.7752C4.75555 10.9064 6.329 8.33525 8.63545 6.54438C10.9419 4.75352 13.8227 3.86611 16.7371 4.04875C19.6514 4.2314 22.3989 5.47153 24.4637 7.53634C26.5285 9.60115 27.7687 12.3486 27.9513 15.263C28.134 18.1774 27.2465 21.0582 25.4557 23.3646C23.6648 25.6711 21.0937 27.2445 18.2249 27.7896C15.3561 28.3347 12.3871 27.8139 9.87509 26.325V26.325L5.72509 27.5C5.55507 27.5497 5.37479 27.5528 5.20317 27.5089C5.03154 27.465 4.87488 27.3757 4.74962 27.2504C4.62435 27.1252 4.53509 26.9685 4.49119 26.7969C4.44729 26.6253 4.45036 26.445 4.50009 26.275L5.67509 22.125Z" stroke="black" stroke-linecap="round" stroke-linejoin="round"/>
<path d="M16 17C16.5523 17 17 16.5523 17 16C17 15.4477 16.5523 15 16 15C15.4477 15 15 15.4477 15 16C15 16.5523 15.4477 17 16 17Z" fill="black"/>
<path d="M10 17C10.5523 17 11 16.5523 11 16C11 15.4477 10.5523 15 10 15C9.44772 15 9 15.4477 9 16C9 16.5523 9.44772 17 10 17Z" fill="black"/>
<path d="M22 17C22.5523 17 23 16.5523 23 16C23 15.4477 22.5523 15 22 15C21.4477 15 21 15.4477 21 16C21 16.5523 21.4477 17 22 17Z" fill="black"/>
</svg>
