<svg width="32" height="32" viewBox="0 0 32 32" fill="none" xmlns="http://www.w3.org/2000/svg">
<path d="M4.26241 17.5875C3.14161 15.6992 2.74876 13.4667 3.15764 11.3092C3.56653 9.15172 4.74901 7.21775 6.48302 5.8705C8.21702 4.52325 10.3832 3.85542 12.5748 3.99242C14.7664 4.12943 16.8326 5.06185 18.3853 6.61456C19.938 8.16728 20.8705 10.2335 21.0075 12.4251C21.1445 14.6166 20.4766 16.7829 19.1294 18.5169C17.7821 20.2509 15.8482 21.4334 13.6907 21.8422C11.5332 22.2511 9.30071 21.8583 7.41241 20.7375L4.29991 21.625C4.17167 21.661 4.03614 21.6623 3.90726 21.6286C3.77837 21.5949 3.66079 21.5275 3.56659 21.4333C3.47239 21.3391 3.40499 21.2215 3.3713 21.0926C3.33761 20.9637 3.33886 20.8282 3.37491 20.7L4.26241 17.5875Z" stroke="black" stroke-linecap="round" stroke-linejoin="round"/>
<path d="M11.5125 21.9875C11.953 23.2436 12.6671 24.3861 13.603 25.3325C14.539 26.279 15.6735 27.0057 16.9246 27.4602C18.1757 27.9147 19.5121 28.0857 20.8373 27.9607C22.1625 27.8357 23.4434 27.4179 24.5875 26.7375V26.7375L27.7 27.625C27.8282 27.6611 27.9637 27.6623 28.0926 27.6286C28.2215 27.5949 28.3391 27.5275 28.4333 27.4333C28.5275 27.3391 28.5949 27.2216 28.6286 27.0927C28.6623 26.9638 28.661 26.8283 28.625 26.7L27.7374 23.5875C28.5298 22.2575 28.9651 20.7454 29.0013 19.1977C29.0375 17.6501 28.6733 16.1193 27.944 14.7537C27.2147 13.3881 26.145 12.2341 24.8386 11.4035C23.5322 10.5728 22.0334 10.0937 20.4875 10.0125" stroke="black" stroke-linecap="round" stroke-linejoin="round"/>
</svg>
