<svg width="32" height="32" viewBox="0 0 32 32" fill="none" xmlns="http://www.w3.org/2000/svg">
<path d="M6 5L26 27" stroke="black" stroke-linecap="round" stroke-linejoin="round"/>
<path d="M24.2375 25.0625C22.9105 25.6811 21.4641 26.0011 20 26H9C7.14348 26 5.36301 25.2625 4.05025 23.9497C2.7375 22.637 2 20.8565 2 19C2 17.1435 2.7375 15.363 4.05025 14.0503C5.36301 12.7375 7.14348 12 9 12C9.58566 11.9998 10.1692 12.0711 10.7375 12.2125" stroke="black" stroke-linecap="round" stroke-linejoin="round"/>
<path d="M14.0752 7.93749C16.067 6.45968 18.5368 5.77476 21.0053 6.01571C23.4737 6.25666 25.7645 7.40628 27.4329 9.24137C29.1013 11.0764 30.0282 13.466 30.0337 15.9462C30.0392 18.4263 29.1229 20.82 27.4627 22.6625" stroke="black" stroke-linecap="round" stroke-linejoin="round"/>
<path d="M10 16C9.99509 14.214 10.4746 12.4601 11.3875 10.925" stroke="black" stroke-linecap="round" stroke-linejoin="round"/>
</svg>
