<svg width="32" height="32" viewBox="0 0 32 32" fill="none" xmlns="http://www.w3.org/2000/svg">
<path d="M11 18.5C11 16.8189 11.4985 15.1755 12.4325 13.7777C13.3665 12.3798 14.694 11.2904 16.2472 10.647C17.8004 10.0037 19.5094 9.83535 21.1583 10.1633C22.8071 10.4913 24.3217 11.3008 25.5104 12.4896C26.6992 13.6783 27.5087 15.1929 27.8367 16.8417C28.1647 18.4906 27.9963 20.1996 27.353 21.7528C26.7096 23.306 25.6202 24.6335 24.2223 25.5675C22.8245 26.5015 21.1811 27 19.5 27H9.5C8.04131 27 6.64236 26.4205 5.61091 25.3891C4.57946 24.3576 4 22.9587 4 21.5C4 20.0413 4.57946 18.6424 5.61091 17.6109C6.64236 16.5795 8.04131 16 9.5 16C10.1086 15.9969 10.7133 16.0983 11.2875 16.3" stroke="black" stroke-linecap="round" stroke-linejoin="round"/>
<path d="M9.9625 7.08745L9.4375 4.13745" stroke="black" stroke-linecap="round" stroke-linejoin="round"/>
<path d="M6.0875 9.5624L3.625 7.8374" stroke="black" stroke-linecap="round" stroke-linejoin="round"/>
<path d="M5.0877 14.0376L2.1377 14.5626" stroke="black" stroke-linecap="round" stroke-linejoin="round"/>
<path d="M14.4375 8.0875L16.1625 5.625" stroke="black" stroke-linecap="round" stroke-linejoin="round"/>
<path d="M6.45005 16.9251C5.7491 16.0996 5.27903 15.1034 5.08755 14.0376C4.83361 12.5958 5.11556 11.1109 5.8803 9.86258C6.64504 8.61423 7.83981 7.68854 9.23961 7.25985C10.6394 6.83115 12.1476 6.92902 13.4803 7.53503C14.8129 8.14104 15.8781 9.21337 16.4751 10.5501" stroke="black" stroke-linecap="round" stroke-linejoin="round"/>
</svg>
