<svg width="32" height="32" viewBox="0 0 32 32" fill="none" xmlns="http://www.w3.org/2000/svg">
<path d="M11 11.5C11 9.81886 11.4985 8.17547 12.4325 6.77766C13.3665 5.37984 14.694 4.29037 16.2472 3.64703C17.8004 3.00368 19.5094 2.83535 21.1583 3.16333C22.8071 3.4913 24.3217 4.30085 25.5104 5.4896C26.6992 6.67834 27.5087 8.1929 27.8367 9.84174C28.1647 11.4906 27.9963 13.1996 27.353 14.7528C26.7096 16.306 25.6202 17.6335 24.2223 18.5675C22.8245 19.5015 21.1811 20 19.5 20H9.5C8.04131 20 6.64236 19.4205 5.61091 18.3891C4.57946 17.3576 4 15.9587 4 14.5C4 13.0413 4.57946 11.6424 5.61091 10.6109C6.64236 9.57947 8.04131 9 9.5 9C10.1086 8.99687 10.7133 9.09835 11.2875 9.3" stroke="black" stroke-linecap="round" stroke-linejoin="round"/>
<path d="M9.5 25.5C10.0523 25.5 10.5 25.0523 10.5 24.5C10.5 23.9477 10.0523 23.5 9.5 23.5C8.94772 23.5 8.5 23.9477 8.5 24.5C8.5 25.0523 8.94772 25.5 9.5 25.5Z" fill="black"/>
<path d="M14.5 27.5C15.0523 27.5 15.5 27.0523 15.5 26.5C15.5 25.9477 15.0523 25.5 14.5 25.5C13.9477 25.5 13.5 25.9477 13.5 26.5C13.5 27.0523 13.9477 27.5 14.5 27.5Z" fill="black"/>
<path d="M20.5 25.5C21.0523 25.5 21.5 25.0523 21.5 24.5C21.5 23.9477 21.0523 23.5 20.5 23.5C19.9477 23.5 19.5 23.9477 19.5 24.5C19.5 25.0523 19.9477 25.5 20.5 25.5Z" fill="black"/>
<path d="M8.5 30.5C9.05228 30.5 9.5 30.0523 9.5 29.5C9.5 28.9477 9.05228 28.5 8.5 28.5C7.94772 28.5 7.5 28.9477 7.5 29.5C7.5 30.0523 7.94772 30.5 8.5 30.5Z" fill="black"/>
<path d="M19.5 30.5C20.0523 30.5 20.5 30.0523 20.5 29.5C20.5 28.9477 20.0523 28.5 19.5 28.5C18.9477 28.5 18.5 28.9477 18.5 29.5C18.5 30.0523 18.9477 30.5 19.5 30.5Z" fill="black"/>
</svg>
