<svg width="32" height="32" viewBox="0 0 32 32" fill="none" xmlns="http://www.w3.org/2000/svg">
<path d="M28.0001 15.925C28.0117 17.5149 27.7059 19.0912 27.1006 20.5615C26.4953 22.0318 25.6027 23.3665 24.4751 24.4875C19.8626 29.1 12.3126 29.15 7.63756 24.6C5.92242 22.931 4.74549 20.7873 4.25798 18.4443C3.77047 16.1013 3.99465 13.666 4.90172 11.4514C5.8088 9.23684 7.35732 7.34403 9.34835 6.01622C11.3394 4.68841 13.6819 3.98625 16.0751 3.99995C16.2248 4.00216 16.3722 4.03756 16.5066 4.10359C16.641 4.16962 16.7591 4.26464 16.8523 4.38181C16.9456 4.49898 17.0117 4.63538 17.0459 4.78118C17.0801 4.92697 17.0815 5.07854 17.0501 5.22495C16.9198 5.8057 16.9208 6.40819 17.053 6.9885C17.1851 7.56882 17.4451 8.11232 17.814 8.5794C18.1829 9.04648 18.6513 9.42536 19.1852 9.68841C19.7191 9.95146 20.3049 10.0921 20.9001 10.1C21.1653 10.1 21.4196 10.2053 21.6072 10.3928C21.7947 10.5804 21.9001 10.8347 21.9001 11.1C21.908 11.6951 22.0486 12.2809 22.3116 12.8148C22.5747 13.3487 22.9535 13.8172 23.4206 14.186C23.8877 14.5549 24.4312 14.8149 25.0115 14.947C25.5918 15.0792 26.1943 15.0802 26.7751 14.95C26.9215 14.9185 27.073 14.9199 27.2188 14.9541C27.3646 14.9883 27.501 15.0544 27.6182 15.1477C27.7354 15.2409 27.8304 15.359 27.8964 15.4934C27.9625 15.6278 27.9979 15.7752 28.0001 15.925V15.925Z" stroke="black" stroke-linecap="round" stroke-linejoin="round"/>
<path d="M19.5 22.5C20.0523 22.5 20.5 22.0523 20.5 21.5C20.5 20.9477 20.0523 20.5 19.5 20.5C18.9477 20.5 18.5 20.9477 18.5 21.5C18.5 22.0523 18.9477 22.5 19.5 22.5Z" fill="black"/>
<path d="M11.5 21.5C12.0523 21.5 12.5 21.0523 12.5 20.5C12.5 19.9477 12.0523 19.5 11.5 19.5C10.9477 19.5 10.5 19.9477 10.5 20.5C10.5 21.0523 10.9477 21.5 11.5 21.5Z" fill="black"/>
<path d="M10.5 14.5C11.0523 14.5 11.5 14.0523 11.5 13.5C11.5 12.9477 11.0523 12.5 10.5 12.5C9.94772 12.5 9.5 12.9477 9.5 13.5C9.5 14.0523 9.94772 14.5 10.5 14.5Z" fill="black"/>
<path d="M17 16.5C17.5523 16.5 18 16.0523 18 15.5C18 14.9477 17.5523 14.5 17 14.5C16.4477 14.5 16 14.9477 16 15.5C16 16.0523 16.4477 16.5 17 16.5Z" fill="black"/>
</svg>
