<svg width="32" height="32" viewBox="0 0 32 32" fill="none" xmlns="http://www.w3.org/2000/svg">
<path d="M5.63752 24.5C5.66951 24.6315 5.72752 24.7552 5.80812 24.8639C5.88873 24.9725 5.99029 25.0639 6.10682 25.1327C6.22334 25.2014 6.35246 25.2461 6.48656 25.2641C6.62065 25.2821 6.75699 25.2731 6.88752 25.2375C12.8463 23.5876 19.1413 23.5876 25.1 25.2375C25.2306 25.2731 25.3669 25.2821 25.501 25.2641C25.6351 25.2461 25.7642 25.2014 25.8807 25.1327C25.9973 25.0639 26.0988 24.9725 26.1794 24.8639C26.26 24.7552 26.318 24.6315 26.35 24.5L29.5375 10.9625C29.5813 10.7813 29.5735 10.5915 29.5151 10.4145C29.4567 10.2374 29.35 10.0803 29.207 9.96066C29.064 9.84107 28.8905 9.76383 28.7059 9.73765C28.5213 9.71147 28.3331 9.73741 28.1625 9.81252L21.8375 12.625C21.6083 12.7259 21.3499 12.7383 21.1121 12.6598C20.8743 12.5813 20.6741 12.4175 20.55 12.2L16.875 5.57502C16.7885 5.41872 16.6618 5.28843 16.5079 5.19771C16.354 5.10699 16.1787 5.05914 16 5.05914C15.8214 5.05914 15.646 5.10699 15.4921 5.19771C15.3383 5.28843 15.2115 5.41872 15.125 5.57502L11.45 12.2C11.326 12.4175 11.1257 12.5813 10.8879 12.6598C10.6501 12.7383 10.3917 12.7259 10.1625 12.625L3.83752 9.81252C3.66691 9.73741 3.47871 9.71147 3.29414 9.73765C3.10958 9.76383 2.93601 9.84107 2.79302 9.96066C2.65002 10.0803 2.54331 10.2374 2.48491 10.4145C2.42651 10.5915 2.41876 10.7813 2.46252 10.9625L5.63752 24.5Z" stroke="black" stroke-linecap="round" stroke-linejoin="round"/>
<path d="M12 20.2125C14.6589 19.925 17.3411 19.925 20 20.2125" stroke="black" stroke-linecap="round" stroke-linejoin="round"/>
</svg>
