<svg width="24" height="24" viewBox="0 0 24 24" fill="none" xmlns="http://www.w3.org/2000/svg">
<path fill-rule="evenodd" clip-rule="evenodd" d="M2 12C2 11.6319 2.29848 11.3334 2.66667 11.3334H6C6.36819 11.3334 6.66667 11.6319 6.66667 12C6.66667 12.3682 6.36819 12.6667 6 12.6667H2.66667C2.29848 12.6667 2 12.3682 2 12ZM9.66667 12C9.66667 11.6319 9.96515 11.3334 10.3333 11.3334H13.6667C14.0349 11.3334 14.3333 11.6319 14.3333 12C14.3333 12.3682 14.0349 12.6667 13.6667 12.6667H10.3333C9.96515 12.6667 9.66667 12.3682 9.66667 12ZM18 11.3334C17.6319 11.3334 17.3333 11.6319 17.3333 12C17.3333 12.3682 17.6319 12.6667 18 12.6667H21.3333C21.7015 12.6667 22 12.3682 22 12C22 11.6319 21.7015 11.3334 21.3333 11.3334H18Z" fill="white"/>
</svg>
