<svg width="32" height="32" viewBox="0 0 32 32" fill="none" xmlns="http://www.w3.org/2000/svg">
<path d="M15.2883 3.70994L11.6998 7.29851C11.3093 7.68903 11.3093 8.3222 11.6998 8.71272L15.2857 12.2986C15.6762 12.6892 16.3094 12.6892 16.6999 12.2986L20.2885 8.71007C20.679 8.31955 20.679 7.68638 20.2885 7.29586L16.7026 3.70994C16.312 3.31942 15.6789 3.31942 15.2883 3.70994Z" stroke="black" stroke-linecap="round" stroke-linejoin="round"/>
<path d="M23.2896 11.7099L19.701 15.2985C19.3105 15.689 19.3105 16.3222 19.701 16.7127L23.2869 20.2986C23.6774 20.6892 24.3106 20.6892 24.7011 20.2986L28.2897 16.7101C28.6802 16.3195 28.6802 15.6864 28.2897 15.2959L24.7038 11.7099C24.3133 11.3194 23.6801 11.3194 23.2896 11.7099Z" stroke="black" stroke-linecap="round" stroke-linejoin="round"/>
<path d="M7.28835 11.6987L3.69978 15.2873C3.30926 15.6778 3.30926 16.311 3.69978 16.7015L7.2857 20.2874C7.67622 20.6779 8.30939 20.6779 8.69991 20.2874L12.2885 16.6988C12.679 16.3083 12.679 15.6752 12.2885 15.2846L8.70256 11.6987C8.31204 11.3082 7.67887 11.3082 7.28835 11.6987Z" stroke="black" stroke-linecap="round" stroke-linejoin="round"/>
<path d="M15.2896 19.6987L11.701 23.2873C11.3105 23.6778 11.3105 24.311 11.701 24.7015L15.2869 28.2874C15.6774 28.6779 16.3106 28.6779 16.7011 28.2874L20.2897 24.6988C20.6802 24.3083 20.6802 23.6752 20.2897 23.2846L16.7038 19.6987C16.3133 19.3082 15.6801 19.3082 15.2896 19.6987Z" stroke="black" stroke-linecap="round" stroke-linejoin="round"/>
</svg>
