<svg width="32" height="32" viewBox="0 0 32 32" fill="none" xmlns="http://www.w3.org/2000/svg">
<path d="M24 5H8C6.34315 5 5 6.34315 5 8V24C5 25.6569 6.34315 27 8 27H24C25.6569 27 27 25.6569 27 24V8C27 6.34315 25.6569 5 24 5Z" stroke="black" stroke-linecap="round" stroke-linejoin="round"/>
<path d="M11.5 11.5C12.0523 11.5 12.5 11.0523 12.5 10.5C12.5 9.94772 12.0523 9.5 11.5 9.5C10.9477 9.5 10.5 9.94772 10.5 10.5C10.5 11.0523 10.9477 11.5 11.5 11.5Z" fill="black"/>
<path d="M20.5 11.5C21.0523 11.5 21.5 11.0523 21.5 10.5C21.5 9.94772 21.0523 9.5 20.5 9.5C19.9477 9.5 19.5 9.94772 19.5 10.5C19.5 11.0523 19.9477 11.5 20.5 11.5Z" fill="black"/>
<path d="M11.5 17C12.0523 17 12.5 16.5523 12.5 16C12.5 15.4477 12.0523 15 11.5 15C10.9477 15 10.5 15.4477 10.5 16C10.5 16.5523 10.9477 17 11.5 17Z" fill="black"/>
<path d="M20.5 17C21.0523 17 21.5 16.5523 21.5 16C21.5 15.4477 21.0523 15 20.5 15C19.9477 15 19.5 15.4477 19.5 16C19.5 16.5523 19.9477 17 20.5 17Z" fill="black"/>
<path d="M11.5 22.5C12.0523 22.5 12.5 22.0523 12.5 21.5C12.5 20.9477 12.0523 20.5 11.5 20.5C10.9477 20.5 10.5 20.9477 10.5 21.5C10.5 22.0523 10.9477 22.5 11.5 22.5Z" fill="black"/>
<path d="M20.5 22.5C21.0523 22.5 21.5 22.0523 21.5 21.5C21.5 20.9477 21.0523 20.5 20.5 20.5C19.9477 20.5 19.5 20.9477 19.5 21.5C19.5 22.0523 19.9477 22.5 20.5 22.5Z" fill="black"/>
</svg>
