<svg width="32" height="32" viewBox="0 0 32 32" fill="none" xmlns="http://www.w3.org/2000/svg">
<path d="M24 5H8C6.34315 5 5 6.34315 5 8V24C5 25.6569 6.34315 27 8 27H24C25.6569 27 27 25.6569 27 24V8C27 6.34315 25.6569 5 24 5Z" stroke="black" stroke-linecap="round" stroke-linejoin="round"/>
<path d="M13.5 14.5C14.0523 14.5 14.5 14.0523 14.5 13.5C14.5 12.9477 14.0523 12.5 13.5 12.5C12.9477 12.5 12.5 12.9477 12.5 13.5C12.5 14.0523 12.9477 14.5 13.5 14.5Z" fill="black"/>
<path d="M18.5 19.5C19.0523 19.5 19.5 19.0523 19.5 18.5C19.5 17.9477 19.0523 17.5 18.5 17.5C17.9477 17.5 17.5 17.9477 17.5 18.5C17.5 19.0523 17.9477 19.5 18.5 19.5Z" fill="black"/>
</svg>
