<svg width="32" height="32" viewBox="0 0 32 32" fill="none" xmlns="http://www.w3.org/2000/svg">
<path d="M24 5H8C6.34315 5 5 6.34315 5 8V24C5 25.6569 6.34315 27 8 27H24C25.6569 27 27 25.6569 27 24V8C27 6.34315 25.6569 5 24 5Z" stroke="black" stroke-linecap="round" stroke-linejoin="round"/>
<path d="M11.5 12.5C12.0523 12.5 12.5 12.0523 12.5 11.5C12.5 10.9477 12.0523 10.5 11.5 10.5C10.9477 10.5 10.5 10.9477 10.5 11.5C10.5 12.0523 10.9477 12.5 11.5 12.5Z" fill="black"/>
<path d="M16 17C16.5523 17 17 16.5523 17 16C17 15.4477 16.5523 15 16 15C15.4477 15 15 15.4477 15 16C15 16.5523 15.4477 17 16 17Z" fill="black"/>
<path d="M20.5 12.5C21.0523 12.5 21.5 12.0523 21.5 11.5C21.5 10.9477 21.0523 10.5 20.5 10.5C19.9477 10.5 19.5 10.9477 19.5 11.5C19.5 12.0523 19.9477 12.5 20.5 12.5Z" fill="black"/>
<path d="M11.5 21.5C12.0523 21.5 12.5 21.0523 12.5 20.5C12.5 19.9477 12.0523 19.5 11.5 19.5C10.9477 19.5 10.5 19.9477 10.5 20.5C10.5 21.0523 10.9477 21.5 11.5 21.5Z" fill="black"/>
<path d="M20.5 21.5C21.0523 21.5 21.5 21.0523 21.5 20.5C21.5 19.9477 21.0523 19.5 20.5 19.5C19.9477 19.5 19.5 19.9477 19.5 20.5C19.5 21.0523 19.9477 21.5 20.5 21.5Z" fill="black"/>
</svg>
