<svg width="32" height="32" viewBox="0 0 32 32" fill="none" xmlns="http://www.w3.org/2000/svg">
<path d="M24 5H8C6.34315 5 5 6.34315 5 8V24C5 25.6569 6.34315 27 8 27H24C25.6569 27 27 25.6569 27 24V8C27 6.34315 25.6569 5 24 5Z" stroke="black" stroke-linecap="round" stroke-linejoin="round"/>
<path d="M12.5 13.5C13.0523 13.5 13.5 13.0523 13.5 12.5C13.5 11.9477 13.0523 11.5 12.5 11.5C11.9477 11.5 11.5 11.9477 11.5 12.5C11.5 13.0523 11.9477 13.5 12.5 13.5Z" fill="black"/>
<path d="M19.5 13.5C20.0523 13.5 20.5 13.0523 20.5 12.5C20.5 11.9477 20.0523 11.5 19.5 11.5C18.9477 11.5 18.5 11.9477 18.5 12.5C18.5 13.0523 18.9477 13.5 19.5 13.5Z" fill="black"/>
<path d="M12.5 20.5C13.0523 20.5 13.5 20.0523 13.5 19.5C13.5 18.9477 13.0523 18.5 12.5 18.5C11.9477 18.5 11.5 18.9477 11.5 19.5C11.5 20.0523 11.9477 20.5 12.5 20.5Z" fill="black"/>
<path d="M19.5 20.5C20.0523 20.5 20.5 20.0523 20.5 19.5C20.5 18.9477 20.0523 18.5 19.5 18.5C18.9477 18.5 18.5 18.9477 18.5 19.5C18.5 20.0523 18.9477 20.5 19.5 20.5Z" fill="black"/>
</svg>
