<svg width="32" height="32" viewBox="0 0 32 32" fill="none" xmlns="http://www.w3.org/2000/svg">
<path d="M16 24V27" stroke="black" stroke-linecap="round" stroke-linejoin="round"/>
<path d="M11.5 18.5C12.0523 18.5 12.5 18.0523 12.5 17.5C12.5 16.9477 12.0523 16.5 11.5 16.5C10.9477 16.5 10.5 16.9477 10.5 17.5C10.5 18.0523 10.9477 18.5 11.5 18.5Z" fill="black"/>
<path d="M20.5 18.5C21.0523 18.5 21.5 18.0523 21.5 17.5C21.5 16.9477 21.0523 16.5 20.5 16.5C19.9477 16.5 19.5 16.9477 19.5 17.5C19.5 18.0523 19.9477 18.5 20.5 18.5Z" fill="black"/>
<path d="M18 22L16 24L14 22" stroke="black" stroke-linecap="round" stroke-linejoin="round"/>
<path d="M19 5.99994L25.975 4.26244C26.1065 4.22934 26.2433 4.22332 26.3772 4.24475C26.5111 4.26618 26.6392 4.31461 26.7538 4.3871C26.8684 4.45959 26.967 4.55462 27.0437 4.66642C27.1204 4.77822 27.1736 4.90445 27.2 5.03744L29.25 15.9874C29.4375 17.0124 28.125 17.6124 27.475 16.7874L19 5.99994Z" stroke="black" stroke-linecap="round" stroke-linejoin="round"/>
<path d="M13.0001 5.99994L6.02508 4.26244C5.8936 4.22934 5.75676 4.22332 5.62288 4.24475C5.489 4.26618 5.36087 4.31461 5.24629 4.3871C5.13171 4.45959 5.03307 4.55462 4.95636 4.66642C4.87965 4.77822 4.82648 4.90445 4.80008 5.03744L2.75008 15.9874C2.56258 17.0124 3.87508 17.6124 4.52508 16.7874L13.0001 5.99994Z" stroke="black" stroke-linecap="round" stroke-linejoin="round"/>
<path d="M13 6H19" stroke="black" stroke-linecap="round" stroke-linejoin="round"/>
<path d="M26 14.9126V23.0001C26 24.061 25.5786 25.0784 24.8284 25.8285C24.0783 26.5787 23.0609 27.0001 22 27.0001H10C8.93913 27.0001 7.92172 26.5787 7.17157 25.8285C6.42143 25.0784 6 24.061 6 23.0001V14.9126" stroke="black" stroke-linecap="round" stroke-linejoin="round"/>
</svg>
