<svg width="32" height="32" viewBox="0 0 32 32" fill="none" xmlns="http://www.w3.org/2000/svg">
<path d="M3 28H29" stroke="black" stroke-linecap="round" stroke-linejoin="round"/>
<path d="M7 28V5C7 4.73478 7.10536 4.48043 7.29289 4.29289C7.48043 4.10536 7.73478 4 8 4H24C24.2652 4 24.5196 4.10536 24.7071 4.29289C24.8946 4.48043 25 4.73478 25 5V28" stroke="black" stroke-linecap="round" stroke-linejoin="round"/>
<path d="M19.5 17C20.0523 17 20.5 16.5523 20.5 16C20.5 15.4477 20.0523 15 19.5 15C18.9477 15 18.5 15.4477 18.5 16C18.5 16.5523 18.9477 17 19.5 17Z" fill="black"/>
</svg>
