<svg width="32" height="32" viewBox="0 0 32 32" fill="none" xmlns="http://www.w3.org/2000/svg">
<path d="M16 28C22.6274 28 28 22.6274 28 16C28 9.37258 22.6274 4 16 4C9.37258 4 4 9.37258 4 16C4 22.6274 9.37258 28 16 28Z" stroke="black" stroke-linecap="round" stroke-linejoin="round"/>
<path d="M16 11C16.5523 11 17 10.5523 17 10C17 9.44772 16.5523 9 16 9C15.4477 9 15 9.44772 15 10C15 10.5523 15.4477 11 16 11Z" fill="black"/>
<path d="M16 17C16.5523 17 17 16.5523 17 16C17 15.4477 16.5523 15 16 15C15.4477 15 15 15.4477 15 16C15 16.5523 15.4477 17 16 17Z" fill="black"/>
<path d="M16 23C16.5523 23 17 22.5523 17 22C17 21.4477 16.5523 21 16 21C15.4477 21 15 21.4477 15 22C15 22.5523 15.4477 23 16 23Z" fill="black"/>
</svg>
