<svg width="32" height="32" viewBox="0 0 32 32" fill="none" xmlns="http://www.w3.org/2000/svg">
<path d="M11.5 8.5C12.0523 8.5 12.5 8.05228 12.5 7.5C12.5 6.94772 12.0523 6.5 11.5 6.5C10.9477 6.5 10.5 6.94772 10.5 7.5C10.5 8.05228 10.9477 8.5 11.5 8.5Z" fill="black"/>
<path d="M20.5 8.5C21.0523 8.5 21.5 8.05228 21.5 7.5C21.5 6.94772 21.0523 6.5 20.5 6.5C19.9477 6.5 19.5 6.94772 19.5 7.5C19.5 8.05228 19.9477 8.5 20.5 8.5Z" fill="black"/>
<path d="M11.5 17C12.0523 17 12.5 16.5523 12.5 16C12.5 15.4477 12.0523 15 11.5 15C10.9477 15 10.5 15.4477 10.5 16C10.5 16.5523 10.9477 17 11.5 17Z" fill="black"/>
<path d="M20.5 17C21.0523 17 21.5 16.5523 21.5 16C21.5 15.4477 21.0523 15 20.5 15C19.9477 15 19.5 15.4477 19.5 16C19.5 16.5523 19.9477 17 20.5 17Z" fill="black"/>
<path d="M11.5 25.5C12.0523 25.5 12.5 25.0523 12.5 24.5C12.5 23.9477 12.0523 23.5 11.5 23.5C10.9477 23.5 10.5 23.9477 10.5 24.5C10.5 25.0523 10.9477 25.5 11.5 25.5Z" fill="black"/>
<path d="M20.5 25.5C21.0523 25.5 21.5 25.0523 21.5 24.5C21.5 23.9477 21.0523 23.5 20.5 23.5C19.9477 23.5 19.5 23.9477 19.5 24.5C19.5 25.0523 19.9477 25.5 20.5 25.5Z" fill="black"/>
</svg>
