<svg width="32" height="32" viewBox="0 0 32 32" fill="none" xmlns="http://www.w3.org/2000/svg">
<path d="M7.5 12.5C8.05228 12.5 8.5 12.0523 8.5 11.5C8.5 10.9477 8.05228 10.5 7.5 10.5C6.94772 10.5 6.5 10.9477 6.5 11.5C6.5 12.0523 6.94772 12.5 7.5 12.5Z" fill="black"/>
<path d="M16 12.5C16.5523 12.5 17 12.0523 17 11.5C17 10.9477 16.5523 10.5 16 10.5C15.4477 10.5 15 10.9477 15 11.5C15 12.0523 15.4477 12.5 16 12.5Z" fill="black"/>
<path d="M24.5 12.5C25.0523 12.5 25.5 12.0523 25.5 11.5C25.5 10.9477 25.0523 10.5 24.5 10.5C23.9477 10.5 23.5 10.9477 23.5 11.5C23.5 12.0523 23.9477 12.5 24.5 12.5Z" fill="black"/>
<path d="M7.5 21.5C8.05228 21.5 8.5 21.0523 8.5 20.5C8.5 19.9477 8.05228 19.5 7.5 19.5C6.94772 19.5 6.5 19.9477 6.5 20.5C6.5 21.0523 6.94772 21.5 7.5 21.5Z" fill="black"/>
<path d="M16 21.5C16.5523 21.5 17 21.0523 17 20.5C17 19.9477 16.5523 19.5 16 19.5C15.4477 19.5 15 19.9477 15 20.5C15 21.0523 15.4477 21.5 16 21.5Z" fill="black"/>
<path d="M24.5 21.5C25.0523 21.5 25.5 21.0523 25.5 20.5C25.5 19.9477 25.0523 19.5 24.5 19.5C23.9477 19.5 23.5 19.9477 23.5 20.5C23.5 21.0523 23.9477 21.5 24.5 21.5Z" fill="black"/>
</svg>
