<svg width="24" height="24" viewBox="0 0 24 24" fill="none" xmlns="http://www.w3.org/2000/svg">
<path fill-rule="evenodd" clip-rule="evenodd" d="M5.91406 20.9999C5.36406 20.9999 4.89323 20.8041 4.50156 20.4124C4.10989 20.0207 3.91406 19.5499 3.91406 18.9999V15.5523C3.91406 15.269 4.00989 15.0315 4.20156 14.8398C4.39323 14.6482 4.63073 14.5523 4.91406 14.5523C5.19739 14.5523 5.43489 14.6482 5.62656 14.8398C5.81823 15.0315 5.91406 15.269 5.91406 15.5523V17.9999C5.91406 18.5522 6.36178 18.9999 6.91406 18.9999H16.9141C17.4664 18.9999 17.9141 18.5522 17.9141 17.9999V15.5523C17.9141 15.269 18.0099 15.0315 18.2016 14.8398C18.3933 14.6482 18.6308 14.5523 18.9141 14.5523C19.1974 14.5523 19.4349 14.6482 19.6266 14.8398C19.8183 15.0315 19.9141 15.269 19.9141 15.5523V18.9999C19.9141 19.5499 19.7183 20.0207 19.3266 20.4124C18.9349 20.8041 18.4641 20.9999 17.9141 20.9999H5.91406Z" fill="#1C1B1F"/>
<path d="M14.8749 10.6999L12.9999 12.5749L13.038 3.91235C13.038 3.62895 12.9422 3.39145 12.7505 3.19985C12.5588 3.00815 12.3213 2.91235 12.038 2.91235C11.7547 2.91235 11.5172 3.00815 11.3255 3.19985C11.1338 3.39145 11.038 3.62895 11.038 3.91235L10.9999 12.5749L9.12487 10.6999C8.92487 10.4999 8.68737 10.404 8.41237 10.4124C8.13737 10.4207 7.89987 10.5249 7.69987 10.7249C7.51657 10.9249 7.42067 11.1582 7.41237 11.4249C7.40407 11.6915 7.49987 11.9249 7.69987 12.1249L11.2999 15.7249C11.3999 15.8249 11.5082 15.8957 11.6249 15.9374C11.7416 15.979 11.8666 15.9999 11.9999 15.9999C12.1332 15.9999 12.2582 15.979 12.3749 15.9374C12.4916 15.8957 12.5999 15.8249 12.6999 15.7249L16.2999 12.1249C16.4999 11.9249 16.5957 11.6915 16.5874 11.4249C16.579 11.1582 16.4832 10.9249 16.2999 10.7249C16.0999 10.5249 15.8624 10.4207 15.5874 10.4124C15.3124 10.404 15.0749 10.4999 14.8749 10.6999Z" fill="#1C1B1F"/>
</svg>
