<svg width="32" height="32" viewBox="0 0 32 32" fill="none" xmlns="http://www.w3.org/2000/svg">
<path d="M16 28C22.6274 28 28 22.6274 28 16C28 9.37258 22.6274 4 16 4C9.37258 4 4 9.37258 4 16C4 22.6274 9.37258 28 16 28Z" stroke="black" stroke-linecap="round" stroke-linejoin="round"/>
<path d="M8.875 25.6625C10.6565 22.7143 13.1689 20.2758 16.169 18.583C19.1691 16.8903 22.5553 16.0006 26 16C26.675 16 27.3375 16.0375 28 16.1" stroke="black" stroke-linecap="round" stroke-linejoin="round"/>
<path d="M23.5 6.63745C21.6258 8.93922 19.2621 10.7943 16.5809 12.0679C13.8997 13.3415 10.9684 14.0015 8.00005 14C6.73782 13.9985 5.47838 13.8814 4.23755 13.65" stroke="black" stroke-linecap="round" stroke-linejoin="round"/>
<path d="M10.7375 5.21252C14.4582 7.40579 17.3717 10.7412 19.045 14.7229C20.7183 18.7045 21.062 23.1199 20.025 27.3125" stroke="black" stroke-linecap="round" stroke-linejoin="round"/>
</svg>
