<svg width="32" height="32" viewBox="0 0 32 32" fill="none" xmlns="http://www.w3.org/2000/svg">
<path d="M6 5L26 27" stroke="black" stroke-linecap="round" stroke-linejoin="round"/>
<path d="M11.425 10.975C11.1419 11.6124 10.9971 12.3025 11 13" stroke="black" stroke-linecap="round" stroke-linejoin="round"/>
<path d="M10.875 4.41252C12.3929 3.50657 14.1238 3.01917 15.8914 2.99998C17.6591 2.98079 19.4002 3.4305 20.9374 4.30328C22.4746 5.17607 23.753 6.44074 24.6423 7.96845C25.5316 9.49616 26.0001 11.2323 26 13" stroke="black" stroke-linecap="round" stroke-linejoin="round"/>
<path d="M20.2375 27C19.5162 27.8717 18.5437 28.4997 17.4524 28.7985C16.3612 29.0973 15.2044 29.0523 14.1396 28.6696C13.0749 28.2869 12.1541 27.5851 11.5028 26.66C10.8515 25.7349 10.5013 24.6314 10.5 23.5C10.5 18.3125 6.00001 20 6.00001 13C5.99788 10.8845 6.66756 8.82291 7.9125 7.11249" stroke="black" stroke-linecap="round" stroke-linejoin="round"/>
<path d="M20.3875 14.875C20.7972 14.3369 21.013 13.6762 21 13C21.0022 12.2032 20.8135 11.4174 20.4496 10.7085C20.0857 9.99957 19.5573 9.38817 18.9085 8.92547C18.2598 8.46278 17.5096 8.16226 16.7208 8.04909C15.9321 7.93592 15.1277 8.01339 14.375 8.27502" stroke="black" stroke-linecap="round" stroke-linejoin="round"/>
<path d="M20.8626 21.35C20.4844 21.4859 20.0792 21.5292 19.6808 21.4762C19.2825 21.4231 18.9027 21.2753 18.5733 21.0451C18.2439 20.8148 17.9745 20.509 17.7878 20.1531C17.6011 19.7973 17.5024 19.4018 17.5001 19C17.4969 18.6118 17.5647 18.2263 17.7001 17.8625" stroke="black" stroke-linecap="round" stroke-linejoin="round"/>
</svg>
