<svg width="32" height="32" viewBox="0 0 32 32" fill="none" xmlns="http://www.w3.org/2000/svg">
<path d="M15.2249 4.95001L4.32486 18.375C4.2074 18.5217 4.13366 18.6985 4.11208 18.8852C4.09051 19.0719 4.12197 19.2609 4.20287 19.4305C4.28376 19.6001 4.41082 19.7435 4.56947 19.8442C4.72811 19.945 4.91194 19.999 5.09986 20H26.8999C27.0878 19.999 27.2716 19.945 27.4302 19.8442C27.5889 19.7435 27.716 19.6001 27.7968 19.4305C27.8777 19.2609 27.9092 19.0719 27.8876 18.8852C27.8661 18.6985 27.7923 18.5217 27.6749 18.375L16.7749 4.95001C16.6811 4.835 16.5629 4.74231 16.4288 4.67865C16.2948 4.615 16.1483 4.58197 15.9999 4.58197C15.8515 4.58197 15.7049 4.615 15.5709 4.67865C15.4368 4.74231 15.3186 4.835 15.2249 4.95001Z" stroke="black" stroke-linecap="round" stroke-linejoin="round"/>
<path d="M28 26H4" stroke="black" stroke-linecap="round" stroke-linejoin="round"/>
</svg>
