<svg width="32" height="32" viewBox="0 0 32 32" fill="none" xmlns="http://www.w3.org/2000/svg">
<path d="M15.2623 4.79998L5.54978 15.325C5.41885 15.4681 5.33237 15.6462 5.30087 15.8376C5.26937 16.029 5.29422 16.2254 5.37238 16.4029C5.45055 16.5805 5.57866 16.7314 5.7411 16.8374C5.90354 16.9434 6.09331 16.9999 6.28728 17H25.7123C25.9063 16.9999 26.096 16.9434 26.2585 16.8374C26.4209 16.7314 26.549 16.5805 26.6272 16.4029C26.7053 16.2254 26.7302 16.029 26.6987 15.8376C26.6672 15.6462 26.5807 15.4681 26.4498 15.325L16.7373 4.79998C16.6446 4.69594 16.531 4.61268 16.4039 4.55567C16.2768 4.49865 16.1391 4.46918 15.9998 4.46918C15.8605 4.46918 15.7227 4.49865 15.5956 4.55567C15.4685 4.61268 15.3549 4.69594 15.2623 4.79998V4.79998Z" stroke="black" stroke-linecap="round" stroke-linejoin="round"/>
<path d="M5 22V25C5 25.5523 5.44772 26 6 26H26C26.5523 26 27 25.5523 27 25V22C27 21.4477 26.5523 21 26 21H6C5.44772 21 5 21.4477 5 22Z" stroke="black" stroke-linecap="round" stroke-linejoin="round"/>
</svg>
