<svg width="700" height="675" viewBox="0 0 700 675" fill="none" xmlns="http://www.w3.org/2000/svg">
<path d="M700 625H125V675H700V625Z" fill="black"/>
<path d="M634.5 212.75L436.25 14.75C431.606 10.1012 426.092 6.41325 420.022 3.89703C413.952 1.38082 407.446 0.0856934 400.875 0.0856934C394.304 0.0856934 387.798 1.38082 381.728 3.89703C375.658 6.41325 370.143 10.1012 365.5 14.75L15.4998 364.75C10.851 369.394 7.16301 374.908 4.6468 380.978C2.13058 387.048 0.835449 393.554 0.835449 400.125C0.835449 406.696 2.13058 413.202 4.6468 419.272C7.16301 425.342 10.851 430.856 15.4998 435.5L128.25 550H368L634.5 283.5C639.149 278.856 642.837 273.342 645.353 267.272C647.869 261.202 649.164 254.696 649.164 248.125C649.164 241.554 647.869 235.048 645.353 228.978C642.837 222.908 639.149 217.394 634.5 212.75ZM347.25 500H150L49.9998 400L207.75 242.25L406 440.25L347.25 500ZM441.25 406L243.25 207.75L400 50L600 248.25L441.25 406Z" fill="black"/>
</svg>
