<svg width="24" height="24" viewBox="0 0 24 24" fill="none" xmlns="http://www.w3.org/2000/svg">
<path d="M19.775 22.625L15.05 17.9L13 20H4.75L2.625 17.875C2.24167 17.4917 2.04583 17.0167 2.0375 16.45C2.02917 15.8834 2.21667 15.4 2.6 15L7.3 10.15L1.375 4.22505L2.8 2.80005L21.2 21.2L19.775 22.625ZM5.6 18H12.15L13.625 16.475L8.7 11.55L4 16.4L5.6 18ZM17.875 15.025L16.45 13.6L20 9.95005L15.05 5.00005L11.5 8.65005L10.1 7.25005L13.6 3.60005C13.9833 3.20005 14.4542 3.00005 15.0125 3.00005C15.5708 3.00005 16.0417 3.19172 16.425 3.57505L21.4 8.55005C21.7833 8.93338 21.975 9.40838 21.975 9.97505C21.975 10.5417 21.7833 11.0167 21.4 11.4L17.875 15.025Z" fill="black"/>
</svg>
