<svg width="32" height="32" viewBox="0 0 32 32" fill="none" xmlns="http://www.w3.org/2000/svg">
<path d="M11.4375 12.4375L19.925 20.925" stroke="black" stroke-linecap="round" stroke-linejoin="round"/>
<path d="M26.9999 26.9751H9.01243L4.37493 22.3376C4.18823 22.1527 4.04002 21.9328 3.93887 21.6903C3.83772 21.4479 3.78564 21.1878 3.78564 20.9251C3.78564 20.6624 3.83772 20.4023 3.93887 20.1598C4.04002 19.9174 4.18823 19.6974 4.37493 19.5126L18.5124 5.37505C18.6972 5.18835 18.9172 5.04014 19.1597 4.93899C19.4021 4.83785 19.6622 4.78577 19.9249 4.78577C20.1876 4.78577 20.4477 4.83785 20.6902 4.93899C20.9326 5.04014 21.1526 5.18835 21.3374 5.37505L26.9999 11.0251C27.3717 11.4037 27.58 11.9131 27.58 12.4438C27.58 12.9745 27.3717 13.4839 26.9999 13.8626L13.8749 26.9751" stroke="black" stroke-linecap="round" stroke-linejoin="round"/>
</svg>
