<svg width="32" height="32" viewBox="0 0 32 32" fill="none" xmlns="http://www.w3.org/2000/svg">
<path d="M22.4749 14.475L23.0874 15.0875C23.4584 15.464 23.6664 15.9714 23.6664 16.5C23.6664 17.0286 23.4584 17.5359 23.0874 17.9125L22.2124 18.7875C22.1193 18.882 22.0084 18.957 21.8861 19.0082C21.7638 19.0594 21.6325 19.0858 21.4999 19.0858C21.3673 19.0858 21.236 19.0594 21.1137 19.0082C20.9914 18.957 20.8804 18.882 20.7874 18.7875L13.2124 11.2125C13.1179 11.1194 13.0429 11.0085 12.9917 10.8862C12.9404 10.7639 12.9141 10.6326 12.9141 10.5C12.9141 10.3674 12.9404 10.2361 12.9917 10.1138C13.0429 9.99143 13.1179 9.88052 13.2124 9.78747L14.0874 8.91247C14.4639 8.54146 14.9713 8.3335 15.4999 8.3335C16.0285 8.3335 16.5359 8.54146 16.9124 8.91247L17.5249 9.52497L20.9749 6.07497C22.3249 4.72497 24.5249 4.64997 25.8999 5.96247C26.2393 6.28351 26.511 6.66927 26.699 7.09699C26.887 7.52471 26.9875 7.98574 26.9945 8.4529C27.0015 8.92006 26.9148 9.38389 26.7397 9.81704C26.5646 10.2502 26.3046 10.6439 25.9749 10.975L22.4749 14.475Z" stroke="black" stroke-linecap="round" stroke-linejoin="round"/>
<path d="M19.825 17.825L12.825 24.825C12.3311 25.325 11.713 25.6845 11.0343 25.8669C10.3555 26.0492 9.64052 26.0477 8.96254 25.8625L6.03754 27.1375C5.85512 27.2176 5.65296 27.2413 5.45698 27.2056C5.26099 27.17 5.08012 27.0767 4.93754 26.9375V26.9375C4.83384 26.8355 4.76387 26.7041 4.73706 26.5611C4.71024 26.4181 4.72786 26.2703 4.78754 26.1375L6.13754 23.0375C5.9524 22.3596 5.95091 21.6445 6.13323 20.9658C6.31555 20.2871 6.67511 19.669 7.17504 19.175L14.175 12.175" stroke="black" stroke-linecap="round" stroke-linejoin="round"/>
<path d="M6.5376 20H17.6626" stroke="black" stroke-linecap="round" stroke-linejoin="round"/>
</svg>
