<svg width="32" height="32" viewBox="0 0 32 32" fill="none" xmlns="http://www.w3.org/2000/svg">
<path d="M6 5L26 27" stroke="black" stroke-linecap="round" stroke-linejoin="round"/>
<path d="M19.3625 19.7C18.4449 20.5406 17.2444 21.0048 16 21C14.9908 20.9999 14.0053 20.6945 13.173 20.1238C12.3407 19.5531 11.7005 18.7439 11.3367 17.8026C10.9729 16.8613 10.9024 15.8319 11.1346 14.8498C11.3668 13.8677 11.8907 12.9788 12.6375 12.3" stroke="black" stroke-linecap="round" stroke-linejoin="round"/>
<path d="M9.25 8.57495C4.15 11.15 2 16 2 16C2 16 6 25 16 25C18.3432 25.019 20.6572 24.4791 22.75 23.425" stroke="black" stroke-linecap="round" stroke-linejoin="round"/>
<path d="M26.0751 21.1375C28.8001 18.7 30.0001 16 30.0001 16C30.0001 16 26.0001 7.00003 16.0001 7.00003C15.1332 6.99832 14.2676 7.0694 13.4126 7.21253" stroke="black" stroke-linecap="round" stroke-linejoin="round"/>
<path d="M16.9375 11.0875C18.0008 11.289 18.9697 11.8309 19.6981 12.6313C20.4264 13.4318 20.8746 14.4475 20.975 15.525" stroke="black" stroke-linecap="round" stroke-linejoin="round"/>
</svg>
