<svg width="32" height="32" viewBox="0 0 32 32" fill="none" xmlns="http://www.w3.org/2000/svg">
<path d="M30.1875 15.1625L19.0375 7.9875C18.8859 7.89084 18.711 7.83685 18.5312 7.83124C18.3515 7.82562 18.1736 7.86858 18.0162 7.95559C17.8588 8.0426 17.7278 8.17043 17.6369 8.32564C17.5461 8.48084 17.4988 8.65767 17.5 8.8375V23.1625C17.4988 23.3423 17.5461 23.5192 17.6369 23.6744C17.7278 23.8296 17.8588 23.9574 18.0162 24.0444C18.1736 24.1314 18.3515 24.1744 18.5312 24.1688C18.711 24.1631 18.8859 24.1092 19.0375 24.0125L30.1875 16.8375C30.3296 16.7487 30.4468 16.6253 30.528 16.4788C30.6092 16.3323 30.6518 16.1675 30.6518 16C30.6518 15.8325 30.6092 15.6677 30.528 15.5212C30.4468 15.3747 30.3296 15.2513 30.1875 15.1625V15.1625Z" stroke="black" stroke-linecap="round" stroke-linejoin="round"/>
<path d="M16.1875 15.1625L5.03752 7.9875C4.88588 7.89084 4.71098 7.83685 4.53123 7.83124C4.35149 7.82562 4.17355 7.86858 4.01617 7.95559C3.85879 8.0426 3.72778 8.17043 3.63695 8.32564C3.54611 8.48084 3.49881 8.65767 3.50002 8.8375V23.1625C3.49881 23.3423 3.54611 23.5192 3.63695 23.6744C3.72778 23.8296 3.85879 23.9574 4.01617 24.0444C4.17355 24.1314 4.35149 24.1744 4.53123 24.1688C4.71098 24.1631 4.88588 24.1092 5.03752 24.0125L16.1875 16.8375C16.3296 16.7487 16.4468 16.6253 16.528 16.4788C16.6092 16.3323 16.6518 16.1675 16.6518 16C16.6518 15.8325 16.6092 15.6677 16.528 15.5212C16.4468 15.3747 16.3296 15.2513 16.1875 15.1625V15.1625Z" stroke="black" stroke-linecap="round" stroke-linejoin="round"/>
</svg>
