<svg width="32" height="32" viewBox="0 0 32 32" fill="none" xmlns="http://www.w3.org/2000/svg">
<path d="M25 4H7C6.44772 4 6 4.44772 6 5V27C6 27.5523 6.44772 28 7 28H25C25.5523 28 26 27.5523 26 27V5C26 4.44772 25.5523 4 25 4Z" stroke="black" stroke-linecap="round" stroke-linejoin="round"/>
<path d="M10.5 11C11.0523 11 11.5 10.5523 11.5 10C11.5 9.44772 11.0523 9 10.5 9C9.94772 9 9.5 9.44772 9.5 10C9.5 10.5523 9.94772 11 10.5 11Z" fill="black"/>
<path d="M10.5 23C11.0523 23 11.5 22.5523 11.5 22C11.5 21.4477 11.0523 21 10.5 21C9.94772 21 9.5 21.4477 9.5 22C9.5 22.5523 9.94772 23 10.5 23Z" fill="black"/>
<path d="M10.5 17C11.0523 17 11.5 16.5523 11.5 16C11.5 15.4477 11.0523 15 10.5 15C9.94772 15 9.5 15.4477 9.5 16C9.5 16.5523 9.94772 17 10.5 17Z" fill="black"/>
</svg>
