<svg width="32" height="32" viewBox="0 0 32 32" fill="none" xmlns="http://www.w3.org/2000/svg">
<path d="M5 14H27V25C27 25.2652 26.8946 25.5196 26.7071 25.7071C26.5196 25.8946 26.2652 26 26 26H6C5.73478 26 5.48043 25.8946 5.29289 25.7071C5.10536 25.5196 5 25.2652 5 25V14Z" stroke="black" stroke-linecap="round" stroke-linejoin="round"/>
<path d="M4.99999 14L26.25 8.29998L25.2125 4.43748C25.1792 4.31036 25.1209 4.19116 25.041 4.08686C24.9611 3.98256 24.8612 3.89525 24.7471 3.83006C24.633 3.76487 24.5071 3.7231 24.3766 3.7072C24.2462 3.69131 24.1139 3.7016 23.9875 3.73748L4.67499 8.91248C4.54763 8.94589 4.42812 9.00412 4.32332 9.08383C4.21852 9.16355 4.13049 9.26317 4.06429 9.37699C3.99809 9.49081 3.95502 9.61658 3.93755 9.74708C3.92008 9.87759 3.92856 10.0103 3.96249 10.1375L4.99999 14Z" stroke="black" stroke-linecap="round" stroke-linejoin="round"/>
<path d="M16.2627 5.79999L22.3877 9.33749" stroke="black" stroke-linecap="round" stroke-linejoin="round"/>
<path d="M7.5752 8.13751L13.6877 11.675" stroke="black" stroke-linecap="round" stroke-linejoin="round"/>
</svg>
