<svg width="32" height="32" viewBox="0 0 32 32" fill="none" xmlns="http://www.w3.org/2000/svg">
<path d="M21 13H11C8.79086 13 7 14.7909 7 17V18C7 20.2091 8.79086 22 11 22H21C23.2091 22 25 20.2091 25 18V17C25 14.7909 23.2091 13 21 13Z" stroke="black" stroke-linecap="round" stroke-linejoin="round"/>
<path d="M3 8C3 7.20435 3.31607 6.44129 3.87868 5.87868C4.44129 5.31607 5.20435 5 6 5C6.79565 5 7.55871 5.31607 8.12132 5.87868C8.68393 6.44129 9 7.20435 9 8H23C23 7.20435 23.3161 6.44129 23.8787 5.87868C24.4413 5.31607 25.2044 5 26 5C26.7956 5 27.5587 5.31607 28.1213 5.87868C28.6839 6.44129 29 7.20435 29 8V18C28.9967 20.1207 28.1528 22.1536 26.6532 23.6532C25.1536 25.1528 23.1207 25.9967 21 26H11C8.87928 25.9967 6.84637 25.1528 5.3468 23.6532C3.84722 22.1536 3.00331 20.1207 3 18V8Z" stroke="black" stroke-linecap="round" stroke-linejoin="round"/>
<path d="M11.5 18.5C12.0523 18.5 12.5 18.0523 12.5 17.5C12.5 16.9477 12.0523 16.5 11.5 16.5C10.9477 16.5 10.5 16.9477 10.5 17.5C10.5 18.0523 10.9477 18.5 11.5 18.5Z" fill="black"/>
<path d="M20.5 18.5C21.0523 18.5 21.5 18.0523 21.5 17.5C21.5 16.9477 21.0523 16.5 20.5 16.5C19.9477 16.5 19.5 16.9477 19.5 17.5C19.5 18.0523 19.9477 18.5 20.5 18.5Z" fill="black"/>
</svg>
