<svg width="32" height="32" viewBox="0 0 32 32" fill="none" xmlns="http://www.w3.org/2000/svg">
<path d="M19.5 10.5C20.0523 10.5 20.5 10.0523 20.5 9.5C20.5 8.94772 20.0523 8.5 19.5 8.5C18.9477 8.5 18.5 8.94772 18.5 9.5C18.5 10.0523 18.9477 10.5 19.5 10.5Z" fill="black"/>
<path d="M23.2875 20.9874H23C21.4087 20.9874 19.8826 20.3553 18.7574 19.23C17.6322 18.1048 17 16.5787 17 14.9874C15.4109 14.9874 13.8867 14.357 12.7618 13.2345C11.6369 12.1119 11.0033 10.589 11 8.9999C10.998 8.9039 11.0021 8.80786 11.0125 8.7124" stroke="black" stroke-linecap="round" stroke-linejoin="round"/>
<path d="M7.775 19.15L1 22L8 24L10 31L12.85 24.225C30.15 23.8125 27.85 8.86254 27.15 5.61254C27.1063 5.42715 27.0118 5.2576 26.8771 5.12292C26.7424 4.98824 26.5729 4.89374 26.3875 4.85004C23.1375 4.15004 8.1875 1.85005 7.775 19.15V19.15Z" stroke="black" stroke-linecap="round" stroke-linejoin="round"/>
</svg>
