<svg width="32" height="32" viewBox="0 0 32 32" fill="none" xmlns="http://www.w3.org/2000/svg">
<path d="M19.5 10.5C20.0523 10.5 20.5 10.0523 20.5 9.5C20.5 8.94772 20.0523 8.5 19.5 8.5C18.9477 8.5 18.5 8.94772 18.5 9.5C18.5 10.0523 18.9477 10.5 19.5 10.5Z" fill="black"/>
<path d="M2 23C30.975 29.3375 27.975 9.43754 27.15 5.62504C27.1074 5.43576 27.012 5.26245 26.8748 5.12526C26.7376 4.98807 26.5643 4.89263 26.375 4.85004C22.5625 4.02504 2.6625 1.02504 9 30" stroke="black" stroke-linecap="round" stroke-linejoin="round"/>
<path d="M25.1623 19C23.558 19.0219 21.9656 18.7218 20.4792 18.1175C18.9929 17.5133 17.6428 16.6171 16.5089 15.482C15.3749 14.3469 14.4801 12.9959 13.8774 11.5089C13.2747 10.022 12.9763 8.42925 12.9998 6.82495" stroke="black" stroke-linecap="round" stroke-linejoin="round"/>
</svg>
