<svg width="32" height="32" viewBox="0 0 32 32" fill="none" xmlns="http://www.w3.org/2000/svg">
<path d="M12.9998 4V11.725C12.9986 11.9048 12.9513 12.0813 12.8623 12.2375L4.91233 25.4875C4.82211 25.6387 4.77338 25.8109 4.77108 25.987C4.76878 26.163 4.81299 26.3365 4.89923 26.49C4.98547 26.6434 5.1107 26.7714 5.26225 26.861C5.4138 26.9505 5.5863 26.9985 5.76233 27H26.2373C26.4134 26.9985 26.5859 26.9505 26.7374 26.861C26.889 26.7714 27.0142 26.6434 27.1004 26.49C27.1867 26.3365 27.2309 26.163 27.2286 25.987C27.2263 25.8109 27.1776 25.6387 27.0873 25.4875L19.1373 12.2375C19.0484 12.0813 19.001 11.9048 18.9998 11.725V4" stroke="black" stroke-linecap="round" stroke-linejoin="round"/>
<path d="M11 4H21" stroke="black" stroke-linecap="round" stroke-linejoin="round"/>
<path d="M7.8252 20.625C9.3002 19.5375 11.8377 18.925 16.0002 21C20.4627 23.2375 23.0627 22.35 24.4877 21.1375" stroke="black" stroke-linecap="round" stroke-linejoin="round"/>
</svg>
