<svg width="32" height="32" viewBox="0 0 32 32" fill="none" xmlns="http://www.w3.org/2000/svg">
<path d="M21.1001 23.5875L21.5876 26.5375" stroke="black" stroke-linecap="round" stroke-linejoin="round"/>
<path d="M16 24V28" stroke="black" stroke-linecap="round" stroke-linejoin="round"/>
<path d="M10.9001 23.5875L10.4126 26.5375" stroke="black" stroke-linecap="round" stroke-linejoin="round"/>
<path d="M22.125 8.59998C26.7875 9.57498 30 11.625 30 14C30 17.3125 23.7375 20 16 20C8.2625 20 2 17.3125 2 14C2 11.625 5.2375 9.56248 9.925 8.59998" stroke="black" stroke-linecap="round" stroke-linejoin="round"/>
<path d="M9.00002 12.4875C8.99802 12.939 9.15075 13.3775 9.43278 13.73C9.71482 14.0826 10.1091 14.3279 10.55 14.425C12.3387 14.8248 14.1673 15.0177 16 15C17.8327 15.0177 19.6614 14.8248 21.45 14.425C21.8909 14.3279 22.2852 14.0826 22.5673 13.73C22.8493 13.3775 23.002 12.939 23 12.4875V12C23.0001 11.0733 22.8162 10.1559 22.4589 9.30085C22.1017 8.44581 21.5782 7.67022 20.9189 7.01906C20.2596 6.36789 19.4776 5.85411 18.6182 5.50752C17.7588 5.16092 16.8391 4.98841 15.9125 5C12.0625 5.05 9.00002 8.2625 9.00002 12.1V12.4875Z" stroke="black" stroke-linecap="round" stroke-linejoin="round"/>
</svg>
