<svg width="24" height="24" viewBox="0 0 24 24" fill="none" xmlns="http://www.w3.org/2000/svg">
<path d="M20.9791 19C21.5291 19 22 18.8042 22.3916 18.4125C22.7833 18.0208 22.9791 17.55 22.9791 17V5C22.9791 4.45 22.7833 3.97917 22.3916 3.5875C22 3.19583 21.5291 3 20.9791 3H15.8041C15.5375 3 15.2833 3.05 15.0416 3.15C14.8 3.25 14.5875 3.39167 14.4041 3.575L12.9791 5H4.97913C4.42913 5 3.95829 5.19583 3.56663 5.5875C3.17496 5.97917 2.97913 6.45 2.97913 7H13.8041L15.8041 5H20.9791V17H12C11.7167 17 11.4792 17.0958 11.2875 17.2875C11.0958 17.4792 11 17.7167 11 18C11 18.2833 11.0958 18.5208 11.2875 18.7125C11.4792 18.9042 11.7167 19 12 19H20.9791Z" fill="#1C1B1F"/>
<path d="M7 19.5V17.5H9C9.28333 17.5 9.52083 17.4042 9.7125 17.2125C9.90417 17.0208 10 16.7833 10 16.5C10 16.2167 9.90417 15.9792 9.7125 15.7875C9.52083 15.5958 9.28333 15.5 9 15.5H7V13.5C7 13.2167 6.90417 12.9792 6.7125 12.7875C6.52083 12.5958 6.28333 12.5 6 12.5C5.71667 12.5 5.47917 12.5958 5.2875 12.7875C5.09583 12.9792 5 13.2167 5 13.5V15.5H3C2.71667 15.5 2.47917 15.5958 2.2875 15.7875C2.09583 15.9792 2 16.2167 2 16.5C2 16.7833 2.09583 17.0208 2.2875 17.2125C2.47917 17.4042 2.71667 17.5 3 17.5H5V19.5C5 19.7833 5.09583 20.0208 5.2875 20.2125C5.47917 20.4042 5.71667 20.5 6 20.5C6.28333 20.5 6.52083 20.4042 6.7125 20.2125C6.90417 20.0208 7 19.7833 7 19.5Z" fill="#1C1B1F"/>
<path d="M4.97913 6.95312L2.97913 7V11C2.97913 11 2.97913 12 3.97913 12C4.97913 12 4.97913 11 4.97913 11V6.95312Z" fill="#1C1B1F"/>
</svg>
