<svg width="24" height="24" viewBox="0 0 24 24" fill="none" xmlns="http://www.w3.org/2000/svg">
<path d="M4.97913 19C4.42913 19 3.95823 18.8042 3.56663 18.4125C3.17493 18.0208 2.97913 17.55 2.97913 17V5C2.97913 4.45 3.17493 3.97917 3.56663 3.5875C3.95823 3.19583 4.42913 3 4.97913 3H10.1541C10.4207 3 10.6749 3.05 10.9166 3.15C11.1582 3.25 11.3707 3.39167 11.5541 3.575L12.9791 5H20.9791C21.5291 5 21.9999 5.19583 22.3916 5.5875C22.7833 5.97917 22.9791 6.45 22.9791 7H12.1541L10.1541 5H4.97913V17H13.9582C14.2415 17 14.479 17.0958 14.6707 17.2875C14.8624 17.4792 14.9582 17.7167 14.9582 18C14.9582 18.2833 14.8624 18.5208 14.6707 18.7125C14.479 18.9042 14.2415 19 13.9582 19H4.97913Z" fill="#1C1B1F"/>
<path d="M20.9791 6.95312L22.9791 7V11C22.9791 11 22.9791 12 21.9791 12C20.9791 12 20.9791 11 20.9791 11V6.95312Z" fill="#1C1B1F"/>
<path d="M18.4619 13.8889L16.9013 15.5C16.8027 15.6019 16.6771 15.6528 16.5247 15.6528C16.3722 15.6528 16.2466 15.6019 16.148 15.5C16.0493 15.3981 16 15.2685 16 15.1111C16 14.9537 16.0493 14.8241 16.148 14.7222L18.6233 12.1667C18.7309 12.0556 18.8565 12 19 12C19.1435 12 19.2691 12.0556 19.3767 12.1667L21.852 14.7222C21.9507 14.8241 22 14.9537 22 15.1111C22 15.2685 21.9507 15.3981 21.852 15.5C21.7534 15.6019 21.6278 15.6528 21.4753 15.6528C21.3229 15.6528 21.1973 15.6019 21.0987 15.5L19.5381 13.8889V18.4444C19.5381 18.6019 19.4865 18.7338 19.3834 18.8403C19.2803 18.9468 19.1525 19 19 19C18.8475 19 18.7197 18.9468 18.6166 18.8403C18.5135 18.7338 18.4619 18.6019 18.4619 18.4444V13.8889Z" fill="#1C1B1F"/>
</svg>
