<svg width="22" height="21" viewBox="0 0 22 21" fill="none" xmlns="http://www.w3.org/2000/svg">
<path d="M5.17969 16.8203H16.8203V18.5H5.17969V16.8203ZM14.5156 13.7344C13.5521 14.6979 12.3802 15.1797 11 15.1797C9.61979 15.1797 8.4349 14.6979 7.44531 13.7344C6.48177 12.7448 6 11.5599 6 10.1797V3.5H8.07031V10.1797C8.07031 10.987 8.35677 11.6771 8.92969 12.25C9.5026 12.7969 10.1927 13.0703 11 13.0703C11.8073 13.0703 12.4974 12.7969 13.0703 12.25C13.6432 11.6771 13.9297 10.987 13.9297 10.1797V3.5H16V10.1797C16 11.5599 15.5052 12.7448 14.5156 13.7344Z" fill="#0A090B"/>
</svg>
