<svg width="22" height="21" viewBox="0 0 22 21" fill="none" xmlns="http://www.w3.org/2000/svg">
<path d="M8.8125 11.9375C8.8125 13.3438 9.61979 14.0469 11.2344 14.0469C12.5104 14.0469 13.1484 13.5781 13.1484 12.6406C13.1484 12.224 13.0573 11.9245 12.875 11.7422C12.7188 11.5599 12.4193 11.3646 11.9766 11.1562C11.9505 11.1562 11.8984 11.1432 11.8203 11.1172C11.7682 11.0911 11.7161 11.0651 11.6641 11.0391C11.612 11.013 11.5599 11 11.5078 11H3.5V9.32031H18.5V11H15.2578C15.2578 11.026 15.2708 11.0781 15.2969 11.1562C15.349 11.2083 15.388 11.2474 15.4141 11.2734C15.5964 11.7161 15.6875 12.1719 15.6875 12.6406C15.6875 14.2292 14.8151 15.2708 13.0703 15.7656C12.5234 15.9219 11.9245 16 11.2734 16C10.8568 16 10.4531 15.9609 10.0625 15.8828C9.125 15.7005 8.39583 15.4141 7.875 15.0234C6.85938 14.2682 6.35156 13.2396 6.35156 11.9375H8.8125ZM13.1484 7.25C13.1484 6.07812 12.4844 5.49219 11.1562 5.49219C10.2188 5.49219 9.60677 5.77865 9.32031 6.35156C9.24219 6.50781 9.20312 6.6901 9.20312 6.89844C9.20312 7.28906 9.41146 7.6276 9.82812 7.91406C10.2448 8.17448 10.6354 8.36979 11 8.5H7.17188C7.17188 8.47396 7.14583 8.44792 7.09375 8.42188C7.04167 8.36979 7.01562 8.33073 7.01562 8.30469C6.80729 7.96615 6.70312 7.4974 6.70312 6.89844C6.70312 5.9349 7.11979 5.11458 7.95312 4.4375C8.76042 3.8125 9.84115 3.5 11.1953 3.5C12.5755 3.5 13.6562 3.85156 14.4375 4.55469C15.2448 5.28385 15.6484 6.18229 15.6484 7.25H13.1484Z" fill="#0A090B"/>
</svg>
