<svg width="24" height="24" viewBox="0 0 24 24" fill="none" xmlns="http://www.w3.org/2000/svg">
<path d="M4 20C3.71667 20 3.47917 19.9042 3.2875 19.7125C3.09583 19.5208 3 19.2833 3 19V5C3 4.71667 3.09583 4.47917 3.2875 4.2875C3.47917 4.09583 3.71667 4 4 4C4.28333 4 4.52083 4.09583 4.7125 4.2875C4.90417 4.47917 5 4.71667 5 5V19C5 19.2833 4.90417 19.5208 4.7125 19.7125C4.52083 19.9042 4.28333 20 4 20ZM20 20C19.7167 20 19.4792 19.9042 19.2875 19.7125C19.0958 19.5208 19 19.2833 19 19V5C19 4.71667 19.0958 4.47917 19.2875 4.2875C19.4792 4.09583 19.7167 4 20 4C20.2833 4 20.5208 4.09583 20.7125 4.2875C20.9042 4.47917 21 4.71667 21 5V19C21 19.2833 20.9042 19.5208 20.7125 19.7125C20.5208 19.9042 20.2833 20 20 20ZM8.525 17C8.24167 17 8.01667 16.8833 7.85 16.65C7.68333 16.4167 7.65 16.1667 7.75 15.9L10.9 7.55C10.9667 7.38333 11.0667 7.25 11.2 7.15C11.3333 7.05 11.4917 7 11.675 7H12.325C12.5083 7 12.6667 7.05 12.8 7.15C12.9333 7.25 13.0333 7.38333 13.1 7.55L16.25 15.925C16.35 16.1917 16.3208 16.4375 16.1625 16.6625C16.0042 16.8875 15.7833 17 15.5 17C15.3167 17 15.1583 16.95 15.025 16.85C14.8917 16.75 14.7917 16.6167 14.725 16.45L14.025 14.45H9.975L9.25 16.475C9.2 16.6417 9.10833 16.7708 8.975 16.8625C8.84167 16.9542 8.69167 17 8.525 17ZM10.5 13H13.5L12.05 8.85H11.95L10.5 13Z" fill="#1C1B1F"/>
</svg>
