<svg width="22" height="21" viewBox="0 0 22 21" fill="none" xmlns="http://www.w3.org/2000/svg">
<path d="M12.25 13.9297C12.6146 13.9297 12.9141 13.8125 13.1484 13.5781C13.3828 13.3177 13.5 13.0182 13.5 12.6797C13.5 12.3411 13.3828 12.0547 13.1484 11.8203C12.9141 11.5599 12.6146 11.4297 12.25 11.4297H9.32031V13.9297H12.25ZM9.32031 6.42969V8.92969H11.8203C12.1589 8.92969 12.4453 8.8125 12.6797 8.57812C12.9401 8.31771 13.0703 8.01823 13.0703 7.67969C13.0703 7.34115 12.9401 7.05469 12.6797 6.82031C12.4453 6.5599 12.1589 6.42969 11.8203 6.42969H9.32031ZM14.0078 9.98438C15.2057 10.5312 15.8047 11.4818 15.8047 12.8359C15.8047 13.7214 15.5052 14.4766 14.9062 15.1016C14.3333 15.7005 13.6042 16 12.7188 16H6.82031V4.32031H12.0547C12.9922 4.32031 13.7734 4.64583 14.3984 5.29688C15.0495 5.94792 15.375 6.74219 15.375 7.67969C15.375 8.61719 14.9193 9.38542 14.0078 9.98438Z" fill="#0A090B"/>
</svg>
