<svg width="32" height="32" viewBox="0 0 32 32" fill="none" xmlns="http://www.w3.org/2000/svg">
<path d="M12.5 15.5C13.0523 15.5 13.5 15.0523 13.5 14.5C13.5 13.9477 13.0523 13.5 12.5 13.5C11.9477 13.5 11.5 13.9477 11.5 14.5C11.5 15.0523 11.9477 15.5 12.5 15.5Z" fill="black"/>
<path d="M19.5 15.5C20.0523 15.5 20.5 15.0523 20.5 14.5C20.5 13.9477 20.0523 13.5 19.5 13.5C18.9477 13.5 18.5 13.9477 18.5 14.5C18.5 15.0523 18.9477 15.5 19.5 15.5Z" fill="black"/>
<path d="M27 27L23.3375 24L19.6625 27L16 24L12.3375 27L8.6625 24L5 27V15C5 12.0826 6.15893 9.28473 8.22183 7.22183C10.2847 5.15893 13.0826 4 16 4C18.9174 4 21.7153 5.15893 23.7782 7.22183C25.8411 9.28473 27 12.0826 27 15V27Z" stroke="black" stroke-linecap="round" stroke-linejoin="round"/>
</svg>
