<svg width="32" height="32" viewBox="0 0 32 32" fill="none" xmlns="http://www.w3.org/2000/svg">
<path d="M10.375 14H21.625L24.45 6.46246C24.4878 6.36379 24.5559 6.27964 24.6445 6.22208C24.7331 6.16451 24.8377 6.1365 24.9432 6.14205C25.0487 6.1476 25.1498 6.18644 25.2318 6.25299C25.3139 6.31953 25.3728 6.41037 25.4 6.51246L28.825 19.325C28.8731 19.5236 28.8608 19.7321 28.7895 19.9236C28.7182 20.1152 28.5913 20.2811 28.425 20.4L16.575 28.6C16.406 28.7166 16.2054 28.7791 16 28.7791C15.7946 28.7791 15.5941 28.7166 15.425 28.6L3.57503 20.4C3.40878 20.2811 3.28186 20.1152 3.21059 19.9236C3.13931 19.7321 3.12693 19.5236 3.17503 19.325L6.60003 6.51246C6.62727 6.41037 6.68615 6.31953 6.76822 6.25299C6.85029 6.18644 6.95134 6.1476 7.05685 6.14205C7.16237 6.1365 7.26693 6.16451 7.35553 6.22208C7.44414 6.27964 7.51223 6.36379 7.55003 6.46246L10.375 14Z" stroke="black" stroke-linecap="round" stroke-linejoin="round"/>
</svg>
