<svg width="32" height="32" viewBox="0 0 32 32" fill="none" xmlns="http://www.w3.org/2000/svg">
<path d="M16 28C22.6274 28 28 22.6274 28 16C28 9.37258 22.6274 4 16 4C9.37258 4 4 9.37258 4 16C4 22.6274 9.37258 28 16 28Z" stroke="black" stroke-linecap="round" stroke-linejoin="round"/>
<path d="M6.2002 22.9249L7.6627 22.0375C7.80774 21.948 7.92751 21.8229 8.01064 21.6742C8.09377 21.5254 8.13751 21.3579 8.1377 21.1875L8.1627 16.675C8.16469 16.4879 8.22116 16.3054 8.3252 16.15L10.8002 12.2625C10.8745 12.1476 10.9712 12.049 11.0847 11.9726C11.1981 11.8961 11.3258 11.8435 11.4602 11.8178C11.5945 11.7921 11.7327 11.7939 11.8663 11.823C11.9999 11.8522 12.1263 11.9081 12.2377 11.9875L14.6877 13.7625C14.8991 13.9098 15.1564 13.9764 15.4127 13.95L19.3502 13.4125C19.5891 13.3796 19.8073 13.2593 19.9627 13.075L22.7377 9.87495C22.9022 9.67989 22.9871 9.42988 22.9752 9.17495L22.8377 6.13745" stroke="black" stroke-linecap="round" stroke-linejoin="round"/>
<path d="M23.3876 25.4625L22.0376 24.1125C21.9127 23.9878 21.7577 23.8973 21.5876 23.85L18.9001 23.15C18.664 23.0854 18.4599 22.9365 18.3263 22.7315C18.1927 22.5265 18.1389 22.2796 18.1751 22.0375L18.4626 20.0126C18.4911 19.8422 18.5622 19.6819 18.6693 19.5464C18.7764 19.4109 18.916 19.3047 19.0751 19.2375L22.8751 17.65C23.0516 17.5764 23.2455 17.555 23.4338 17.5882C23.6221 17.6214 23.7969 17.708 23.9376 17.8375L27.0501 20.6875" stroke="black" stroke-linecap="round" stroke-linejoin="round"/>
</svg>
