<svg width="32" height="32" viewBox="0 0 32 32" fill="none" xmlns="http://www.w3.org/2000/svg">
<path d="M6.09989 12C5.95071 11.9997 5.80349 11.966 5.66902 11.9014C5.53455 11.8368 5.41624 11.7429 5.32275 11.6267C5.22927 11.5104 5.16298 11.3747 5.12874 11.2295C5.0945 11.0843 5.09319 10.9333 5.12489 10.7875C5.92489 6.9375 10.4874 4 15.9999 4C21.5124 4 26.0749 6.9375 26.8749 10.7875C26.9066 10.9333 26.9053 11.0843 26.871 11.2295C26.8368 11.3747 26.7705 11.5104 26.677 11.6267C26.5835 11.7429 26.4652 11.8368 26.3308 11.9014C26.1963 11.966 26.0491 11.9997 25.8999 12H6.09989Z" stroke="black" stroke-linecap="round" stroke-linejoin="round"/>
<path d="M26 21V23C26 24.0609 25.5786 25.0783 24.8284 25.8284C24.0783 26.5786 23.0609 27 22 27H10C8.93913 27 7.92172 26.5786 7.17157 25.8284C6.42143 25.0783 6 24.0609 6 23V21" stroke="black" stroke-linecap="round" stroke-linejoin="round"/>
<path d="M3.5 22L8.5 20L13.5 22L18.5 20L23.5 22L28.5 20" stroke="black" stroke-linecap="round" stroke-linejoin="round"/>
<path d="M3 16H29" stroke="black" stroke-linecap="round" stroke-linejoin="round"/>
</svg>
