<svg width="32" height="32" viewBox="0 0 32 32" fill="none" xmlns="http://www.w3.org/2000/svg">
<path d="M26.1 9H5.9C5.65394 9.00116 5.41672 9.09188 5.23268 9.25521C5.04864 9.41855 4.93038 9.64332 4.9 9.8875L3.125 25.8875C3.10922 26.0269 3.12294 26.1681 3.16529 26.3018C3.20763 26.4356 3.27764 26.5589 3.37078 26.6639C3.46392 26.7688 3.57809 26.8529 3.70588 26.9109C3.83366 26.9688 3.97221 26.9991 4.1125 27H27.8875C28.0278 26.9991 28.1663 26.9688 28.2941 26.9109C28.4219 26.8529 28.5361 26.7688 28.6292 26.6639C28.7224 26.5589 28.7924 26.4356 28.8347 26.3018C28.8771 26.1681 28.8908 26.0269 28.875 25.8875L27.1 9.8875C27.0696 9.64332 26.9514 9.41855 26.7673 9.25521C26.5833 9.09188 26.3461 9.00116 26.1 9V9Z" stroke="black" stroke-linecap="round" stroke-linejoin="round"/>
<path d="M11 13V9C11 7.67392 11.5268 6.40215 12.4645 5.46447C13.4021 4.52678 14.6739 4 16 4C17.3261 4 18.5979 4.52678 19.5355 5.46447C20.4732 6.40215 21 7.67392 21 9V13" stroke="black" stroke-linecap="round" stroke-linejoin="round"/>
</svg>
