<svg width="32" height="32" viewBox="0 0 32 32" fill="none" xmlns="http://www.w3.org/2000/svg">
<path d="M6.47518 15.2375C6.32744 14.9814 6.13071 14.757 5.89622 14.5769C5.66173 14.3969 5.39408 14.2648 5.10854 14.1882C4.823 14.1116 4.52517 14.0919 4.23204 14.1304C3.93892 14.1689 3.65625 14.2648 3.40018 14.4125C3.1441 14.5603 2.91963 14.757 2.73958 14.9915C2.55953 15.226 2.42743 15.4936 2.35082 15.7792C2.27421 16.0647 2.2546 16.3625 2.29309 16.6557C2.33159 16.9488 2.42744 17.2314 2.57518 17.4875L7.20018 25.5C8.40588 27.5427 10.3692 29.0268 12.6633 29.6297C14.9574 30.2325 17.3968 29.9054 19.4509 28.7193C21.5051 27.5333 23.008 25.5843 23.6329 23.2961C24.2577 21.0078 23.954 18.5655 22.7877 16.5L20.6627 12.8125C20.346 12.3349 19.859 11.9961 19.3011 11.8653C18.7432 11.7345 18.1563 11.8215 17.6604 12.1086C17.1644 12.3956 16.7966 12.8611 16.6321 13.4101C16.4676 13.959 16.5188 14.55 16.7752 15.0625" stroke="black" stroke-linecap="round" stroke-linejoin="round"/>
<path d="M13.3751 18.1874L8.62508 9.96243C8.47734 9.70635 8.28061 9.48188 8.04612 9.30183C7.81164 9.12179 7.54398 8.98969 7.25844 8.91308C6.9729 8.83647 6.67507 8.81685 6.38195 8.85535C6.08882 8.89384 5.80616 8.98969 5.55008 9.13743C5.294 9.28517 5.06953 9.4819 4.88948 9.71638C4.70943 9.95087 4.57733 10.2185 4.50072 10.5041C4.42412 10.7896 4.4045 11.0874 4.44299 11.3806C4.48149 11.6737 4.57734 11.9564 4.72508 12.2124L9.47508 20.4374" stroke="black" stroke-linecap="round" stroke-linejoin="round"/>
<path d="M18.775 18.5375L13.525 9.43753C13.2266 8.92036 12.735 8.5429 12.1583 8.38818C11.5817 8.23346 10.9672 8.31417 10.45 8.61253C9.93281 8.9109 9.55535 9.4025 9.40063 9.97917C9.24591 10.5558 9.32662 11.1704 9.62499 11.6875" stroke="black" stroke-linecap="round" stroke-linejoin="round"/>
<path d="M12.375 8.46239L11.0875 6.22489C10.7891 5.70772 10.2975 5.33025 9.72085 5.17553C9.14417 5.02082 8.52966 5.10152 8.01249 5.39989C7.49531 5.69826 7.11785 6.18985 6.96313 6.76652C6.80841 7.3432 6.88912 7.95772 7.18749 8.47489L7.48749 8.98739" stroke="black" stroke-linecap="round" stroke-linejoin="round"/>
<path d="M23.4998 23.9374C25.0254 22.556 26.0322 20.6939 26.3529 18.6609C26.6735 16.6279 26.2887 14.5464 25.2623 12.7624L23.1373 9.08743C22.9895 8.83135 22.7928 8.60688 22.5583 8.42683C22.3238 8.24679 22.0562 8.11469 21.7706 8.03808C21.4851 7.96147 21.1873 7.94185 20.8942 7.98035C20.601 8.01884 20.3184 8.11469 20.0623 8.26243C19.8062 8.41017 19.5817 8.6069 19.4017 8.84139C19.2216 9.07587 19.0895 9.34353 19.0129 9.62907C18.9363 9.91461 18.9167 10.2124 18.9552 10.5056C18.9937 10.7987 19.0895 11.0814 19.2373 11.3374" stroke="black" stroke-linecap="round" stroke-linejoin="round"/>
<path d="M19.5249 11.8374L15.9874 5.71244C15.689 5.19527 15.1974 4.8178 14.6208 4.66308C14.0441 4.50837 13.4296 4.58907 12.9124 4.88744C12.3952 5.18581 12.0178 5.6774 11.863 6.25407C11.7083 6.83075 11.789 7.44526 12.0874 7.96244" stroke="black" stroke-linecap="round" stroke-linejoin="round"/>
<path d="M22.0999 1.4126L21.5874 3.3376" stroke="black" stroke-linecap="round" stroke-linejoin="round"/>
<path d="M25.8873 3.17505L24.7373 4.81255" stroke="black" stroke-linecap="round" stroke-linejoin="round"/>
<path d="M28.825 6.11255L27.1875 7.26255" stroke="black" stroke-linecap="round" stroke-linejoin="round"/>
</svg>
