<svg width="32" height="32" viewBox="0 0 32 32" fill="none" xmlns="http://www.w3.org/2000/svg">
<path d="M30.0875 15.2251L27 16.7626L23 9.11259L26.125 7.55009C26.3572 7.43171 26.6269 7.40996 26.8751 7.48957C27.1233 7.56919 27.3299 7.74371 27.45 7.97509L30.525 13.8626C30.5874 13.9804 30.6255 14.1096 30.6372 14.2424C30.6489 14.3752 30.634 14.509 30.5932 14.636C30.5525 14.7629 30.4867 14.8805 30.3999 14.9816C30.313 15.0828 30.2068 15.1656 30.0875 15.2251V15.2251Z" stroke="black" stroke-linecap="round" stroke-linejoin="round"/>
<path d="M4.99979 16.6375L1.91229 15.0875C1.79341 15.0292 1.68746 14.9477 1.60073 14.8476C1.51401 14.7476 1.44829 14.6311 1.40747 14.5052C1.36666 14.3793 1.35159 14.2464 1.36315 14.1145C1.37471 13.9826 1.41268 13.8544 1.47479 13.7375L4.54979 7.84999C4.67008 7.61878 4.87588 7.44367 5.12337 7.36195C5.37086 7.28023 5.64047 7.29837 5.87479 7.41249L8.99979 8.97499L4.99979 16.6375Z" stroke="black" stroke-linecap="round" stroke-linejoin="round"/>
<path d="M27 16.7625L25 19.1124L20.4 23.7125C20.2746 23.8297 20.1227 23.9148 19.9573 23.9605C19.7918 24.0062 19.6178 24.0112 19.45 23.975L12.2 22.1625C12.0676 22.1255 11.9442 22.0617 11.8375 21.975L5 16.6375" stroke="black" stroke-linecap="round" stroke-linejoin="round"/>
<path d="M25.0001 19.1126L19.5001 15.1126L17.9001 16.3126C17.2069 16.8299 16.3651 17.1094 15.5001 17.1094C14.6351 17.1094 13.7933 16.8299 13.1001 16.3126L12.4251 15.8001C12.311 15.7133 12.2166 15.6032 12.1481 15.4772C12.0797 15.3512 12.0388 15.2121 12.0282 15.0691C12.0175 14.9262 12.0374 14.7825 12.0864 14.6478C12.1355 14.5131 12.2126 14.3903 12.3126 14.2876L17.2126 9.40005C17.3047 9.30846 17.4139 9.23592 17.534 9.18659C17.6541 9.13726 17.7828 9.1121 17.9126 9.11255H23.0001" stroke="black" stroke-linecap="round" stroke-linejoin="round"/>
<path d="M9.0752 8.97502L15.4877 7.10002C15.7155 7.03468 15.9592 7.0524 16.1752 7.15002L20.5002 9.11252" stroke="black" stroke-linecap="round" stroke-linejoin="round"/>
<path d="M14 26.6125L10.2375 25.6625C10.0842 25.6279 9.94221 25.5547 9.825 25.45L7 23" stroke="black" stroke-linecap="round" stroke-linejoin="round"/>
</svg>
