<svg width="32" height="32" viewBox="0 0 32 32" fill="none" xmlns="http://www.w3.org/2000/svg">
<path d="M26 18H6C5.44772 18 5 18.4477 5 19V25C5 25.5523 5.44772 26 6 26H26C26.5523 26 27 25.5523 27 25V19C27 18.4477 26.5523 18 26 18Z" stroke="black" stroke-linecap="round" stroke-linejoin="round"/>
<path d="M26 6H6C5.44772 6 5 6.44772 5 7V13C5 13.5523 5.44772 14 6 14H26C26.5523 14 27 13.5523 27 13V7C27 6.44772 26.5523 6 26 6Z" stroke="black" stroke-linecap="round" stroke-linejoin="round"/>
<path d="M22.5 23C23.0523 23 23.5 22.5523 23.5 22C23.5 21.4477 23.0523 21 22.5 21C21.9477 21 21.5 21.4477 21.5 22C21.5 22.5523 21.9477 23 22.5 23Z" fill="black"/>
<path d="M22.5 11C23.0523 11 23.5 10.5523 23.5 10C23.5 9.44772 23.0523 9 22.5 9C21.9477 9 21.5 9.44772 21.5 10C21.5 10.5523 21.9477 11 22.5 11Z" fill="black"/>
</svg>
