<svg width="32" height="32" viewBox="0 0 32 32" fill="none" xmlns="http://www.w3.org/2000/svg">
<path d="M28.1875 17H24.1875C23.6571 17 23.1484 17.2107 22.7733 17.5858C22.3982 17.9608 22.1875 18.4696 22.1875 19V24C22.1875 24.5304 22.3982 25.0391 22.7733 25.4142C23.1484 25.7893 23.6571 26 24.1875 26H26.1875C26.7179 26 27.2266 25.7893 27.6017 25.4142C27.9768 25.0391 28.1875 24.5304 28.1875 24V17ZM28.1875 17C28.1876 15.4157 27.8739 13.847 27.2646 12.3846C26.6553 10.9221 25.7624 9.59478 24.6375 8.47916C23.5126 7.36354 22.1779 6.48172 20.7104 5.88457C19.2429 5.28743 17.6718 4.98679 16.0875 4.99999C14.5043 4.98844 12.9344 5.29031 11.4684 5.8882C10.0024 6.48608 8.66919 7.36817 7.5456 8.48362C6.42201 9.59908 5.53026 10.9258 4.92174 12.3875C4.31322 13.8491 3.99996 15.4167 4 17V24C4 24.5304 4.21071 25.0391 4.58579 25.4142C4.96086 25.7893 5.46957 26 6 26H8C8.53043 26 9.03914 25.7893 9.41421 25.4142C9.78929 25.0391 10 24.5304 10 24V19C10 18.4696 9.78929 17.9608 9.41421 17.5858C9.03914 17.2107 8.53043 17 8 17H4" stroke="black" stroke-linecap="round" stroke-linejoin="round"/>
</svg>
