<svg width="32" height="32" viewBox="0 0 32 32" fill="none" xmlns="http://www.w3.org/2000/svg">
<path d="M15.7875 8.52501C15.1226 7.22447 14.0391 6.18577 12.7116 5.57644C11.3841 4.9671 9.89007 4.82264 8.47044 5.16636C7.0508 5.51008 5.78832 6.32193 4.88657 7.471C3.98482 8.62006 3.49638 10.0394 3.50002 11.5C3.50002 20 16 27 16 27C16 27 28.5 20 28.5 11.5C28.5015 10.2133 28.1211 8.95514 27.407 7.88482C26.6929 6.8145 25.6772 5.9802 24.4885 5.4876C23.2998 4.995 21.9917 4.86627 20.7298 5.11771C19.468 5.36914 18.3091 5.98943 17.4 6.90001L13.4 10.9L17.4 14.9L15.4 16.9" stroke="black" stroke-linecap="round" stroke-linejoin="round"/>
</svg>
