<svg width="32" height="32" viewBox="0 0 32 32" fill="none" xmlns="http://www.w3.org/2000/svg">
<path d="M16.7127 26.4875L26.8377 16.3625C29.3252 13.8625 29.6877 9.77499 27.3377 7.16249C26.7483 6.50413 26.0309 5.97284 25.2293 5.60109C24.4277 5.22935 23.5587 5.02494 22.6754 5.00038C21.7921 4.97581 20.9131 5.13159 20.0921 5.4582C19.271 5.78482 18.5252 6.2754 17.9002 6.89999L16.0002 8.81249L14.3627 7.16249C11.8627 4.67499 7.77517 4.31249 5.16267 6.66249C4.50431 7.25185 3.97302 7.96925 3.60128 8.77086C3.22953 9.57248 3.02513 10.4415 3.00056 11.3248C2.97599 12.208 3.13177 13.087 3.45839 13.9081C3.785 14.7291 4.27559 15.4749 4.90017 16.1L15.2877 26.4875C15.4773 26.6753 15.7333 26.7806 16.0002 26.7806C16.267 26.7806 16.5231 26.6753 16.7127 26.4875V26.4875Z" stroke="black" stroke-linecap="round" stroke-linejoin="round"/>
</svg>
