<svg width="32" height="32" viewBox="0 0 32 32" fill="none" xmlns="http://www.w3.org/2000/svg">
<path d="M27.5 21.9125V10.0875C27.499 9.9095 27.4512 9.73487 27.3612 9.58125C27.2712 9.42763 27.1423 9.30045 26.9875 9.21253L16.4875 3.27503C16.3393 3.18946 16.1711 3.14441 16 3.14441C15.8289 3.14441 15.6607 3.18946 15.5125 3.27503L5.0125 9.21253C4.85769 9.30045 4.72879 9.42763 4.63882 9.58125C4.54884 9.73487 4.50096 9.9095 4.5 10.0875V21.9125C4.50096 22.0906 4.54884 22.2652 4.63882 22.4188C4.72879 22.5724 4.85769 22.6996 5.0125 22.7875L15.5125 28.725C15.6607 28.8106 15.8289 28.8557 16 28.8557C16.1711 28.8557 16.3393 28.8106 16.4875 28.725L26.9875 22.7875C27.1423 22.6996 27.2712 22.5724 27.3612 22.4188C27.4512 22.2652 27.499 22.0906 27.5 21.9125V21.9125Z" stroke="black" stroke-linecap="round" stroke-linejoin="round"/>
</svg>
