<svg width="24" height="24" viewBox="0 0 24 24" fill="none" xmlns="http://www.w3.org/2000/svg">
<path d="M6 20.5H9.32065C9.59679 20.5 9.82065 20.2761 9.82065 20V15.9116C9.82065 15.3593 10.2684 14.9116 10.8207 14.9116H12.9293C13.4816 14.9116 13.9293 15.3593 13.9293 15.9116V20C13.9293 20.2761 14.1532 20.5 14.4293 20.5H17.75C18.8546 20.5 19.75 19.6046 19.75 18.5V10.2822C19.75 9.67587 19.475 9.1023 19.0022 8.72269L13.1272 4.00543C12.3957 3.41809 11.3543 3.41809 10.6228 4.00543L4.74782 8.72269C4.27505 9.10229 4 9.67588 4 10.2822V18.5C4 19.6046 4.89543 20.5 6 20.5Z" fill="white"/>
</svg>
