<svg width="24" height="24" viewBox="0 0 24 24" fill="none" xmlns="http://www.w3.org/2000/svg">
<path fill-rule="evenodd" clip-rule="evenodd" d="M1 7.89487C1 5.67192 2.80205 3.86987 5.025 3.86987H11.85C12.3333 3.86987 12.725 4.26162 12.725 4.74487C12.725 5.22812 12.3333 5.61987 11.85 5.61987H5.025C3.76855 5.61987 2.75 6.63842 2.75 7.89487V18.3948C2.75 19.5417 3.59861 20.4903 4.70215 20.6471L13.3503 12.5077C13.6947 12.1835 14.2343 12.1917 14.5687 12.5261L17.8 15.7574V13.1448C17.8 12.6616 18.1918 12.2698 18.675 12.2698C19.1583 12.2698 19.55 12.6616 19.55 13.1448V18.3948C19.55 20.6178 17.7479 22.4198 15.525 22.4198H5.025C2.80205 22.4198 1 20.6178 1 18.3948V7.89487ZM4.15 9.46987C4.15 8.11677 5.2469 7.01987 6.6 7.01987C7.9531 7.01987 9.05 8.11677 9.05 9.46987C9.05 10.823 7.9531 11.9198 6.6 11.9198C5.2469 11.9198 4.15 10.823 4.15 9.46987Z" fill="black"/>
<path d="M15.5177 5.97487C15.5177 6.05863 15.522 6.13819 15.5305 6.21357C15.5391 6.28895 15.5434 6.36432 15.5434 6.4397C15.5863 6.63233 15.5798 6.82705 15.5241 7.02387C15.4684 7.22069 15.3462 7.36935 15.1576 7.46985C14.9775 7.56198 14.7889 7.57454 14.5916 7.50754C14.3944 7.44054 14.2615 7.3191 14.1929 7.14322C14.1329 6.95896 14.0857 6.77052 14.0514 6.57789C14.0171 6.38526 14 6.18425 14 5.97487C14 4.91122 14.3859 3.99204 15.1576 3.21734C15.9293 2.44263 16.8596 2.06784 17.9486 2.09296H17.9614L17.8071 1.94221C17.687 1.82496 17.6292 1.69724 17.6334 1.55905C17.6377 1.42085 17.6999 1.29313 17.8199 1.17588C17.94 1.05863 18.0707 1 18.2122 1C18.3537 1 18.4845 1.05863 18.6045 1.17588L19.7621 2.30653C19.9164 2.45729 19.9936 2.63317 19.9936 2.83417C19.9936 3.03518 19.9164 3.21106 19.7621 3.36181L18.6045 4.49246C18.4845 4.60972 18.3558 4.66625 18.2186 4.66206C18.0815 4.65787 17.9528 4.59715 17.8328 4.4799C17.7128 4.36265 17.6527 4.23283 17.6527 4.09045C17.6527 3.94807 17.7128 3.81826 17.8328 3.70101L17.9614 3.57538H17.9871C17.2926 3.55863 16.7074 3.78894 16.2315 4.26633C15.7556 4.74372 15.5177 5.31323 15.5177 5.97487ZM20.4823 6.02513C20.4823 5.94137 20.478 5.86181 20.4695 5.78643C20.4609 5.71106 20.4566 5.63568 20.4566 5.5603C20.4137 5.3593 20.4202 5.16248 20.4759 4.96985C20.5316 4.77722 20.6538 4.62647 20.8424 4.51759C21.0225 4.41709 21.2069 4.39615 21.3955 4.45477C21.5841 4.5134 21.7128 4.62647 21.7814 4.79397C21.8499 4.99498 21.9035 5.19389 21.9421 5.3907C21.9807 5.58752 22 5.799 22 6.02513C22 7.0804 21.6141 7.99958 20.8424 8.78266C20.0707 9.56575 19.1404 9.94472 18.0514 9.9196H18.0386L18.1801 10.0578C18.3001 10.175 18.3601 10.3028 18.3601 10.441C18.3601 10.5791 18.3001 10.7069 18.1801 10.8241C18.06 10.9414 17.9271 11 17.7814 11C17.6356 11 17.5027 10.9414 17.3826 10.8241L16.2251 9.69347C16.0707 9.54271 15.9957 9.36893 16 9.17211C16.0043 8.97529 16.0793 8.80151 16.2251 8.65075L17.3955 7.5201C17.5155 7.40285 17.6484 7.34213 17.7942 7.33794C17.94 7.33375 18.0729 7.39028 18.1929 7.50754C18.313 7.62479 18.373 7.75461 18.373 7.89698C18.373 8.03936 18.313 8.16918 18.1929 8.28643L18.0386 8.43719H18.0129C18.7074 8.45394 19.2926 8.22152 19.7685 7.73995C20.2444 7.25838 20.4823 6.68677 20.4823 6.02513Z" fill="#1C1B1F"/>
</svg>
