<svg width="32" height="32" viewBox="0 0 32 32" fill="none" xmlns="http://www.w3.org/2000/svg">
<path d="M26 5H6C5.44772 5 5 5.44772 5 6V26C5 26.5523 5.44772 27 6 27H26C26.5523 27 27 26.5523 27 26V6C27 5.44772 26.5523 5 26 5Z" stroke="black" stroke-linecap="round" stroke-linejoin="round"/>
<path d="M27 20L21.7125 14.7125C21.6195 14.618 21.5085 14.543 21.3862 14.4918C21.2639 14.4406 21.1326 14.4142 21 14.4142C20.8674 14.4142 20.7361 14.4406 20.6138 14.4918C20.4915 14.543 20.3805 14.618 20.2875 14.7125L14.7125 20.2875C14.6195 20.382 14.5085 20.457 14.3862 20.5082C14.2639 20.5595 14.1326 20.5858 14 20.5858C13.8674 20.5858 13.7361 20.5595 13.6138 20.5082C13.4915 20.457 13.3805 20.382 13.2875 20.2875L10.7125 17.7125C10.6195 17.618 10.5085 17.543 10.3862 17.4918C10.2639 17.4406 10.1326 17.4142 10 17.4142C9.86739 17.4142 9.7361 17.4406 9.61378 17.4918C9.49146 17.543 9.38055 17.618 9.2875 17.7125L5 22" stroke="black" stroke-linecap="round" stroke-linejoin="round"/>
<path d="M12.5 12.5C13.0523 12.5 13.5 12.0523 13.5 11.5C13.5 10.9477 13.0523 10.5 12.5 10.5C11.9477 10.5 11.5 10.9477 11.5 11.5C11.5 12.0523 11.9477 12.5 12.5 12.5Z" fill="black"/>
</svg>
