<svg width="24" height="24" viewBox="0 0 24 24" fill="none" xmlns="http://www.w3.org/2000/svg">
<path fill-rule="evenodd" clip-rule="evenodd" d="M18.625 2C19.1083 2 19.5 2.39175 19.5 2.875L19.5 4.96985L21.5949 4.96985C22.0781 4.96985 22.4699 5.3616 22.4699 5.84485C22.4699 6.3281 22.0781 6.71985 21.5949 6.71985L19.5 6.71985L19.5 8.8147C19.5 9.29795 19.1083 9.6897 18.625 9.6897C18.1418 9.6897 17.75 9.29794 17.75 8.8147L17.75 6.71985L15.6552 6.71985C15.1719 6.71985 14.7802 6.3281 14.7802 5.84485C14.7802 5.3616 15.1719 4.96985 15.6552 4.96985L17.75 4.96985L17.75 2.875C17.75 2.39175 18.1418 2 18.625 2ZM2 6.89485C2 4.6719 3.80205 2.86985 6.025 2.86985H12.85C13.3333 2.86985 13.725 3.2616 13.725 3.74485C13.725 4.2281 13.3333 4.61985 12.85 4.61985H6.025C4.76855 4.61985 3.75 5.6384 3.75 6.89485V17.3948C3.75 18.5417 4.59861 19.4903 5.70215 19.6471L14.3503 11.5077C14.6947 11.1835 15.2343 11.1917 15.5687 11.5261L18.8 14.7574V12.1448C18.8 11.6616 19.1918 11.2698 19.675 11.2698C20.1583 11.2698 20.55 11.6616 20.55 12.1448V17.3948C20.55 19.6178 18.7479 21.4198 16.525 21.4198H6.025C3.80205 21.4198 2 19.6178 2 17.3948V6.89485ZM5.15 8.46985C5.15 7.11675 6.2469 6.01985 7.6 6.01985C8.9531 6.01985 10.05 7.11675 10.05 8.46985C10.05 9.82295 8.9531 10.9198 7.6 10.9198C6.2469 10.9198 5.15 9.82295 5.15 8.46985Z" fill="black"/>
</svg>
