<svg width="32" height="32" viewBox="0 0 32 32" fill="none" xmlns="http://www.w3.org/2000/svg">
<path d="M13.3251 19.0125L12.2376 20.2375C11.3998 21.0738 10.3329 21.643 9.17177 21.8732C8.0106 22.1034 6.80725 21.9842 5.71379 21.5307C4.62032 21.0772 3.68582 20.3098 3.02837 19.3253C2.37092 18.3409 2.02002 17.1837 2.02002 16C2.02002 14.8162 2.37092 13.659 3.02837 12.6746C3.68582 11.6902 4.62032 10.9227 5.71379 10.4692C6.80725 10.0157 8.0106 9.89656 9.17177 10.1267C10.3329 10.3569 11.3998 10.9261 12.2376 11.7625L19.7626 20.2375C20.6004 21.0738 21.6673 21.643 22.8285 21.8732C23.9896 22.1034 25.193 21.9842 26.2865 21.5307C27.3799 21.0772 28.3144 20.3098 28.9719 19.3253C29.6293 18.3409 29.9802 17.1837 29.9802 16C29.9802 14.8162 29.6293 13.659 28.9719 12.6746C28.3144 11.6902 27.3799 10.9227 26.2865 10.4692C25.193 10.0157 23.9896 9.89656 22.8285 10.1267C21.6673 10.3569 20.6004 10.9261 19.7626 11.7625L18.6751 12.9875" stroke="black" stroke-linecap="round" stroke-linejoin="round"/>
</svg>
