<svg width="24" height="24" viewBox="0 0 24 24" fill="none" xmlns="http://www.w3.org/2000/svg">
<path d="M11.0909 10.1818H9.27273C9.01515 10.1818 8.79924 10.0947 8.625 9.92046C8.45076 9.74621 8.36364 9.5303 8.36364 9.27273C8.36364 9.01515 8.45076 8.79924 8.625 8.625C8.79924 8.45076 9.01515 8.36364 9.27273 8.36364H14.7273C14.9848 8.36364 15.2008 8.45076 15.375 8.625C15.5492 8.79924 15.6364 9.01515 15.6364 9.27273C15.6364 9.5303 15.5492 9.74621 15.375 9.92046C15.2008 10.0947 14.9848 10.1818 14.7273 10.1818H12.9091V14.7273C12.9091 14.9848 12.822 15.2008 12.6477 15.375C12.4735 15.5492 12.2576 15.6364 12 15.6364C11.7424 15.6364 11.5265 15.5492 11.3523 15.375C11.178 15.2008 11.0909 14.9848 11.0909 14.7273V10.1818ZM2 21.0909V17.4545C2 17.197 2.08712 16.9811 2.26136 16.8068C2.43561 16.6326 2.65152 16.5455 2.90909 16.5455H3.81818V7.45455H2.90909C2.65152 7.45455 2.43561 7.36742 2.26136 7.19318C2.08712 7.01894 2 6.80303 2 6.54545V2.90909C2 2.65152 2.08712 2.43561 2.26136 2.26136C2.43561 2.08712 2.65152 2 2.90909 2H6.54545C6.80303 2 7.01894 2.08712 7.19318 2.26136C7.36742 2.43561 7.45455 2.65152 7.45455 2.90909V3.81818H16.5455V2.90909C16.5455 2.65152 16.6326 2.43561 16.8068 2.26136C16.9811 2.08712 17.197 2 17.4545 2H21.0909C21.3485 2 21.5644 2.08712 21.7386 2.26136C21.9129 2.43561 22 2.65152 22 2.90909V6.54545C22 6.80303 21.9129 7.01894 21.7386 7.19318C21.5644 7.36742 21.3485 7.45455 21.0909 7.45455H20.1818V16.5455H21.0909C21.3485 16.5455 21.5644 16.6326 21.7386 16.8068C21.9129 16.9811 22 17.197 22 17.4545V21.0909C22 21.3485 21.9129 21.5644 21.7386 21.7386C21.5644 21.9129 21.3485 22 21.0909 22H17.4545C17.197 22 16.9811 21.9129 16.8068 21.7386C16.6326 21.5644 16.5455 21.3485 16.5455 21.0909V20.1818H7.45455V21.0909C7.45455 21.3485 7.36742 21.5644 7.19318 21.7386C7.01894 21.9129 6.80303 22 6.54545 22H2.90909C2.65152 22 2.43561 21.9129 2.26136 21.7386C2.08712 21.5644 2 21.3485 2 21.0909ZM7.45455 18.3636H16.5455V17.4545C16.5455 17.197 16.6326 16.9811 16.8068 16.8068C16.9811 16.6326 17.197 16.5455 17.4545 16.5455H18.3636V7.45455H17.4545C17.197 7.45455 16.9811 7.36742 16.8068 7.19318C16.6326 7.01894 16.5455 6.80303 16.5455 6.54545V5.63636H7.45455V6.54545C7.45455 6.80303 7.36742 7.01894 7.19318 7.19318C7.01894 7.36742 6.80303 7.45455 6.54545 7.45455H5.63636V16.5455H6.54545C6.80303 16.5455 7.01894 16.6326 7.19318 16.8068C7.36742 16.9811 7.45455 17.197 7.45455 17.4545V18.3636ZM3.81818 5.63636H5.63636V3.81818H3.81818V5.63636ZM18.3636 5.63636H20.1818V3.81818H18.3636V5.63636ZM18.3636 20.1818H20.1818V18.3636H18.3636V20.1818ZM3.81818 20.1818H5.63636V18.3636H3.81818V20.1818Z" fill="#1C1B1F"/>
</svg>
