<svg width="32" height="32" viewBox="0 0 32 32" fill="none" xmlns="http://www.w3.org/2000/svg">
<path d="M16 28C22.6274 28 28 22.6274 28 16C28 9.37258 22.6274 4 16 4C9.37258 4 4 9.37258 4 16C4 22.6274 9.37258 28 16 28Z" stroke="black" stroke-linecap="round" stroke-linejoin="round"/>
<path d="M17.675 16.575C18.358 16.2028 18.8975 15.6136 19.2083 14.9006C19.5192 14.1876 19.5837 13.3913 19.3916 12.6376C19.1995 11.8838 18.7619 11.2155 18.1477 10.7382C17.5335 10.2609 16.7778 10.0018 16 10.0018C15.2222 10.0018 14.4665 10.2609 13.8523 10.7382C13.2381 11.2155 12.8005 11.8838 12.6084 12.6376C12.4163 13.3913 12.4808 14.1876 12.7917 14.9006C13.1025 15.6136 13.642 16.2028 14.325 16.575L12.6 20.6C12.5337 20.7519 12.5062 20.9178 12.52 21.083C12.5337 21.2481 12.5883 21.4072 12.6788 21.546C12.7692 21.6849 12.8928 21.799 13.0383 21.8783C13.1839 21.9575 13.3468 21.9993 13.5125 22H18.4875C18.6532 21.9993 18.8161 21.9575 18.9617 21.8783C19.1072 21.799 19.2308 21.6849 19.3212 21.546C19.4117 21.4072 19.4663 21.2481 19.48 21.083C19.4938 20.9178 19.4663 20.7519 19.4 20.6L17.675 16.575Z" stroke="black" stroke-linecap="round" stroke-linejoin="round"/>
</svg>
