<svg width="24" height="24" viewBox="0 0 24 24" fill="none" xmlns="http://www.w3.org/2000/svg">
<rect width="24" height="24" fill="none"/>
<path d="M6.3 21.3C6.11667 21.4833 5.88333 21.575 5.6 21.575C5.31667 21.575 5.08333 21.4833 4.9 21.3L2.3 18.7C2.1 18.5 2 18.2667 2 18C2 17.7333 2.1 17.5 2.3 17.3L4.9 14.7C5.08333 14.5167 5.3125 14.425 5.5875 14.425C5.8625 14.425 6.1 14.5167 6.3 14.7C6.5 14.9 6.6 15.1375 6.6 15.4125C6.6 15.6875 6.5 15.925 6.3 16.125L5.425 17H17.775L16.875 16.1C16.6917 15.9167 16.6 15.6875 16.6 15.4125C16.6 15.1375 16.7 14.9 16.9 14.7C17.0833 14.5167 17.3167 14.425 17.6 14.425C17.8833 14.425 18.1167 14.5167 18.3 14.7L20.9 17.3C21.1 17.5 21.2 17.7333 21.2 18C21.2 18.2667 21.1 18.5 20.9 18.7L18.3 21.3C18.1167 21.4833 17.8875 21.575 17.6125 21.575C17.3375 21.575 17.1 21.4833 16.9 21.3C16.7 21.1 16.6 20.8625 16.6 20.5875C16.6 20.3125 16.7 20.075 16.9 19.875L17.775 19H5.425L6.325 19.9C6.50833 20.0833 6.6 20.3125 6.6 20.5875C6.6 20.8625 6.5 21.1 6.3 21.3ZM6.95 11.8L10.375 2.6C10.4417 2.41667 10.5542 2.27083 10.7125 2.1625C10.8708 2.05417 11.05 2 11.25 2H11.95C12.15 2 12.3292 2.05417 12.4875 2.1625C12.6458 2.27083 12.7583 2.41667 12.825 2.6L16.25 11.825C16.35 12.1083 16.3167 12.375 16.15 12.625C15.9833 12.875 15.75 13 15.45 13C15.2667 13 15.0958 12.9458 14.9375 12.8375C14.7792 12.7292 14.6667 12.5833 14.6 12.4L13.85 10.2H9.4L8.6 12.425C8.53333 12.6083 8.425 12.75 8.275 12.85C8.125 12.95 7.95833 13 7.775 13C7.45833 13 7.2125 12.8708 7.0375 12.6125C6.8625 12.3542 6.83333 12.0833 6.95 11.8ZM9.95 8.6H13.25L11.65 4.05H11.55L9.95 8.6Z" fill="#1C1B1F"/>
</svg>
