<svg width="32" height="32" viewBox="0 0 32 32" fill="none" xmlns="http://www.w3.org/2000/svg">
<path d="M11 29H21" stroke="black" stroke-linecap="round" stroke-linejoin="round"/>
<path d="M9.83761 20.875C8.6471 19.9493 7.68288 18.7648 7.01801 17.4112C6.35313 16.0577 6.00504 14.5705 6.00011 13.0625C5.97511 7.6375 10.3376 3.125 15.7626 3C17.8622 2.95023 19.9242 3.56276 21.6561 4.75071C23.388 5.93866 24.7019 7.64174 25.4115 9.6184C26.1211 11.5951 26.1904 13.745 25.6094 15.7632C25.0285 17.7814 23.827 19.5655 22.1751 20.8625C21.8102 21.1446 21.5146 21.5063 21.311 21.9201C21.1073 22.3339 21.001 22.7888 21.0001 23.25V24C21.0001 24.2652 20.8948 24.5196 20.7072 24.7071C20.5197 24.8946 20.2653 25 20.0001 25H12.0001C11.7349 25 11.4805 24.8946 11.293 24.7071C11.1055 24.5196 11.0001 24.2652 11.0001 24V23.25C10.997 22.7923 10.8909 22.3411 10.6896 21.93C10.4884 21.5188 10.1972 21.1583 9.83761 20.875V20.875Z" stroke="black" stroke-linecap="round" stroke-linejoin="round"/>
<path d="M17.0127 7.09998C18.2349 7.30716 19.3627 7.8886 20.2404 8.76405C21.1181 9.6395 21.7024 10.7658 21.9127 11.9875" stroke="black" stroke-linecap="round" stroke-linejoin="round"/>
</svg>
