<svg width="32" height="32" viewBox="0 0 32 32" fill="none" xmlns="http://www.w3.org/2000/svg">
<path d="M4 27C4 27 8 20 8 12C8 9.87827 8.84285 7.84344 10.3431 6.34315C11.8434 4.84285 13.8783 4 16 4C18.1217 4 20.1566 4.84285 21.6569 6.34315C23.1571 7.84344 24 9.87827 24 12C24 20 28 27 28 27" stroke="black" stroke-linecap="round" stroke-linejoin="round"/>
<path d="M12.5 14.5C13.0523 14.5 13.5 14.0523 13.5 13.5C13.5 12.9477 13.0523 12.5 12.5 12.5C11.9477 12.5 11.5 12.9477 11.5 13.5C11.5 14.0523 11.9477 14.5 12.5 14.5Z" fill="black"/>
<path d="M19.5 14.5C20.0523 14.5 20.5 14.0523 20.5 13.5C20.5 12.9477 20.0523 12.5 19.5 12.5C18.9477 12.5 18.5 12.9477 18.5 13.5C18.5 14.0523 18.9477 14.5 19.5 14.5Z" fill="black"/>
<path d="M20 18L16 20L12 18" stroke="black" stroke-linecap="round" stroke-linejoin="round"/>
<path d="M10.8 27.0001C11.3287 26.0893 12.0873 25.3334 12.9998 24.8079C13.9124 24.2824 14.947 24.0059 16 24.0059C17.0531 24.0059 18.0877 24.2824 19.0003 24.8079C19.9128 25.3334 20.6714 26.0893 21.2 27.0001" stroke="black" stroke-linecap="round" stroke-linejoin="round"/>
</svg>
