<svg width="32" height="32" viewBox="0 0 32 32" fill="none" xmlns="http://www.w3.org/2000/svg">
<path d="M26 11H6C5.44772 11 5 11.4477 5 12V26C5 26.5523 5.44772 27 6 27H26C26.5523 27 27 26.5523 27 26V12C27 11.4477 26.5523 11 26 11Z" stroke="black" stroke-linecap="round" stroke-linejoin="round"/>
<path d="M11.5 11V6.5C11.5 5.30653 11.9741 4.16193 12.818 3.31802C13.6619 2.47411 14.8065 2 16 2C17.1935 2 18.3381 2.47411 19.182 3.31802C20.0259 4.16193 20.5 5.30653 20.5 6.5V11" stroke="black" stroke-linecap="round" stroke-linejoin="round"/>
<path d="M16 20C16.5523 20 17 19.5523 17 19C17 18.4477 16.5523 18 16 18C15.4477 18 15 18.4477 15 19C15 19.5523 15.4477 20 16 20Z" fill="black"/>
</svg>
