<svg width="32" height="32" viewBox="0 0 32 32" fill="none" xmlns="http://www.w3.org/2000/svg">
<path d="M15.9125 11.8749C16.4699 11.3231 17.2206 11.0105 18.0049 11.0035C18.7892 10.9965 19.5453 11.2957 20.1125 11.8374C21.325 12.9999 21.3 14.9749 20.1 16.1749L11.725 24.2874C11.5355 24.4754 11.4279 24.7305 11.4256 24.9973C11.4233 25.2642 11.5264 25.5212 11.7125 25.7124L15.3 29.2999C15.4874 29.4856 15.7399 29.5908 16.0037 29.5932C16.2675 29.5955 16.5218 29.4948 16.7125 29.3124L25.0125 21.1624C28.9125 17.2624 29.025 10.9124 25.1625 6.98742C24.237 6.04603 23.1343 5.29721 21.9179 4.78415C20.7015 4.27109 19.3956 4.00395 18.0755 3.99814C16.7554 3.99233 15.4472 4.24797 14.2264 4.7503C13.0055 5.25263 11.8962 5.99171 10.9625 6.92492L2.7 15.2874C2.51298 15.4749 2.40796 15.7289 2.40796 15.9937C2.40796 16.2585 2.51298 16.5125 2.7 16.6999L6.2875 20.2874C6.47873 20.4735 6.73572 20.5766 7.00257 20.5743C7.26942 20.572 7.52456 20.4644 7.7125 20.2749L15.9125 11.8749Z" stroke="black" stroke-linecap="round" stroke-linejoin="round"/>
<path d="M15.8501 20.3L20.8251 25.275" stroke="black" stroke-linecap="round" stroke-linejoin="round"/>
<path d="M6.75 11.2L11.7125 16.175" stroke="black" stroke-linecap="round" stroke-linejoin="round"/>
</svg>
