<svg width="32" height="32" viewBox="0 0 32 32" fill="none" xmlns="http://www.w3.org/2000/svg">
<path d="M18.2627 15C18.5441 15.3151 18.8889 15.5672 19.2745 15.7398C19.6601 15.9124 20.0777 16.0016 20.5002 16.0016C20.9226 16.0016 21.3403 15.9124 21.7259 15.7398C22.1115 15.5672 22.4563 15.3151 22.7377 15" stroke="black" stroke-linecap="round" stroke-linejoin="round"/>
<path d="M9.2627 15C9.5441 15.3151 9.88889 15.5672 10.2745 15.7398C10.6601 15.9124 11.0777 16.0016 11.5002 16.0016C11.9226 16.0016 12.3403 15.9124 12.7259 15.7398C13.1115 15.5672 13.4563 15.3151 13.7377 15" stroke="black" stroke-linecap="round" stroke-linejoin="round"/>
<path d="M19.3125 23C18.3308 22.348 17.1785 22.0002 16 22.0002C14.8215 22.0002 13.6692 22.348 12.6875 23" stroke="black" stroke-linecap="round" stroke-linejoin="round"/>
<path d="M27.0001 6.03751C27.002 5.87442 26.9634 5.71339 26.8879 5.56881C26.8124 5.42424 26.7022 5.30062 26.5673 5.20901C26.4324 5.11739 26.2768 5.06063 26.1146 5.04379C25.9523 5.02695 25.7885 5.05056 25.6376 5.11251C23.7501 5.83751 20.1126 7.00001 16.0001 7.00001C11.8876 7.00001 8.25007 5.83751 6.36257 5.11251C6.21168 5.05056 6.0478 5.02695 5.88556 5.04379C5.72332 5.06063 5.56778 5.11739 5.43283 5.20901C5.29789 5.30062 5.18773 5.42424 5.11221 5.56881C5.0367 5.71339 4.99817 5.87442 5.00007 6.03751V13C5.00007 21.8375 9.92507 29 16.0001 29C22.0751 29 27.0001 21.8375 27.0001 13V6.03751Z" stroke="black" stroke-linecap="round" stroke-linejoin="round"/>
</svg>
