<svg width="24" height="24" viewBox="0 0 24 24" fill="none" xmlns="http://www.w3.org/2000/svg">
<path d="M10 16.75C9.73333 16.75 9.47917 16.7 9.2375 16.6C8.99583 16.5 8.775 16.3583 8.575 16.175L3.825 11.425C3.64167 11.225 3.5 11.0042 3.4 10.7625C3.3 10.5208 3.25 10.2667 3.25 10C3.25 9.73333 3.3 9.475 3.4 9.225C3.5 8.975 3.64167 8.75833 3.825 8.575L8.575 3.8L6.875 2.1C6.69167 1.91667 6.6 1.6875 6.6 1.4125C6.6 1.1375 6.7 0.899999 6.9 0.699999C7.1 0.516666 7.33333 0.420833 7.6 0.412499C7.86667 0.404166 8.1 0.499999 8.3 0.699999L16.175 8.575C16.375 8.75833 16.5208 8.975 16.6125 9.225C16.7042 9.475 16.75 9.73333 16.75 10C16.75 10.2667 16.7042 10.5208 16.6125 10.7625C16.5208 11.0042 16.375 11.225 16.175 11.425L11.425 16.175C11.2417 16.3583 11.025 16.5 10.775 16.6C10.525 16.7 10.2667 16.75 10 16.75ZM10 5.225L5.225 10H14.775L10 5.225ZM19 17C18.45 17 17.9792 16.8042 17.5875 16.4125C17.1958 16.0208 17 15.55 17 15C17 14.65 17.1042 14.275 17.3125 13.875C17.5208 13.475 17.75 13.1 18 12.75C18.15 12.55 18.3083 12.3417 18.475 12.125C18.6417 11.9083 18.8167 11.7 19 11.5C19.1833 11.7 19.3583 11.9083 19.525 12.125C19.6917 12.3417 19.85 12.55 20 12.75C20.25 13.1 20.4792 13.475 20.6875 13.875C20.8958 14.275 21 14.65 21 15C21 15.55 20.8042 16.0208 20.4125 16.4125C20.0208 16.8042 19.55 17 19 17Z" fill="#1C1B1F"/>
</svg>
