<svg width="25" height="25" viewBox="0 0 25 25" fill="none" xmlns="http://www.w3.org/2000/svg">
<path d="M6.63232 16.0079H8.03232L15.8323 8.23293L14.4073 6.80793L6.63232 14.6079V16.0079ZM4.63232 17.0079V14.1829C4.63232 14.0496 4.65732 13.9204 4.70732 13.7954C4.75732 13.6704 4.83232 13.5579 4.93232 13.4579L15.8323 2.58293C16.0157 2.3996 16.2282 2.25793 16.4698 2.15793C16.7115 2.05793 16.9657 2.00793 17.2323 2.00793C17.499 2.00793 17.7573 2.05793 18.0073 2.15793C18.2573 2.25793 18.4823 2.40793 18.6823 2.60793L20.0573 4.00793C20.2573 4.19127 20.4032 4.40793 20.4948 4.65793C20.5865 4.90793 20.6323 5.16627 20.6323 5.43293C20.6323 5.68293 20.5865 5.92877 20.4948 6.17043C20.4032 6.4121 20.2573 6.63293 20.0573 6.83293L9.18232 17.7079C9.08232 17.8079 8.96982 17.8829 8.84482 17.9329C8.71982 17.9829 8.59066 18.0079 8.45732 18.0079H5.63232C5.34899 18.0079 5.11149 17.9121 4.91982 17.7204C4.72816 17.5288 4.63232 17.2913 4.63232 17.0079Z" fill="#1C1B1F"/>
</svg>
