<svg width="25" height="26" viewBox="0 0 25 26" fill="none" xmlns="http://www.w3.org/2000/svg">
<path d="M8.12491 16.5C7.74158 16.5 7.43741 16.3375 7.21241 16.0125C6.98741 15.6875 6.94158 15.3417 7.07491 14.975L11.4749 3.25C11.5582 3.01667 11.6999 2.83333 11.8999 2.7C12.0999 2.56667 12.3166 2.5 12.5499 2.5H13.4499C13.6999 2.5 13.9207 2.56667 14.1124 2.7C14.3041 2.83333 14.4416 3.01667 14.5249 3.25L18.9499 15C19.0832 15.3667 19.0374 15.7083 18.8124 16.025C18.5874 16.3417 18.2832 16.5 17.8999 16.5C17.6666 16.5 17.4499 16.4333 17.2499 16.3C17.0499 16.1667 16.9082 15.9833 16.8249 15.75L15.8499 12.9H10.1999L9.1749 15.775C9.09157 16.0083 8.95408 16.1875 8.76241 16.3125C8.57074 16.4375 8.35824 16.5 8.12491 16.5ZM10.8999 10.9H15.0999L13.0499 5.1H12.9499L10.8999 10.9Z" fill="#1C1B1F"/>
</svg>
