<svg width="32" height="32" viewBox="0 0 32 32" fill="none" xmlns="http://www.w3.org/2000/svg">
<path d="M19 10V25.4625C18.9985 25.6287 19.039 25.7926 19.1176 25.939C19.1963 26.0854 19.3106 26.2095 19.45 26.3L20.825 27.2125C20.9582 27.3014 21.1109 27.3571 21.2701 27.3747C21.4292 27.3924 21.5903 27.3716 21.7398 27.314C21.8893 27.2564 22.0227 27.1638 22.1289 27.0439C22.2351 26.924 22.3109 26.7803 22.35 26.625L24 20" stroke="black" stroke-linecap="round" stroke-linejoin="round"/>
<path d="M24 20C25.3261 20 26.5979 19.4732 27.5355 18.5355C28.4732 17.5978 29 16.3261 29 15C29 13.6739 28.4732 12.4021 27.5355 11.4644C26.5979 10.5268 25.3261 9.99997 24 9.99997H19C19 9.99997 12.1875 9.99997 5.6375 4.51247C5.49181 4.39192 5.31493 4.31514 5.12737 4.29105C4.93981 4.26696 4.74927 4.29654 4.57784 4.37636C4.40642 4.45619 4.26114 4.58298 4.15886 4.74203C4.05658 4.90109 4.0015 5.08588 4 5.27497V24.725C4.0015 24.9141 4.05658 25.0989 4.15886 25.2579C4.26114 25.417 4.40642 25.5438 4.57784 25.6236C4.74927 25.7034 4.93981 25.733 5.12737 25.7089C5.31493 25.6848 5.49181 25.608 5.6375 25.4875C12.1875 20 19 20 19 20H24Z" stroke="black" stroke-linecap="round" stroke-linejoin="round"/>
</svg>
