<svg width="32" height="32" viewBox="0 0 32 32" fill="none" xmlns="http://www.w3.org/2000/svg">
<path d="M4 6.33748V23.6625C3.99984 23.8174 4.03566 23.9702 4.10464 24.1089C4.17362 24.2476 4.27387 24.3683 4.3975 24.4617C4.52112 24.555 4.66474 24.6183 4.81702 24.6467C4.9693 24.675 5.12608 24.6676 5.275 24.625L27.275 18.2125C27.4841 18.1527 27.6679 18.0264 27.7988 17.8527C27.9296 17.679 28.0002 17.4674 28 17.25V12.75C28.0002 12.5325 27.9296 12.3209 27.7988 12.1473C27.6679 11.9736 27.4841 11.8473 27.275 11.7875L5.275 5.37498C5.12608 5.33239 4.9693 5.32497 4.81702 5.35331C4.66474 5.38165 4.52112 5.44498 4.3975 5.53831C4.27387 5.63163 4.17362 5.7524 4.10464 5.89108C4.03566 6.02977 3.99984 6.18259 4 6.33748Z" stroke="black" stroke-linecap="round" stroke-linejoin="round"/>
<path d="M23 19.4625V24C23 24.2652 22.8946 24.5195 22.7071 24.7071C22.5196 24.8946 22.2652 25 22 25H18C17.7348 25 17.4804 24.8946 17.2929 24.7071C17.1054 24.5195 17 24.2652 17 24V8.78748" stroke="black" stroke-linecap="round" stroke-linejoin="round"/>
</svg>
