<svg width="32" height="32" viewBox="0 0 32 32" fill="none" xmlns="http://www.w3.org/2000/svg">
<path d="M18.7499 12.7499C18.7461 13.3826 18.5234 13.9945 18.1194 14.4816C17.7154 14.9686 17.1552 15.3006 16.534 15.4212C15.9129 15.5418 15.2691 15.4434 14.7123 15.1429C14.1555 14.8424 13.7199 14.3583 13.4798 13.7729C13.2396 13.1875 13.2096 12.537 13.395 11.932C13.5803 11.327 13.9695 10.8048 14.4964 10.4544C15.0233 10.104 15.6553 9.94696 16.2849 10.0099C16.9145 10.0729 17.5028 10.3521 17.9499 10.7999C18.4615 11.3201 18.7487 12.0202 18.7499 12.7499Z" stroke="black" stroke-linecap="round" stroke-linejoin="round"/>
<path d="M19.2499 18.7499C19.2478 19.4984 18.9864 20.2231 18.5102 20.8006C18.034 21.3781 17.3724 21.7728 16.638 21.9174C15.9036 22.062 15.1418 21.9477 14.4821 21.5939C13.8225 21.2401 13.3059 20.6687 13.0201 19.9769C12.7344 19.285 12.6971 18.5156 12.9148 17.7994C13.1325 17.0832 13.5916 16.4646 14.214 16.0488C14.8365 15.6331 15.5837 15.4458 16.3287 15.5189C17.0736 15.592 17.7702 15.921 18.2999 16.4499C18.6021 16.7517 18.8417 17.1102 19.0047 17.505C19.1677 17.8997 19.2511 18.3228 19.2499 18.7499Z" stroke="black" stroke-linecap="round" stroke-linejoin="round"/>
<path d="M26 5H6C5.44772 5 5 5.44772 5 6V26C5 26.5523 5.44772 27 6 27H26C26.5523 27 27 26.5523 27 26V6C27 5.44772 26.5523 5 26 5Z" stroke="black" stroke-linecap="round" stroke-linejoin="round"/>
</svg>
