<svg width="32" height="32" viewBox="0 0 32 32" fill="none" xmlns="http://www.w3.org/2000/svg">
<path d="M22.3499 8.96258C22.3444 9.75482 22.1762 10.5375 21.8558 11.2621C21.5354 11.9867 21.0697 12.6378 20.4874 13.1751C19.2604 14.2932 17.6601 14.913 15.9999 14.913C14.3398 14.913 12.7395 14.2932 11.5124 13.1751C10.9265 12.6409 10.4584 11.9904 10.1381 11.265C9.81777 10.5397 9.65234 9.75549 9.65234 8.96258C9.65234 8.16966 9.81777 7.38547 10.1381 6.66013C10.4584 5.93478 10.9265 5.28424 11.5124 4.75008C12.7355 3.62391 14.3373 2.99878 15.9999 2.99878C17.6625 2.99878 19.2643 3.62391 20.4874 4.75008C21.0715 5.28595 21.5384 5.93677 21.8589 6.66169C22.1794 7.38661 22.3466 8.16997 22.3499 8.96258V8.96258Z" stroke="black" stroke-linecap="round" stroke-linejoin="round"/>
<path d="M23.4999 21.9626C23.4953 22.8986 23.2976 23.8236 22.919 24.6797C22.5405 25.5357 21.9893 26.3044 21.2999 26.9376C19.854 28.2649 17.9626 29.0013 15.9999 29.0013C14.0371 29.0013 12.1458 28.2649 10.6999 26.9376C10.0066 26.3062 9.45273 25.537 9.07375 24.6793C8.69477 23.8215 8.49902 22.8941 8.49902 21.9564C8.49902 21.0186 8.69477 20.0912 9.07375 19.2335C9.45273 18.3757 10.0066 17.6065 10.6999 16.9751C12.1458 15.6478 14.0371 14.9114 15.9999 14.9114C17.9626 14.9114 19.854 15.6478 21.2999 16.9751C21.9908 17.6097 22.5429 18.3804 22.9215 19.2388C23.3001 20.0971 23.4971 21.0245 23.4999 21.9626Z" stroke="black" stroke-linecap="round" stroke-linejoin="round"/>
</svg>
