<svg width="32" height="32" viewBox="0 0 32 32" fill="none" xmlns="http://www.w3.org/2000/svg">
<path d="M21.5 19.5C22.0523 19.5 22.5 19.0523 22.5 18.5C22.5 17.9477 22.0523 17.5 21.5 17.5C20.9477 17.5 20.5 17.9477 20.5 18.5C20.5 19.0523 20.9477 19.5 21.5 19.5Z" fill="black"/>
<path d="M25.7001 20.425C25.2458 22.2422 24.2903 23.8954 22.9424 25.1961C21.5944 26.4967 19.9083 27.3927 18.076 27.7818C16.2437 28.171 14.3389 28.0376 12.5787 27.3971C10.8185 26.7565 9.27358 25.6344 8.11998 24.1586C6.96638 22.6828 6.25047 20.9127 6.05381 19.0499C5.85715 17.1871 6.18764 15.3065 7.00764 13.6223C7.82765 11.9382 9.10418 10.5182 10.6918 9.52422C12.2795 8.53019 14.1144 8.00206 15.9876 8" stroke="black" stroke-linecap="round" stroke-linejoin="round"/>
<path d="M8.39996 11.4875C7.49462 11.4125 6.65394 10.9883 6.0556 10.3047C5.45726 9.62117 5.14815 8.73173 5.1936 7.82442C5.23904 6.91711 5.63549 6.06301 6.29914 5.44265C6.96279 4.82229 7.84165 4.48427 8.74996 4.50004L23.25 11.5C24.1782 11.5 25.0685 11.1313 25.7248 10.4749C26.3812 9.81854 26.75 8.9283 26.75 8.00004C26.75 7.07178 26.3812 6.18154 25.7248 5.52517C25.0685 4.86879 24.1782 4.50004 23.25 4.50004" stroke="black" stroke-linecap="round" stroke-linejoin="round"/>
<path d="M6.07495 19.2875L15.9875 14V28" stroke="black" stroke-linecap="round" stroke-linejoin="round"/>
<path d="M11.9875 16.1375V27.1625" stroke="black" stroke-linecap="round" stroke-linejoin="round"/>
</svg>
