<svg width="800" height="800" viewBox="0 0 800 800" fill="none" xmlns="http://www.w3.org/2000/svg">
<path d="M87.4711 310.674C87.4711 310.674 112.18 278.826 96.2001 234.595C80.1644 190.393 42.8222 173.604 42.8222 173.604C42.8222 173.604 14.8782 211.56 30.4956 254.647C46.0851 297.762 87.4711 310.674 87.4711 310.674Z" fill="black"/>
<path d="M156.048 333.292C156.048 333.292 199.247 329.833 223.984 291.208C248.721 252.611 229.812 209.44 229.812 209.44C229.812 209.44 189.709 217.583 164.303 257.213C138.925 296.814 156.048 333.292 156.048 333.292Z" fill="black"/>
<path d="M160.427 384.327C140.431 426.912 162.156 460.88 162.156 460.88C162.156 460.88 204.574 451.788 224.039 410.319C243.478 368.793 219.103 328.467 219.103 328.467C219.103 328.467 180.422 341.742 160.427 384.327Z" fill="black"/>
<path d="M258.063 418.629C258.063 418.629 220.777 435.529 204.88 479.76C188.984 524.074 213.777 555.811 213.777 555.811C213.777 555.811 255.107 542.787 270.613 499.644C286.091 456.501 258.063 418.629 258.063 418.629Z" fill="black"/>
<path d="M289.13 651.551C289.13 651.551 324.995 627.149 327.421 581.385C329.819 535.592 292.031 507.425 292.031 507.425C292.031 507.425 261.187 534.337 258.704 581.301C256.25 628.237 289.13 651.551 289.13 651.551Z" fill="black"/>
<path d="M142.55 225.448C142.55 225.448 180.785 212.675 191.996 167.022C203.235 121.369 181.51 86.6764 181.51 86.6764C181.51 86.6764 137.224 102.74 126.264 147.277C115.331 191.787 142.55 225.448 142.55 225.448Z" fill="black"/>
<path d="M87.4432 407.753C87.4432 407.753 101.638 370.02 73.3318 332.511C44.9696 294.973 4.36439 289.925 4.36439 289.925C4.36439 289.925 -11.1414 334.435 16.4679 371.024C44.0771 407.641 87.4432 407.753 87.4432 407.753Z" fill="black"/>
<path d="M119.124 507.314C119.124 507.314 124.562 467.378 88.6424 437.091C52.6667 406.777 11.95 410.904 11.95 410.904C11.95 410.904 6.707 457.756 41.7345 487.29C76.8179 516.796 119.124 507.314 119.124 507.314Z" fill="black"/>
<path d="M167.371 589.64C167.371 589.64 160.538 549.927 117.088 531.967C73.6107 513.951 36.0732 530.21 36.0732 530.21C36.0732 530.21 45.2763 576.448 87.6106 594.018C129.945 611.504 167.371 589.64 167.371 589.64Z" fill="black"/>
<path d="M188.454 623.83C143.164 611.169 107.802 631.779 107.802 631.779C107.802 631.779 122.443 676.567 166.562 688.921C210.737 701.276 245.262 675.089 245.262 675.089C245.262 675.089 233.745 636.464 188.454 623.83Z" fill="black"/>
<path d="M147.263 252.667L127.128 242.767C126.068 244.97 22.4917 464.979 313.533 713.77L328.09 696.73C50.9934 459.82 143.192 261.005 147.263 252.667Z" fill="black"/>
<path d="M712.529 310.256C712.529 310.256 687.792 278.408 703.8 234.205C719.78 189.974 757.15 173.186 757.15 173.186C757.15 173.186 785.066 211.113 769.448 254.229C753.915 297.344 712.529 310.256 712.529 310.256Z" fill="black"/>
<path d="M643.952 332.873C643.952 332.873 600.753 329.387 575.988 290.79C551.251 252.193 570.16 209.022 570.16 209.022C570.16 209.022 610.263 217.165 635.697 256.766C661.075 296.395 643.952 332.873 643.952 332.873Z" fill="black"/>
<path d="M639.573 383.881C659.569 426.466 637.844 460.434 637.844 460.434C637.844 460.434 595.426 451.342 575.932 409.872C556.522 368.347 580.869 328.021 580.869 328.021C580.869 328.021 619.577 341.323 639.573 383.881Z" fill="black"/>
<path d="M541.937 418.211C541.937 418.211 579.195 435.083 595.12 479.398C611.016 523.684 586.195 555.421 586.195 555.421C586.195 555.421 544.893 542.369 529.387 499.226C513.881 456.083 541.937 418.211 541.937 418.211Z" fill="black"/>
<path d="M510.814 651.105C510.814 651.105 474.977 626.731 472.551 580.938C470.153 535.146 507.969 506.951 507.969 506.951C507.969 506.951 538.758 533.863 541.267 580.855C543.75 627.846 510.814 651.105 510.814 651.105Z" fill="black"/>
<path d="M657.394 225.03C657.394 225.03 619.215 212.257 608.004 166.604C596.765 120.951 618.518 86.2302 618.518 86.2302C618.518 86.2302 662.804 102.294 673.736 146.859C684.668 191.341 657.394 225.03 657.394 225.03Z" fill="black"/>
<path d="M712.557 407.335C712.557 407.335 698.362 369.602 726.64 332.092C755.002 294.555 795.635 289.507 795.635 289.507C795.635 289.507 811.169 334.017 783.532 370.606C755.895 407.223 712.557 407.335 712.557 407.335Z" fill="black"/>
<path d="M680.876 506.895C680.876 506.895 675.41 466.96 711.357 436.617C747.333 406.331 788.05 410.458 788.05 410.458C788.05 410.458 793.293 457.338 758.237 486.844C723.182 516.349 680.876 506.895 680.876 506.895Z" fill="black"/>
<path d="M632.601 589.221C632.601 589.221 639.462 549.481 682.911 531.493C726.417 513.477 763.927 529.736 763.927 529.736C763.927 529.736 754.723 575.974 712.389 593.516C670.027 611.086 632.601 589.221 632.601 589.221Z" fill="black"/>
<path d="M611.518 623.412C656.808 610.779 692.198 631.36 692.198 631.36C692.198 631.36 677.585 676.121 633.438 688.559C589.291 700.858 554.765 674.671 554.765 674.671C554.765 674.671 566.255 636.073 611.518 623.412Z" fill="black"/>
<path d="M652.709 252.248L672.9 242.348C673.959 244.551 777.536 464.561 486.467 713.324L471.937 696.284C748.979 459.43 656.78 260.559 652.709 252.248Z" fill="black"/>
</svg>
