<svg width="32" height="32" viewBox="0 0 32 32" fill="none" xmlns="http://www.w3.org/2000/svg">
<path d="M28 22.1624V9.83741C27.999 9.65938 27.9512 9.48475 27.8612 9.33113C27.7712 9.17751 27.6423 9.05033 27.4875 8.96241L16.4875 2.77491C16.3393 2.68934 16.1711 2.64429 16 2.64429C15.8289 2.64429 15.6607 2.68934 15.5125 2.77491L4.5125 8.96241C4.35769 9.05033 4.22879 9.17751 4.13882 9.33113C4.04884 9.48475 4.00096 9.65938 4 9.83741V22.1624C4.00096 22.3404 4.04884 22.5151 4.13882 22.6687C4.22879 22.8223 4.35769 22.9495 4.5125 23.0374L15.5125 29.2249C15.6607 29.3105 15.8289 29.3555 16 29.3555C16.1711 29.3555 16.3393 29.3105 16.4875 29.2249L27.4875 23.0374C27.6423 22.9495 27.7712 22.8223 27.8612 22.6687C27.9512 22.5151 27.999 22.3404 28 22.1624V22.1624Z" stroke="black" stroke-linecap="round" stroke-linejoin="round"/>
<path d="M22.125 19.0625V12.5625L10 5.875" stroke="black" stroke-linecap="round" stroke-linejoin="round"/>
<path d="M27.8624 9.32495L16.1125 16L4.13745 9.32495" stroke="black" stroke-linecap="round" stroke-linejoin="round"/>
<path d="M16.1125 16L16 29.35" stroke="black" stroke-linecap="round" stroke-linejoin="round"/>
</svg>
