<svg width="24" height="24" viewBox="0 0 24 24" fill="none" xmlns="http://www.w3.org/2000/svg">
<path d="M18.1694 20.5063C17.1194 20.5063 16.2319 20.1438 15.5069 19.4188C14.7819 18.6938 14.4194 17.8063 14.4194 16.7563C14.4194 15.7063 14.7819 14.8188 15.5069 14.0938C16.2319 13.3688 17.1194 13.0063 18.1694 13.0063C19.2194 13.0063 20.1069 13.3688 20.8319 14.0938C21.5569 14.8188 21.9194 15.7063 21.9194 16.7563C21.9194 17.8063 21.5569 18.6938 20.8319 19.4188C20.1069 20.1438 19.2194 20.5063 18.1694 20.5063ZM18.1694 18.5063C18.6528 18.5063 19.0653 18.3355 19.4069 17.9938C19.7486 17.6522 19.9194 17.2397 19.9194 16.7563C19.9194 16.273 19.7486 15.8605 19.4069 15.5188C19.0653 15.1772 18.6528 15.0063 18.1694 15.0063C17.6861 15.0063 17.2736 15.1772 16.9319 15.5188C16.5903 15.8605 16.4194 16.273 16.4194 16.7563C16.4194 17.2397 16.5903 17.6522 16.9319 17.9938C17.2736 18.3355 17.6861 18.5063 18.1694 18.5063ZM11.4194 17.7563H5.41943C5.1361 17.7563 4.8986 17.6605 4.70693 17.4688C4.51527 17.2772 4.41943 17.0397 4.41943 16.7563C4.41943 16.473 4.51527 16.2355 4.70693 16.0438C4.8986 15.8522 5.1361 15.7563 5.41943 15.7563H11.4194C11.7028 15.7563 11.9403 15.8522 12.1319 16.0438C12.3236 16.2355 12.4194 16.473 12.4194 16.7563C12.4194 17.0397 12.3236 17.2772 12.1319 17.4688C11.9403 17.6605 11.7028 17.7563 11.4194 17.7563ZM6.66943 11.5063C5.61943 11.5063 4.73193 11.1438 4.00693 10.4188C3.28193 9.69385 2.91943 8.80635 2.91943 7.75635C2.91943 6.70635 3.28193 5.81885 4.00693 5.09385C4.73193 4.36885 5.61943 4.00635 6.66943 4.00635C7.71943 4.00635 8.60693 4.36885 9.33193 5.09385C10.0569 5.81885 10.4194 6.70635 10.4194 7.75635C10.4194 8.80635 10.0569 9.69385 9.33193 10.4188C8.60693 11.1438 7.71943 11.5063 6.66943 11.5063ZM6.66943 9.50635C7.15277 9.50635 7.56527 9.33551 7.90693 8.99385C8.2486 8.65218 8.41943 8.23968 8.41943 7.75635C8.41943 7.27301 8.2486 6.86051 7.90693 6.51885C7.56527 6.17718 7.15277 6.00635 6.66943 6.00635C6.1861 6.00635 5.7736 6.17718 5.43193 6.51885C5.09027 6.86051 4.91943 7.27301 4.91943 7.75635C4.91943 8.23968 5.09027 8.65218 5.43193 8.99385C5.7736 9.33551 6.1861 9.50635 6.66943 9.50635ZM19.4194 8.75635H13.4194C13.1361 8.75635 12.8986 8.66051 12.7069 8.46885C12.5153 8.27718 12.4194 8.03968 12.4194 7.75635C12.4194 7.47301 12.5153 7.23551 12.7069 7.04385C12.8986 6.85218 13.1361 6.75635 13.4194 6.75635H19.4194C19.7028 6.75635 19.9403 6.85218 20.1319 7.04385C20.3236 7.23551 20.4194 7.47301 20.4194 7.75635C20.4194 8.03968 20.3236 8.27718 20.1319 8.46885C19.9403 8.66051 19.7028 8.75635 19.4194 8.75635Z" fill="black"/>
</svg>
