<svg width="32" height="32" viewBox="0 0 32 32" fill="none" xmlns="http://www.w3.org/2000/svg">
<path d="M9 13L19 23" stroke="black" stroke-linecap="round" stroke-linejoin="round"/>
<path d="M12.725 22.925L8.82495 26.8251" stroke="black" stroke-linecap="round" stroke-linejoin="round"/>
<path d="M9.22495 19.425L5.32495 23.3251" stroke="black" stroke-linecap="round" stroke-linejoin="round"/>
<path d="M17.0125 11.525L23.875 3.87495C24.4386 3.31137 25.203 2.99475 26 2.99475C26.797 2.99475 27.5614 3.31137 28.125 3.87495C28.6886 4.43854 29.0052 5.20293 29.0052 5.99995C29.0052 6.79698 28.6886 7.56137 28.125 8.12495L20.475 14.9875C20.3742 15.0783 20.293 15.1887 20.2362 15.312C20.1794 15.4352 20.1484 15.5687 20.1448 15.7044C20.1413 15.8401 20.1655 15.975 20.2158 16.101C20.2661 16.227 20.3415 16.3415 20.4375 16.4375L21.5875 17.5875C21.9585 17.964 22.1665 18.4714 22.1665 19C22.1665 19.5286 21.9585 20.0359 21.5875 20.4125L12 30L2 20L11.5875 10.4125C11.964 10.0415 12.4714 9.83348 13 9.83348C13.5286 9.83348 14.036 10.0415 14.4125 10.4125L15.5625 11.5625C15.6584 11.6584 15.7729 11.7339 15.8989 11.7842C16.025 11.8345 16.1599 11.8586 16.2956 11.8551C16.4312 11.8516 16.5647 11.8205 16.688 11.7638C16.8112 11.707 16.9217 11.6257 17.0125 11.525V11.525Z" stroke="black" stroke-linecap="round" stroke-linejoin="round"/>
</svg>
