<svg width="32" height="32" viewBox="0 0 32 32" fill="none" xmlns="http://www.w3.org/2000/svg">
<path d="M27.875 15.4375L15.85 27.4625C15.4734 27.8335 14.9661 28.0415 14.4375 28.0415C13.9089 28.0415 13.4015 27.8335 13.025 27.4625L2.41247 16.85C2.04147 16.4735 1.8335 15.9661 1.8335 15.4375C1.8335 14.9089 2.04147 14.4015 2.41247 14.025L14.4375 2L27.875 15.4375Z" stroke="black" stroke-linecap="round" stroke-linejoin="round"/>
<path d="M15.5 17C16.8807 17 18 15.8807 18 14.5C18 13.1193 16.8807 12 15.5 12C14.1193 12 13 13.1193 13 14.5C13 15.8807 14.1193 17 15.5 17Z" stroke="black" stroke-linecap="round" stroke-linejoin="round"/>
<path d="M26 25.5C26 23 28.5 20.5 28.5 20.5C28.5 20.5 31 23 31 25.5C31 26.163 30.7366 26.7989 30.2678 27.2678C29.7989 27.7366 29.163 28 28.5 28C27.837 28 27.2011 27.7366 26.7322 27.2678C26.2634 26.7989 26 26.163 26 25.5V25.5Z" stroke="black" stroke-linecap="round" stroke-linejoin="round"/>
<path d="M13.7375 12.7375L4.73755 3.73755" stroke="black" stroke-linecap="round" stroke-linejoin="round"/>
</svg>
