<svg width="32" height="32" viewBox="0 0 32 32" fill="none" xmlns="http://www.w3.org/2000/svg">
<path d="M27.7 18.6751C27.9073 17.7648 28.008 16.8336 28 15.9001C27.95 9.28755 22.475 3.93755 15.875 4.00005C13.0554 4.02979 10.3363 5.05147 8.19484 6.88586C6.05337 8.72025 4.62626 11.2502 4.16391 14.0317C3.70155 16.8133 4.23349 19.6689 5.66639 22.0974C7.09928 24.5259 9.34161 26.3723 12 27.3126C12.4522 27.4755 12.937 27.5268 13.4133 27.4624C13.8896 27.3979 14.3433 27.2194 14.7359 26.9421C15.1285 26.6649 15.4485 26.2969 15.6685 25.8696C15.8886 25.4423 16.0023 24.9682 16 24.4876V24.0001C15.9983 23.6056 16.0748 23.2148 16.225 22.85C16.3751 22.4853 16.596 22.154 16.875 21.875C17.1539 21.5961 17.4852 21.3752 17.85 21.225C18.2147 21.0749 18.6055 20.9984 19 21.0001H24.775C25.4536 21.0005 26.1124 20.7708 26.6436 20.3485C27.1749 19.9262 27.5473 19.3363 27.7 18.6751V18.6751Z" stroke="black" stroke-linecap="round" stroke-linejoin="round"/>
<path d="M16 10.5C16.5523 10.5 17 10.0523 17 9.5C17 8.94772 16.5523 8.5 16 8.5C15.4477 8.5 15 8.94772 15 9.5C15 10.0523 15.4477 10.5 16 10.5Z" fill="black"/>
<path d="M10.375 13.75C10.9273 13.75 11.375 13.3023 11.375 12.75C11.375 12.1977 10.9273 11.75 10.375 11.75C9.82272 11.75 9.375 12.1977 9.375 12.75C9.375 13.3023 9.82272 13.75 10.375 13.75Z" fill="black"/>
<path d="M10.375 20.25C10.9273 20.25 11.375 19.8023 11.375 19.25C11.375 18.6977 10.9273 18.25 10.375 18.25C9.82272 18.25 9.375 18.6977 9.375 19.25C9.375 19.8023 9.82272 20.25 10.375 20.25Z" fill="black"/>
<path d="M21.625 13.75C22.1773 13.75 22.625 13.3023 22.625 12.75C22.625 12.1977 22.1773 11.75 21.625 11.75C21.0727 11.75 20.625 12.1977 20.625 12.75C20.625 13.3023 21.0727 13.75 21.625 13.75Z" fill="black"/>
</svg>
