<svg width="32" height="32" viewBox="0 0 32 32" fill="none" xmlns="http://www.w3.org/2000/svg">
<path d="M15.1125 4.56251L3.28753 25.675C3.18929 25.8528 3.14754 26.0564 3.16785 26.2585C3.18816 26.4607 3.26957 26.6519 3.40123 26.8066C3.5329 26.9613 3.70857 27.0723 3.90486 27.1247C4.10116 27.1771 4.30876 27.1685 4.50003 27.1L15.65 23.125C15.8665 23.0374 16.1086 23.0374 16.325 23.125L27.475 27.1C27.6663 27.1685 27.8739 27.1771 28.0702 27.1247C28.2665 27.0723 28.4422 26.9613 28.5738 26.8066C28.7055 26.6519 28.7869 26.4607 28.8072 26.2585C28.8275 26.0564 28.7858 25.8528 28.6875 25.675L16.8625 4.56251C16.7761 4.40621 16.6493 4.27592 16.4954 4.1852C16.3415 4.09448 16.1662 4.04663 15.9875 4.04663C15.8089 4.04663 15.6335 4.09448 15.4797 4.1852C15.3258 4.27592 15.199 4.40621 15.1125 4.56251Z" stroke="black" stroke-linecap="round" stroke-linejoin="round"/>
<path d="M15.9875 23V15" stroke="black" stroke-linecap="round" stroke-linejoin="round"/>
</svg>
