<svg width="32" height="32" viewBox="0 0 32 32" fill="none" xmlns="http://www.w3.org/2000/svg">
<path d="M26.2875 4.48752L2.9875 11.05C2.78915 11.1042 2.61235 11.2183 2.48117 11.3766C2.34999 11.535 2.2708 11.7299 2.25441 11.9349C2.23801 12.1398 2.28519 12.3449 2.38953 12.5221C2.49388 12.6992 2.6503 12.84 2.8375 12.925L13.5375 17.9875C13.7471 18.0846 13.9154 18.2529 14.0125 18.4625L19.075 29.1625C19.1601 29.3497 19.3008 29.5061 19.478 29.6105C19.6551 29.7148 19.8602 29.762 20.0651 29.7456C20.2701 29.7292 20.465 29.65 20.6234 29.5188C20.7817 29.3877 20.8958 29.2109 20.95 29.0125L27.5125 5.71252C27.5622 5.54249 27.5653 5.36222 27.5214 5.19059C27.4775 5.01897 27.3882 4.86231 27.263 4.73705C27.1377 4.61178 26.9811 4.52252 26.8094 4.47862C26.6378 4.43472 26.4575 4.43779 26.2875 4.48752V4.48752Z" stroke="black" stroke-linecap="round" stroke-linejoin="round"/>
<path d="M13.8625 18.1375L19.5125 12.4875" stroke="black" stroke-linecap="round" stroke-linejoin="round"/>
</svg>
