<svg width="32" height="32" viewBox="0 0 32 32" fill="none" xmlns="http://www.w3.org/2000/svg">
<path d="M27.4376 15.125L6.32512 3.29998C6.14728 3.20174 5.94373 3.15999 5.74158 3.1803C5.53943 3.20062 5.34825 3.28202 5.19352 3.41368C5.03878 3.54535 4.92782 3.72102 4.8754 3.91731C4.82299 4.11361 4.83161 4.32121 4.90012 4.51248L8.87512 15.6625C8.96269 15.879 8.96269 16.121 8.87512 16.3375L4.90012 27.4875C4.83161 27.6788 4.82299 27.8864 4.8754 28.0827C4.92782 28.2789 5.03878 28.4546 5.19352 28.5863C5.34825 28.7179 5.53943 28.7994 5.74158 28.8197C5.94373 28.84 6.14728 28.7982 6.32512 28.7L27.4376 16.875C27.5939 16.7885 27.7242 16.6617 27.8149 16.5079C27.9056 16.354 27.9535 16.1786 27.9535 16C27.9535 15.8214 27.9056 15.646 27.8149 15.4921C27.7242 15.3382 27.5939 15.2115 27.4376 15.125V15.125Z" stroke="black" stroke-linecap="round" stroke-linejoin="round"/>
<path d="M9 16H17" stroke="black" stroke-linecap="round" stroke-linejoin="round"/>
</svg>
