<svg width="32" height="32" viewBox="0 0 32 32" fill="none" xmlns="http://www.w3.org/2000/svg">
<path d="M26.5 16C27.8807 16 29 14.8807 29 13.5C29 12.1193 27.8807 11 26.5 11C25.1193 11 24 12.1193 24 13.5C24 14.8807 25.1193 16 26.5 16Z" stroke="black" stroke-linecap="round" stroke-linejoin="round"/>
<path d="M5.5 16C6.88071 16 8 14.8807 8 13.5C8 12.1193 6.88071 11 5.5 11C4.11929 11 3 12.1193 3 13.5C3 14.8807 4.11929 16 5.5 16Z" stroke="black" stroke-linecap="round" stroke-linejoin="round"/>
<path d="M11.5 10C12.8807 10 14 8.88071 14 7.5C14 6.11929 12.8807 5 11.5 5C10.1193 5 9 6.11929 9 7.5C9 8.88071 10.1193 10 11.5 10Z" stroke="black" stroke-linecap="round" stroke-linejoin="round"/>
<path d="M20.5 10C21.8807 10 23 8.88071 23 7.5C23 6.11929 21.8807 5 20.5 5C19.1193 5 18 6.11929 18 7.5C18 8.88071 19.1193 10 20.5 10Z" stroke="black" stroke-linecap="round" stroke-linejoin="round"/>
<path d="M22.9 19.4875C21.647 18.7857 20.7216 17.6178 20.325 16.2375V16.2375C20.0553 15.2987 19.4874 14.4732 18.7072 13.8856C17.927 13.298 16.9767 12.9802 16 12.9802C15.0233 12.9802 14.073 13.298 13.2928 13.8856C12.5126 14.4732 11.9447 15.2987 11.675 16.2375C11.2784 17.6178 10.353 18.7857 9.09999 19.4875C8.32035 19.9123 7.70419 20.5843 7.34857 21.3978C6.99295 22.2113 6.91808 23.12 7.13578 23.9808C7.35347 24.8415 7.85134 25.6054 8.55095 26.152C9.25056 26.6986 10.1122 26.997 11 27C11.5364 27.0003 12.0675 26.8941 12.5625 26.6875C13.6522 26.2357 14.8203 26.0031 16 26.0031C17.1797 26.0031 18.3478 26.2357 19.4375 26.6875C19.9325 26.8941 20.4636 27.0003 21 27C21.8878 26.997 22.7494 26.6986 23.449 26.152C24.1486 25.6054 24.6465 24.8415 24.8642 23.9808C25.0819 23.12 25.007 22.2113 24.6514 21.3978C24.2958 20.5843 23.6796 19.9123 22.9 19.4875Z" stroke="black" stroke-linecap="round" stroke-linejoin="round"/>
</svg>
