<svg width="32" height="32" viewBox="0 0 32 32" fill="none" xmlns="http://www.w3.org/2000/svg">
<path d="M25.825 26.7875L5.825 23.15C5.59326 23.1088 5.38348 22.9872 5.23258 22.8065C5.08167 22.6259 4.99931 22.3978 5 22.1625V9.83745C4.99931 9.60208 5.08167 9.37401 5.23258 9.19338C5.38348 9.01275 5.59326 8.89114 5.825 8.84995L25.825 5.21245C25.9691 5.18684 26.1171 5.19317 26.2585 5.23102C26.3999 5.26886 26.5313 5.33729 26.6434 5.43148C26.7555 5.52566 26.8455 5.6433 26.9071 5.77608C26.9687 5.90887 27.0004 6.05357 27 6.19995V25.8C27.0004 25.9463 26.9687 26.091 26.9071 26.2238C26.8455 26.3566 26.7555 26.4742 26.6434 26.5684C26.5313 26.6626 26.3999 26.731 26.2585 26.7689C26.1171 26.8067 25.9691 26.8131 25.825 26.7875Z" stroke="black" stroke-linecap="round" stroke-linejoin="round"/>
<path d="M2 16H30" stroke="black" stroke-linecap="round" stroke-linejoin="round"/>
</svg>
