<svg width="32" height="32" viewBox="0 0 32 32" fill="none" xmlns="http://www.w3.org/2000/svg">
<path d="M6 5L26 27" stroke="black" stroke-linecap="round" stroke-linejoin="round"/>
<path d="M14.375 14.2125C13.7497 14.3105 13.1347 14.4653 12.5375 14.675C12.3748 14.7315 12.2295 14.8291 12.1156 14.9584C12.0017 15.0876 11.9232 15.244 11.8875 15.4125L11.1625 19.1C11.1282 19.2635 11.0545 19.4162 10.9478 19.5448C10.841 19.6733 10.7045 19.7738 10.55 19.8375L4.63749 22.2C4.43637 22.2833 4.21336 22.2979 4.00312 22.2413C3.79288 22.1848 3.60722 22.0604 3.47499 21.8875C2.58182 20.7334 2.13989 19.2933 2.23192 17.8369C2.32396 16.3804 2.94365 15.0075 3.97499 13.975C5.80568 12.1485 8.02867 10.7634 10.475 9.92499" stroke="black" stroke-linecap="round" stroke-linejoin="round"/>
<path d="M15.0625 9.025C17.4497 8.89294 19.8378 9.26551 22.0713 10.1184C24.3048 10.9713 26.3335 12.2854 28.025 13.975C29.0563 15.0075 29.676 16.3805 29.7681 17.8369C29.8601 19.2933 29.4182 20.7334 28.525 21.8875C28.3928 22.0604 28.2071 22.1848 27.9969 22.2414C27.7866 22.2979 27.5636 22.2833 27.3625 22.2L26.8625 22" stroke="black" stroke-linecap="round" stroke-linejoin="round"/>
</svg>
