<svg width="32" height="32" viewBox="0 0 32 32" fill="none" xmlns="http://www.w3.org/2000/svg">
<path d="M11.8374 3.38749C13.4485 2.83234 15.2132 2.9321 16.7515 3.66529C18.2898 4.39848 19.4787 5.70644 20.0621 7.30756C20.6455 8.90867 20.5768 10.6749 19.8708 12.2258C19.1648 13.7768 17.878 14.9885 16.2874 15.6L11.8374 3.38749Z" stroke="black" stroke-linecap="round" stroke-linejoin="round"/>
<path d="M3.3873 18.1625C2.83216 16.5514 2.93192 14.7867 3.66511 13.2484C4.39829 11.7101 5.70626 10.5212 7.30737 9.93779C8.90849 9.35437 10.6747 9.42306 12.2256 10.1291C13.7766 10.8351 14.9883 12.1219 15.5998 13.7125L3.3873 18.1625Z" stroke="black" stroke-linecap="round" stroke-linejoin="round"/>
<path d="M18.1624 26.6125C16.5513 27.1677 14.7866 27.0679 13.2483 26.3347C11.71 25.6015 10.5211 24.2936 9.93773 22.6925C9.35431 21.0913 9.423 19.3252 10.129 17.7742C10.835 16.2232 12.1218 15.0115 13.7124 14.4L18.1624 26.6125Z" stroke="black" stroke-linecap="round" stroke-linejoin="round"/>
<path d="M26.6124 11.8375C27.1675 13.4487 27.0678 15.2134 26.3346 16.7517C25.6014 18.29 24.2934 19.4788 22.6923 20.0622C21.0912 20.6457 19.325 20.577 17.7741 19.871C16.2231 19.165 15.0114 17.8781 14.3999 16.2875L26.6124 11.8375Z" stroke="black" stroke-linecap="round" stroke-linejoin="round"/>
<path d="M20.5625 20.5625L28 28" stroke="black" stroke-linecap="round" stroke-linejoin="round"/>
</svg>
