<svg width="32" height="32" viewBox="0 0 32 32" fill="none" xmlns="http://www.w3.org/2000/svg">
<path d="M2.925 9.46249C2.78591 9.24599 2.73682 8.98376 2.78819 8.73161C2.83955 8.47946 2.98731 8.25732 3.2 8.11249C6.93223 5.438 11.4084 3.99976 16 3.99976C20.5916 3.99976 25.0678 5.438 28.8 8.11249C29.0127 8.25732 29.1605 8.47946 29.2118 8.73161C29.2632 8.98376 29.2141 9.24599 29.075 9.46249L16.8375 28.675C16.7487 28.8171 16.6253 28.9342 16.4788 29.0154C16.3323 29.0967 16.1675 29.1393 16 29.1393C15.8325 29.1393 15.6677 29.0967 15.5212 29.0154C15.3747 28.9342 15.2513 28.8171 15.1625 28.675L2.925 9.46249Z" stroke="black" stroke-linecap="round" stroke-linejoin="round"/>
<path d="M4.5874 12.075C7.80653 9.43878 11.8391 7.99829 15.9999 7.99829C20.1607 7.99829 24.1933 9.43878 27.4124 12.075" stroke="black" stroke-linecap="round" stroke-linejoin="round"/>
<path d="M20.5375 22.8625C20.0134 22.7133 19.5315 22.4437 19.13 22.0754C18.7285 21.7071 18.4186 21.2501 18.2248 20.7408C18.0311 20.2316 17.9589 19.6841 18.0141 19.1421C18.0692 18.6 18.2502 18.0783 18.5425 17.6185C18.8348 17.1587 19.2304 16.7735 19.6979 16.4936C20.1653 16.2137 20.6917 16.0467 21.235 16.0061C21.7783 15.9654 22.3237 16.0522 22.8276 16.2595C23.3314 16.4668 23.78 16.7888 24.1375 17.2" stroke="black" stroke-linecap="round" stroke-linejoin="round"/>
<path d="M7.23755 16.225C7.46946 15.6321 7.85869 15.1137 8.36334 14.7256C8.86798 14.3375 9.46893 14.0944 10.1015 14.0224C10.734 13.9505 11.3742 14.0524 11.9531 14.3173C12.5321 14.5821 13.0278 14.9999 13.3869 15.5255C13.7461 16.0512 13.9551 16.6648 13.9914 17.3004C14.0277 17.936 13.8899 18.5695 13.593 19.1326C13.296 19.6957 12.8511 20.1672 12.3061 20.4962C11.7611 20.8253 11.1367 20.9995 10.5 21H10.275" stroke="black" stroke-linecap="round" stroke-linejoin="round"/>
</svg>
