<svg width="32" height="32" viewBox="0 0 32 32" fill="none" xmlns="http://www.w3.org/2000/svg">
<path d="M10 22L3 29" stroke="black" stroke-linecap="round" stroke-linejoin="round"/>
<path d="M29 3L22 10" stroke="black" stroke-linecap="round" stroke-linejoin="round"/>
<path d="M16.3823 8.61953L8.62181 16.38C7.45024 17.5516 7.45024 19.4511 8.62181 20.6227L11.3795 23.3804C12.5511 24.552 14.4506 24.552 15.6222 23.3804L23.3827 15.6199C24.5542 14.4483 24.5542 12.5488 23.3827 11.3772L20.6249 8.61953C19.4534 7.44795 17.5539 7.44795 16.3823 8.61953Z" stroke="black" stroke-linecap="round" stroke-linejoin="round"/>
<path d="M11.5 11.5L20.5 20.5" stroke="black" stroke-linecap="round" stroke-linejoin="round"/>
<path d="M28 20L25 19" stroke="black" stroke-linecap="round" stroke-linejoin="round"/>
<path d="M7 13L4 12" stroke="black" stroke-linecap="round" stroke-linejoin="round"/>
<path d="M12 4L13 7" stroke="black" stroke-linecap="round" stroke-linejoin="round"/>
<path d="M19 25L20 28" stroke="black" stroke-linecap="round" stroke-linejoin="round"/>
</svg>
