<svg width="800" height="800" viewBox="0 0 800 800" fill="none" xmlns="http://www.w3.org/2000/svg">
<path d="M733.333 233.334V231.139C733.337 201.59 733.337 176.129 730.597 155.74C727.657 133.89 721.033 112.945 704.043 95.9559C687.057 78.9673 666.11 72.3426 644.26 69.4049C623.87 66.6636 598.41 66.6649 568.86 66.6666H566.667H231.139C201.59 66.6649 176.129 66.6636 155.741 69.4049C133.89 72.3426 112.945 78.9673 95.9564 95.9559C78.9674 112.945 72.3427 133.89 69.405 155.74C66.6637 176.129 66.665 201.59 66.6667 231.14V435.527C66.665 465.077 66.6637 490.537 69.405 510.927C72.3427 532.777 78.9674 553.723 95.9564 570.71C112.945 587.7 133.89 594.323 155.74 597.263C176.129 600.003 201.589 600.003 231.138 600H333.333L273.334 680C262.288 694.727 265.273 715.62 280 726.667C294.728 737.713 315.621 734.727 326.667 720L400 622.223L473.333 720C484.38 734.727 505.273 737.713 520 726.667C534.727 715.62 537.713 694.727 526.667 680L466.667 600H568.86C598.41 600.003 623.87 600.003 644.26 597.263C666.11 594.323 687.057 587.7 704.043 570.71C721.033 553.723 727.657 532.777 730.597 510.927C733.337 490.537 733.337 465.077 733.333 435.527V233.334ZM400 200C418.41 200 433.333 214.924 433.333 233.333V433.333C433.333 451.743 418.41 466.667 400 466.667C381.59 466.667 366.667 451.743 366.667 433.333V233.333C366.667 214.924 381.59 200 400 200ZM533.333 233.333C551.743 233.333 566.667 248.257 566.667 266.667V433.333C566.667 451.743 551.743 466.667 533.333 466.667C514.923 466.667 500 451.743 500 433.333V266.667C500 248.257 514.923 233.333 533.333 233.333ZM300 300V433.333C300 451.743 285.076 466.667 266.667 466.667C248.257 466.667 233.333 451.743 233.333 433.333V300C233.333 281.591 248.257 266.667 266.667 266.667C285.076 266.667 300 281.591 300 300Z" fill="#323232"/>
</svg>
