<svg width="800" height="800" viewBox="0 0 800 800" fill="none" xmlns="http://www.w3.org/2000/svg">
<path d="M66.6665 41.6667C52.8594 41.6667 41.6665 52.8596 41.6665 66.6667C41.6665 80.4739 52.8594 91.6667 66.6665 91.6667V41.6667ZM733.333 91.6667C747.14 91.6667 758.333 80.4739 758.333 66.6667C758.333 52.8596 747.14 41.6667 733.333 41.6667V91.6667ZM282.322 332.322C272.559 342.085 272.559 357.915 282.322 367.678C292.085 377.441 307.914 377.441 317.677 367.678L282.322 332.322ZM343.096 306.904L360.774 324.582L360.775 324.58L343.096 306.904ZM390.236 306.904L372.558 324.58L372.559 324.582L390.236 306.904ZM409.763 326.43L427.441 308.752L427.44 308.752L409.763 326.43ZM456.903 326.43L439.226 308.752L439.225 308.752L456.903 326.43ZM517.677 301.011C527.441 291.248 527.441 275.419 517.678 265.656C507.914 255.893 492.085 255.893 482.322 265.656L517.677 301.011ZM425 566.667C425 552.86 413.807 541.667 400 541.667C386.193 541.667 375 552.86 375 566.667H425ZM322.153 710.973C309.803 717.147 304.798 732.164 310.972 744.514C317.147 756.863 332.164 761.869 344.513 755.694L322.153 710.973ZM455.486 755.694C467.836 761.869 482.852 756.863 489.027 744.514C495.202 732.164 490.196 717.147 477.847 710.973L455.486 755.694ZM166.807 534.937L184.006 516.793L184.006 516.793L166.807 534.937ZM66.6665 91.6667H733.333V41.6667H66.6665V91.6667ZM317.677 367.678L360.774 324.582L325.419 289.226L282.322 332.322L317.677 367.678ZM360.775 324.58C363.618 321.737 365.807 319.551 367.722 317.73C369.646 315.9 370.849 314.87 371.623 314.28C372.385 313.699 372.196 313.961 371.256 314.353C370.116 314.828 368.498 315.237 366.667 315.237V265.237C355.551 265.237 347.16 270.053 341.295 274.528C336.006 278.563 330.474 284.17 325.418 289.227L360.775 324.58ZM366.667 315.237C364.835 315.237 363.217 314.828 362.077 314.353C361.137 313.961 360.948 313.699 361.71 314.279C362.484 314.87 363.687 315.9 365.611 317.73C367.526 319.551 369.715 321.737 372.558 324.58L407.915 289.227C402.859 284.17 397.327 278.563 392.038 274.528C386.173 270.053 377.782 265.237 366.667 265.237V315.237ZM372.559 324.582L392.086 344.108L427.44 308.752L407.914 289.226L372.559 324.582ZM392.085 344.107C397.141 349.163 402.673 354.77 407.961 358.805C413.825 363.279 422.217 368.097 433.333 368.097V318.097C435.165 318.097 436.784 318.506 437.923 318.981C438.864 319.373 439.052 319.636 438.291 319.054C437.516 318.463 436.313 317.433 434.389 315.603C432.473 313.782 430.284 311.596 427.441 308.752L392.085 344.107ZM433.333 368.097C444.45 368.097 452.842 363.279 458.706 358.805C463.993 354.77 469.526 349.163 474.581 344.107L439.225 308.752C436.382 311.596 434.193 313.782 432.278 315.603C430.353 317.433 429.15 318.463 428.376 319.054C427.614 319.636 427.802 319.373 428.743 318.981C429.882 318.506 431.501 318.097 433.333 318.097V368.097ZM474.581 344.107L517.677 301.011L482.322 265.656L439.226 308.752L474.581 344.107ZM425 700V566.667H375V700H425ZM344.513 755.694L411.18 722.361L388.819 677.639L322.153 710.973L344.513 755.694ZM477.847 710.973L411.18 677.639L388.819 722.361L455.486 755.694L477.847 710.973ZM641.667 66.6667V350H691.667V66.6667H641.667ZM641.667 350C641.667 401.813 641.608 438.022 637.73 465.36C633.975 491.836 627.082 506.283 615.994 516.793L650.392 553.081C672.778 531.86 682.621 504.907 687.235 472.382C691.725 440.718 691.667 400.324 691.667 350H641.667ZM615.994 516.793C604.718 527.482 588.922 534.258 560.337 537.901C531.164 541.619 492.641 541.667 438.096 541.667V591.667C491.299 591.667 533.587 591.715 566.658 587.5C600.316 583.21 628.195 574.122 650.392 553.081L615.994 516.793ZM438.096 541.667H361.903V591.667H438.096V541.667ZM361.903 541.667C307.358 541.667 268.835 541.619 239.662 537.901C211.078 534.258 195.282 527.482 184.006 516.793L149.608 553.081C171.805 574.122 199.683 583.21 233.341 587.5C266.412 591.715 308.7 591.667 361.903 591.667V541.667ZM184.006 516.793C172.918 506.283 166.025 491.836 162.27 465.36C158.392 438.022 158.333 401.813 158.333 350H108.333C108.333 400.324 108.274 440.718 112.765 472.382C117.378 504.907 127.222 531.861 149.608 553.081L184.006 516.793ZM158.333 350V66.6667H108.333V350H158.333Z" fill="#4647DA"/>
</svg>
