<svg width="18" height="18" viewBox="0 0 18 18" fill="none" xmlns="http://www.w3.org/2000/svg">
<path d="M7 8C8.38071 8 9.5 6.88071 9.5 5.5C9.5 4.11929 8.38071 3 7 3C5.61929 3 4.5 4.11929 4.5 5.5C4.5 6.88071 5.61929 8 7 8Z" fill="#1751D0"/>
<path d="M14 6.5C14 7.32843 13.3284 8 12.5 8C11.6716 8 11 7.32843 11 6.5C11 5.67157 11.6716 5 12.5 5C13.3284 5 14 5.67157 14 6.5Z" fill="#1751D0"/>
<path d="M13.125 13.3037C13.0252 13.5933 13.2344 13.9292 13.5365 13.8784C15.2422 13.592 16 12.6221 16 11.4698C16 10.0921 14.3997 8.97519 12.4255 8.97519C12.1354 8.97519 11.8533 8.99932 11.5831 9.04486C11.5078 9.05757 11.4909 9.15683 11.5552 9.19812C12.493 9.80021 13.3191 10.7913 13.3191 12.1147C13.3191 12.5327 13.2532 12.9319 13.125 13.3037Z" fill="#1751D0"/>
<path d="M7.09091 15.2273C10.6391 15.2273 12.1818 13.8325 12.1818 12.1121C12.1818 10.3916 9.90254 8.99683 7.09091 8.99683C4.27928 8.99683 2 10.3916 2 12.1121C2 13.8325 3.5427 15.2273 7.09091 15.2273Z" fill="#1751D0"/>
</svg>
