<svg width="32" height="32" viewBox="0 0 32 32" fill="none" xmlns="http://www.w3.org/2000/svg">
<path d="M8.00017 27C7.73496 27 7.4806 26.8946 7.29307 26.7071C7.10553 26.5196 7.00017 26.2652 7.00017 26V20.6625C6.45156 20.9242 5.84355 21.0363 5.23767 20.9875C4.72467 20.9498 4.22627 20.7995 3.77796 20.5473C3.32965 20.295 2.94245 19.9471 2.64391 19.5282C2.34537 19.1093 2.14284 18.6298 2.05072 18.1237C1.9586 17.6176 1.97917 17.0974 2.11095 16.6002C2.24273 16.103 2.48249 15.6409 2.81317 15.2469C3.14385 14.8529 3.55731 14.5366 4.02413 14.3206C4.49095 14.1045 4.99966 13.994 5.51404 13.997C6.02842 13.9999 6.53584 14.1161 7.00017 14.3375V8.99999C7.00017 8.73477 7.10553 8.48042 7.29307 8.29288C7.4806 8.10535 7.73496 7.99999 8.00017 7.99999H13.8377C13.576 7.45138 13.4639 6.84336 13.5127 6.23749C13.5504 5.72448 13.7007 5.22609 13.9529 4.77778C14.2051 4.32947 14.5531 3.94227 14.972 3.64373C15.3909 3.34519 15.8704 3.14266 16.3765 3.05054C16.8826 2.95842 17.4027 2.97898 17.8999 3.11077C18.3972 3.24255 18.8592 3.48231 19.2532 3.81299C19.6473 4.14367 19.9635 4.55713 20.1796 5.02395C20.3956 5.49077 20.5061 5.99948 20.5032 6.51386C20.5003 7.02824 20.384 7.53566 20.1627 7.99999H26.0002C26.2654 7.99999 26.5197 8.10535 26.7073 8.29288C26.8948 8.48042 27.0002 8.73477 27.0002 8.99999V14.3375C26.4516 14.0758 25.8435 13.9637 25.2377 14.0125C24.7247 14.0502 24.2263 14.2005 23.778 14.4527C23.3297 14.7049 22.9425 15.0529 22.6439 15.4718C22.3454 15.8907 22.1428 16.3702 22.0507 16.8763C21.9586 17.3824 21.9792 17.9025 22.111 18.3998C22.2427 18.897 22.4825 19.359 22.8132 19.7531C23.1438 20.1471 23.5573 20.4634 24.0241 20.6794C24.491 20.8955 24.9997 21.0059 25.514 21.003C26.0284 21.0001 26.5358 20.8838 27.0002 20.6625V26C27.0002 26.2652 26.8948 26.5196 26.7073 26.7071C26.5197 26.8946 26.2654 27 26.0002 27H8.00017Z" stroke="black" stroke-linecap="round" stroke-linejoin="round"/>
</svg>
