<svg width="32" height="32" viewBox="0 0 32 32" fill="none" xmlns="http://www.w3.org/2000/svg">
<path d="M19 29L16 26L19 23" stroke="black" stroke-linecap="round" stroke-linejoin="round"/>
<path d="M24.325 9.40002L23.225 13.5L19.1375 12.4" stroke="black" stroke-linecap="round" stroke-linejoin="round"/>
<path d="M9.87505 17.6L8.77505 13.5L4.67505 14.6" stroke="black" stroke-linecap="round" stroke-linejoin="round"/>
<path d="M16 26H27C27.3505 25.9987 27.6945 25.9054 27.9975 25.7294C28.3006 25.5533 28.5521 25.3007 28.7268 24.9969C28.9015 24.6931 28.9933 24.3487 28.993 23.9982C28.9926 23.6477 28.9002 23.3035 28.725 23L25.7375 17.825" stroke="black" stroke-linecap="round" stroke-linejoin="round"/>
<path d="M8.77504 13.5L3.27504 23C3.0998 23.3035 3.00739 23.6478 3.00708 23.9982C3.00677 24.3487 3.09856 24.6931 3.27327 24.997C3.44797 25.3008 3.69945 25.5534 4.00251 25.7294C4.30556 25.9055 4.64956 25.9988 5.00004 26H11" stroke="black" stroke-linecap="round" stroke-linejoin="round"/>
<path d="M23.2249 13.5L17.7249 3.99995C17.551 3.69603 17.2998 3.44346 16.9969 3.26781C16.694 3.09215 16.3501 2.99963 15.9999 2.99963C15.6497 2.99963 15.3058 3.09215 15.0029 3.26781C14.7 3.44346 14.4488 3.69603 14.2749 3.99995L11.2749 9.17495" stroke="black" stroke-linecap="round" stroke-linejoin="round"/>
</svg>
