<svg width="32" height="32" viewBox="0 0 32 32" fill="none" xmlns="http://www.w3.org/2000/svg">
<path d="M1.81243 15.1624L12.9624 7.98744C13.1141 7.89078 13.289 7.83679 13.4687 7.83118C13.6485 7.82556 13.8264 7.86852 13.9838 7.95553C14.1412 8.04253 14.2722 8.17037 14.363 8.32558C14.4538 8.48078 14.5011 8.65761 14.4999 8.83744V23.1624C14.5011 23.3423 14.4538 23.5191 14.363 23.6743C14.2722 23.8295 14.1412 23.9573 13.9838 24.0444C13.8264 24.1314 13.6485 24.1743 13.4687 24.1687C13.289 24.1631 13.1141 24.1091 12.9624 24.0124L1.81243 16.8374C1.67036 16.7487 1.5532 16.6252 1.47198 16.4787C1.39076 16.3322 1.34814 16.1675 1.34814 15.9999C1.34814 15.8324 1.39076 15.6677 1.47198 15.5211C1.5532 15.3746 1.67036 15.2512 1.81243 15.1624V15.1624Z" stroke="black" stroke-linecap="round" stroke-linejoin="round"/>
<path d="M15.8124 15.1624L26.9624 7.98744C27.1141 7.89078 27.289 7.83679 27.4687 7.83118C27.6485 7.82556 27.8264 7.86852 27.9838 7.95553C28.1412 8.04253 28.2722 8.17037 28.363 8.32558C28.4538 8.48078 28.5011 8.65761 28.4999 8.83744V23.1624C28.5011 23.3423 28.4538 23.5191 28.363 23.6743C28.2722 23.8295 28.1412 23.9573 27.9838 24.0444C27.8264 24.1314 27.6485 24.1743 27.4687 24.1687C27.289 24.1631 27.1141 24.1091 26.9624 24.0124L15.8124 16.8374C15.6704 16.7487 15.5532 16.6252 15.472 16.4787C15.3908 16.3322 15.3481 16.1675 15.3481 15.9999C15.3481 15.8324 15.3908 15.6677 15.472 15.5211C15.5532 15.3746 15.6704 15.2512 15.8124 15.1624V15.1624Z" stroke="black" stroke-linecap="round" stroke-linejoin="round"/>
</svg>
