<svg width="32" height="32" viewBox="0 0 32 32" fill="none" xmlns="http://www.w3.org/2000/svg">
<path d="M25 7H7C5.34315 7 4 8.34315 4 10V24C4 25.6569 5.34315 27 7 27H25C26.6569 27 28 25.6569 28 24V10C28 8.34315 26.6569 7 25 7Z" stroke="black" stroke-linecap="round" stroke-linejoin="round"/>
<path d="M20.5 18H11.5C10.1193 18 9 19.1193 9 20.5C9 21.8807 10.1193 23 11.5 23H20.5C21.8807 23 23 21.8807 23 20.5C23 19.1193 21.8807 18 20.5 18Z" stroke="black" stroke-linecap="round" stroke-linejoin="round"/>
<path d="M18.5 18V23" stroke="black" stroke-linecap="round" stroke-linejoin="round"/>
<path d="M13.5 18V23" stroke="black" stroke-linecap="round" stroke-linejoin="round"/>
<path d="M16 7V2" stroke="black" stroke-linecap="round" stroke-linejoin="round"/>
<path d="M10.5 14.5C11.0523 14.5 11.5 14.0523 11.5 13.5C11.5 12.9477 11.0523 12.5 10.5 12.5C9.94772 12.5 9.5 12.9477 9.5 13.5C9.5 14.0523 9.94772 14.5 10.5 14.5Z" fill="black"/>
<path d="M21.5 14.5C22.0523 14.5 22.5 14.0523 22.5 13.5C22.5 12.9477 22.0523 12.5 21.5 12.5C20.9477 12.5 20.5 12.9477 20.5 13.5C20.5 14.0523 20.9477 14.5 21.5 14.5Z" fill="black"/>
</svg>
