<svg width="32" height="32" viewBox="0 0 32 32" fill="none" xmlns="http://www.w3.org/2000/svg">
<path d="M18 28H14" stroke="black" stroke-linecap="round" stroke-linejoin="round"/>
<path d="M15.3749 2.47496C12.9999 4.37496 5.06243 11.975 11.9999 24H19.9999C26.7999 11.975 18.9749 4.38746 16.6249 2.47496C16.4496 2.32851 16.2284 2.24829 15.9999 2.24829C15.7715 2.24829 15.5503 2.32851 15.3749 2.47496Z" stroke="black" stroke-linecap="round" stroke-linejoin="round"/>
<path d="M9.23769 13.925L5.31269 18.625C5.21381 18.7404 5.14404 18.8778 5.10924 19.0257C5.07444 19.1736 5.07562 19.3277 5.11269 19.475L6.65019 26.4375C6.68729 26.603 6.76587 26.7564 6.87855 26.8832C6.99123 27.0099 7.1343 27.1059 7.2943 27.1622C7.45431 27.2184 7.62599 27.2331 7.79321 27.2047C7.96043 27.1763 8.11768 27.1059 8.25019 27L12.0002 24" stroke="black" stroke-linecap="round" stroke-linejoin="round"/>
<path d="M22.6875 13.825L26.6875 18.625C26.7864 18.7403 26.8561 18.8777 26.8909 19.0256C26.9257 19.1735 26.9246 19.3276 26.8875 19.475L25.35 26.4375C25.3129 26.6029 25.2343 26.7563 25.1216 26.8831C25.009 27.0098 24.8659 27.1058 24.7059 27.1621C24.5459 27.2184 24.3742 27.233 24.207 27.2046C24.0398 27.1763 23.8825 27.1058 23.75 27L20 24" stroke="black" stroke-linecap="round" stroke-linejoin="round"/>
<path d="M16 13C16.5523 13 17 12.5523 17 12C17 11.4477 16.5523 11 16 11C15.4477 11 15 11.4477 15 12C15 12.5523 15.4477 13 16 13Z" fill="black"/>
</svg>
