<svg width="32" height="32" viewBox="0 0 32 32" fill="none" xmlns="http://www.w3.org/2000/svg">
<path d="M6 18C8.12173 18 10.1566 18.8429 11.6569 20.3431C13.1571 21.8434 14 23.8783 14 26" stroke="black" stroke-linecap="round" stroke-linejoin="round"/>
<path d="M6 12C9.71303 12 13.274 13.475 15.8995 16.1005C18.525 18.726 20 22.287 20 26" stroke="black" stroke-linecap="round" stroke-linejoin="round"/>
<path d="M6 5.99997C8.62689 5.99503 11.2287 6.51057 13.6553 7.5168C16.0818 8.52303 18.285 10 20.1375 11.8625C22 13.715 23.4769 15.9182 24.4832 18.3447C25.4894 20.7712 26.0049 23.3731 26 26" stroke="black" stroke-linecap="round" stroke-linejoin="round"/>
<path d="M6.5 26.5C7.05228 26.5 7.5 26.0523 7.5 25.5C7.5 24.9477 7.05228 24.5 6.5 24.5C5.94772 24.5 5.5 24.9477 5.5 25.5C5.5 26.0523 5.94772 26.5 6.5 26.5Z" fill="black"/>
</svg>
