<svg width="32" height="32" viewBox="0 0 32 32" fill="none" xmlns="http://www.w3.org/2000/svg">
<path d="M7 6C12.0381 6.00331 16.8689 8.00615 20.4314 11.5686C23.9938 15.1311 25.9967 19.9619 26 25" stroke="black" stroke-linecap="round" stroke-linejoin="round"/>
<path d="M7 15C8.31322 15 9.61358 15.2587 10.8268 15.7612C12.0401 16.2638 13.1425 17.0003 14.0711 17.9289C14.9997 18.8575 15.7362 19.9599 16.2388 21.1732C16.7413 22.3864 17 23.6868 17 25" stroke="black" stroke-linecap="round" stroke-linejoin="round"/>
<path d="M7 26C7.55228 26 8 25.5523 8 25C8 24.4477 7.55228 24 7 24C6.44772 24 6 24.4477 6 25C6 25.5523 6.44772 26 7 26Z" fill="black"/>
</svg>
