<svg width="32" height="32" viewBox="0 0 32 32" fill="none" xmlns="http://www.w3.org/2000/svg">
<path d="M25 22V8.00003C25.0017 7.6056 24.9252 7.21475 24.775 6.85002C24.6248 6.4853 24.4039 6.15392 24.125 5.87502C23.8461 5.59611 23.5147 5.3752 23.15 5.22502C22.7853 5.07484 22.3944 4.99837 22 5.00003H5" stroke="black" stroke-linecap="round" stroke-linejoin="round"/>
<path d="M13 13H21" stroke="black" stroke-linecap="round" stroke-linejoin="round"/>
<path d="M13 17H21" stroke="black" stroke-linecap="round" stroke-linejoin="round"/>
<path d="M2.7625 9.99998C2.43867 9.63741 2.20781 9.20158 2.08977 8.72999C1.97174 8.25841 1.97007 7.7652 2.08492 7.29283C2.19977 6.82046 2.42769 6.38308 2.74907 6.01833C3.07044 5.65358 3.47564 5.37239 3.92979 5.19897C4.38394 5.02555 4.87342 4.96509 5.35612 5.0228C5.83881 5.08051 6.30025 5.25465 6.70072 5.53024C7.10118 5.80583 7.42868 6.17461 7.65501 6.60484C7.88135 7.03507 7.99974 7.51385 8 7.99998V24C8.00026 24.4861 8.11865 24.9649 8.34499 25.3951C8.57132 25.8254 8.89882 26.1941 9.29928 26.4697C9.69975 26.7453 10.1612 26.9195 10.6439 26.9772C11.1266 27.0349 11.6161 26.9744 12.0702 26.801C12.5244 26.6276 12.9296 26.3464 13.2509 25.9816C13.5723 25.6169 13.8002 25.1795 13.9151 24.7071C14.0299 24.2348 14.0283 23.7416 13.9102 23.27C13.7922 22.7984 13.5613 22.3626 13.2375 22H27.2375C27.6237 22.4317 27.8766 22.966 27.9657 23.5384C28.0548 24.1107 27.9764 24.6967 27.7398 25.2254C27.5031 25.7541 27.1185 26.203 26.6324 26.5179C26.1462 26.8328 25.5792 27.0003 25 27H11" stroke="black" stroke-linecap="round" stroke-linejoin="round"/>
</svg>
