<svg width="24" height="24" viewBox="0 0 24 24" fill="none" xmlns="http://www.w3.org/2000/svg">
<path d="M4.75 20.5C4.26875 20.5 3.85677 20.3286 3.51406 19.9859C3.17135 19.6432 3 19.2313 3 18.75V8.25C3 7.76875 3.17135 7.35677 3.51406 7.01406C3.85677 6.67135 4.26875 6.5 4.75 6.5H6.5V4.75C6.5 4.26875 6.67135 3.85677 7.01406 3.51406C7.35677 3.17135 7.76875 3 8.25 3H18.75C19.2313 3 19.6432 3.17135 19.9859 3.51406C20.3286 3.85677 20.5 4.26875 20.5 4.75V15.25C20.5 15.7313 20.3286 16.1432 19.9859 16.4859C19.6432 16.8286 19.2313 17 18.75 17H17V18.75C17 19.2313 16.8286 19.6432 16.4859 19.9859C16.1432 20.3286 15.7313 20.5 15.25 20.5H4.75ZM8.25 15.25H18.75V4.75H8.25V15.25Z" fill="#1C1B1F"/>
</svg>
