<svg width="24" height="24" viewBox="0 0 24 24" fill="none" xmlns="http://www.w3.org/2000/svg">
<path d="M6.54545 11.0909C5.28788 11.0909 4.21591 10.6477 3.32955 9.76136C2.44318 8.875 2 7.80303 2 6.54545C2 5.27273 2.44318 4.19697 3.32955 3.31818C4.21591 2.43939 5.28788 2 6.54545 2C7.81818 2 8.89394 2.43939 9.77273 3.31818C10.6515 4.19697 11.0909 5.27273 11.0909 6.54545C11.0909 7.80303 10.6515 8.875 9.77273 9.76136C8.89394 10.6477 7.81818 11.0909 6.54545 11.0909ZM6.54545 9.27273C7.31818 9.27273 7.96591 9.00758 8.48864 8.47727C9.01136 7.94697 9.27273 7.30303 9.27273 6.54545C9.27273 5.77273 9.01136 5.125 8.48864 4.60227C7.96591 4.07955 7.31818 3.81818 6.54545 3.81818C5.78788 3.81818 5.14394 4.07955 4.61364 4.60227C4.08333 5.125 3.81818 5.77273 3.81818 6.54545C3.81818 7.30303 4.08333 7.94697 4.61364 8.47727C5.14394 9.00758 5.78788 9.27273 6.54545 9.27273ZM15.6364 22C15.1364 22 14.7083 21.822 14.3523 21.4659C13.9962 21.1098 13.8182 20.6818 13.8182 20.1818V15.6364C13.8182 15.1364 13.9962 14.7083 14.3523 14.3523C14.7083 13.9962 15.1364 13.8182 15.6364 13.8182H20.1818C20.6818 13.8182 21.1098 13.9962 21.4659 14.3523C21.822 14.7083 22 15.1364 22 15.6364V20.1818C22 20.6818 21.822 21.1098 21.4659 21.4659C21.1098 21.822 20.6818 22 20.1818 22H15.6364ZM15.6364 20.1818H20.1818V15.6364H15.6364V20.1818ZM17.2045 8.09091L8.09091 17.1818C8.16667 17.3636 8.23106 17.553 8.28409 17.75C8.33712 17.947 8.36364 18.1515 8.36364 18.3636C8.36364 19.1212 8.10227 19.7652 7.57955 20.2955C7.05682 20.8258 6.40909 21.0909 5.63636 21.0909C4.87879 21.0909 4.23485 20.8258 3.70455 20.2955C3.17424 19.7652 2.90909 19.1212 2.90909 18.3636C2.90909 17.5909 3.17424 16.9432 3.70455 16.4205C4.23485 15.8977 4.87879 15.6364 5.63636 15.6364C5.84848 15.6364 6.05303 15.6629 6.25 15.7159C6.44697 15.7689 6.63636 15.8333 6.81818 15.9091L15.9091 6.79545C15.8333 6.61364 15.7689 6.42803 15.7159 6.23864C15.6629 6.04924 15.6364 5.84848 15.6364 5.63636C15.6364 4.86364 15.9015 4.21591 16.4318 3.69318C16.9621 3.17045 17.6061 2.90909 18.3636 2.90909C19.1364 2.90909 19.7841 3.17045 20.3068 3.69318C20.8295 4.21591 21.0909 4.86364 21.0909 5.63636C21.0909 6.39394 20.8295 7.03788 20.3068 7.56818C19.7841 8.09849 19.1364 8.36364 18.3636 8.36364C18.1515 8.36364 17.9508 8.33712 17.7614 8.28409C17.572 8.23106 17.3864 8.16667 17.2045 8.09091Z" fill="#1C1B1F"/>
</svg>
