<svg width="32" height="32" viewBox="0 0 32 32" fill="none" xmlns="http://www.w3.org/2000/svg">
<path d="M5 14.3375V7C5 6.73478 5.10536 6.48043 5.29289 6.29289C5.48043 6.10536 5.73478 6 6 6H26C26.2652 6 26.5196 6.10536 26.7071 6.29289C26.8946 6.48043 27 6.73478 27 7V14.3375C27 24.8375 18.0875 28.3125 16.3125 28.9C16.1109 28.9747 15.8891 28.9747 15.6875 28.9C13.9125 28.3125 5 24.8375 5 14.3375Z" stroke="black" stroke-linecap="round" stroke-linejoin="round"/>
<path d="M16 12V17" stroke="black" stroke-linecap="round" stroke-linejoin="round"/>
<path d="M16 22.5C16.5523 22.5 17 22.0523 17 21.5C17 20.9477 16.5523 20.5 16 20.5C15.4477 20.5 15 20.9477 15 21.5C15 22.0523 15.4477 22.5 16 22.5Z" fill="black"/>
</svg>
