<svg width="32" height="32" viewBox="0 0 32 32" fill="none" xmlns="http://www.w3.org/2000/svg">
<path d="M10 28.5C10.8284 28.5 11.5 27.8284 11.5 27C11.5 26.1716 10.8284 25.5 10 25.5C9.17157 25.5 8.5 26.1716 8.5 27C8.5 27.8284 9.17157 28.5 10 28.5Z" fill="black"/>
<path d="M23 28.5C23.8284 28.5 24.5 27.8284 24.5 27C24.5 26.1716 23.8284 25.5 23 25.5C22.1716 25.5 21.5 26.1716 21.5 27C21.5 27.8284 22.1716 28.5 23 28.5Z" fill="black"/>
<path d="M5.2875 9H27.7125L24.4125 20.55C24.2948 20.9692 24.0426 21.3381 23.6948 21.6001C23.3471 21.862 22.9229 22.0025 22.4875 22H10.5125C10.0771 22.0025 9.65293 21.862 9.30515 21.6001C8.95738 21.3381 8.70524 20.9692 8.5875 20.55L4.0625 4.725C4.0027 4.51594 3.8764 4.33207 3.70271 4.20125C3.52903 4.07042 3.31744 3.99977 3.1 4H1" stroke="black" stroke-linecap="round" stroke-linejoin="round"/>
</svg>
