<svg width="32" height="32" viewBox="0 0 32 32" fill="none" xmlns="http://www.w3.org/2000/svg">
<path d="M7.5 29.5C8.05228 29.5 8.5 29.0523 8.5 28.5C8.5 27.9477 8.05228 27.5 7.5 27.5C6.94772 27.5 6.5 27.9477 6.5 28.5C6.5 29.0523 6.94772 29.5 7.5 29.5Z" fill="black"/>
<path d="M11 26C11.5523 26 12 25.5523 12 25C12 24.4477 11.5523 24 11 24C10.4477 24 10 24.4477 10 25C10 25.5523 10.4477 26 11 26Z" fill="black"/>
<path d="M3.5 25.5C4.05228 25.5 4.5 25.0523 4.5 24.5C4.5 23.9477 4.05228 23.5 3.5 23.5C2.94772 23.5 2.5 23.9477 2.5 24.5C2.5 25.0523 2.94772 25.5 3.5 25.5Z" fill="black"/>
<path d="M7 22C7.55228 22 8 21.5523 8 21C8 20.4477 7.55228 20 7 20C6.44772 20 6 20.4477 6 21C6 21.5523 6.44772 22 7 22Z" fill="black"/>
<path d="M30.9999 5.00001H27.4124C27.2826 4.99955 27.1539 5.02471 27.0338 5.07404C26.9137 5.12338 26.8045 5.19591 26.7124 5.28751L22.9999 9.00001L6.91244 11.675C6.73032 11.7051 6.56009 11.7851 6.42062 11.906C6.28114 12.0269 6.17786 12.1841 6.12221 12.3601C6.06656 12.5361 6.06071 12.7241 6.10532 12.9032C6.14993 13.0824 6.24325 13.2457 6.37494 13.375L18.6249 25.625C18.7543 25.7567 18.9176 25.85 19.0967 25.8946C19.2758 25.9392 19.4638 25.9334 19.6398 25.8777C19.8158 25.8221 19.973 25.7188 20.0939 25.5793C20.2148 25.4399 20.2948 25.2696 20.3249 25.0875L22.9999 9.00001" stroke="black" stroke-linecap="round" stroke-linejoin="round"/>
</svg>
