<svg width="32" height="32" viewBox="0 0 32 32" fill="none" xmlns="http://www.w3.org/2000/svg">
<path d="M8.39997 15.1501L23.475 5.92506C23.6273 5.83108 23.8021 5.77971 23.981 5.7763C24.16 5.7729 24.3365 5.81758 24.4923 5.90569C24.6481 5.9938 24.7774 6.12211 24.8667 6.27723C24.956 6.43235 25.002 6.60859 25 6.78756V25.2126C25.002 25.3915 24.956 25.5678 24.8667 25.7229C24.7774 25.878 24.6481 26.0063 24.4923 26.0944C24.3365 26.1825 24.16 26.2272 23.981 26.2238C23.8021 26.2204 23.6273 26.169 23.475 26.0751L8.39997 16.8501C8.25526 16.7604 8.13585 16.6352 8.05303 16.4865C7.97022 16.3377 7.92676 16.1703 7.92676 16.0001C7.92676 15.8298 7.97022 15.6624 8.05303 15.5136C8.13585 15.3649 8.25526 15.2397 8.39997 15.1501Z" stroke="black" stroke-linecap="round" stroke-linejoin="round"/>
<path d="M7 5V27" stroke="black" stroke-linecap="round" stroke-linejoin="round"/>
</svg>
