<svg width="32" height="32" viewBox="0 0 32 32" fill="none" xmlns="http://www.w3.org/2000/svg">
<path d="M23.6001 15.1501L8.52507 5.92506C8.37274 5.83108 8.19798 5.77971 8.01903 5.7763C7.84008 5.7729 7.6635 5.81758 7.50771 5.90569C7.35192 5.9938 7.22263 6.12211 7.13334 6.27723C7.04404 6.43235 6.99802 6.60859 7.00007 6.78756V25.2126C6.99802 25.3915 7.04404 25.5678 7.13334 25.7229C7.22263 25.878 7.35192 26.0063 7.50771 26.0944C7.6635 26.1825 7.84008 26.2272 8.01903 26.2238C8.19798 26.2204 8.37274 26.169 8.52507 26.0751L23.6001 16.8501C23.7448 16.7604 23.8642 16.6352 23.947 16.4865C24.0298 16.3377 24.0733 16.1703 24.0733 16.0001C24.0733 15.8298 24.0298 15.6624 23.947 15.5136C23.8642 15.3649 23.7448 15.2397 23.6001 15.1501Z" stroke="black" stroke-linecap="round" stroke-linejoin="round"/>
<path d="M25 5V27" stroke="black" stroke-linecap="round" stroke-linejoin="round"/>
</svg>
