<svg width="32" height="32" viewBox="0 0 32 32" fill="none" xmlns="http://www.w3.org/2000/svg">
<path d="M11.5 19C12.8807 19 14 17.8807 14 16.5C14 15.1193 12.8807 14 11.5 14C10.1193 14 9 15.1193 9 16.5C9 17.8807 10.1193 19 11.5 19Z" stroke="black" stroke-linecap="round" stroke-linejoin="round"/>
<path d="M20.5 19C21.8807 19 23 17.8807 23 16.5C23 15.1193 21.8807 14 20.5 14C19.1193 14 18 15.1193 18 16.5C18 17.8807 19.1193 19 20.5 19Z" stroke="black" stroke-linecap="round" stroke-linejoin="round"/>
<path d="M10 24.3125C7.86156 23.0047 6.20899 21.034 5.29383 18.7003C4.37867 16.3667 4.25105 13.798 4.93038 11.3851C5.60971 8.97229 7.0588 6.84748 9.05707 5.33413C11.0553 3.82078 13.4933 3.00177 16 3.00177C18.5067 3.00177 20.9447 3.82078 22.9429 5.33413C24.9412 6.84748 26.3903 8.97229 27.0696 11.3851C27.749 13.798 27.6213 16.3667 26.7062 18.7003C25.791 21.034 24.1384 23.0047 22 24.3125V27C22 27.2652 21.8946 27.5196 21.7071 27.7071C21.5196 27.8946 21.2652 28 21 28H11C10.7348 28 10.4804 27.8946 10.2929 27.7071C10.1054 27.5196 10 27.2652 10 27V24.3125Z" stroke="black" stroke-linecap="round" stroke-linejoin="round"/>
<path d="M14 28V24" stroke="black" stroke-linecap="round" stroke-linejoin="round"/>
<path d="M18 28V24" stroke="black" stroke-linecap="round" stroke-linejoin="round"/>
</svg>
