<svg width="32" height="32" viewBox="0 0 32 32" fill="none" xmlns="http://www.w3.org/2000/svg">
<path d="M16 28C22.6274 28 28 22.6274 28 16C28 9.37258 22.6274 4 16 4C9.37258 4 4 9.37258 4 16C4 22.6274 9.37258 28 16 28Z" stroke="black" stroke-linecap="round" stroke-linejoin="round"/>
<path d="M11.5 14.5C12.0523 14.5 12.5 14.0523 12.5 13.5C12.5 12.9477 12.0523 12.5 11.5 12.5C10.9477 12.5 10.5 12.9477 10.5 13.5C10.5 14.0523 10.9477 14.5 11.5 14.5Z" fill="black"/>
<path d="M20.5 14.5C21.0523 14.5 21.5 14.0523 21.5 13.5C21.5 12.9477 21.0523 12.5 20.5 12.5C19.9477 12.5 19.5 12.9477 19.5 13.5C19.5 14.0523 19.9477 14.5 20.5 14.5Z" fill="black"/>
<path d="M21.1998 22.0001C20.6712 21.0893 19.9126 20.3334 19 19.8079C18.0874 19.2824 17.0529 19.0059 15.9998 19.0059C14.9468 19.0059 13.9122 19.2824 12.9996 19.8079C12.087 20.3334 11.3284 21.0893 10.7998 22.0001" stroke="black" stroke-linecap="round" stroke-linejoin="round"/>
</svg>
