<svg width="32" height="32" viewBox="0 0 32 32" fill="none" xmlns="http://www.w3.org/2000/svg">
<path d="M16 28C22.6274 28 28 22.6274 28 16C28 9.37258 22.6274 4 16 4C9.37258 4 4 9.37258 4 16C4 22.6274 9.37258 28 16 28Z" stroke="black" stroke-linecap="round" stroke-linejoin="round"/>
<path d="M16.0002 10.75L11.0127 14.375L12.9127 20.25H19.0877L20.9877 14.375L16.0002 10.75Z" stroke="black" stroke-linecap="round" stroke-linejoin="round"/>
<path d="M16 8V10.75" stroke="black" stroke-linecap="round" stroke-linejoin="round"/>
<path d="M20.375 4.82501L16 8.00001L11.625 4.82501" stroke="black" stroke-linecap="round" stroke-linejoin="round"/>
<path d="M8.3877 13.525L11.0127 14.375" stroke="black" stroke-linecap="round" stroke-linejoin="round"/>
<path d="M6.7252 8.38751L8.3877 13.525L4.0127 16.7125" stroke="black" stroke-linecap="round" stroke-linejoin="round"/>
<path d="M11.2998 22.475L12.9123 20.25" stroke="black" stroke-linecap="round" stroke-linejoin="round"/>
<path d="M5.8877 22.475H11.3002L12.9752 27.6125" stroke="black" stroke-linecap="round" stroke-linejoin="round"/>
<path d="M20.6999 22.475L19.0874 20.25" stroke="black" stroke-linecap="round" stroke-linejoin="round"/>
<path d="M19.0249 27.6125L20.6999 22.475H26.1124" stroke="black" stroke-linecap="round" stroke-linejoin="round"/>
<path d="M23.6123 13.525L20.9873 14.375" stroke="black" stroke-linecap="round" stroke-linejoin="round"/>
<path d="M27.9873 16.7125L23.6123 13.525L25.2748 8.38751" stroke="black" stroke-linecap="round" stroke-linejoin="round"/>
</svg>
