<svg width="24" height="24" viewBox="0 0 24 24" fill="none" xmlns="http://www.w3.org/2000/svg">
<path d="M5.14844 21.0508C4.59844 21.0508 4.1276 20.8549 3.73594 20.4633C3.34427 20.0716 3.14844 19.6008 3.14844 19.0508V5.05078C3.14844 4.50078 3.34427 4.02995 3.73594 3.63828C4.1276 3.24661 4.59844 3.05078 5.14844 3.05078H19.1484C19.6984 3.05078 20.1693 3.24661 20.5609 3.63828C20.9526 4.02995 21.1484 4.50078 21.1484 5.05078V19.0508C21.1484 19.6008 20.9526 20.0716 20.5609 20.4633C20.1693 20.8549 19.6984 21.0508 19.1484 21.0508H5.14844ZM5.14844 19.0508H11.1484V5.05078H5.14844V19.0508ZM13.1484 19.0508H19.1484V12.0508H13.1484V19.0508ZM13.1484 10.0508H19.1484V5.05078H13.1484V10.0508Z" fill="#1C1B1F"/>
</svg>
