<svg width="32" height="32" viewBox="0 0 32 32" fill="none" xmlns="http://www.w3.org/2000/svg">
<path d="M10 21H4C3.73478 21 3.48043 20.8946 3.29289 20.7071C3.10536 20.5196 3 20.2652 3 20V12C3 11.7348 3.10536 11.4804 3.29289 11.2929C3.48043 11.1054 3.73478 11 4 11H10L19 4V28L10 21Z" stroke="black" stroke-linecap="round" stroke-linejoin="round"/>
<path d="M10 11V21" stroke="black" stroke-linecap="round" stroke-linejoin="round"/>
<path d="M23.8252 13.175C24.1971 13.5455 24.4922 13.9858 24.6935 14.4706C24.8949 14.9553 24.9985 15.4751 24.9985 16C24.9985 16.525 24.8949 17.0448 24.6935 17.5295C24.4922 18.0143 24.1971 18.4546 23.8252 18.825" stroke="black" stroke-linecap="round" stroke-linejoin="round"/>
</svg>
