<svg width="32" height="32" viewBox="0 0 32 32" fill="none" xmlns="http://www.w3.org/2000/svg">
<path d="M16 28C22.6274 28 28 22.6274 28 16C28 9.37258 22.6274 4 16 4C9.37258 4 4 9.37258 4 16C4 22.6274 9.37258 28 16 28Z" stroke="black" stroke-linecap="round" stroke-linejoin="round"/>
<path d="M22.3876 13.5375C20.408 12.5248 18.2159 11.9978 15.9923 12C13.7688 12.0022 11.5777 12.5335 9.6001 13.55" stroke="black" stroke-linecap="round" stroke-linejoin="round"/>
<path d="M20.5375 17.0876C19.1297 16.3708 17.5719 15.9982 15.9922 16.0004C14.4125 16.0025 12.8558 16.3794 11.45 17.1001" stroke="black" stroke-linecap="round" stroke-linejoin="round"/>
<path d="M18.6875 20.6375C17.8546 20.2158 16.9336 19.9974 16 20C15.063 20.0019 14.139 20.22 13.3 20.6375" stroke="black" stroke-linecap="round" stroke-linejoin="round"/>
</svg>
