<svg width="32" height="32" viewBox="0 0 32 32" fill="none" xmlns="http://www.w3.org/2000/svg">
<path d="M16 3V23.675" stroke="black" stroke-linecap="round" stroke-linejoin="round"/>
<path d="M27.525 14.575L28.6124 13.6625C29.3499 13.05 28.975 11.8125 28.0125 11.75L26.575 11.6625" stroke="black" stroke-linecap="round" stroke-linejoin="round"/>
<path d="M23.0124 21.1124L22.5999 19.475C22.5505 19.2761 22.5584 19.0673 22.6225 18.8727C22.6866 18.6781 22.8045 18.5055 22.9624 18.375L24.2124 17.325" stroke="black" stroke-linecap="round" stroke-linejoin="round"/>
<path d="M22.275 11.375L20.6375 11.275C20.4363 11.2633 20.2428 11.1932 20.0808 11.0733C19.9187 10.9534 19.7951 10.789 19.725 10.6L19.0875 8.99997L16.975 3.67497C16.9022 3.47485 16.7696 3.30197 16.5952 3.17981C16.4207 3.05765 16.2129 2.99213 16 2.99213C15.787 2.99213 15.5793 3.05765 15.4048 3.17981C15.2304 3.30197 15.0978 3.47485 15.025 3.67497L12.275 10.6C12.2049 10.789 12.0813 10.9534 11.9192 11.0733C11.7572 11.1932 11.5637 11.2633 11.3625 11.275L3.98749 11.75C3.02499 11.8125 2.64999 13.05 3.38749 13.6625L9.0375 18.375C9.19541 18.5055 9.31323 18.6781 9.37736 18.8727C9.4415 19.0673 9.44934 19.2761 9.39999 19.475L7.71249 26.125C7.42499 27.25 8.62499 28.1625 9.58749 27.55L15.45 23.8375C15.6144 23.7329 15.8052 23.6774 16 23.6774C16.1948 23.6774 16.3856 23.7329 16.55 23.8375L17.9875 24.75" stroke="black" stroke-linecap="round" stroke-linejoin="round"/>
<path d="M21.625 27.0625L22.85 27.8375C23.6625 28.35 24.6625 27.5875 24.425 26.65L24.075 25.2875" stroke="black" stroke-linecap="round" stroke-linejoin="round"/>
</svg>
