<svg width="32" height="32" viewBox="0 0 32 32" fill="none" xmlns="http://www.w3.org/2000/svg">
<path d="M11.4875 19C11.4875 20.6625 13.5125 22 16 22C18.4875 22 20.5125 20.6625 20.5125 19C20.5125 15 11.7375 16.5 11.7375 13C11.7375 11.3375 13.5125 10 16 10C17.8625 10 19.325 10.75 19.9375 11.8375" stroke="black" stroke-linecap="round" stroke-linejoin="round"/>
<path d="M26 5H6C5.44772 5 5 5.44772 5 6V26C5 26.5523 5.44772 27 6 27H26C26.5523 27 27 26.5523 27 26V6C27 5.44772 26.5523 5 26 5Z" stroke="black" stroke-linecap="round" stroke-linejoin="round"/>
</svg>
