<svg width="32" height="32" viewBox="0 0 32 32" fill="none" xmlns="http://www.w3.org/2000/svg">
<path d="M4.58745 21.625L7.61245 4.48751C7.63359 4.35817 7.68027 4.23433 7.74976 4.12321C7.81925 4.01209 7.91016 3.91591 8.0172 3.84029C8.12424 3.76466 8.24526 3.7111 8.37321 3.68273C8.50116 3.65435 8.63348 3.65173 8.76245 3.67501L15.6625 4.88751C15.9232 4.93625 16.1543 5.08535 16.3063 5.30273C16.4582 5.52011 16.5188 5.78844 16.475 6.05001L13.4375 23.2875C13.2294 24.4482 12.5753 25.4814 11.6152 26.1659C10.655 26.8504 9.46503 27.1318 8.29995 26.95C5.81245 26.55 4.14995 24.1125 4.58745 21.625Z" stroke="black" stroke-linecap="round" stroke-linejoin="round"/>
<path d="M14.7876 15.6L23.9001 12.2875C24.024 12.2417 24.1557 12.221 24.2877 12.2264C24.4196 12.2319 24.5492 12.2634 24.6689 12.3192C24.7886 12.375 24.8961 12.4539 24.9851 12.5515C25.0741 12.649 25.1429 12.7632 25.1876 12.8875L27.5876 19.4625C27.6761 19.7112 27.6627 19.9848 27.5503 20.2236C27.4379 20.4625 27.2356 20.6472 26.9876 20.7375L10.5376 26.725" stroke="black" stroke-linecap="round" stroke-linejoin="round"/>
<path d="M27.5 20.3125V26C27.5 26.2652 27.3946 26.5196 27.2071 26.7071C27.0196 26.8946 26.7652 27 26.5 27H9" stroke="black" stroke-linecap="round" stroke-linejoin="round"/>
<path d="M9 23.5C9.55228 23.5 10 23.0523 10 22.5C10 21.9477 9.55228 21.5 9 21.5C8.44772 21.5 8 21.9477 8 22.5C8 23.0523 8.44772 23.5 9 23.5Z" fill="black"/>
</svg>
