<svg width="32" height="32" viewBox="0 0 32 32" fill="none" xmlns="http://www.w3.org/2000/svg">
<path d="M16 16L28 4" stroke="black" stroke-linecap="round" stroke-linejoin="round"/>
<path d="M24.4875 7.51248C22.3601 5.37867 19.5091 4.1213 16.4989 3.98923C13.4887 3.85715 10.5385 4.86001 8.2324 6.7993C5.92628 8.73858 4.43225 11.473 4.04601 14.4613C3.65978 17.4495 4.40948 20.4739 6.14675 22.9358C7.88401 25.3977 10.4822 27.1177 13.4271 27.7553C16.372 28.393 19.449 27.9018 22.049 26.379C24.649 24.8562 26.5826 22.4128 27.4671 19.5324C28.3516 16.652 28.1224 13.5445 26.825 10.825" stroke="black" stroke-linecap="round" stroke-linejoin="round"/>
<path d="M20.2373 11.7625C19.2464 10.7743 17.9406 10.1644 16.5467 10.0389C15.1529 9.9133 13.7591 10.2799 12.6075 11.0751C11.4559 11.8702 10.6191 13.0437 10.2427 14.3916C9.86622 15.7395 9.9738 17.1766 10.5467 18.4535C11.1197 19.7303 12.1217 20.7661 13.3789 21.3809C14.6361 21.9958 16.0689 22.1508 17.4285 21.8191C18.7881 21.4874 19.9886 20.69 20.8214 19.5653C21.6542 18.4406 22.0667 17.0597 21.9873 15.6625" stroke="black" stroke-linecap="round" stroke-linejoin="round"/>
</svg>
