<svg width="32" height="32" viewBox="0 0 32 32" fill="none" xmlns="http://www.w3.org/2000/svg">
<path d="M8 14V5C8 4.73478 8.10536 4.48043 8.29289 4.29289C8.48043 4.10536 8.73478 4 9 4H23C23.2652 4 23.5196 4.10536 23.7071 4.29289C23.8946 4.48043 24 4.73478 24 5V14" stroke="black" stroke-linecap="round" stroke-linejoin="round"/>
<path d="M12 8H14" stroke="black" stroke-linecap="round" stroke-linejoin="round"/>
<path d="M27 14C27 16.9174 25.8411 19.7153 23.7782 21.7782C21.7153 23.8411 18.9174 25 16 25C13.0826 25 10.2847 23.8411 8.22183 21.7782C6.15893 19.7153 5 16.9174 5 14H27Z" stroke="black" stroke-linecap="round" stroke-linejoin="round"/>
<path d="M11.6998 24.125L11.1623 27.8625C11.1427 28.0038 11.1536 28.1477 11.1942 28.2845C11.2348 28.4213 11.3042 28.5478 11.3977 28.6556C11.4912 28.7633 11.6067 28.8498 11.7365 28.9092C11.8662 28.9686 12.0071 28.9996 12.1498 29H19.8498C19.9925 28.9996 20.1335 28.9686 20.2632 28.9092C20.3929 28.8498 20.5084 28.7633 20.602 28.6556C20.6955 28.5478 20.7649 28.4213 20.8055 28.2845C20.8461 28.1477 20.8569 28.0038 20.8373 27.8625L20.2998 24.125" stroke="black" stroke-linecap="round" stroke-linejoin="round"/>
</svg>
