<svg width="32" height="32" viewBox="0 0 32 32" fill="none" xmlns="http://www.w3.org/2000/svg">
<path d="M8 16C8.55228 16 9 15.5523 9 15C9 14.4477 8.55228 14 8 14C7.44772 14 7 14.4477 7 15C7 15.5523 7.44772 16 8 16Z" fill="black"/>
<path d="M8 25C10.7614 25 13 20.5228 13 15C13 9.47715 10.7614 5 8 5C5.23858 5 3 9.47715 3 15C3 20.5228 5.23858 25 8 25Z" stroke="black" stroke-linecap="round" stroke-linejoin="round"/>
<path d="M13 15V26C13 26.2652 13.1054 26.5196 13.2929 26.7071C13.4804 26.8946 13.7348 27 14 27H28C28.2652 27 28.5196 26.8946 28.7071 26.7071C28.8946 26.5196 29 26.2652 29 26V15C29 9.475 26.7625 5 24 5H8" stroke="black" stroke-linecap="round" stroke-linejoin="round"/>
<path d="M13 15H16" stroke="black" stroke-linecap="round" stroke-linejoin="round"/>
<path d="M20 15H22" stroke="black" stroke-linecap="round" stroke-linejoin="round"/>
<path d="M26 15H29" stroke="black" stroke-linecap="round" stroke-linejoin="round"/>
</svg>
