<svg width="32" height="32" viewBox="0 0 32 32" fill="none" xmlns="http://www.w3.org/2000/svg">
<path d="M26.1 27H5.9C5.65394 26.9988 5.41672 26.9081 5.23268 26.7448C5.04864 26.5815 4.93038 26.3567 4.9 26.1125L3.125 10.1125C3.10922 9.97309 3.12294 9.83192 3.16529 9.69817C3.20763 9.56441 3.27764 9.44106 3.37078 9.33614C3.46392 9.23121 3.57809 9.14706 3.70588 9.08915C3.83366 9.03124 3.97221 9.00086 4.1125 9H27.8875C28.0278 9.00086 28.1663 9.03124 28.2941 9.08915C28.4219 9.14706 28.5361 9.23121 28.6292 9.33614C28.7224 9.44106 28.7924 9.56441 28.8347 9.69817C28.8771 9.83192 28.8908 9.97309 28.875 10.1125L27.1 26.1125C27.0696 26.3567 26.9514 26.5815 26.7673 26.7448C26.5833 26.9081 26.3461 26.9988 26.1 27V27Z" stroke="black" stroke-linecap="round" stroke-linejoin="round"/>
<path d="M11 9C11 7.67392 11.5268 6.40215 12.4645 5.46447C13.4021 4.52678 14.6739 4 16 4C17.3261 4 18.5979 4.52678 19.5355 5.46447C20.4732 6.40215 21 7.67392 21 9" stroke="black" stroke-linecap="round" stroke-linejoin="round"/>
</svg>
