<svg width="32" height="32" viewBox="0 0 32 32" fill="none" xmlns="http://www.w3.org/2000/svg">
<path d="M5.5 16H26.5" stroke="black" stroke-linecap="round" stroke-linejoin="round"/>
<path d="M5.5 9H26.5" stroke="black" stroke-linecap="round" stroke-linejoin="round"/>
<path d="M12 26L9 30" stroke="black" stroke-linecap="round" stroke-linejoin="round"/>
<path d="M20 26L23 30" stroke="black" stroke-linecap="round" stroke-linejoin="round"/>
<path d="M23.5 4H8.5C6.84315 4 5.5 5.34315 5.5 7V23C5.5 24.6569 6.84315 26 8.5 26H23.5C25.1569 26 26.5 24.6569 26.5 23V7C26.5 5.34315 25.1569 4 23.5 4Z" stroke="black" stroke-linecap="round" stroke-linejoin="round"/>
<path d="M16 9V16" stroke="black" stroke-linecap="round" stroke-linejoin="round"/>
<path d="M10.5 22.5C11.0523 22.5 11.5 22.0523 11.5 21.5C11.5 20.9477 11.0523 20.5 10.5 20.5C9.94772 20.5 9.5 20.9477 9.5 21.5C9.5 22.0523 9.94772 22.5 10.5 22.5Z" fill="black"/>
<path d="M21.5 22.5C22.0523 22.5 22.5 22.0523 22.5 21.5C22.5 20.9477 22.0523 20.5 21.5 20.5C20.9477 20.5 20.5 20.9477 20.5 21.5C20.5 22.0523 20.9477 22.5 21.5 22.5Z" fill="black"/>
</svg>
