<svg width="32" height="32" viewBox="0 0 32 32" fill="none" xmlns="http://www.w3.org/2000/svg">
<path d="M22 25C22 25.7956 21.6839 26.5587 21.1213 27.1213C20.5587 27.6839 19.7956 28 19 28C18.2044 28 17.4413 27.6839 16.8787 27.1213C16.3161 26.5587 16 25.7956 16 25V17" stroke="black" stroke-linecap="round" stroke-linejoin="round"/>
<path d="M4.0375 16.9999C3.89896 17.0006 3.76182 16.9722 3.63499 16.9164C3.50816 16.8607 3.39449 16.7789 3.30135 16.6763C3.20822 16.5737 3.1377 16.4527 3.0944 16.3211C3.0511 16.1895 3.03597 16.0503 3.05 15.9124C3.33482 12.6743 4.82244 9.66039 7.21957 7.46486C9.61669 5.26933 12.7494 4.05151 16 4.05151C19.2506 4.05151 22.3833 5.26933 24.7804 7.46486C27.1776 9.66039 28.6652 12.6743 28.95 15.9124C28.964 16.0503 28.9489 16.1895 28.9056 16.3211C28.8623 16.4527 28.7918 16.5737 28.6986 16.6763C28.6055 16.7789 28.4918 16.8607 28.365 16.9164C28.2382 16.9722 28.101 17.0006 27.9625 16.9999H4.0375Z" stroke="black" stroke-linecap="round" stroke-linejoin="round"/>
<path d="M11 17C11 8 16 4 16 4C16 4 21 8 21 17" stroke="black" stroke-linecap="round" stroke-linejoin="round"/>
</svg>
