<svg width="24" height="24" viewBox="0 0 24 24" fill="none" xmlns="http://www.w3.org/2000/svg">
<path fill-rule="evenodd" clip-rule="evenodd" d="M6 21C5.45 21 4.97917 20.8042 4.5875 20.4125C4.19583 20.0208 4 19.55 4 19L4 15.5524C4 15.2691 4.09583 15.0316 4.2875 14.8399C4.47917 14.6483 4.71667 14.5524 5 14.5524C5.28333 14.5524 5.52083 14.6483 5.7125 14.8399C5.90417 15.0316 6 15.2691 6 15.5524V18C6 18.5523 6.44772 19 7 19H17C17.5523 19 18 18.5523 18 18V15.5524C18 15.2691 18.0958 15.0316 18.2875 14.8399C18.4792 14.6483 18.7167 14.5524 19 14.5524C19.2833 14.5524 19.5208 14.6483 19.7125 14.8399C19.9042 15.0316 20 15.2691 20 15.5524L20 19C20 19.55 19.8042 20.0208 19.4125 20.4125C19.0208 20.8042 18.55 21 18 21H6ZM11.0875 6.425L9.2125 8.3C9.0125 8.5 8.775 8.59583 8.5 8.5875C8.225 8.57917 7.9875 8.475 7.7875 8.275C7.60417 8.075 7.50833 7.84167 7.5 7.575C7.49167 7.30833 7.5875 7.075 7.7875 6.875L11.3875 3.275C11.4875 3.175 11.5958 3.10417 11.7125 3.0625C11.8292 3.02083 11.9542 3 12.0875 3C12.2208 3 12.3458 3.02083 12.4625 3.0625C12.5792 3.10417 12.6875 3.175 12.7875 3.275L16.3875 6.875C16.5875 7.075 16.6833 7.30833 16.675 7.575C16.6667 7.84167 16.5708 8.075 16.3875 8.275C16.1875 8.475 15.95 8.57917 15.675 8.5875C15.4 8.59583 15.1625 8.5 14.9625 8.3L13.0875 6.425L13.0494 15.0875C13.0494 15.3709 12.9536 15.6084 12.7619 15.8C12.5702 15.9917 12.3327 16.0875 12.0494 16.0875C11.7661 16.0875 11.5286 15.9917 11.3369 15.8C11.1452 15.6084 11.0494 15.3709 11.0494 15.0875L11.0875 6.425Z" fill="#1C1B1F"/>
</svg>
