<svg width="32" height="32" viewBox="0 0 32 32" fill="none" xmlns="http://www.w3.org/2000/svg">
<path d="M22 16H28C28.2652 16 28.5196 16.1054 28.7071 16.2929C28.8946 16.4804 29 16.7348 29 17V25C29 25.2652 28.8946 25.5196 28.7071 25.7071C28.5196 25.8946 28.2652 26 28 26H4C3.73478 26 3.48043 25.8946 3.29289 25.7071C3.10536 25.5196 3 25.2652 3 25V17C3 16.7348 3.10536 16.4804 3.29289 16.2929C3.48043 16.1054 3.73478 16 4 16H10" stroke="black" stroke-linecap="round" stroke-linejoin="round"/>
<path d="M16 16V3" stroke="black" stroke-linecap="round" stroke-linejoin="round"/>
<path d="M10 9L16 3L22 9" stroke="black" stroke-linecap="round" stroke-linejoin="round"/>
<path d="M23.5 22C24.0523 22 24.5 21.5523 24.5 21C24.5 20.4477 24.0523 20 23.5 20C22.9477 20 22.5 20.4477 22.5 21C22.5 21.5523 22.9477 22 23.5 22Z" fill="black"/>
</svg>
