<svg width="24" height="24" viewBox="0 0 24 24" fill="none" xmlns="http://www.w3.org/2000/svg">
<path fill-rule="evenodd" clip-rule="evenodd" d="M5.91406 21C5.36406 21 4.89323 20.8042 4.50156 20.4125C4.10989 20.0208 3.91406 19.55 3.91406 19V15.5524C3.91406 15.2691 4.00989 15.0316 4.20156 14.8399C4.39323 14.6483 4.63073 14.5524 4.91406 14.5524C5.19739 14.5524 5.43489 14.6483 5.62656 14.8399C5.81823 15.0316 5.91406 15.2691 5.91406 15.5524V18C5.91406 18.5523 6.36178 19 6.91406 19H16.9141C17.4664 19 17.9141 18.5523 17.9141 18V15.5524C17.9141 15.2691 18.0099 15.0316 18.2016 14.8399C18.3933 14.6483 18.6308 14.5524 18.9141 14.5524C19.1974 14.5524 19.4349 14.6483 19.6266 14.8399C19.8183 15.0316 19.9141 15.2691 19.9141 15.5524V19C19.9141 19.55 19.7183 20.0208 19.3266 20.4125C18.9349 20.8042 18.4641 21 17.9141 21H5.91406ZM11.0016 6.5L9.2125 8.3C9.0125 8.5 8.775 8.59583 8.5 8.5875C8.225 8.57917 7.9875 8.475 7.7875 8.275C7.60417 8.075 7.50833 7.84167 7.5 7.575C7.49167 7.30833 7.5875 7.075 7.7875 6.875L11.3 3.275C11.4 3.175 11.5083 3.10417 11.625 3.0625C11.7417 3.02083 11.8667 3 12 3C12.1333 3 12.2583 3.02083 12.375 3.0625C12.4917 3.10417 12.6 3.175 12.7 3.275L16.3875 6.875C16.5875 7.075 16.6833 7.30833 16.675 7.575C16.6667 7.84167 16.5708 8.075 16.3875 8.275C16.1875 8.475 15.95 8.57917 15.675 8.5875C15.4 8.59583 15.1625 8.5 14.9625 8.3L13 6.5V15C13 15.2834 12.9042 15.5209 12.7125 15.7125C12.5208 15.9042 12.2833 16 12 16C11.7167 16 11.4792 15.9042 11.2875 15.7125C11.0958 15.5209 11 15.2834 11 15L11.0016 6.5Z" fill="#1C1B1F"/>
</svg>
