<svg width="32" height="32" viewBox="0 0 32 32" fill="none" xmlns="http://www.w3.org/2000/svg">
<path d="M16 20C18.7614 20 21 17.7614 21 15C21 12.2386 18.7614 10 16 10C13.2386 10 11 12.2386 11 15C11 17.7614 13.2386 20 16 20Z" stroke="black" stroke-linecap="round" stroke-linejoin="round"/>
<path d="M7.9751 24.925C8.72749 23.4431 9.87555 22.1984 11.292 21.3289C12.7085 20.4595 14.3381 19.9993 16.0001 19.9993C17.6621 19.9993 19.2917 20.4595 20.7082 21.3289C22.1246 22.1984 23.2727 23.4431 24.0251 24.925" stroke="black" stroke-linecap="round" stroke-linejoin="round"/>
<path d="M25 9C26.1046 9 27 8.10457 27 7C27 5.89543 26.1046 5 25 5C23.8954 5 23 5.89543 23 7C23 8.10457 23.8954 9 25 9Z" stroke="black" stroke-linecap="round" stroke-linejoin="round"/>
<path d="M25 5V3.5" stroke="black" stroke-linecap="round" stroke-linejoin="round"/>
<path d="M23.2626 6L21.9751 5.25" stroke="black" stroke-linecap="round" stroke-linejoin="round"/>
<path d="M23.2626 8L21.9751 8.75" stroke="black" stroke-linecap="round" stroke-linejoin="round"/>
<path d="M25 9V10.5" stroke="black" stroke-linecap="round" stroke-linejoin="round"/>
<path d="M26.7373 8L28.0248 8.75" stroke="black" stroke-linecap="round" stroke-linejoin="round"/>
<path d="M26.7373 6L28.0248 5.25" stroke="black" stroke-linecap="round" stroke-linejoin="round"/>
<path d="M27.9125 14.5625C27.9731 15.0392 28.0024 15.5194 28 16C28 18.3733 27.2962 20.6934 25.9776 22.6668C24.6591 24.6402 22.7849 26.1783 20.5922 27.0865C18.3995 27.9948 15.9867 28.2324 13.6589 27.7694C11.3312 27.3064 9.19295 26.1635 7.51472 24.4853C5.83649 22.807 4.6936 20.6688 4.23058 18.3411C3.76756 16.0133 4.0052 13.6005 4.91345 11.4078C5.8217 9.21506 7.35977 7.34091 9.33316 6.02234C11.3066 4.70376 13.6266 3.99997 16 3.99997C16.3714 3.99763 16.7428 4.01432 17.1125 4.04997" stroke="black" stroke-linecap="round" stroke-linejoin="round"/>
</svg>
