<svg width="32" height="32" viewBox="0 0 32 32" fill="none" xmlns="http://www.w3.org/2000/svg">
<path d="M16 20C18.7614 20 21 17.7614 21 15C21 12.2386 18.7614 10 16 10C13.2386 10 11 12.2386 11 15C11 17.7614 13.2386 20 16 20Z" stroke="black" stroke-linecap="round" stroke-linejoin="round"/>
<path d="M26 5H6C5.44772 5 5 5.44772 5 6V26C5 26.5523 5.44772 27 6 27H26C26.5523 27 27 26.5523 27 26V6C27 5.44772 26.5523 5 26 5Z" stroke="black" stroke-linecap="round" stroke-linejoin="round"/>
<path d="M7.2251 26.9999C7.67826 25.0115 8.7933 23.236 10.3875 21.9642C11.9818 20.6924 13.9607 19.9998 16.0001 19.9998C18.0395 19.9998 20.0184 20.6924 21.6126 21.9642C23.2069 23.236 24.3219 25.0115 24.7751 26.9999" stroke="black" stroke-linecap="round" stroke-linejoin="round"/>
</svg>
