<svg width="32" height="32" viewBox="0 0 32 32" fill="none" xmlns="http://www.w3.org/2000/svg">
<path d="M22.5 5H26C26.2652 5 26.5196 5.10536 26.7071 5.29289C26.8946 5.48043 27 5.73478 27 6V9.5" stroke="black" stroke-linecap="round" stroke-linejoin="round"/>
<path d="M22.5 27H26C26.2652 27 26.5196 26.8946 26.7071 26.7071C26.8946 26.5196 27 26.2652 27 26V22.5" stroke="black" stroke-linecap="round" stroke-linejoin="round"/>
<path d="M9.5 27H6C5.73478 27 5.48043 26.8946 5.29289 26.7071C5.10536 26.5196 5 26.2652 5 26V22.5" stroke="black" stroke-linecap="round" stroke-linejoin="round"/>
<path d="M9.5 5H6C5.73478 5 5.48043 5.10536 5.29289 5.29289C5.10536 5.48043 5 5.73478 5 6V9.5" stroke="black" stroke-linecap="round" stroke-linejoin="round"/>
<path d="M16 18C18.2091 18 20 16.2091 20 14C20 11.7909 18.2091 10 16 10C13.7909 10 12 11.7909 12 14C12 16.2091 13.7909 18 16 18Z" stroke="black" stroke-linecap="round" stroke-linejoin="round"/>
<path d="M9.3623 21.9999C10.0015 20.7941 10.9572 19.7852 12.1266 19.0815C13.296 18.3779 14.635 18.0061 15.9998 18.0061C17.3646 18.0061 18.7036 18.3779 19.873 19.0815C21.0424 19.7852 21.9981 20.7941 22.6373 21.9999" stroke="black" stroke-linecap="round" stroke-linejoin="round"/>
</svg>
