<svg width="32" height="32" viewBox="0 0 32 32" fill="none" xmlns="http://www.w3.org/2000/svg">
<path d="M5 8V24C5 24.5304 5.21071 25.0391 5.58579 25.4142C5.96086 25.7893 6.46957 26 7 26H27C27.2652 26 27.5196 25.8946 27.7071 25.7071C27.8946 25.5196 28 25.2652 28 25V11C28 10.7348 27.8946 10.4804 27.7071 10.2929C27.5196 10.1054 27.2652 10 27 10H7C6.46957 10 5.96086 9.78929 5.58579 9.41421C5.21071 9.03914 5 8.53043 5 8ZM5 8C5 7.46957 5.21071 6.96086 5.58579 6.58579C5.96086 6.21071 6.46957 6 7 6H24" stroke="black" stroke-linecap="round" stroke-linejoin="round"/>
<path d="M22.5 19C23.0523 19 23.5 18.5523 23.5 18C23.5 17.4477 23.0523 17 22.5 17C21.9477 17 21.5 17.4477 21.5 18C21.5 18.5523 21.9477 19 22.5 19Z" fill="black"/>
</svg>
