<svg width="32" height="32" viewBox="0 0 32 32" fill="none" xmlns="http://www.w3.org/2000/svg">
<path d="M16 25C20.9706 25 25 20.9706 25 16C25 11.0294 20.9706 7 16 7C11.0294 7 7 11.0294 7 16C7 20.9706 11.0294 25 16 25Z" stroke="black" stroke-linecap="round" stroke-linejoin="round"/>
<path d="M16 11V16H21" stroke="black" stroke-linecap="round" stroke-linejoin="round"/>
<path d="M11 8.5125L11.85 3.825C11.8912 3.59327 12.0128 3.38348 12.1934 3.23258C12.3741 3.08167 12.6021 2.99931 12.8375 3H19.1625C19.3979 2.99931 19.6259 3.08167 19.8066 3.23258C19.9872 3.38348 20.1088 3.59327 20.15 3.825L21 8.5125" stroke="black" stroke-linecap="round" stroke-linejoin="round"/>
<path d="M11 23.4875L11.85 28.175C11.8912 28.4068 12.0128 28.6166 12.1934 28.7675C12.3741 28.9184 12.6021 29.0007 12.8375 29H19.1625C19.3979 29.0007 19.6259 28.9184 19.8066 28.7675C19.9872 28.6166 20.1088 28.4068 20.15 28.175L21 23.4875" stroke="black" stroke-linecap="round" stroke-linejoin="round"/>
</svg>
