<svg width="32" height="32" viewBox="0 0 32 32" fill="none" xmlns="http://www.w3.org/2000/svg">
<path d="M5.67509 22.1251C4.1862 19.6131 3.66541 16.644 4.21048 13.7753C4.75555 10.9065 6.329 8.33537 8.63545 6.5445C10.9419 4.75364 13.8227 3.86623 16.7371 4.04888C19.6514 4.23152 22.3989 5.47165 24.4637 7.53646C26.5285 9.60127 27.7687 12.3488 27.9513 15.2631C28.134 18.1775 27.2465 21.0583 25.4557 23.3647C23.6648 25.6712 21.0937 27.2446 18.2249 27.7897C15.3561 28.3348 12.3871 27.814 9.87509 26.3251V26.3251L5.72509 27.5001C5.55507 27.5498 5.37479 27.5529 5.20317 27.509C5.03154 27.4651 4.87488 27.3758 4.74962 27.2506C4.62435 27.1253 4.53509 26.9686 4.49119 26.797C4.44729 26.6254 4.45036 26.4451 4.50009 26.2751L5.67509 22.1251Z" stroke="black" stroke-linecap="round" stroke-linejoin="round"/>
<path d="M19.0125 23C17.6967 23.0033 16.3933 22.7466 15.177 22.2446C13.9608 21.7426 12.8557 21.0052 11.9253 20.0748C10.9949 19.1444 10.2575 18.0393 9.75547 16.823C9.25346 15.6068 8.99673 14.3033 9.00003 12.9875C9.00334 12.0614 9.37355 11.1744 10.0296 10.5207C10.6856 9.86705 11.5739 9.50002 12.5 9.50003V9.50003C12.6528 9.49881 12.8031 9.5388 12.9351 9.61579C13.0671 9.69278 13.1759 9.80392 13.25 9.93753L14.7125 12.4875C14.7995 12.6425 14.8441 12.8177 14.8419 12.9955C14.8397 13.1732 14.7908 13.3472 14.7 13.5L13.525 15.4625C14.1269 16.8014 15.1987 17.8732 16.5375 18.475L18.5 17.3C18.6529 17.2093 18.8269 17.1603 19.0046 17.1581C19.1823 17.1559 19.3575 17.2006 19.5125 17.2875L22.0625 18.75C22.1961 18.8242 22.3073 18.933 22.3843 19.0649C22.4613 19.1969 22.5013 19.3472 22.5 19.5C22.4968 20.4251 22.1287 21.3116 21.4757 21.9669C20.8227 22.6222 19.9376 22.9934 19.0125 23V23Z" stroke="black" stroke-linecap="round" stroke-linejoin="round"/>
</svg>
