<svg width="32" height="32" viewBox="0 0 32 32" fill="none" xmlns="http://www.w3.org/2000/svg">
<path d="M6 5L26 27" stroke="black" stroke-linecap="round" stroke-linejoin="round"/>
<path d="M13.3877 7.18757C14.2528 7.06162 15.126 6.99895 16.0002 7.00007C20.8168 6.9871 25.4421 8.88398 28.8627 12.2751" stroke="black" stroke-linecap="round" stroke-linejoin="round"/>
<path d="M3.1377 12.275C4.8332 10.5962 6.8421 9.26681 9.0502 8.36255" stroke="black" stroke-linecap="round" stroke-linejoin="round"/>
<path d="M19.0127 13.375C21.1307 13.8996 23.0689 14.9831 24.6252 16.5125" stroke="black" stroke-linecap="round" stroke-linejoin="round"/>
<path d="M7.375 16.5125C9.06078 14.8591 11.1873 13.7264 13.5 13.25" stroke="black" stroke-linecap="round" stroke-linejoin="round"/>
<path d="M11.6123 20.7624C12.7396 19.6861 14.2227 19.061 15.7803 19.0057C17.3378 18.9504 18.8615 19.4688 20.0623 20.4624" stroke="black" stroke-linecap="round" stroke-linejoin="round"/>
<path d="M16 26C16.5523 26 17 25.5523 17 25C17 24.4477 16.5523 24 16 24C15.4477 24 15 24.4477 15 25C15 25.5523 15.4477 26 16 26Z" fill="black"/>
</svg>
