<svg width="32" height="32" viewBox="0 0 32 32" fill="none" xmlns="http://www.w3.org/2000/svg">
<path d="M11.6123 20.7624C12.7924 19.6302 14.3644 18.998 15.9998 18.998C17.6352 18.998 19.2072 19.6302 20.3873 20.7624" stroke="black" stroke-linecap="round" stroke-linejoin="round"/>
<path d="M28 7L22 13" stroke="black" stroke-linecap="round" stroke-linejoin="round"/>
<path d="M28 13L22 7" stroke="black" stroke-linecap="round" stroke-linejoin="round"/>
<path d="M3.1377 12.2751C6.55827 8.88398 11.1836 6.9871 16.0002 7.00007C16.6685 6.99981 17.3362 7.03737 18.0002 7.11257" stroke="black" stroke-linecap="round" stroke-linejoin="round"/>
<path d="M7.375 16.5124C9.67397 14.2495 12.7742 12.9869 16 12.9999C16.6701 12.9966 17.3392 13.0509 18 13.1624" stroke="black" stroke-linecap="round" stroke-linejoin="round"/>
<path d="M16 26C16.5523 26 17 25.5523 17 25C17 24.4477 16.5523 24 16 24C15.4477 24 15 24.4477 15 25C15 25.5523 15.4477 26 16 26Z" fill="black"/>
</svg>
