<svg width="32" height="32" viewBox="0 0 32 32" fill="none" xmlns="http://www.w3.org/2000/svg">
<path d="M11.6123 20.7624C12.7924 19.6302 14.3644 18.998 15.9998 18.998C17.6352 18.998 19.2072 19.6302 20.3873 20.7624" stroke="black" stroke-linecap="round" stroke-linejoin="round"/>
<path d="M7.375 16.5125C9.68176 14.2616 12.777 13.0017 16 13.0017C19.223 13.0017 22.3182 14.2616 24.625 16.5125" stroke="black" stroke-linecap="round" stroke-linejoin="round"/>
<path d="M3.1377 12.2749C6.56626 8.89621 11.1866 7.0022 16.0002 7.0022C20.8138 7.0022 25.4341 8.89621 28.8627 12.2749" stroke="black" stroke-linecap="round" stroke-linejoin="round"/>
<path d="M16 26C16.5523 26 17 25.5523 17 25C17 24.4477 16.5523 24 16 24C15.4477 24 15 24.4477 15 25C15 25.5523 15.4477 26 16 26Z" fill="black"/>
</svg>
