<svg width="32" height="32" viewBox="0 0 32 32" fill="none" xmlns="http://www.w3.org/2000/svg">
<path d="M27.3623 8.87498C28.0183 10.4066 28.1789 12.105 27.8216 13.7324C27.4643 15.3598 26.607 16.8347 25.3698 17.9507C24.1326 19.0667 22.5773 19.7678 20.9218 19.956C19.2663 20.1441 17.5934 19.8099 16.1373 19V19L9.12483 27.125C8.56125 27.6886 7.79686 28.0052 6.99983 28.0052C6.2028 28.0052 5.43842 27.6886 4.87483 27.125C4.31125 26.5614 3.99463 25.797 3.99463 25C3.99463 24.203 4.31125 23.4386 4.87483 22.875L12.9998 15.8625C12.1899 14.4064 11.8557 12.7335 12.0438 11.078C12.232 9.42247 12.9331 7.86723 14.0491 6.63001C15.1651 5.3928 16.64 4.53553 18.2674 4.17824C19.8948 3.82095 21.5932 3.98153 23.1248 4.63748L17.8748 9.87498L18.5873 13.4125L22.1248 14.125L27.3623 8.87498Z" stroke="black" stroke-linecap="round" stroke-linejoin="round"/>
</svg>
