<svg width="32" height="32" viewBox="0 0 32 32" fill="none" xmlns="http://www.w3.org/2000/svg">
<path d="M16 28C22.6274 28 28 22.6274 28 16C28 9.37258 22.6274 4 16 4C9.37258 4 4 9.37258 4 16C4 22.6274 9.37258 28 16 28Z" stroke="black" stroke-linecap="round" stroke-linejoin="round"/>
<path d="M16 23C16.5523 23 17 22.5523 17 22C17 21.4477 16.5523 21 16 21C15.4477 21 15 21.4477 15 22C15 22.5523 15.4477 23 16 23Z" fill="black"/>
<path d="M16 28C14.4087 28 12.8826 27.3679 11.7574 26.2426C10.6321 25.1174 10 23.5913 10 22C10 20.4087 10.6321 18.8826 11.7574 17.7574C12.8826 16.6321 14.4087 16 16 16C17.5913 16 19.1174 15.3679 20.2426 14.2426C21.3679 13.1174 22 11.5913 22 10C22 8.4087 21.3679 6.88258 20.2426 5.75736C19.1174 4.63214 17.5913 4 16 4" stroke="black" stroke-linecap="round" stroke-linejoin="round"/>
<path d="M16 11C16.5523 11 17 10.5523 17 10C17 9.44772 16.5523 9 16 9C15.4477 9 15 9.44772 15 10C15 10.5523 15.4477 11 16 11Z" fill="black"/>
</svg>
