<svg width="3000" height="2400" viewBox="0 0 3000 2400" fill="none" xmlns="http://www.w3.org/2000/svg">
<g clip-path="url(#clip0_1_522)">
<path d="M1276.28 285.046H2495.32C2534.41 285.046 2566.15 316.749 2566.15 355.799V1224.56H1205.45V355.799C1205.45 316.749 1237.19 285.046 1276.28 285.046Z" fill="white"/>
<path d="M2566.15 1227.6H1205.45C1204.64 1227.6 1203.87 1227.28 1203.29 1226.71C1202.72 1226.14 1202.4 1225.36 1202.4 1224.55V355.799C1202.4 315.106 1235.54 282 1276.28 282H2495.32C2536.06 282 2569.2 315.106 2569.2 355.799V1224.56C2569.2 1225.36 2568.88 1226.14 2568.31 1226.71C2567.73 1227.28 2566.96 1227.6 2566.15 1227.6V1227.6ZM1208.5 1221.51H2563.1V355.799C2563.1 318.466 2532.69 288.093 2495.32 288.093H1276.28C1238.91 288.093 1208.5 318.465 1208.5 355.799V1221.51V1221.51Z" fill="#0C296A"/>
<path d="M1276.28 285.046H2495.32C2534.41 285.046 2566.15 316.749 2566.15 355.799V370.729H1205.45V355.799C1205.45 316.749 1237.19 285.046 1276.28 285.046Z" fill="white"/>
<path d="M2566.15 373.775H1205.45C1204.64 373.775 1203.87 373.454 1203.29 372.883C1202.72 372.312 1202.4 371.537 1202.4 370.729V355.797C1202.4 315.106 1235.54 282 1276.28 282H2495.32C2536.06 282 2569.2 315.106 2569.2 355.799V370.73C2569.2 371.538 2568.88 372.313 2568.31 372.884C2567.73 373.456 2566.96 373.777 2566.15 373.777V373.775ZM1208.5 367.683H2563.1V355.797C2563.1 318.465 2532.69 288.091 2495.32 288.091H1276.28C1238.91 288.093 1208.5 318.465 1208.5 355.799V367.684V367.683Z" fill="#0C296A"/>
<path d="M1423.2 345.46C1432.91 345.46 1440.79 337.593 1440.79 327.888C1440.79 318.184 1432.91 310.317 1423.2 310.317C1413.48 310.317 1405.61 318.184 1405.61 327.888C1405.61 337.593 1413.48 345.46 1423.2 345.46Z" fill="#0C296A"/>
<path d="M1423.2 348.504C1411.82 348.504 1402.56 339.256 1402.56 327.887C1402.56 316.518 1411.81 307.269 1423.2 307.269C1434.58 307.269 1443.84 316.518 1443.84 327.887C1443.84 339.256 1434.58 348.504 1423.2 348.504ZM1423.2 313.362C1415.18 313.362 1408.65 319.878 1408.65 327.887C1408.65 335.896 1415.18 342.412 1423.2 342.412C1431.21 342.412 1437.74 335.896 1437.74 327.887C1437.74 319.878 1431.21 313.362 1423.2 313.362Z" fill="#0C296A"/>
<path d="M1356.77 345.46C1366.49 345.46 1374.36 337.593 1374.36 327.888C1374.36 318.184 1366.49 310.317 1356.77 310.317C1347.06 310.317 1339.18 318.184 1339.18 327.888C1339.18 337.593 1347.06 345.46 1356.77 345.46Z" fill="#0C296A"/>
<path d="M1356.77 348.504C1345.39 348.504 1336.13 339.256 1336.13 327.887C1336.13 316.518 1345.39 307.269 1356.77 307.269C1368.15 307.269 1377.41 316.518 1377.41 327.887C1377.41 339.256 1368.15 348.504 1356.77 348.504ZM1356.77 313.362C1348.75 313.362 1342.23 319.878 1342.23 327.887C1342.23 335.896 1348.75 342.412 1356.77 342.412C1364.79 342.412 1371.31 335.896 1371.31 327.887C1371.31 319.878 1364.79 313.362 1356.77 313.362Z" fill="#0C296A"/>
<path d="M1290.35 345.46C1300.06 345.46 1307.94 337.593 1307.94 327.888C1307.94 318.184 1300.06 310.317 1290.35 310.317C1280.63 310.317 1272.75 318.184 1272.75 327.888C1272.75 337.593 1280.63 345.46 1290.35 345.46Z" fill="#0C296A"/>
<path d="M1290.35 348.504C1278.97 348.504 1269.71 339.256 1269.71 327.887C1269.71 316.518 1278.97 307.269 1290.35 307.269C1301.73 307.269 1310.99 316.518 1310.99 327.887C1310.99 339.256 1301.73 348.504 1290.35 348.504ZM1290.35 313.362C1282.33 313.362 1275.81 319.878 1275.81 327.887C1275.81 335.896 1282.33 342.412 1290.35 342.412C1298.36 342.412 1304.89 335.896 1304.89 327.887C1304.89 319.878 1298.36 313.362 1290.35 313.362Z" fill="#0C296A"/>
<path d="M1274.2 429.54H1901.94V872.107H1274.2V429.54Z" fill="white"/>
<path d="M1901.94 875.154H1274.2C1273.4 875.154 1272.62 874.833 1272.05 874.261C1271.48 873.69 1271.15 872.915 1271.15 872.107V429.54C1271.15 428.732 1271.48 427.957 1272.05 427.386C1272.62 426.814 1273.4 426.493 1274.2 426.493H1901.94C1902.75 426.493 1903.53 426.814 1904.1 427.386C1904.67 427.957 1904.99 428.732 1904.99 429.54V872.107C1904.99 872.915 1904.67 873.69 1904.1 874.261C1903.53 874.833 1902.75 875.154 1901.94 875.154ZM1277.25 869.061H1898.89V432.586H1277.25V869.061Z" fill="#0C296A"/>
<path d="M1753.19 590.259C1778.21 590.259 1798.5 569.996 1798.5 545C1798.5 520.004 1778.21 499.741 1753.19 499.741C1728.17 499.741 1707.88 520.004 1707.88 545C1707.88 569.996 1728.17 590.259 1753.19 590.259Z" fill="#E12121"/>
<path d="M1753.19 593.306C1726.52 593.306 1704.83 571.636 1704.83 545C1704.83 518.365 1726.52 496.695 1753.19 496.695C1779.85 496.695 1801.55 518.365 1801.55 545C1801.55 571.636 1779.85 593.306 1753.19 593.306ZM1753.19 502.787C1729.89 502.787 1710.93 521.725 1710.93 545C1710.93 568.276 1729.89 587.213 1753.19 587.213C1776.49 587.213 1795.45 568.276 1795.45 545C1795.45 521.725 1776.49 502.787 1753.19 502.787Z" fill="#E12121"/>
<path d="M1901.94 725.711C1857.09 696.194 1792.24 682.432 1723.09 692.368C1604.77 709.368 1518.09 789.387 1527.35 872.107H1901.94V725.711Z" fill="white"/>
<path d="M1901.94 875.154H1527.35C1526.6 875.154 1525.87 874.878 1525.32 874.378C1524.76 873.878 1524.4 873.19 1524.32 872.445C1519.73 831.407 1537.84 789.821 1575.31 755.352C1612.56 721.092 1664.89 697.653 1722.65 689.353C1790.25 679.64 1856.21 691.966 1903.62 723.168C1904.48 723.731 1904.99 724.688 1904.99 725.711V872.107C1904.99 872.915 1904.67 873.69 1904.1 874.261C1903.53 874.833 1902.75 875.154 1901.94 875.154ZM1530.11 869.061H1898.89V727.361C1852.81 697.627 1789 685.975 1723.52 695.384C1666.96 703.51 1615.8 726.4 1579.45 759.833C1544.27 792.191 1526.82 830.874 1530.11 869.059V869.061Z" fill="#0C296A"/>
<path d="M1483.26 641.278C1407.34 618.5 1332.93 616.948 1274.2 632.843V872.107H1709.72C1720.07 783.614 1623.93 683.482 1483.26 641.278Z" fill="white"/>
<path d="M1709.72 875.154H1274.2C1273.4 875.154 1272.62 874.833 1272.05 874.261C1271.48 873.69 1271.15 872.915 1271.15 872.107V632.844C1271.15 632.175 1271.38 631.525 1271.78 630.993C1272.19 630.462 1272.76 630.079 1273.41 629.904C1335.29 613.156 1410.13 616.159 1484.13 638.361C1625.13 680.662 1723.42 781.304 1712.75 872.462C1712.66 873.204 1712.3 873.888 1711.75 874.384C1711.19 874.881 1710.47 875.155 1709.72 875.155L1709.72 875.154ZM1277.25 869.061H1706.97C1710.76 827.701 1690.94 782.501 1650.94 741.459C1609.46 698.904 1549.6 664.361 1482.38 644.196C1410.35 622.586 1337.62 619.407 1277.25 635.185V869.061ZM1605.9 947.959H1302.9C1302.09 947.959 1301.32 947.638 1300.74 947.067C1300.17 946.496 1299.85 945.721 1299.85 944.913C1299.85 944.105 1300.17 943.33 1300.74 942.759C1301.32 942.188 1302.09 941.867 1302.9 941.867H1605.9C1606.71 941.867 1607.49 942.188 1608.06 942.759C1608.63 943.33 1608.95 944.105 1608.95 944.913C1608.95 945.721 1608.63 946.496 1608.06 947.067C1607.49 947.638 1606.71 947.959 1605.9 947.959ZM1730.57 995.164H1302.9C1302.09 995.164 1301.32 994.843 1300.74 994.271C1300.17 993.7 1299.85 992.925 1299.85 992.117C1299.85 991.309 1300.17 990.535 1300.74 989.963C1301.32 989.392 1302.09 989.071 1302.9 989.071H1730.57C1731.38 989.071 1732.16 989.392 1732.73 989.963C1733.3 990.535 1733.62 991.309 1733.62 992.117C1733.62 992.925 1733.3 993.7 1732.73 994.271C1732.16 994.843 1731.38 995.164 1730.57 995.164Z" fill="#0C296A"/>
<path d="M2013.44 496.559H2376.13V805.088H2013.44V496.559Z" fill="white"/>
<path d="M2376.13 808.134H2013.44C2012.63 808.134 2011.86 807.813 2011.28 807.242C2010.71 806.671 2010.39 805.896 2010.39 805.088V496.559C2010.39 495.751 2010.71 494.976 2011.28 494.405C2011.86 493.834 2012.63 493.513 2013.44 493.513H2376.13C2376.94 493.513 2377.71 493.834 2378.29 494.405C2378.86 494.976 2379.18 495.751 2379.18 496.559V805.088C2379.18 805.896 2378.86 806.671 2378.29 807.242C2377.71 807.813 2376.94 808.134 2376.13 808.134ZM2016.49 802.042H2373.08V499.605H2016.49V802.042Z" fill="#0C296A"/>
<path d="M1990.95 474.089H2035.94V519.029H1990.95V474.089Z" fill="white"/>
<path d="M2035.94 522.075H1990.95C1990.14 522.075 1989.36 521.754 1988.79 521.183C1988.22 520.611 1987.9 519.837 1987.9 519.029V474.089C1987.9 473.281 1988.22 472.506 1988.79 471.935C1989.36 471.364 1990.14 471.043 1990.95 471.043H2035.94C2036.74 471.043 2037.52 471.364 2038.09 471.935C2038.66 472.506 2038.99 473.281 2038.99 474.089V519.029C2038.99 519.837 2038.66 520.611 2038.09 521.183C2037.52 521.754 2036.74 522.075 2035.94 522.075ZM1994 515.982H2032.89V477.136H1994V515.982Z" fill="#0C296A"/>
<path d="M1990.95 782.617H2035.94V827.556H1990.95V782.617Z" fill="white"/>
<path d="M2035.94 830.604H1990.95C1990.14 830.604 1989.36 830.283 1988.79 829.712C1988.22 829.141 1987.9 828.366 1987.9 827.558V782.618C1987.9 781.81 1988.22 781.036 1988.79 780.464C1989.36 779.893 1990.14 779.572 1990.95 779.572H2035.94C2036.74 779.572 2037.52 779.893 2038.09 780.464C2038.66 781.036 2038.99 781.81 2038.99 782.618V827.558C2038.99 828.366 2038.66 829.141 2038.09 829.712C2037.52 830.283 2036.74 830.604 2035.94 830.604ZM1994 824.511H2032.89V785.665H1994V824.511Z" fill="#0C296A"/>
<path d="M2353.64 782.617H2398.63V827.556H2353.64V782.617Z" fill="white"/>
<path d="M2398.62 830.604H2353.63C2352.83 830.604 2352.05 830.283 2351.48 829.712C2350.91 829.141 2350.58 828.366 2350.58 827.558V782.618C2350.58 781.81 2350.91 781.036 2351.48 780.464C2352.05 779.893 2352.83 779.572 2353.63 779.572H2398.62C2399.43 779.572 2400.21 779.893 2400.78 780.464C2401.35 781.036 2401.67 781.81 2401.67 782.618V827.558C2401.67 828.366 2401.35 829.141 2400.78 829.712C2400.21 830.283 2399.43 830.604 2398.62 830.604ZM2356.68 824.511H2395.57V785.665H2356.68V824.511Z" fill="#0C296A"/>
<path d="M2353.64 474.089H2398.63V519.029H2353.64V474.089Z" fill="white"/>
<path d="M2398.62 522.075H2353.63C2352.83 522.075 2352.05 521.754 2351.48 521.183C2350.91 520.611 2350.58 519.837 2350.58 519.029V474.089C2350.58 473.281 2350.91 472.506 2351.48 471.935C2352.05 471.364 2352.83 471.043 2353.63 471.043H2398.62C2399.43 471.043 2400.21 471.364 2400.78 471.935C2401.35 472.506 2401.67 473.281 2401.67 474.089V519.029C2401.67 519.837 2401.35 520.611 2400.78 521.183C2400.21 521.754 2399.43 522.075 2398.62 522.075ZM2356.68 515.982H2395.57V477.136H2356.68V515.982ZM2315.94 558.678H2059.94C2059.13 558.678 2058.35 558.357 2057.78 557.786C2057.21 557.215 2056.89 556.44 2056.89 555.632C2056.89 554.824 2057.21 554.049 2057.78 553.478C2058.35 552.906 2059.13 552.586 2059.94 552.586H2315.94C2316.75 552.586 2317.52 552.906 2318.1 553.478C2318.67 554.049 2318.99 554.824 2318.99 555.632C2318.99 556.44 2318.67 557.215 2318.1 557.786C2317.52 558.357 2316.75 558.678 2315.94 558.678ZM2276.67 622.139H2059.94C2059.13 622.139 2058.35 621.818 2057.78 621.247C2057.21 620.676 2056.89 619.901 2056.89 619.093C2056.89 618.285 2057.21 617.51 2057.78 616.939C2058.35 616.368 2059.13 616.047 2059.94 616.047H2276.67C2277.48 616.047 2278.25 616.368 2278.83 616.939C2279.4 617.51 2279.72 618.285 2279.72 619.093C2279.72 619.901 2279.4 620.676 2278.83 621.247C2278.25 621.818 2277.48 622.139 2276.67 622.139ZM2329.63 685.599H2187.94C2187.13 685.599 2186.35 685.278 2185.78 684.707C2185.21 684.135 2184.89 683.36 2184.89 682.553C2184.89 681.745 2185.21 680.97 2185.78 680.398C2186.35 679.827 2187.13 679.506 2187.94 679.506H2329.63C2330.44 679.506 2331.22 679.827 2331.79 680.398C2332.36 680.97 2332.68 681.745 2332.68 682.553C2332.68 683.36 2332.36 684.135 2331.79 684.707C2331.22 685.278 2330.44 685.599 2329.63 685.599ZM2158.27 685.599H2059.94C2059.13 685.599 2058.35 685.278 2057.78 684.707C2057.21 684.135 2056.89 683.36 2056.89 682.553C2056.89 681.745 2057.21 680.97 2057.78 680.398C2058.35 679.827 2059.13 679.506 2059.94 679.506H2158.27C2159.07 679.506 2159.85 679.827 2160.42 680.398C2160.99 680.97 2161.32 681.745 2161.32 682.553C2161.32 683.36 2160.99 684.135 2160.42 684.707C2159.85 685.278 2159.07 685.599 2158.27 685.599ZM2220.07 749.06H2059.94C2059.13 749.06 2058.35 748.739 2057.78 748.168C2057.21 747.596 2056.89 746.822 2056.89 746.014C2056.89 745.206 2057.21 744.431 2057.78 743.86C2058.35 743.288 2059.13 742.967 2059.94 742.967H2220.07C2220.88 742.967 2221.66 743.288 2222.23 743.86C2222.8 744.431 2223.12 745.206 2223.12 746.014C2223.12 746.822 2222.8 747.596 2222.23 748.168C2221.66 748.739 2220.88 749.06 2220.07 749.06ZM2376.13 802.182V960.276L2420.63 910.273L2487.47 914.543L2376.13 802.182Z" fill="#0C296A"/>
<path d="M2376.13 963.322C2375.32 963.322 2374.54 963.001 2373.97 962.43C2373.4 961.858 2373.08 961.083 2373.08 960.276V802.183C2373.08 801.579 2373.26 800.989 2373.6 800.487C2373.93 799.985 2374.41 799.595 2374.97 799.365C2375.53 799.135 2376.14 799.077 2376.74 799.197C2377.33 799.317 2377.87 799.611 2378.3 800.04L2489.64 912.401C2490.53 913.3 2490.77 914.654 2490.24 915.805C2489.72 916.957 2488.53 917.653 2487.27 917.583L2421.92 913.406L2378.41 962.297C2378.12 962.618 2377.77 962.875 2377.38 963.052C2376.99 963.228 2376.56 963.319 2376.13 963.319L2376.13 963.322ZM2379.18 809.592V952.264L2418.35 908.25C2418.66 907.905 2419.04 907.634 2419.47 907.458C2419.9 907.282 2420.36 907.206 2420.82 907.234L2479.66 910.994L2379.18 809.592Z" fill="#0C296A"/>
<path d="M1756.95 1054.11H1419.19C1402.19 1054.11 1388.41 1067.88 1388.41 1084.86V1084.86C1388.41 1101.85 1402.19 1115.61 1419.19 1115.61H1756.95C1773.95 1115.61 1787.74 1101.85 1787.74 1084.86V1084.86C1787.74 1067.88 1773.95 1054.11 1756.95 1054.11Z" fill="#0C296A"/>
<path d="M1756.95 1118.66H1419.19C1400.54 1118.66 1385.36 1103.5 1385.36 1084.86C1385.36 1066.23 1400.54 1051.07 1419.19 1051.07H1756.95C1775.61 1051.07 1790.79 1066.23 1790.79 1084.86C1790.79 1103.5 1775.61 1118.66 1756.95 1118.66ZM1419.19 1057.16C1403.9 1057.16 1391.46 1069.59 1391.46 1084.86C1391.46 1100.14 1403.9 1112.56 1419.19 1112.56H1756.95C1772.25 1112.56 1784.69 1100.14 1784.69 1084.86C1784.69 1069.59 1772.25 1057.16 1756.95 1057.16H1419.19Z" fill="#0C296A"/>
</g>
<g clip-path="url(#clip1_1_522)">
<path d="M97.8498 1995.07H2938.15V2063.33H97.8498V1995.07Z" fill="white"/>
<path d="M2938.15 2066.4H97.8498C97.041 2066.4 96.2652 2066.08 95.6933 2065.5C95.1213 2064.92 94.8 2064.14 94.8 2063.33V1995.07C94.8 1994.26 95.1213 1993.48 95.6933 1992.9C96.2652 1992.32 97.041 1992 97.8498 1992H2938.15C2938.96 1992 2939.73 1992.32 2940.31 1992.9C2940.88 1993.48 2941.2 1994.26 2941.2 1995.07V2063.33C2941.2 2063.73 2941.12 2064.13 2940.97 2064.5C2940.81 2064.87 2940.59 2065.21 2940.31 2065.5C2940.02 2065.78 2939.69 2066.01 2939.32 2066.17C2938.95 2066.32 2938.55 2066.4 2938.15 2066.4ZM100.9 2060.25H2935.1V1998.15H100.9V2060.25Z" fill="#0C296A"/>
</g>
<g clip-path="url(#clip2_1_522)">
<path d="M907.129 478.717C995.508 503.027 1080.25 574.456 1080.22 676.879C1080.2 753.049 1037.52 762.017 1037.52 762.017C1037.52 762.017 926.733 768.869 876.254 833.134C827.895 894.696 783.255 1243.15 680.383 1303.61C600.716 1350.43 423.626 1369.44 347.617 1319.5C271.609 1269.56 278.661 1156.42 311.989 1089.81C367.089 979.69 506.187 978.714 553.494 814.253C570.925 753.651 567.16 644.908 656.837 545.666C716.682 479.442 810.546 452.151 907.129 478.717Z" fill="#E12121"/>
<path d="M479.68 1352.05C423.221 1352.05 375.565 1341.52 345.939 1322.05C301.398 1292.78 288.628 1245.59 285.757 1211.16C282.368 1170.5 291.154 1124.63 309.257 1088.45C332.993 1041.01 371.548 1013.91 412.366 985.224C467.067 946.777 523.631 907.023 550.557 813.411C554.639 799.223 557.504 782.602 560.822 763.357C571.252 702.866 585.534 620.022 654.569 543.623C684.637 510.349 723.652 486.431 767.398 474.451C811.896 462.267 860.495 462.723 907.938 475.774C995.234 499.787 1083.31 571.283 1083.28 676.881C1083.27 699.136 1079.42 729.897 1061.12 750.063C1049.91 762.418 1038.62 764.906 1038.14 765.005C1038 765.035 1037.85 765.055 1037.7 765.064C1036.61 765.132 927.689 772.596 878.654 835.02C860.843 857.693 843.266 921.13 822.912 994.582C789.17 1116.35 747.177 1267.9 681.93 1306.24C642.646 1329.33 577.854 1346.44 512.835 1350.89C501.512 1351.66 490.433 1352.05 479.68 1352.05ZM834.065 471.741C811.826 471.741 789.95 474.605 769.014 480.339C726.393 492.009 688.387 515.308 659.103 547.714C591.253 622.801 577.145 704.639 566.843 764.393C563.494 783.815 560.603 800.587 556.429 815.099C528.907 910.778 471.447 951.163 415.88 990.217C375.71 1018.45 337.767 1045.12 314.721 1091.18C297.096 1126.4 288.545 1171.06 291.846 1210.65C294.604 1243.74 306.809 1289.03 349.295 1316.95C383.47 1339.4 442.928 1349.55 512.42 1344.8C576.551 1340.41 640.317 1323.62 678.835 1300.98C741.949 1263.89 783.577 1113.66 817.026 992.952C837.555 918.868 855.284 854.885 873.85 831.251C900.431 797.411 943.513 779.559 974.971 770.543C1007.16 761.316 1034.14 759.197 1037.07 758.989C1040.34 758.192 1077.15 747.638 1077.17 676.879C1077.2 574.496 991.38 505.057 906.316 481.659C882.291 475.05 857.967 471.741 834.065 471.741Z" fill="#E12121"/>
<path d="M1238.68 1994.85C938.302 1987.13 980.955 1541.83 890.147 1314.44C768.348 1264.57 809.628 1083.86 943.29 1078.9C1030.27 1075.9 1118.02 1143.51 1153.7 1251.04C1196.69 1370.25 1220.6 1553.57 1260.08 1678.79C1274.86 1725.88 1287.34 1750.12 1294.82 1761.86C1466.43 1767.05 1423.19 1999.03 1238.68 1994.85Z" fill="white"/>
<path d="M1243.71 1997.95C1242.02 1997.95 1240.33 1997.94 1238.61 1997.9H1238.6C1142 1995.42 1071.96 1947.7 1024.49 1852.03C982.806 1768.01 963.162 1658.3 944.163 1552.19C928.525 1464.85 913.749 1382.32 887.785 1316.76C834.349 1294.29 806.462 1242.85 816.69 1185.35C826.029 1132.83 868.763 1078.61 943.177 1075.85C1033.76 1072.73 1121.52 1144.37 1156.61 1250.08C1179.84 1314.51 1197.74 1398.71 1215.05 1480.13C1229.7 1549.06 1244.86 1620.35 1262.99 1677.87C1276.97 1722.4 1288.82 1746.38 1296.55 1758.86C1379.12 1762.05 1407.09 1815.7 1405.89 1860.92C1404.97 1895.33 1388.6 1929.67 1360.96 1955.16C1339.61 1974.86 1302.1 1997.95 1243.71 1997.95ZM1238.75 1991.8C1298.05 1993.14 1335.68 1970.17 1356.82 1950.68C1383.25 1926.3 1398.91 1893.53 1399.78 1860.76C1400.46 1835.33 1391.81 1812.1 1375.44 1795.36C1356.96 1776.48 1329.05 1765.95 1294.73 1764.91C1294.23 1764.89 1293.75 1764.76 1293.31 1764.51C1292.88 1764.26 1292.51 1763.92 1292.25 1763.5C1284.36 1751.12 1271.86 1726.54 1257.17 1679.7C1238.94 1621.9 1223.76 1550.48 1209.07 1481.4C1191.81 1400.18 1173.95 1316.19 1150.83 1252.08C1117.29 1151.01 1034.82 1081.86 948.901 1081.86C947.063 1081.86 945.237 1081.89 943.397 1081.95C872.393 1084.58 831.615 1136.32 822.706 1186.42C818.223 1211.63 821.646 1237.3 832.342 1258.71C844.166 1282.37 864.555 1300.66 891.307 1311.61C892.072 1311.93 892.679 1312.54 892.986 1313.31C919.475 1379.64 934.388 1462.93 950.177 1551.12C969.099 1656.8 988.667 1766.08 1029.97 1849.32C1052.16 1894.04 1078.46 1927.18 1110.36 1950.63C1146.28 1977.03 1188.28 1990.5 1238.75 1991.8Z" fill="#0C296A"/>
<path d="M1015.95 1090.42C971.317 1074.74 927.039 1063.43 846.792 1053.82L666.104 1025.89C573.852 1022.47 432.96 1031.56 367.845 1095.26C278.238 1182.92 312.896 1435.42 344.601 1503.47C331.029 1702.74 313.987 1816.25 278.524 1994.84H996.803C996.803 1994.84 979.576 1752.99 999.451 1653.27C1009.64 1602.13 1040.46 1547.2 1040.27 1494.82C1040.12 1453.91 1011.63 1348.99 1011.63 1348.99" fill="white"/>
<path d="M996.803 1997.9H278.524C278.072 1997.9 277.627 1997.8 277.219 1997.6C276.811 1997.41 276.451 1997.13 276.164 1996.78C275.878 1996.43 275.672 1996.03 275.562 1995.59C275.452 1995.15 275.44 1994.69 275.527 1994.25C309.781 1821.76 327.452 1709.93 341.501 1504.05C333.431 1486.41 325.338 1457.26 319.253 1423.86C312.348 1385.98 308.347 1345.49 307.678 1306.77C306.89 1261.15 310.693 1220.43 318.981 1185.75C328.697 1145.08 344.419 1113.91 365.708 1093.08C395.223 1064.2 442.512 1043.79 506.26 1032.4C565.61 1021.8 626.005 1021.35 666.217 1022.84C666.336 1022.85 666.454 1022.86 666.57 1022.87L847.257 1050.8C929.511 1060.65 973.186 1072.16 1016.96 1087.54C1017.72 1087.8 1018.35 1088.37 1018.7 1089.09C1019.05 1089.82 1019.1 1090.66 1018.83 1091.43C1018.56 1092.19 1018 1092.82 1017.27 1093.17C1016.54 1093.52 1015.7 1093.56 1014.93 1093.3C971.552 1078.06 928.233 1066.64 846.429 1056.85L665.814 1028.94C469.443 1021.68 393.512 1074.42 369.983 1097.44C281.908 1183.6 315.893 1434.61 347.371 1502.19C347.59 1502.65 347.684 1503.17 347.651 1503.68C333.758 1707.65 315.441 1824.27 282.244 1991.79H993.534C991.586 1962.51 977.986 1745.35 996.457 1652.68C1000.48 1632.49 1007.8 1611.39 1014.88 1590.98C1025.92 1559.15 1037.33 1526.23 1037.22 1494.83C1037.07 1454.79 1008.96 1350.84 1008.68 1349.79C1008.47 1349.01 1008.57 1348.18 1008.98 1347.48C1009.38 1346.77 1010.05 1346.26 1010.83 1346.05C1011.61 1345.84 1012.44 1345.95 1013.14 1346.35C1013.85 1346.75 1014.36 1347.41 1014.57 1348.2C1015.74 1352.49 1043.17 1453.97 1043.32 1494.81C1043.44 1527.25 1031.85 1560.66 1020.65 1592.98C1013.31 1614.12 1006.39 1634.09 1002.45 1653.87C982.881 1752.05 999.678 1992.21 999.849 1994.63C999.879 1995.05 999.822 1995.47 999.682 1995.86C999.543 1996.26 999.323 1996.62 999.037 1996.92C998.752 1997.23 998.406 1997.48 998.022 1997.65C997.637 1997.81 997.222 1997.9 996.803 1997.9Z" fill="#0C296A"/>
<path d="M858.321 1012.15L846.793 1053.82L891.432 1059.48C868.246 1114.72 823.155 1136.03 760.028 1133.55C690.193 1130.81 622.352 1091.73 609.038 1025.62L666.104 1025.89L721.697 833.361" fill="white"/>
<path d="M769.591 1136.79C766.416 1136.79 763.196 1136.73 759.909 1136.6C723.919 1135.19 689.017 1124.28 661.634 1105.88C631.713 1085.78 612.491 1058.24 606.044 1026.22C605.955 1025.78 605.966 1025.32 606.075 1024.88C606.184 1024.44 606.389 1024.03 606.675 1023.68C606.962 1023.33 607.322 1023.05 607.731 1022.86C608.139 1022.67 608.585 1022.56 609.038 1022.56H609.053L663.809 1022.83L718.762 832.514C718.992 831.744 719.518 831.095 720.225 830.71C720.931 830.324 721.762 830.233 722.535 830.456C723.309 830.679 723.963 831.198 724.355 831.901C724.747 832.603 724.847 833.432 724.631 834.207L669.038 1026.74C668.854 1027.37 668.469 1027.93 667.94 1028.33C667.41 1028.73 666.766 1028.94 666.104 1028.94H666.089L612.836 1028.69C619.656 1057.53 637.64 1082.41 665.041 1100.81C691.497 1118.58 725.272 1129.13 760.147 1130.5C823.543 1132.99 865.085 1110.57 887.005 1062L846.406 1056.85C845.971 1056.79 845.554 1056.65 845.181 1056.42C844.808 1056.19 844.49 1055.88 844.247 1055.51C844.004 1055.15 843.843 1054.74 843.773 1054.3C843.704 1053.87 843.729 1053.43 843.847 1053.01L855.375 1011.34C855.477 1010.94 855.655 1010.58 855.9 1010.25C856.145 1009.93 856.453 1009.66 856.804 1009.46C857.155 1009.25 857.543 1009.12 857.945 1009.07C858.347 1009.02 858.755 1009.05 859.146 1009.16C859.537 1009.26 859.903 1009.45 860.221 1009.7C860.54 1009.95 860.806 1010.26 861.003 1010.62C861.2 1010.97 861.324 1011.36 861.369 1011.76C861.414 1012.17 861.377 1012.57 861.263 1012.96L850.673 1051.24L891.814 1056.45C892.281 1056.51 892.728 1056.68 893.12 1056.94C893.512 1057.2 893.838 1057.55 894.074 1057.95C894.309 1058.36 894.447 1058.82 894.477 1059.29C894.507 1059.76 894.427 1060.23 894.246 1060.66C872.776 1111.82 831.939 1136.79 769.591 1136.79Z" fill="#0C296A"/>
<path d="M717.694 824.156C672.648 785.349 647.475 707.114 660.078 652.144C679.496 567.451 776.215 517.333 876.105 540.201C912.497 548.532 944.281 565.409 969.055 587.585C1018.23 625.072 1046.46 714.017 1035.08 812.225C1020.8 935.39 949.968 1023.67 876.127 1015.69C816.944 1009.29 784.705 954.461 772.979 935.307" fill="white"/>
<path d="M885.548 1019.25C882.311 1019.25 879.061 1019.07 875.798 1018.72C816.426 1012.3 783.553 958.478 771.178 938.216L770.375 936.902C770.165 936.56 770.025 936.18 769.963 935.784C769.9 935.388 769.917 934.984 770.011 934.594C770.104 934.205 770.274 933.837 770.51 933.513C770.746 933.189 771.044 932.914 771.386 932.705C771.728 932.496 772.108 932.356 772.504 932.294C772.9 932.231 773.305 932.247 773.695 932.341C774.085 932.435 774.453 932.605 774.777 932.84C775.101 933.076 775.376 933.374 775.586 933.715L776.393 935.037C788.339 954.597 820.074 1006.56 876.457 1012.65C911.277 1016.42 946.466 998.164 975.539 961.251C1005.17 923.628 1025.24 870.578 1032.04 811.877C1043.03 717.11 1016.97 627.95 967.204 590.014C967.14 589.966 967.077 589.914 967.018 589.86C941.769 567.259 910.096 551.116 875.424 543.179C827.817 532.278 779.481 537.737 739.321 558.548C699.328 579.272 672.243 612.755 663.056 652.828C650.579 707.25 676.514 784.65 719.689 821.847C720.302 822.376 720.68 823.126 720.74 823.934C720.799 824.741 720.536 825.539 720.006 826.152C719.477 826.765 718.726 827.143 717.918 827.202C717.11 827.262 716.312 826.998 715.698 826.47C670.241 787.309 643.954 708.802 657.1 651.464C666.695 609.614 694.896 574.691 736.508 553.129C777.953 531.652 827.771 526.006 876.787 537.228C912.422 545.387 944.999 561.988 971.002 585.235C1022.36 624.47 1049.32 715.81 1038.11 812.581C1024.37 931.193 958.42 1019.25 885.548 1019.25Z" fill="#0C296A"/>
<path d="M986.167 651.464C931.572 722.221 861.367 775.428 757.322 764.443C735.201 762.107 698.96 804.413 698.96 804.413C698.96 804.413 633.47 781.903 636.405 671.312C639.523 553.864 761.609 484.035 857.808 501.056C933.435 514.436 1054.75 607.868 1043.15 732.917C1033.41 696.387 1017.44 676.15 986.167 651.464Z" fill="#E12121"/>
<path d="M698.96 807.465C698.629 807.465 698.293 807.41 697.967 807.299C697.266 807.058 680.59 801.162 664.223 781.273C637.167 748.393 632.501 703.284 633.352 671.231C634.679 621.261 657.83 575.455 698.542 542.254C743.585 505.519 804.815 488.578 858.341 498.051C899.461 505.326 949.34 534.752 985.414 573.018C1029.82 620.124 1051.4 677.011 1046.19 733.2C1046.12 733.913 1045.81 734.581 1045.3 735.085C1044.79 735.59 1044.12 735.9 1043.4 735.96C1042.69 736.017 1041.98 735.822 1041.39 735.41C1040.81 734.998 1040.38 734.394 1040.2 733.703C1031.41 700.735 1017.77 680.757 986.685 655.778C919.739 741.44 846.679 776.954 757.003 767.479C740.167 765.711 711.075 794.971 701.282 806.398C700.994 806.733 700.638 807.001 700.238 807.185C699.837 807.37 699.401 807.465 698.96 807.465ZM828.182 501.562C784.236 501.562 738.104 517.868 702.404 546.983C663.092 579.045 640.739 623.228 639.459 671.395C636.892 768.042 687.691 796.049 698.108 800.76C701.156 797.349 708.626 789.265 717.839 781.252C734.199 767.024 747.598 760.352 757.641 761.411C766.746 762.372 775.683 762.856 784.451 762.856C860.632 762.858 924.519 726.363 983.747 649.604C984.246 648.958 984.982 648.538 985.792 648.438C986.601 648.337 987.418 648.566 988.058 649.072C1016.33 671.387 1031.22 689.64 1040.84 715.447C1040.49 666.706 1019.61 618.198 980.964 577.207C945.735 539.837 897.182 511.126 857.274 504.065C847.784 502.382 838.037 501.562 828.182 501.562Z" fill="#E12121"/>
<path d="M726.552 848.903C698.194 854.191 670.913 835.504 665.622 807.166C660.33 778.828 679.03 751.568 707.389 746.28C731.025 741.872 753.912 754.119 763.942 774.728" fill="white"/>
<path d="M716.947 852.847C690.855 852.847 667.575 834.265 662.618 807.726C659.91 793.219 663.016 778.526 671.367 766.354C679.718 754.182 692.311 745.987 706.828 743.279C731.228 738.736 755.845 751.113 766.688 773.394C766.87 773.755 766.977 774.148 767.006 774.552C767.034 774.955 766.981 775.359 766.852 775.742C766.722 776.125 766.517 776.478 766.25 776.781C765.983 777.084 765.658 777.331 765.294 777.508C764.93 777.685 764.535 777.788 764.132 777.811C763.728 777.833 763.324 777.776 762.942 777.642C762.561 777.507 762.21 777.298 761.91 777.027C761.61 776.756 761.367 776.429 761.195 776.063C751.551 756.247 729.654 745.236 707.948 749.28C695.034 751.688 683.832 758.977 676.405 769.804C668.977 780.632 666.214 793.701 668.622 806.606C673.598 833.244 699.33 850.873 725.99 845.903C726.786 845.754 727.609 845.928 728.278 846.386C728.946 846.844 729.405 847.548 729.554 848.344C729.702 849.14 729.528 849.962 729.07 850.63C728.612 851.298 727.907 851.756 727.111 851.905C723.759 852.529 720.357 852.845 716.947 852.847Z" fill="#0C296A"/>
<path d="M721.908 836.179C720.303 836.187 718.712 835.893 717.216 835.312C712.771 833.555 709.563 829.151 709.043 824.092C708.533 819.129 710.634 814.584 714.667 811.937C716.587 810.676 718.895 809.625 721.338 808.512C730.362 804.401 738.887 800.518 733.501 786.05C729.878 776.319 718.832 773.385 709.791 775.514C701.055 777.571 691.407 785.103 692.958 799.563C693.005 799.963 692.971 800.369 692.86 800.756C692.749 801.144 692.562 801.505 692.31 801.82C692.059 802.135 691.747 802.397 691.393 802.591C691.04 802.784 690.651 802.906 690.25 802.949C689.849 802.992 689.444 802.956 689.057 802.841C688.67 802.727 688.31 802.537 687.997 802.283C687.684 802.029 687.425 801.715 687.234 801.36C687.043 801.005 686.924 800.616 686.885 800.215C685.037 782.981 696.355 772.406 708.392 769.571C720.042 766.829 734.373 770.874 739.228 783.921C746.596 803.717 732.922 809.945 723.873 814.066C721.65 815.079 719.551 816.034 718.024 817.037C715.012 819.015 714.991 822.192 715.122 823.466C715.413 826.283 717.117 828.704 719.466 829.633C722.705 830.914 726.996 829.446 731.546 825.498C731.849 825.235 732.2 825.034 732.581 824.907C732.961 824.78 733.363 824.729 733.763 824.757C734.163 824.785 734.553 824.892 734.912 825.07C735.271 825.249 735.591 825.497 735.854 825.8C736.117 826.102 736.318 826.454 736.445 826.834C736.572 827.214 736.623 827.615 736.595 828.015C736.567 828.415 736.46 828.805 736.281 829.164C736.102 829.522 735.854 829.842 735.552 830.105C730.065 834.866 725.391 836.179 721.908 836.179ZM917.993 826.344C917.559 826.345 917.13 826.253 916.734 826.075C916.338 825.896 915.985 825.636 915.698 825.31C915.411 824.985 915.197 824.602 915.07 824.187C914.942 823.772 914.905 823.335 914.96 822.905L919.803 785.145C919.917 784.352 920.339 783.635 920.978 783.15C921.616 782.665 922.42 782.451 923.215 782.553C924.01 782.655 924.734 783.065 925.229 783.695C925.724 784.326 925.951 785.125 925.861 785.921L921.019 823.681C920.924 824.417 920.565 825.093 920.008 825.583C919.451 826.073 918.735 826.343 917.993 826.344ZM1002.06 839.138C1001.63 839.138 1001.2 839.046 1000.8 838.868C1000.41 838.689 1000.05 838.429 999.767 838.103C999.48 837.778 999.266 837.395 999.139 836.98C999.011 836.565 998.974 836.128 999.029 835.698L1003.87 797.938C1003.98 797.136 1004.4 796.408 1005.04 795.914C1005.68 795.419 1006.49 795.198 1007.29 795.299C1008.09 795.402 1008.82 795.82 1009.32 796.461C1009.81 797.101 1010.03 797.912 1009.93 798.715L1005.09 836.475C1004.99 837.21 1004.63 837.886 1004.08 838.376C1003.52 838.866 1002.8 839.137 1002.06 839.138ZM964.744 885.366C964.074 885.367 963.423 885.149 962.89 884.744C962.357 884.339 961.972 883.77 961.794 883.126C961.616 882.481 961.655 881.795 961.904 881.174C962.154 880.554 962.601 880.032 963.177 879.69C981.74 868.634 985.341 854.859 981.931 849.033C979.228 844.416 970.619 842.156 955.24 850.976C954.537 851.378 953.704 851.486 952.922 851.275C952.14 851.063 951.474 850.55 951.071 849.848C950.668 849.146 950.56 848.312 950.772 847.531C950.983 846.75 951.497 846.084 952.199 845.682C964.234 838.778 980.62 834.707 987.204 845.95C994.414 858.266 982.241 875.443 966.305 884.933C965.833 885.216 965.294 885.366 964.744 885.366ZM907.929 947.698C907.865 947.698 907.802 947.696 907.738 947.691C896.266 946.982 886.405 942.106 879.221 933.589C870.847 923.663 866.556 909.127 868.021 895.655C868.057 895.251 868.174 894.859 868.364 894.501C868.554 894.143 868.814 893.827 869.128 893.57C869.442 893.313 869.804 893.122 870.192 893.006C870.581 892.891 870.989 892.854 871.392 892.898C871.795 892.941 872.186 893.065 872.541 893.261C872.896 893.457 873.208 893.722 873.459 894.04C873.711 894.358 873.896 894.723 874.005 895.113C874.114 895.504 874.143 895.912 874.093 896.314C872.802 908.186 876.556 920.96 883.891 929.656C890.059 936.969 898.209 940.987 908.114 941.601C908.901 941.656 909.636 942.013 910.165 942.598C910.695 943.183 910.977 943.95 910.953 944.738C910.929 945.526 910.601 946.274 910.037 946.826C909.474 947.378 908.718 947.69 907.929 947.698ZM754.816 1058.62L772.348 1120.06L818.124 1056.27L865.783 1029.05L865.388 1056.18L891.432 1059.48C891.432 1059.48 870.771 1137.52 760.028 1133.55C649.285 1129.58 617.969 1065.62 609.038 1025.62L666.104 1025.89L678.482 979.987L754.816 1058.62Z" fill="#0C296A"/>
<path d="M767.976 1136.74C765.344 1136.74 762.659 1136.7 759.92 1136.6C710.342 1134.82 671.428 1120.93 644.258 1095.31C620.4 1072.82 610.316 1045.36 606.058 1026.28C605.958 1025.83 605.961 1025.37 606.064 1024.93C606.168 1024.48 606.37 1024.06 606.657 1023.71C606.943 1023.35 607.306 1023.06 607.718 1022.86C608.131 1022.67 608.583 1022.56 609.041 1022.56H609.056L663.771 1022.83L675.536 979.19C675.677 978.67 675.953 978.196 676.337 977.817C676.72 977.437 677.198 977.166 677.72 977.031C678.242 976.896 678.791 976.901 679.31 977.046C679.83 977.191 680.302 977.471 680.678 977.858L757.012 1056.5C757.363 1056.86 757.618 1057.3 757.757 1057.78L773.554 1113.14L815.645 1054.48C815.9 1054.13 816.23 1053.83 816.612 1053.61L864.271 1026.39C864.739 1026.12 865.27 1025.98 865.808 1025.99C866.347 1025.99 866.875 1026.14 867.339 1026.41C867.804 1026.69 868.187 1027.08 868.451 1027.55C868.715 1028.02 868.85 1028.55 868.842 1029.09L868.486 1053.49L891.822 1056.45C892.253 1056.5 892.668 1056.65 893.039 1056.88C893.409 1057.11 893.727 1057.41 893.97 1057.77C894.213 1058.13 894.377 1058.54 894.449 1058.97C894.522 1059.4 894.502 1059.84 894.391 1060.26C894.171 1061.09 888.792 1080.78 869.426 1100.16C852.484 1117.1 821.333 1136.74 767.976 1136.74ZM612.907 1028.69C617.429 1046.66 627.229 1070.87 648.45 1090.88C674.508 1115.45 712.086 1128.78 760.138 1130.5C804.387 1132.09 840.61 1120.19 864.861 1096.08C878.619 1082.41 885.001 1068.31 887.352 1062.04L865.003 1059.21C864.258 1059.11 863.573 1058.75 863.081 1058.18C862.589 1057.61 862.322 1056.89 862.333 1056.14L862.651 1034.35L820.218 1058.59L774.83 1121.84C774.495 1122.31 774.035 1122.67 773.504 1122.89C772.972 1123.11 772.39 1123.17 771.824 1123.07C771.258 1122.97 770.731 1122.72 770.304 1122.33C769.877 1121.95 769.567 1121.45 769.41 1120.9L752.088 1060.2L680.032 985.967L669.053 1026.69C668.878 1027.33 668.495 1027.91 667.961 1028.31C667.428 1028.72 666.776 1028.94 666.104 1028.94H666.089L612.907 1028.69Z" fill="#0C296A"/>
<path d="M575.809 1027.26C585.449 1125.01 674.693 1167.66 761.19 1171.06C839.38 1174.14 902.596 1140.28 927.321 1066.17L891.434 1059.48C891.434 1059.48 873.292 1135.82 760.03 1133.55C637.246 1131.08 615.007 1049.31 609.039 1025.61L575.809 1027.26Z" fill="white"/>
<path d="M771.057 1174.31C767.765 1174.31 764.437 1174.25 761.07 1174.11C714.151 1172.27 670.429 1159.11 637.961 1137.07C599.824 1111.17 577.281 1073.31 572.77 1027.56C572.729 1027.15 572.772 1026.73 572.897 1026.34C573.022 1025.94 573.226 1025.58 573.496 1025.27C573.766 1024.95 574.097 1024.7 574.469 1024.52C574.841 1024.34 575.246 1024.23 575.659 1024.21L608.889 1022.57C609.594 1022.54 610.287 1022.75 610.854 1023.17C611.42 1023.59 611.825 1024.19 612.002 1024.87C614.54 1034.95 621.284 1061.72 642.986 1085.49C669.317 1114.32 708.717 1129.47 760.092 1130.5C785.434 1131.01 807.932 1127.54 827.002 1120.19C842.177 1114.34 855.226 1106.02 865.788 1095.47C883.795 1077.49 888.421 1058.96 888.465 1058.77C888.648 1058.01 889.117 1057.35 889.773 1056.93C890.43 1056.5 891.226 1056.34 891.996 1056.48L927.885 1063.18C928.314 1063.26 928.721 1063.43 929.078 1063.68C929.435 1063.93 929.734 1064.25 929.956 1064.63C930.177 1065 930.315 1065.42 930.361 1065.85C930.407 1066.29 930.359 1066.73 930.222 1067.14C917.986 1103.81 896.341 1131.75 865.888 1150.17C839.378 1166.21 807.516 1174.31 771.057 1174.31ZM579.192 1030.15C584.256 1073.16 605.171 1107.42 641.393 1132.02C672.929 1153.43 715.516 1166.22 761.309 1168.01C800.74 1169.56 834.864 1161.8 862.723 1144.95C890.977 1127.86 911.338 1102.15 923.282 1068.52L893.584 1062.99C891.573 1069.13 885.435 1084.37 870.371 1099.52C838.709 1131.37 792.847 1137.25 759.967 1136.6C706.853 1135.53 665.976 1119.72 638.471 1089.6C617.312 1066.43 609.768 1040.7 606.693 1028.79L579.192 1030.15Z" fill="#0C296A"/>
<path d="M818.126 1056.27L865.783 1029.05L902.491 1061.54L872.42 1187.82L818.126 1056.27Z" fill="#0C296A"/>
<path d="M872.419 1190.87C871.814 1190.87 871.223 1190.69 870.721 1190.36C870.219 1190.02 869.827 1189.54 869.597 1188.98L815.302 1057.43C815.019 1056.75 814.995 1055.98 815.236 1055.28C815.476 1054.58 815.965 1053.99 816.609 1053.62L864.268 1026.4C864.823 1026.08 865.462 1025.95 866.098 1026.01C866.733 1026.08 867.331 1026.34 867.81 1026.76L904.517 1059.26C905.36 1060.01 905.724 1061.16 905.464 1062.25L875.394 1188.53C875.234 1189.2 874.854 1189.79 874.314 1190.22C873.774 1190.64 873.106 1190.87 872.419 1190.87ZM821.973 1057.59L871.638 1177.92L899.096 1062.62L865.398 1032.78L821.973 1057.59ZM754.816 1058.62L678.482 979.987L600.453 1026.04L677.593 1200.96L754.816 1058.62Z" fill="#0C296A"/>
<path d="M677.595 1204.01L677.47 1204.01C676.899 1203.99 676.346 1203.8 675.873 1203.48C675.401 1203.16 675.029 1202.71 674.799 1202.19L597.657 1027.27C597.355 1026.59 597.315 1025.82 597.544 1025.11C597.773 1024.4 598.255 1023.79 598.899 1023.41L676.929 977.359C677.519 977.011 678.21 976.871 678.889 976.963C679.569 977.054 680.198 977.371 680.675 977.862L757.009 1056.5C757.937 1057.46 758.137 1058.91 757.502 1060.08L680.28 1202.41C680.017 1202.9 679.629 1203.3 679.157 1203.58C678.684 1203.86 678.145 1204.01 677.595 1204.01ZM604.341 1027.29L677.877 1194.03L751.062 1059.14L677.966 983.837L604.341 1027.29Z" fill="#0C296A"/>
<path d="M1231.83 1772.98C1246.55 1648.61 1186.16 1477.09 1133.75 1356.06C1231.34 1333.69 1309.3 1305.06 1343.14 1226.3C1425.95 1409.45 1513.96 1653.61 1465.46 1846.19C1433.14 1952.81 1374.63 1996.47 1238.68 1994.85" fill="white"/>
<path d="M1246.06 1997.94C1243.61 1997.94 1241.14 1997.93 1238.64 1997.9C1237.83 1997.89 1237.06 1997.56 1236.49 1996.98C1235.93 1996.4 1235.61 1995.62 1235.62 1994.81C1235.64 1993.12 1237 1991.74 1238.71 1991.79C1306.57 1992.62 1354.4 1982.05 1389.22 1958.58C1422.64 1936.05 1445.94 1900.06 1462.53 1845.31C1484.1 1759.67 1480.09 1654.69 1450.57 1533.43C1428.93 1444.52 1393.77 1346.43 1343.13 1233.73C1309.38 1305.05 1239.31 1334.69 1138 1358.21C1190.61 1480.3 1249.44 1650.19 1234.87 1773.34C1234.82 1773.74 1234.7 1774.13 1234.51 1774.49C1234.31 1774.84 1234.05 1775.15 1233.73 1775.4C1233.42 1775.66 1233.06 1775.84 1232.67 1775.95C1232.28 1776.06 1231.87 1776.1 1231.47 1776.05C1231.07 1776 1230.68 1775.88 1230.33 1775.68C1229.98 1775.48 1229.67 1775.21 1229.42 1774.89C1229.17 1774.57 1228.99 1774.21 1228.88 1773.82C1228.78 1773.43 1228.75 1773.02 1228.8 1772.62C1243.35 1649.68 1183.62 1478.9 1130.94 1357.27C1130.77 1356.86 1130.68 1356.42 1130.69 1355.97C1130.71 1355.52 1130.82 1355.08 1131.02 1354.68C1131.22 1354.28 1131.51 1353.93 1131.86 1353.66C1132.22 1353.38 1132.63 1353.19 1133.06 1353.09C1237.35 1329.18 1308.4 1299.43 1340.33 1225.09C1340.56 1224.55 1340.95 1224.08 1341.44 1223.75C1341.94 1223.43 1342.51 1223.25 1343.11 1223.24C1344.34 1223.29 1345.42 1223.94 1345.92 1225.04C1398.21 1340.69 1434.38 1441.09 1456.51 1531.99C1486.26 1654.22 1490.27 1760.18 1468.42 1846.94C1435.2 1956.53 1374.61 1997.94 1246.06 1997.94Z" fill="#0C296A"/>
<path d="M1222.51 1776.72C1231.45 1703.06 1147.83 1513.25 1141.09 1474.1C1135.5 1441.68 1145.15 1414.59 1149.57 1393.54L1133.75 1356.06C1196.35 1357.3 1321.6 1294.15 1349.19 1239.89L1363.46 1271.44C1398.78 1272.6 1418.42 1291.47 1432.09 1333.46C1446.82 1378.7 1493.77 1603.31 1476.31 1780.76" fill="white"/>
<path d="M1476.31 1783.81C1475.88 1783.81 1475.46 1783.72 1475.07 1783.55C1474.68 1783.38 1474.33 1783.12 1474.05 1782.81C1473.76 1782.49 1473.54 1782.12 1473.41 1781.72C1473.27 1781.31 1473.23 1780.88 1473.27 1780.46C1490.87 1601.58 1443.49 1378.35 1429.19 1334.4C1415.69 1292.94 1396.62 1275.58 1363.36 1274.49C1362.79 1274.47 1362.24 1274.29 1361.76 1273.97C1361.29 1273.66 1360.91 1273.21 1360.68 1272.69L1348.89 1246.63C1333.95 1270.84 1299.86 1298.41 1256.02 1321.49C1213.06 1344.1 1168.6 1358.24 1138.34 1359.09L1152.39 1392.35C1152.63 1392.92 1152.69 1393.55 1152.56 1394.16C1151.73 1398.12 1150.73 1402.24 1149.67 1406.6C1145.21 1424.96 1139.66 1447.8 1144.1 1473.58C1146.16 1485.52 1155.59 1511.99 1167.54 1545.49C1194.65 1621.53 1231.79 1725.67 1225.55 1777.09C1225.45 1777.89 1225.03 1778.62 1224.4 1779.12C1223.76 1779.62 1222.95 1779.85 1222.15 1779.75C1221.34 1779.66 1220.61 1779.24 1220.11 1778.61C1219.61 1777.97 1219.39 1777.16 1219.48 1776.35C1225.55 1726.36 1187.18 1618.75 1161.79 1547.54C1149.74 1513.76 1140.23 1487.07 1138.08 1474.61C1133.42 1447.59 1139.14 1424.07 1143.74 1405.16C1144.7 1401.19 1145.62 1397.42 1146.39 1393.84L1130.93 1357.25C1130.74 1356.78 1130.66 1356.27 1130.71 1355.76C1130.76 1355.25 1130.93 1354.77 1131.22 1354.35C1131.51 1353.93 1131.89 1353.59 1132.35 1353.36C1132.8 1353.12 1133.3 1353 1133.81 1353.01C1163.09 1353.65 1208.81 1339.44 1253.18 1316.08C1299.22 1291.85 1334.09 1262.85 1346.47 1238.5C1346.73 1237.99 1347.13 1237.56 1347.62 1237.27C1348.12 1236.97 1348.68 1236.83 1349.26 1236.84C1349.83 1236.85 1350.39 1237.03 1350.87 1237.34C1351.35 1237.66 1351.73 1238.11 1351.97 1238.63L1365.47 1268.47C1400.15 1270.26 1421.01 1289.53 1435 1332.52C1449.39 1376.72 1497.05 1601.23 1479.35 1781.05C1479.27 1781.81 1478.92 1782.51 1478.36 1783.02C1477.8 1783.52 1477.07 1783.81 1476.31 1783.81Z" fill="#0C296A"/>
<path d="M1133.75 1356.06C1102.04 1284.29 1069.9 1230.74 1047.36 1207.52C1000.37 1159.12 1001.54 1081.83 1049.97 1034.88C1098.4 987.933 1175.75 989.099 1222.74 1037.49C1259.99 1075.87 1305.04 1141.12 1343.13 1226.3" fill="white"/>
<path d="M1133.75 1359.12C1132.57 1359.12 1131.46 1358.44 1130.95 1357.3C1100.85 1289.16 1068.78 1233.97 1045.17 1209.65C997.087 1160.12 998.289 1080.74 1047.85 1032.69C1097.41 984.644 1176.85 985.847 1224.93 1035.37C1267.54 1079.25 1311.64 1148.39 1345.92 1225.05C1346.09 1225.42 1346.18 1225.81 1346.19 1226.21C1346.2 1226.61 1346.13 1227.01 1345.99 1227.39C1345.84 1227.76 1345.63 1228.1 1345.35 1228.4C1345.08 1228.69 1344.75 1228.92 1344.38 1229.08C1344.01 1229.25 1343.62 1229.34 1343.22 1229.35C1342.82 1229.36 1342.42 1229.29 1342.04 1229.15C1341.67 1229.01 1341.33 1228.79 1341.04 1228.51C1340.74 1228.24 1340.51 1227.91 1340.35 1227.54C1306.34 1151.51 1262.67 1083.01 1220.55 1039.62C1174.81 992.511 1099.25 991.37 1052.1 1037.07C1004.96 1082.78 1003.82 1158.29 1049.55 1205.39C1073.64 1230.21 1106.16 1286.07 1136.54 1354.83C1136.75 1355.29 1136.83 1355.8 1136.79 1356.31C1136.75 1356.82 1136.58 1357.3 1136.31 1357.73C1136.03 1358.15 1135.65 1358.5 1135.2 1358.75C1134.76 1358.99 1134.26 1359.12 1133.75 1359.12Z" fill="#0C296A"/>
<path d="M1222.74 1037.49C1193.29 1006.93 1147.78 964.877 1111.37 955.256C1094.57 950.815 1033.95 999.789 1028.77 1015.3C1021.8 1036.18 1058.83 1089.14 1066.45 1102.23C1086.32 1136.35 1143.7 1101.78 1127.81 1072.98C1121.1 1060.81 1104.04 1034.89 1104.04 1034.89L1140.09 1067.38" fill="white"/>
<path d="M1091.02 1119.42C1080.53 1119.42 1070.35 1114.99 1063.81 1103.77C1062.69 1101.83 1060.9 1099.01 1058.64 1095.43C1044.96 1073.76 1019.5 1033.42 1025.87 1014.34C1028.97 1005.08 1047.73 987.646 1063.86 975.369C1074.36 967.373 1100.09 949.123 1112.15 952.306C1148.46 961.901 1193.52 1002.78 1224.94 1035.38C1225.22 1035.67 1225.43 1036.01 1225.58 1036.38C1225.73 1036.75 1225.8 1037.15 1225.79 1037.55C1225.78 1037.95 1225.7 1038.35 1225.54 1038.72C1225.38 1039.08 1225.14 1039.42 1224.86 1039.69C1224.57 1039.97 1224.23 1040.19 1223.85 1040.34C1223.48 1040.48 1223.08 1040.55 1222.68 1040.55C1222.28 1040.54 1221.88 1040.45 1221.51 1040.29C1221.15 1040.13 1220.81 1039.9 1220.54 1039.61C1189.67 1007.57 1145.53 967.44 1110.59 958.208C1096.53 954.493 1036.73 1001.12 1031.67 1016.27C1026.21 1032.61 1052.56 1074.35 1063.81 1092.17C1066.1 1095.8 1067.91 1098.67 1069.09 1100.7C1078.31 1116.53 1096.25 1115.79 1109.94 1108.05C1122.71 1100.82 1132.03 1086.96 1125.14 1074.45C1118.56 1062.52 1101.66 1036.82 1101.49 1036.56C1101.08 1035.94 1100.92 1035.2 1101.02 1034.46C1101.12 1033.73 1101.49 1033.06 1102.05 1032.58C1102.62 1032.1 1103.34 1031.83 1104.08 1031.84C1104.82 1031.85 1105.53 1032.13 1106.08 1032.62L1142.14 1065.11C1142.74 1065.65 1143.1 1066.41 1143.14 1067.22C1143.18 1068.03 1142.9 1068.82 1142.36 1069.42C1141.82 1070.02 1141.06 1070.38 1140.25 1070.42C1139.44 1070.47 1138.65 1070.18 1138.05 1069.64L1119 1052.48C1123.3 1059.3 1127.73 1066.5 1130.49 1071.51C1139.3 1087.48 1128.33 1104.65 1112.95 1113.36C1106.33 1117.1 1098.6 1119.42 1091.02 1119.42Z" fill="#0C296A"/>
<path d="M1169.03 1065.29C1139.58 1034.73 1105.23 1003.32 1068.82 993.697C1052.02 989.256 991.404 1038.23 986.222 1053.74C979.252 1074.61 1016.28 1127.58 1023.9 1140.67C1043.77 1174.79 1101.15 1140.22 1085.27 1111.42C1078.55 1099.25 1061.49 1073.33 1061.49 1073.33L1113.34 1114.41" fill="white"/>
<path d="M1048.47 1157.86C1037.98 1157.86 1027.8 1153.43 1021.26 1142.21C1020.14 1140.27 1018.35 1137.45 1016.09 1133.87C1002.42 1112.2 976.952 1071.86 983.325 1052.78C986.418 1043.52 1005.18 1026.09 1021.31 1013.81C1031.82 1005.81 1057.54 987.56 1069.6 990.747C1107.25 1000.69 1142.1 1032.94 1171.23 1063.18C1171.79 1063.76 1172.1 1064.54 1172.09 1065.35C1172.07 1066.16 1171.73 1066.93 1171.15 1067.49C1170.57 1068.05 1169.78 1068.36 1168.97 1068.35C1168.16 1068.33 1167.39 1067.99 1166.83 1067.41C1138.29 1037.78 1104.23 1006.21 1068.04 996.647C1053.98 992.926 994.18 1039.55 989.118 1054.71C983.66 1071.05 1010.01 1112.79 1021.26 1130.61C1023.55 1134.24 1025.36 1137.11 1026.54 1139.14C1035.76 1154.97 1053.7 1154.23 1067.39 1146.48C1080.16 1139.25 1089.48 1125.39 1082.59 1112.89C1076.01 1100.96 1059.11 1075.26 1058.94 1075C1058.54 1074.4 1058.37 1073.67 1058.46 1072.95C1058.55 1072.23 1058.89 1071.56 1059.43 1071.07C1059.97 1070.58 1060.66 1070.3 1061.38 1070.28C1062.11 1070.25 1062.82 1070.48 1063.39 1070.94L1115.23 1112.02C1115.55 1112.27 1115.81 1112.58 1116 1112.93C1116.2 1113.28 1116.32 1113.66 1116.37 1114.06C1116.42 1114.46 1116.38 1114.86 1116.27 1115.25C1116.16 1115.63 1115.98 1115.99 1115.73 1116.31C1115.48 1116.62 1115.17 1116.88 1114.82 1117.08C1114.47 1117.27 1114.08 1117.4 1113.69 1117.44C1113.29 1117.49 1112.88 1117.46 1112.5 1117.35C1112.11 1117.24 1111.75 1117.05 1111.44 1116.8L1074.11 1087.22C1079.07 1095.02 1084.67 1104.02 1087.94 1109.95C1096.75 1125.92 1085.79 1143.09 1070.4 1151.8C1063.78 1155.54 1056.05 1157.86 1048.47 1157.86Z" fill="#0C296A"/>
<path d="M1141.65 1116.17C1112.2 1085.61 1077.84 1054.2 1041.44 1044.58C1024.63 1040.14 964.02 1089.11 958.838 1104.62C951.868 1125.5 988.896 1178.46 996.52 1191.55C1016.39 1225.67 1073.77 1191.1 1057.88 1162.3C1051.17 1150.13 1034.11 1124.21 1034.11 1124.21L1073.78 1159.96" fill="white"/>
<path d="M1021.09 1208.74C1010.6 1208.74 1000.41 1204.31 993.881 1193.09C992.756 1191.15 990.97 1188.33 988.712 1184.75C975.031 1163.08 949.57 1122.74 955.943 1103.66C959.035 1094.4 977.801 1076.97 993.932 1064.69C1004.43 1056.69 1030.17 1038.44 1042.22 1041.63C1079.87 1051.57 1114.72 1083.82 1143.85 1114.06C1144.41 1114.64 1144.72 1115.42 1144.7 1116.23C1144.69 1117.04 1144.35 1117.81 1143.77 1118.37C1143.19 1118.93 1142.4 1119.24 1141.59 1119.22C1140.78 1119.21 1140.01 1118.87 1139.45 1118.29C1110.91 1088.66 1076.85 1057.09 1040.66 1047.53C1026.6 1043.8 966.799 1090.43 961.737 1105.59C956.28 1121.93 982.627 1163.67 993.878 1181.49C996.169 1185.12 997.98 1187.99 999.161 1190.02C1008.38 1205.85 1026.32 1205.11 1040.01 1197.37C1052.78 1190.14 1062.1 1176.28 1055.21 1163.77C1048.62 1151.84 1031.73 1126.14 1031.56 1125.89C1031.15 1125.26 1030.99 1124.52 1031.09 1123.79C1031.19 1123.05 1031.56 1122.38 1032.12 1121.9C1032.69 1121.42 1033.41 1121.15 1034.15 1121.16C1034.89 1121.17 1035.6 1121.45 1036.15 1121.94L1075.82 1157.69C1076.43 1158.23 1076.79 1158.99 1076.83 1159.8C1076.87 1160.61 1076.59 1161.4 1076.05 1162C1075.78 1162.3 1075.45 1162.54 1075.09 1162.71C1074.73 1162.88 1074.34 1162.98 1073.94 1163C1073.13 1163.04 1072.33 1162.76 1071.73 1162.22L1049.07 1141.8C1053.37 1148.61 1057.8 1155.82 1060.56 1160.83C1069.37 1176.8 1058.4 1193.97 1043.02 1202.68C1036.4 1206.42 1028.67 1208.74 1021.09 1208.74Z" fill="#0C296A"/>
<path d="M1111.53 1167.72C1093.39 1151.82 1053.93 1112.53 1034.77 1118.51C1015.49 1124.52 969.341 1179 965.098 1190.74C959.583 1206 1001.65 1257.63 1007.63 1262.78C1032.09 1283.87 1078.12 1238.67 1052.51 1213.71L1040.92 1200.35C1052.51 1213.71 1057.5 1218.52 1071.39 1238.4" fill="white"/>
<path d="M1022.87 1271.24C1016.18 1271.25 1010.14 1268.98 1005.63 1265.1C1000.92 1261.03 955.776 1207.55 962.227 1189.7C966.514 1177.84 1012.88 1122.14 1033.86 1115.59C1050.77 1110.32 1078.49 1133.73 1105.44 1158.15C1108.12 1160.6 1110.82 1163.02 1113.54 1165.43C1113.84 1165.69 1114.09 1166.01 1114.27 1166.37C1114.45 1166.73 1114.55 1167.12 1114.58 1167.52C1114.6 1167.92 1114.55 1168.32 1114.42 1168.7C1114.29 1169.08 1114.09 1169.43 1113.82 1169.74C1113.56 1170.04 1113.24 1170.28 1112.88 1170.46C1112.52 1170.64 1112.13 1170.74 1111.73 1170.77C1111.33 1170.79 1110.92 1170.74 1110.54 1170.61C1110.16 1170.48 1109.81 1170.28 1109.51 1170.02C1106.77 1167.59 1104.04 1165.14 1101.33 1162.67C1083.63 1146.62 1050.67 1116.76 1035.68 1121.42C1017.83 1126.99 972.242 1179.96 967.972 1191.78C963.385 1204.47 1002.64 1254.46 1009.62 1260.47C1018.1 1267.78 1033.79 1267.42 1047.39 1252.61C1056.02 1243.2 1060.63 1229.74 1053.19 1219.18C1052.38 1218.19 1051.57 1217.23 1050.77 1216.28C1050.64 1216.15 1050.51 1216.03 1050.38 1215.9C1050.31 1215.84 1050.26 1215.77 1050.2 1215.71L1038.61 1202.35C1038.08 1201.74 1037.82 1200.94 1037.87 1200.13C1037.93 1199.33 1038.31 1198.57 1038.92 1198.04C1039.53 1197.51 1040.33 1197.25 1041.14 1197.31C1041.94 1197.36 1042.7 1197.74 1043.23 1198.35C1045.07 1200.47 1046.93 1202.59 1048.79 1204.7C1050.98 1207.18 1053.16 1209.68 1055.31 1212.2C1056.19 1213.11 1057 1214.08 1057.75 1215.1C1062.2 1220.48 1066.92 1226.67 1073.89 1236.65C1074.36 1237.31 1074.54 1238.13 1074.4 1238.93C1074.25 1239.73 1073.8 1240.44 1073.14 1240.9C1072.47 1241.36 1071.65 1241.54 1070.85 1241.4C1070.06 1241.26 1069.35 1240.81 1068.88 1240.14C1066.98 1237.41 1065.05 1234.7 1063.09 1232.01C1062.94 1239.7 1059.66 1248.26 1051.89 1256.73C1042.5 1266.96 1032.07 1271.24 1022.87 1271.24Z" fill="#0C296A"/>
<path d="M1149.57 1393.54C1245.32 1386.66 1348.17 1313.98 1363.46 1271.44C1351.85 1243.43 1337.55 1214.51 1324.93 1189.21C1309.64 1231.75 1208.44 1304.25 1112.69 1311.13C1127.64 1342.48 1138.34 1365.16 1149.57 1393.54Z" fill="white"/>
<path d="M1149.57 1396.59C1148.96 1396.59 1148.36 1396.4 1147.85 1396.06C1147.35 1395.71 1146.96 1395.22 1146.73 1394.66C1135.77 1366.95 1125.51 1345.11 1109.94 1312.44C1109.72 1311.99 1109.62 1311.5 1109.64 1311C1109.66 1310.51 1109.8 1310.02 1110.05 1309.59C1110.3 1309.16 1110.66 1308.8 1111.08 1308.54C1111.5 1308.28 1111.98 1308.12 1112.47 1308.08C1170.44 1303.92 1221.87 1276.77 1247.37 1260.95C1285.31 1237.42 1314.63 1208.85 1322.06 1188.18C1322.26 1187.61 1322.62 1187.12 1323.1 1186.76C1323.58 1186.41 1324.16 1186.2 1324.75 1186.16C1325.35 1186.13 1325.95 1186.27 1326.46 1186.57C1326.98 1186.87 1327.4 1187.31 1327.67 1187.85C1341.57 1215.74 1354.99 1243.03 1366.28 1270.27C1366.57 1270.97 1366.59 1271.75 1366.34 1272.47C1350.52 1316.47 1247.22 1389.58 1149.79 1396.58C1149.72 1396.58 1149.64 1396.59 1149.57 1396.59ZM1117.35 1313.81C1131.55 1343.62 1141.31 1364.55 1151.58 1390.32C1243.73 1382.7 1344 1312.86 1360.18 1271.5C1349.85 1246.71 1337.73 1221.81 1325.11 1196.43C1303.02 1240.03 1208.15 1305.41 1117.35 1313.81Z" fill="#0C296A"/>
<path d="M488.76 1393.54C392.929 1513.5 264.003 1680.73 385.992 1849.77C443.704 1929.74 363.37 2067.58 269.448 2062.67C126.762 2049.9 67.3237 1864.66 65.5017 1737.52C62.3878 1520.1 210.411 1259.67 367.846 1095.26" fill="white"/>
<path d="M274.177 2065.84C272.543 2065.84 270.918 2065.8 269.289 2065.71C204.272 2059.89 149.899 2017.94 111.936 1944.38C81.9725 1886.32 63.4721 1809.01 62.4489 1737.57C60.995 1636.16 92.5621 1517.76 153.735 1395.15C207.946 1286.49 283.2 1179.24 365.64 1093.15C366.2 1092.56 366.969 1092.23 367.779 1092.21C368.589 1092.19 369.373 1092.49 369.958 1093.05C370.544 1093.61 370.883 1094.38 370.9 1095.19C370.918 1096 370.613 1096.79 370.053 1097.37C158.61 1318.18 66.2714 1577.97 68.5576 1737.48C69.5686 1808.02 87.814 1884.32 117.367 1941.58C143.137 1991.52 190.487 2052.53 269.721 2059.62C312.417 2061.83 356.881 2032.47 382.917 1984.76C408.604 1937.68 408.833 1886.64 383.515 1851.56C328.724 1775.63 318.688 1694.06 352.831 1602.18C382.978 1521.06 442.738 1446.25 486.373 1391.63C486.886 1391.02 487.617 1390.63 488.411 1390.55C489.205 1390.47 489.999 1390.71 490.622 1391.21C491.245 1391.7 491.649 1392.42 491.748 1393.22C491.846 1394.01 491.63 1394.81 491.147 1395.44C401.341 1507.86 265.622 1677.75 388.471 1847.99C415.177 1884.99 415.104 1938.52 388.28 1987.68C362.107 2035.65 317.76 2065.84 274.177 2065.84Z" fill="#0C296A"/>
<path d="M362.993 1847.98C430.706 1918.39 721.482 1706.17 826.838 1680.73C739.095 1701.91 839.12 1849.87 887.934 1918.4C678.131 2003.07 423.748 2212.79 185.66 2030.6" fill="white"/>
<path d="M393.308 2105.82C316.519 2105.83 247.455 2081.73 183.803 2033.02C183.16 2032.53 182.738 2031.8 182.632 2031C182.525 2030.2 182.742 2029.39 183.235 2028.75C183.727 2028.1 184.455 2027.68 185.258 2027.58C186.061 2027.47 186.874 2027.69 187.517 2028.18C270.715 2091.84 363.378 2112.71 470.807 2091.97C565.671 2073.66 658.621 2026.58 748.51 1981.04C795.517 1957.23 839.99 1934.71 883.21 1917.02C834.685 1848.62 774.023 1753.86 792.27 1705.05C793.95 1700.56 796.27 1696.57 799.219 1693.07C763.554 1707.19 716.495 1732.27 667.335 1758.48C545.047 1823.67 406.442 1897.56 360.791 1850.09C360.505 1849.8 360.28 1849.46 360.128 1849.08C359.976 1848.71 359.9 1848.31 359.905 1847.9C359.91 1847.5 359.995 1847.1 360.156 1846.73C360.317 1846.35 360.551 1846.02 360.843 1845.74C361.135 1845.46 361.48 1845.24 361.858 1845.09C362.236 1844.95 362.639 1844.88 363.044 1844.89C363.45 1844.9 363.848 1844.99 364.218 1845.16C364.587 1845.33 364.919 1845.56 365.195 1845.86C383.905 1865.31 423.01 1863.49 484.739 1840.27C539.723 1819.59 603.135 1785.79 664.459 1753.09C728.469 1718.97 788.927 1686.74 826.12 1677.76C826.908 1677.57 827.739 1677.7 828.43 1678.12C829.122 1678.55 829.617 1679.22 829.808 1680.01C829.998 1680.8 829.868 1681.63 829.446 1682.32C829.023 1683.01 828.344 1683.51 827.556 1683.7L827.464 1683.72C812.147 1687.44 802.507 1695.12 797.993 1707.19C778.457 1759.44 862.729 1877.75 890.421 1916.63C890.689 1917 890.867 1917.43 890.944 1917.89C891.021 1918.34 890.993 1918.81 890.864 1919.25C890.735 1919.69 890.507 1920.1 890.197 1920.44C889.888 1920.79 889.505 1921.05 889.077 1921.23C844.975 1939.03 799.459 1962.08 751.271 1986.49C661.008 2032.21 567.669 2079.49 471.964 2097.96C444.854 2103.2 418.655 2105.82 393.308 2105.82Z" fill="#0C296A"/>
<path d="M1038.22 1669.12C1051.93 1668.92 1200.24 1692.08 1215.89 1702.59C1232.8 1713.94 1275.4 1763.16 1287.58 1776.29C1310.78 1801.32 1265.59 1843.77 1242.74 1821.35C1219.89 1798.92 1185.17 1765.84 1185.17 1765.84L1110.19 1750.56C1094.75 1780.84 1065.26 1809.57 1007.77 1802.58" fill="white"/>
<path d="M1258.13 1830.74C1251.44 1830.74 1245.45 1828.29 1240.6 1823.52C1219.72 1803.04 1188.53 1773.27 1183.7 1768.66L1111.84 1754.01C1090.79 1793.53 1054.73 1811.37 1007.4 1805.61C1007 1805.56 1006.62 1805.44 1006.27 1805.24C1005.92 1805.04 1005.61 1804.78 1005.37 1804.46C1005.12 1804.15 1004.94 1803.78 1004.83 1803.4C1004.72 1803.01 1004.69 1802.61 1004.74 1802.21C1004.84 1801.41 1005.25 1800.68 1005.89 1800.18C1006.53 1799.68 1007.34 1799.45 1008.14 1799.55C1054.15 1805.15 1087.57 1788.2 1107.47 1749.17C1107.77 1748.58 1108.26 1748.1 1108.87 1747.81C1109.47 1747.52 1110.15 1747.43 1110.8 1747.57L1185.78 1762.85C1186.34 1762.97 1186.86 1763.24 1187.28 1763.64C1187.62 1763.97 1222.27 1796.99 1244.88 1819.17C1252.19 1826.35 1266.38 1827.93 1280.28 1814.44C1294.28 1800.85 1292.91 1786.53 1285.34 1778.36C1282.98 1775.82 1279.58 1772.04 1275.29 1767.26C1258.59 1748.67 1227.52 1714.07 1214.19 1705.12C1199.48 1695.24 1051.83 1671.98 1038.27 1672.17C1036.58 1672.14 1035.19 1670.85 1035.17 1669.16C1035.16 1668.35 1035.47 1667.57 1036.03 1666.99C1036.6 1666.41 1037.37 1666.08 1038.18 1666.06L1038.34 1666.06C1052.32 1666.06 1200.56 1688.61 1217.59 1700.05C1231.56 1709.43 1261.78 1743.08 1279.83 1763.18C1283.94 1767.75 1287.49 1771.7 1289.82 1774.21C1303.05 1788.49 1296.36 1807.34 1284.53 1818.82C1278.23 1824.94 1270.64 1829.01 1263.15 1830.29C1261.49 1830.58 1259.81 1830.73 1258.13 1830.74Z" fill="#0C296A"/>
<path d="M826.838 1680.73C917.473 1649.12 1011.28 1630.93 1108.9 1653.99C1174.57 1669.49 1215.22 1735.26 1199.7 1800.88C1186.52 1856.61 1137.05 1894.32 1082.21 1894.91C1072.28 1895.01 1062.37 1893.91 1052.7 1891.62C1006.42 1880.69 948.485 1895.26 887.935 1918.4C839.117 1849.87 818.917 1770.58 826.838 1680.73Z" fill="white"/>
<path d="M887.935 1921.45C887.448 1921.45 886.968 1921.33 886.535 1921.11C886.102 1920.89 885.728 1920.56 885.446 1920.17C836.565 1851.55 815.824 1770.9 823.796 1680.46C823.848 1679.88 824.068 1679.32 824.429 1678.85C824.79 1678.39 825.277 1678.04 825.832 1677.85C876.898 1660.03 922.382 1648.91 964.886 1643.83C1015.94 1637.72 1063.28 1640.08 1109.6 1651.02C1142.15 1658.7 1169.76 1678.6 1187.34 1707.03C1204.92 1735.47 1210.37 1769.05 1202.67 1801.58C1189.4 1857.7 1139.88 1897.34 1082.24 1897.96C1072.06 1898.06 1061.91 1896.93 1052 1894.58C1012.7 1885.3 960.914 1893.77 889.026 1921.25C888.677 1921.38 888.308 1921.45 887.935 1921.45ZM829.712 1682.96C822.412 1770.27 842.376 1848.22 889.061 1914.7C961.005 1887.45 1013.27 1879.17 1053.41 1888.65C1062.83 1890.88 1072.49 1891.95 1082.17 1891.86C1137 1891.26 1184.1 1853.56 1196.73 1800.18C1204.05 1769.23 1198.87 1737.3 1182.15 1710.24C1165.42 1683.19 1139.16 1664.27 1108.2 1656.96C1024.57 1637.21 938.612 1645.22 829.712 1682.96Z" fill="#0C296A"/>
<path d="M1051.03 1644.86C1104.17 1647.35 1225.62 1660.63 1247.03 1692.67C1264.98 1719.53 1293.77 1776.42 1303.73 1794.95C1325.16 1834.83 1266.22 1875.81 1242.21 1833.83C1225.39 1804.42 1192.8 1750.01 1192.8 1750.01L1114.7 1733.19" fill="white"/>
<path d="M1270.16 1854.63C1256.77 1854.63 1245.8 1846.26 1239.56 1835.35C1224.29 1808.64 1195.63 1760.7 1190.86 1752.72L1114.06 1736.18C1113.66 1736.1 1113.28 1735.94 1112.95 1735.71C1112.61 1735.49 1112.33 1735.2 1112.11 1734.86C1111.88 1734.52 1111.73 1734.14 1111.66 1733.74C1111.58 1733.35 1111.59 1732.94 1111.67 1732.54C1111.76 1732.15 1111.92 1731.77 1112.15 1731.44C1112.38 1731.11 1112.68 1730.83 1113.02 1730.61C1113.36 1730.39 1113.74 1730.25 1114.14 1730.18C1114.54 1730.11 1114.95 1730.12 1115.34 1730.21L1193.44 1747.03C1194.27 1747.21 1194.98 1747.72 1195.42 1748.45C1195.74 1748.99 1228.22 1803.21 1244.86 1832.32C1251.76 1844.38 1266.6 1854.72 1285.7 1844.14C1301.01 1835.66 1311.59 1816.05 1301.03 1796.4C1299 1792.61 1296.17 1787.21 1292.82 1780.8C1280.05 1756.42 1258.69 1715.61 1244.49 1694.36C1235.71 1681.23 1206.62 1669.58 1160.35 1660.68C1121.64 1653.23 1078.42 1649.2 1050.88 1647.91C1050.48 1647.89 1050.09 1647.79 1049.72 1647.62C1049.36 1647.45 1049.03 1647.21 1048.76 1646.91C1048.49 1646.62 1048.29 1646.27 1048.15 1645.89C1048.01 1645.51 1047.95 1645.11 1047.97 1644.71C1048.05 1643.03 1049.5 1641.75 1051.17 1641.81C1052.88 1641.89 1222.38 1650.29 1249.57 1690.98C1263.95 1712.49 1285.41 1753.48 1298.23 1777.98C1301.57 1784.36 1304.39 1789.73 1306.42 1793.51C1313.63 1806.94 1311.71 1818.83 1308.82 1826.44C1305.2 1835.99 1297.85 1844.39 1288.66 1849.48C1282.17 1853.07 1275.94 1854.63 1270.16 1854.63Z" fill="#0C296A"/>
<path d="M1098.35 1695.26C1136.89 1701.24 1201.07 1709.19 1219.19 1743.2C1234.38 1771.71 1228.05 1853.76 1226.97 1874.77C1225.02 1912.83 1160.72 1918.93 1160.82 1873.99C1160.91 1837.73 1158.99 1793.92 1158.99 1793.92L1088.87 1774.58" fill="white"/>
<path d="M1191.54 1908.59C1191.19 1908.59 1190.83 1908.58 1190.47 1908.57C1175.35 1908.17 1157.71 1898.87 1157.77 1873.98C1157.84 1842.82 1156.41 1805.63 1156.03 1796.27L1088.05 1777.52C1086.43 1777.07 1085.47 1775.39 1085.92 1773.76C1086.37 1772.14 1088.04 1771.18 1089.68 1771.63L1159.8 1790.98C1160.42 1791.15 1160.97 1791.51 1161.37 1792.02C1161.78 1792.52 1162.01 1793.14 1162.04 1793.78C1162.06 1794.22 1163.96 1838.08 1163.88 1874C1163.83 1894.46 1177.67 1902.12 1190.63 1902.47C1206.25 1902.89 1223 1892.58 1223.92 1874.61C1224.01 1872.83 1224.14 1870.61 1224.29 1868.01C1225.85 1841.2 1229.99 1769.98 1216.49 1744.63C1200.09 1713.86 1142.57 1705.09 1104.5 1699.29C1102.23 1698.94 1100.02 1698.61 1097.89 1698.28C1097.49 1698.22 1097.11 1698.08 1096.77 1697.87C1096.42 1697.66 1096.13 1697.39 1095.89 1697.06C1095.65 1696.74 1095.48 1696.37 1095.39 1695.98C1095.29 1695.59 1095.27 1695.19 1095.34 1694.79C1095.4 1694.4 1095.54 1694.02 1095.75 1693.67C1095.95 1693.33 1096.23 1693.03 1096.55 1692.8C1096.88 1692.56 1097.24 1692.39 1097.63 1692.29C1098.02 1692.2 1098.43 1692.18 1098.82 1692.24C1100.95 1692.58 1103.15 1692.91 1105.43 1693.26C1144.7 1699.24 1204.05 1708.28 1221.88 1741.76C1236.19 1768.62 1232.13 1838.52 1230.39 1868.37C1230.26 1870.55 1230.14 1872.74 1230.02 1874.92C1228.93 1896.2 1209.79 1908.59 1191.54 1908.59Z" fill="#0C296A"/>
<path d="M1074.34 1748.18C1102.61 1753.57 1170.03 1768.56 1180.88 1793.93C1193.59 1823.63 1169.36 1878.7 1160.15 1897.61C1149.13 1920.2 1116.07 1911.93 1090.24 1902.35C1075.27 1896.8 1064.99 1883.4 1073.32 1857.23C1078.67 1840.41 1101.91 1844.79 1101.91 1844.79L1050.56 1825.31" fill="white"/>
<path d="M1132.5 1915.09C1115.81 1915.09 1097.6 1908.34 1089.18 1905.21C1077.71 1900.96 1060.02 1888.95 1070.41 1856.3C1073.05 1847.98 1079.63 1843.92 1086.52 1842.22L1049.48 1828.16C1048.72 1827.87 1048.11 1827.3 1047.78 1826.56C1047.44 1825.82 1047.42 1824.98 1047.71 1824.22C1047.99 1823.47 1048.57 1822.85 1049.31 1822.52C1050.05 1822.19 1050.89 1822.17 1051.65 1822.45L1103 1841.94C1103.71 1842.21 1104.3 1842.74 1104.64 1843.42C1104.99 1844.1 1105.06 1844.89 1104.85 1845.62C1104.65 1846.36 1104.17 1846.99 1103.52 1847.39C1102.87 1847.79 1102.1 1847.94 1101.35 1847.79C1101.3 1847.78 1095.85 1846.8 1089.95 1847.74C1082.67 1848.91 1078.06 1852.41 1076.23 1858.15C1069.57 1879.07 1074.78 1893.37 1091.3 1899.49C1128.08 1913.13 1149.7 1912.07 1157.4 1896.27C1165.39 1879.88 1190.49 1824.15 1178.08 1795.13C1170.95 1778.46 1132.93 1762.44 1073.77 1751.18C1072.97 1751.03 1072.27 1750.57 1071.81 1749.9C1071.36 1749.23 1071.19 1748.41 1071.34 1747.61C1071.49 1746.82 1071.95 1746.11 1072.62 1745.66C1073.29 1745.2 1074.11 1745.03 1074.91 1745.18C1110.87 1752.03 1172.82 1767.31 1183.7 1792.73C1189.44 1806.16 1188.76 1825.64 1181.68 1850.64C1175.94 1870.92 1167.45 1889.61 1162.9 1898.95C1156.91 1911.21 1145.14 1915.09 1132.5 1915.09Z" fill="#0C296A"/>
<path d="M1045.73 1805.91C1066.72 1810.37 1138.65 1832.7 1145.92 1851.4C1153.23 1870.22 1128.72 1946.9 1117.53 1952.43C1101.97 1960.11 1044.81 1939.91 1033.06 1936.19C1007.77 1928.16 1017.04 1892.09 1024.53 1889.03C1040.63 1890.9 1056.4 1894.97 1071.89 1900.87C1052.69 1893.62 1032.13 1887.66 1008.69 1888.01" fill="white"/>
<path d="M1107.35 1957.19C1089.77 1957.19 1061.25 1948.68 1036.67 1940.57C1034.79 1939.96 1033.26 1939.45 1032.14 1939.1C1020.65 1935.45 1014.02 1926.1 1013.48 1912.76C1013.16 1904.77 1015.17 1896.51 1018.29 1891.27C1015.11 1891.08 1011.92 1891.01 1008.74 1891.06C1008.33 1891.06 1007.93 1890.99 1007.56 1890.85C1007.19 1890.7 1006.84 1890.48 1006.56 1890.2C1006.27 1889.92 1006.04 1889.59 1005.88 1889.22C1005.72 1888.85 1005.64 1888.45 1005.64 1888.05C1005.62 1887.24 1005.93 1886.46 1006.5 1885.88C1007.06 1885.3 1007.83 1884.96 1008.64 1884.95C1032.48 1884.56 1052.98 1890.64 1070.09 1896.94C1071.05 1897.29 1072.01 1897.65 1072.97 1898.02C1073.73 1898.3 1074.34 1898.88 1074.67 1899.62C1075.01 1900.36 1075.03 1901.2 1074.74 1901.95C1074.46 1902.71 1073.88 1903.32 1073.14 1903.65C1072.4 1903.99 1071.56 1904.01 1070.8 1903.72C1069.86 1903.37 1068.91 1903.01 1067.95 1902.66C1053.59 1897.41 1039.22 1893.89 1025.18 1892.18C1023 1894.05 1019.18 1902.41 1019.58 1912.52C1019.88 1920 1022.63 1929.67 1033.99 1933.28C1035.12 1933.64 1036.68 1934.15 1038.58 1934.77C1103.23 1956.08 1112.97 1951.27 1116.17 1949.69C1119.87 1947.86 1128.4 1930.65 1135.73 1906.02C1143.14 1881.12 1146.02 1860.11 1143.07 1852.5C1140.35 1845.51 1124.6 1835.9 1099.85 1826.15C1077.28 1817.26 1054.29 1810.85 1045.1 1808.9C1044.7 1808.81 1044.33 1808.65 1044 1808.43C1043.67 1808.2 1043.39 1807.91 1043.17 1807.57C1042.95 1807.24 1042.8 1806.86 1042.73 1806.47C1042.65 1806.07 1042.66 1805.67 1042.74 1805.28C1042.83 1804.88 1042.99 1804.51 1043.21 1804.18C1043.44 1803.85 1043.73 1803.57 1044.07 1803.35C1044.4 1803.13 1044.78 1802.98 1045.17 1802.91C1045.57 1802.84 1045.97 1802.84 1046.37 1802.93C1057.78 1805.35 1140.07 1827.92 1148.76 1850.29C1156.62 1870.53 1131.73 1948.81 1118.88 1955.16C1116.03 1956.57 1112.08 1957.19 1107.35 1957.19Z" fill="#0C296A"/>
<path d="M842.516 1119.46C841.31 1119.46 840.166 1118.74 839.685 1117.55L815.294 1057.42C814.99 1056.67 814.996 1055.83 815.312 1055.08C815.627 1054.33 816.226 1053.74 816.977 1053.44C817.728 1053.14 818.569 1053.14 819.315 1053.46C820.061 1053.77 820.651 1054.37 820.955 1055.12L845.346 1115.26C845.534 1115.72 845.606 1116.22 845.554 1116.72C845.502 1117.22 845.329 1117.7 845.05 1118.11C844.77 1118.53 844.393 1118.87 843.951 1119.1C843.509 1119.34 843.017 1119.46 842.516 1119.46ZM716.677 1131.97C716.148 1131.97 715.629 1131.83 715.169 1131.57C714.709 1131.31 714.326 1130.93 714.055 1130.47C713.785 1130.02 713.637 1129.5 713.627 1128.98C713.616 1128.45 713.743 1127.92 713.995 1127.46L752.131 1057.17C752.318 1056.81 752.575 1056.49 752.886 1056.23C753.198 1055.97 753.558 1055.78 753.946 1055.66C754.334 1055.54 754.742 1055.5 755.145 1055.54C755.549 1055.58 755.94 1055.7 756.297 1055.89C756.653 1056.09 756.968 1056.35 757.222 1056.67C757.476 1056.98 757.665 1057.34 757.777 1057.73C757.889 1058.12 757.922 1058.53 757.875 1058.93C757.827 1059.34 757.7 1059.73 757.501 1060.08L719.365 1130.37C719.103 1130.85 718.715 1131.26 718.242 1131.54C717.768 1131.82 717.228 1131.97 716.677 1131.97ZM320.911 1791.7C346.777 1819.68 380.956 1830.33 445.59 1821.68C549.338 1807.8 715.742 1680.74 746.457 1680.73C773.745 1680.72 790.793 1692.97 790.793 1692.97C801.684 1688.57 813.408 1684.72 826.837 1680.73C819.075 1764.68 843.541 1843.22 887.932 1918.4L854.002 1932.18C854.002 1932.18 860.774 1950.82 841.45 1973.83C823.926 1994.7 504.222 2195.66 250.318 2070.65" fill="white"/>
<path d="M434.928 2114.26C373.579 2114.26 309.625 2103.26 248.968 2073.39C248.246 2073.03 247.696 2072.4 247.438 2071.63C247.18 2070.87 247.236 2070.03 247.593 2069.31C247.949 2068.59 248.578 2068.03 249.342 2067.77C250.106 2067.51 250.942 2067.56 251.668 2067.92C383.812 2132.98 532.288 2107.16 633.578 2074.05C747.442 2036.82 830.807 1981.76 839.112 1971.87C856.944 1950.64 851.374 1933.91 851.128 1933.21C850.868 1932.46 850.902 1931.65 851.223 1930.94C851.545 1930.22 852.129 1929.65 852.855 1929.35L883.515 1916.9C837.058 1837.16 817.373 1761.2 823.413 1684.95C810.635 1688.83 800.796 1692.23 791.942 1695.8C791.464 1696 790.945 1696.07 790.433 1696C789.921 1695.94 789.433 1695.75 789.014 1695.45C788.855 1695.34 772.353 1683.79 746.485 1683.79H746.46C735.549 1683.79 702.563 1703.19 664.368 1725.66C599.514 1763.81 510.694 1816.05 445.997 1824.71C383.59 1833.06 346.702 1824.1 318.669 1793.77C318.397 1793.48 318.185 1793.14 318.047 1792.76C317.908 1792.38 317.844 1791.98 317.86 1791.58C317.876 1791.18 317.971 1790.79 318.139 1790.42C318.307 1790.06 318.545 1789.73 318.839 1789.46C319.134 1789.19 319.479 1788.98 319.856 1788.84C320.232 1788.7 320.632 1788.64 321.033 1788.65C321.434 1788.67 321.828 1788.76 322.192 1788.93C322.556 1789.1 322.884 1789.34 323.156 1789.63C349.659 1818.3 385.013 1826.71 445.186 1818.66C508.658 1810.17 596.863 1758.28 661.268 1720.4C703.424 1695.6 733.884 1677.68 746.459 1677.68H746.485C770.228 1677.68 786.383 1686.56 791.143 1689.55C800.777 1685.72 811.609 1682.07 825.969 1677.81C826.448 1677.66 826.953 1677.64 827.442 1677.74C827.931 1677.84 828.388 1678.06 828.774 1678.37C829.16 1678.69 829.462 1679.09 829.655 1679.55C829.848 1680.01 829.925 1680.51 829.88 1681.01C822.722 1758.43 842.574 1835.57 890.565 1916.85C890.787 1917.22 890.925 1917.65 890.97 1918.08C891.015 1918.52 890.966 1918.96 890.825 1919.37C890.685 1919.79 890.457 1920.17 890.156 1920.49C889.855 1920.81 889.49 1921.06 889.084 1921.22L857.614 1934.01C858.853 1940.42 859.786 1956.75 843.792 1975.8C835.256 1985.96 750.486 2042.25 635.478 2079.85C579.451 2098.17 509.096 2114.26 434.928 2114.26Z" fill="#0C296A"/>
<path d="M790.795 1692.97C772.502 1787.14 816.881 1906.34 854.004 1932.18C879.983 1922.13 907.989 1909.88 935.361 1902.34C898.238 1876.5 860.305 1758.79 878.599 1664.62C845.957 1672.81 817.069 1683.22 790.795 1692.97Z" fill="white"/>
<path d="M854.004 1935.23C853.388 1935.23 852.778 1935.04 852.258 1934.68C832.869 1921.19 812.345 1884.55 798.694 1839.08C789.761 1809.32 776.47 1750.7 787.797 1692.39C787.897 1691.88 788.127 1691.4 788.466 1691C788.805 1690.6 789.241 1690.29 789.732 1690.11C816.395 1680.22 845.163 1669.87 877.856 1661.66C878.354 1661.54 878.876 1661.54 879.373 1661.67C879.87 1661.8 880.326 1662.05 880.699 1662.41C881.072 1662.76 881.35 1663.2 881.507 1663.69C881.665 1664.18 881.696 1664.7 881.599 1665.2C863.083 1760.51 901.942 1875.36 937.108 1899.83C937.584 1900.17 937.955 1900.63 938.179 1901.16C938.403 1901.7 938.47 1902.28 938.372 1902.85C938.274 1903.43 938.015 1903.96 937.626 1904.39C937.236 1904.82 936.732 1905.13 936.173 1905.28C915.478 1910.98 894.386 1919.41 873.989 1927.56C867.709 1930.08 861.415 1932.57 855.108 1935.03C854.756 1935.16 854.381 1935.23 854.004 1935.23ZM793.474 1695.24C776.604 1786.1 818.316 1901.55 854.448 1928.73C860.097 1926.54 865.757 1924.28 871.719 1921.89C890.411 1914.42 909.681 1906.73 928.83 1901.04C911.439 1885.46 894.316 1851.44 883.245 1809.89C870.501 1762.05 867.451 1710.94 874.734 1668.76C844.877 1676.52 818.257 1686.05 793.474 1695.24Z" fill="#0C296A"/>
</g>
<g clip-path="url(#clip3_1_522)">
<path d="M1146.9 1563.32L1144.45 1554.45C1141.51 1543.78 1147.9 1532.76 1158.72 1529.84C1169.54 1526.93 1180.7 1533.22 1183.64 1543.9L1186.09 1552.77L1146.9 1563.32Z" fill="white"/>
<path d="M1147.03 1566.76C1146.24 1566.79 1145.47 1566.55 1144.84 1566.09C1144.2 1565.63 1143.75 1564.98 1143.54 1564.23L1141.09 1555.36C1137.65 1542.87 1145.14 1529.94 1157.8 1526.53C1170.47 1523.11 1183.56 1530.5 1187 1542.99L1189.45 1551.86C1189.69 1552.74 1189.57 1553.68 1189.11 1554.47C1188.65 1555.26 1187.89 1555.84 1187 1556.08L1147.82 1566.64C1147.56 1566.71 1147.29 1566.75 1147.03 1566.76ZM1163.45 1532.58C1162.18 1532.63 1160.9 1532.82 1159.63 1533.16C1150.68 1535.57 1145.38 1544.72 1147.82 1553.54L1149.35 1559.1L1181.81 1550.36L1180.28 1544.8C1178.19 1537.23 1171.08 1532.31 1163.45 1532.58Z" fill="#0C296A"/>
<path d="M1146.9 1563.33L1186.09 1552.77L1284.22 1908.72L1245.03 1919.27L1146.9 1563.33Z" fill="#0C296A"/>
<path d="M1245.17 1922.7C1244.38 1922.73 1243.61 1922.49 1242.98 1922.03C1242.35 1921.57 1241.89 1920.92 1241.68 1920.17L1143.54 1564.23C1143.42 1563.8 1143.39 1563.34 1143.44 1562.89C1143.5 1562.44 1143.65 1562.01 1143.88 1561.62C1144.1 1561.23 1144.41 1560.88 1144.77 1560.61C1145.13 1560.33 1145.54 1560.13 1145.99 1560.01L1185.17 1549.45C1186.06 1549.21 1187.01 1549.33 1187.82 1549.78C1188.62 1550.23 1189.2 1550.98 1189.45 1551.86L1287.59 1907.8C1287.71 1908.23 1287.75 1908.69 1287.69 1909.14C1287.63 1909.58 1287.48 1910.02 1287.26 1910.41C1287.03 1910.8 1286.73 1911.14 1286.36 1911.42C1286 1911.7 1285.59 1911.9 1285.15 1912.02L1245.96 1922.58C1245.7 1922.65 1245.43 1922.69 1245.17 1922.7ZM1151.18 1565.74L1247.49 1915.04L1279.96 1906.29L1183.64 1556.99L1151.18 1565.74ZM1275.02 1951.64C1274.69 1951.73 1274.33 1951.76 1273.99 1951.71C1273.64 1951.67 1273.31 1951.56 1273 1951.39C1272.7 1951.22 1272.43 1950.99 1272.22 1950.71C1272.01 1950.44 1271.85 1950.13 1271.76 1949.8L1268.33 1937.36C1268.14 1936.69 1268.23 1935.97 1268.58 1935.36C1268.94 1934.76 1269.52 1934.32 1270.2 1934.13C1270.88 1933.95 1271.6 1934.04 1272.22 1934.39C1272.83 1934.73 1273.28 1935.3 1273.46 1935.98L1276.89 1948.41C1276.98 1948.75 1277.01 1949.09 1276.96 1949.44C1276.92 1949.78 1276.81 1950.11 1276.63 1950.41C1276.46 1950.71 1276.23 1950.97 1275.95 1951.18C1275.68 1951.39 1275.36 1951.55 1275.02 1951.64Z" fill="#0C296A"/>
<path d="M1274.54 1955.17C1273.16 1955.22 1271.8 1954.8 1270.68 1953.99C1269.57 1953.18 1268.76 1952.02 1268.39 1950.7L1264.96 1938.27C1264.54 1936.72 1264.75 1935.06 1265.56 1933.66C1266.37 1932.27 1267.71 1931.25 1269.28 1930.82C1270.85 1930.4 1272.53 1930.61 1273.94 1931.4C1275.36 1932.2 1276.39 1933.52 1276.82 1935.07L1280.25 1947.51C1280.49 1948.39 1280.53 1949.32 1280.36 1950.21C1280.19 1951.11 1279.82 1951.96 1279.27 1952.7C1278.72 1953.43 1278.01 1954.04 1277.19 1954.46C1276.37 1954.89 1275.47 1955.13 1274.54 1955.17Z" fill="#0C296A"/>
<path d="M1245.05 1919.26L1268.01 1943.61L1276.95 1941.2L1284.23 1908.7L1245.05 1919.26Z" fill="white"/>
<path d="M1268.13 1947.05C1267.63 1947.06 1267.13 1946.98 1266.67 1946.79C1266.21 1946.6 1265.79 1946.31 1265.45 1945.95L1242.49 1921.61C1242.08 1921.17 1241.8 1920.64 1241.66 1920.07C1241.52 1919.49 1241.53 1918.89 1241.69 1918.32C1241.86 1917.75 1242.17 1917.24 1242.6 1916.82C1243.02 1916.4 1243.55 1916.1 1244.13 1915.95L1283.32 1905.39C1283.89 1905.24 1284.5 1905.23 1285.08 1905.37C1285.67 1905.52 1286.2 1905.81 1286.63 1906.22C1287.07 1906.63 1287.39 1907.14 1287.56 1907.7C1287.74 1908.27 1287.76 1908.87 1287.63 1909.45L1280.35 1941.94C1280.21 1942.56 1279.91 1943.12 1279.47 1943.57C1279.03 1944.03 1278.47 1944.35 1277.86 1944.52L1268.92 1946.93C1268.66 1947 1268.4 1947.04 1268.13 1947.05ZM1251.52 1921.08L1269.13 1939.75L1274 1938.43L1279.59 1913.52L1251.52 1921.08Z" fill="#0C296A"/>
<path d="M1252.57 1870.2C1247.08 1871.68 1241.37 1868.46 1239.88 1863.05L1218.75 1786.43C1217.26 1781.02 1220.53 1775.39 1226.02 1773.91C1231.5 1772.43 1237.21 1775.65 1238.7 1781.06L1259.83 1857.68C1261.32 1863.09 1258.05 1868.72 1252.57 1870.2Z" fill="white"/>
<path d="M1250.34 1873.99C1247.77 1874.08 1245.22 1873.46 1243 1872.19C1241.42 1871.31 1240.03 1870.13 1238.92 1868.71C1237.81 1867.3 1236.99 1865.68 1236.52 1863.95L1215.39 1787.34C1214.91 1785.61 1214.79 1783.81 1215.02 1782.03C1215.25 1780.25 1215.84 1778.54 1216.74 1776.99C1217.64 1775.43 1218.84 1774.06 1220.27 1772.96C1221.71 1771.86 1223.35 1771.06 1225.1 1770.59C1226.85 1770.11 1228.68 1769.99 1230.48 1770.21C1232.28 1770.44 1234.01 1771.02 1235.59 1771.91C1237.16 1772.8 1238.55 1773.98 1239.66 1775.39C1240.77 1776.81 1241.59 1778.43 1242.06 1780.15L1263.19 1856.77C1265.19 1864.02 1260.84 1871.54 1253.48 1873.52C1252.46 1873.8 1251.4 1873.95 1250.34 1873.99ZM1228.48 1776.99C1227.31 1777.03 1226.18 1777.36 1225.18 1777.96C1224.19 1778.56 1223.36 1779.4 1222.79 1780.4C1222.34 1781.17 1222.05 1782.02 1221.93 1782.9C1221.82 1783.78 1221.88 1784.67 1222.12 1785.53L1243.24 1862.14C1243.48 1863 1243.88 1863.8 1244.43 1864.5C1244.99 1865.2 1245.67 1865.79 1246.46 1866.22C1247.24 1866.67 1248.1 1866.95 1248.99 1867.07C1249.88 1867.18 1250.79 1867.12 1251.65 1866.88C1253.41 1866.41 1254.9 1865.27 1255.8 1863.71C1256.7 1862.15 1256.94 1860.31 1256.47 1858.58L1235.34 1781.96C1235.11 1781.11 1234.7 1780.3 1234.15 1779.6C1233.6 1778.9 1232.91 1778.32 1232.13 1777.88C1231.02 1777.25 1229.76 1776.95 1228.48 1776.99Z" fill="#0C296A"/>
</g>
<g clip-path="url(#clip4_1_522)">
<path d="M361.846 1845.49C429.655 1915.92 720.848 1703.63 826.355 1678.19C738.486 1699.38 838.655 1847.38 887.538 1915.93C677.435 2000.63 422.688 2210.42 184.259 2028.17" fill="white"/>
<path d="M392.206 2103.42C315.307 2103.42 246.142 2079.32 182.399 2030.6C182.08 2030.35 181.812 2030.05 181.611 2029.7C181.41 2029.35 181.279 2028.97 181.226 2028.57C181.12 2027.77 181.337 2026.96 181.83 2026.32C182.323 2025.67 183.052 2025.25 183.856 2025.15C184.661 2025.04 185.474 2025.26 186.118 2025.75C372.761 2168.41 572.07 2067.57 747.915 1978.6C794.989 1954.78 839.526 1932.25 882.808 1914.56C834.213 1846.14 773.466 1751.34 791.738 1702.52C793.42 1698.03 795.743 1694.03 798.698 1690.53C762.982 1704.66 715.858 1729.75 666.627 1755.96C544.165 1821.18 405.361 1895.1 359.64 1847.61C359.078 1847.02 358.772 1846.24 358.788 1845.43C358.804 1844.62 359.142 1843.85 359.727 1843.29C360.312 1842.73 361.096 1842.42 361.908 1842.44C362.719 1842.45 363.491 1842.79 364.053 1843.37C382.792 1862.84 421.949 1861.01 483.769 1837.78C538.832 1817.1 602.335 1783.28 663.747 1750.58C727.848 1716.44 788.393 1684.2 825.638 1675.22C826.423 1675.04 827.248 1675.17 827.933 1675.6C828.619 1676.02 829.109 1676.7 829.298 1677.48C829.487 1678.26 829.36 1679.08 828.943 1679.77C828.527 1680.46 827.855 1680.96 827.074 1681.15C811.682 1684.87 801.998 1692.56 797.468 1704.66C777.904 1756.92 862.299 1875.27 890.031 1914.16C890.298 1914.54 890.477 1914.97 890.553 1915.42C890.63 1915.88 890.602 1916.34 890.473 1916.79C890.343 1917.23 890.115 1917.64 889.805 1917.98C889.495 1918.32 889.112 1918.59 888.684 1918.76C844.517 1936.57 798.936 1959.63 750.68 1984.05C660.287 2029.78 566.815 2077.07 470.972 2095.55C443.824 2100.79 417.587 2103.42 392.204 2103.42L392.206 2103.42Z" fill="#0C296A"/>
<path d="M1038.04 1666.57C1051.77 1666.38 1200.29 1689.54 1215.97 1700.05C1232.9 1711.41 1275.56 1760.65 1287.75 1773.78C1310.99 1798.82 1265.73 1841.28 1242.85 1818.85C1219.97 1796.42 1185.2 1763.33 1185.2 1763.33L1110.12 1748.05C1094.65 1778.34 1065.12 1807.07 1007.55 1800.08" fill="white"/>
<path d="M1258.24 1828.19C1251.95 1828.19 1245.83 1826.05 1240.71 1821.03C1219.8 1800.53 1188.56 1770.75 1183.73 1766.15L1111.76 1751.5C1090.68 1791.03 1054.56 1808.87 1007.18 1803.11C1006.78 1803.06 1006.39 1802.94 1006.04 1802.74C1005.69 1802.54 1005.39 1802.28 1005.14 1801.96C1004.64 1801.32 1004.41 1800.51 1004.51 1799.71C1004.61 1798.91 1005.02 1798.17 1005.66 1797.68C1006.3 1797.18 1007.11 1796.95 1007.92 1797.05C1054 1802.65 1087.46 1785.69 1107.39 1746.66C1107.69 1746.06 1108.18 1745.58 1108.79 1745.29C1109.39 1745 1110.07 1744.92 1110.73 1745.05L1185.81 1760.34C1186.38 1760.46 1186.9 1760.73 1187.31 1761.12C1187.66 1761.45 1222.36 1794.49 1244.99 1816.68C1255.44 1826.91 1270.69 1821.4 1280.44 1811.95C1290.55 1802.15 1296.03 1787.19 1285.51 1775.86C1283.15 1773.31 1279.75 1769.53 1275.45 1764.75C1258.73 1746.16 1227.62 1711.55 1214.26 1702.59C1199.6 1692.75 1052.87 1669.63 1038.26 1669.63C1038.19 1669.63 1038.12 1669.63 1038.04 1669.63C1037.23 1669.63 1036.45 1669.32 1035.87 1668.75C1035.3 1668.18 1034.97 1667.4 1034.96 1666.59C1034.96 1665.78 1035.27 1665.01 1035.84 1664.43C1036.41 1663.85 1037.19 1663.53 1038 1663.52H1038.17C1052.16 1663.52 1200.62 1686.08 1217.67 1697.52C1231.66 1706.9 1261.92 1740.56 1280 1760.67C1284.12 1765.25 1287.67 1769.19 1290 1771.71C1303.25 1785.99 1296.55 1804.85 1284.7 1816.33C1277.4 1823.41 1267.64 1828.19 1258.24 1828.19Z" fill="#0C296A"/>
<path d="M826.355 1678.19C917.119 1646.56 1011.06 1628.37 1108.82 1651.44C1174.58 1666.95 1215.29 1732.74 1199.75 1798.38C1186.55 1854.13 1137.01 1891.84 1082.09 1892.44C1072.14 1892.54 1062.22 1891.43 1052.54 1889.14C1006.19 1878.21 948.177 1892.79 887.54 1915.93C838.651 1847.39 818.424 1768.07 826.357 1678.19H826.355Z" fill="white"/>
<path d="M887.54 1918.99C887.052 1918.99 886.571 1918.87 886.137 1918.65C885.704 1918.42 885.33 1918.1 885.047 1917.7C836.094 1849.07 815.322 1768.39 823.309 1677.92C823.36 1677.34 823.58 1676.78 823.942 1676.31C824.303 1675.85 824.791 1675.5 825.347 1675.31C876.487 1657.49 922.036 1646.36 964.6 1641.27C1015.73 1635.17 1063.13 1637.52 1109.52 1648.47C1142.12 1656.16 1169.77 1676.06 1187.38 1704.5C1204.98 1732.95 1210.43 1766.54 1202.73 1799.08C1189.44 1855.22 1139.84 1894.87 1082.12 1895.49C1071.93 1895.59 1061.76 1894.45 1051.84 1892.11C1012.48 1882.83 960.621 1891.31 888.632 1918.79C888.283 1918.92 887.913 1918.99 887.54 1918.99ZM829.234 1680.42C821.923 1767.76 841.915 1845.74 888.667 1912.24C960.71 1884.97 1013.05 1876.69 1053.25 1886.17C1062.68 1888.4 1072.36 1889.48 1082.06 1889.38C1136.96 1888.79 1184.13 1851.08 1196.78 1797.67C1211.9 1733.78 1172.13 1669.51 1108.12 1654.41C1024.37 1634.65 938.286 1642.67 829.232 1680.42L829.234 1680.42Z" fill="#0C296A"/>
<path d="M1050.87 1642.31C1104.09 1644.79 1225.71 1658.08 1247.15 1690.13C1265.13 1717 1293.95 1773.91 1303.93 1792.45C1325.39 1832.34 1266.36 1873.33 1242.33 1831.34C1225.48 1801.92 1192.84 1747.49 1192.84 1747.49L1114.63 1730.67" fill="white"/>
<path d="M1270.08 1852.01C1258.86 1852.01 1247.51 1846.55 1239.67 1832.86C1224.37 1806.14 1195.68 1758.18 1190.9 1750.2L1113.99 1733.66C1113.2 1733.48 1112.52 1733 1112.09 1732.32C1111.66 1731.64 1111.51 1730.82 1111.68 1730.04C1111.85 1729.25 1112.32 1728.57 1112.99 1728.13C1113.67 1727.69 1114.49 1727.53 1115.27 1727.69L1193.48 1744.51C1193.89 1744.6 1194.28 1744.77 1194.62 1745.01C1194.96 1745.26 1195.25 1745.57 1195.46 1745.93C1195.79 1746.47 1228.31 1800.71 1244.98 1829.83C1256.03 1849.14 1273.92 1848.26 1285.88 1841.65C1301.21 1833.17 1311.81 1813.55 1301.23 1793.89C1299.19 1790.1 1296.36 1784.7 1293 1778.29C1280.22 1753.9 1258.82 1713.08 1244.61 1691.83C1225.65 1663.5 1118.27 1648.52 1050.72 1645.36C1050.32 1645.34 1049.92 1645.24 1049.56 1645.07C1049.2 1644.9 1048.87 1644.66 1048.6 1644.36C1048.33 1644.07 1048.12 1643.72 1047.99 1643.34C1047.85 1642.96 1047.79 1642.56 1047.81 1642.16C1047.89 1640.48 1049.36 1639.19 1051.01 1639.26C1052.72 1639.34 1222.46 1647.73 1249.69 1688.44C1264.09 1709.96 1285.58 1750.96 1298.42 1775.46C1301.77 1781.85 1304.59 1787.22 1306.62 1791C1319.05 1814.11 1306.74 1837.09 1288.84 1846.99C1283.12 1850.15 1276.62 1852.01 1270.08 1852.01L1270.08 1852.01Z" fill="#0C296A"/>
<path d="M1098.26 1692.72C1136.85 1698.71 1201.12 1706.66 1219.27 1740.68C1234.48 1769.2 1228.14 1851.27 1227.06 1872.29C1225.1 1910.36 1160.72 1916.46 1160.82 1871.51C1160.9 1835.24 1158.98 1791.42 1158.98 1791.42L1088.76 1772.07" fill="white"/>
<path d="M1191.58 1906.12C1191.22 1906.12 1190.87 1906.11 1190.51 1906.11C1175.37 1905.7 1157.7 1896.4 1157.76 1871.51C1157.83 1840.33 1156.4 1803.13 1156.01 1793.77L1087.94 1775.01C1087.18 1774.78 1086.55 1774.26 1086.16 1773.56C1085.78 1772.86 1085.69 1772.05 1085.9 1771.28C1086.11 1770.51 1086.61 1769.86 1087.3 1769.46C1087.98 1769.06 1088.8 1768.94 1089.57 1769.12L1159.79 1788.47C1160.41 1788.64 1160.97 1789.01 1161.37 1789.51C1161.77 1790.02 1162 1790.63 1162.03 1791.28C1162.05 1791.72 1163.96 1835.59 1163.88 1871.52C1163.83 1891.99 1177.69 1899.65 1190.67 1900C1206.31 1900.44 1223.08 1890.11 1224 1872.13C1224.1 1870.35 1224.23 1868.12 1224.38 1865.53C1225.94 1838.71 1230.09 1767.46 1216.57 1742.11C1200.14 1711.33 1142.54 1702.56 1104.41 1696.76C1102.14 1696.41 1099.92 1696.07 1097.79 1695.74C1097.39 1695.68 1097.01 1695.54 1096.67 1695.33C1096.33 1695.12 1096.03 1694.85 1095.79 1694.53C1095.55 1694.2 1095.38 1693.84 1095.29 1693.45C1095.19 1693.06 1095.18 1692.65 1095.24 1692.26C1095.36 1691.46 1095.8 1690.74 1096.46 1690.26C1097.11 1689.78 1097.93 1689.58 1098.73 1689.71C1100.86 1690.04 1103.06 1690.37 1105.34 1690.72C1144.67 1696.7 1204.1 1705.75 1221.97 1739.24C1236.29 1766.1 1232.22 1836.03 1230.48 1865.89C1230.35 1868.07 1230.23 1870.26 1230.11 1872.44C1229.02 1893.73 1209.86 1906.12 1191.58 1906.12V1906.12Z" fill="#0C296A"/>
<path d="M1074.21 1745.67C1102.53 1751.05 1170.04 1766.05 1180.91 1791.43C1193.63 1821.14 1169.37 1876.22 1160.14 1895.14C1149.11 1917.74 1116 1909.46 1090.13 1899.88C1075.14 1894.33 1064.85 1880.92 1073.19 1854.74C1078.55 1837.92 1101.82 1842.31 1101.82 1842.31L1050.4 1822.82" fill="white"/>
<path d="M1132.45 1912.62C1115.74 1912.62 1097.5 1905.87 1089.07 1902.75C1077.58 1898.49 1059.87 1886.48 1070.27 1853.82C1072.92 1845.49 1079.51 1841.43 1086.41 1839.73L1049.31 1825.67C1048.56 1825.38 1047.94 1824.8 1047.61 1824.07C1047.28 1823.33 1047.25 1822.49 1047.54 1821.73C1047.83 1820.97 1048.41 1820.36 1049.15 1820.03C1049.89 1819.7 1050.73 1819.67 1051.49 1819.96L1102.91 1839.45C1103.62 1839.72 1104.21 1840.25 1104.56 1840.93C1104.9 1841.61 1104.98 1842.4 1104.77 1843.13C1104.56 1843.87 1104.09 1844.5 1103.44 1844.9C1102.79 1845.3 1102.01 1845.45 1101.26 1845.3C1100.42 1845.15 1080.57 1841.64 1076.1 1855.67C1069.44 1876.59 1074.66 1890.89 1091.2 1897.02C1128.03 1910.66 1149.68 1909.61 1157.39 1893.8C1165.39 1877.41 1190.53 1821.65 1178.1 1792.63C1170.96 1775.95 1132.88 1759.93 1073.64 1748.66C1072.84 1748.51 1072.14 1748.05 1071.68 1747.38C1071.22 1746.71 1071.05 1745.89 1071.2 1745.09C1071.36 1744.3 1071.82 1743.6 1072.49 1743.14C1073.16 1742.69 1073.98 1742.52 1074.78 1742.67C1110.79 1749.51 1172.83 1764.8 1183.72 1790.23C1196.81 1820.78 1173.51 1874.71 1162.89 1896.48C1156.9 1908.74 1145.11 1912.62 1132.45 1912.62Z" fill="#0C296A"/>
<path d="M1045.56 1803.41C1066.58 1807.87 1138.62 1830.21 1145.89 1848.91C1153.21 1867.74 1128.68 1944.44 1117.46 1949.98C1101.89 1957.66 1044.64 1937.46 1032.88 1933.73C1007.55 1925.7 1016.83 1889.62 1024.33 1886.56C1040.45 1888.43 1056.24 1892.5 1071.75 1898.4C1052.53 1891.15 1031.94 1885.18 1008.47 1885.53" fill="white"/>
<path d="M1107.27 1954.74C1089.67 1954.74 1061.11 1946.22 1036.49 1938.12C1034.61 1937.5 1033.07 1936.99 1031.95 1936.64C1020.44 1932.99 1013.8 1923.64 1013.27 1910.3C1012.94 1902.31 1014.96 1894.04 1018.08 1888.8C1014.9 1888.61 1011.7 1888.54 1008.51 1888.59C1006.86 1888.56 1005.43 1887.26 1005.41 1885.58C1005.4 1885.18 1005.47 1884.78 1005.62 1884.41C1005.77 1884.03 1005.99 1883.69 1006.27 1883.41C1006.55 1883.12 1006.88 1882.89 1007.25 1882.73C1007.62 1882.57 1008.02 1882.48 1008.42 1882.48C1032.33 1882.14 1052.78 1888.15 1069.9 1894.45C1070.88 1894.81 1071.86 1895.18 1072.84 1895.55C1073.6 1895.84 1074.21 1896.41 1074.55 1897.15C1074.88 1897.89 1074.9 1898.73 1074.62 1899.49C1074.33 1900.25 1073.75 1900.86 1073.01 1901.19C1072.27 1901.52 1071.43 1901.55 1070.67 1901.26C1069.71 1900.9 1068.74 1900.54 1067.76 1900.17C1053.39 1894.94 1039.02 1891.42 1024.98 1889.71C1022.8 1891.58 1018.97 1899.94 1019.38 1910.05C1019.68 1917.54 1022.43 1927.22 1033.8 1930.82C1034.94 1931.18 1036.5 1931.69 1038.41 1932.32C1054.42 1937.59 1103.15 1953.63 1116.11 1947.24C1119.81 1945.41 1128.36 1928.19 1135.69 1903.56C1143.12 1878.65 1146 1857.63 1143.04 1850.02C1136.76 1833.88 1070.6 1811.85 1044.93 1806.4C1044.53 1806.32 1044.15 1806.17 1043.82 1805.94C1043.48 1805.72 1043.19 1805.43 1042.97 1805.09C1042.74 1804.75 1042.59 1804.37 1042.51 1803.97C1042.44 1803.58 1042.44 1803.17 1042.53 1802.77C1042.61 1802.37 1042.77 1802 1043 1801.67C1043.24 1801.33 1043.53 1801.05 1043.87 1800.83C1044.22 1800.61 1044.6 1800.47 1045 1800.4C1045.4 1800.33 1045.81 1800.34 1046.2 1800.43C1057.63 1802.85 1140.04 1825.43 1148.74 1847.81C1156.62 1868.06 1131.69 1946.36 1118.82 1952.71C1115.96 1954.12 1112.01 1954.74 1107.27 1954.74H1107.27Z" fill="#0C296A"/>
<path d="M319.704 1789.2C345.607 1817.18 379.834 1827.83 444.561 1819.19C548.458 1805.3 715.1 1678.19 745.859 1678.19C773.186 1678.18 790.259 1690.44 790.259 1690.44C801.165 1686.03 812.906 1682.18 826.354 1678.19C818.581 1762.17 843.082 1840.73 887.537 1915.93L853.558 1929.72C853.558 1929.72 860.34 1948.37 840.988 1971.39C823.439 1992.26 503.277 2193.29 249.01 2068.24" fill="white"/>
<path d="M433.886 2111.86C372.449 2111.86 308.403 2100.85 247.659 2070.98C247.297 2070.8 246.973 2070.55 246.706 2070.25C246.439 2069.95 246.234 2069.6 246.103 2069.22C245.973 2068.84 245.919 2068.44 245.944 2068.04C245.97 2067.63 246.075 2067.24 246.253 2066.88C246.431 2066.52 246.679 2066.2 246.982 2065.93C247.286 2065.67 247.638 2065.47 248.02 2065.34C248.402 2065.21 248.806 2065.16 249.208 2065.18C249.61 2065.21 250.003 2065.32 250.363 2065.5C382.693 2130.58 531.387 2104.76 632.818 2071.63C746.846 2034.4 830.332 1979.32 838.647 1969.43C856.504 1948.19 850.925 1931.45 850.678 1930.75C850.417 1930 850.451 1929.19 850.773 1928.47C851.095 1927.76 851.68 1927.19 852.408 1926.89L883.112 1914.43C836.588 1834.67 816.875 1758.69 822.925 1682.41C810.118 1686.29 800.267 1689.69 791.409 1693.27C790.432 1693.66 789.329 1693.53 788.476 1692.92C788.316 1692.8 771.79 1681.24 745.881 1681.24H745.861C734.935 1681.25 701.903 1700.66 663.654 1723.13C598.705 1761.29 509.758 1813.56 444.969 1822.21C382.479 1830.56 345.53 1821.6 317.459 1791.27C316.921 1790.67 316.64 1789.89 316.676 1789.09C316.713 1788.29 317.065 1787.53 317.656 1786.99C318.246 1786.44 319.028 1786.15 319.832 1786.18C320.636 1786.2 321.397 1786.54 321.95 1787.13C348.491 1815.8 383.893 1824.21 444.155 1816.16C507.721 1807.67 596.052 1755.76 660.549 1717.87C702.766 1693.06 733.266 1675.14 745.858 1675.14H745.879C769.661 1675.14 785.84 1684.02 790.607 1687.01C800.246 1683.19 811.092 1679.54 825.483 1675.26C825.963 1675.12 826.47 1675.1 826.96 1675.2C827.45 1675.3 827.909 1675.51 828.296 1675.83C828.682 1676.15 828.985 1676.55 829.178 1677.01C829.371 1677.47 829.448 1677.97 829.402 1678.47C822.235 1755.91 842.114 1833.08 890.173 1914.38C890.396 1914.76 890.535 1915.18 890.58 1915.62C890.626 1916.06 890.576 1916.5 890.435 1916.91C890.295 1917.33 890.066 1917.71 889.765 1918.03C889.463 1918.35 889.097 1918.6 888.69 1918.76L857.175 1931.55C858.417 1937.96 859.35 1954.3 843.333 1973.35C834.785 1983.52 749.892 2039.82 634.721 2077.44C578.614 2095.76 508.16 2111.86 433.886 2111.86Z" fill="#0C296A"/>
<path d="M790.26 1690.44C771.941 1784.63 816.382 1903.87 853.56 1929.72C879.576 1919.67 907.622 1907.41 935.033 1899.87C897.857 1874.03 859.87 1756.27 878.191 1662.08C845.502 1670.27 816.573 1680.68 790.26 1690.44Z" fill="white"/>
<path d="M853.56 1932.77C852.944 1932.77 852.332 1932.59 851.812 1932.23C832.395 1918.73 811.84 1882.08 798.169 1836.59C789.223 1806.82 775.913 1748.19 787.258 1689.85C787.358 1689.34 787.589 1688.86 787.928 1688.46C788.268 1688.06 788.704 1687.76 789.196 1687.57C815.897 1677.67 844.706 1667.32 877.444 1659.11C877.943 1658.99 878.466 1658.99 878.965 1659.12C879.463 1659.25 879.92 1659.5 880.294 1659.86C880.668 1660.21 880.946 1660.65 881.103 1661.14C881.26 1661.63 881.29 1662.15 881.191 1662.66C862.652 1758 901.566 1872.88 936.781 1897.37C937.258 1897.7 937.631 1898.16 937.856 1898.69C938.081 1899.23 938.148 1899.81 938.05 1900.39C937.952 1900.96 937.692 1901.49 937.302 1901.92C936.912 1902.35 936.407 1902.66 935.847 1902.81C915.13 1908.51 894.015 1916.94 873.596 1925.09C867.299 1927.62 860.989 1930.11 854.664 1932.57C854.308 1932.7 853.932 1932.77 853.56 1932.77ZM792.943 1692.7C776.049 1783.6 817.823 1899.08 854.005 1926.27C859.67 1924.07 865.345 1921.81 871.325 1919.42C890.036 1911.95 909.324 1904.26 928.495 1898.57C911.078 1882.99 893.931 1848.95 882.844 1807.39C870.082 1759.54 867.028 1708.41 874.32 1666.21C844.42 1673.98 817.763 1683.51 792.943 1692.7Z" fill="#0C296A"/>
</g>
<g clip-path="url(#clip5_1_522)">
<path d="M2826.22 1813.82H1806.96L1874.18 1097.76H2893.44L2826.22 1813.82Z" fill="#0C296A"/>
<path d="M2826.22 1817.17H1806.96C1806.49 1817.17 1806.03 1817.08 1805.6 1816.89C1805.18 1816.7 1804.79 1816.42 1804.48 1816.08C1804.16 1815.73 1803.92 1815.33 1803.77 1814.88C1803.63 1814.44 1803.57 1813.97 1803.62 1813.5L1870.83 1097.44C1870.91 1096.61 1871.3 1095.84 1871.92 1095.28C1872.53 1094.71 1873.34 1094.4 1874.18 1094.4H2893.44C2893.91 1094.4 2894.37 1094.5 2894.8 1094.69C2895.23 1094.87 2895.61 1095.15 2895.92 1095.5C2896.24 1095.84 2896.48 1096.25 2896.63 1096.69C2896.78 1097.13 2896.83 1097.6 2896.79 1098.07L2829.57 1814.13C2829.49 1814.96 2829.1 1815.74 2828.49 1816.3C2827.87 1816.86 2827.06 1817.17 2826.22 1817.17ZM1810.65 1810.46H2823.16L2889.75 1101.11H1877.24L1810.65 1810.46Z" fill="#0C296A"/>
<path d="M2395.94 1992.24H2217.3L2234.35 1813.82H2412.98L2395.94 1992.24Z" fill="#0C296A"/>
<path d="M2395.94 1995.6H2217.3C2216.83 1995.6 2216.37 1995.5 2215.94 1995.31C2215.51 1995.12 2215.13 1994.85 2214.82 1994.5C2214.5 1994.16 2214.26 1993.75 2214.11 1993.3C2213.97 1992.86 2213.91 1992.39 2213.96 1991.93L2231 1813.5C2231.08 1812.67 2231.47 1811.89 2232.09 1811.33C2232.7 1810.77 2233.51 1810.46 2234.35 1810.46H2412.98C2413.45 1810.46 2413.91 1810.56 2414.34 1810.75C2414.77 1810.94 2415.15 1811.21 2415.47 1811.56C2415.78 1811.91 2416.02 1812.31 2416.17 1812.76C2416.32 1813.2 2416.37 1813.67 2416.33 1814.14L2399.28 1992.56C2399.2 1993.39 2398.82 1994.17 2398.2 1994.73C2397.58 1995.29 2396.77 1995.6 2395.94 1995.6ZM2221 1988.89H2392.88L2409.29 1817.17H2237.4L2221 1988.89Z" fill="#0C296A"/>
<path d="M2235.35 1992.24H2208.9L2225.94 1813.82H2252.4L2235.35 1992.24Z" fill="white"/>
<path d="M2235.35 1995.6H2208.9C2208.43 1995.6 2207.97 1995.5 2207.54 1995.31C2207.11 1995.12 2206.73 1994.85 2206.41 1994.5C2206.1 1994.16 2205.86 1993.75 2205.71 1993.3C2205.56 1992.86 2205.51 1992.39 2205.55 1991.93L2222.6 1813.5C2222.68 1812.67 2223.06 1811.89 2223.68 1811.33C2224.3 1810.77 2225.11 1810.46 2225.94 1810.46H2252.4C2252.87 1810.46 2253.33 1810.56 2253.76 1810.75C2254.19 1810.94 2254.57 1811.21 2254.88 1811.56C2255.2 1811.91 2255.44 1812.31 2255.59 1812.76C2255.73 1813.2 2255.79 1813.67 2255.74 1814.14L2238.7 1992.56C2238.62 1993.39 2238.23 1994.17 2237.61 1994.73C2237 1995.29 2236.19 1995.6 2235.35 1995.6ZM2212.59 1988.89H2232.3L2248.7 1817.17H2229L2212.59 1988.89Z" fill="#0C296A"/>
<path d="M2571.89 1992.24H2059.99L2063.2 1958.81H2575.1L2571.89 1992.24Z" fill="#0C296A"/>
<path d="M2571.89 1995.6H2059.99C2059.53 1995.6 2059.06 1995.5 2058.63 1995.31C2058.21 1995.12 2057.82 1994.85 2057.51 1994.5C2057.19 1994.16 2056.95 1993.75 2056.81 1993.3C2056.66 1992.86 2056.6 1992.39 2056.65 1991.92L2059.85 1958.49C2059.93 1957.66 2060.32 1956.89 2060.94 1956.33C2061.56 1955.77 2062.36 1955.45 2063.2 1955.45H2575.1C2575.57 1955.45 2576.03 1955.55 2576.46 1955.74C2576.89 1955.93 2577.27 1956.21 2577.59 1956.55C2577.9 1956.9 2578.14 1957.31 2578.29 1957.75C2578.44 1958.2 2578.49 1958.67 2578.45 1959.13L2575.24 1992.57C2575.16 1993.4 2574.77 1994.17 2574.15 1994.73C2573.54 1995.29 2572.73 1995.6 2571.89 1995.6ZM2063.69 1988.89H2568.84L2571.4 1962.17H2066.26L2063.69 1988.89Z" fill="#0C296A"/>
<path d="M2059.99 1992.24H1953.21L1956.41 1958.81H2063.2L2059.99 1992.24Z" fill="white"/>
<path d="M2059.99 1995.6H1953.21C1952.74 1995.6 1952.28 1995.5 1951.85 1995.31C1951.42 1995.12 1951.04 1994.85 1950.72 1994.5C1950.41 1994.16 1950.17 1993.75 1950.02 1993.3C1949.87 1992.86 1949.82 1992.39 1949.86 1991.92L1953.07 1958.49C1953.15 1957.66 1953.53 1956.89 1954.15 1956.33C1954.77 1955.77 1955.58 1955.45 1956.41 1955.45H2063.2C2063.67 1955.45 2064.13 1955.55 2064.56 1955.74C2064.99 1955.93 2065.37 1956.21 2065.69 1956.55C2066 1956.9 2066.24 1957.31 2066.39 1957.75C2066.54 1958.2 2066.59 1958.67 2066.55 1959.13L2063.34 1992.57C2063.26 1993.4 2062.87 1994.17 2062.25 1994.73C2061.64 1995.29 2060.83 1995.6 2059.99 1995.6ZM1956.91 1988.89H2056.94L2059.5 1962.17H1959.47L1956.91 1988.89Z" fill="#0C296A"/>
<path d="M1839.16 1813.82H1806.96L1874.18 1097.76H1906.37L1839.16 1813.82Z" fill="white"/>
<path d="M1839.16 1817.17H1806.96C1806.49 1817.17 1806.03 1817.08 1805.6 1816.89C1805.18 1816.7 1804.79 1816.42 1804.48 1816.08C1804.16 1815.73 1803.92 1815.33 1803.77 1814.88C1803.63 1814.44 1803.57 1813.97 1803.62 1813.5L1870.83 1097.44C1870.91 1096.61 1871.3 1095.84 1871.92 1095.28C1872.53 1094.71 1873.34 1094.4 1874.18 1094.4H1906.37C1906.84 1094.4 1907.3 1094.5 1907.73 1094.69C1908.16 1094.88 1908.54 1095.15 1908.86 1095.5C1909.17 1095.84 1909.41 1096.25 1909.56 1096.69C1909.71 1097.14 1909.76 1097.6 1909.72 1098.07L1842.5 1814.13C1842.42 1814.96 1842.04 1815.74 1841.42 1816.3C1840.8 1816.86 1839.99 1817.17 1839.16 1817.17ZM1810.65 1810.46H1836.1L1902.68 1101.11H1877.24L1810.65 1810.46Z" fill="#0C296A"/>
<path d="M2412.98 1817.17H2252.4C2251.5 1817.17 2250.65 1816.82 2250.02 1816.19C2249.39 1815.56 2249.04 1814.71 2249.04 1813.82C2249.04 1812.93 2249.39 1812.07 2250.02 1811.44C2250.65 1810.81 2251.5 1810.46 2252.4 1810.46H2412.98C2413.87 1810.46 2414.73 1810.81 2415.36 1811.44C2415.99 1812.07 2416.34 1812.93 2416.34 1813.82C2416.34 1814.71 2415.99 1815.56 2415.36 1816.19C2414.73 1816.82 2413.87 1817.17 2412.98 1817.17ZM2399.13 1962.17H2238.55C2237.65 1962.17 2236.8 1961.81 2236.17 1961.18C2235.54 1960.56 2235.19 1959.7 2235.19 1958.81C2235.19 1957.92 2235.54 1957.07 2236.17 1956.44C2236.8 1955.81 2237.65 1955.45 2238.55 1955.45H2399.13C2400.02 1955.45 2400.88 1955.81 2401.51 1956.44C2402.14 1957.07 2402.49 1957.92 2402.49 1958.81C2402.49 1959.7 2402.14 1960.56 2401.51 1961.18C2400.88 1961.81 2400.02 1962.17 2399.13 1962.17Z" fill="white"/>
</g>
<g clip-path="url(#clip6_1_522)">
<path d="M1309.9 1955.45H1766.35C1779.27 1955.45 1789.76 1965.96 1789.76 1978.91V1996.15H1309.9V1955.45Z" fill="white"/>
<path d="M1789.76 1999.2H1309.9C1309.09 1999.2 1308.32 1998.88 1307.75 1998.31C1307.18 1997.74 1306.86 1996.96 1306.86 1996.15V1955.45C1306.86 1954.64 1307.18 1953.86 1307.75 1953.29C1308.32 1952.72 1309.09 1952.4 1309.9 1952.4H1766.35C1780.93 1952.4 1792.8 1964.29 1792.8 1978.91V1996.15C1792.8 1996.96 1792.48 1997.74 1791.91 1998.31C1791.34 1998.88 1790.57 1999.2 1789.76 1999.2H1789.76ZM1312.94 1993.1H1786.72V1978.91C1786.72 1967.65 1777.58 1958.5 1766.34 1958.5H1312.94V1993.1Z" fill="#0C296A"/>
<path d="M997.255 1955.45H1316.95C1329.88 1955.45 1340.37 1965.96 1340.37 1978.91V1996.15H973.842V1978.91C973.842 1965.96 984.334 1955.45 997.255 1955.45Z" fill="white"/>
<path d="M1340.37 1999.2H973.842C973.035 1999.2 972.262 1998.88 971.691 1998.31C971.121 1997.74 970.8 1996.96 970.8 1996.15V1978.91C970.8 1964.29 982.668 1952.4 997.255 1952.4H1316.95C1331.54 1952.4 1343.41 1964.29 1343.41 1978.91V1996.15C1343.41 1996.96 1343.09 1997.74 1342.52 1998.31C1341.95 1998.88 1341.17 1999.2 1340.37 1999.2ZM976.885 1993.1H1337.32V1978.91C1337.32 1967.65 1328.19 1958.5 1316.95 1958.5H997.255C986.022 1958.5 976.885 1967.65 976.885 1978.91V1993.1Z" fill="#0C296A"/>
</g>
<defs>
<clipPath id="clip0_1_522">
<rect width="1366.8" height="945.6" fill="white" transform="translate(1202.4 282)"/>
</clipPath>
<clipPath id="clip1_1_522">
<rect width="2846.4" height="74.4" fill="white" transform="translate(94.8 1992)"/>
</clipPath>
<clipPath id="clip2_1_522">
<rect width="1420.8" height="1648.8" fill="white" transform="translate(62.4 465.6)"/>
</clipPath>
<clipPath id="clip3_1_522">
<rect width="134.4" height="433.2" fill="white" transform="translate(1139.42 1526.57) rotate(-2.06993)"/>
</clipPath>
<clipPath id="clip4_1_522">
<rect width="1130.4" height="474" fill="white" transform="translate(181.2 1638)"/>
</clipPath>
<clipPath id="clip5_1_522">
<rect width="1093.2" height="901.2" fill="white" transform="translate(1803.6 1094.4)"/>
</clipPath>
<clipPath id="clip6_1_522">
<rect width="822" height="46.8" fill="white" transform="translate(970.8 1952.4)"/>
</clipPath>
</defs>
</svg>
