<svg width="657" height="413" viewBox="0 0 657 413" fill="none" xmlns="http://www.w3.org/2000/svg">
<path d="M633.792 305.453C633.792 247.083 595.237 211.447 564.516 192.4C518.976 164.166 517.667 75.354 407.993 75.354C335.185 75.354 257.768 129.73 208.001 137.103C158.233 144.476 84.5029 184.106 84.5029 267.974C84.5029 351.842 138.726 390.55 141.798 390.55C197.095 390.55 488.175 390.55 531.491 390.55C591.55 390.55 633.792 363.515 633.792 305.453Z" fill="#B8CAF2"/>
<path d="M437.486 306.682H103.857V311.751H437.486V306.682Z" fill="#E9EFFF"/>
<path d="M295.325 263.596H228.046L243.748 305.829H311.026L295.325 263.596Z" fill="#152137"/>
<path d="M292.79 263.596H225.512L241.391 306.539H308.67L292.79 263.596Z" fill="#4B78EF"/>
<path d="M330.828 302.305H239.817V306.663H330.828V302.305Z" fill="#152137"/>
<path d="M262.86 279.937C260.956 279.937 260.002 281.479 260.728 283.383L262.255 287.384L263.061 286.082C263.828 286.55 264.68 286.83 265.49 286.83C267.393 286.83 268.348 285.287 267.622 283.384C266.894 281.479 264.764 279.937 262.86 279.937ZM264.99 285.519C264.709 285.519 264.428 285.453 264.197 285.379C263.981 285.309 263.806 285.228 263.714 285.182C263.667 285.159 263.648 285.149 263.641 285.145L263.068 286.073L262.042 283.384C261.592 282.206 262.183 281.25 263.362 281.25C264.542 281.25 265.861 282.206 266.311 283.384C266.76 284.562 266.169 285.519 264.99 285.519ZM263.77 282.321C263.183 282.321 262.889 282.796 263.113 283.383C263.337 283.97 263.994 284.445 264.581 284.445C265.168 284.445 265.463 283.97 265.239 283.383C265.014 282.796 264.356 282.321 263.77 282.321Z" fill="#DBDCE1"/>
<path d="M272.822 228.959H202.471V240.94H272.822V228.959Z" fill="#454E5D"/>
<path d="M261.763 239.096C262.95 239.096 263.913 238.133 263.913 236.946C263.913 235.758 262.95 234.795 261.763 234.795C260.575 234.795 259.613 235.758 259.613 236.946C259.613 238.133 260.575 239.096 261.763 239.096Z" fill="#E9EFFF"/>
<path d="M407.377 94.0938H173.899V232.952H407.377V94.0938Z" fill="#636B78"/>
<path d="M420.282 99.6235H197.864V227.423H420.282V99.6235Z" fill="#FBFBFD"/>
<path d="M214.001 104.543C209.065 104.543 205.063 108.545 205.063 113.482V123.858L208.44 120.48C209.967 121.694 211.9 122.42 214.001 122.42C218.938 122.42 222.939 118.418 222.939 113.481C222.939 108.544 218.938 104.543 214.001 104.543ZM214.001 119.019C213.272 119.019 212.607 118.851 212.08 118.655C211.59 118.473 211.216 118.266 211.023 118.147C210.924 118.087 210.885 118.06 210.871 118.05L208.465 120.457V113.483C208.465 110.425 210.944 107.946 214.002 107.946C217.06 107.946 219.539 110.425 219.539 113.483C219.538 116.54 217.059 119.019 214.001 119.019ZM214.001 110.725C212.479 110.725 211.246 111.959 211.246 113.482C211.246 115.004 212.479 116.238 214.001 116.238C215.523 116.238 216.758 115.004 216.758 113.482C216.758 111.96 215.523 110.725 214.001 110.725Z" fill="#1751D0"/>
<path d="M404.211 130.549C404.211 119.777 395.479 111.044 384.708 111.044C383.382 111.044 382.088 111.179 380.838 111.432L382.385 119.079C383.136 118.927 383.912 118.846 384.709 118.846C391.162 118.846 396.41 124.096 396.41 130.549C396.41 136.54 391.883 141.488 386.068 142.165L386.976 149.91C396.677 148.785 404.211 140.552 404.211 130.549Z" fill="#33B3BC"/>
<path d="M373.006 130.549C373.006 126.467 375.109 122.872 378.286 120.777L374.004 114.253C368.706 117.741 365.203 123.732 365.203 130.549C365.203 134.309 366.286 137.808 368.129 140.787L374.767 136.692C373.657 134.904 373.006 132.803 373.006 130.549Z" fill="#54BFC7"/>
<path d="M384.708 152.653C386.232 152.653 387.722 152.498 389.161 152.202L386.54 139.465C385.947 139.587 385.334 139.651 384.708 139.651C380.961 139.651 377.738 137.374 376.344 134.134L364.388 139.243C367.771 147.12 375.605 152.653 384.708 152.653Z" fill="#AFE2E5"/>
<path d="M368.606 115.428L378.079 124.33C379.517 122.799 381.472 121.762 383.666 121.51L382.179 108.592C376.851 109.203 372.096 111.713 368.606 115.428Z" fill="#8AD4D5"/>
<path d="M391.643 155.361H377.773V158.612H391.643V155.361Z" fill="#C6C5CB"/>
<path d="M400.561 176.909L394.218 181.448C395.592 183.366 396.41 185.708 396.41 188.242C396.41 194.695 391.162 199.944 384.709 199.944C384.289 199.944 383.875 199.92 383.466 199.877L382.638 207.634C383.319 207.706 384.008 207.747 384.709 207.747C395.481 207.747 404.212 199.014 404.212 188.242C404.211 184.011 402.85 180.105 400.561 176.909Z" fill="#F9CCB7"/>
<path d="M370.837 174.539C370.699 174.898 370.668 175.121 370.668 175.121L376.17 180.266C378.306 177.979 381.338 176.54 384.709 176.54C385.658 176.54 386.577 176.666 387.462 176.881L389.296 169.304C387.822 168.948 386.291 168.739 384.708 168.739C379.279 168.739 374.373 170.96 370.837 174.539Z" fill="#F89157"/>
<path d="M362.603 188.243C362.603 199.991 371.818 209.625 383.398 210.305L384.169 197.317C379.401 197.036 375.606 193.079 375.606 188.243C375.606 185.504 376.826 183.051 378.746 181.381L370.227 171.563C365.562 175.619 362.603 181.59 362.603 188.243Z" fill="#F37B3F"/>
<path d="M388.797 166.523L386.392 179.304C388.968 179.788 391.158 181.361 392.477 183.525L403.59 176.76C400.384 171.509 395.049 167.699 388.797 166.523Z" fill="#F8B491"/>
<path d="M391.643 213.44H377.773V216.691H391.643V213.44Z" fill="#C6C5CB"/>
<path d="M220.304 210.649L219.198 209.174L260.918 177.885H286.196L315.688 149.315H326.042L345.355 129.547L346.673 130.835L326.818 151.158H316.435L286.943 179.728H261.532L220.304 210.649Z" fill="#152235"/>
<path d="M322.06 141.307H308.191V144.557H322.06V141.307Z" fill="#C6C5CB"/>
<path d="M308.688 192.401H287.491V209.912H308.688V192.401Z" fill="#45BA74"/>
<path d="M279.196 161.526H257.999V209.912H279.196V161.526Z" fill="#F37B3F"/>
<path d="M249.704 147.241H228.507V209.912H249.704V147.241Z" fill="#1751D0"/>
<path d="M274.693 148.59L272.086 145.984L268.828 149.242L265.57 145.984L262.963 148.59L266.221 151.849L262.963 155.108L265.569 157.714L268.828 154.456L272.086 157.714L274.693 155.108L271.434 151.849L274.693 148.59Z" fill="#F93660"/>
<path d="M303.264 179.695L300.656 177.089L297.398 180.347L294.14 177.089L291.533 179.695L294.791 182.954L291.533 186.213L294.14 188.819L297.398 185.561L300.656 188.819L303.264 186.213L300.005 182.954L303.264 179.695Z" fill="#F93660"/>
<path d="M238.414 142.706L233.202 137.491L235.808 134.885L238.414 137.491L244.117 131.79L246.724 134.396L238.414 142.706Z" fill="#19A84E"/>
<path d="M341.406 210.833H218.83V131.804H220.673V208.99H341.406V210.833Z" fill="#152235"/>
<path d="M232.113 109.006H229.024V116.513H230.418V114.347H232.113C234.086 114.347 235.309 113.328 235.309 111.677C235.309 110.014 234.086 109.006 232.113 109.006H232.113ZM232.049 113.167H230.418V110.186H232.049C233.271 110.186 233.904 110.733 233.904 111.677C233.904 112.62 233.271 113.167 232.049 113.167V113.167ZM237.353 111.623V110.786H236.077V116.513H237.417V113.736C237.417 112.567 238.061 111.966 239.08 111.966C239.176 111.966 239.273 111.977 239.391 111.998V110.722C238.436 110.722 237.739 111.022 237.353 111.623L237.353 111.623ZM245.413 113.682C245.413 111.891 244.191 110.722 242.518 110.722C240.813 110.722 239.558 111.945 239.558 113.65C239.558 115.355 240.802 116.588 242.722 116.588C243.708 116.588 244.513 116.267 245.027 115.655L244.309 114.83C243.901 115.248 243.397 115.452 242.754 115.452C241.756 115.452 241.059 114.915 240.898 114.079H245.392C245.403 113.95 245.413 113.789 245.413 113.682ZM242.518 111.794C243.397 111.794 244.03 112.363 244.137 113.189H240.888C241.016 112.352 241.649 111.794 242.518 111.794H242.518ZM247.436 115.441L250.589 111.634V110.786H245.795V111.859H248.873L245.731 115.666V116.513H250.675V115.441H247.436V115.441ZM252.14 109.843C252.644 109.843 252.998 109.478 252.998 109.006C252.998 108.566 252.633 108.234 252.14 108.234C251.647 108.234 251.282 108.588 251.282 109.038C251.282 109.489 251.647 109.843 252.14 109.843ZM251.464 116.513H252.805V110.786H251.464V116.513ZM256.693 116.588C258.474 116.588 259.75 115.366 259.75 113.65C259.75 111.934 258.474 110.722 256.693 110.722C254.935 110.722 253.648 111.934 253.648 113.65C253.648 115.366 254.935 116.588 256.693 116.588ZM256.693 115.441C255.728 115.441 254.999 114.744 254.999 113.65C254.999 112.556 255.728 111.859 256.693 111.859C257.669 111.859 258.399 112.556 258.399 113.65C258.399 114.744 257.669 115.441 256.693 115.441Z" fill="#081B45"/>
<path d="M343.787 222.968C340.869 221.585 332.727 215.595 329.501 212.369C326.276 209.143 325.354 207.607 325.354 207.607L333.496 195.933C333.496 195.933 328.59 189.92 325.047 185.834C323.42 183.956 323.593 181.952 324.433 181.187C326.545 179.267 328.503 182.147 330.231 183.645C331.959 185.142 357.765 207.914 357.765 207.914L343.787 222.968Z" fill="#F8B491"/>
<path d="M331.023 193.163C331.023 193.163 329.348 192.861 328.427 194.089C327.505 195.318 328.119 196.854 328.119 196.854C328.119 196.854 326.722 196.997 326.123 197.93C324.74 200.08 326.277 202.692 326.277 202.692C326.277 202.692 325.661 202.692 324.893 203.92C324.126 205.149 323.665 207.453 326.89 209.757C330.116 212.061 332.727 213.137 333.803 211.907C334.878 210.678 334.11 208.835 334.11 208.835C334.11 208.835 335.953 209.757 336.874 208.529C337.796 207.3 337.028 205.149 337.028 205.149C337.028 205.149 338.565 206.071 339.486 204.842C340.408 203.614 341.637 202.999 338.719 200.234C338.719 200.234 336.876 199.62 335.186 197.623C333.496 195.626 331.023 193.163 331.023 193.163Z" fill="#F9CCB7"/>
<path d="M318.289 170.896L320.593 168.899L345.784 194.704L344.094 198.852L318.289 170.896Z" fill="#636B78"/>
<path d="M358.533 212.83C358.533 212.83 350.085 213.291 346.705 209.758C343.326 206.226 342.096 203 341.943 199.927C341.79 196.855 342.405 194.207 341.022 192.247C339.178 189.636 336.414 185.796 337.182 183.646C337.885 181.679 339.639 181.496 341.022 183.492C342.404 185.488 346.398 190.865 349.163 193.015C351.928 195.165 357.612 201.924 360.53 204.381C363.448 206.839 358.533 212.215 358.533 212.215" fill="#F9CCB7"/>
<path d="M346.091 209.236C345.962 209.236 345.833 209.191 345.728 209.1C343.686 207.323 342.263 204.633 341.612 201.321C341.553 201.021 341.747 200.73 342.047 200.671C342.341 200.616 342.638 200.807 342.697 201.107C343.118 203.247 344.111 206.227 346.453 208.266C346.683 208.467 346.707 208.816 346.507 209.047C346.398 209.171 346.245 209.236 346.091 209.236Z" fill="#152137"/>
<path d="M332.166 213.308C331.385 213.308 330.668 212.972 330.248 212.659C330.003 212.477 329.953 212.13 330.135 211.885C330.317 211.64 330.662 211.59 330.907 211.77C331.055 211.879 332.387 212.795 333.371 211.563C333.738 211.104 333.634 210.046 333.569 209.711C333.51 209.412 333.704 209.12 334.004 209.061C334.3 209.002 334.594 209.196 334.653 209.495C334.69 209.678 334.989 211.311 334.236 212.253C333.604 213.041 332.86 213.308 332.166 213.308Z" fill="#152137"/>
<path d="M334.826 209.963C333.809 209.963 332.704 209.525 331.615 208.653C330.08 207.425 327.541 205.039 327.434 204.938C327.212 204.729 327.201 204.379 327.411 204.157C327.619 203.934 327.969 203.924 328.193 204.133C328.218 204.157 330.806 206.59 332.307 207.791C333.062 208.395 334.982 209.641 336.485 208.138C337.543 207.079 336.716 206.088 336.618 205.98C336.414 205.752 336.435 205.403 336.662 205.199C336.889 204.995 337.239 205.015 337.443 205.242C338.014 205.882 338.714 207.474 337.267 208.921C336.568 209.616 335.732 209.963 334.826 209.963Z" fill="#152137"/>
<path d="M337.806 206.025C336.986 206.025 336.002 205.708 334.849 204.82C332.816 203.256 330.771 201.211 329.516 199.484C329.337 199.237 329.391 198.89 329.639 198.711C329.886 198.532 330.232 198.587 330.411 198.833C331.609 200.481 333.569 202.439 335.524 203.943C336.976 205.06 338.159 205.214 339.137 204.414C340.226 203.522 339.963 202.61 339.827 202.301C339.27 201.923 336.972 200.343 335.718 199.088C334.335 197.706 331.8 194.727 331.693 194.601C331.495 194.369 331.523 194.019 331.756 193.821C331.988 193.622 332.337 193.65 332.535 193.884C332.561 193.914 335.149 196.956 336.499 198.306C337.826 199.633 340.536 201.444 340.563 201.463L340.666 201.532L340.73 201.639C341.133 202.311 341.467 203.936 339.837 205.269C339.339 205.677 338.662 206.025 337.806 206.025Z" fill="#152137"/>
<path d="M429.604 390.541H468.153C468.217 387.303 468.33 383.631 468.513 379.49C469.435 358.601 471.893 348.77 471.893 348.77C471.893 348.77 484.796 368.431 488.175 385.942C488.49 387.574 488.779 389.106 489.047 390.541H522.791C521.274 371.273 518.491 342.014 514.593 326.036C508.451 300.845 504.764 290.4 504.764 290.4C504.764 290.4 487.559 306.374 464.826 305.76C442.094 305.146 426.699 300.353 426.699 300.353C426.699 300.353 422.126 325.114 424.583 352.763C425.775 366.18 427.817 379.931 429.604 390.541Z" fill="#152137"/>
<path d="M436.257 136.796C436.257 136.796 434.107 146.012 435.335 150.62C436.564 155.228 434.26 159.76 435.181 164.982C436.103 170.204 436.718 174.044 439.79 177.424C442.861 180.804 443.937 181.341 443.937 181.341C443.937 181.341 439.021 188.714 442.401 196.702C445.78 204.689 450.695 207.761 450.695 207.761C450.695 207.761 466.978 193.015 470.664 186.871C474.351 180.726 473.736 177.961 473.736 177.961C473.736 177.961 469.742 175.504 469.742 172.739C469.742 169.974 469.435 165.981 471.279 163.83C473.122 161.679 481.724 153.077 475.887 144.476C470.049 135.874 462.983 131.88 451.617 133.416C440.25 134.953 436.257 136.796 436.257 136.796Z" fill="#F9CCB7"/>
<path d="M461.63 180.826C461.432 180.826 461.234 180.741 461.098 180.576C460.854 180.282 460.895 179.846 461.19 179.603C464.45 176.902 466.621 173.833 466.642 173.801C466.862 173.49 467.293 173.414 467.605 173.633C467.918 173.851 467.993 174.283 467.775 174.596C467.682 174.728 465.474 177.848 462.072 180.667C461.943 180.774 461.786 180.826 461.63 180.826Z" fill="#152137"/>
<path d="M451.863 185.059C451.581 185.059 451.302 185.048 451.024 185.024C448.392 184.812 446.027 183.62 445.928 183.569C445.588 183.396 445.453 182.98 445.626 182.64C445.799 182.3 446.216 182.165 446.555 182.337C446.576 182.348 448.784 183.456 451.137 183.647C452.754 183.778 454.463 183.468 456.223 182.725C456.571 182.578 456.98 182.741 457.128 183.093C457.276 183.445 457.111 183.85 456.759 183.998C455.089 184.704 453.445 185.059 451.863 185.059Z" fill="#152137"/>
<path d="M467.284 161.68L464.213 161.065C464.213 161.065 464.52 147.548 464.213 144.169C463.906 140.79 462.062 138.025 458.683 138.025C455.303 138.025 450.695 142.94 446.087 142.94C441.479 142.94 442.401 139.253 439.329 139.253C436.257 139.253 435.11 144.072 435.11 144.072C435.11 144.072 430.727 141.711 430.727 134.645C430.727 127.579 435.641 124.507 439.636 124.507C443.63 124.507 443.63 124.507 443.63 124.507C443.63 124.507 446.087 122.357 450.695 122.357C458.376 122.357 460.219 126.658 460.219 126.658C460.219 126.658 463.29 126.043 466.363 126.043C472.507 126.043 481.109 134.953 481.109 145.091C481.109 160.758 470.127 166.518 470.127 166.518C470.127 166.518 470.128 165.227 471.048 163.523C472.584 160.682 474.965 156.701 474.965 154.614C474.965 151.234 474.043 150.006 471.893 150.006C469.742 150.006 467.284 155.842 467.284 161.68Z" fill="#152137"/>
<path d="M436.909 154.268C436.786 154.268 436.662 154.235 436.549 154.167C436.223 153.968 436.121 153.542 436.32 153.216C436.38 153.117 437.857 150.765 441.026 151.163C441.405 151.21 441.674 151.556 441.626 151.934C441.579 152.314 441.228 152.584 440.855 152.534C438.55 152.246 437.509 153.92 437.497 153.937C437.369 154.151 437.142 154.268 436.909 154.268Z" fill="#152137"/>
<path d="M457.876 154.383C457.677 154.383 457.48 154.298 457.344 154.133C457.327 154.113 455.637 152.111 453.608 152.46C453.233 152.528 452.875 152.274 452.808 151.898C452.744 151.522 452.995 151.164 453.371 151.098C456.202 150.601 458.321 153.144 458.41 153.253C458.652 153.547 458.61 153.981 458.316 154.224C458.188 154.331 458.032 154.383 457.876 154.383Z" fill="#152137"/>
<path d="M447.902 169.242C447.088 169.242 446.218 169.131 445.351 168.871C444.381 168.58 443.718 168.276 443.406 167.661C443.006 166.874 443.322 165.979 443.953 164.196C444.065 163.878 444.188 163.53 444.32 163.145C445.064 160.982 446.011 155.252 446.02 155.194C446.081 154.817 446.428 154.561 446.814 154.623C447.19 154.685 447.446 155.041 447.384 155.418C447.344 155.657 446.408 161.322 445.627 163.594C445.493 163.982 445.37 164.335 445.257 164.656C444.854 165.794 444.507 166.777 444.638 167.036C444.709 167.175 445.082 167.347 445.749 167.547C447.915 168.198 449.963 167.721 450.665 167.195C450.972 166.967 451.405 167.028 451.632 167.333C451.862 167.639 451.8 168.072 451.495 168.301C450.766 168.846 449.434 169.242 447.902 169.242Z" fill="#152137"/>
<path d="M440.481 158.991C441.244 158.991 441.863 158.269 441.863 157.378C441.863 156.488 441.244 155.766 440.481 155.766C439.717 155.766 439.098 156.488 439.098 157.378C439.098 158.269 439.717 158.991 440.481 158.991Z" fill="#152137"/>
<path d="M454.075 159.222C454.838 159.222 455.457 158.5 455.457 157.609C455.457 156.718 454.838 155.996 454.075 155.996C453.311 155.996 452.692 156.718 452.692 157.609C452.692 158.5 453.311 159.222 454.075 159.222Z" fill="#152137"/>
<path d="M437.026 159.938C436.273 159.938 435.585 160.218 435.027 160.673C434.922 162.065 434.919 163.495 435.181 164.982C435.285 165.566 435.384 166.131 435.483 166.682C435.946 166.945 436.465 167.108 437.026 167.108C438.864 167.108 440.355 165.503 440.355 163.523C440.355 161.543 438.864 159.938 437.026 159.938Z" fill="#F8B491"/>
<path d="M456.019 167.683C457.906 168.183 459.873 166.94 460.411 164.908C460.949 162.875 459.856 160.822 457.968 160.322C456.081 159.822 454.114 161.065 453.576 163.097C453.037 165.13 454.131 167.183 456.019 167.683Z" fill="#F8B491"/>
<path d="M450.392 176.761C449.13 177.369 446.148 177.638 445.3 176.154C447.412 174.252 451.106 172.842 453.943 173.64C453.964 174.986 451.439 176.257 450.392 176.761Z" fill="#F9617A"/>
<path d="M448.545 177.885C443.725 177.885 442.145 173.311 442.129 173.265C442.044 173.009 442.115 172.727 442.31 172.543C442.506 172.359 442.791 172.304 443.041 172.405C443.047 172.407 444.159 172.816 446.932 172.816C449.851 172.816 455.317 172.136 455.372 172.13C455.637 172.097 455.889 172.216 456.033 172.434C456.178 172.653 456.187 172.935 456.055 173.162C455.944 173.355 453.266 177.885 448.545 177.885ZM444.054 174.027C444.761 175.1 446.142 176.502 448.545 176.502C451.045 176.502 452.917 174.875 453.95 173.687C452.073 173.893 448.961 174.198 446.932 174.198C445.684 174.198 444.741 174.122 444.054 174.027Z" fill="#152137"/>
<path d="M426.426 294.701C426.426 294.701 424.275 280.263 421.203 267.36C418.131 254.457 414.752 240.018 414.752 240.018C414.752 240.018 396.318 248.006 389.253 248.006C386.656 248.006 377.736 246.013 369.976 241.708C356.629 234.3 342.865 222.814 342.865 222.814C342.865 222.814 348.396 217.591 351.774 211.14C355.153 204.689 356.075 200.387 356.075 200.387C356.075 200.387 361.297 203.766 369.899 208.989C378.501 214.212 386.488 219.127 386.488 219.127C386.488 219.127 396.933 213.597 405.842 206.224C414.752 198.851 420.588 194.858 427.961 191.785C435.334 188.712 437.178 189.02 437.178 189.02C437.178 189.02 437.791 187.484 439.943 184.719C442.094 181.954 443.937 181.341 443.937 181.341C443.937 181.341 442.4 186.256 443.629 191.479C444.858 196.702 449.774 204.075 449.774 204.075C449.774 204.075 451.31 198.545 457.147 192.401C462.983 186.256 465.748 183.492 468.206 180.113C469.594 178.205 470.589 176.787 471.139 175.748C469.65 174.159 469.742 172.739 469.742 172.739C469.742 172.739 473.736 171.202 475.579 174.275C477.422 177.348 477.115 178.883 477.115 178.883C477.115 178.883 483.873 181.341 493.397 186.871C502.921 192.401 508.758 197.316 508.758 197.316C508.758 197.316 515.209 200.08 518.895 214.212C522.582 228.343 526.883 247.698 527.805 255.686C528.726 263.674 527.191 271.354 521.353 275.655C515.516 279.955 513.366 279.955 508.758 281.491C506.512 282.241 501.03 285.89 496.7 288.48C492.143 291.206 488.789 292.858 488.789 292.858C488.789 292.858 470.97 300.845 451.924 299.309C432.877 297.774 426.426 294.701 426.426 294.701Z" fill="#E9EFFF"/>
<path d="M485.258 279.801C485.219 279.801 485.181 279.798 485.141 279.791C484.765 279.727 484.511 279.37 484.576 278.994C485.673 272.566 482.92 266.601 481.414 264.72C481.175 264.422 481.224 263.986 481.522 263.747C481.82 263.511 482.254 263.558 482.494 263.855C484.57 266.451 487.012 272.936 485.938 279.226C485.881 279.563 485.588 279.801 485.258 279.801Z" fill="#152235"/>
<path d="M477.73 286.598C478.663 286.598 479.419 286.031 479.419 285.331C479.419 284.631 478.663 284.063 477.73 284.063C476.797 284.063 476.041 284.631 476.041 285.331C476.041 286.031 476.797 286.598 477.73 286.598Z" fill="#152137"/>
<path d="M490.633 205.61C490.633 205.61 481.954 213.368 475.733 243.781C472.147 261.312 470.203 266.131 470.203 266.131C470.203 266.131 482.03 263.365 488.482 261.83C494.933 260.294 498.313 259.372 498.313 256.3C498.313 253.228 492.169 241.247 490.633 235.41C489.097 229.573 486.946 216.67 490.633 205.61Z" fill="#D8E0F5"/>
<path d="M467.095 289.177L467.191 298.162L501.308 290.63V284.487C501.308 284.487 474.237 289.638 467.095 289.177Z" fill="#D8E0F5"/>
<path d="M498.312 258.988C498.205 258.988 498.095 258.963 497.993 258.909C497.655 258.733 497.523 258.315 497.7 257.977C498.285 256.854 497.848 253.144 494.691 246.377C491.481 239.497 489.147 231.613 489.124 231.533C489.017 231.168 489.226 230.783 489.592 230.675C489.965 230.566 490.343 230.778 490.451 231.144C490.473 231.221 492.778 239.01 495.944 245.792C497.65 249.447 500.304 255.972 498.926 258.615C498.802 258.853 498.562 258.988 498.312 258.988Z" fill="#152235"/>
<path d="M471.354 273.043C471.011 273.043 470.714 272.788 470.67 272.439C470.297 269.494 468.409 266.381 468.389 266.351C468.275 266.164 468.256 265.933 468.339 265.73C468.422 265.526 468.595 265.374 468.809 265.32C468.839 265.312 471.94 264.527 475.605 263.839C476.373 263.696 477.419 263.521 478.631 263.32C483.244 262.555 490.215 261.396 493.424 259.97C497.544 258.14 506.28 254.917 506.368 254.884C506.73 254.752 507.123 254.936 507.256 255.293C507.388 255.652 507.205 256.049 506.847 256.182C506.759 256.213 498.065 259.42 493.986 261.233C490.617 262.73 483.541 263.905 478.858 264.684C477.656 264.883 476.62 265.054 475.861 265.198C473.397 265.66 471.194 266.166 470.028 266.446C470.659 267.637 471.749 269.959 472.042 272.265C472.09 272.644 471.822 272.99 471.444 273.038C471.413 273.041 471.383 273.043 471.354 273.043Z" fill="#152235"/>
<path d="M487.945 215.211C487.915 215.211 487.884 215.209 487.851 215.204C487.474 215.154 487.208 214.805 487.259 214.427C487.325 213.932 488.97 202.263 496.178 198.916C502.867 195.81 506.108 197.479 506.243 197.552C506.58 197.733 506.705 198.152 506.524 198.489C506.344 198.824 505.926 198.951 505.588 198.77C505.569 198.76 502.74 197.395 496.76 200.171C490.242 203.197 488.644 214.498 488.629 214.613C488.582 214.959 488.285 215.211 487.945 215.211Z" fill="#152235"/>
<path d="M470.203 200.234C470.155 200.234 470.107 200.23 470.059 200.22C469.771 200.158 469.553 199.92 469.518 199.627C469.511 199.575 468.845 194.437 465.555 194.243C462.03 194.043 459.969 196.23 459.884 196.324C459.628 196.604 459.189 196.624 458.908 196.366C458.627 196.109 458.606 195.674 458.863 195.392C458.965 195.279 461.421 192.607 465.636 192.863C468.551 193.035 469.889 195.711 470.473 197.604C471.499 195.624 473.296 191.849 475.08 186.648C477.619 179.241 475.922 177.057 475.905 177.036C475.668 176.748 475.695 176.315 475.976 176.069C476.257 175.822 476.676 175.837 476.93 176.109C477.172 176.368 479.205 178.877 476.386 187.096C473.63 195.137 470.911 199.709 470.797 199.9C470.67 200.11 470.443 200.234 470.203 200.234Z" fill="#152235"/>
<path d="M435.181 201.156C435.026 201.156 434.874 201.103 434.749 201.005C434.549 200.844 434.081 200.47 434.338 196.882C434.581 193.483 436.405 191.147 436.483 191.048C436.72 190.751 437.153 190.699 437.452 190.936C437.752 191.172 437.803 191.607 437.568 191.907C437.551 191.927 435.929 194.022 435.717 196.98C435.669 197.652 435.65 198.185 435.646 198.606C436.466 197.721 437.782 196.754 439.718 196.551C441.342 196.382 442.788 197.046 442.848 197.073C443.194 197.235 443.342 197.647 443.179 197.993C443.017 198.338 442.608 198.487 442.26 198.324C442.25 198.319 441.097 197.794 439.861 197.925C436.982 198.228 435.821 200.723 435.81 200.748C435.722 200.942 435.549 201.085 435.341 201.135C435.289 201.15 435.236 201.156 435.181 201.156Z" fill="#152235"/>
<path d="M443.936 298.157C443.583 298.157 443.282 297.888 443.248 297.529C442.959 294.387 442.722 291.125 442.544 287.833C442.524 287.452 442.816 287.126 443.198 287.106C443.574 287.075 443.905 287.378 443.925 287.759C444.101 291.033 444.336 294.277 444.625 297.401C444.66 297.782 444.38 298.118 444 298.153C443.979 298.156 443.957 298.157 443.936 298.157Z" fill="#152235"/>
<path d="M442.911 280.185C442.537 280.185 442.23 279.888 442.22 279.512C441.927 267.639 442.314 254.978 443.37 241.878C443.401 241.497 443.741 241.232 444.116 241.244C444.496 241.275 444.78 241.609 444.75 241.99C443.695 255.041 443.31 267.654 443.603 279.478C443.612 279.859 443.311 280.176 442.93 280.186C442.922 280.185 442.917 280.185 442.911 280.185Z" fill="#152235"/>
<path d="M445.746 226.016C445.718 226.016 445.689 226.014 445.66 226.011C445.282 225.964 445.012 225.619 445.059 225.241C446.053 217.14 446.934 212.145 446.943 212.096C447.01 211.719 447.378 211.472 447.744 211.536C448.12 211.602 448.371 211.961 448.304 212.337C448.295 212.386 447.421 217.35 446.431 225.409C446.388 225.759 446.09 226.016 445.746 226.016Z" fill="#152235"/>
<path d="M452.231 215.211C453.249 215.211 454.075 214.386 454.075 213.368C454.075 212.35 453.249 211.524 452.231 211.524C451.213 211.524 450.388 212.35 450.388 213.368C450.388 214.386 451.213 215.211 452.231 215.211Z" fill="#454E5D"/>
<path d="M449.467 235.717C450.485 235.717 451.31 234.892 451.31 233.874C451.31 232.856 450.485 232.03 449.467 232.03C448.449 232.03 447.623 232.856 447.623 233.874C447.623 234.892 448.449 235.717 449.467 235.717Z" fill="#454E5D"/>
<path d="M351.083 224.197C352.101 224.197 352.926 223.372 352.926 222.354C352.926 221.336 352.101 220.51 351.083 220.51C350.065 220.51 349.24 221.336 349.24 222.354C349.24 223.372 350.065 224.197 351.083 224.197Z" fill="#454E5D"/>
<path d="M448.084 293.779C449.102 293.779 449.927 292.954 449.927 291.936C449.927 290.918 449.102 290.093 448.084 290.093C447.066 290.093 446.241 290.918 446.241 291.936C446.241 292.954 447.066 293.779 448.084 293.779Z" fill="#454E5D"/>
<path d="M355 227.883C354.823 227.883 354.646 227.816 354.512 227.68C354.241 227.41 354.241 226.973 354.512 226.703C362.001 219.213 364.447 210.469 364.447 208.298C364.447 207.916 364.756 207.606 365.138 207.606C365.519 207.606 365.829 207.916 365.829 208.298C365.829 210.616 363.284 219.885 355.488 227.679C355.354 227.816 355.177 227.883 355 227.883Z" fill="#152235"/>
<path d="M414.751 240.709C414.409 240.709 414.112 240.457 414.067 240.108C413.467 235.536 411.73 229.99 411.711 229.934C411.597 229.569 411.8 229.181 412.163 229.067C412.53 228.95 412.914 229.155 413.03 229.519C413.102 229.75 414.821 235.237 415.436 239.928C415.486 240.306 415.219 240.653 414.84 240.703C414.811 240.707 414.78 240.709 414.751 240.709Z" fill="#152235"/>
<path d="M392.786 223.505C392.635 223.505 392.482 223.455 392.353 223.352C392.323 223.327 389.251 220.874 386.25 219.776C385.892 219.645 385.708 219.248 385.839 218.89C385.971 218.531 386.368 218.347 386.726 218.479C389.944 219.656 393.087 222.169 393.22 222.276C393.517 222.515 393.565 222.949 393.325 223.247C393.189 223.417 392.988 223.505 392.786 223.505Z" fill="#152235"/>
<path d="M459.655 274.258C459.958 275.636 459.087 276.998 457.709 277.301L446.632 279.707C445.254 280.008 443.891 279.137 443.589 277.759L438.46 254.405C438.157 253.027 439.028 251.665 440.406 251.361L451.483 248.956C452.861 248.654 454.223 249.525 454.526 250.902L459.655 274.258Z" fill="#5B5B5D"/>
<path d="M452.802 255.042C452.883 255.458 452.612 255.863 452.194 255.944L449.421 256.485C449.004 256.567 448.598 256.295 448.517 255.877L447.977 253.103C447.894 252.687 448.168 252.281 448.586 252.201L451.358 251.66C451.776 251.578 452.181 251.851 452.261 252.269L452.802 255.042Z" fill="#152235"/>
<path d="M468.513 266.13C468.513 266.13 471.892 272.275 471.278 279.648C470.664 287.021 470.049 289.171 470.049 289.171C470.049 289.171 462.173 290.289 455.995 289.632C448.775 288.864 447.575 288.465 446.549 286.867C445.858 285.791 446.395 284.87 446.395 284.87C446.395 284.87 443.558 284.649 442.939 283.411C442.401 282.335 442.786 281.337 442.786 281.337C442.786 281.337 440.564 280.476 440.328 278.649C440.021 276.268 442.095 275.807 442.095 275.807C442.095 275.807 439.483 274.041 439.483 271.814C439.483 269.586 441.589 268.593 441.589 268.593C441.589 268.593 442.095 271.276 444.936 271.276C447.777 271.276 454.536 271.507 456.533 270.431C458.53 269.356 457.862 267.119 457.631 265.813C457.401 264.507 456.969 261.94 456.969 261.94C456.969 261.94 460.145 261.242 462.062 262.52C465.058 264.517 467.897 266.13 468.513 266.13Z" fill="#F9CCB7"/>
<path d="M449.103 277.851C445.778 277.851 442.658 276.827 442.49 276.772C442.128 276.651 441.933 276.259 442.052 275.898C442.173 275.536 442.559 275.34 442.927 275.459C442.975 275.477 447.862 277.074 451.615 276.209C451.98 276.12 452.358 276.354 452.443 276.727C452.529 277.101 452.298 277.471 451.925 277.556C451.012 277.768 450.05 277.851 449.103 277.851Z" fill="#152137"/>
<path d="M448.681 282.316C446.268 282.316 443.913 281.737 443.77 281.701C443.4 281.608 443.175 281.233 443.267 280.863C443.359 280.494 443.734 280.266 444.105 280.36C444.153 280.372 448.841 281.522 451.367 280.54C451.72 280.405 452.123 280.578 452.262 280.934C452.399 281.29 452.224 281.69 451.867 281.829C450.938 282.19 449.803 282.316 448.681 282.316Z" fill="#152137"/>
<path d="M450.065 286.159C448.861 286.159 447.894 286.025 447.833 286.015C447.456 285.961 447.193 285.612 447.246 285.234C447.3 284.856 447.655 284.584 448.028 284.647C448.047 284.649 450.099 284.934 451.811 284.649C452.19 284.588 452.544 284.84 452.607 285.217C452.668 285.593 452.415 285.95 452.038 286.013C451.38 286.122 450.691 286.159 450.065 286.159Z" fill="#152137"/>
<path d="M425.965 291.936L426.196 303.456C426.196 303.456 431.455 307.086 455.227 306.912C486.562 306.682 504.073 295.622 504.073 295.622L501.999 287.097C501.999 287.097 479.878 297.324 450.388 296.774C427.49 296.348 425.965 291.936 425.965 291.936Z" fill="#454E5D"/>
<path d="M429.931 300.831C430.453 300.831 430.876 300.408 430.876 299.886C430.876 299.364 430.453 298.941 429.931 298.941C429.409 298.941 428.986 299.364 428.986 299.886C428.986 300.408 429.409 300.831 429.931 300.831Z" fill="#152137"/>
<path d="M436.369 302.257C436.833 302.257 437.209 301.881 437.209 301.418C437.209 300.954 436.833 300.578 436.369 300.578C435.906 300.578 435.53 300.954 435.53 301.418C435.53 301.881 435.906 302.257 436.369 302.257Z" fill="#152137"/>
<path d="M444.035 303.073C444.539 303.073 444.948 302.664 444.948 302.159C444.948 301.655 444.539 301.246 444.035 301.246C443.53 301.246 443.121 301.655 443.121 302.159C443.121 302.664 443.53 303.073 444.035 303.073Z" fill="#152137"/>
<path d="M451.232 303.045C451.222 303.045 451.213 303.045 451.204 303.044L445.213 302.814C444.833 302.799 444.535 302.478 444.55 302.097C444.564 301.716 444.862 301.41 445.267 301.433L451.257 301.664C451.638 301.679 451.936 301.999 451.921 302.381C451.907 302.752 451.6 303.045 451.232 303.045Z" fill="#152137"/>
<path d="M445.909 308.5C445.908 308.5 445.908 308.5 445.909 308.5C444.317 308.5 443.143 308.427 442.419 308.282C439.855 307.769 439.329 306.627 439.329 305.07C439.329 304.54 439.277 303.638 439.223 302.684C439.162 301.617 439.098 300.513 439.098 299.771C439.098 297.009 440.514 295.434 442.69 295.868C443.588 296.047 445.434 296.142 448.026 296.142C450.006 296.142 451.73 296.085 451.747 296.084C451.949 296.08 452.121 296.15 452.256 296.284C452.391 296.418 452.466 296.6 452.462 296.79L452.231 307.619C452.223 307.978 451.944 308.27 451.588 308.294C451.559 308.295 448.564 308.5 445.909 308.5ZM441.985 297.175C440.589 297.175 440.481 299.161 440.481 299.77C440.481 300.473 440.543 301.556 440.602 302.604C440.659 303.579 440.711 304.5 440.711 305.069C440.711 305.886 440.711 306.53 442.69 306.926C443.127 307.014 444.039 307.118 445.907 307.118C447.79 307.118 449.851 307.013 450.862 306.953L451.064 297.486C450.367 297.503 449.244 297.524 448.026 297.524C445.305 297.524 443.419 297.422 442.418 297.222C442.264 297.191 442.118 297.175 441.985 297.175Z" fill="#152137"/>
<path d="M455.918 308.064C455.912 308.064 455.908 308.064 455.902 308.064C455.521 308.055 455.218 307.739 455.227 307.357L455.457 297.219C455.466 296.843 455.774 296.544 456.148 296.544C456.154 296.544 456.159 296.544 456.164 296.544C456.546 296.553 456.848 296.869 456.84 297.251L456.609 307.389C456.6 307.766 456.292 308.064 455.918 308.064Z" fill="#152137"/>
<path d="M641.463 224.347L636.057 234.239C641.291 237.115 644.848 242.677 644.848 249.059C644.848 252.893 643.55 256.421 641.391 259.259L650.388 266.076C653.978 261.348 656.113 255.454 656.113 249.059C656.113 238.403 650.193 229.131 641.463 224.347Z" fill="#F89157"/>
<path d="M611.049 249.06C611.049 239.742 618.629 232.161 627.948 232.161C629.71 232.161 631.41 232.434 633.009 232.937L636.382 222.182C633.72 221.346 630.887 220.896 627.948 220.896C612.392 220.896 599.782 233.506 599.782 249.06C599.782 258.444 604.375 266.75 611.432 271.869L618.053 262.732C613.82 259.658 611.049 254.682 611.049 249.06Z" fill="#688BDF"/>
<path d="M627.948 265.958C625.566 265.958 623.3 265.457 621.241 264.563L616.76 274.909C620.19 276.396 623.972 277.224 627.948 277.224C635.17 277.224 641.753 274.504 646.738 270.034L639.204 261.629C636.211 264.313 632.273 265.958 627.948 265.958Z" fill="#8AD4D5"/>
<path d="M637.963 285.447H617.934V290.141H637.963V285.447Z" fill="#636B78"/>
<path d="M644.468 388.012H637.095V411.974H644.468V388.012Z" fill="#96B3F5"/>
<path d="M632.487 379.411H625.114V411.974H632.487V379.411Z" fill="#688BDF"/>
<path d="M620.506 396.613H613.133V411.974H620.506V396.613Z" fill="#B8CAF8"/>
<path d="M571.274 184.413C577.382 184.413 582.334 179.461 582.334 173.353C582.334 167.245 577.382 162.294 571.274 162.294C565.166 162.294 560.215 167.245 560.215 173.353C560.215 179.461 565.166 184.413 571.274 184.413Z" fill="#B8CAF8"/>
<path d="M569.431 148.162C572.824 148.162 575.574 145.411 575.574 142.018C575.574 138.625 572.824 135.875 569.431 135.875C566.038 135.875 563.287 138.625 563.287 142.018C563.287 145.411 566.038 148.162 569.431 148.162Z" fill="#96B3F5"/>
<path d="M111.23 118.055C113.945 118.055 116.145 115.855 116.145 113.14C116.145 110.426 113.945 108.225 111.23 108.225C108.516 108.225 106.315 110.426 106.315 113.14C106.315 115.855 108.516 118.055 111.23 118.055Z" fill="#688BDF"/>
<path d="M170.214 129.729C174.965 129.729 178.816 125.878 178.816 121.128C178.816 116.377 174.965 112.526 170.214 112.526C165.464 112.526 161.613 116.377 161.613 121.128C161.613 125.878 165.464 129.729 170.214 129.729Z" fill="#96B3F5"/>
<path d="M143.18 113.14C151.324 113.14 157.926 106.538 157.926 98.394C157.926 90.25 151.324 83.6479 143.18 83.6479C135.036 83.6479 128.434 90.25 128.434 98.394C128.434 106.538 135.036 113.14 143.18 113.14Z" fill="#F8B491"/>
<path d="M151.442 103.425L137.649 95.936C137.649 95.936 135.771 102.758 141.79 106.057C147.81 109.357 151.442 103.425 151.442 103.425Z" fill="#FBFBFD"/>
<path d="M150.466 98.6705C150.376 98.6705 150.285 98.653 150.196 98.6152C149.845 98.4659 149.68 98.0604 149.831 97.7092L150.778 95.4734C150.926 95.1213 151.332 94.9582 151.684 95.1066C152.035 95.2559 152.2 95.6614 152.05 96.0125L151.102 98.2484C150.992 98.512 150.736 98.6705 150.466 98.6705Z" fill="#152137"/>
<path d="M143.545 95.5591C143.455 95.5591 143.364 95.5415 143.276 95.5038C142.924 95.3554 142.759 94.9489 142.909 94.5978L143.856 92.3619C144.005 92.0099 144.413 91.8458 144.761 91.9951C145.113 92.1435 145.278 92.5499 145.127 92.9011L144.181 95.1369C144.07 95.4005 143.814 95.5591 143.545 95.5591Z" fill="#152137"/>
<path d="M596.465 153.692C598.501 153.692 600.152 152.042 600.152 150.006C600.152 147.97 598.501 146.319 596.465 146.319C594.429 146.319 592.779 147.97 592.779 150.006C592.779 152.042 594.429 153.692 596.465 153.692Z" fill="#AFE2E5"/>
<path d="M538.864 323.571C538.864 323.571 538.634 319.424 536.56 318.732C534.487 318.041 527.69 318.272 526.077 315.968C524.464 313.663 524.81 309.862 524.81 307.558C524.81 305.254 524.81 303.18 524.81 303.18C524.81 303.18 520.662 301.567 520.662 299.839C520.662 298.111 522.621 297.305 525.846 293.618C529.072 289.932 530.109 288.434 530.109 285.784C530.109 283.135 532.528 280.715 534.487 278.872C536.445 277.029 541.514 270.232 549.233 270.462C556.951 270.693 570.2 288.895 568.702 295.922C567.204 302.95 560.753 316.083 560.753 319.308C560.753 322.534 560.753 324.723 560.753 324.723L538.864 323.571Z" fill="#F9CCB7"/>
<path d="M532.961 291.803C533.907 291.932 534.765 291.374 534.877 290.555C534.99 289.736 534.314 288.967 533.368 288.837C532.422 288.707 531.564 289.266 531.451 290.085C531.339 290.904 532.015 291.673 532.961 291.803Z" fill="#152137"/>
<path d="M540.131 290.369C539.85 290.369 539.609 290.156 539.58 289.869C539.276 286.726 535.431 285.754 535.392 285.745C535.096 285.673 534.913 285.374 534.986 285.077C535.059 284.78 535.355 284.597 535.654 284.671C535.844 284.717 540.303 285.845 540.683 289.763C540.711 290.067 540.489 290.337 540.185 290.366C540.167 290.368 540.149 290.369 540.131 290.369Z" fill="#152137"/>
<path d="M527.344 309.17C528.611 307.788 532.298 306.636 534.371 306.636C536.445 306.636 537.367 307.327 537.367 307.327C537.367 307.327 532.989 312.396 530.339 312.396C527.69 312.396 527.344 309.17 527.344 309.17Z" fill="#F9617A"/>
<path d="M530.339 312.949C529.344 312.949 528.507 312.592 527.853 311.89C526.064 309.969 526.32 306.072 526.332 305.906C526.343 305.758 526.412 305.62 526.525 305.524C526.638 305.428 526.787 305.378 526.932 305.394L537.838 306.355C538.03 306.372 538.201 306.488 538.286 306.662C538.37 306.836 538.358 307.041 538.254 307.204C538.103 307.438 534.51 312.949 530.339 312.949ZM527.42 306.547C527.42 307.619 527.555 309.948 528.663 311.137C529.105 311.612 529.655 311.844 530.339 311.844C533.061 311.844 535.675 308.826 536.777 307.371L527.42 306.547Z" fill="#152137"/>
<path d="M534.256 302.489C536.292 302.489 537.943 300.838 537.943 298.802C537.943 296.766 536.292 295.116 534.256 295.116C532.22 295.116 530.57 296.766 530.57 298.802C530.57 300.838 532.22 302.489 534.256 302.489Z" fill="#F8B491"/>
<path d="M550.078 303.833C549.464 301.682 553.089 296.431 555.301 298.302C559.294 301.681 550.692 305.984 550.078 303.833Z" fill="#F8B491"/>
<path d="M560.753 319.308C560.753 319.308 556.836 317.695 554.762 315.046C552.689 312.396 549.924 308.479 549.924 308.479C549.924 308.479 559.294 306.137 559.294 298.303C559.294 295.654 557.451 294.002 554.186 294.655C551.927 295.106 547.582 302.296 547.582 302.296L543.934 300.454C543.934 300.454 549.693 292.351 549.693 289.471C549.693 286.591 543.818 286.591 543.818 283.941C543.818 281.291 548.772 279.678 548.772 277.259C548.772 274.84 546.122 274.033 543.933 274.033C541.744 274.033 536.56 277.374 536.56 277.374C536.56 277.374 532.989 274.84 532.989 269.771C532.989 264.702 537.827 261.937 541.053 261.937C544.279 261.937 546.007 262.052 546.007 262.052C546.007 262.052 545.661 258.366 551.882 258.366C558.103 258.366 561.559 263.319 561.559 263.319C561.559 263.319 569.508 261.246 574.001 270.923C575.943 275.106 576.804 279.333 576.804 284.286C576.804 290.172 575.419 295.681 573.195 299.148C569.278 305.253 562.942 310.668 560.753 319.308Z" fill="#652605"/>
<path d="M461.037 364.443C461.037 364.443 455.506 353.697 455.506 345.748C455.506 337.799 455.16 332.845 461.151 327.546C467.142 322.246 471.058 318.329 472.556 317.177C474.054 316.025 476.646 315.046 477.74 316.14C478.834 317.235 477.395 319.827 476.127 321.094C474.86 322.361 473.535 323.687 473.535 323.687L473.939 324.551C473.939 324.551 475.206 323.169 476.703 321.671C478.201 320.173 480.39 319.597 481.312 320.519C482.233 321.441 481.253 323.918 479.583 325.588C477.914 327.258 476.819 328.353 476.819 328.353V328.929C476.819 328.929 478.316 327.777 479.583 326.51C480.554 325.539 481.934 325.468 482.529 326.229C483.17 327.05 482.958 328.78 482.003 329.735C480.16 331.579 476.703 335.035 475.897 335.841C475.091 336.648 475.667 341.486 477.164 345.979C478.662 350.472 480.16 356.347 480.16 356.347C480.16 356.347 477.74 360.955 472.556 362.914C467.372 364.872 461.037 364.443 461.037 364.443Z" fill="#F9CCB7"/>
<path d="M483.709 338.95C484.499 340.407 483.958 342.227 482.5 343.016L470.782 349.333C469.326 350.12 467.504 349.581 466.716 348.123L453.333 323.433C452.545 321.976 453.084 320.156 454.541 319.367L466.26 313.05C467.717 312.261 469.537 312.801 470.327 314.259L483.709 338.95Z" fill="#5B5B5D"/>
<path d="M469.357 348.312C468.762 348.312 468.215 347.988 467.932 347.465L454.549 322.775C454.125 321.991 454.418 321.007 455.201 320.583L466.917 314.268C467.159 314.136 467.418 314.07 467.687 314.07C468.283 314.07 468.829 314.396 469.113 314.918L482.495 339.608C482.701 339.987 482.747 340.425 482.624 340.838C482.5 341.252 482.223 341.594 481.843 341.8L470.128 348.116C469.885 348.247 469.627 348.312 469.357 348.312Z" fill="#E8E9EB"/>
<path d="M458.157 321.095C457.912 321.095 457.676 320.965 457.55 320.737C457.367 320.403 457.488 319.983 457.823 319.798L464.735 315.995C465.067 315.812 465.489 315.933 465.674 316.268C465.858 316.601 465.736 317.022 465.402 317.207L458.489 321.01C458.383 321.067 458.269 321.095 458.157 321.095Z" fill="#454E5D"/>
<path d="M463.707 323.692C463.461 323.692 463.224 323.561 463.098 323.329C462.917 322.995 463.04 322.575 463.377 322.392L468.401 319.664C468.737 319.481 469.156 319.606 469.339 319.942C469.52 320.277 469.397 320.697 469.06 320.88L464.036 323.608C463.931 323.665 463.817 323.692 463.707 323.692Z" fill="#B7BAC1"/>
<path d="M466.558 329.648C466.312 329.648 466.075 329.517 465.95 329.286C465.768 328.951 465.892 328.531 466.228 328.349L471.253 325.621C471.588 325.439 472.008 325.563 472.19 325.899C472.373 326.234 472.248 326.654 471.912 326.836L466.887 329.564C466.782 329.621 466.669 329.648 466.558 329.648Z" fill="#B7BAC1"/>
<path d="M460.988 326.451C461.942 326.451 462.716 325.677 462.716 324.723C462.716 323.768 461.942 322.995 460.988 322.995C460.033 322.995 459.26 323.768 459.26 324.723C459.26 325.677 460.033 326.451 460.988 326.451Z" fill="#F8B491"/>
<path d="M463.844 332.184C464.798 332.184 465.572 331.41 465.572 330.456C465.572 329.502 464.798 328.728 463.844 328.728C462.89 328.728 462.116 329.502 462.116 330.456C462.116 331.41 462.89 332.184 463.844 332.184Z" fill="#8AD4D5"/>
<path d="M474.975 344.826C476.121 344.826 477.049 343.898 477.049 342.752C477.049 341.607 476.121 340.679 474.975 340.679C473.83 340.679 472.902 341.607 472.902 342.752C472.902 343.898 473.83 344.826 474.975 344.826Z" fill="#454E5D"/>
<path d="M469.051 347.879C469.051 346.496 467.669 344.653 467.669 343.271C467.669 341.888 469.973 339.354 471.701 338.202C473.429 337.05 474.927 333.939 474.466 332.211C474.005 330.483 473.544 329.562 472.277 329.562C471.01 329.562 469.397 332.326 466.632 334.746C463.867 337.165 457.708 341.854 457.708 345.771C457.708 349.688 459.259 353.178 462.945 353.178C466.632 353.178 469.051 350.989 469.051 347.879Z" fill="#F9CCB7"/>
<path d="M517.513 336.55C517.513 336.55 507.683 325.645 497.545 325.645C487.407 325.645 481.109 331.635 479.419 333.018C477.071 334.939 478.73 337.827 482.03 336.398C484.872 335.169 487.1 334.553 488.329 334.246C489.557 333.939 489.864 334.094 489.864 334.094C489.864 334.094 489.019 334.631 488.789 336.781C488.609 338.461 489.173 339.086 489.173 339.086C489.173 339.086 488.405 339.777 488.405 341.159C488.405 342.542 489.173 343.463 489.173 343.463C489.173 343.463 488.661 344.809 488.79 345.92C489.019 347.918 490.862 349.07 493.627 349.07C496.392 349.07 499.541 348.685 499.541 348.685L506.522 353.664L517.513 336.55Z" fill="#F8B491"/>
<path d="M492.425 337.082C491.507 337.082 490.726 336.705 490.224 336.156C489.054 334.881 489.189 333.226 490.635 331.095C492.122 328.901 495.591 326.101 495.738 325.982C495.973 325.792 496.322 325.827 496.516 326.066C496.706 326.304 496.669 326.653 496.431 326.844C496.397 326.872 492.944 329.661 491.549 331.716C490.08 333.882 490.505 334.827 491.038 335.41C491.637 336.064 492.913 336.298 494.293 335.265C495.055 334.694 495.626 334.236 496.151 333.817C496.685 333.39 497.171 333.001 497.754 332.573C498.913 331.722 500.149 330.874 500.149 330.874C500.4 330.699 500.744 330.766 500.917 331.016C501.091 331.267 501.027 331.611 500.775 331.784C500.773 331.786 499.553 332.625 498.409 333.463C497.839 333.882 497.364 334.262 496.842 334.679C496.311 335.105 495.73 335.568 494.958 336.148C494.073 336.812 493.201 337.082 492.425 337.082Z" fill="#152137"/>
<path d="M495.394 341.251C492.646 341.251 490.173 340.413 490.069 340.377C489.78 340.279 489.627 339.965 489.726 339.675C489.825 339.386 490.139 339.232 490.428 339.331C490.452 339.34 492.836 340.146 495.395 340.146C497.931 340.146 501.581 336.448 501.581 335.189C501.581 334.781 501.397 334.443 501.032 334.187C500.28 333.655 498.973 333.602 497.699 334.052C497.411 334.154 497.095 334.003 496.993 333.716C496.892 333.428 497.042 333.112 497.329 333.01C498.954 332.434 500.617 332.54 501.67 333.283C502.326 333.745 502.686 334.422 502.686 335.188C502.685 337.276 498.328 341.251 495.394 341.251Z" fill="#152137"/>
<path d="M496.162 345.168C492.417 345.168 490.148 344.324 490.052 344.288C489.767 344.18 489.624 343.861 489.731 343.576C489.838 343.291 490.159 343.147 490.443 343.254C490.464 343.262 492.636 344.063 496.161 344.063C499.578 344.063 502.181 341.126 502.181 339.657C502.181 339.276 502.081 338.996 501.877 338.801C501.498 338.437 500.851 338.454 500.851 338.452C500.529 338.46 500.288 338.229 500.273 337.925C500.259 337.62 500.495 337.362 500.8 337.347C500.917 337.351 501.926 337.317 502.641 338.001C503.069 338.41 503.286 338.967 503.286 339.657C503.287 341.833 500.095 345.168 496.162 345.168Z" fill="#152137"/>
<path d="M500.155 348.242C500.066 348.242 499.975 348.22 499.892 348.174C499.624 348.029 499.526 347.694 499.669 347.425C499.674 347.418 500.065 346.678 500.065 345.767C500.065 345.045 499.213 344.57 499.205 344.565C498.935 344.422 498.834 344.086 498.977 343.817C499.121 343.549 499.455 343.446 499.726 343.589C499.785 343.621 501.17 344.376 501.17 345.766C501.17 346.968 500.664 347.912 500.643 347.951C500.541 348.137 500.351 348.242 500.155 348.242Z" fill="#152137"/>
<path d="M510.14 357.441L504.073 351.988C504.073 351.988 507.759 349.914 511.599 343.924C515.439 337.933 516.437 335.553 516.437 335.553L522.045 339.47L510.14 357.441Z" fill="#102F81"/>
<path d="M459.95 362.164C459.95 362.164 465.595 363.776 471.586 360.781C477.576 357.786 479.502 353.784 479.502 353.784C479.502 353.784 484.143 363.316 487.253 368.961C490.364 374.606 491.401 376.218 491.401 376.218C491.401 376.218 495.548 376.218 500.617 367.002C505.686 357.786 509.027 351.45 514.441 345.805C519.856 340.16 523.312 338.086 527.574 335.091C531.837 332.096 532.874 331.52 532.874 331.52L531.606 330.944C531.606 330.944 535.869 326.105 537.021 324.492C538.173 322.879 538.173 322.879 538.173 322.879C538.173 322.879 540.823 324.262 549.002 322.995C557.182 321.727 560.868 320.806 560.868 320.806L562.251 326.911C562.251 326.911 499.188 411.971 492.276 411.971C486.202 411.971 477.691 399.259 473.544 391.54C469.397 383.822 461.102 366.541 459.95 362.164Z" fill="#1751D0"/>
<path d="M465.249 373.315C464.945 373.315 464.697 373.069 464.696 372.765C464.695 372.46 464.942 372.21 465.247 372.21C465.296 372.209 470.137 372.159 475.056 370.065C480.96 367.55 482.47 364.278 482.485 364.246C482.608 363.967 482.932 363.841 483.213 363.963C483.492 364.085 483.619 364.408 483.499 364.687C483.435 364.836 481.841 368.377 475.491 371.081C470.358 373.268 465.46 373.314 465.254 373.315C465.251 373.315 465.249 373.315 465.249 373.315Z" fill="#152137"/>
<path d="M462.831 354.307C460.851 354.307 459.156 353.278 458.056 351.408C457.901 351.146 457.99 350.806 458.253 350.652C458.517 350.498 458.855 350.585 459.01 350.849C459.641 351.922 460.816 353.202 462.831 353.202C464.237 353.202 465.335 352.788 466.008 352.441C466.28 352.298 466.612 352.408 466.753 352.68C466.893 352.951 466.786 353.285 466.514 353.425C465.393 354.002 464.12 354.307 462.831 354.307Z" fill="#152137"/>
<path d="M494.165 383.338C493.89 383.338 493.651 383.134 493.616 382.854C493.612 382.819 493.156 379.313 491.676 377.62C491.474 377.39 491.498 377.041 491.728 376.84C491.957 376.638 492.307 376.662 492.508 376.891C494.214 378.84 494.695 382.559 494.716 382.717C494.753 383.019 494.539 383.296 494.235 383.334C494.212 383.337 494.188 383.338 494.165 383.338Z" fill="#152137"/>
<path d="M532.875 346.473C532.688 346.473 532.507 346.379 532.402 346.21C532.378 346.169 529.938 342.229 527.181 341.38C524.38 340.519 521.204 341.484 521.171 341.495C520.876 341.588 520.57 341.423 520.479 341.131C520.388 340.839 520.552 340.53 520.844 340.438C520.987 340.394 524.383 339.362 527.506 340.323C530.666 341.296 533.237 345.455 533.345 345.633C533.504 345.893 533.422 346.233 533.162 346.392C533.073 346.446 532.972 346.473 532.875 346.473Z" fill="#152137"/>
<path d="M467.764 368.379C468.25 368.141 468.394 367.439 468.086 366.811C467.778 366.183 467.135 365.867 466.649 366.105C466.163 366.343 466.019 367.045 466.327 367.673C466.635 368.301 467.278 368.617 467.764 368.379Z" fill="#152137"/>
<path d="M492.091 411.97C492.091 411.97 505.455 402.6 520.047 380.174C534.64 357.748 545.238 326.72 545.238 326.72H604.53C604.53 326.72 593.931 357.748 579.339 380.174C564.747 402.6 551.383 411.97 551.383 411.97H492.091Z" fill="#9498A1"/>
<path d="M499.772 411.97C499.772 411.97 510.756 402.6 525.348 380.174C539.94 357.748 550.539 326.72 550.539 326.72H604.454C604.454 326.72 593.855 357.748 579.263 380.174C564.671 402.6 551.306 411.97 551.306 411.97H499.772Z" fill="#636B78"/>
<path d="M601.969 326.72C594.192 367.848 562.84 400.893 522.118 411.97H559.064C559.064 411.97 572.428 402.6 587.02 380.174C601.612 357.748 612.211 326.72 612.211 326.72H601.969Z" fill="#454E5D"/>
<path d="M239.605 342.866C239.605 342.866 244.055 331.257 250.178 326.188C256.302 321.12 259.897 317.696 267.799 318.932C275.701 320.168 281.217 320.687 283.059 321.107C284.901 321.526 287.308 322.898 287.163 324.439C287.018 325.979 284.103 326.523 282.319 326.355C280.534 326.187 278.669 326.011 278.669 326.011L278.261 326.872C278.261 326.872 280.134 326.968 282.242 327.166C284.351 327.364 286.19 328.684 286.068 329.982C285.945 331.28 283.413 332.105 281.061 331.883C278.708 331.661 277.167 331.516 277.167 331.516L276.724 331.883C276.724 331.883 278.567 332.302 280.351 332.47C281.717 332.6 282.651 333.617 282.445 334.562C282.221 335.579 280.753 336.519 279.407 336.392C276.813 336.147 271.947 335.688 270.811 335.581C269.677 335.474 266.316 339.003 263.809 343.021C261.302 347.039 257.732 351.94 257.732 351.94C257.732 351.94 252.64 353.013 247.825 350.269C243.011 347.523 239.605 342.866 239.605 342.866Z" fill="#F8B491"/>
<path d="M273.24 343.733C272.643 345.281 270.903 346.046 269.359 345.446L256.957 340.606C255.414 340.007 254.647 338.269 255.247 336.724L265.396 310.539C265.996 308.995 267.733 308.228 269.278 308.828L281.679 313.668C283.225 314.266 283.99 316.003 283.392 317.549L273.24 343.733Z" fill="#5B5B5D"/>
<path d="M256.813 338.86C256.427 338.405 256.32 337.779 256.534 337.225L266.685 311.039C267.008 310.209 267.948 309.794 268.778 310.117L281.177 314.955C281.432 315.055 281.651 315.211 281.826 315.415C282.211 315.87 282.317 316.495 282.103 317.05L271.951 343.234C271.796 343.637 271.491 343.955 271.097 344.128C270.702 344.303 270.262 344.313 269.858 344.157L257.46 339.319C257.205 339.22 256.987 339.065 256.813 338.86Z" fill="#E8E9EB"/>
<path d="M278.201 315.748C278.119 315.748 278.036 315.733 277.955 315.703L270.581 312.899C270.224 312.763 270.045 312.363 270.18 312.006C270.316 311.649 270.716 311.472 271.072 311.606L278.446 314.41C278.803 314.546 278.982 314.946 278.847 315.302C278.742 315.579 278.479 315.748 278.201 315.748Z" fill="#454E5D"/>
<path d="M277.775 320.917C277.692 320.917 277.607 320.902 277.525 320.87L272.193 318.807C271.836 318.67 271.66 318.27 271.797 317.913C271.935 317.556 272.337 317.378 272.691 317.518L278.024 319.58C278.381 319.718 278.557 320.118 278.419 320.474C278.313 320.75 278.053 320.917 277.775 320.917Z" fill="#B7BAC1"/>
<path d="M275.082 326.946C274.999 326.946 274.914 326.931 274.832 326.899L269.5 324.837C269.143 324.7 268.967 324.3 269.104 323.943C269.241 323.587 269.642 323.409 269.998 323.548L275.331 325.61C275.688 325.747 275.864 326.147 275.726 326.504C275.621 326.779 275.36 326.946 275.082 326.946Z" fill="#B7BAC1"/>
<path d="M269.37 318.935C270.324 318.935 271.098 318.161 271.098 317.207C271.098 316.253 270.324 315.479 269.37 315.479C268.416 315.479 267.642 316.253 267.642 317.207C267.642 318.161 268.416 318.935 269.37 318.935Z" fill="#F8B491"/>
<path d="M266.85 324.823C267.805 324.823 268.578 324.05 268.578 323.095C268.578 322.141 267.805 321.367 266.85 321.367C265.896 321.367 265.122 322.141 265.122 323.095C265.122 324.05 265.896 324.823 266.85 324.823Z" fill="#8AD4D5"/>
<path d="M264.687 341.614C265.832 341.614 266.761 340.685 266.761 339.54C266.761 338.395 265.832 337.466 264.687 337.466C263.542 337.466 262.613 338.395 262.613 339.54C262.613 340.685 263.542 341.614 264.687 341.614Z" fill="#454E5D"/>
<path d="M257.325 337.172C258.39 336.29 258.928 334.05 259.993 333.169C261.059 332.288 264.48 332.447 266.47 333.043C268.458 333.64 271.81 332.81 272.847 331.353C273.885 329.896 274.301 328.953 273.492 327.977C272.684 327.001 269.527 327.522 265.9 326.934C262.273 326.346 256.158 324.38 253.141 326.877C250.124 329.375 246.999 333.007 249.349 335.846C251.7 338.689 254.929 339.156 257.325 337.172Z" fill="#F8B491"/>
<path d="M248.766 367.56L259.049 350.292C259.049 350.292 253.221 352.2 248.459 347.899C243.697 343.598 242.284 337.106 242.284 337.106L232.331 348.206L248.152 367.867" fill="#D8E0F5"/>
<path d="M227.044 295.409C225.701 295.409 224.026 294.003 222.878 291.911C222.238 290.745 221.846 289.522 221.776 288.466C221.693 287.225 222.061 286.314 222.812 285.903C223.072 285.76 223.365 285.688 223.679 285.688C225.022 285.688 226.697 287.093 227.845 289.185C228.485 290.352 228.876 291.575 228.947 292.63C229.029 293.872 228.662 294.782 227.911 295.193C227.651 295.335 227.359 295.409 227.044 295.409ZM223.679 287.069C223.598 287.069 223.532 287.084 223.477 287.114C223.238 287.245 223.112 287.739 223.154 288.374C223.211 289.221 223.552 290.268 224.089 291.245C225.044 292.986 226.341 294.026 227.044 294.026C227.124 294.026 227.191 294.012 227.246 293.981C227.484 293.85 227.61 293.356 227.568 292.721C227.511 291.875 227.171 290.827 226.634 289.85C225.678 288.11 224.381 287.069 223.679 287.069Z" fill="#152137"/>
<path d="M213.991 275.577C216.958 278.618 221.595 283.065 221.71 285.6C221.825 288.134 220.903 288.595 222.977 289.747C225.051 290.899 230.696 293.549 231.041 295.161C231.387 296.774 228.276 298.502 228.276 298.502C228.276 298.502 229.313 301.958 230.581 306.797C231.848 311.636 231.963 314.17 228.968 315.668C225.972 317.165 222.401 318.433 222.401 318.433C222.401 318.433 222.286 321.197 222.747 324.308C223.208 327.418 225.166 331.45 225.166 331.45L195.904 328.11C195.904 328.11 199.015 325.345 197.978 323.041C196.941 320.737 181.504 306.221 180.006 300.691C178.509 295.161 172.518 287.328 178.624 280.761C184.73 274.194 185.075 272.466 194.407 270.969C203.738 269.471 209.383 270.854 213.991 275.577Z" fill="#F8B491"/>
<path d="M200.475 310.675C202.62 309.602 200.783 299.001 197.403 301.459C194.023 303.917 197.403 312.211 200.475 310.675Z" fill="#F89863"/>
<path d="M200.513 317.281C200.513 318.778 195.789 322.234 195.789 322.234C195.789 322.234 189.568 315.898 182.31 310.714C175.053 305.53 173.094 303.111 172.057 298.157C171.021 293.203 172.057 291.59 172.057 291.59C172.057 291.59 169.523 286.521 172.173 281.452C174.822 276.383 178.739 274.655 178.739 274.655C178.739 274.655 178.163 269.702 185.075 266.591C191.988 263.481 196.48 266.476 196.48 266.476C196.48 266.476 199.361 262.674 203.853 262.674C208.346 262.674 213.3 267.282 214.337 270.163C215.374 273.043 214.107 276.499 214.107 276.499C214.107 276.499 207.425 279.724 197.863 279.84C188.301 279.955 186.112 280.185 186.112 280.185L185.997 281.452C185.997 281.452 193.6 281.107 197.517 281.222C201.434 281.337 202.701 284.217 203.047 286.406C203.393 288.595 203.969 289.171 205.351 289.977C206.734 290.784 206.849 293.318 205.812 294.931C204.775 296.544 203.502 300.206 208.769 305.146C214.338 310.368 217.832 311.175 223.553 311.175C230.293 311.175 230.624 306.884 230.624 306.884C230.624 306.884 232.386 307.086 232.885 308.18C233.605 309.763 233.426 312.592 231.041 314.977C227.009 319.009 222.056 318.548 216.641 318.548C211.226 318.548 208.111 317.22 207.079 316.359C205.697 315.207 204.314 311.981 203.853 305.415C203.536 300.9 200.282 298.733 197.748 298.733C195.213 298.733 193.089 301.447 193.089 305.134C193.089 310.101 200.513 317.281 200.513 317.281Z" fill="#152137"/>
<path d="M213.071 293.526C213.054 293.526 213.039 293.525 213.023 293.524C212.719 293.498 212.494 293.232 212.519 292.928C212.534 292.745 212.925 288.442 215.95 287.056C216.226 286.93 216.555 287.05 216.683 287.329C216.811 287.606 216.688 287.934 216.411 288.062C213.977 289.177 213.625 292.982 213.621 293.021C213.596 293.307 213.354 293.526 213.071 293.526Z" fill="#152137"/>
<path d="M203.455 301.002C203.184 301.002 202.927 300.842 202.818 300.575C202.671 300.222 202.838 299.819 203.191 299.673L216.722 294.063C217.074 293.918 217.479 294.082 217.624 294.436C217.771 294.789 217.604 295.193 217.251 295.339L203.72 300.949C203.634 300.985 203.544 301.002 203.455 301.002Z" fill="#152137"/>
<path d="M217.217 294.009C218.044 294.009 218.715 293.339 218.715 292.512C218.715 291.685 218.044 291.014 217.217 291.014C216.39 291.014 215.719 291.685 215.719 292.512C215.719 293.339 216.39 294.009 217.217 294.009Z" fill="#152137"/>
<path d="M220.868 298.379C219.304 298.379 217.586 297.091 216.492 295.096C215.84 293.908 215.505 292.628 215.549 291.491C215.598 290.225 216.103 289.264 216.972 288.788C217.334 288.589 217.739 288.487 218.175 288.487C219.739 288.487 221.457 289.776 222.551 291.77C223.203 292.958 223.538 294.238 223.494 295.376C223.445 296.642 222.94 297.602 222.071 298.079C221.709 298.278 221.304 298.379 220.868 298.379ZM218.174 289.871C217.973 289.871 217.793 289.915 217.636 290.001C217.061 290.317 216.947 291.104 216.929 291.545C216.895 292.423 217.178 293.475 217.703 294.432C218.532 295.943 219.834 296.998 220.868 296.998C221.069 296.998 221.249 296.953 221.406 296.868C221.981 296.552 222.095 295.764 222.113 295.323C222.147 294.446 221.864 293.393 221.339 292.436C220.509 290.925 219.208 289.871 218.174 289.871Z" fill="#152137"/>
<path d="M223.972 300.027C223.417 300.027 223.053 299.976 223.014 299.971C222.713 299.927 222.503 299.648 222.545 299.346C222.587 299.043 222.861 298.831 223.17 298.876C223.191 298.879 225.439 299.175 227.317 298.133C227.583 297.984 227.921 298.079 228.068 298.348C228.217 298.614 228.121 298.95 227.853 299.099C226.454 299.878 224.929 300.027 223.972 300.027Z" fill="#152137"/>
<path d="M216.18 302.996C217.771 302.996 219.06 301.706 219.06 300.115C219.06 298.525 217.771 297.235 216.18 297.235C214.59 297.235 213.3 298.525 213.3 300.115C213.3 301.706 214.59 302.996 216.18 302.996Z" fill="#F89863"/>
<path d="M221.256 307.467C221.177 307.467 221.128 307.466 221.116 307.465C220.811 307.455 220.573 307.201 220.582 306.896C220.592 306.59 220.89 306.351 221.151 306.36C221.174 306.359 223.482 306.419 225.233 305.398C226.466 304.679 227.106 303.642 227.112 303.631C227.272 303.371 227.61 303.287 227.871 303.445C228.132 303.603 228.217 303.941 228.06 304.202C228.029 304.254 227.278 305.486 225.791 306.354C224.006 307.393 221.827 307.467 221.256 307.467Z" fill="#152137"/>
<path d="M197.287 323.501C197.287 323.501 202.471 327.649 212.494 327.418C220.106 327.244 223.092 324.423 223.092 324.423L228.737 331.911L236.802 335.252C236.802 335.252 238.76 333.985 242.562 338.823C246.363 343.662 255.004 356.91 259.842 373.154C264.681 389.398 266.87 389.858 270.556 397.577C274.243 405.296 278.794 412.064 278.794 412.064H176.263L184.846 333.639L194.062 329.492L197.287 323.501Z" fill="#E9EFFF"/>
<path d="M225.972 346.866C225.914 346.866 225.854 346.856 225.795 346.836C225.507 346.739 225.351 346.424 225.449 346.135C225.556 345.82 228.12 338.386 233.019 336.355C233.3 336.241 233.624 336.371 233.742 336.654C233.859 336.936 233.724 337.26 233.442 337.377C229.003 339.217 226.521 346.417 226.497 346.49C226.418 346.719 226.203 346.866 225.972 346.866Z" fill="#152137"/>
<path d="M200.628 332.811C200.562 332.811 200.496 332.799 200.431 332.774C197.042 331.488 194.172 329.096 194.051 328.993C193.817 328.797 193.786 328.449 193.984 328.215C194.18 327.98 194.529 327.951 194.762 328.146C194.79 328.17 197.615 330.522 200.824 331.74C201.11 331.848 201.254 332.167 201.145 332.452C201.061 332.673 200.851 332.811 200.628 332.811Z" fill="#152137"/>
<path d="M175.86 412.036C175.86 412.036 172.673 407.14 163.764 384.406C154.854 361.672 154.854 332.487 154.854 332.487H225.819C225.819 332.487 225.819 361.672 234.729 384.406C243.638 407.14 246.825 412.036 246.825 412.036H175.86Z" fill="#9498A1"/>
<path d="M175.859 412.036C175.859 412.036 172.672 407.14 163.763 384.406C154.853 361.672 154.853 332.487 154.853 332.487H219.368C219.368 332.487 219.368 361.672 228.277 384.406C237.187 407.14 240.374 412.036 240.374 412.036H175.859Z" fill="#636B78"/>
<path d="M163.302 344.353C163.302 340.309 163.653 336.349 164.295 332.488H148.403C148.403 332.488 148.403 361.673 157.312 384.407C166.222 407.141 169.409 412.037 169.409 412.037H211.183C183.293 402.191 163.302 375.613 163.302 344.353Z" fill="#454E5D"/>
<path d="M221.25 291.475C221.225 291.475 221.198 291.474 221.173 291.47C220.794 291.428 220.52 291.087 220.562 290.707C220.626 290.127 221.162 289.079 222.757 288.834C223.138 288.778 223.488 289.035 223.545 289.412C223.603 289.788 223.344 290.142 222.967 290.199C222.034 290.342 221.937 290.855 221.936 290.86C221.897 291.214 221.597 291.475 221.25 291.475Z" fill="#152137"/>
<path d="M360.675 340.112C360.675 340.112 360.236 327.689 363.893 320.63C367.551 313.572 369.522 309.015 377.279 307.066C385.037 305.117 390.317 303.441 392.176 303.107C394.036 302.774 396.787 303.096 397.256 304.573C397.725 306.048 395.253 307.687 393.545 308.229C391.837 308.771 390.051 309.338 390.051 309.338L390.012 310.29C390.012 310.29 391.773 309.645 393.792 309.005C395.811 308.364 398.02 308.859 398.414 310.102C398.809 311.344 396.799 313.092 394.548 313.807C392.296 314.523 390.821 314.99 390.821 314.99L390.555 315.501C390.555 315.501 392.416 315.168 394.124 314.626C395.432 314.211 396.689 314.783 396.869 315.733C397.06 316.755 396.077 318.194 394.788 318.603C392.304 319.391 387.645 320.87 386.557 321.215C385.635 321.507 384.261 324.836 383.415 328.696C383.264 329.385 379.843 336.693 379.732 337.401C378.995 342.079 379.425 352.301 379.425 352.301C379.425 352.301 373.255 346.957 367.751 346.31C362.245 345.666 360.675 340.112 360.675 340.112Z" fill="#F8B491"/>
<path d="M391.908 328.657C391.897 330.315 390.544 331.647 388.888 331.635L375.576 331.513C373.921 331.5 372.586 330.148 372.598 328.491L372.793 300.409C372.806 298.752 374.156 297.419 375.812 297.431L389.124 297.553C390.781 297.566 392.114 298.917 392.103 300.574L391.908 328.657Z" fill="#5B5B5D"/>
<path d="M374.82 329.932C374.298 329.644 373.975 329.097 373.981 328.502L374.173 300.419C374.181 299.527 374.912 298.807 375.803 298.813L389.111 298.936C389.387 298.937 389.645 299.005 389.881 299.136C390.402 299.423 390.724 299.971 390.72 300.566L390.526 328.649C390.523 329.081 390.353 329.486 390.045 329.788C389.738 330.091 389.33 330.257 388.897 330.254L375.589 330.132C375.314 330.128 375.056 330.062 374.82 329.932Z" fill="#E8E9EB"/>
<path d="M386.366 300.778L378.476 300.774C378.093 300.774 377.784 300.464 377.784 300.082C377.784 299.701 378.094 299.391 378.476 299.391L386.366 299.396C386.748 299.396 387.057 299.705 387.057 300.087C387.057 300.468 386.747 300.778 386.366 300.778Z" fill="#454E5D"/>
<path d="M387.802 305.761C387.801 305.761 387.8 305.761 387.798 305.761L382.081 305.726C381.699 305.723 381.392 305.412 381.394 305.03C381.397 304.651 381.706 304.344 382.086 304.344C382.087 304.344 382.088 304.344 382.09 304.344L387.807 304.379C388.189 304.382 388.496 304.693 388.494 305.075C388.491 305.454 388.182 305.761 387.802 305.761Z" fill="#B7BAC1"/>
<path d="M387.426 312.353C387.424 312.353 387.423 312.353 387.421 312.353L381.704 312.318C381.323 312.316 381.015 312.004 381.017 311.623C381.021 311.241 381.31 310.944 381.713 310.936L387.43 310.971C387.812 310.974 388.12 311.285 388.117 311.667C388.114 312.047 387.805 312.353 387.426 312.353Z" fill="#B7BAC1"/>
<path d="M378.873 306.96C379.827 306.96 380.601 306.186 380.601 305.231C380.601 304.277 379.827 303.503 378.873 303.503C377.919 303.503 377.145 304.277 377.145 305.231C377.145 306.186 377.919 306.96 378.873 306.96Z" fill="#F8B491"/>
<path d="M378.607 313.36C379.562 313.36 380.336 312.586 380.336 311.631C380.336 310.676 379.562 309.902 378.607 309.902C377.653 309.902 376.878 310.676 376.878 311.631C376.878 312.586 377.653 313.36 378.607 313.36Z" fill="#8AD4D5"/>
<path d="M382.423 329.846C383.568 329.846 384.497 328.918 384.497 327.772C384.497 326.627 383.568 325.699 382.423 325.699C381.278 325.699 380.349 326.627 380.349 327.772C380.349 328.918 381.278 329.846 382.423 329.846Z" fill="#454E5D"/>
<path d="M374.762 327.949C375.398 326.722 375.019 324.449 375.655 323.222C376.291 321.995 379.503 320.804 381.568 320.576C383.631 320.349 386.392 318.276 386.779 316.53C387.164 314.783 387.179 313.753 386.054 313.169C384.929 312.586 382.225 314.299 378.657 315.176C375.09 316.051 368.692 316.628 366.889 320.106C365.087 323.584 363.63 328.149 366.904 329.845C370.176 331.542 373.332 330.712 374.762 327.949Z" fill="#F9CCB7"/>
<path d="M391.559 369.045C391.559 369.045 394.016 368.738 398.778 360.443C403.54 352.149 404.154 349.384 404.154 349.384C404.154 349.384 400.928 345.39 400.467 339.861C400.007 334.331 400.314 331.105 400.161 330.03C400.007 328.954 401.332 327.438 402.419 328.191C402.976 328.577 403.54 329.262 403.54 329.262C403.54 329.262 398.317 322.811 398.317 320.507C398.317 318.203 399.699 316.666 401.389 318.049C403.079 319.431 404.154 321.274 404.154 321.274C404.154 321.274 406.151 321.581 407.994 322.964C409.838 324.346 410.145 325.422 410.145 325.422C410.145 325.422 412.756 324.96 415.213 327.572C417.671 330.184 418.133 332.027 418.286 334.638C418.439 337.249 418.439 337.249 418.439 337.249C418.439 337.249 420.282 343.24 420.282 350.92C420.282 358.6 417.058 372.731 410.452 380.719C403.847 388.707 397.703 392.546 393.094 392.546C384.493 392.546 376.198 385.788 376.198 385.788L391.559 369.045Z" fill="#F9CCB7"/>
<path d="M405.842 340.414C405.708 340.414 405.574 340.365 405.468 340.267C405.397 340.201 403.73 338.613 404.221 335.325C404.706 332.09 403.659 330.105 403.648 330.085C403.503 329.818 403.601 329.482 403.868 329.336C404.136 329.191 404.469 329.287 404.618 329.552C404.669 329.646 405.859 331.858 405.316 335.487C404.914 338.166 406.171 339.407 406.223 339.458C406.442 339.668 406.453 340.017 406.244 340.239C406.135 340.354 405.989 340.414 405.842 340.414Z" fill="#152137"/>
<path d="M410.989 332.119C410.775 332.119 410.571 331.994 410.481 331.786C410.468 331.756 409.157 328.771 404.893 323.125C404.709 322.882 404.758 322.534 405.001 322.351C405.242 322.166 405.59 322.215 405.775 322.459C410.136 328.232 411.443 331.224 411.497 331.349C411.617 331.629 411.487 331.953 411.208 332.074C411.136 332.105 411.062 332.119 410.989 332.119Z" fill="#152137"/>
<path d="M414.674 331.889C414.39 331.889 414.148 331.671 414.124 331.382C414.113 331.269 413.873 328.967 411.402 327.229C411.152 327.053 411.091 326.708 411.267 326.459C411.443 326.209 411.789 326.149 412.038 326.324C414.96 328.378 415.217 331.174 415.226 331.292C415.251 331.597 415.025 331.863 414.719 331.888C414.705 331.889 414.69 331.889 414.674 331.889Z" fill="#152137"/>
<path d="M332.267 264.594C332.267 264.594 338.412 267.36 341.177 269.51C343.941 271.66 346.245 275.653 347.167 276.882C348.089 278.112 349.701 280.109 352.926 281.337C356.152 282.566 356.536 283.104 356.843 283.872C357.15 284.64 355 286.637 355 286.637C355 286.637 356.689 290.303 357.88 292.455C358.827 294.166 359.876 296.564 357.419 298.1C354.962 299.635 349.163 303.015 349.163 308.238C349.163 317.051 350.393 322.964 352.236 325.576C354.079 328.188 356.229 329.877 356.229 329.877C356.229 329.877 351.16 335.714 343.173 335.714C335.186 335.714 322.744 328.341 322.744 328.341C322.744 328.341 315.679 284.564 321.362 275.655C327.044 266.745 332.267 264.594 332.267 264.594Z" fill="#F9CCB7"/>
<path d="M338.956 282.125C338.671 282.125 338.429 281.906 338.406 281.616C338.079 277.525 341.542 274.798 341.69 274.683C341.932 274.495 342.279 274.542 342.465 274.782C342.652 275.024 342.608 275.37 342.367 275.558C342.337 275.582 339.23 278.041 339.507 281.528C339.531 281.833 339.305 282.099 339.001 282.124C338.986 282.125 338.971 282.125 338.956 282.125Z" fill="#152137"/>
<path d="M350.08 296.191C349.815 296.191 349.58 296 349.536 295.729C349.486 295.427 349.69 295.143 349.991 295.094C353.115 294.579 354.628 292.939 354.643 292.923C354.847 292.697 355.196 292.679 355.423 292.881C355.65 293.085 355.671 293.432 355.468 293.66C355.398 293.739 353.705 295.603 350.172 296.185C350.141 296.19 350.11 296.191 350.08 296.191Z" fill="#152137"/>
<path d="M344.434 282.558C345.282 282.558 345.969 281.87 345.969 281.022C345.969 280.174 345.282 279.487 344.434 279.487C343.586 279.487 342.898 280.174 342.898 281.022C342.898 281.87 343.586 282.558 344.434 282.558Z" fill="#152137"/>
<path d="M341.177 293.474C343.383 293.474 345.171 291.685 345.171 289.479C345.171 287.273 343.383 285.485 341.177 285.485C338.971 285.485 337.182 287.273 337.182 289.479C337.182 291.685 338.971 293.474 341.177 293.474Z" fill="#F8B491"/>
<path d="M335.954 326.036C335.954 326.036 339.486 330.183 344.094 330.03C348.703 329.876 353.502 327.073 353.502 327.073L367.443 335.866C367.443 335.866 370.054 334.792 375.123 341.704C380.192 348.616 388.948 360.29 391.866 364.744C394.784 369.199 397.857 374.882 396.32 380.412C394.784 385.942 391.865 392.7 388.486 392.7C385.108 392.7 380.653 390.704 380.653 390.704C380.653 390.704 383.111 395.772 388.64 400.534C394.17 405.296 402.397 412.016 402.397 412.016H330.204L335.954 326.036Z" fill="#688BDF"/>
<path d="M379.27 390.488C379.152 390.488 379.033 390.451 378.933 390.374C378.805 390.275 366.055 380.406 360.088 372.45C359.906 372.205 359.955 371.859 360.199 371.675C360.442 371.495 360.79 371.541 360.974 371.786C366.851 379.623 379.481 389.4 379.608 389.498C379.851 389.685 379.896 390.031 379.709 390.274C379.599 390.415 379.436 390.488 379.27 390.488Z" fill="#152137"/>
<path d="M354.693 362.072C354.417 362.072 354.177 361.865 354.145 361.583C354.093 361.144 352.926 350.77 355.419 345.316C355.547 345.037 355.878 344.915 356.152 345.042C356.43 345.169 356.553 345.497 356.426 345.775C354.059 350.952 355.231 361.351 355.243 361.456C355.278 361.759 355.062 362.034 354.759 362.069C354.736 362.071 354.714 362.072 354.693 362.072Z" fill="#152137"/>
<path d="M359.378 340.068C359.26 340.068 359.141 340.031 359.041 339.954C358.799 339.768 358.753 339.421 358.939 339.179C359.055 339.028 361.806 335.472 365.539 335.856C365.843 335.885 366.064 336.156 366.034 336.46C366.004 336.764 365.731 336.985 365.429 336.955C362.332 336.644 359.841 339.819 359.816 339.853C359.707 339.995 359.544 340.068 359.378 340.068Z" fill="#152137"/>
<path d="M341.699 269.918C342.304 269.313 342.383 268.079 341.922 266.39C341.518 264.908 337.334 261.369 326.122 261.369C314.909 261.369 298.473 273.043 298.473 285.946C298.473 298.848 302.467 296.544 302.467 302.996C302.467 309.447 294.94 310.214 294.94 316.051C294.94 321.889 298.781 319.738 298.781 324.5C298.781 329.262 293.712 330.798 293.712 336.174C293.712 341.55 296.63 349.23 296.63 349.23L343.941 364.591C343.941 364.591 349.47 360.75 347.013 351.534C345.747 346.784 337.181 340.169 337.181 333.409C337.181 326.65 342.558 323.118 342.558 314.362C342.558 296.366 335.875 294.931 333.571 285.946C333.144 284.278 332.24 279.38 333.099 277.035C334.205 274.022 335.899 272.157 337.335 271.295C339.064 270.259 341.095 270.523 341.699 269.918Z" fill="#F37B3F"/>
<path d="M376.639 412.007C376.639 412.007 375.89 411.287 363.448 393.776C351.006 376.265 341.789 346.773 341.789 346.773H273.128C273.128 346.773 282.345 376.265 294.787 393.776C307.228 411.287 307.978 412.007 307.978 412.007H376.639Z" fill="#636B78"/>
<path d="M369.928 412.036C369.928 412.036 368.978 411.287 356.536 393.776C344.094 376.265 334.878 346.773 334.878 346.773H266.217C266.217 346.773 275.433 376.265 287.875 393.776C300.317 411.287 301.267 412.036 301.267 412.036H369.928Z" fill="#454E5D"/>
<path d="M95.332 202.077C101.574 206.192 115.608 202.077 119.294 182.262C122.981 162.448 123.442 154.383 121.598 154.383C119.755 154.383 116.299 165.212 105.009 173.046C93.7192 180.88 85.1941 195.396 95.332 202.077Z" fill="#19A84E"/>
<path d="M68.3745 229.726C66.5312 221.893 67.9136 215.902 72.2914 206.916C76.6691 197.93 73.9042 190.788 75.517 189.636C77.1299 188.484 78.9731 191.709 81.738 197.239C84.5029 202.769 86.5766 212.446 82.6596 225.579C78.7427 238.712 79.7657 245.624 77.3603 245.624C74.1346 245.624 70.2177 237.56 68.3745 229.726ZM75.7475 273.964C75.517 265.209 70.4481 257.836 64.2271 252.306C58.0062 246.776 60.5406 239.634 58.467 239.634C56.3933 239.634 52.246 248.62 52.246 253.689C52.246 258.758 50.4028 268.204 60.5406 276.499C70.6785 284.793 71.8305 288.019 74.5954 288.019C75.9779 288.019 75.9779 282.72 75.7475 273.964Z" fill="#45BA74"/>
<path d="M90.7239 325.806C89.5718 326.958 84.5029 320.507 74.5954 319.585C64.688 318.663 55.9325 313.364 51.094 305.069C46.2555 296.775 46.7163 293.779 47.8683 292.627C49.0203 291.475 50.6332 294.01 58.0062 295.162C65.3792 296.314 73.6738 295.392 81.0468 305.069C88.4198 314.746 91.6455 324.884 90.7239 325.806Z" fill="#19A84E"/>
<path d="M86.3462 236.869C86.3462 231.108 90.9543 222.583 101.553 216.823C112.152 211.063 113.304 206.225 114.917 206.225C116.529 206.225 116.069 212.676 115.838 220.049C115.608 227.422 104.779 232.721 97.8665 235.947C90.9543 239.173 89.8022 245.163 87.4982 245.163C85.8853 245.163 86.3462 242.629 86.3462 236.869ZM88.4198 283.18C90.9543 283.18 95.5624 275.577 102.475 271.89C109.387 268.204 117.912 260.14 117.681 250.923C117.451 241.707 116.99 235.947 115.608 235.947C114.225 235.947 110.539 242.629 102.475 247.237C94.4104 251.845 87.959 259.909 87.0374 266.821C86.1157 273.734 86.5766 283.18 88.4198 283.18ZM102.244 322.119C104.087 322.119 108.004 313.364 115.147 306.221C122.29 299.078 124.363 290.553 123.211 285.254C122.059 279.955 119.985 277.19 118.603 277.19C117.221 277.19 119.064 278.803 111.921 285.254C104.779 291.705 96.7144 300.23 97.8665 308.064C99.0185 315.898 101.092 322.119 102.244 322.119Z" fill="#15743A"/>
<path d="M73.1356 283.411C72.8057 283.411 72.5135 283.172 72.4554 282.836C72.4435 282.765 71.1596 275.686 64.1765 267.977C56.7002 259.722 56.9187 251.842 56.9325 251.511C56.9482 251.131 57.2827 250.858 57.6486 250.848C58.0301 250.862 58.3269 251.182 58.314 251.564C58.3112 251.639 58.1251 259.235 65.2013 267.048C72.4757 275.079 73.7678 282.3 73.8194 282.604C73.883 282.979 73.6305 283.336 73.2545 283.4C73.213 283.407 73.1743 283.411 73.1356 283.411ZM76.8 240.801C77.1474 240.644 77.3023 240.235 77.1465 239.888C77.0977 239.779 72.3071 228.929 75.9309 219.688C79.0183 211.815 78.904 204.962 78.8976 204.673C78.8893 204.291 78.5474 203.979 78.1916 203.998C77.8101 204.006 77.5069 204.322 77.5152 204.704C77.517 204.772 77.6258 211.581 74.6443 219.183C70.8048 228.974 75.6774 239.991 75.8866 240.455C76.0018 240.711 76.2535 240.862 76.517 240.862C76.611 240.862 76.7078 240.843 76.8 240.801Z" fill="#93D6AB"/>
<path d="M88.0364 320.891C87.8033 320.891 87.5756 320.773 87.4457 320.56C87.3913 320.471 81.9233 311.69 72.026 308.884C63.5618 306.484 56.374 302.57 53.9077 300.105C53.6377 299.835 53.6377 299.397 53.9077 299.127C54.1778 298.857 54.6155 298.857 54.8856 299.127C57.2283 301.469 64.1636 305.217 72.4029 307.554C82.8348 310.511 88.395 319.46 88.6263 319.84C88.8254 320.166 88.7221 320.59 88.3968 320.789C88.2844 320.857 88.159 320.891 88.0364 320.891Z" fill="#45BA74"/>
<path d="M90.0317 278.341C89.6714 278.341 89.3682 278.062 89.3433 277.698C89.3166 277.313 88.8069 268.18 97.9153 261.428C106.509 255.058 109.413 252.687 110.895 248.978C111.037 248.624 111.439 248.454 111.794 248.593C112.149 248.734 112.321 249.137 112.179 249.492C110.562 253.536 107.571 255.993 98.7393 262.539C90.2594 268.824 90.7165 277.519 90.723 277.606C90.7469 277.986 90.4594 278.316 90.0787 278.341C90.0631 278.341 90.0474 278.341 90.0317 278.341ZM91.0004 236.691C91.0206 236.625 93.1625 230.009 101.709 225.737C110.818 221.182 111.721 216.978 111.755 216.801C111.828 216.425 111.582 216.063 111.207 215.991C110.833 215.918 110.47 216.165 110.398 216.54C110.39 216.577 109.46 220.316 101.09 224.5C92.0224 229.033 89.7709 235.986 89.6797 236.28C89.5663 236.645 89.77 237.031 90.135 237.145C90.2032 237.166 90.2723 237.176 90.3405 237.176C90.6345 237.177 90.9082 236.987 91.0004 236.691ZM101.916 313.458C101.938 313.369 104.241 304.525 110.472 298.74C116.843 292.824 117.944 290.296 118.806 287.369C118.914 287.004 118.704 286.619 118.338 286.51C117.972 286.404 117.587 286.612 117.479 286.979C116.809 289.257 116.116 291.612 109.531 297.727C103.005 303.786 100.672 312.739 100.575 313.117C100.481 313.486 100.705 313.863 101.075 313.956C101.132 313.971 101.189 313.978 101.245 313.978C101.555 313.979 101.836 313.77 101.916 313.458ZM109.165 347.281C109.445 347.022 109.462 346.584 109.202 346.303C108.92 345.997 80.8164 314.972 80.8164 258.297C80.8164 217.544 109.414 180.064 109.703 179.689C109.936 179.387 109.881 178.953 109.578 178.72C109.276 178.487 108.842 178.542 108.609 178.844C108.318 179.222 79.434 217.064 79.434 258.297C79.434 315.508 107.901 346.931 108.189 347.243C108.324 347.389 108.51 347.464 108.696 347.464C108.864 347.464 109.032 347.403 109.165 347.281Z" fill="#0E4420"/>
<path d="M172.021 412.014C167.351 409.684 161.096 406.384 153.759 402.078C140.43 394.255 118.142 377.647 101.092 359.445C84.0421 341.243 77.3603 342.395 75.5171 344.699C73.6738 347.003 81.0468 366.588 103.857 386.403C121.126 401.403 147.105 409.14 158.712 412.014H172.021Z" fill="#0E5B2D"/>
<path d="M177.546 412.014C171.51 409.129 162.919 404.497 154.546 398.153C139.34 386.633 120.677 347.233 113.073 325.575C105.47 303.917 93.0814 297.331 89.8023 297.696C87.7286 297.926 88.7397 305.666 85.8854 317.741C82.8901 330.414 87.9157 353.296 102.705 369.583C125.089 394.232 150.72 406.504 165.635 412.014H177.546Z" fill="#1B954A"/>
<path d="M168.798 412.015H171.725C158.162 404.937 143.782 394.652 137.105 388.531C108.594 362.394 103.728 340.774 99.8185 323.402C98.5098 317.585 97.273 312.091 95.2832 307.117C95.1422 306.761 94.7403 306.593 94.3846 306.732C94.0298 306.873 93.8574 307.276 93.9994 307.63C95.9477 312.502 97.1725 317.943 98.4692 323.705C102.421 341.266 107.34 363.121 136.17 389.549C142.53 395.379 155.813 404.95 168.798 412.015Z" fill="#0E4420"/>
<path d="M125.976 317.281C134.186 312.263 136.805 339.4 135.192 345.16C130.354 343.316 117.681 322.349 125.976 317.281ZM141.874 365.666C139.109 358.754 125.867 342.868 119.064 352.072C115.147 357.371 134.04 365.896 141.874 365.666ZM126.667 372.348C122.012 381.658 145.561 384.098 153.394 384.79C146.021 379.26 130.584 364.514 126.667 372.348ZM167.68 399.536C167.68 399.536 158.694 393.545 149.708 393.545C140.722 393.545 140.261 397.462 140.261 401.609C140.261 405.757 149.017 404.835 155.238 403.452C161.459 402.07 164.684 399.536 167.68 399.536Z" fill="#029EAD"/>
<path d="M186.112 385.711C194.868 384.79 203.162 378.799 203.853 385.02C204.545 391.241 188.877 391.011 186.112 385.711ZM206.849 395.388C204.545 391.471 197.632 398.614 187.725 402.531C201.78 406.678 209.153 399.305 206.849 395.388ZM151.09 340.091C143.097 337.35 141.183 357.602 142.335 366.357C150.169 355.758 159.155 342.856 151.09 340.091ZM163.532 363.823C154.546 361.979 153.625 381.103 156.39 388.015C162.841 381.564 172.518 365.666 163.532 363.823ZM199.706 363.592C205.005 363.823 216.987 353.224 213.761 349.998C210.535 346.773 198.554 359.445 199.706 363.592ZM191.181 373.039C192.563 367.509 196.25 352.533 191.642 352.533C185.19 352.533 188.647 369.813 191.181 373.039ZM179.2 370.965C175.053 373.039 181.734 386.402 186.112 385.711C181.734 379.029 183.347 368.892 179.2 370.965ZM212.839 370.274C211.687 366.818 203.162 370.735 192.563 373.269C199.245 377.877 213.991 373.73 212.839 370.274Z" fill="#33B3BC"/>
<path d="M189.938 412.015C187.484 407.211 184.73 399.936 184.73 391.472C184.73 382.168 192.374 369.021 199.456 362.174C199.73 361.909 200.169 361.915 200.434 362.191C200.7 362.465 200.692 362.902 200.418 363.169C193.538 369.819 186.113 382.531 186.113 391.473C186.113 399.965 189.073 407.348 191.531 412.016L189.938 412.015ZM170.34 402.263C174.17 405.479 179.311 409.268 183.147 412.015H185.53C181.656 409.27 175.583 404.861 171.229 401.205C157.755 389.884 140.642 370.869 135.64 344.57C135.568 344.195 135.207 343.943 134.832 344.021C134.458 344.092 134.211 344.454 134.283 344.829C139.361 371.526 156.694 390.798 170.34 402.263Z" fill="#004346"/>
<path d="M497.698 282.719C490.062 282.719 483.873 288.908 483.873 296.544C483.873 299.549 484.842 302.322 486.47 304.589C486.302 305.817 486.091 306.567 484.795 308.217C483.105 310.368 479.726 310.829 479.726 312.058C479.726 313.286 482.03 313.44 483.413 313.44C488.622 313.44 491.998 311.086 494.793 310.057C495.731 310.258 496.701 310.368 497.698 310.368C505.334 310.368 511.522 304.18 511.522 296.544C511.522 288.908 505.334 282.719 497.698 282.719Z" fill="white"/>
<path d="M497.698 306.067C502.958 306.067 507.221 301.804 507.221 296.544C507.221 291.285 502.958 287.021 497.698 287.021C492.439 287.021 488.175 291.285 488.175 296.544C488.175 301.804 492.439 306.067 497.698 306.067Z" fill="#4B78EF"/>
<path d="M503.291 297.497C503.291 300.587 500.787 303.09 497.698 303.09C494.609 303.09 492.105 300.586 492.105 297.497H503.291Z" fill="#FBFBFD"/>
<path d="M494.338 295.762C493.828 295.762 493.416 295.35 493.416 294.84V293.096C493.416 292.587 493.828 292.175 494.338 292.175C494.847 292.175 495.259 292.587 495.259 293.096V294.84C495.259 295.35 494.847 295.762 494.338 295.762Z" fill="#152137"/>
<path d="M500.786 295.762C500.277 295.762 499.865 295.35 499.865 294.84V293.096C499.865 292.587 500.277 292.175 500.786 292.175C501.296 292.175 501.708 292.587 501.708 293.096V294.84C501.708 295.35 501.295 295.762 500.786 295.762Z" fill="#152137"/>
<path d="M395.398 255.531C387.762 255.531 381.572 261.72 381.572 269.356C381.572 271.711 382.165 273.925 383.203 275.866C382.725 278.758 381.345 282.444 382.417 287.302C382.716 288.652 383.363 290.868 384.563 290.603C385.763 290.339 385.484 286.94 387.219 284.825C388.637 283.099 389.329 282.791 390.637 282.321C392.124 282.867 393.723 283.18 395.398 283.18C403.033 283.18 409.222 276.992 409.222 269.356C409.222 261.72 403.033 255.531 395.398 255.531Z" fill="white"/>
<path d="M395.398 278.879C400.657 278.879 404.921 274.616 404.921 269.356C404.921 264.097 400.657 259.833 395.398 259.833C390.138 259.833 385.874 264.097 385.874 269.356C385.874 274.616 390.138 278.879 395.398 278.879Z" fill="#45BA74"/>
<path d="M400.991 270.309C400.991 273.399 398.487 275.902 395.398 275.902C392.308 275.902 389.804 273.398 389.804 270.309H400.991Z" fill="#FBFBFD"/>
<path d="M392.037 268.574C391.528 268.574 391.116 268.162 391.116 267.652V265.908C391.116 265.399 391.528 264.987 392.037 264.987C392.547 264.987 392.959 265.399 392.959 265.908V267.652C392.959 268.162 392.546 268.574 392.037 268.574Z" fill="#152137"/>
<path d="M398.486 268.574C397.976 268.574 397.564 268.162 397.564 267.652V265.908C397.564 265.399 397.976 264.987 398.486 264.987C398.996 264.987 399.408 265.399 399.408 265.908V267.652C399.408 268.162 398.995 268.574 398.486 268.574Z" fill="#152137"/>
<path d="M169.554 265.819C168.73 261.914 166.778 259.349 165.198 257.228C165.36 256.38 165.452 255.506 165.452 254.61C165.452 246.975 159.262 240.785 151.627 240.785C143.991 240.785 137.802 246.975 137.802 254.61C137.802 262.246 143.991 268.435 151.627 268.435C155.314 268.435 158.656 266.982 161.134 264.629C161.96 264.651 162.748 264.849 164.156 265.544C166.611 266.754 167.758 269.966 168.961 269.711C170.163 269.458 169.84 267.171 169.554 265.819Z" fill="white"/>
<path d="M151.628 264.134C156.887 264.134 161.151 259.87 161.151 254.611C161.151 249.351 156.887 245.087 151.628 245.087C146.368 245.087 142.104 249.351 142.104 254.611C142.104 259.87 146.368 264.134 151.628 264.134Z" fill="#F37B3F"/>
<path d="M146.034 255.563C146.034 258.654 148.538 261.157 151.628 261.157C154.717 261.157 157.221 258.653 157.221 255.563H146.034Z" fill="#FBFBFD"/>
<path d="M154.988 253.828C154.478 253.828 154.066 253.416 154.066 252.907V251.163C154.066 250.653 154.478 250.241 154.988 250.241C155.498 250.241 155.91 250.653 155.91 251.163V252.907C155.91 253.416 155.498 253.828 154.988 253.828Z" fill="#152137"/>
<path d="M148.539 253.828C148.03 253.828 147.618 253.416 147.618 252.907V251.163C147.618 250.653 148.03 250.241 148.539 250.241C149.049 250.241 149.461 250.653 149.461 251.163V252.907C149.461 253.416 149.049 253.828 148.539 253.828Z" fill="#152137"/>
<path d="M509.5 98.5427C512.288 91.2234 514.077 88.109 522.5 92.3205C525.922 94.0314 527.45 97.5427 531.5 97.5427C535.545 97.5427 539.184 92.3036 541.722 89.765C544.598 86.8891 549.609 93.3253 551.5 89.5427" stroke="url(#paint0_linear_307_3906)" stroke-width="4" stroke-linecap="round"/>
<path d="M264.5 66.0767C266.122 69.2309 271.411 83.7049 277.456 81.5249C279.623 80.7434 280.969 76.5814 281.215 74.4928C281.456 72.4481 280.528 70.0541 280.202 68.0412C280.04 67.0476 278.719 64.5689 279.584 65.0853C282.943 67.0897 287.749 79.0219 291.557 78.6247C295.563 78.2069 297.513 69.2804 297.125 66.0969C296.854 63.8811 295.517 57.3845 296.383 59.4413C298.317 64.0348 300.69 73.8016 305.875 75.8123C312.605 78.4223 320.589 72.286 325.254 68.6353" stroke="url(#paint1_linear_307_3906)" stroke-width="4" stroke-linecap="round"/>
<g clip-path="url(#clip0_307_3906)">
<mask id="mask0_307_3906" style="mask-type:luminance" maskUnits="userSpaceOnUse" x="0" y="0" width="124" height="113">
<path d="M0.500511 27.2346L23.4199 112.771L123.195 86.0363L100.276 0.49988L0.500511 27.2346Z" fill="white"/>
</mask>
<g mask="url(#mask0_307_3906)">
<path d="M101.109 33.5268C100.902 32.9596 100.884 32.6883 100.743 32.5448C89.0239 21.2278 75.1465 15.2424 58.7227 15.8752C54.5494 16.0396 50.5456 17.2779 46.8494 19.3404C38.8732 23.7873 34.8911 32.4613 36.7313 41.3882C37.6863 46.0118 39.3262 50.2785 42.9063 53.6075C45.1166 53.3542 47.2747 52.9651 49.4528 52.886C52.8806 52.7637 55.9782 53.7625 58.4365 56.2885C60.286 58.1893 60.8982 60.327 59.975 61.883C58.8129 63.8419 56.7918 64.3598 54.8666 63.8824C52.1756 63.224 49.5497 62.1618 47.0185 61.0112C45.3769 60.2686 43.9364 59.0701 42.4369 58.0925C34.4757 61.5657 33.0113 70.3691 39.0152 78.8899C40.26 78.8874 41.594 78.8059 42.9125 78.9019C47.6559 79.2469 51.7103 81.022 54.4471 85.0578C55.4755 86.5716 56.178 88.3699 55.0659 90.2208C54.2034 91.6501 52.1126 92.2024 49.7487 91.5588C45.9968 90.5304 42.9522 88.2876 40.1436 85.69C39.1679 84.7847 38.254 83.8157 37.3504 82.9148C24.8584 87.807 18.8511 101.808 27.0388 111.801C26.0679 111.943 25.2963 112.3 24.755 112.074C24.1598 111.824 23.6326 111.122 23.3322 110.501C20.5049 104.597 19.6615 98.5959 22.9179 92.568C25.3487 88.0777 28.8126 84.5009 33.0499 81.6628C33.6507 81.2575 34.2476 80.8374 34.8352 80.4119C34.9209 80.3495 34.9536 80.2068 35.122 79.8936C34.8917 79.2695 34.6308 78.4723 34.2929 77.7115C30.1116 68.2846 31.3852 62.4175 39.3416 55.3667C38.8011 54.5261 38.2414 53.6435 37.6596 52.7667C34.2299 47.6159 32.5815 41.9641 32.9263 35.7783C33.4865 25.6012 39.922 17.4049 49.8934 14.0789C55.3208 12.2698 60.8768 11.735 66.5391 12.3619C80.264 13.8949 92.1729 19.241 101.743 29.3918C102.249 29.9263 102.76 30.4515 103.277 30.9673C103.35 31.0344 103.492 31.0357 104.062 31.1905C103.984 28.547 103.114 26.2418 102.388 23.9139C101.673 21.6301 100.863 19.3719 100.032 16.9146C102.008 16.6135 103.036 17.4182 103.787 18.5728C104.647 19.903 105.629 21.2403 106.08 22.7195C107.301 26.6885 108.46 30.6899 109.273 34.7525C109.926 37.983 108.446 39.3174 105.483 38.5823C99.204 37.009 92.9304 35.395 86.6729 33.753C85.6896 33.4962 84.7763 32.9999 83.5284 32.4909C84.7573 30.6638 86.0996 30.9663 87.3609 31.1723C91.8266 31.9228 96.2761 32.7012 101.109 33.5268ZM52.2378 88.5507C50.1979 83.6738 46.1085 81.3563 41.4992 82.3943C44.6676 85.1872 47.5465 87.9 52.2378 88.5507ZM57.0081 60.6363C54.8505 56.5556 51.3499 55.3179 46.9764 56.9707C50.0346 59.1467 52.9361 61.0022 57.0081 60.6363Z" fill="#F25219"/>
</g>
</g>
<defs>
<linearGradient id="paint0_linear_307_3906" x1="513" y1="92.5" x2="557" y2="91" gradientUnits="userSpaceOnUse">
<stop stop-color="#1751D0"/>
<stop offset="1" stop-color="white"/>
</linearGradient>
<linearGradient id="paint1_linear_307_3906" x1="268.606" y1="64.3479" x2="316.426" y2="52.6116" gradientUnits="userSpaceOnUse">
<stop stop-color="#D9B227"/>
<stop offset="1" stop-color="#FD4141"/>
</linearGradient>
<clipPath id="clip0_307_3906">
<rect width="123" height="113" fill="white" transform="translate(0.5 0.5)"/>
</clipPath>
</defs>
</svg>
