<svg width="3000" height="2739" viewBox="0 0 3000 2739" fill="none" xmlns="http://www.w3.org/2000/svg">
<g clip-path="url(#clip0_1_415)">
<path d="M355.291 863.833H2263.84C2306.4 863.833 2340.95 898.362 2340.95 940.893V2245.73H278.183V940.893C278.183 898.362 312.733 863.833 355.291 863.833Z" fill="white"/>
<path d="M2340.95 2248.69H278.183C277.396 2248.69 276.642 2248.38 276.086 2247.83C275.53 2247.27 275.217 2246.52 275.217 2245.73V940.891C275.217 896.768 311.138 860.87 355.289 860.87H2263.84C2307.99 860.87 2343.91 896.768 2343.91 940.891V2245.73C2343.91 2246.52 2343.6 2247.27 2343.04 2247.83C2342.49 2248.38 2341.73 2248.69 2340.95 2248.69ZM281.148 2242.77H2337.98V940.891C2337.98 900.036 2304.72 866.797 2263.84 866.797H355.289C314.409 866.797 281.148 900.036 281.148 940.891V2242.77Z" fill="#0C296A"/>
<path d="M2340.95 948.66H278.183C277.396 948.66 276.642 948.348 276.086 947.792C275.53 947.236 275.217 946.482 275.217 945.697C275.217 944.911 275.53 944.157 276.086 943.601C276.642 943.045 277.396 942.733 278.183 942.733H2340.95C2341.73 942.733 2342.49 943.045 2343.04 943.601C2343.6 944.157 2343.91 944.911 2343.91 945.697C2343.91 946.482 2343.6 947.236 2343.04 947.792C2342.49 948.348 2341.73 948.66 2340.95 948.66Z" fill="#0C296A"/>
<path d="M386.38 921.542C395.827 921.542 403.485 913.889 403.485 904.448C403.485 895.007 395.827 887.354 386.38 887.354C376.934 887.354 369.276 895.007 369.276 904.448C369.276 913.889 376.934 921.542 386.38 921.542Z" fill="#0C296A"/>
<path d="M386.38 924.505C375.315 924.505 366.312 915.508 366.312 904.448C366.312 893.388 375.315 884.392 386.38 884.392C397.446 884.392 406.45 893.389 406.45 904.448C406.45 915.506 397.447 924.505 386.38 924.505ZM386.38 890.319C378.584 890.319 372.242 896.656 372.242 904.448C372.242 912.239 378.584 918.578 386.38 918.578C394.176 918.578 400.52 912.239 400.52 904.448C400.52 896.656 394.176 890.319 386.38 890.319Z" fill="#0C296A"/>
<path d="M450.969 921.542C460.416 921.542 468.074 913.889 468.074 904.448C468.074 895.007 460.416 887.354 450.969 887.354C441.523 887.354 433.865 895.007 433.865 904.448C433.865 913.889 441.523 921.542 450.969 921.542Z" fill="#0C296A"/>
<path d="M450.969 924.505C439.902 924.505 430.899 915.508 430.899 904.448C430.899 893.388 439.902 884.392 450.969 884.392C462.036 884.392 471.038 893.389 471.038 904.448C471.038 915.506 462.035 924.505 450.969 924.505ZM450.969 890.319C443.173 890.319 436.83 896.656 436.83 904.448C436.83 912.239 443.173 918.578 450.969 918.578C458.766 918.578 465.107 912.239 465.107 904.448C465.107 896.656 458.766 890.319 450.969 890.319Z" fill="#0C296A"/>
<path d="M515.558 921.542C525.005 921.542 532.663 913.889 532.663 904.448C532.663 895.007 525.005 887.354 515.558 887.354C506.112 887.354 498.454 895.007 498.454 904.448C498.454 913.889 506.112 921.542 515.558 921.542Z" fill="#0C296A"/>
<path d="M515.558 924.505C504.493 924.505 495.49 915.508 495.49 904.448C495.49 893.388 504.493 884.392 515.558 884.392C526.624 884.392 535.629 893.389 535.629 904.448C535.629 915.506 526.625 924.505 515.558 924.505ZM515.558 890.319C507.762 890.319 501.421 896.656 501.421 904.448C501.421 912.239 507.762 918.578 515.558 918.578C523.355 918.578 529.698 912.239 529.698 904.448C529.698 896.656 523.355 890.319 515.558 890.319ZM2340.95 1303.06H278.183C277.396 1303.06 276.642 1302.74 276.086 1302.19C275.53 1301.63 275.217 1300.88 275.217 1300.09C275.217 1299.31 275.53 1298.55 276.086 1298C276.642 1297.44 277.396 1297.13 278.183 1297.13H2340.95C2341.73 1297.13 2342.49 1297.44 2343.04 1298C2343.6 1298.55 2343.91 1299.31 2343.91 1300.09C2343.91 1300.88 2343.6 1301.63 2343.04 1302.19C2342.49 1302.74 2341.73 1303.06 2340.95 1303.06Z" fill="#0C296A"/>
<path d="M515.558 1229.87C574.674 1229.87 622.596 1181.97 622.596 1122.9C622.596 1063.82 574.674 1015.92 515.558 1015.92C456.443 1015.92 408.52 1063.82 408.52 1122.9C408.52 1181.97 456.443 1229.87 515.558 1229.87Z" fill="#E12121"/>
<path d="M515.558 1232.83C454.903 1232.83 405.556 1183.51 405.556 1122.9C405.556 1062.28 454.903 1012.96 515.558 1012.96C576.214 1012.96 625.562 1062.28 625.562 1122.9C625.562 1183.51 576.215 1232.83 515.558 1232.83ZM515.558 1018.89C458.174 1018.89 411.487 1065.55 411.487 1122.9C411.487 1180.24 458.174 1226.9 515.558 1226.9C572.943 1226.9 619.631 1180.24 619.631 1122.9C619.631 1065.55 572.944 1018.89 515.558 1018.89Z" fill="#E12121"/>
<path d="M770.85 1092.6H1058.83V1153.19H770.85V1092.6Z" fill="#0C296A"/>
<path d="M1058.82 1156.15H770.848C770.062 1156.15 769.308 1155.84 768.751 1155.29C768.195 1154.73 767.883 1153.98 767.883 1153.19V1092.6C767.883 1091.82 768.195 1091.06 768.751 1090.51C769.308 1089.95 770.062 1089.64 770.848 1089.64H1058.82C1059.61 1089.64 1060.36 1089.95 1060.92 1090.51C1061.48 1091.06 1061.79 1091.82 1061.79 1092.6V1153.19C1061.79 1153.98 1061.48 1154.73 1060.92 1155.29C1060.36 1155.84 1059.61 1156.15 1058.82 1156.15ZM773.814 1150.23H1055.86V1095.57H773.814V1150.23Z" fill="#0C296A"/>
<path d="M1157.62 1092.6H1677.41V1153.19H1157.62V1092.6Z" fill="white"/>
<path d="M1677.41 1156.15H1157.62C1156.83 1156.15 1156.08 1155.84 1155.52 1155.29C1154.97 1154.73 1154.66 1153.98 1154.66 1153.19V1092.6C1154.66 1091.82 1154.97 1091.06 1155.52 1090.51C1156.08 1089.95 1156.83 1089.64 1157.62 1089.64H1677.41C1678.2 1089.64 1678.95 1089.95 1679.51 1090.51C1680.06 1091.06 1680.38 1091.82 1680.38 1092.6V1153.19C1680.38 1153.98 1680.06 1154.73 1679.51 1155.29C1678.95 1155.84 1678.2 1156.15 1677.41 1156.15ZM1160.59 1150.23H1674.44V1095.57H1160.59V1150.23Z" fill="#0C296A"/>
</g>
<g clip-path="url(#clip1_1_415)">
<path d="M2034.65 1939.57C2033.87 1939.57 2033.12 1939.25 2032.56 1938.7C2032 1938.14 2031.69 1937.39 2031.69 1936.6C2031.69 1935.82 2032 1935.06 2032.56 1934.51C2033.12 1933.95 2033.87 1933.64 2034.65 1933.64H2110.41C2112.05 1933.64 2113.44 1934.97 2113.44 1936.6C2113.44 1938.24 2112.18 1939.56 2110.54 1939.56V1936.6L2110.5 1939.56L2034.65 1939.57ZM1989.2 1939.57H1913.44C1912.66 1939.57 1911.9 1939.25 1911.35 1938.7C1910.79 1938.14 1910.48 1937.39 1910.48 1936.6C1910.48 1935.82 1910.79 1935.06 1911.35 1934.51C1911.9 1933.95 1912.66 1933.64 1913.44 1933.64H1989.2C1989.99 1933.64 1990.74 1933.95 1991.29 1934.51C1991.85 1935.06 1992.16 1935.82 1992.16 1936.6C1992.16 1937.39 1991.85 1938.14 1991.29 1938.7C1990.74 1939.25 1989.99 1939.57 1989.2 1939.57ZM1867.99 1939.57H1792.23C1791.44 1939.57 1790.69 1939.25 1790.13 1938.7C1789.58 1938.14 1789.26 1937.39 1789.26 1936.6C1789.26 1935.82 1789.58 1935.06 1790.13 1934.51C1790.69 1933.95 1791.44 1933.64 1792.23 1933.64H1867.99C1868.77 1933.64 1869.53 1933.95 1870.08 1934.51C1870.64 1935.06 1870.95 1935.82 1870.95 1936.6C1870.95 1937.39 1870.64 1938.14 1870.08 1938.7C1869.53 1939.25 1868.77 1939.57 1867.99 1939.57ZM1746.77 1939.57H1734.81C1716.09 1939.57 1700.87 1924.34 1700.87 1905.63V1890.51C1700.87 1889.72 1701.18 1888.97 1701.74 1888.42C1702.29 1887.86 1703.05 1887.55 1703.83 1887.55C1704.62 1887.55 1705.37 1887.86 1705.93 1888.42C1706.48 1888.97 1706.8 1889.72 1706.8 1890.51V1905.63C1706.8 1921.07 1719.36 1933.64 1734.81 1933.64H1746.77C1747.56 1933.64 1748.31 1933.95 1748.87 1934.51C1749.42 1935.06 1749.73 1935.82 1749.73 1936.6C1749.73 1937.39 1749.42 1938.14 1748.87 1938.7C1748.31 1939.25 1747.56 1939.57 1746.77 1939.57ZM2141.24 1911.67C2140.82 1911.67 2140.41 1911.59 2140.03 1911.42C2139.66 1911.25 2139.32 1911.01 2139.04 1910.7C2138.76 1910.39 2138.55 1910.03 2138.42 1909.64C2138.29 1909.25 2138.25 1908.83 2138.29 1908.42C2138.38 1907.5 2138.42 1906.56 2138.42 1905.63V1832.96C2138.42 1832.17 2138.74 1831.42 2139.29 1830.86C2139.85 1830.31 2140.6 1830 2141.39 1830C2142.17 1830 2142.93 1830.31 2143.48 1830.86C2144.04 1831.42 2144.35 1832.17 2144.35 1832.96V1905.63C2144.35 1906.76 2144.29 1907.89 2144.18 1909C2144.11 1909.73 2143.77 1910.41 2143.23 1910.9C2142.68 1911.4 2141.97 1911.67 2141.24 1911.67L2141.24 1911.67ZM1703.83 1848.02C1703.05 1848.02 1702.29 1847.7 1701.74 1847.15C1701.18 1846.59 1700.87 1845.84 1700.87 1845.05V1769.29C1700.87 1768.51 1701.18 1767.76 1701.74 1767.2C1702.29 1766.64 1703.05 1766.33 1703.83 1766.33C1704.62 1766.33 1705.37 1766.64 1705.93 1767.2C1706.48 1767.76 1706.8 1768.51 1706.8 1769.29V1845.05C1706.8 1845.84 1706.48 1846.59 1705.93 1847.15C1705.37 1847.7 1704.62 1848.02 1703.83 1848.02ZM2141.39 1790.47C2140.6 1790.47 2139.85 1790.15 2139.29 1789.6C2138.73 1789.04 2138.42 1788.29 2138.42 1787.5V1711.75C2138.42 1710.96 2138.73 1710.21 2139.29 1709.65C2139.85 1709.1 2140.6 1708.78 2141.39 1708.78C2142.17 1708.78 2142.92 1709.1 2143.48 1709.65C2144.04 1710.21 2144.35 1710.96 2144.35 1711.75V1787.5C2144.35 1788.29 2144.04 1789.04 2143.48 1789.6C2142.92 1790.15 2142.17 1790.47 2141.39 1790.47ZM1703.83 1726.8C1703.05 1726.8 1702.29 1726.49 1701.74 1725.94C1701.18 1725.38 1700.87 1724.63 1700.87 1723.84V1648.08C1700.87 1647.3 1701.18 1646.54 1701.74 1645.99C1702.29 1645.43 1703.05 1645.12 1703.83 1645.12C1704.62 1645.12 1705.37 1645.43 1705.93 1645.99C1706.48 1646.54 1706.8 1647.3 1706.8 1648.08V1723.84C1706.8 1724.63 1706.48 1725.38 1705.93 1725.94C1705.37 1726.49 1704.62 1726.8 1703.83 1726.8ZM2141.39 1669.25C2140.6 1669.25 2139.85 1668.94 2139.29 1668.39C2138.73 1667.83 2138.42 1667.08 2138.42 1666.29V1590.53C2138.42 1589.75 2138.73 1588.99 2139.29 1588.44C2139.85 1587.88 2140.6 1587.57 2141.39 1587.57C2142.17 1587.57 2142.92 1587.88 2143.48 1588.44C2144.04 1588.99 2144.35 1589.75 2144.35 1590.53V1666.29C2144.35 1667.08 2144.04 1667.83 2143.48 1668.39C2142.92 1668.94 2142.17 1669.25 2141.39 1669.25ZM1703.83 1605.59C1703.05 1605.59 1702.29 1605.28 1701.74 1604.72C1701.18 1604.17 1700.87 1603.41 1700.87 1602.63V1530.02C1700.87 1528.88 1700.93 1527.72 1701.04 1526.58C1701.21 1524.95 1702.67 1523.78 1704.29 1523.93C1705.07 1524.01 1705.79 1524.39 1706.28 1525C1706.78 1525.61 1707.02 1526.39 1706.94 1527.17C1706.84 1528.12 1706.8 1529.07 1706.8 1530.02V1602.63C1706.8 1603.41 1706.48 1604.17 1705.93 1604.72C1705.37 1605.28 1704.62 1605.59 1703.83 1605.59ZM2141.39 1548.04C2140.6 1548.04 2139.85 1547.73 2139.29 1547.17C2138.73 1546.62 2138.42 1545.86 2138.42 1545.08V1530.02C2138.42 1514.58 2125.86 1502.01 2110.41 1502.01H2098.38C2097.6 1502.01 2096.84 1501.7 2096.29 1501.14C2095.73 1500.59 2095.42 1499.84 2095.42 1499.05C2095.42 1498.26 2095.73 1497.51 2096.29 1496.95C2096.84 1496.4 2097.6 1496.09 2098.38 1496.09H2110.41C2129.13 1496.09 2144.35 1511.31 2144.35 1530.02V1545.08C2144.35 1545.86 2144.04 1546.62 2143.48 1547.17C2142.92 1547.73 2142.17 1548.04 2141.39 1548.04ZM2052.93 1502.01H1977.17C1976.38 1502.01 1975.63 1501.7 1975.07 1501.14C1974.52 1500.59 1974.21 1499.84 1974.21 1499.05C1974.21 1498.26 1974.52 1497.51 1975.07 1496.95C1975.63 1496.4 1976.38 1496.09 1977.17 1496.09H2052.93C2053.71 1496.09 2054.47 1496.4 2055.02 1496.95C2055.58 1497.51 2055.89 1498.26 2055.89 1499.05C2055.89 1499.84 2055.58 1500.59 2055.02 1501.14C2054.47 1501.7 2053.71 1502.01 2052.93 1502.01ZM1931.71 1502.01H1855.95C1855.17 1502.01 1854.41 1501.7 1853.86 1501.14C1853.3 1500.59 1852.99 1499.83 1852.99 1499.05C1852.99 1498.26 1853.3 1497.51 1853.86 1496.95C1854.42 1496.4 1855.17 1496.09 1855.96 1496.09H1931.71C1932.5 1496.09 1933.25 1496.4 1933.81 1496.95C1934.36 1497.51 1934.68 1498.26 1934.68 1499.05C1934.68 1499.84 1934.36 1500.59 1933.81 1501.14C1933.25 1501.7 1932.5 1502.01 1931.71 1502.01ZM1810.5 1502.01H1734.81C1733.17 1502.01 1731.81 1500.69 1731.81 1499.05C1731.81 1497.41 1733.11 1496.09 1734.74 1496.09H1810.5C1811.28 1496.09 1812.04 1496.4 1812.59 1496.95C1813.15 1497.51 1813.46 1498.26 1813.46 1499.05C1813.46 1499.84 1813.15 1500.59 1812.59 1501.14C1812.04 1501.7 1811.28 1502.01 1810.5 1502.01Z" fill="#0C296A"/>
</g>
<g clip-path="url(#clip2_1_415)">
<path d="M259.049 1997.91C317.542 1947.42 387.394 1904.56 460.381 1868.44C626.984 1780.45 510.898 1537.53 337.517 1612.26C251.437 1654.73 174.864 1700.92 107.881 1753.65C126.566 1864.83 173.881 1948.75 259.049 1997.91Z" fill="white"/>
<path d="M259.049 2000.87C258.541 2000.87 258.03 2000.74 257.568 2000.47C215.622 1976.26 181.45 1942.64 156.001 1900.56C131.714 1860.41 114.544 1811.14 104.963 1754.13C104.875 1753.61 104.929 1753.07 105.121 1752.58C105.312 1752.08 105.634 1751.65 106.051 1751.32C170.575 1700.53 245.859 1654.18 336.208 1609.61L336.346 1609.54C427.433 1570.29 500.113 1617.52 529.099 1678.02C558.098 1738.55 549.397 1824.78 461.767 1871.06C382.067 1910.5 314.538 1953.92 260.987 2000.15C260.449 2000.62 259.761 2000.87 259.05 2000.87L259.049 2000.87ZM111.095 1754.89C130.651 1869.14 178.956 1947.5 258.715 1994.29C312.388 1948.25 379.782 1905.03 459.068 1865.79C543.171 1821.37 551.57 1738.64 523.756 1680.58C495.963 1622.56 426.222 1577.29 338.759 1614.95C249.457 1659.01 174.97 1704.79 111.095 1754.89Z" fill="#0C296A"/>
<path d="M445.209 1876.08C445.209 1876.08 548.626 1831.89 566.048 1828.17C579.819 1825.23 666.539 1824.91 689.185 1825.85C738.735 1827.9 745.454 1761.42 700.559 1756.78C675.107 1754.15 583.509 1744.62 562.779 1748.04C535.506 1752.53 473.014 1779.27 473.014 1779.27" fill="white"/>
<path d="M445.211 1879.04C444.528 1879.04 443.865 1878.8 443.336 1878.37C442.806 1877.94 442.442 1877.34 442.305 1876.67C442.168 1876 442.266 1875.31 442.583 1874.7C442.901 1874.1 443.417 1873.62 444.045 1873.35C448.278 1871.54 547.928 1829.02 565.429 1825.28C579.582 1822.25 665.674 1821.91 689.307 1822.89C713.929 1823.86 726.415 1807.28 727.564 1791.39C728.594 1777.14 720.55 1761.82 700.254 1759.72L699.35 1759.63C622.384 1751.68 576.591 1748.76 563.258 1750.96C536.652 1755.35 474.798 1781.72 474.176 1781.99C473.818 1782.14 473.434 1782.22 473.045 1782.23C472.656 1782.23 472.27 1782.16 471.909 1782.02C471.548 1781.87 471.219 1781.66 470.941 1781.38C470.663 1781.11 470.441 1780.79 470.288 1780.43C470.136 1780.07 470.055 1779.69 470.05 1779.3C470.046 1778.91 470.118 1778.53 470.263 1778.17C470.407 1777.81 470.622 1777.48 470.893 1777.2C471.165 1776.92 471.489 1776.7 471.847 1776.55C474.413 1775.45 534.983 1749.62 562.295 1745.12C583.18 1741.68 671.075 1750.76 699.959 1753.74L700.862 1753.84C724.974 1756.33 734.668 1775.27 733.47 1791.81C732.078 1811.05 716.394 1829.99 689.06 1828.81C666.259 1827.86 580.131 1828.19 566.665 1831.07C549.721 1834.69 447.403 1878.35 446.371 1878.8C446.004 1878.95 445.609 1879.03 445.209 1879.04L445.211 1879.04Z" fill="#0C296A"/>
<path d="M467.18 1792.59C467.18 1792.59 557.552 1756.27 571.605 1757.16C585.657 1758.06 668.579 1768.76 690.917 1772.59C739.796 1780.97 747.891 1714.75 703.958 1704.4C679.053 1698.54 579.507 1678.04 558.497 1678.04C537.487 1678.04 470.255 1704.69 470.255 1704.69" fill="white"/>
<path d="M467.18 1795.55C466.493 1795.55 465.828 1795.31 465.299 1794.87C464.77 1794.43 464.409 1793.82 464.279 1793.15C464.148 1792.48 464.256 1791.78 464.583 1791.17C464.911 1790.57 465.438 1790.1 466.074 1789.84C475.26 1786.15 555.244 1754.19 571.166 1754.19C571.387 1754.19 571.596 1754.19 571.791 1754.21C586.248 1755.13 668.979 1765.82 691.416 1769.67C714.906 1773.71 726.366 1759.72 729.049 1746.53C732.25 1730.8 724.426 1712.26 703.279 1707.28C675.461 1700.73 578.287 1681 558.495 1681C538.285 1681 472.014 1707.18 471.346 1707.44C470.985 1707.58 470.599 1707.65 470.21 1707.65C469.821 1707.64 469.437 1707.56 469.08 1707.4C468.723 1707.25 468.4 1707.03 468.129 1706.75C467.858 1706.47 467.645 1706.14 467.501 1705.78C467.358 1705.42 467.287 1705.03 467.293 1704.64C467.299 1704.25 467.381 1703.87 467.536 1703.51C467.69 1703.16 467.913 1702.83 468.192 1702.56C468.471 1702.29 468.801 1702.08 469.163 1701.93C471.93 1700.84 537.164 1675.08 558.494 1675.08C580.044 1675.08 680.602 1695.86 704.635 1701.52C729.189 1707.3 738.529 1729.64 734.851 1747.71C731.387 1764.75 716.299 1779.94 690.414 1775.5C668.749 1771.79 585.337 1761 571.412 1760.12C561.602 1759.55 504.357 1780.84 468.28 1795.33C467.929 1795.48 467.554 1795.55 467.176 1795.55H467.18Z" fill="#0C296A"/>
<path d="M458.35 1722.31C458.35 1722.31 536.496 1687.51 550.333 1690.12C564.169 1692.74 645.144 1713.56 666.841 1720.1C714.318 1734.43 730.5 1669.71 688.175 1654.04C664.18 1645.15 567.913 1612.57 547.062 1609.99C526.211 1607.41 449.023 1639.53 449.023 1639.53" fill="white"/>
<path d="M458.351 1725.27C457.672 1725.27 457.014 1725.04 456.486 1724.61C455.958 1724.18 455.593 1723.59 455.452 1722.92C455.31 1722.26 455.401 1721.57 455.71 1720.96C456.018 1720.36 456.524 1719.88 457.144 1719.6C465.23 1716 536.559 1684.48 550.884 1687.22C565.103 1689.9 645.89 1710.69 667.697 1717.27C690.505 1724.15 703.604 1711.7 707.891 1698.94C713.005 1683.72 707.521 1664.36 687.146 1656.81C660.347 1646.89 566.343 1615.36 546.698 1612.93C526.852 1610.48 450.926 1641.95 450.16 1642.27C449.435 1642.57 448.62 1642.57 447.894 1642.27C447.168 1641.97 446.59 1641.39 446.289 1640.67C445.987 1639.95 445.985 1639.13 446.285 1638.4C446.584 1637.68 447.16 1637.1 447.885 1636.8C451.065 1635.48 526.049 1604.43 547.426 1607.05C568.815 1609.7 666.049 1642.69 689.202 1651.26C712.858 1660.02 719.379 1683.33 713.504 1700.82C707.968 1717.3 691.126 1730.52 665.983 1722.94C644.928 1716.58 563.478 1695.62 549.782 1693.03C540.353 1691.25 489.441 1711.7 459.555 1725.01C459.176 1725.18 458.766 1725.27 458.351 1725.27V1725.27Z" fill="#0C296A"/>
<path d="M443.912 1655.73C443.912 1655.73 522.49 1630.2 536.357 1627.75C550.765 1625.21 635.508 1634.94 658.05 1637.28C707.377 1642.42 711.079 1575.81 666.559 1568.39C641.321 1564.18 539.046 1557.52 517.582 1557.75C496.572 1557.98 337.517 1612.26 337.517 1612.26" fill="white"/>
<path d="M443.912 1658.69C443.206 1658.69 442.522 1658.44 441.984 1657.98C441.447 1657.52 441.09 1656.89 440.98 1656.19C440.87 1655.49 441.013 1654.78 441.383 1654.18C441.753 1653.58 442.326 1653.13 442.999 1652.91C446.215 1651.87 521.933 1627.29 535.845 1624.84C547.286 1622.83 596.147 1627.64 647.24 1633.15C651.747 1633.64 655.541 1634.04 658.36 1634.34C682.06 1636.81 692.577 1622.11 694.383 1608.77C696.539 1592.86 687.506 1574.88 666.075 1571.31C640.743 1567.08 538.56 1560.44 517.617 1560.71C501.375 1560.88 393.336 1596.34 338.478 1615.06C338.109 1615.2 337.717 1615.25 337.326 1615.23C336.935 1615.21 336.552 1615.11 336.2 1614.94C335.847 1614.77 335.532 1614.53 335.273 1614.24C335.013 1613.94 334.814 1613.6 334.688 1613.23C334.561 1612.86 334.509 1612.47 334.535 1612.08C334.561 1611.69 334.664 1611.31 334.839 1610.96C335.013 1610.61 335.255 1610.29 335.551 1610.04C335.847 1609.78 336.191 1609.59 336.563 1609.46C343.074 1607.24 496.31 1555.02 517.551 1554.79C517.901 1554.79 518.278 1554.78 518.673 1554.78C542.025 1554.78 641.949 1561.28 667.047 1565.47C691.93 1569.62 702.725 1591.28 700.249 1609.57C697.917 1626.79 683.868 1642.97 657.744 1640.23C654.919 1639.93 651.118 1639.52 646.604 1639.04C617.415 1635.89 549.068 1628.53 536.871 1630.67C523.365 1633.05 445.612 1658.29 444.827 1658.54C444.531 1658.64 444.222 1658.69 443.911 1658.69L443.912 1658.69Z" fill="#0C296A"/>
<path d="M356.754 1826.3C395.631 1811.56 433.284 1747.36 414.179 1708.95C414.179 1708.95 464.598 1680.85 514.663 1652.25C554.104 1629.72 519.409 1577.53 485.939 1594.37C466.68 1604.06 322.982 1659.36 302.925 1670.87" fill="white"/>
<path d="M356.756 1829.27C356.062 1829.27 355.39 1829.02 354.857 1828.58C354.324 1828.14 353.963 1827.52 353.838 1826.84C353.713 1826.16 353.831 1825.45 354.172 1824.85C354.514 1824.25 355.056 1823.78 355.705 1823.54C376.92 1815.49 399.211 1790.79 409.914 1763.48C417.893 1743.12 418.466 1724.22 411.528 1710.27C411.189 1709.59 411.126 1708.81 411.351 1708.08C411.576 1707.35 412.073 1706.74 412.738 1706.37C413.241 1706.09 463.717 1677.94 513.196 1649.68C531.948 1638.96 531.578 1622.09 525.563 1610.89C518.769 1598.25 503.039 1589.09 487.272 1597.01C478.908 1601.22 448.477 1613.48 413.243 1627.67C367.514 1646.09 315.684 1666.96 304.401 1673.44C304.064 1673.64 303.689 1673.77 303.3 1673.83C302.911 1673.88 302.514 1673.86 302.134 1673.76C301.753 1673.66 301.397 1673.49 301.084 1673.25C300.772 1673.01 300.51 1672.71 300.314 1672.37C300.118 1672.03 299.992 1671.66 299.943 1671.27C299.895 1670.88 299.924 1670.48 300.03 1670.1C300.136 1669.72 300.316 1669.37 300.56 1669.06C300.804 1668.75 301.108 1668.5 301.452 1668.31C313.09 1661.62 365.121 1640.67 411.029 1622.18C444.681 1608.63 476.465 1595.83 484.608 1591.73C503.723 1582.11 522.663 1592.98 530.781 1608.1C538.628 1622.7 537.142 1642.82 516.133 1654.82C472.757 1679.6 428.62 1704.28 418.013 1710.21C424.445 1725.34 423.558 1744.89 415.428 1765.64C403.984 1794.85 380.826 1820.34 357.806 1829.07C357.47 1829.2 357.115 1829.27 356.756 1829.27V1829.27Z" fill="#0C296A"/>
<path d="M330.959 1943.09C246.826 1905.11 156.113 1795.28 148.253 1723.46C121.991 1740.71 98.6197 1758.75 73.396 1776.77C81.2551 1848.6 174.917 1959.92 259.049 1997.91C281.274 1979.05 302.925 1962.07 330.958 1943.09H330.959Z" fill="white"/>
<path d="M259.049 2000.87C258.629 2000.87 258.213 2000.78 257.83 2000.61C172.938 1962.28 78.3725 1849.48 70.4527 1777.1C70.3954 1776.57 70.4783 1776.05 70.693 1775.57C70.9077 1775.09 71.2464 1774.67 71.6742 1774.37C79.7672 1768.58 87.7907 1762.71 95.5506 1757.03C111.868 1745.09 128.741 1732.73 146.626 1720.99C147.049 1720.71 147.537 1720.54 148.043 1720.51C148.549 1720.47 149.055 1720.57 149.513 1720.78C149.972 1721 150.367 1721.33 150.662 1721.74C150.957 1722.15 151.141 1722.63 151.196 1723.14C154.892 1756.9 177.52 1800.98 213.283 1844.07C249.247 1887.41 292.583 1922.52 332.178 1940.4C332.658 1940.61 333.071 1940.95 333.375 1941.38C333.679 1941.81 333.863 1942.32 333.908 1942.84C333.953 1943.36 333.857 1943.89 333.631 1944.37C333.404 1944.84 333.055 1945.25 332.619 1945.54C307.361 1962.64 285.932 1978.98 260.965 2000.16C260.429 2000.62 259.75 2000.87 259.047 2000.87L259.049 2000.87ZM76.5425 1778.16C85.5105 1848.45 176.318 1956.39 258.569 1994.44C281.674 1974.89 301.864 1959.43 324.991 1943.58C243.171 1904.2 157.043 1800.7 145.937 1728.54C129.625 1739.43 114.101 1750.79 99.0507 1761.81C91.7321 1767.16 84.1795 1772.69 76.5425 1778.16Z" fill="#0C296A"/>
</g>
<g clip-path="url(#clip3_1_415)">
<path d="M407.311 1411.65H1533.56V2030.52H407.311V1411.65Z" fill="white"/>
<path d="M1533.56 2033.48H407.311C406.525 2033.48 405.772 2033.17 405.216 2032.61C404.66 2032.06 404.348 2031.31 404.348 2030.52V1411.65C404.348 1410.87 404.66 1410.12 405.216 1409.56C405.772 1409.01 406.525 1408.7 407.311 1408.7H1533.56C1534.35 1408.7 1535.1 1409.01 1535.66 1409.56C1536.21 1410.12 1536.52 1410.87 1536.52 1411.65V2030.52C1536.52 2031.31 1536.21 2032.06 1535.66 2032.61C1535.1 2033.17 1534.34 2033.48 1533.56 2033.48ZM410.275 2027.57H1530.6V1414.61H410.275V2027.57Z" fill="#0C296A"/>
<path d="M506.892 1476.06H769.362V1737.77H506.892V1476.06Z" fill="white"/>
<path d="M769.361 1740.73H506.892C506.106 1740.73 505.352 1740.42 504.797 1739.87C504.241 1739.31 503.929 1738.56 503.929 1737.78V1476.06C503.929 1475.27 504.241 1474.52 504.797 1473.97C505.352 1473.41 506.106 1473.1 506.892 1473.1H769.363C770.148 1473.1 770.902 1473.41 771.458 1473.97C772.014 1474.52 772.326 1475.27 772.326 1476.06V1737.78C772.326 1738.56 772.014 1739.31 771.458 1739.87C770.902 1740.42 770.148 1740.73 769.363 1740.73H769.361ZM509.854 1734.82H766.398V1479.01H509.856L509.854 1734.82Z" fill="#0C296A"/>
<path d="M638.127 1626.81C660.658 1626.81 678.924 1604.89 678.924 1577.85C678.924 1550.82 660.658 1528.9 638.127 1528.9C615.595 1528.9 597.329 1550.82 597.329 1577.85C597.329 1604.89 615.595 1626.81 638.127 1626.81Z" fill="#0C296A"/>
<path d="M638.127 1629.76C613.997 1629.76 594.366 1606.47 594.366 1577.85C594.366 1549.23 613.997 1525.94 638.127 1525.94C662.256 1525.94 681.887 1549.23 681.887 1577.85C681.887 1606.47 662.256 1629.76 638.127 1629.76ZM638.127 1531.85C617.264 1531.85 600.293 1552.49 600.293 1577.85C600.293 1603.22 617.266 1623.85 638.127 1623.85C658.987 1623.85 675.96 1603.22 675.96 1577.85C675.96 1552.49 658.987 1531.85 638.127 1531.85ZM769.362 1737.77C769.362 1694.13 710.607 1658.75 638.128 1658.75C565.649 1658.75 506.894 1694.13 506.894 1737.77H769.362Z" fill="#0C296A"/>
<path d="M769.361 1740.73H506.892C506.106 1740.73 505.352 1740.42 504.797 1739.87C504.241 1739.31 503.929 1738.56 503.929 1737.78C503.929 1692.57 564.13 1655.8 638.127 1655.8C712.123 1655.8 772.324 1692.57 772.324 1737.78C772.324 1738.56 772.012 1739.31 771.456 1739.87C770.901 1740.42 770.147 1740.73 769.361 1740.73ZM509.95 1734.82H766.303C763.679 1694.24 707.189 1661.71 638.127 1661.71C569.064 1661.71 512.574 1694.24 509.95 1734.82ZM1433.98 1804.55H929.81C929.024 1804.55 928.271 1804.24 927.715 1803.68C927.159 1803.13 926.847 1802.38 926.847 1801.59C926.847 1800.81 927.159 1800.06 927.715 1799.51C928.271 1798.95 929.024 1798.64 929.81 1798.64H1433.98C1434.76 1798.64 1435.52 1798.95 1436.07 1799.51C1436.63 1800.06 1436.94 1800.81 1436.94 1801.59C1436.94 1802.38 1436.63 1803.13 1436.07 1803.68C1435.52 1804.24 1434.76 1804.55 1433.98 1804.55ZM827.739 1804.55H506.892C506.106 1804.55 505.352 1804.24 504.797 1803.68C504.241 1803.13 503.929 1802.38 503.929 1801.59C503.929 1800.81 504.241 1800.06 504.797 1799.51C505.352 1798.95 506.106 1798.64 506.892 1798.64H827.74C828.526 1798.64 829.28 1798.95 829.836 1799.51C830.391 1800.06 830.704 1800.81 830.704 1801.59C830.704 1802.38 830.391 1803.13 829.836 1803.68C829.28 1804.24 828.526 1804.55 827.74 1804.55H827.739ZM1433.98 1886.81H1143.47C1142.69 1886.81 1141.93 1886.5 1141.38 1885.95C1140.82 1885.39 1140.51 1884.64 1140.51 1883.86C1140.51 1883.07 1140.82 1882.32 1141.38 1881.77C1141.93 1881.21 1142.69 1880.9 1143.47 1880.9H1433.98C1434.76 1880.9 1435.52 1881.21 1436.07 1881.77C1436.63 1882.32 1436.94 1883.07 1436.94 1883.86C1436.94 1884.64 1436.63 1885.39 1436.07 1885.95C1435.52 1886.5 1434.76 1886.81 1433.98 1886.81ZM1056.49 1886.81H506.892C506.106 1886.81 505.352 1886.5 504.797 1885.95C504.241 1885.39 503.929 1884.64 503.929 1883.86C503.929 1883.07 504.241 1882.32 504.797 1881.77C505.352 1881.21 506.106 1880.9 506.892 1880.9H1056.49C1057.28 1880.9 1058.03 1881.21 1058.59 1881.77C1059.14 1882.32 1059.45 1883.07 1059.45 1883.86C1059.45 1884.64 1059.14 1885.39 1058.59 1885.95C1058.03 1886.5 1057.28 1886.81 1056.49 1886.81ZM1433.98 1969.07H827.727C826.941 1969.07 826.187 1968.76 825.631 1968.2C825.076 1967.65 824.763 1966.9 824.763 1966.12C824.763 1965.33 825.076 1964.58 825.631 1964.03C826.187 1963.47 826.941 1963.16 827.727 1963.16H1433.98C1434.76 1963.16 1435.52 1963.47 1436.07 1964.03C1436.63 1964.58 1436.94 1965.33 1436.94 1966.12C1436.94 1966.9 1436.63 1967.65 1436.07 1968.2C1435.52 1968.76 1434.76 1969.07 1433.98 1969.07ZM735.655 1969.07H506.892C506.106 1969.07 505.352 1968.76 504.797 1968.2C504.241 1967.65 503.929 1966.9 503.929 1966.12C503.929 1965.33 504.241 1964.58 504.797 1964.03C505.352 1963.47 506.106 1963.16 506.892 1963.16H735.657C736.443 1963.16 737.196 1963.47 737.752 1964.03C738.308 1964.58 738.62 1965.33 738.62 1966.12C738.62 1966.9 738.308 1967.65 737.752 1968.2C737.196 1968.76 736.443 1969.07 735.657 1969.07H735.655ZM1407.67 1640.03H1107.79C1107 1640.03 1106.25 1639.72 1105.69 1639.16C1105.14 1638.61 1104.82 1637.86 1104.82 1637.07C1104.82 1636.29 1105.14 1635.54 1105.69 1634.98C1106.25 1634.43 1107 1634.12 1107.79 1634.12H1407.67C1408.46 1634.12 1409.21 1634.43 1409.77 1634.98C1410.32 1635.54 1410.64 1636.29 1410.64 1637.07C1410.64 1637.86 1410.32 1638.61 1409.77 1639.16C1409.21 1639.72 1408.46 1640.03 1407.67 1640.03ZM1023.61 1640.03H859.191C858.405 1640.03 857.651 1639.72 857.095 1639.16C856.54 1638.61 856.227 1637.86 856.227 1637.07C856.227 1636.29 856.54 1635.54 857.095 1634.98C857.651 1634.43 858.405 1634.12 859.191 1634.12H1023.61C1024.39 1634.12 1025.15 1634.43 1025.7 1634.98C1026.26 1635.54 1026.57 1636.29 1026.57 1637.07C1026.57 1637.86 1026.26 1638.61 1025.7 1639.16C1025.15 1639.72 1024.39 1640.03 1023.61 1640.03ZM1257.73 1722.29H859.191C858.405 1722.29 857.651 1721.98 857.095 1721.42C856.54 1720.87 856.227 1720.12 856.227 1719.33C856.227 1718.55 856.54 1717.8 857.095 1717.25C857.651 1716.69 858.405 1716.38 859.191 1716.38H1257.73C1258.52 1716.38 1259.27 1716.69 1259.83 1717.25C1260.38 1717.8 1260.69 1718.55 1260.69 1719.33C1260.69 1720.12 1260.38 1720.87 1259.83 1721.42C1259.27 1721.98 1258.52 1722.29 1257.73 1722.29Z" fill="#0C296A"/>
<path d="M900.858 1505.86H1292.34V1554.81H900.858V1505.86Z" fill="white"/>
<path d="M1292.34 1557.77H900.858C900.072 1557.77 899.318 1557.46 898.762 1556.9C898.207 1556.35 897.894 1555.6 897.894 1554.81V1505.86C897.894 1505.07 898.207 1504.32 898.762 1503.77C899.318 1503.21 900.072 1502.9 900.858 1502.9H1292.34C1293.12 1502.9 1293.88 1503.21 1294.43 1503.77C1294.99 1504.32 1295.3 1505.07 1295.3 1505.86V1554.81C1295.3 1555.6 1294.99 1556.35 1294.43 1556.9C1293.88 1557.46 1293.12 1557.77 1292.34 1557.77ZM903.821 1551.86H1289.37V1508.81H903.821V1551.86Z" fill="#0C296A"/>
</g>
<g clip-path="url(#clip4_1_415)">
<path d="M2189.98 1565.57H1814.37C1797.26 1565.57 1783.4 1579.44 1783.4 1596.54V1972.15C1783.4 1989.26 1797.26 2003.12 1814.37 2003.12H2189.98C2207.08 2003.12 2220.95 1989.26 2220.95 1972.15V1596.54C2220.95 1579.44 2207.08 1565.57 2189.98 1565.57Z" fill="#E12121"/>
<path d="M2189.98 2006.09H1814.37C1795.66 2006.09 1780.43 1990.86 1780.43 1972.15V1596.54C1780.43 1577.83 1795.66 1562.61 1814.37 1562.61H2189.98C2208.69 1562.61 2223.91 1577.83 2223.91 1596.54V1972.15C2223.91 1990.86 2208.69 2006.09 2189.98 2006.09ZM1814.37 1568.53C1798.93 1568.53 1786.36 1581.1 1786.36 1596.54V1972.15C1786.36 1987.6 1798.93 2000.16 1814.37 2000.16H2189.98C2205.42 2000.16 2217.99 1987.6 2217.99 1972.15V1596.54C2217.99 1581.1 2205.42 1568.53 2189.98 1568.53H1814.37Z" fill="#E12121"/>
<path d="M2102.86 1720.23C2126.8 1720.23 2146.21 1700.81 2146.21 1676.87C2146.21 1652.92 2126.8 1633.51 2102.86 1633.51C2078.91 1633.51 2059.5 1652.92 2059.5 1676.87C2059.5 1700.81 2078.91 1720.23 2102.86 1720.23Z" fill="#0C296A"/>
<path d="M2102.86 1723.19C2077.32 1723.19 2056.53 1702.41 2056.53 1676.87C2056.53 1651.33 2077.31 1630.55 2102.86 1630.55C2128.4 1630.55 2149.18 1651.33 2149.18 1676.87C2149.18 1702.41 2128.4 1723.19 2102.86 1723.19ZM2102.86 1636.47C2080.58 1636.47 2062.46 1654.59 2062.46 1676.87C2062.46 1699.14 2080.58 1717.26 2102.86 1717.26C2125.13 1717.26 2143.25 1699.14 2143.25 1676.87C2143.25 1654.59 2125.13 1636.47 2102.86 1636.47ZM2153.55 1794.21C2137.34 1781.3 2114.55 1780.62 2097.61 1792.56L2038.8 1833.99L1986.62 1775.82C1969.39 1756.62 1939.85 1755.04 1920.67 1772.31L1783.4 1895.97V1972.15C1783.4 1989.26 1797.27 2003.12 1814.37 2003.12H2189.98C2207.08 2003.12 2220.95 1989.26 2220.95 1972.15V1847.92L2153.55 1794.21Z" fill="#0C296A"/>
<path d="M2189.98 2006.09H1814.37C1795.66 2006.09 1780.43 1990.86 1780.43 1972.15V1895.97C1780.43 1895.13 1780.79 1894.33 1781.41 1893.77L1918.69 1770.11C1928.55 1761.23 1941.28 1756.72 1954.53 1757.43C1967.79 1758.14 1979.97 1763.96 1988.83 1773.84L2039.24 1830.05L2095.9 1790.14C2113.8 1777.52 2138.27 1778.25 2155.39 1791.89L2222.79 1845.61C2223.5 1846.17 2223.91 1847.02 2223.91 1847.92V1972.15C2223.91 1990.86 2208.69 2006.09 2189.98 2006.09L2189.98 2006.09ZM1786.36 1897.29V1972.15C1786.36 1987.6 1798.93 2000.16 1814.37 2000.16H2189.98C2205.42 2000.16 2217.99 1987.6 2217.99 1972.15V1849.35L2151.7 1796.53C2136.62 1784.51 2115.08 1783.88 2099.32 1794.98L2040.51 1836.41C2039.91 1836.83 2039.19 1837.02 2038.46 1836.94C2037.74 1836.86 2037.08 1836.51 2036.59 1835.97L1984.42 1777.8C1976.61 1769.1 1965.89 1763.97 1954.22 1763.35C1942.55 1762.74 1931.34 1766.69 1922.66 1774.51L1786.36 1897.29Z" fill="#0C296A"/>
</g>
<g clip-path="url(#clip5_1_415)">
<path d="M1715.37 352.003C1614 404.019 1519.72 477.137 1430.81 569.584C1285.67 735.035 1512.99 952.16 1670.99 798.525C1739.51 725.724 1822.08 671.761 1911.13 638.751C1895.54 510.277 1837.09 410.19 1715.37 352.003Z" fill="white"/>
<path d="M1551.74 853.838C1506.83 853.838 1465.13 834.424 1435.21 805.888C1378.67 751.958 1352.47 654.393 1428.59 567.628C1519.08 473.534 1615.08 400.133 1714.02 349.364C1714.42 349.156 1714.87 349.044 1715.33 349.038C1715.78 349.032 1716.23 349.131 1716.64 349.329C1775.94 377.676 1822.67 417.398 1855.52 467.391C1886.28 514.201 1905.98 571.735 1914.07 638.397C1914.16 639.059 1914.01 639.73 1913.66 640.3C1913.32 640.869 1912.79 641.305 1912.16 641.536C1822.4 674.81 1739.75 729.8 1673.15 800.564C1634.14 838.492 1591.67 853.841 1551.74 853.841L1551.74 853.838ZM1715.41 355.315C1617.51 405.76 1522.49 478.534 1432.95 571.643C1359.5 655.368 1384.73 749.554 1439.3 801.59C1468.15 829.111 1508.38 847.827 1551.71 847.83C1590.27 847.834 1631.27 833.018 1668.93 796.397C1735.52 725.644 1818.15 670.457 1907.91 636.789C1890.93 501.691 1827.94 409.586 1715.41 355.315Z" fill="#0C296A"/>
<path d="M1535.26 808.695C1535.26 808.695 1467.52 872.565 1469.98 901.089C1470.92 912.055 1556.07 968.167 1576.95 961.741C1611.31 951.159 1655.97 883.269 1663.11 872.571C1673.95 856.346 1668.27 832.015 1650.55 820.132C1631.09 807.085 1608.59 815.041 1598.1 826.465C1587.61 837.89 1544.36 888.88 1544.36 888.88L1588.46 837.366" fill="white"/>
<path d="M1573.15 965.194C1555.24 965.194 1519.22 944.224 1499.24 930.723C1487.47 922.77 1467.63 908.38 1467.03 901.344C1464.48 871.729 1530.42 809.181 1533.23 806.534C1533.51 806.267 1533.84 806.058 1534.21 805.92C1534.57 805.782 1534.96 805.717 1535.34 805.729C1535.73 805.741 1536.11 805.829 1536.47 805.989C1536.82 806.149 1537.14 806.377 1537.41 806.661C1537.68 806.944 1537.88 807.277 1538.02 807.642C1538.16 808.006 1538.22 808.394 1538.21 808.783C1538.2 809.172 1538.11 809.555 1537.95 809.91C1537.79 810.265 1537.57 810.586 1537.28 810.853C1518.73 828.347 1471.01 878.615 1472.93 900.834C1473.69 904.547 1492.61 920.602 1520.53 937.209C1547.04 952.979 1568.32 961.293 1576.08 958.904C1597.11 952.427 1626.96 921.453 1660.14 871.689L1660.65 870.919C1670.59 856.037 1665.1 833.455 1648.9 822.596C1630.44 810.224 1609.36 818.583 1600.28 828.472C1598.19 830.743 1594.78 834.62 1590.65 839.361L1546.6 890.809C1546.09 891.389 1545.37 891.743 1544.6 891.796C1543.82 891.849 1543.06 891.597 1542.47 891.093C1541.88 890.589 1541.51 889.875 1541.44 889.102C1541.38 888.329 1541.61 887.56 1542.1 886.959C1542.45 886.553 1569.74 854.388 1586.11 835.555L1586.21 835.435L1586.29 835.349C1590.41 830.612 1593.82 826.737 1595.92 824.456C1608.18 811.096 1632.07 804.177 1652.19 817.666C1671.34 830.504 1677.47 856.402 1665.57 874.219L1665.06 874.984C1645.41 904.46 1607.95 955.295 1577.81 964.575C1576.45 964.995 1574.88 965.192 1573.15 965.192V965.194Z" fill="#0C296A"/>
<path d="M1471.09 768.155C1471.09 768.155 1409.89 831.499 1412.35 860.023C1413.29 870.989 1491.91 927.628 1512.78 921.201C1547.15 910.619 1591.8 842.729 1598.95 832.032C1609.78 815.806 1604.11 791.476 1586.38 779.593C1566.93 766.546 1544.42 774.501 1533.93 785.926C1523.45 797.35 1480.19 848.34 1480.19 848.34L1524.3 796.827" fill="white"/>
<path d="M1508.98 924.666C1492.43 924.669 1462.82 905.965 1449.98 897.286C1435.23 887.322 1410.09 868.318 1409.4 860.278C1406.86 830.749 1466.43 768.719 1468.97 766.092C1469.52 765.544 1470.26 765.235 1471.03 765.23C1471.81 765.225 1472.55 765.524 1473.11 766.064C1473.67 766.604 1473.99 767.342 1474.01 768.118C1474.03 768.894 1473.75 769.648 1473.22 770.216C1472.62 770.841 1412.99 832.911 1415.3 859.767C1415.97 863.898 1436.58 882.253 1463.67 899.104C1486.3 913.181 1504.79 920.562 1511.91 918.364C1532.95 911.887 1562.8 880.914 1595.98 831.149L1596.49 830.379C1606.43 815.498 1600.94 792.916 1584.74 782.056C1566.28 769.682 1545.19 778.043 1536.12 787.932C1534.03 790.203 1530.62 794.08 1526.49 798.821L1482.44 850.269C1481.93 850.849 1481.21 851.203 1480.44 851.256C1479.66 851.309 1478.9 851.057 1478.31 850.553C1477.72 850.05 1477.35 849.335 1477.28 848.562C1477.22 847.789 1477.45 847.02 1477.94 846.419C1478.29 846.013 1505.58 813.848 1521.95 795.016L1522.05 794.896L1522.13 794.81C1526.25 790.072 1529.66 786.197 1531.76 783.916C1544.02 770.556 1567.91 763.637 1588.03 777.126C1607.18 789.964 1613.31 815.862 1601.41 833.679L1600.9 834.445C1581.25 863.92 1543.79 914.756 1513.65 924.035C1512.26 924.464 1510.69 924.664 1508.98 924.664L1508.98 924.666Z" fill="#0C296A"/>
<path d="M1416.65 705.621C1416.65 705.621 1353.09 764.864 1355.54 793.386C1356.49 804.352 1439.54 872.625 1460.41 866.197C1494.78 855.615 1539.43 787.725 1546.57 777.027C1557.41 760.802 1551.73 736.471 1534.01 724.588C1514.55 711.541 1492.05 719.497 1481.56 730.921C1471.07 742.346 1427.82 793.335 1427.82 793.335L1471.92 741.822" fill="white"/>
<path d="M1457.29 869.578C1448.2 869.578 1433.5 862.75 1413.46 849.206C1389.18 832.8 1353.4 802.999 1352.59 793.641C1350.04 764.017 1412 705.908 1414.64 703.448C1415.22 702.945 1415.97 702.688 1416.73 702.73C1417.5 702.772 1418.22 703.11 1418.74 703.672C1419.27 704.235 1419.55 704.979 1419.54 705.748C1419.52 706.516 1419.21 707.25 1418.67 707.793C1401.28 723.999 1356.58 770.922 1358.49 793.131C1359.5 799.118 1394.56 830.826 1425.94 850.234C1448.81 864.377 1457.06 864.129 1459.54 863.362C1480.58 856.884 1510.43 825.911 1543.6 776.146L1544.11 775.378C1554.05 760.496 1548.56 737.914 1532.37 727.055C1513.91 714.684 1492.82 723.041 1483.74 732.931C1481.65 735.203 1478.24 739.078 1474.12 743.821L1430.07 795.268C1429.55 795.847 1428.83 796.202 1428.06 796.255C1427.29 796.308 1426.52 796.056 1425.94 795.552C1425.35 795.048 1424.98 794.333 1424.91 793.56C1424.84 792.788 1425.08 792.018 1425.57 791.418C1425.91 791.011 1453.2 758.847 1469.57 740.016L1469.68 739.894L1469.75 739.808C1473.88 735.071 1477.29 731.195 1479.38 728.914C1491.65 715.554 1515.54 708.634 1535.66 722.125C1554.81 734.964 1560.93 760.861 1549.03 778.678L1548.52 779.441C1528.88 808.918 1491.41 859.753 1461.28 869.034C1460.1 869.397 1458.77 869.578 1457.29 869.578H1457.29Z" fill="#0C296A"/>
<path d="M1450.16 549.862C1392.48 606.217 1278.27 678.628 1262.74 700.139C1248.77 719.488 1268.43 854.148 1269.55 861.906C1278.9 926.282 1365.7 911.009 1361.21 850.605C1358.31 811.557 1353.48 752.303 1353.48 752.303L1426.42 702.985" fill="white"/>
<path d="M1313.54 906.538C1292.58 906.538 1271.13 893.373 1266.62 862.333L1266.6 862.179C1261.71 828.499 1246.8 717.15 1260.34 698.399C1267.76 688.121 1295.23 667.866 1330.01 642.223C1368.82 613.614 1417.11 578.008 1448.09 547.736C1448.66 547.187 1449.41 546.884 1450.2 546.894C1450.98 546.903 1451.73 547.225 1452.28 547.788C1452.83 548.351 1453.13 549.109 1453.12 549.896C1453.11 550.683 1452.79 551.433 1452.23 551.982C1420.95 582.542 1372.47 618.282 1333.52 647C1300.52 671.334 1272.01 692.35 1265.13 701.874C1256.03 714.487 1262.25 791.045 1272.46 861.323L1272.48 861.477C1276.81 891.334 1298.67 902.514 1318.4 900.337C1339.86 897.975 1360.44 880.211 1358.26 850.823C1355.39 812.23 1350.57 753.135 1350.52 752.542C1350.48 752.017 1350.58 751.49 1350.81 751.016C1351.03 750.541 1351.38 750.136 1351.82 749.841L1424.76 700.523C1425.08 700.305 1425.45 700.153 1425.83 700.075C1426.21 699.998 1426.6 699.996 1426.98 700.07C1427.36 700.145 1427.73 700.293 1428.05 700.508C1428.38 700.723 1428.65 701 1428.87 701.323C1429.09 701.646 1429.24 702.009 1429.32 702.39C1429.4 702.772 1429.4 703.165 1429.32 703.548C1429.25 703.93 1429.1 704.294 1428.89 704.619C1428.67 704.944 1428.4 705.223 1428.07 705.441L1356.57 753.789C1357.39 763.849 1361.57 815.489 1364.16 850.382C1366.62 883.521 1343.33 903.561 1319.05 906.232C1317.22 906.434 1315.38 906.535 1313.54 906.535V906.538Z" fill="#0C296A"/>
<path d="M1670.91 711.421C1631.78 764.245 1561.73 749.632 1561.73 749.632C1561.73 749.632 1523.3 836.401 1512.11 856.393C1499.41 879.103 1473.69 902.274 1441.87 889.279C1403.7 873.694 1402.61 839.9 1410.7 821.774C1417.27 807.042 1460.48 679.96 1490.48 637.247C1514.35 603.241 1594.64 529.172 1594.64 529.172" fill="white"/>
<path d="M1460 895.957C1453.85 895.957 1447.41 894.747 1440.75 892.027C1424.41 885.353 1412.85 874.554 1407.34 860.797C1402.22 848.003 1402.46 832.963 1408 820.564C1409.4 817.432 1412.57 808.876 1416.97 797.034C1432.36 755.551 1464.4 669.231 1488.06 635.54C1511.84 601.663 1589.35 530.022 1592.64 526.989C1592.92 526.725 1593.26 526.52 1593.62 526.386C1593.99 526.252 1594.37 526.192 1594.76 526.208C1595.15 526.224 1595.53 526.316 1595.89 526.48C1596.24 526.644 1596.56 526.876 1596.82 527.162C1597.08 527.449 1597.29 527.785 1597.42 528.151C1597.55 528.516 1597.61 528.905 1597.6 529.294C1597.58 529.683 1597.49 530.065 1597.33 530.419C1597.16 530.772 1596.93 531.09 1596.65 531.354C1595.85 532.092 1516.32 605.596 1492.9 638.953C1469.68 672.017 1437.82 757.852 1422.52 799.102C1418.08 811.047 1414.88 819.679 1413.4 822.986C1409.63 831.449 1407.5 845.246 1412.84 858.588C1417.81 870.99 1427.95 880.393 1442.99 886.532C1472.32 898.51 1496.6 878.066 1509.53 854.943C1520.52 835.299 1558.64 749.296 1559.03 748.429C1559.3 747.809 1559.78 747.302 1560.38 746.993C1560.98 746.683 1561.67 746.59 1562.33 746.73C1563.02 746.869 1631.01 760.293 1668.53 709.653C1669 709.021 1669.7 708.602 1670.48 708.487C1671.25 708.372 1672.04 708.571 1672.67 709.04C1673.3 709.509 1673.72 710.21 1673.84 710.988C1673.95 711.767 1673.75 712.559 1673.29 713.19C1637.59 761.368 1576.29 754.9 1563.5 752.944C1557.43 766.632 1524.98 839.462 1514.7 857.844C1503.91 877.129 1484.24 895.959 1460 895.959L1460 895.957Z" fill="#0C296A"/>
<path d="M1752 334.271C1826.59 346.972 1952.25 509.406 1958.78 623.594C1926.48 632.261 1894.54 644.09 1862.96 658.962C1856.43 544.774 1740.13 392.298 1665.55 379.598C1692.88 363.353 1721.54 348.126 1752 334.271Z" fill="#E12121"/>
<path d="M1862.96 661.928C1862.21 661.927 1861.48 661.638 1860.93 661.118C1860.38 660.598 1860.05 659.888 1860.01 659.132C1857.05 607.347 1829.9 541.491 1787.38 482.97C1746.67 426.929 1699.8 388.44 1665.05 382.522C1664.45 382.421 1663.9 382.138 1663.47 381.712C1663.04 381.286 1662.75 380.737 1662.64 380.14C1662.53 379.543 1662.6 378.926 1662.85 378.373C1663.1 377.82 1663.52 377.358 1664.04 377.048C1693.09 359.78 1721.46 344.904 1750.78 331.571C1751.32 331.328 1751.92 331.251 1752.5 331.349C1788.81 337.532 1838.93 378.826 1883.3 439.117C1929.4 501.762 1958.72 570.662 1961.74 623.426C1961.78 624.107 1961.58 624.78 1961.18 625.333C1960.78 625.886 1960.21 626.284 1959.55 626.46C1927.77 634.988 1895.7 646.828 1864.22 661.649C1863.82 661.839 1863.39 661.931 1862.96 661.931L1862.96 661.928ZM1673.49 378.359C1708.71 388.206 1753.37 426.071 1792.17 479.477C1834.15 537.27 1861.39 602.28 1865.62 654.451C1895.37 640.692 1925.64 629.572 1955.67 621.363C1951.97 570.019 1923.27 503.438 1878.53 442.636C1835.4 384.031 1787.19 343.813 1752.39 337.354C1725.74 349.511 1699.85 362.964 1673.49 378.359Z" fill="#E12121"/>
</g>
<g clip-path="url(#clip6_1_415)">
<path d="M358.304 1827.04C397.324 1812.28 435.116 1748.04 415.94 1709.61C415.94 1709.61 466.545 1681.48 516.795 1652.86C556.38 1630.32 521.557 1578.1 487.965 1594.95C468.634 1604.64 324.407 1659.98 304.277 1671.5" fill="white"/>
<path d="M358.304 1830C357.608 1830 356.934 1829.76 356.398 1829.32C355.863 1828.87 355.501 1828.26 355.376 1827.57C355.25 1826.89 355.369 1826.19 355.711 1825.58C356.054 1824.98 356.598 1824.51 357.249 1824.27C378.543 1816.22 400.916 1791.5 411.658 1764.17C419.667 1743.79 420.242 1724.89 413.278 1710.93C412.938 1710.25 412.874 1709.46 413.1 1708.73C413.327 1708.01 413.825 1707.39 414.492 1707.02C414.997 1706.74 465.658 1678.58 515.32 1650.29C534.14 1639.57 533.77 1622.69 527.733 1611.48C520.914 1598.83 505.129 1589.66 489.302 1597.59C480.909 1601.8 450.378 1614.06 415.026 1628.26C369.117 1646.69 317.082 1667.59 305.757 1674.07C305.074 1674.45 304.271 1674.54 303.521 1674.33C302.771 1674.12 302.133 1673.63 301.745 1672.95C301.356 1672.28 301.249 1671.48 301.446 1670.73C301.643 1669.98 302.128 1669.33 302.796 1668.93C314.48 1662.25 366.715 1641.27 412.803 1622.77C446.566 1609.21 478.456 1596.4 486.629 1592.3C505.81 1582.68 524.822 1593.56 532.97 1608.68C540.847 1623.3 539.356 1643.43 518.269 1655.44C474.733 1680.23 430.433 1704.93 419.787 1710.86C426.243 1726.01 425.352 1745.57 417.192 1766.33C405.705 1795.56 382.463 1821.07 359.358 1829.81C359.021 1829.94 358.664 1830 358.304 1830Z" fill="#0C296A"/>
</g>
<g clip-path="url(#clip7_1_415)">
<path d="M1367.06 790.409L1370.71 789.832C1384.84 787.603 1398.13 797.253 1400.37 811.367L1411.09 879.14L1356.21 887.797L1345.49 820.023C1343.26 805.908 1352.92 792.637 1367.06 790.409Z" fill="#0C296A"/>
<path d="M1356.21 890.787C1355.5 890.787 1354.81 890.533 1354.27 890.07C1353.72 889.607 1353.37 888.967 1353.25 888.263L1342.53 820.491C1340.04 804.762 1350.84 789.941 1366.59 787.453L1370.24 786.878C1385.99 784.406 1400.84 795.168 1403.33 810.899L1414.05 878.672C1414.11 879.06 1414.1 879.456 1414 879.838C1413.91 880.22 1413.74 880.58 1413.51 880.898C1413.28 881.215 1412.99 881.484 1412.65 881.689C1412.32 881.895 1411.95 882.032 1411.56 882.093L1356.68 890.748C1356.53 890.773 1356.37 890.785 1356.21 890.784L1356.21 890.787ZM1374.77 792.503C1373.58 792.503 1372.38 792.597 1371.17 792.785L1367.52 793.361C1355.03 795.331 1346.47 807.084 1348.45 819.556L1358.7 884.377L1407.66 876.655L1397.41 811.835C1395.62 800.566 1385.85 792.503 1374.77 792.503Z" fill="#0C296A"/>
<path d="M1365.52 896.478L1404.92 890.262C1405.29 890.204 1405.67 890.296 1405.98 890.517C1406.28 890.739 1406.49 891.072 1406.55 891.444L1426.43 1017.12C1428.27 1028.76 1420.31 1039.69 1408.66 1041.53C1397.01 1043.37 1386.06 1035.42 1384.22 1023.78L1364.33 898.102C1364.27 897.73 1364.36 897.35 1364.59 897.045C1364.81 896.741 1365.14 896.537 1365.51 896.478H1365.52Z" fill="white"/>
<path d="M1405.31 1044.78C1393.54 1044.78 1383.15 1036.22 1381.26 1024.25L1361.37 898.568C1361.28 897.996 1361.3 897.411 1361.44 896.848C1361.58 896.285 1361.82 895.754 1362.17 895.286C1362.51 894.817 1362.94 894.42 1363.43 894.118C1363.92 893.815 1364.47 893.614 1365.05 893.525L1404.45 887.309H1404.46C1405.03 887.219 1405.61 887.243 1406.18 887.378C1406.74 887.514 1407.27 887.759 1407.74 888.099C1408.21 888.44 1408.61 888.869 1408.91 889.363C1409.21 889.857 1409.41 890.405 1409.5 890.977L1429.39 1016.66C1429.89 1019.81 1429.77 1023.04 1429.02 1026.15C1428.27 1029.25 1426.92 1032.18 1425.03 1034.76C1423.15 1037.35 1420.78 1039.54 1418.05 1041.21C1415.32 1042.88 1412.29 1043.99 1409.12 1044.48C1407.84 1044.68 1406.57 1044.78 1405.31 1044.78ZM1367.54 899.187L1387.17 1023.32C1388.76 1033.31 1398.19 1040.16 1408.19 1038.57C1410.58 1038.21 1412.86 1037.37 1414.92 1036.11C1416.98 1034.85 1418.77 1033.2 1420.18 1031.24C1421.61 1029.3 1422.63 1027.09 1423.2 1024.75C1423.76 1022.4 1423.85 1019.97 1423.47 1017.59L1403.83 893.462L1367.54 899.187H1367.54Z" fill="#0C296A"/>
<path d="M1329.52 883.145L1435.05 866.499L1440.92 903.596L1335.39 920.242L1329.52 883.145Z" fill="#0C296A"/>
<path d="M1335.39 923.233C1334.67 923.233 1333.98 922.979 1333.44 922.516C1332.9 922.054 1332.54 921.413 1332.43 920.709L1326.56 883.612C1326.5 883.224 1326.51 882.828 1326.61 882.446C1326.7 882.064 1326.86 881.704 1327.1 881.386C1327.33 881.068 1327.62 880.799 1327.95 880.594C1328.29 880.389 1328.66 880.252 1329.05 880.191L1434.58 863.545C1435.37 863.422 1436.17 863.615 1436.81 864.081C1437.45 864.547 1437.88 865.249 1438.01 866.031L1443.88 903.13C1443.94 903.518 1443.92 903.914 1443.83 904.296C1443.74 904.678 1443.57 905.038 1443.34 905.356C1443.11 905.674 1442.82 905.943 1442.48 906.148C1442.15 906.353 1441.77 906.49 1441.38 906.551L1335.85 923.197C1335.7 923.221 1335.54 923.233 1335.39 923.233ZM1332.94 885.632L1337.88 916.823L1437.49 901.11L1432.56 869.919L1332.94 885.632ZM1379.3 992.698L1384.22 1023.78C1386.06 1035.42 1397 1043.37 1408.66 1041.53C1420.31 1039.69 1428.27 1028.76 1426.43 1017.12L1422.56 992.698H1379.3Z" fill="#0C296A"/>
<path d="M1405.31 1044.78C1393.54 1044.78 1383.15 1036.22 1381.26 1024.25L1376.34 993.166C1376.27 992.739 1376.3 992.302 1376.42 991.887C1376.53 991.471 1376.74 991.085 1377.02 990.757C1377.3 990.428 1377.65 990.164 1378.05 989.983C1378.44 989.802 1378.87 989.709 1379.3 989.709H1422.57C1424.04 989.709 1425.29 990.78 1425.52 992.233L1429.39 1016.66C1429.9 1019.82 1429.77 1023.04 1429.03 1026.15C1428.28 1029.25 1426.92 1032.18 1425.03 1034.76C1423.15 1037.35 1420.78 1039.54 1418.05 1041.21C1415.32 1042.88 1412.29 1043.99 1409.13 1044.48C1407.85 1044.69 1406.57 1044.78 1405.31 1044.78L1405.31 1044.78ZM1382.8 995.688L1387.17 1023.32C1388.76 1033.31 1398.19 1040.15 1408.19 1038.57C1410.58 1038.21 1412.86 1037.37 1414.92 1036.11C1416.98 1034.85 1418.77 1033.2 1420.18 1031.24C1421.61 1029.3 1422.63 1027.09 1423.2 1024.75C1423.76 1022.4 1423.85 1019.97 1423.47 1017.59L1420.01 995.69H1382.81L1382.8 995.688Z" fill="#0C296A"/>
</g>
<g clip-path="url(#clip8_1_415)">
<path d="M1671.81 711.19C1632.52 764.107 1562.18 749.468 1562.18 749.468C1562.18 749.468 1523.58 836.388 1512.35 856.415C1499.59 879.165 1473.77 902.376 1441.81 889.358C1403.49 873.748 1402.39 839.893 1410.52 821.736C1417.12 806.979 1460.51 679.674 1490.63 636.887C1514.61 602.821 1595.23 528.624 1595.23 528.624" fill="white"/>
<path d="M1460.02 896.048C1453.85 896.048 1447.39 894.837 1440.69 892.111C1424.28 885.425 1412.68 874.609 1407.15 860.831C1402 848.015 1402.25 832.946 1407.8 820.524C1409.21 817.386 1412.4 808.812 1416.81 796.946C1432.27 755.392 1464.44 668.926 1488.2 635.179C1512.08 601.242 1589.91 529.476 1593.21 526.437C1593.79 525.903 1594.56 525.621 1595.35 525.654C1596.14 525.687 1596.88 526.031 1597.41 526.61C1597.95 527.19 1598.23 527.958 1598.2 528.746C1598.16 529.533 1597.82 530.275 1597.24 530.809C1596.44 531.549 1516.58 605.181 1493.06 638.596C1469.75 671.717 1437.76 757.696 1422.39 799.017C1417.93 810.987 1414.71 819.635 1413.23 822.948C1409.44 831.427 1407.3 845.25 1412.67 858.616C1417.66 871.039 1427.84 880.456 1442.94 886.605C1472.4 898.601 1496.77 878.128 1509.77 854.962C1520.8 835.284 1559.08 749.129 1559.46 748.262C1559.74 747.641 1560.22 747.133 1560.82 746.823C1561.43 746.513 1562.12 746.42 1562.79 746.559C1563.47 746.702 1631.76 760.149 1669.43 709.419C1669.9 708.787 1670.6 708.366 1671.38 708.251C1671.77 708.194 1672.16 708.214 1672.54 708.309C1672.92 708.404 1673.27 708.572 1673.59 708.805C1673.9 709.038 1674.16 709.33 1674.37 709.665C1674.57 710 1674.7 710.371 1674.76 710.757C1674.81 711.143 1674.79 711.536 1674.7 711.915C1674.6 712.293 1674.43 712.65 1674.2 712.963C1638.36 761.228 1576.81 754.75 1563.96 752.784C1557.86 766.496 1525.28 839.455 1514.95 857.869C1504.12 877.187 1484.36 896.047 1460.03 896.048H1460.02Z" fill="#0C296A"/>
</g>
<g clip-path="url(#clip9_1_415)">
<path d="M2350.58 2342.68C2312.28 2314.71 2289.63 2270.46 2263.63 2231.4C2063.22 1930.37 2472.08 1624.01 2699.39 1904.64C2782.96 2012.01 2867.39 2109.76 2924.84 2176.91C2974.3 2234.73 2589.29 2615.36 2516.07 2532.75C2474.28 2485.6 2415.25 2422.53 2350.58 2342.68Z" fill="white"/>
<path d="M2545.52 2547.46C2531.97 2547.46 2521.39 2543.21 2513.85 2534.71C2504.08 2523.68 2493.27 2511.69 2481.83 2498.98C2444.48 2457.52 2398.01 2405.93 2348.52 2344.85C2317.73 2322.24 2296.9 2289.23 2276.75 2257.31C2271.68 2249.27 2266.44 2240.97 2261.16 2233.05C2213.88 2162.02 2197.07 2085.61 2212.56 2012.05C2226.36 1946.51 2264.98 1887.56 2321.3 1846.07C2376.92 1805.1 2443.49 1785.94 2508.73 1792.14C2581.97 1799.09 2648.69 1837.35 2701.69 1902.78C2778.62 2001.62 2856.24 2092.26 2912.92 2158.44L2927.09 2174.99C2944.34 2195.15 2914.4 2244.08 2886.25 2281.57C2850.17 2329.62 2797.67 2384.92 2742.22 2433.29C2692.4 2476.75 2645.77 2509.81 2607.38 2528.92C2582.53 2541.28 2561.86 2547.46 2545.52 2547.46H2545.52ZM2484.97 1797.39C2425.74 1797.39 2369.22 1818.13 2324.81 1850.84C2224.31 1924.87 2163.07 2075.02 2266.09 2229.76C2271.4 2237.74 2276.67 2246.08 2281.75 2254.14C2301.68 2285.7 2322.28 2318.34 2352.32 2340.29C2352.53 2340.44 2352.72 2340.62 2352.88 2340.82C2402.36 2401.91 2448.86 2453.53 2486.23 2495.02C2497.68 2507.73 2508.49 2519.73 2518.28 2530.78C2536.51 2551.34 2575.36 2538.23 2604.75 2523.61C2642.69 2504.73 2688.88 2471.95 2738.33 2428.82C2857.65 2324.74 2945.48 2205.59 2922.59 2178.84L2908.43 2162.29C2851.71 2096.07 2774.04 2005.37 2697.06 1906.46C2633.83 1828.4 2557.38 1797.39 2484.97 1797.39V1797.39Z" fill="#0C296A"/>
<path d="M2699.39 1904.64C2678.91 1871.85 2517.42 1662.74 2483.35 1667.39C2449.28 1672.03 2357.19 1740.03 2359.64 1762.14C2362.1 1784.25 2408.68 1871.03 2430.66 1880.99" fill="white"/>
<path d="M2699.39 1907.61C2698.89 1907.61 2698.4 1907.48 2697.96 1907.24C2697.52 1906.99 2697.15 1906.64 2696.88 1906.21C2686.49 1889.58 2640.24 1828.32 2594.21 1773.89C2513.03 1677.9 2489.96 1669.49 2483.75 1670.32C2449.9 1674.94 2360.44 1742.48 2362.58 1761.81C2365 1783.56 2411.08 1868.86 2431.88 1878.29C2432.58 1878.62 2433.12 1879.22 2433.39 1879.95C2433.66 1880.68 2433.63 1881.48 2433.31 1882.19C2432.99 1882.89 2432.41 1883.45 2431.68 1883.73C2430.96 1884.01 2430.15 1883.99 2429.44 1883.69C2414.7 1877.01 2393.64 1842.24 2385.26 1827.59C2369.68 1800.34 2357.93 1773.56 2356.7 1762.46C2354.85 1745.83 2393.98 1714.92 2406.02 1705.85C2429.1 1688.44 2463.09 1667.16 2482.95 1664.45C2498.64 1662.29 2537.64 1697.84 2598.73 1770.06C2645.64 1825.53 2691.17 1885.89 2701.9 1903.08C2702.18 1903.52 2702.34 1904.04 2702.35 1904.57C2702.36 1905.1 2702.24 1905.62 2701.98 1906.08C2701.72 1906.54 2701.35 1906.93 2700.89 1907.2C2700.44 1907.47 2699.92 1907.61 2699.39 1907.61L2699.39 1907.61Z" fill="#0C296A"/>
<path d="M2507.9 1855.22C2487.42 1822.43 2402.71 1715.38 2368.64 1720.03C2334.57 1724.67 2243.95 1802.04 2246.4 1824.15C2248.86 1846.26 2302.18 1940.66 2324.16 1950.62C2346.14 1960.57 2384.64 1921.47 2384.64 1921.47" fill="white"/>
<path d="M2332.05 1955.18C2328.86 1955.18 2325.8 1954.61 2322.94 1953.32C2299.7 1942.79 2246.03 1847.56 2243.46 1824.48C2241.97 1811.08 2267.51 1784.08 2291.91 1763.29C2314.95 1743.64 2348.77 1719.75 2368.24 1717.09C2384.1 1714.9 2410.12 1733.26 2445.54 1771.57C2472.78 1801.04 2499.29 1835.85 2510.41 1853.65C2510.81 1854.32 2510.93 1855.12 2510.75 1855.87C2510.57 1856.63 2510.1 1857.28 2509.44 1857.69C2508.78 1858.1 2507.99 1858.24 2507.23 1858.07C2506.47 1857.91 2505.81 1857.45 2505.39 1856.79C2483.55 1821.83 2400.47 1718.63 2369.04 1722.96C2354.29 1724.97 2324.84 1742.99 2295.74 1767.8C2267.44 1791.93 2248.36 1814.97 2249.35 1823.82C2251.62 1844.26 2304.37 1938.4 2325.38 1947.92C2341.87 1955.4 2372.23 1929.86 2382.53 1919.39C2383.68 1918.22 2385.56 1918.21 2386.72 1919.36C2387.88 1920.51 2387.9 1922.39 2386.75 1923.55C2385.32 1925.01 2355.31 1955.17 2332.05 1955.18L2332.05 1955.18Z" fill="#0C296A"/>
<path d="M2411.46 1921.38C2390.98 1888.58 2322.96 1796.39 2288.89 1801.04C2254.82 1805.68 2164.2 1883.05 2166.65 1905.16C2169.11 1927.27 2227.99 2025.01 2249.97 2034.97" fill="white"/>
<path d="M2249.97 2037.93C2249.56 2037.93 2249.15 2037.85 2248.75 2037.67C2233.41 2030.72 2206.39 1988.86 2198.48 1976.19C2182.19 1950.12 2165.11 1918.14 2163.71 1905.49C2162.22 1892.09 2187.76 1865.09 2212.15 1844.29C2235.2 1824.64 2269.02 1800.76 2288.49 1798.1C2326.31 1792.88 2397.09 1892.78 2413.97 1919.8C2414.37 1920.47 2414.49 1921.27 2414.31 1922.02C2414.13 1922.78 2413.66 1923.43 2413 1923.84C2412.34 1924.26 2411.55 1924.39 2410.79 1924.22C2410.03 1924.06 2409.37 1923.6 2408.95 1922.95C2388.16 1889.65 2321.15 1799.65 2289.29 1803.97C2274.54 1805.98 2245.08 1824 2215.99 1848.8C2187.69 1872.94 2168.61 1895.98 2169.59 1904.83C2170.69 1914.67 2184.94 1943.36 2203.5 1973.05C2223.42 2004.93 2242.14 2028.17 2251.19 2032.27C2251.81 2032.55 2252.31 2033.03 2252.61 2033.64C2252.92 2034.24 2253.01 2034.93 2252.86 2035.6C2252.72 2036.26 2252.36 2036.85 2251.83 2037.28C2251.3 2037.7 2250.65 2037.93 2249.97 2037.93Z" fill="#0C296A"/>
<path d="M2312.28 2012.54C2282.16 1968.79 2223.3 1906.71 2203.35 1886.86C2178.18 1861.81 2094.39 1803.6 2072.24 1786.99C2009.26 1739.77 1925.44 1840.96 1991.36 1895.12C2006.48 1907.54 2099.38 1993.13 2099.38 1993.13L2255.27 2216.76" fill="white"/>
<path d="M2255.28 2219.72C2254.8 2219.73 2254.33 2219.61 2253.91 2219.39C2253.48 2219.17 2253.12 2218.85 2252.85 2218.46L2097.14 1995.09C2091.89 1990.26 2003.99 1909.33 1989.48 1897.41C1954.48 1868.65 1960.57 1827.45 1981.03 1801.34C2002.24 1774.28 2040.98 1759.85 2074.01 1784.62C2079.2 1788.51 2087.61 1794.57 2098.26 1802.24C2133.21 1827.41 2186.02 1865.44 2205.44 1884.76C2223.94 1903.17 2283.73 1965.85 2314.72 2010.86C2315.15 2011.51 2315.32 2012.3 2315.17 2013.07C2315.03 2013.84 2314.59 2014.51 2313.94 2014.96C2313.3 2015.4 2312.51 2015.57 2311.74 2015.43C2310.97 2015.3 2310.29 2014.86 2309.84 2014.22C2279.11 1969.58 2219.66 1907.27 2201.26 1888.96C2182.18 1869.98 2129.6 1832.11 2094.81 1807.05C2084.13 1799.36 2075.7 1793.28 2070.46 1789.36C2040.47 1766.88 2005.12 1780.21 1985.69 1804.99C1966.32 1829.71 1961.14 1866.46 1993.23 1892.83C2008.25 1905.17 2097.59 1987.45 2101.38 1990.95C2101.54 1991.1 2101.68 1991.26 2101.81 1991.43L2257.7 2215.07C2258.01 2215.51 2258.19 2216.03 2258.23 2216.57C2258.26 2217.11 2258.15 2217.65 2257.9 2218.13C2257.65 2218.61 2257.27 2219.02 2256.81 2219.3C2256.35 2219.58 2255.82 2219.73 2255.28 2219.73V2219.72Z" fill="#0C296A"/>
<path d="M2222.76 2144.67C2222.76 2144.67 2136.24 2032.09 2121.48 2018.17C2096.92 1995 2062.18 2000.46 2039.9 2020.46C2013.75 2043.94 2019.41 2083.83 2034.82 2111.07C2051.52 2140.56 2158.51 2283.25 2187.81 2313.01C2210.62 2336.17 2301.1 2350.48 2350.58 2342.68L2365.31 2360.77" fill="white"/>
<path d="M2365.32 2363.73C2364.46 2363.73 2363.61 2363.36 2363.02 2362.64L2349.35 2345.86C2299.97 2353.01 2209.36 2339.11 2185.7 2315.09C2155.99 2284.92 2049.13 2142.35 2032.25 2112.53C2015.59 2083.09 2010.89 2042.53 2037.92 2018.25C2060.32 1998.15 2096.91 1990.92 2123.51 2016.01C2138.27 2029.93 2221.57 2138.26 2225.11 2142.86C2225.57 2143.49 2225.76 2144.27 2225.66 2145.03C2225.55 2145.8 2225.14 2146.5 2224.53 2146.97C2223.92 2147.44 2223.14 2147.66 2222.37 2147.56C2221.6 2147.47 2220.9 2147.08 2220.42 2146.48C2219.55 2145.35 2133.87 2033.92 2119.45 2020.33C2095.44 1997.69 2062.25 2004.37 2041.87 2022.66C2017.42 2044.62 2022.41 2083.12 2037.4 2109.61C2054.17 2139.25 2160.39 2280.94 2189.92 2310.93C2212.17 2333.53 2302.98 2347.19 2350.12 2339.76C2350.63 2339.68 2351.15 2339.73 2351.63 2339.92C2352.12 2340.1 2352.54 2340.41 2352.87 2340.81L2367.61 2358.9C2367.96 2359.33 2368.18 2359.86 2368.25 2360.42C2368.32 2360.97 2368.23 2361.54 2367.99 2362.04C2367.75 2362.55 2367.37 2362.98 2366.89 2363.28C2366.42 2363.58 2365.87 2363.73 2365.31 2363.73H2365.32Z" fill="#0C296A"/>
</g>
<defs>
<clipPath id="clip0_1_415">
<rect width="2068.7" height="1387.83" fill="white" transform="translate(275.217 860.87)"/>
</clipPath>
<clipPath id="clip1_1_415">
<rect width="443.478" height="443.478" fill="white" transform="translate(1700.87 1496.09)"/>
</clipPath>
<clipPath id="clip2_1_415">
<rect width="665.217" height="446.087" fill="white" transform="translate(70.4348 1554.78)"/>
</clipPath>
<clipPath id="clip3_1_415">
<rect width="1132.17" height="624.783" fill="white" transform="translate(404.348 1408.7)"/>
</clipPath>
<clipPath id="clip4_1_415">
<rect width="443.478" height="443.478" fill="white" transform="translate(1780.43 1562.61)"/>
</clipPath>
<clipPath id="clip5_1_415">
<rect width="706.957" height="633.913" fill="white" transform="translate(1254.78 331.304)"/>
</clipPath>
<clipPath id="clip6_1_415">
<rect width="236.087" height="241.304" fill="white" transform="translate(301.304 1588.7)"/>
</clipPath>
<clipPath id="clip7_1_415">
<rect width="117.391" height="258.261" fill="white" transform="translate(1326.52 786.522)"/>
</clipPath>
<clipPath id="clip8_1_415">
<rect width="271.304" height="370.435" fill="white" transform="translate(1403.48 525.652)"/>
</clipPath>
<clipPath id="clip9_1_415">
<rect width="967.826" height="883.044" fill="white" transform="translate(1964.35 1664.35)"/>
</clipPath>
</defs>
</svg>
