<svg width="4139" height="2447" viewBox="0 0 4139 2447" fill="none" xmlns="http://www.w3.org/2000/svg">
<g clip-path="url(#clip0_302_222)">
<path d="M1115.29 532.833H3023.84C3066.4 532.833 3100.95 567.362 3100.95 609.892V1914.73H1038.18V609.892C1038.18 567.362 1072.73 532.833 1115.29 532.833Z" fill="white"/>
<path d="M3100.95 1917.69H1038.18C1037.4 1917.69 1036.64 1917.38 1036.09 1916.83C1035.53 1916.27 1035.22 1915.52 1035.22 1914.73V609.891C1035.22 565.768 1071.14 529.87 1115.29 529.87H3023.84C3067.99 529.87 3103.91 565.768 3103.91 609.891V1914.73C3103.91 1915.52 3103.6 1916.27 3103.04 1916.83C3102.49 1917.38 3101.73 1917.69 3100.95 1917.69ZM1041.15 1911.77H3097.98V609.891C3097.98 569.036 3064.72 535.797 3023.84 535.797H1115.29C1074.41 535.797 1041.15 569.036 1041.15 609.891V1911.77Z" fill="#0C296A"/>
<path d="M3100.95 617.66H1038.18C1037.4 617.66 1036.64 617.348 1036.09 616.792C1035.53 616.236 1035.22 615.482 1035.22 614.697C1035.22 613.911 1035.53 613.157 1036.09 612.601C1036.64 612.045 1037.4 611.733 1038.18 611.733H3100.95C3101.73 611.733 3102.49 612.045 3103.04 612.601C3103.6 613.157 3103.91 613.911 3103.91 614.697C3103.91 615.482 3103.6 616.236 3103.04 616.792C3102.49 617.348 3101.73 617.66 3100.95 617.66Z" fill="#0C296A"/>
<path d="M1146.38 590.542C1155.83 590.542 1163.49 582.888 1163.49 573.448C1163.49 564.007 1155.83 556.354 1146.38 556.354C1136.93 556.354 1129.28 564.007 1129.28 573.448C1129.28 582.888 1136.93 590.542 1146.38 590.542Z" fill="#0C296A"/>
<path d="M1146.38 593.505C1135.31 593.505 1126.31 584.508 1126.31 573.448C1126.31 562.388 1135.31 553.392 1146.38 553.392C1157.45 553.392 1166.45 562.389 1166.45 573.448C1166.45 584.506 1157.45 593.505 1146.38 593.505ZM1146.38 559.319C1138.58 559.319 1132.24 565.656 1132.24 573.448C1132.24 581.239 1138.58 587.578 1146.38 587.578C1154.18 587.578 1160.52 581.239 1160.52 573.448C1160.52 565.656 1154.18 559.319 1146.38 559.319Z" fill="#0C296A"/>
<path d="M1210.97 590.542C1220.42 590.542 1228.07 582.888 1228.07 573.448C1228.07 564.007 1220.42 556.354 1210.97 556.354C1201.52 556.354 1193.86 564.007 1193.86 573.448C1193.86 582.888 1201.52 590.542 1210.97 590.542Z" fill="#0C296A"/>
<path d="M1210.97 593.505C1199.9 593.505 1190.9 584.508 1190.9 573.448C1190.9 562.388 1199.9 553.392 1210.97 553.392C1222.04 553.392 1231.04 562.389 1231.04 573.448C1231.04 584.506 1222.03 593.505 1210.97 593.505ZM1210.97 559.319C1203.17 559.319 1196.83 565.656 1196.83 573.448C1196.83 581.239 1203.17 587.578 1210.97 587.578C1218.77 587.578 1225.11 581.239 1225.11 573.448C1225.11 565.656 1218.77 559.319 1210.97 559.319Z" fill="#0C296A"/>
<path d="M1275.56 590.542C1285.01 590.542 1292.66 582.888 1292.66 573.448C1292.66 564.007 1285.01 556.354 1275.56 556.354C1266.11 556.354 1258.45 564.007 1258.45 573.448C1258.45 582.888 1266.11 590.542 1275.56 590.542Z" fill="#0C296A"/>
<path d="M1275.56 593.505C1264.49 593.505 1255.49 584.508 1255.49 573.448C1255.49 562.388 1264.49 553.392 1275.56 553.392C1286.62 553.392 1295.63 562.389 1295.63 573.448C1295.63 584.506 1286.63 593.505 1275.56 593.505ZM1275.56 559.319C1267.76 559.319 1261.42 565.656 1261.42 573.448C1261.42 581.239 1267.76 587.578 1275.56 587.578C1283.35 587.578 1289.7 581.239 1289.7 573.448C1289.7 565.656 1283.35 559.319 1275.56 559.319ZM3100.95 972.057H1038.18C1037.4 972.057 1036.64 971.744 1036.09 971.189C1035.53 970.633 1035.22 969.879 1035.22 969.093C1035.22 968.307 1035.53 967.553 1036.09 966.998C1036.64 966.442 1037.4 966.129 1038.18 966.129H3100.95C3101.73 966.129 3102.49 966.442 3103.04 966.998C3103.6 967.553 3103.91 968.307 3103.91 969.093C3103.91 969.879 3103.6 970.633 3103.04 971.189C3102.49 971.744 3101.73 972.057 3100.95 972.057Z" fill="#0C296A"/>
<path d="M1275.56 898.866C1334.67 898.866 1382.6 850.974 1382.6 791.896C1382.6 732.817 1334.67 684.925 1275.56 684.925C1216.44 684.925 1168.52 732.817 1168.52 791.896C1168.52 850.974 1216.44 898.866 1275.56 898.866Z" fill="#E12121"/>
<path d="M1275.56 901.83C1214.9 901.83 1165.56 852.514 1165.56 791.897C1165.56 731.279 1214.9 681.964 1275.56 681.964C1336.21 681.964 1385.56 731.279 1385.56 791.897C1385.56 852.514 1336.22 901.83 1275.56 901.83ZM1275.56 687.89C1218.17 687.89 1171.49 734.547 1171.49 791.895C1171.49 849.244 1218.17 895.901 1275.56 895.901C1332.94 895.901 1379.63 849.244 1379.63 791.895C1379.63 734.547 1332.94 687.89 1275.56 687.89Z" fill="#E12121"/>
<path d="M1530.85 761.602H1818.83V822.189H1530.85V761.602Z" fill="#0C296A"/>
<path d="M1818.82 825.154H1530.85C1530.06 825.154 1529.31 824.842 1528.75 824.286C1528.2 823.731 1527.88 822.977 1527.88 822.191V761.602C1527.88 760.816 1528.2 760.062 1528.75 759.506C1529.31 758.95 1530.06 758.638 1530.85 758.638H1818.82C1819.61 758.638 1820.36 758.95 1820.92 759.506C1821.48 760.062 1821.79 760.816 1821.79 761.602V822.191C1821.79 822.977 1821.48 823.731 1820.92 824.286C1820.36 824.842 1819.61 825.154 1818.82 825.154ZM1533.81 819.227H1815.86V764.565H1533.81V819.227Z" fill="#0C296A"/>
<path d="M1917.62 761.602H2437.41V822.189H1917.62V761.602Z" fill="white"/>
<path d="M2437.41 825.154H1917.62C1916.83 825.154 1916.08 824.842 1915.52 824.286C1914.97 823.731 1914.66 822.977 1914.66 822.191V761.602C1914.66 760.816 1914.97 760.062 1915.52 759.506C1916.08 758.95 1916.83 758.638 1917.62 758.638H2437.41C2438.2 758.638 2438.95 758.95 2439.51 759.506C2440.06 760.062 2440.37 760.816 2440.37 761.602V822.191C2440.37 822.977 2440.06 823.731 2439.51 824.286C2438.95 824.842 2438.2 825.154 2437.41 825.154ZM1920.59 819.227H2434.44V764.565H1920.59V819.227Z" fill="#0C296A"/>
</g>
<g clip-path="url(#clip1_302_222)">
<path d="M2794.65 1608.57C2793.87 1608.57 2793.12 1608.25 2792.56 1607.7C2792 1607.14 2791.69 1606.39 2791.69 1605.6C2791.69 1604.82 2792 1604.06 2792.56 1603.51C2793.12 1602.95 2793.87 1602.64 2794.65 1602.64H2870.41C2872.05 1602.64 2873.44 1603.97 2873.44 1605.6C2873.44 1607.24 2872.18 1608.56 2870.54 1608.56V1605.6L2870.5 1608.56L2794.65 1608.57ZM2749.2 1608.57H2673.44C2672.66 1608.57 2671.9 1608.25 2671.35 1607.7C2670.79 1607.14 2670.48 1606.39 2670.48 1605.6C2670.48 1604.82 2670.79 1604.06 2671.35 1603.51C2671.9 1602.95 2672.66 1602.64 2673.44 1602.64H2749.2C2749.99 1602.64 2750.74 1602.95 2751.29 1603.51C2751.85 1604.06 2752.16 1604.82 2752.16 1605.6C2752.16 1606.39 2751.85 1607.14 2751.29 1607.7C2750.74 1608.25 2749.99 1608.57 2749.2 1608.57ZM2627.99 1608.57H2552.23C2551.44 1608.57 2550.69 1608.25 2550.13 1607.7C2549.58 1607.14 2549.26 1606.39 2549.26 1605.6C2549.26 1604.82 2549.58 1604.06 2550.13 1603.51C2550.69 1602.95 2551.44 1602.64 2552.23 1602.64H2627.99C2628.77 1602.64 2629.53 1602.95 2630.08 1603.51C2630.64 1604.06 2630.95 1604.82 2630.95 1605.6C2630.95 1606.39 2630.64 1607.14 2630.08 1607.7C2629.53 1608.25 2628.77 1608.57 2627.99 1608.57ZM2506.77 1608.57H2494.81C2476.09 1608.57 2460.87 1593.34 2460.87 1574.63V1559.51C2460.87 1558.72 2461.18 1557.97 2461.74 1557.42C2462.29 1556.86 2463.05 1556.55 2463.83 1556.55C2464.62 1556.55 2465.37 1556.86 2465.93 1557.42C2466.48 1557.97 2466.8 1558.72 2466.8 1559.51V1574.63C2466.8 1590.07 2479.36 1602.64 2494.81 1602.64H2506.77C2507.56 1602.64 2508.31 1602.95 2508.87 1603.51C2509.42 1604.06 2509.73 1604.82 2509.73 1605.6C2509.73 1606.39 2509.42 1607.14 2508.87 1607.7C2508.31 1608.25 2507.56 1608.57 2506.77 1608.57ZM2901.24 1580.67C2900.82 1580.67 2900.41 1580.59 2900.03 1580.42C2899.66 1580.25 2899.32 1580.01 2899.04 1579.7C2898.76 1579.39 2898.55 1579.03 2898.42 1578.64C2898.29 1578.25 2898.25 1577.83 2898.29 1577.42C2898.38 1576.5 2898.42 1575.56 2898.42 1574.63V1501.96C2898.42 1501.17 2898.74 1500.42 2899.29 1499.86C2899.85 1499.31 2900.6 1499 2901.39 1499C2902.17 1499 2902.93 1499.31 2903.48 1499.86C2904.04 1500.42 2904.35 1501.17 2904.35 1501.96V1574.63C2904.35 1575.76 2904.29 1576.89 2904.18 1578C2904.11 1578.73 2903.77 1579.41 2903.23 1579.9C2902.68 1580.4 2901.97 1580.67 2901.24 1580.67L2901.24 1580.67ZM2463.83 1517.02C2463.05 1517.02 2462.29 1516.7 2461.74 1516.15C2461.18 1515.59 2460.87 1514.84 2460.87 1514.05V1438.29C2460.87 1437.51 2461.18 1436.76 2461.74 1436.2C2462.29 1435.64 2463.05 1435.33 2463.83 1435.33C2464.62 1435.33 2465.37 1435.64 2465.93 1436.2C2466.48 1436.76 2466.8 1437.51 2466.8 1438.29V1514.05C2466.8 1514.84 2466.48 1515.59 2465.93 1516.15C2465.37 1516.7 2464.62 1517.02 2463.83 1517.02ZM2901.39 1459.47C2900.6 1459.47 2899.85 1459.15 2899.29 1458.6C2898.73 1458.04 2898.42 1457.29 2898.42 1456.5V1380.75C2898.42 1379.96 2898.73 1379.21 2899.29 1378.65C2899.85 1378.1 2900.6 1377.78 2901.39 1377.78C2902.17 1377.78 2902.92 1378.1 2903.48 1378.65C2904.04 1379.21 2904.35 1379.96 2904.35 1380.75V1456.5C2904.35 1457.29 2904.04 1458.04 2903.48 1458.6C2902.92 1459.15 2902.17 1459.47 2901.39 1459.47ZM2463.83 1395.8C2463.05 1395.8 2462.29 1395.49 2461.74 1394.94C2461.18 1394.38 2460.87 1393.63 2460.87 1392.84V1317.08C2460.87 1316.3 2461.18 1315.54 2461.74 1314.99C2462.29 1314.43 2463.05 1314.12 2463.83 1314.12C2464.62 1314.12 2465.37 1314.43 2465.93 1314.99C2466.48 1315.54 2466.8 1316.3 2466.8 1317.08V1392.84C2466.8 1393.63 2466.48 1394.38 2465.93 1394.94C2465.37 1395.49 2464.62 1395.8 2463.83 1395.8ZM2901.39 1338.25C2900.6 1338.25 2899.85 1337.94 2899.29 1337.39C2898.73 1336.83 2898.42 1336.08 2898.42 1335.29V1259.53C2898.42 1258.75 2898.73 1257.99 2899.29 1257.44C2899.85 1256.88 2900.6 1256.57 2901.39 1256.57C2902.17 1256.57 2902.92 1256.88 2903.48 1257.44C2904.04 1257.99 2904.35 1258.75 2904.35 1259.53V1335.29C2904.35 1336.08 2904.04 1336.83 2903.48 1337.39C2902.92 1337.94 2902.17 1338.25 2901.39 1338.25ZM2463.83 1274.59C2463.05 1274.59 2462.29 1274.28 2461.74 1273.72C2461.18 1273.17 2460.87 1272.41 2460.87 1271.63V1199.02C2460.87 1197.88 2460.93 1196.72 2461.04 1195.58C2461.21 1193.95 2462.67 1192.78 2464.29 1192.93C2465.07 1193.01 2465.79 1193.39 2466.28 1194C2466.78 1194.61 2467.02 1195.39 2466.94 1196.17C2466.84 1197.12 2466.8 1198.07 2466.8 1199.02V1271.63C2466.8 1272.41 2466.48 1273.17 2465.93 1273.72C2465.37 1274.28 2464.62 1274.59 2463.83 1274.59ZM2901.39 1217.04C2900.6 1217.04 2899.85 1216.73 2899.29 1216.17C2898.73 1215.62 2898.42 1214.86 2898.42 1214.08V1199.02C2898.42 1183.58 2885.86 1171.01 2870.41 1171.01H2858.38C2857.6 1171.01 2856.84 1170.7 2856.29 1170.14C2855.73 1169.59 2855.42 1168.84 2855.42 1168.05C2855.42 1167.26 2855.73 1166.51 2856.29 1165.95C2856.84 1165.4 2857.6 1165.09 2858.38 1165.09H2870.41C2889.13 1165.09 2904.35 1180.31 2904.35 1199.02V1214.08C2904.35 1214.86 2904.04 1215.62 2903.48 1216.17C2902.92 1216.73 2902.17 1217.04 2901.39 1217.04ZM2812.93 1171.01H2737.17C2736.38 1171.01 2735.63 1170.7 2735.07 1170.14C2734.52 1169.59 2734.21 1168.84 2734.21 1168.05C2734.21 1167.26 2734.52 1166.51 2735.07 1165.95C2735.63 1165.4 2736.38 1165.09 2737.17 1165.09H2812.93C2813.71 1165.09 2814.47 1165.4 2815.02 1165.95C2815.58 1166.51 2815.89 1167.26 2815.89 1168.05C2815.89 1168.84 2815.58 1169.59 2815.02 1170.14C2814.47 1170.7 2813.71 1171.01 2812.93 1171.01ZM2691.71 1171.01H2615.95C2615.17 1171.01 2614.41 1170.7 2613.86 1170.14C2613.3 1169.59 2612.99 1168.83 2612.99 1168.05C2612.99 1167.26 2613.3 1166.51 2613.86 1165.95C2614.42 1165.4 2615.17 1165.09 2615.96 1165.09H2691.71C2692.5 1165.09 2693.25 1165.4 2693.81 1165.95C2694.36 1166.51 2694.68 1167.26 2694.68 1168.05C2694.68 1168.84 2694.36 1169.59 2693.81 1170.14C2693.25 1170.7 2692.5 1171.01 2691.71 1171.01ZM2570.5 1171.01H2494.81C2493.17 1171.01 2491.81 1169.69 2491.81 1168.05C2491.81 1166.41 2493.11 1165.09 2494.74 1165.09H2570.5C2571.28 1165.09 2572.04 1165.4 2572.59 1165.95C2573.15 1166.51 2573.46 1167.26 2573.46 1168.05C2573.46 1168.84 2573.15 1169.59 2572.59 1170.14C2572.04 1170.7 2571.28 1171.01 2570.5 1171.01Z" fill="#0C296A"/>
</g>
<g clip-path="url(#clip2_302_222)">
<path d="M1019.05 1666.91C1077.54 1616.42 1147.39 1573.56 1220.38 1537.44C1386.98 1449.45 1270.9 1206.53 1097.52 1281.26C1011.44 1323.72 934.864 1369.92 867.881 1422.64C886.566 1533.83 933.881 1617.74 1019.05 1666.91Z" fill="white"/>
<path d="M1019.05 1669.87C1018.54 1669.87 1018.03 1669.74 1017.57 1669.47C975.622 1645.26 941.45 1611.64 916.001 1569.56C891.714 1529.41 874.544 1480.14 864.963 1423.13C864.875 1422.61 864.929 1422.07 865.121 1421.58C865.312 1421.08 865.634 1420.65 866.051 1420.32C930.575 1369.53 1005.86 1323.18 1096.21 1278.61L1096.35 1278.54C1187.43 1239.29 1260.11 1286.52 1289.1 1347.02C1318.1 1407.55 1309.4 1493.78 1221.77 1540.06C1142.07 1579.5 1074.54 1622.92 1020.99 1669.15C1020.45 1669.62 1019.76 1669.87 1019.05 1669.87L1019.05 1669.87ZM871.095 1423.88C890.651 1538.14 938.956 1616.5 1018.72 1663.29C1072.39 1617.25 1139.78 1574.03 1219.07 1534.79C1303.17 1490.37 1311.57 1407.64 1283.76 1349.58C1255.96 1291.56 1186.22 1246.29 1098.76 1283.95C1009.46 1328.01 934.97 1373.79 871.095 1423.88Z" fill="#0C296A"/>
<path d="M1205.21 1545.08C1205.21 1545.08 1308.63 1500.89 1326.05 1497.17C1339.82 1494.23 1426.54 1493.91 1449.18 1494.85C1498.73 1496.9 1505.45 1430.42 1460.56 1425.78C1435.11 1423.15 1343.51 1413.62 1322.78 1417.04C1295.51 1421.54 1233.01 1448.27 1233.01 1448.27" fill="white"/>
<path d="M1205.21 1548.04C1204.53 1548.04 1203.87 1547.8 1203.34 1547.37C1202.81 1546.94 1202.44 1546.34 1202.3 1545.67C1202.17 1545 1202.27 1544.31 1202.58 1543.7C1202.9 1543.1 1203.42 1542.62 1204.05 1542.35C1208.28 1540.54 1307.93 1498.02 1325.43 1494.28C1339.58 1491.26 1425.67 1490.91 1449.31 1491.89C1473.93 1492.86 1486.41 1476.28 1487.56 1460.39C1488.59 1446.14 1480.55 1430.82 1460.25 1428.72L1459.35 1428.63C1382.38 1420.68 1336.59 1417.76 1323.26 1419.96C1296.65 1424.35 1234.8 1450.72 1234.18 1450.99C1233.82 1451.14 1233.43 1451.22 1233.05 1451.23C1232.66 1451.23 1232.27 1451.16 1231.91 1451.02C1231.55 1450.87 1231.22 1450.66 1230.94 1450.38C1230.66 1450.11 1230.44 1449.79 1230.29 1449.43C1230.14 1449.07 1230.05 1448.69 1230.05 1448.3C1230.05 1447.91 1230.12 1447.53 1230.26 1447.17C1230.41 1446.81 1230.62 1446.48 1230.89 1446.2C1231.17 1445.92 1231.49 1445.7 1231.85 1445.55C1234.41 1444.45 1294.98 1418.62 1322.29 1414.12C1343.18 1410.68 1431.08 1419.76 1459.96 1422.74L1460.86 1422.84C1484.97 1425.33 1494.67 1444.27 1493.47 1460.81C1492.08 1480.05 1476.39 1498.99 1449.06 1497.81C1426.26 1496.86 1340.13 1497.19 1326.67 1500.07C1309.72 1503.69 1207.4 1547.35 1206.37 1547.8C1206 1547.95 1205.61 1548.03 1205.21 1548.04L1205.21 1548.04Z" fill="#0C296A"/>
<path d="M1227.18 1461.59C1227.18 1461.59 1317.55 1425.27 1331.6 1426.16C1345.66 1427.06 1428.58 1437.76 1450.92 1441.59C1499.8 1449.97 1507.89 1383.75 1463.96 1373.4C1439.05 1367.54 1339.51 1347.04 1318.5 1347.04C1297.49 1347.04 1230.26 1373.69 1230.26 1373.69" fill="white"/>
<path d="M1227.18 1464.55C1226.49 1464.55 1225.83 1464.31 1225.3 1463.87C1224.77 1463.43 1224.41 1462.82 1224.28 1462.15C1224.15 1461.48 1224.26 1460.78 1224.58 1460.17C1224.91 1459.57 1225.44 1459.1 1226.07 1458.84C1235.26 1455.15 1315.24 1423.19 1331.17 1423.19C1331.39 1423.19 1331.6 1423.19 1331.79 1423.21C1346.25 1424.13 1428.98 1434.82 1451.42 1438.67C1474.91 1442.71 1486.37 1428.72 1489.05 1415.53C1492.25 1399.8 1484.43 1381.26 1463.28 1376.28C1435.46 1369.73 1338.29 1350 1318.5 1350C1298.28 1350 1232.01 1376.18 1231.35 1376.44C1230.98 1376.58 1230.6 1376.65 1230.21 1376.65C1229.82 1376.64 1229.44 1376.56 1229.08 1376.4C1228.72 1376.25 1228.4 1376.03 1228.13 1375.75C1227.86 1375.47 1227.64 1375.14 1227.5 1374.78C1227.36 1374.42 1227.29 1374.03 1227.29 1373.64C1227.3 1373.25 1227.38 1372.87 1227.54 1372.51C1227.69 1372.16 1227.91 1371.83 1228.19 1371.56C1228.47 1371.29 1228.8 1371.08 1229.16 1370.93C1231.93 1369.84 1297.16 1344.08 1318.49 1344.08C1340.04 1344.08 1440.6 1364.86 1464.63 1370.52C1489.19 1376.3 1498.53 1398.64 1494.85 1416.71C1491.39 1433.75 1476.3 1448.94 1450.41 1444.5C1428.75 1440.79 1345.34 1430 1331.41 1429.12C1321.6 1428.55 1264.36 1449.84 1228.28 1464.33C1227.93 1464.48 1227.55 1464.55 1227.18 1464.55H1227.18Z" fill="#0C296A"/>
<path d="M1218.35 1391.31C1218.35 1391.31 1296.5 1356.51 1310.33 1359.12C1324.17 1361.74 1405.14 1382.56 1426.84 1389.1C1474.32 1403.43 1490.5 1338.71 1448.17 1323.04C1424.18 1314.15 1327.91 1281.57 1307.06 1278.99C1286.21 1276.41 1209.02 1308.53 1209.02 1308.53" fill="white"/>
<path d="M1218.35 1394.27C1217.67 1394.27 1217.01 1394.04 1216.49 1393.61C1215.96 1393.18 1215.59 1392.59 1215.45 1391.92C1215.31 1391.26 1215.4 1390.57 1215.71 1389.96C1216.02 1389.36 1216.52 1388.88 1217.14 1388.6C1225.23 1385 1296.56 1353.48 1310.88 1356.22C1325.1 1358.9 1405.89 1379.69 1427.7 1386.27C1450.51 1393.15 1463.6 1380.7 1467.89 1367.94C1473 1352.72 1467.52 1333.36 1447.15 1325.81C1420.35 1315.89 1326.34 1284.36 1306.7 1281.93C1286.85 1279.48 1210.93 1310.95 1210.16 1311.27C1209.44 1311.57 1208.62 1311.57 1207.89 1311.27C1207.17 1310.97 1206.59 1310.39 1206.29 1309.67C1205.99 1308.95 1205.99 1308.13 1206.28 1307.4C1206.58 1306.68 1207.16 1306.1 1207.88 1305.8C1211.07 1304.48 1286.05 1273.43 1307.43 1276.05C1328.82 1278.7 1426.05 1311.69 1449.2 1320.26C1472.86 1329.02 1479.38 1352.33 1473.5 1369.82C1467.97 1386.3 1451.13 1399.52 1425.98 1391.94C1404.93 1385.58 1323.48 1364.62 1309.78 1362.03C1300.35 1360.25 1249.44 1380.7 1219.55 1394.01C1219.18 1394.18 1218.77 1394.27 1218.35 1394.27V1394.27Z" fill="#0C296A"/>
<path d="M1203.91 1324.73C1203.91 1324.73 1282.49 1299.2 1296.36 1296.75C1310.77 1294.21 1395.51 1303.94 1418.05 1306.28C1467.38 1311.42 1471.08 1244.81 1426.56 1237.39C1401.32 1233.18 1299.05 1226.52 1277.58 1226.75C1256.57 1226.98 1097.52 1281.26 1097.52 1281.26" fill="white"/>
<path d="M1203.91 1327.69C1203.21 1327.69 1202.52 1327.44 1201.98 1326.98C1201.45 1326.52 1201.09 1325.89 1200.98 1325.19C1200.87 1324.49 1201.01 1323.78 1201.38 1323.18C1201.75 1322.58 1202.33 1322.13 1203 1321.91C1206.21 1320.87 1281.93 1296.29 1295.85 1293.84C1307.29 1291.83 1356.15 1296.64 1407.24 1302.15C1411.75 1302.64 1415.54 1303.04 1418.36 1303.34C1442.06 1305.81 1452.58 1291.11 1454.38 1277.77C1456.54 1261.86 1447.51 1243.88 1426.08 1240.31C1400.74 1236.08 1298.56 1229.44 1277.62 1229.71C1261.37 1229.88 1153.34 1265.34 1098.48 1284.06C1098.11 1284.2 1097.72 1284.25 1097.33 1284.23C1096.94 1284.21 1096.55 1284.11 1096.2 1283.94C1095.85 1283.77 1095.53 1283.53 1095.27 1283.24C1095.01 1282.94 1094.81 1282.6 1094.69 1282.23C1094.56 1281.86 1094.51 1281.47 1094.54 1281.08C1094.56 1280.69 1094.66 1280.31 1094.84 1279.96C1095.01 1279.61 1095.26 1279.29 1095.55 1279.04C1095.85 1278.78 1096.19 1278.59 1096.56 1278.46C1103.07 1276.24 1256.31 1224.02 1277.55 1223.79C1277.9 1223.79 1278.28 1223.78 1278.67 1223.78C1302.03 1223.78 1401.95 1230.28 1427.05 1234.47C1451.93 1238.62 1462.72 1260.28 1460.25 1278.57C1457.92 1295.79 1443.87 1311.97 1417.74 1309.23C1414.92 1308.93 1411.12 1308.52 1406.6 1308.04C1377.41 1304.89 1309.07 1297.53 1296.87 1299.67C1283.36 1302.05 1205.61 1327.29 1204.83 1327.54C1204.53 1327.64 1204.22 1327.69 1203.91 1327.69L1203.91 1327.69Z" fill="#0C296A"/>
<path d="M1116.75 1495.3C1155.63 1480.56 1193.28 1416.36 1174.18 1377.95C1174.18 1377.95 1224.6 1349.85 1274.66 1321.25C1314.1 1298.72 1279.41 1246.53 1245.94 1263.37C1226.68 1273.06 1082.98 1328.36 1062.93 1339.87" fill="white"/>
<path d="M1116.76 1498.27C1116.06 1498.27 1115.39 1498.02 1114.86 1497.58C1114.32 1497.14 1113.96 1496.52 1113.84 1495.84C1113.71 1495.16 1113.83 1494.45 1114.17 1493.85C1114.51 1493.25 1115.06 1492.78 1115.7 1492.54C1136.92 1484.49 1159.21 1459.79 1169.91 1432.48C1177.89 1412.12 1178.47 1393.22 1171.53 1379.27C1171.19 1378.59 1171.13 1377.81 1171.35 1377.08C1171.58 1376.35 1172.07 1375.74 1172.74 1375.37C1173.24 1375.09 1223.72 1346.94 1273.2 1318.68C1291.95 1307.96 1291.58 1291.09 1285.56 1279.89C1278.77 1267.24 1263.04 1258.09 1247.27 1266.01C1238.91 1270.22 1208.48 1282.48 1173.24 1296.67C1127.51 1315.09 1075.68 1335.96 1064.4 1342.44C1064.06 1342.64 1063.69 1342.77 1063.3 1342.83C1062.91 1342.88 1062.51 1342.86 1062.13 1342.76C1061.75 1342.66 1061.4 1342.49 1061.08 1342.25C1060.77 1342.01 1060.51 1341.71 1060.31 1341.37C1060.12 1341.03 1059.99 1340.66 1059.94 1340.27C1059.89 1339.88 1059.92 1339.48 1060.03 1339.1C1060.14 1338.72 1060.32 1338.37 1060.56 1338.06C1060.8 1337.75 1061.11 1337.5 1061.45 1337.31C1073.09 1330.62 1125.12 1309.67 1171.03 1291.18C1204.68 1277.63 1236.46 1264.83 1244.61 1260.73C1263.72 1251.11 1282.66 1261.98 1290.78 1277.1C1298.63 1291.7 1297.14 1311.82 1276.13 1323.82C1232.76 1348.6 1188.62 1373.28 1178.01 1379.21C1184.45 1394.34 1183.56 1413.89 1175.43 1434.64C1163.98 1463.85 1140.83 1489.34 1117.81 1498.07C1117.47 1498.2 1117.11 1498.27 1116.76 1498.27V1498.27Z" fill="#0C296A"/>
<path d="M1090.96 1612.09C1006.83 1574.11 916.113 1464.28 908.253 1392.46C881.991 1409.71 858.62 1427.75 833.396 1445.77C841.255 1517.6 934.917 1628.92 1019.05 1666.91C1041.27 1648.05 1062.93 1631.07 1090.96 1612.09H1090.96Z" fill="white"/>
<path d="M1019.05 1669.87C1018.63 1669.87 1018.21 1669.78 1017.83 1669.61C932.938 1631.28 838.372 1518.48 830.453 1446.1C830.395 1445.57 830.478 1445.05 830.693 1444.57C830.908 1444.09 831.246 1443.67 831.674 1443.37C839.767 1437.58 847.791 1431.71 855.551 1426.03C871.868 1414.09 888.741 1401.73 906.626 1389.99C907.049 1389.71 907.537 1389.54 908.043 1389.51C908.549 1389.47 909.055 1389.57 909.513 1389.78C909.972 1390 910.367 1390.33 910.662 1390.74C910.957 1391.15 911.141 1391.63 911.196 1392.14C914.892 1425.9 937.52 1469.98 973.283 1513.07C1009.25 1556.41 1052.58 1591.52 1092.18 1609.39C1092.66 1609.61 1093.07 1609.95 1093.37 1610.38C1093.68 1610.81 1093.86 1611.31 1093.91 1611.84C1093.95 1612.36 1093.86 1612.89 1093.63 1613.37C1093.4 1613.84 1093.05 1614.25 1092.62 1614.54C1067.36 1631.64 1045.93 1647.98 1020.96 1669.16C1020.43 1669.62 1019.75 1669.87 1019.05 1669.87L1019.05 1669.87ZM836.542 1447.16C845.511 1517.45 936.318 1625.39 1018.57 1663.44C1041.67 1643.89 1061.86 1628.43 1084.99 1612.58C1003.17 1573.2 917.043 1469.7 905.937 1397.54C889.625 1408.43 874.101 1419.79 859.051 1430.81C851.732 1436.16 844.179 1441.69 836.542 1447.16Z" fill="#0C296A"/>
</g>
<g clip-path="url(#clip3_302_222)">
<path d="M1167.31 1080.65H2293.56V1699.52H1167.31V1080.65Z" fill="white"/>
<path d="M2293.56 1702.48H1167.31C1166.53 1702.48 1165.77 1702.17 1165.22 1701.61C1164.66 1701.06 1164.35 1700.31 1164.35 1699.52V1080.65C1164.35 1079.87 1164.66 1079.12 1165.22 1078.56C1165.77 1078.01 1166.53 1077.7 1167.31 1077.7H2293.56C2294.35 1077.7 2295.1 1078.01 2295.66 1078.56C2296.21 1079.12 2296.52 1079.87 2296.52 1080.65V1699.52C2296.52 1700.31 2296.21 1701.06 2295.66 1701.61C2295.1 1702.17 2294.34 1702.48 2293.56 1702.48ZM1170.27 1696.57H2290.6V1083.61H1170.27V1696.57Z" fill="#0C296A"/>
<path d="M1266.89 1145.06H1529.36V1406.77H1266.89V1145.06Z" fill="white"/>
<path d="M1529.36 1409.73H1266.89C1266.11 1409.73 1265.35 1409.42 1264.8 1408.87C1264.24 1408.31 1263.93 1407.56 1263.93 1406.78V1145.06C1263.93 1144.27 1264.24 1143.52 1264.8 1142.97C1265.35 1142.41 1266.11 1142.1 1266.89 1142.1H1529.36C1530.15 1142.1 1530.9 1142.41 1531.46 1142.97C1532.01 1143.52 1532.33 1144.27 1532.33 1145.06V1406.78C1532.33 1407.56 1532.01 1408.31 1531.46 1408.87C1530.9 1409.42 1530.15 1409.73 1529.36 1409.73H1529.36ZM1269.85 1403.82H1526.4V1148.01H1269.86L1269.85 1403.82Z" fill="#0C296A"/>
<path d="M1398.13 1295.81C1420.66 1295.81 1438.92 1273.89 1438.92 1246.85C1438.92 1219.82 1420.66 1197.9 1398.13 1197.9C1375.59 1197.9 1357.33 1219.82 1357.33 1246.85C1357.33 1273.89 1375.59 1295.81 1398.13 1295.81Z" fill="#0C296A"/>
<path d="M1398.13 1298.76C1374 1298.76 1354.37 1275.48 1354.37 1246.85C1354.37 1218.23 1374 1194.94 1398.13 1194.94C1422.26 1194.94 1441.89 1218.23 1441.89 1246.85C1441.89 1275.48 1422.26 1298.76 1398.13 1298.76ZM1398.13 1200.85C1377.26 1200.85 1360.29 1221.49 1360.29 1246.85C1360.29 1272.22 1377.27 1292.85 1398.13 1292.85C1418.99 1292.85 1435.96 1272.22 1435.96 1246.85C1435.96 1221.49 1418.99 1200.85 1398.13 1200.85ZM1529.36 1406.78C1529.36 1363.13 1470.61 1327.75 1398.13 1327.75C1325.65 1327.75 1266.89 1363.13 1266.89 1406.78H1529.36Z" fill="#0C296A"/>
<path d="M1529.36 1409.73H1266.89C1266.11 1409.73 1265.35 1409.42 1264.8 1408.87C1264.24 1408.31 1263.93 1407.56 1263.93 1406.78C1263.93 1361.57 1324.13 1324.8 1398.13 1324.8C1472.12 1324.8 1532.32 1361.57 1532.32 1406.78C1532.32 1407.56 1532.01 1408.31 1531.46 1408.87C1530.9 1409.42 1530.15 1409.73 1529.36 1409.73ZM1269.95 1403.82H1526.3C1523.68 1363.24 1467.19 1330.71 1398.13 1330.71C1329.06 1330.71 1272.57 1363.24 1269.95 1403.82ZM2193.98 1473.55H1689.81C1689.02 1473.55 1688.27 1473.24 1687.71 1472.68C1687.16 1472.13 1686.85 1471.38 1686.85 1470.59C1686.85 1469.81 1687.16 1469.06 1687.71 1468.51C1688.27 1467.95 1689.02 1467.64 1689.81 1467.64H2193.98C2194.76 1467.64 2195.52 1467.95 2196.07 1468.51C2196.63 1469.06 2196.94 1469.81 2196.94 1470.59C2196.94 1471.38 2196.63 1472.13 2196.07 1472.68C2195.52 1473.24 2194.76 1473.55 2193.98 1473.55ZM1587.74 1473.55H1266.89C1266.11 1473.55 1265.35 1473.24 1264.8 1472.68C1264.24 1472.13 1263.93 1471.38 1263.93 1470.59C1263.93 1469.81 1264.24 1469.06 1264.8 1468.51C1265.35 1467.95 1266.11 1467.64 1266.89 1467.64H1587.74C1588.53 1467.64 1589.28 1467.95 1589.84 1468.51C1590.39 1469.06 1590.7 1469.81 1590.7 1470.59C1590.7 1471.38 1590.39 1472.13 1589.84 1472.68C1589.28 1473.24 1588.53 1473.55 1587.74 1473.55H1587.74ZM2193.98 1555.81H1903.47C1902.69 1555.81 1901.93 1555.5 1901.38 1554.95C1900.82 1554.39 1900.51 1553.64 1900.51 1552.86C1900.51 1552.07 1900.82 1551.32 1901.38 1550.77C1901.93 1550.21 1902.69 1549.9 1903.47 1549.9H2193.98C2194.76 1549.9 2195.52 1550.21 2196.07 1550.77C2196.63 1551.32 2196.94 1552.07 2196.94 1552.86C2196.94 1553.64 2196.63 1554.39 2196.07 1554.95C2195.52 1555.5 2194.76 1555.81 2193.98 1555.81ZM1816.49 1555.81H1266.89C1266.11 1555.81 1265.35 1555.5 1264.8 1554.95C1264.24 1554.39 1263.93 1553.64 1263.93 1552.86C1263.93 1552.07 1264.24 1551.32 1264.8 1550.77C1265.35 1550.21 1266.11 1549.9 1266.89 1549.9H1816.49C1817.28 1549.9 1818.03 1550.21 1818.59 1550.77C1819.14 1551.32 1819.45 1552.07 1819.45 1552.86C1819.45 1553.64 1819.14 1554.39 1818.59 1554.95C1818.03 1555.5 1817.28 1555.81 1816.49 1555.81ZM2193.98 1638.07H1587.73C1586.94 1638.07 1586.19 1637.76 1585.63 1637.2C1585.08 1636.65 1584.76 1635.9 1584.76 1635.12C1584.76 1634.33 1585.08 1633.58 1585.63 1633.03C1586.19 1632.47 1586.94 1632.16 1587.73 1632.16H2193.98C2194.76 1632.16 2195.52 1632.47 2196.07 1633.03C2196.63 1633.58 2196.94 1634.33 2196.94 1635.12C2196.94 1635.9 2196.63 1636.65 2196.07 1637.2C2195.52 1637.76 2194.76 1638.07 2193.98 1638.07ZM1495.66 1638.07H1266.89C1266.11 1638.07 1265.35 1637.76 1264.8 1637.2C1264.24 1636.65 1263.93 1635.9 1263.93 1635.12C1263.93 1634.33 1264.24 1633.58 1264.8 1633.03C1265.35 1632.47 1266.11 1632.16 1266.89 1632.16H1495.66C1496.44 1632.16 1497.2 1632.47 1497.75 1633.03C1498.31 1633.58 1498.62 1634.33 1498.62 1635.12C1498.62 1635.9 1498.31 1636.65 1497.75 1637.2C1497.2 1637.76 1496.44 1638.07 1495.66 1638.07H1495.66ZM2167.67 1309.03H1867.79C1867 1309.03 1866.25 1308.72 1865.69 1308.16C1865.14 1307.61 1864.82 1306.86 1864.82 1306.07C1864.82 1305.29 1865.14 1304.54 1865.69 1303.98C1866.25 1303.43 1867 1303.12 1867.79 1303.12H2167.67C2168.46 1303.12 2169.21 1303.43 2169.77 1303.98C2170.32 1304.54 2170.64 1305.29 2170.64 1306.07C2170.64 1306.86 2170.32 1307.61 2169.77 1308.16C2169.21 1308.72 2168.46 1309.03 2167.67 1309.03ZM1783.61 1309.03H1619.19C1618.4 1309.03 1617.65 1308.72 1617.1 1308.16C1616.54 1307.61 1616.23 1306.86 1616.23 1306.07C1616.23 1305.29 1616.54 1304.54 1617.1 1303.98C1617.65 1303.43 1618.4 1303.12 1619.19 1303.12H1783.61C1784.39 1303.12 1785.15 1303.43 1785.7 1303.98C1786.26 1304.54 1786.57 1305.29 1786.57 1306.07C1786.57 1306.86 1786.26 1307.61 1785.7 1308.16C1785.15 1308.72 1784.39 1309.03 1783.61 1309.03ZM2017.73 1391.29H1619.19C1618.4 1391.29 1617.65 1390.98 1617.1 1390.42C1616.54 1389.87 1616.23 1389.12 1616.23 1388.33C1616.23 1387.55 1616.54 1386.8 1617.1 1386.25C1617.65 1385.69 1618.4 1385.38 1619.19 1385.38H2017.73C2018.52 1385.38 2019.27 1385.69 2019.83 1386.25C2020.38 1386.8 2020.69 1387.55 2020.69 1388.33C2020.69 1389.12 2020.38 1389.87 2019.83 1390.42C2019.27 1390.98 2018.52 1391.29 2017.73 1391.29Z" fill="#0C296A"/>
<path d="M1660.86 1174.86H2052.34V1223.81H1660.86V1174.86Z" fill="white"/>
<path d="M2052.34 1226.77H1660.86C1660.07 1226.77 1659.32 1226.46 1658.76 1225.9C1658.21 1225.35 1657.89 1224.6 1657.89 1223.81V1174.86C1657.89 1174.07 1658.21 1173.32 1658.76 1172.77C1659.32 1172.21 1660.07 1171.9 1660.86 1171.9H2052.34C2053.12 1171.9 2053.88 1172.21 2054.43 1172.77C2054.99 1173.32 2055.3 1174.07 2055.3 1174.86V1223.81C2055.3 1224.6 2054.99 1225.35 2054.43 1225.9C2053.88 1226.46 2053.12 1226.77 2052.34 1226.77ZM1663.82 1220.86H2049.37V1177.81H1663.82V1220.86Z" fill="#0C296A"/>
</g>
<g clip-path="url(#clip4_302_222)">
<path d="M2949.98 1234.57H2574.37C2557.26 1234.57 2543.4 1248.44 2543.4 1265.54V1641.15C2543.4 1658.26 2557.26 1672.12 2574.37 1672.12H2949.98C2967.08 1672.12 2980.95 1658.26 2980.95 1641.15V1265.54C2980.95 1248.44 2967.08 1234.57 2949.98 1234.57Z" fill="#E12121"/>
<path d="M2949.98 1675.09H2574.37C2555.66 1675.09 2540.43 1659.86 2540.43 1641.15V1265.54C2540.43 1246.83 2555.66 1231.61 2574.37 1231.61H2949.98C2968.69 1231.61 2983.91 1246.83 2983.91 1265.54V1641.15C2983.91 1659.86 2968.69 1675.09 2949.98 1675.09ZM2574.37 1237.53C2558.93 1237.53 2546.36 1250.1 2546.36 1265.54V1641.15C2546.36 1656.6 2558.93 1669.16 2574.37 1669.16H2949.98C2965.42 1669.16 2977.99 1656.6 2977.99 1641.15V1265.54C2977.99 1250.1 2965.42 1237.53 2949.98 1237.53H2574.37Z" fill="#E12121"/>
<path d="M2862.86 1389.23C2886.8 1389.23 2906.21 1369.81 2906.21 1345.87C2906.21 1321.92 2886.8 1302.51 2862.86 1302.51C2838.91 1302.51 2819.5 1321.92 2819.5 1345.87C2819.5 1369.81 2838.91 1389.23 2862.86 1389.23Z" fill="#0C296A"/>
<path d="M2862.86 1392.19C2837.32 1392.19 2816.53 1371.41 2816.53 1345.87C2816.53 1320.32 2837.31 1299.55 2862.86 1299.55C2888.4 1299.55 2909.18 1320.32 2909.18 1345.87C2909.18 1371.41 2888.4 1392.19 2862.86 1392.19ZM2862.86 1305.47C2840.58 1305.47 2822.46 1323.59 2822.46 1345.87C2822.46 1368.14 2840.58 1386.26 2862.86 1386.26C2885.13 1386.26 2903.25 1368.14 2903.25 1345.87C2903.25 1323.59 2885.13 1305.47 2862.86 1305.47ZM2913.55 1463.21C2897.34 1450.3 2874.55 1449.62 2857.61 1461.56L2798.8 1502.99L2746.62 1444.82C2729.39 1425.62 2699.84 1424.04 2680.67 1441.31L2543.4 1564.97V1641.15C2543.4 1658.26 2557.26 1672.12 2574.37 1672.12H2949.98C2967.08 1672.12 2980.95 1658.26 2980.95 1641.15V1516.92L2913.55 1463.21Z" fill="#0C296A"/>
<path d="M2949.98 1675.09H2574.37C2555.66 1675.09 2540.43 1659.86 2540.43 1641.15V1564.97C2540.43 1564.13 2540.79 1563.33 2541.41 1562.77L2678.69 1439.11C2688.55 1430.23 2701.28 1425.72 2714.53 1426.43C2727.79 1427.13 2739.97 1432.96 2748.83 1442.84L2799.24 1499.05L2855.9 1459.14C2873.8 1446.52 2898.27 1447.25 2915.39 1460.89L2982.79 1514.61C2983.5 1515.17 2983.91 1516.02 2983.91 1516.92V1641.15C2983.91 1659.86 2968.69 1675.09 2949.98 1675.09L2949.98 1675.09ZM2546.36 1566.29V1641.15C2546.36 1656.6 2558.93 1669.16 2574.37 1669.16H2949.98C2965.42 1669.16 2977.99 1656.6 2977.99 1641.15V1518.35L2911.7 1465.53C2896.62 1453.51 2875.08 1452.88 2859.32 1463.98L2800.51 1505.41C2799.91 1505.83 2799.19 1506.02 2798.46 1505.94C2797.74 1505.85 2797.08 1505.51 2796.59 1504.97L2744.42 1446.8C2736.61 1438.1 2725.89 1432.97 2714.22 1432.35C2702.55 1431.74 2691.34 1435.69 2682.66 1443.51L2546.36 1566.29Z" fill="#0C296A"/>
</g>
<g clip-path="url(#clip5_302_222)">
<path d="M2475.37 21.0024C2374 73.0185 2279.72 146.136 2190.81 238.584C2045.67 404.035 2272.99 621.16 2430.99 467.524C2499.51 394.724 2582.08 340.761 2671.13 307.751C2655.54 179.277 2597.09 79.1898 2475.37 21.0024Z" fill="white"/>
<path d="M2311.74 522.838C2266.83 522.838 2225.13 503.424 2195.21 474.889C2138.67 420.958 2112.47 323.394 2188.59 236.628C2279.08 142.534 2375.08 69.1331 2474.02 18.3644C2474.42 18.1558 2474.87 18.044 2475.33 18.0379C2475.78 18.0317 2476.23 18.1313 2476.64 18.3288C2535.94 46.6757 2582.67 86.3982 2615.52 136.391C2646.28 183.202 2665.98 240.735 2674.07 307.397C2674.16 308.059 2674.01 308.73 2673.66 309.3C2673.32 309.869 2672.79 310.305 2672.16 310.536C2582.4 343.81 2499.75 398.8 2433.15 469.564C2394.14 507.492 2351.67 522.841 2311.74 522.841L2311.74 522.838ZM2475.41 24.3147C2377.51 74.7601 2282.49 147.534 2192.95 240.643C2119.5 324.368 2144.73 418.554 2199.3 470.591C2228.15 498.111 2268.38 516.827 2311.71 516.83C2350.27 516.834 2391.27 502.018 2428.93 465.397C2495.52 394.644 2578.15 339.457 2667.91 305.789C2650.93 170.691 2587.94 78.5865 2475.41 24.3147Z" fill="#0C296A"/>
<path d="M2295.26 477.694C2295.26 477.694 2227.52 541.565 2229.98 570.088C2230.92 581.055 2316.07 637.167 2336.95 630.741C2371.31 620.159 2415.97 552.269 2423.11 541.571C2433.95 525.346 2428.27 501.015 2410.55 489.132C2391.09 476.085 2368.59 484.041 2358.1 495.465C2347.61 506.89 2304.36 557.879 2304.36 557.879L2348.46 506.366" fill="white"/>
<path d="M2333.15 634.194C2315.24 634.194 2279.22 613.224 2259.24 599.723C2247.47 591.77 2227.63 577.38 2227.03 570.344C2224.48 540.729 2290.42 478.181 2293.23 475.534C2293.51 475.267 2293.84 475.058 2294.21 474.92C2294.57 474.782 2294.96 474.717 2295.34 474.729C2295.73 474.741 2296.11 474.829 2296.47 474.989C2296.82 475.149 2297.14 475.377 2297.41 475.661C2297.68 475.944 2297.88 476.277 2298.02 476.642C2298.16 477.006 2298.22 477.394 2298.21 477.783C2298.2 478.172 2298.11 478.555 2297.95 478.91C2297.79 479.265 2297.57 479.586 2297.28 479.853C2278.73 497.347 2231.01 547.615 2232.93 569.834C2233.69 573.547 2252.61 589.602 2280.53 606.209C2307.04 621.979 2328.32 630.293 2336.08 627.904C2357.11 621.427 2386.96 590.453 2420.14 540.689L2420.65 539.919C2430.59 525.037 2425.1 502.455 2408.9 491.596C2390.44 479.224 2369.36 487.583 2360.28 497.472C2358.19 499.743 2354.78 503.62 2350.65 508.361L2306.6 559.809C2306.09 560.389 2305.37 560.743 2304.6 560.796C2303.82 560.849 2303.06 560.597 2302.47 560.093C2301.88 559.589 2301.51 558.875 2301.44 558.102C2301.38 557.329 2301.61 556.56 2302.1 555.959C2302.45 555.553 2329.74 523.388 2346.11 504.555L2346.21 504.435L2346.29 504.349C2350.41 499.612 2353.82 495.737 2355.92 493.456C2368.18 480.096 2392.07 473.177 2412.19 486.666C2431.34 499.504 2437.47 525.402 2425.57 543.219L2425.06 543.984C2405.41 573.46 2367.95 624.295 2337.81 633.575C2336.45 633.995 2334.88 634.192 2333.15 634.192V634.194Z" fill="#0C296A"/>
<path d="M2231.09 437.155C2231.09 437.155 2169.89 500.499 2172.35 529.022C2173.29 539.989 2251.91 596.627 2272.78 590.201C2307.15 579.619 2351.8 511.729 2358.95 501.031C2369.78 484.806 2364.11 460.475 2346.39 448.593C2326.93 435.546 2304.42 443.501 2293.94 454.926C2283.45 466.35 2240.19 517.34 2240.19 517.34L2284.3 465.827" fill="white"/>
<path d="M2268.98 593.666C2252.43 593.669 2222.82 574.965 2209.98 566.286C2195.23 556.322 2170.09 537.317 2169.4 529.277C2166.86 499.748 2226.43 437.718 2228.97 435.092C2229.52 434.544 2230.26 434.235 2231.03 434.23C2231.81 434.224 2232.55 434.524 2233.11 435.064C2233.67 435.604 2233.99 436.342 2234.01 437.118C2234.03 437.894 2233.75 438.648 2233.22 439.216C2232.62 439.841 2172.99 501.911 2175.3 528.767C2175.97 532.898 2196.58 551.253 2223.67 568.104C2246.3 582.18 2264.79 589.562 2271.91 587.364C2292.95 580.887 2322.8 549.913 2355.98 500.149L2356.49 499.379C2366.43 484.497 2360.94 461.915 2344.74 451.056C2326.28 438.682 2305.19 447.043 2296.12 456.932C2294.03 459.203 2290.62 463.08 2286.49 467.821L2242.44 519.269C2241.93 519.849 2241.21 520.203 2240.44 520.256C2239.66 520.309 2238.9 520.057 2238.31 519.553C2237.72 519.049 2237.35 518.335 2237.28 517.562C2237.22 516.789 2237.45 516.02 2237.94 515.419C2238.29 515.013 2265.58 482.848 2281.95 464.015L2282.05 463.895L2282.13 463.809C2286.25 459.072 2289.66 455.197 2291.76 452.916C2304.02 439.556 2327.91 432.637 2348.03 446.126C2367.18 458.964 2373.31 484.862 2361.41 502.679L2360.9 503.444C2341.25 532.92 2303.79 583.755 2273.65 593.035C2272.26 593.464 2270.69 593.664 2268.98 593.664L2268.98 593.666Z" fill="#0C296A"/>
<path d="M2176.65 374.621C2176.65 374.621 2113.09 433.864 2115.54 462.386C2116.49 473.352 2199.54 541.625 2220.41 535.197C2254.78 524.615 2299.43 456.725 2306.57 446.027C2317.41 429.802 2311.73 405.471 2294.01 393.588C2274.55 380.541 2252.05 388.497 2241.56 399.921C2231.07 411.346 2187.82 462.335 2187.82 462.335L2231.92 410.822" fill="white"/>
<path d="M2217.29 538.578C2208.2 538.578 2193.5 531.75 2173.46 518.206C2149.18 501.799 2113.4 471.999 2112.59 462.641C2110.04 433.017 2172 374.908 2174.64 372.448C2175.22 371.945 2175.97 371.688 2176.73 371.73C2177.5 371.771 2178.22 372.109 2178.74 372.672C2179.27 373.235 2179.55 373.979 2179.54 374.748C2179.52 375.516 2179.21 376.249 2178.67 376.793C2161.28 392.999 2116.58 439.922 2118.49 462.13C2119.5 468.118 2154.56 499.825 2185.94 519.234C2208.81 533.377 2217.06 533.129 2219.54 532.362C2240.58 525.884 2270.43 494.91 2303.6 445.146L2304.11 444.377C2314.05 429.496 2308.56 406.914 2292.37 396.054C2273.91 383.684 2252.82 392.041 2243.74 401.93C2241.65 404.203 2238.24 408.078 2234.11 412.821L2190.07 464.268C2189.55 464.847 2188.83 465.201 2188.06 465.255C2187.29 465.308 2186.52 465.055 2185.94 464.552C2185.35 464.048 2184.98 463.333 2184.91 462.56C2184.84 461.787 2185.08 461.018 2185.57 460.417C2185.91 460.011 2213.2 427.847 2229.57 409.015L2229.68 408.894L2229.75 408.808C2233.88 404.071 2237.29 400.195 2239.38 397.914C2251.65 384.554 2275.54 377.634 2295.66 391.124C2314.81 403.964 2320.93 429.861 2309.03 447.677L2308.52 448.441C2288.88 477.918 2251.41 528.752 2221.28 538.034C2220.1 538.397 2218.77 538.578 2217.28 538.578H2217.29Z" fill="#0C296A"/>
<path d="M2210.16 218.861C2152.48 275.217 2038.27 347.627 2022.74 369.139C2008.77 388.487 2028.43 523.148 2029.55 530.906C2038.9 595.282 2125.7 580.009 2121.21 519.604C2118.31 480.557 2113.48 421.303 2113.48 421.303L2186.42 371.985" fill="white"/>
<path d="M2073.54 575.537C2052.58 575.537 2031.13 562.373 2026.62 531.333L2026.6 531.179C2021.71 497.498 2006.8 386.15 2020.34 367.399C2027.76 357.121 2055.23 336.866 2090.01 311.223C2128.82 282.613 2177.11 247.008 2208.09 216.736C2208.66 216.187 2209.41 215.884 2210.2 215.893C2210.98 215.903 2211.73 216.225 2212.28 216.788C2212.83 217.351 2213.13 218.109 2213.12 218.896C2213.11 219.682 2212.79 220.433 2212.23 220.982C2180.95 251.542 2132.47 287.282 2093.52 316C2060.52 340.333 2032.01 361.349 2025.13 370.874C2016.03 383.486 2022.25 460.045 2032.46 530.323L2032.48 530.477C2036.81 560.334 2058.67 571.514 2078.4 569.336C2099.86 566.975 2120.44 549.21 2118.26 519.822C2115.39 481.23 2110.57 422.135 2110.52 421.542C2110.48 421.017 2110.58 420.49 2110.81 420.015C2111.03 419.541 2111.38 419.135 2111.82 418.841L2184.76 369.523C2185.08 369.305 2185.45 369.153 2185.83 369.075C2186.21 368.997 2186.6 368.996 2186.98 369.07C2187.36 369.144 2187.73 369.293 2188.05 369.508C2188.38 369.723 2188.65 370 2188.87 370.323C2189.09 370.646 2189.24 371.009 2189.32 371.39C2189.4 371.772 2189.4 372.165 2189.32 372.548C2189.25 372.93 2189.1 373.294 2188.89 373.619C2188.67 373.944 2188.4 374.223 2188.07 374.441L2116.57 422.789C2117.39 432.849 2121.57 484.488 2124.16 519.382C2126.62 552.521 2103.33 572.561 2079.05 575.232C2077.22 575.434 2075.38 575.535 2073.54 575.534V575.537Z" fill="#0C296A"/>
<path d="M2430.91 380.421C2391.78 433.245 2321.73 418.632 2321.73 418.632C2321.73 418.632 2283.3 505.401 2272.11 525.393C2259.41 548.103 2233.69 571.273 2201.87 558.278C2163.7 542.694 2162.61 508.899 2170.7 490.774C2177.27 476.042 2220.48 348.959 2250.48 306.247C2274.35 272.24 2354.64 198.172 2354.64 198.172" fill="white"/>
<path d="M2220 564.957C2213.85 564.957 2207.41 563.747 2200.75 561.027C2184.41 554.353 2172.85 543.554 2167.34 529.797C2162.22 517.003 2162.46 501.963 2168 489.564C2169.4 486.432 2172.57 477.876 2176.97 466.034C2192.36 424.551 2224.4 338.231 2248.06 304.54C2271.84 270.663 2349.35 199.022 2352.64 195.989C2352.92 195.725 2353.26 195.52 2353.62 195.386C2353.99 195.252 2354.37 195.192 2354.76 195.208C2355.15 195.224 2355.53 195.316 2355.89 195.48C2356.24 195.644 2356.56 195.876 2356.82 196.162C2357.08 196.449 2357.29 196.785 2357.42 197.151C2357.55 197.516 2357.61 197.905 2357.6 198.294C2357.58 198.683 2357.49 199.065 2357.33 199.419C2357.16 199.772 2356.93 200.09 2356.65 200.354C2355.85 201.092 2276.32 274.596 2252.9 307.953C2229.68 341.017 2197.82 426.852 2182.52 468.102C2178.08 480.047 2174.88 488.679 2173.4 491.986C2169.63 500.449 2167.5 514.246 2172.84 527.588C2177.81 539.99 2187.95 549.393 2202.99 555.532C2232.32 567.51 2256.6 547.066 2269.53 523.943C2280.52 504.299 2318.64 418.296 2319.03 417.429C2319.3 416.809 2319.78 416.302 2320.38 415.993C2320.98 415.683 2321.67 415.59 2322.33 415.73C2323.02 415.869 2391.01 429.293 2428.53 378.653C2429 378.021 2429.7 377.602 2430.48 377.487C2431.25 377.372 2432.04 377.571 2432.67 378.04C2433.3 378.509 2433.72 379.21 2433.84 379.988C2433.95 380.767 2433.75 381.559 2433.29 382.19C2397.59 430.368 2336.29 423.9 2323.5 421.944C2317.43 435.632 2284.98 508.462 2274.7 526.844C2263.91 546.129 2244.24 564.959 2220 564.959L2220 564.957Z" fill="#0C296A"/>
<path d="M2512 3.27051C2586.59 15.972 2712.25 178.406 2718.78 292.594C2686.48 301.261 2654.54 313.09 2622.96 327.962C2616.43 213.774 2500.13 61.2977 2425.55 48.5977C2452.88 32.353 2481.54 17.1258 2512 3.27051Z" fill="#E12121"/>
<path d="M2622.96 330.928C2622.21 330.927 2621.48 330.638 2620.93 330.118C2620.38 329.598 2620.05 328.888 2620.01 328.132C2617.05 276.347 2589.9 210.491 2547.38 151.97C2506.67 95.9283 2459.8 57.4398 2425.05 51.5222C2424.45 51.4208 2423.9 51.138 2423.47 50.7119C2423.04 50.2858 2422.75 49.7371 2422.64 49.1399C2422.53 48.5428 2422.6 47.926 2422.85 47.373C2423.1 46.82 2423.52 46.3574 2424.04 46.048C2453.09 28.78 2481.47 13.9042 2510.78 0.570983C2511.32 0.327763 2511.92 0.250333 2512.5 0.348514C2548.81 6.53165 2598.93 47.8262 2643.3 108.117C2689.4 170.762 2718.72 239.662 2721.74 292.426C2721.78 293.107 2721.58 293.78 2721.18 294.333C2720.78 294.885 2720.21 295.284 2719.55 295.46C2687.77 303.988 2655.7 315.828 2624.22 330.649C2623.82 330.839 2623.39 330.93 2622.96 330.93L2622.96 330.928ZM2433.49 47.359C2468.71 57.2055 2513.37 95.0711 2552.17 148.477C2594.15 206.27 2621.39 271.279 2625.62 323.451C2655.37 309.692 2685.64 298.572 2715.67 290.363C2711.97 239.018 2683.27 172.438 2638.53 111.636C2595.4 53.0305 2547.19 12.8127 2512.39 6.35368C2485.74 18.5108 2459.85 31.9642 2433.49 47.359Z" fill="#E12121"/>
</g>
<g clip-path="url(#clip6_302_222)">
<path d="M1118.3 1496.04C1157.32 1481.28 1195.12 1417.04 1175.94 1378.61C1175.94 1378.61 1226.54 1350.48 1276.79 1321.86C1316.38 1299.32 1281.56 1247.1 1247.96 1263.95C1228.63 1273.64 1084.41 1328.98 1064.28 1340.5" fill="white"/>
<path d="M1118.3 1499C1117.61 1499 1116.93 1498.76 1116.4 1498.32C1115.86 1497.87 1115.5 1497.26 1115.38 1496.57C1115.25 1495.89 1115.37 1495.19 1115.71 1494.58C1116.05 1493.98 1116.6 1493.51 1117.25 1493.27C1138.54 1485.22 1160.92 1460.5 1171.66 1433.17C1179.67 1412.79 1180.24 1393.89 1173.28 1379.93C1172.94 1379.25 1172.87 1378.46 1173.1 1377.73C1173.33 1377.01 1173.82 1376.39 1174.49 1376.02C1175 1375.74 1225.66 1347.58 1275.32 1319.29C1294.14 1308.57 1293.77 1291.69 1287.73 1280.48C1280.91 1267.83 1265.13 1258.66 1249.3 1266.59C1240.91 1270.8 1210.38 1283.06 1175.03 1297.26C1129.12 1315.69 1077.08 1336.59 1065.76 1343.07C1065.07 1343.45 1064.27 1343.54 1063.52 1343.33C1062.77 1343.12 1062.13 1342.63 1061.74 1341.95C1061.36 1341.28 1061.25 1340.48 1061.45 1339.73C1061.64 1338.98 1062.13 1338.33 1062.8 1337.93C1074.48 1331.25 1126.72 1310.27 1172.8 1291.77C1206.57 1278.21 1238.46 1265.4 1246.63 1261.3C1265.81 1251.68 1284.82 1262.56 1292.97 1277.68C1300.85 1292.3 1299.36 1312.43 1278.27 1324.44C1234.73 1349.23 1190.43 1373.93 1179.79 1379.86C1186.24 1395.01 1185.35 1414.57 1177.19 1435.33C1165.71 1464.56 1142.46 1490.07 1119.36 1498.81C1119.02 1498.94 1118.66 1499 1118.3 1499Z" fill="#0C296A"/>
</g>
<g clip-path="url(#clip7_302_222)">
<path d="M2127.06 459.409L2130.71 458.832C2144.84 456.603 2158.13 466.253 2160.37 480.367L2171.09 548.139L2116.21 556.797L2105.49 489.023C2103.26 474.908 2112.92 461.637 2127.06 459.409Z" fill="#0C296A"/>
<path d="M2116.21 559.787C2115.5 559.787 2114.81 559.532 2114.27 559.07C2113.72 558.607 2113.37 557.966 2113.25 557.263L2102.53 489.49C2100.04 473.761 2110.84 458.941 2126.59 456.453L2130.24 455.877C2145.99 453.406 2160.84 464.168 2163.33 479.899L2174.05 547.671C2174.11 548.059 2174.09 548.456 2174 548.837C2173.91 549.219 2173.74 549.58 2173.51 549.897C2173.28 550.215 2172.99 550.484 2172.65 550.689C2172.32 550.894 2171.95 551.031 2171.56 551.092L2116.68 559.748C2116.53 559.772 2116.37 559.784 2116.21 559.784L2116.21 559.787ZM2134.77 461.502C2133.58 461.502 2132.38 461.596 2131.17 461.785L2127.52 462.36C2115.03 464.331 2106.47 476.083 2108.45 488.556L2118.7 553.377L2167.66 545.654L2157.41 480.835C2155.62 469.566 2145.85 461.502 2134.77 461.502Z" fill="#0C296A"/>
<path d="M2125.52 565.478L2164.92 559.262C2165.29 559.204 2165.67 559.296 2165.98 559.517C2166.28 559.739 2166.49 560.072 2166.55 560.443L2186.43 686.124C2188.27 697.757 2180.31 708.691 2168.66 710.529C2157.01 712.366 2146.06 704.415 2144.22 692.782L2124.33 567.101C2124.27 566.729 2124.36 566.35 2124.59 566.045C2124.81 565.741 2125.14 565.536 2125.51 565.478H2125.52Z" fill="white"/>
<path d="M2165.31 713.781C2153.54 713.781 2143.15 705.218 2141.26 693.25L2121.37 567.568C2121.28 566.996 2121.3 566.411 2121.44 565.848C2121.58 565.284 2121.82 564.753 2122.17 564.286C2122.51 563.817 2122.93 563.42 2123.43 563.117C2123.92 562.815 2124.47 562.614 2125.05 562.525L2164.45 556.309H2164.46C2165.03 556.219 2165.61 556.242 2166.18 556.378C2166.74 556.514 2167.27 556.759 2167.74 557.099C2168.21 557.44 2168.61 557.869 2168.91 558.363C2169.21 558.857 2169.41 559.405 2169.5 559.977L2189.39 685.658C2189.89 688.813 2189.77 692.038 2189.02 695.145C2188.27 698.252 2186.92 701.181 2185.03 703.76C2183.15 706.35 2180.78 708.543 2178.05 710.211C2175.32 711.88 2172.29 712.992 2169.12 713.482C2167.84 713.684 2166.57 713.781 2165.31 713.781ZM2127.54 568.187L2147.17 692.316C2148.76 702.308 2158.19 709.162 2168.19 707.574C2170.57 707.205 2172.86 706.367 2174.92 705.108C2176.98 703.85 2178.77 702.196 2180.18 700.243C2181.61 698.298 2182.63 696.09 2183.2 693.747C2183.76 691.404 2183.85 688.972 2183.47 686.592L2163.83 562.462L2127.54 568.187H2127.54Z" fill="#0C296A"/>
<path d="M2089.52 552.145L2195.05 535.499L2200.92 572.596L2095.39 589.242L2089.52 552.145Z" fill="#0C296A"/>
<path d="M2095.38 592.232C2094.67 592.233 2093.98 591.979 2093.44 591.516C2092.9 591.053 2092.54 590.412 2092.43 589.708L2086.56 552.611C2086.5 552.223 2086.51 551.827 2086.6 551.445C2086.7 551.063 2086.86 550.703 2087.09 550.385C2087.33 550.068 2087.62 549.799 2087.95 549.594C2088.29 549.389 2088.66 549.252 2089.05 549.19L2194.58 532.544C2195.37 532.422 2196.17 532.615 2196.81 533.081C2197.45 533.547 2197.88 534.248 2198.01 535.031L2203.88 572.13C2203.94 572.518 2203.92 572.914 2203.83 573.296C2203.74 573.678 2203.57 574.038 2203.34 574.355C2203.11 574.673 2202.82 574.942 2202.48 575.147C2202.14 575.352 2201.77 575.489 2201.38 575.55L2095.85 592.196C2095.7 592.221 2095.54 592.233 2095.38 592.232ZM2092.94 554.631L2097.88 585.822L2197.49 570.11L2192.56 538.918L2092.94 554.631ZM2139.3 661.697L2144.22 692.782C2146.06 704.421 2157 712.366 2168.66 710.527C2180.31 708.688 2188.27 697.763 2186.43 686.124L2182.56 661.697H2139.3Z" fill="#0C296A"/>
<path d="M2165.31 713.781C2153.54 713.781 2143.15 705.218 2141.26 693.25L2136.34 662.165C2136.27 661.738 2136.3 661.302 2136.42 660.886C2136.53 660.47 2136.74 660.085 2137.02 659.756C2137.3 659.427 2137.65 659.164 2138.05 658.983C2138.44 658.802 2138.87 658.708 2139.3 658.708H2182.56C2184.04 658.708 2185.29 659.779 2185.52 661.232L2189.39 685.659C2189.9 688.815 2189.77 692.039 2189.02 695.147C2188.28 698.254 2186.92 701.182 2185.03 703.762C2183.15 706.351 2180.78 708.544 2178.05 710.213C2175.32 711.882 2172.29 712.993 2169.13 713.483C2167.84 713.685 2166.57 713.782 2165.31 713.782L2165.31 713.781ZM2142.8 664.688L2147.17 692.316C2148.76 702.308 2158.19 709.147 2168.19 707.574C2170.57 707.205 2172.86 706.367 2174.92 705.108C2176.98 703.85 2178.77 702.196 2180.18 700.243C2181.61 698.298 2182.63 696.09 2183.2 693.747C2183.76 691.404 2183.85 688.972 2183.47 686.592L2180.01 664.689H2142.8L2142.8 664.688Z" fill="#0C296A"/>
</g>
<g clip-path="url(#clip8_302_222)">
<path d="M2431.81 380.19C2392.52 433.107 2322.18 418.468 2322.18 418.468C2322.18 418.468 2283.58 505.388 2272.35 525.416C2259.6 548.165 2233.77 571.376 2201.81 558.358C2163.49 542.748 2162.4 508.893 2170.52 490.736C2177.12 475.979 2220.51 348.674 2250.63 305.887C2274.61 271.821 2355.23 197.624 2355.23 197.624" fill="white"/>
<path d="M2220.02 565.049C2213.85 565.049 2207.39 563.838 2200.69 561.112C2184.28 554.426 2172.68 543.61 2167.15 529.832C2162 517.016 2162.25 501.946 2167.8 489.524C2169.21 486.386 2172.4 477.812 2176.81 465.946C2192.27 424.392 2224.44 337.927 2248.2 304.179C2272.08 270.242 2349.91 198.477 2353.21 195.437C2353.79 194.903 2354.56 194.622 2355.35 194.654C2356.14 194.687 2356.88 195.031 2357.41 195.611C2357.95 196.191 2358.23 196.959 2358.2 197.746C2358.16 198.534 2357.82 199.276 2357.24 199.809C2356.44 200.549 2276.58 274.181 2253.06 307.596C2229.75 340.717 2197.76 426.697 2182.39 468.017C2177.93 479.987 2174.71 488.636 2173.23 491.949C2169.44 500.428 2167.3 514.251 2172.67 527.616C2177.66 540.04 2187.84 549.456 2202.94 555.606C2232.4 567.601 2256.77 547.128 2269.77 523.963C2280.8 504.285 2319.08 418.13 2319.46 417.262C2319.74 416.641 2320.22 416.134 2320.82 415.824C2321.43 415.514 2322.12 415.421 2322.79 415.56C2323.47 415.702 2391.76 429.149 2429.43 378.42C2429.9 377.787 2430.6 377.367 2431.38 377.252C2431.77 377.195 2432.16 377.214 2432.54 377.309C2432.92 377.404 2433.27 377.573 2433.59 377.806C2433.9 378.038 2434.16 378.33 2434.37 378.665C2434.57 379 2434.7 379.371 2434.76 379.757C2434.81 380.143 2434.79 380.537 2434.7 380.915C2434.6 381.294 2434.43 381.65 2434.2 381.963C2398.36 430.228 2336.81 423.75 2323.96 421.785C2317.86 435.496 2285.28 508.455 2274.95 526.869C2264.12 546.188 2244.36 565.047 2220.03 565.049H2220.02Z" fill="#0C296A"/>
</g>
<g clip-path="url(#clip9_302_222)">
<path d="M3110.58 2011.69C3072.28 1983.71 3049.63 1939.46 3023.63 1900.4C2823.22 1599.38 3232.08 1293.01 3459.39 1573.64C3542.96 1681.01 3627.39 1778.76 3684.84 1845.91C3734.3 1903.73 3349.29 2284.36 3276.07 2201.75C3234.28 2154.6 3175.25 2091.53 3110.58 2011.69Z" fill="white"/>
<path d="M3305.52 2216.46C3291.97 2216.46 3281.39 2212.21 3273.85 2203.71C3264.08 2192.68 3253.27 2180.69 3241.83 2167.98C3204.48 2126.52 3158.01 2074.93 3108.52 2013.85C3077.73 1991.24 3056.9 1958.23 3036.75 1926.31C3031.68 1918.27 3026.44 1909.97 3021.16 1902.05C2973.88 1831.02 2957.07 1754.61 2972.56 1681.05C2986.36 1615.51 3024.98 1556.56 3081.3 1515.07C3136.92 1474.1 3203.49 1454.94 3268.73 1461.14C3341.97 1468.09 3408.69 1506.35 3461.69 1571.78C3538.62 1670.62 3616.24 1761.26 3672.92 1827.44L3687.09 1843.99C3704.34 1864.15 3674.4 1913.08 3646.25 1950.57C3610.17 1998.62 3557.67 2053.92 3502.22 2102.29C3452.4 2145.75 3405.77 2178.81 3367.38 2197.92C3342.53 2210.28 3321.86 2216.46 3305.52 2216.46H3305.52ZM3244.97 1466.39C3185.74 1466.39 3129.22 1487.13 3084.81 1519.84C2984.31 1593.87 2923.07 1744.02 3026.09 1898.76C3031.4 1906.74 3036.67 1915.08 3041.75 1923.14C3061.68 1954.7 3082.28 1987.34 3112.32 2009.29C3112.53 2009.44 3112.72 2009.62 3112.88 2009.82C3162.36 2070.91 3208.86 2122.53 3246.23 2164.02C3257.68 2176.73 3268.49 2188.73 3278.28 2199.78C3296.51 2220.34 3335.36 2207.23 3364.75 2192.61C3402.69 2173.73 3448.88 2140.95 3498.33 2097.82C3617.65 1993.74 3705.48 1874.59 3682.59 1847.84L3668.43 1831.29C3611.71 1765.07 3534.04 1674.37 3457.06 1575.46C3393.83 1497.4 3317.38 1466.39 3244.97 1466.39V1466.39Z" fill="#0C296A"/>
<path d="M3459.39 1573.64C3438.91 1540.85 3277.42 1331.74 3243.35 1336.39C3209.28 1341.03 3117.19 1409.03 3119.64 1431.14C3122.1 1453.25 3168.68 1540.03 3190.66 1549.99" fill="white"/>
<path d="M3459.39 1576.61C3458.89 1576.61 3458.4 1576.48 3457.96 1576.24C3457.52 1575.99 3457.15 1575.64 3456.88 1575.21C3446.49 1558.58 3400.24 1497.32 3354.21 1442.89C3273.03 1346.9 3249.96 1338.49 3243.75 1339.32C3209.9 1343.94 3120.44 1411.48 3122.58 1430.81C3125 1452.56 3171.08 1537.86 3191.88 1547.29C3192.58 1547.62 3193.12 1548.22 3193.39 1548.95C3193.66 1549.68 3193.63 1550.48 3193.31 1551.19C3192.99 1551.9 3192.41 1552.45 3191.68 1552.73C3190.96 1553.01 3190.15 1553 3189.44 1552.69C3174.7 1546.01 3153.64 1511.24 3145.26 1496.59C3129.68 1469.34 3117.93 1442.56 3116.7 1431.46C3114.85 1414.83 3153.98 1383.92 3166.02 1374.85C3189.1 1357.44 3223.09 1336.16 3242.95 1333.45C3258.64 1331.29 3297.64 1366.84 3358.73 1439.06C3405.64 1494.53 3451.17 1554.89 3461.9 1572.08C3462.18 1572.52 3462.34 1573.04 3462.35 1573.57C3462.36 1574.1 3462.24 1574.62 3461.98 1575.08C3461.72 1575.54 3461.35 1575.93 3460.89 1576.2C3460.44 1576.47 3459.92 1576.61 3459.39 1576.61L3459.39 1576.61Z" fill="#0C296A"/>
<path d="M3267.9 1524.22C3247.42 1491.43 3162.71 1384.38 3128.64 1389.03C3094.57 1393.67 3003.95 1471.04 3006.4 1493.15C3008.86 1515.26 3062.18 1609.66 3084.16 1619.62C3106.14 1629.57 3144.64 1590.47 3144.64 1590.47" fill="white"/>
<path d="M3092.05 1624.18C3088.86 1624.18 3085.8 1623.61 3082.94 1622.32C3059.7 1611.79 3006.03 1516.56 3003.46 1493.48C3001.97 1480.08 3027.51 1453.08 3051.91 1432.29C3074.95 1412.64 3108.77 1388.75 3128.24 1386.09C3144.1 1383.9 3170.12 1402.26 3205.54 1440.57C3232.78 1470.04 3259.29 1504.85 3270.41 1522.65C3270.81 1523.32 3270.93 1524.12 3270.75 1524.87C3270.57 1525.63 3270.1 1526.28 3269.44 1526.69C3268.78 1527.1 3267.99 1527.24 3267.23 1527.07C3266.47 1526.91 3265.81 1526.45 3265.39 1525.79C3243.55 1490.83 3160.47 1387.63 3129.04 1391.96C3114.29 1393.97 3084.84 1411.99 3055.74 1436.8C3027.44 1460.93 3008.36 1483.97 3009.35 1492.82C3011.62 1513.26 3064.37 1607.4 3085.38 1616.92C3101.87 1624.4 3132.23 1598.86 3142.53 1588.39C3143.68 1587.22 3145.56 1587.21 3146.72 1588.36C3147.88 1589.51 3147.9 1591.39 3146.75 1592.55C3145.32 1594.01 3115.31 1624.17 3092.05 1624.18L3092.05 1624.18Z" fill="#0C296A"/>
<path d="M3171.46 1590.38C3150.98 1557.58 3082.96 1465.39 3048.89 1470.04C3014.82 1474.68 2924.2 1552.05 2926.65 1574.16C2929.11 1596.27 2987.99 1694.01 3009.97 1703.97" fill="white"/>
<path d="M3009.97 1706.93C3009.56 1706.93 3009.15 1706.85 3008.75 1706.67C2993.41 1699.72 2966.39 1657.86 2958.48 1645.19C2942.19 1619.12 2925.11 1587.14 2923.71 1574.49C2922.22 1561.09 2947.76 1534.09 2972.15 1513.29C2995.2 1493.64 3029.02 1469.76 3048.49 1467.1C3086.31 1461.88 3157.09 1561.78 3173.97 1588.8C3174.37 1589.47 3174.49 1590.27 3174.31 1591.02C3174.13 1591.78 3173.66 1592.43 3173 1592.84C3172.34 1593.26 3171.55 1593.39 3170.79 1593.22C3170.03 1593.06 3169.37 1592.6 3168.95 1591.95C3148.16 1558.65 3081.15 1468.65 3049.29 1472.97C3034.54 1474.98 3005.08 1493 2975.99 1517.8C2947.69 1541.94 2928.61 1564.98 2929.59 1573.83C2930.69 1583.67 2944.94 1612.36 2963.5 1642.05C2983.42 1673.93 3002.14 1697.17 3011.19 1701.27C3011.81 1701.55 3012.31 1702.03 3012.61 1702.64C3012.92 1703.24 3013.01 1703.93 3012.86 1704.6C3012.72 1705.26 3012.36 1705.85 3011.83 1706.28C3011.3 1706.7 3010.65 1706.93 3009.97 1706.93Z" fill="#0C296A"/>
<path d="M3072.28 1681.54C3042.16 1637.79 2983.3 1575.71 2963.35 1555.86C2938.18 1530.81 2854.39 1472.6 2832.24 1455.99C2769.26 1408.77 2685.44 1509.96 2751.36 1564.12C2766.48 1576.54 2859.38 1662.13 2859.38 1662.13L3015.27 1885.76" fill="white"/>
<path d="M3015.28 1888.72C3014.8 1888.73 3014.33 1888.61 3013.91 1888.39C3013.48 1888.17 3013.12 1887.85 3012.85 1887.46L2857.14 1664.09C2851.89 1659.26 2763.99 1578.33 2749.48 1566.41C2714.48 1537.65 2720.57 1496.45 2741.03 1470.34C2762.24 1443.28 2800.98 1428.85 2834.01 1453.62C2839.2 1457.51 2847.61 1463.57 2858.26 1471.24C2893.21 1496.41 2946.02 1534.44 2965.44 1553.76C2983.94 1572.17 3043.73 1634.85 3074.72 1679.86C3075.15 1680.51 3075.32 1681.3 3075.17 1682.07C3075.03 1682.84 3074.59 1683.52 3073.94 1683.96C3073.3 1684.4 3072.51 1684.57 3071.74 1684.43C3070.97 1684.3 3070.29 1683.86 3069.84 1683.22C3039.11 1638.58 2979.66 1576.27 2961.26 1557.96C2942.18 1538.98 2889.6 1501.11 2854.81 1476.05C2844.13 1468.36 2835.7 1462.28 2830.46 1458.36C2800.47 1435.88 2765.12 1449.21 2745.69 1473.99C2726.32 1498.71 2721.14 1535.46 2753.23 1561.83C2768.25 1574.17 2857.59 1656.45 2861.38 1659.95C2861.54 1660.1 2861.68 1660.26 2861.81 1660.43L3017.7 1884.07C3018.01 1884.51 3018.19 1885.03 3018.23 1885.57C3018.26 1886.11 3018.15 1886.65 3017.9 1887.13C3017.65 1887.61 3017.27 1888.02 3016.81 1888.3C3016.35 1888.58 3015.82 1888.73 3015.28 1888.73V1888.72Z" fill="#0C296A"/>
<path d="M2982.76 1813.67C2982.76 1813.67 2896.24 1701.09 2881.48 1687.17C2856.92 1664 2822.18 1669.46 2799.9 1689.46C2773.75 1712.94 2779.41 1752.83 2794.82 1780.07C2811.52 1809.56 2918.51 1952.25 2947.81 1982.01C2970.62 2005.17 3061.1 2019.48 3110.58 2011.68L3125.31 2029.77" fill="white"/>
<path d="M3125.32 2032.73C3124.46 2032.73 3123.61 2032.36 3123.02 2031.64L3109.35 2014.86C3059.97 2022.01 2969.36 2008.11 2945.7 1984.09C2915.99 1953.92 2809.13 1811.35 2792.25 1781.53C2775.59 1752.09 2770.89 1711.53 2797.92 1687.25C2820.32 1667.15 2856.91 1659.92 2883.51 1685.01C2898.27 1698.93 2981.57 1807.26 2985.11 1811.86C2985.57 1812.49 2985.76 1813.27 2985.66 1814.03C2985.55 1814.8 2985.14 1815.5 2984.53 1815.97C2983.92 1816.44 2983.14 1816.66 2982.37 1816.56C2981.6 1816.47 2980.9 1816.08 2980.42 1815.48C2979.55 1814.35 2893.87 1702.92 2879.45 1689.33C2855.44 1666.69 2822.25 1673.37 2801.87 1691.66C2777.42 1713.62 2782.41 1752.12 2797.4 1778.61C2814.17 1808.25 2920.39 1949.94 2949.92 1979.93C2972.17 2002.53 3062.98 2016.19 3110.12 2008.76C3110.63 2008.68 3111.15 2008.73 3111.63 2008.92C3112.12 2009.1 3112.54 2009.41 3112.87 2009.81L3127.61 2027.9C3127.96 2028.33 3128.18 2028.86 3128.25 2029.42C3128.32 2029.97 3128.23 2030.54 3127.99 2031.04C3127.75 2031.55 3127.37 2031.98 3126.9 2032.28C3126.42 2032.58 3125.87 2032.73 3125.31 2032.73H3125.32Z" fill="#0C296A"/>
</g>
<defs>
<clipPath id="clip0_302_222">
<rect width="2068.7" height="1387.83" fill="white" transform="translate(1035.22 529.87)"/>
</clipPath>
<clipPath id="clip1_302_222">
<rect width="443.478" height="443.478" fill="white" transform="translate(2460.87 1165.09)"/>
</clipPath>
<clipPath id="clip2_302_222">
<rect width="665.217" height="446.087" fill="white" transform="translate(830.435 1223.78)"/>
</clipPath>
<clipPath id="clip3_302_222">
<rect width="1132.17" height="624.783" fill="white" transform="translate(1164.35 1077.7)"/>
</clipPath>
<clipPath id="clip4_302_222">
<rect width="443.478" height="443.478" fill="white" transform="translate(2540.43 1231.61)"/>
</clipPath>
<clipPath id="clip5_302_222">
<rect width="706.957" height="633.913" fill="white" transform="translate(2014.78 0.304199)"/>
</clipPath>
<clipPath id="clip6_302_222">
<rect width="236.087" height="241.304" fill="white" transform="translate(1061.3 1257.7)"/>
</clipPath>
<clipPath id="clip7_302_222">
<rect width="117.391" height="258.261" fill="white" transform="translate(2086.52 455.521)"/>
</clipPath>
<clipPath id="clip8_302_222">
<rect width="271.304" height="370.435" fill="white" transform="translate(2163.48 194.652)"/>
</clipPath>
<clipPath id="clip9_302_222">
<rect width="967.826" height="883.044" fill="white" transform="translate(2724.35 1333.35)"/>
</clipPath>
</defs>
</svg>
