<svg width="89" height="51" viewBox="0 0 89 51" fill="none" xmlns="http://www.w3.org/2000/svg">
<path d="M87.7987 50.8722H84.7987V48.4713H86.5996V46.6713H88.9996V49.6713C88.9987 50.3348 88.4613 50.8722 87.7987 50.8722ZM78.6667 48.4722H72.5356V50.873H78.6667V48.4722ZM66.4036 48.4722H60.2707V50.873H66.4027L66.4036 48.4722ZM54.1396 48.4722H48.0085V50.873H54.1396V48.4722ZM41.8756 48.4722H35.7436V50.873H41.8756V48.4722ZM29.6116 48.4722H23.4796V50.873H29.6116V48.4722ZM17.3485 48.4722H11.2165V50.873H17.3485V48.4722ZM5.08446 48.4722H3.28446V46.6722H0.88446V49.6722C0.88446 50.3348 1.42103 50.8722 2.08446 50.8722H5.08446V48.4722ZM3.28446 34.6602H0.88446V40.6662H3.28446V34.6602ZM3.28446 22.6482H0.88446V28.6542H3.28446V22.6482ZM3.28446 10.6353H0.88446V16.6413H3.28446V10.6353ZM3.28446 2.82932H5.08446V0.428467H2.08446C1.42189 0.428467 0.88446 0.965895 0.88446 1.62847V4.62847H3.28446V2.82932ZM78.6667 0.428467H72.5356V2.82932H78.6667V0.428467ZM66.4036 0.428467H60.2707V2.82932H66.4027L66.4036 0.428467ZM54.1396 0.428467H48.0076V2.82932H54.1396V0.428467ZM41.8756 0.428467H35.7436V2.82932H41.8756V0.428467ZM29.6116 0.428467H23.4796V2.82932H29.6116V0.428467ZM17.3485 0.428467H11.2165V2.82932H17.3485V0.428467ZM88.9987 1.62847C88.9987 0.965895 88.4613 0.428467 87.7987 0.428467H84.7987V2.82932H86.5996V4.62932H88.9996L88.9987 1.62847ZM88.9987 34.6593H86.5987V40.6653H88.9987V34.6593ZM88.9987 22.6473H86.5987V28.6533H88.9987V22.6473ZM88.9987 10.6345H86.5987V16.6405H88.9987V10.6345Z" fill="#113B98"/>
<path d="M7.7793 8.10589C7.7793 7.16303 8.55073 6.3916 9.49358 6.3916H80.4916C81.4353 6.3916 82.2059 7.16303 82.2059 8.10589V12.2493C82.2059 13.1922 81.4353 13.9636 80.4916 13.9636H9.49358C8.55073 13.9636 7.7793 13.1922 7.7793 12.2493V8.10589Z" fill="#113B98"/>
<path d="M7.86505 19.2429C7.86505 18.3 8.63648 17.5286 9.57934 17.5286H80.405C81.3488 17.5286 82.1193 18.3 82.1193 19.2429V43.0474C82.1193 43.9903 81.3488 44.7617 80.405 44.7617H9.57934C8.63648 44.7617 7.86505 43.9903 7.86505 43.0474V19.2429Z" fill="#D6E0F7"/>
<path d="M53.1393 21.7422H35.1393C34.6653 21.7422 34.2822 22.1253 34.2822 22.5993V38.885C34.2822 39.359 34.6653 39.7422 35.1393 39.7422H53.1393C53.6133 39.7422 53.9965 39.359 53.9965 38.885V22.5993C53.9965 22.1253 53.6133 21.7422 53.1393 21.7422Z" fill="#113B98"/>
<path d="M51.425 24.3137H36.8536V37.1709H51.425V24.3137Z" fill="white"/>
<path d="M41.9965 27.7421C41.9965 28.6884 41.2285 29.4564 40.2822 29.4564C39.3359 29.4564 38.5679 28.6884 38.5679 27.7421C38.5679 26.7958 39.3359 26.0278 40.2822 26.0278C41.2285 26.0278 41.9965 26.7958 41.9965 27.7421ZM36.6822 37.1707H51.425V32.1135L47.6536 27.7421L36.6822 37.1707Z" fill="#113B98"/>
<path d="M45.3393 31.685L42.1387 32.5422L47.6536 27.7422L51.425 32.1136L49.397 31.5993L47.1676 32.885L45.3393 31.685Z" fill="#D6E0F7"/>
</svg>
