<svg width="89" height="51" viewBox="0 0 89 51" fill="none" xmlns="http://www.w3.org/2000/svg">
<path d="M87.0307 50.7882H84.0307V48.3873H85.8307V46.5873H88.2316V49.5873C88.2307 50.2508 87.6933 50.7882 87.0307 50.7882ZM77.8979 48.3873H71.7659V50.7882H77.8979V48.3873ZM65.6347 48.3873H59.5027V50.7882H65.6347V48.3873ZM53.3707 48.3873H47.2387V50.7882H53.3707V48.3873ZM41.1067 48.3873H34.9747V50.7882H41.1067V48.3873ZM28.8436 48.3873H22.7116V50.7882H28.8436V48.3873ZM16.5796 48.3873H10.4476V50.7882H16.5796V48.3873ZM4.31646 48.3873H2.51646V46.5873H0.115601V49.5873C0.115601 50.2499 0.653029 50.7873 1.3156 50.7873H4.3156L4.31646 48.3873ZM2.51646 34.5993H0.115601V40.5933H2.51646V34.5993ZM2.51646 22.6105H0.115601V28.6053H2.51646V22.6105ZM2.51646 10.6233H0.115601V16.6173H2.51646V10.6233ZM2.51646 2.82932H4.31646V0.428467H1.31646C0.653886 0.428467 0.116458 0.965895 0.116458 1.62847V4.62847H2.51731L2.51646 2.82932ZM77.8987 0.428467H71.7667V2.82932H77.8987V0.428467ZM65.6356 0.428467H59.5027V2.82932H65.6347L65.6356 0.428467ZM53.3716 0.428467H47.2396V2.82932H53.3716V0.428467ZM41.1076 0.428467H34.9756V2.82932H41.1076V0.428467ZM28.8445 0.428467H22.7125V2.82932H28.8445V0.428467ZM16.5805 0.428467H10.4485V2.82932H16.5805V0.428467ZM88.2307 1.62932C88.2307 0.966752 87.6933 0.429324 87.0307 0.429324H84.0307V2.83018H85.8307V4.63018H88.2316L88.2307 1.62932ZM88.2307 34.5993H85.8299V40.5933H88.2307V34.5993ZM88.2307 22.6113H85.8299V28.6062H88.2307V22.6113ZM88.2307 10.6233H85.8299V16.6173H88.2307V10.6233Z" fill="#7F8493"/>
<path d="M7.00958 20.8859C7.00958 19.9431 7.78101 19.1716 8.72387 19.1716H79.637C80.5799 19.1716 81.3513 19.9431 81.3513 20.8859V30.2613C81.3513 31.2042 80.5799 31.9756 79.637 31.9756H8.72387C7.78101 31.9756 7.00958 31.2042 7.00958 30.2613V20.8859Z" fill="#7F8493"/>
</svg>
