<svg width="90" height="52" viewBox="0 0 90 52" fill="none" xmlns="http://www.w3.org/2000/svg">
<path d="M88.7735 51.4286H85.7093V48.9764H87.5478V47.1379H90V50.202C89.9991 50.8797 89.4502 51.4286 88.7735 51.4286ZM79.4453 48.9764H73.1822V51.4286H79.4453V48.9764ZM66.92 48.9764H60.6569V51.4286H66.92V48.9764ZM54.3938 48.9764H48.1307V51.4286H54.3938V48.9764ZM41.8676 48.9764H35.6045V51.4286H41.8676V48.9764ZM29.3422 48.9764H23.0791V51.4286H29.3422V48.9764ZM16.816 48.9764H10.5529V51.4286H16.816V48.9764ZM4.29068 48.9764H2.45219V47.1379H0V50.202C0 50.8788 0.548919 51.4277 1.22566 51.4277H4.2898L4.29068 48.9764ZM2.45219 34.8953H0V41.0166H2.45219V34.8953ZM2.45219 22.6563H0V28.7723H2.45219V22.6563ZM2.45219 10.4128H0V16.535H2.45219V10.4128ZM2.45219 2.45131H4.29068V0H1.22653C0.549795 0 0.00087551 0.548044 0.00087551 1.22566V4.2898H2.45307L2.45219 2.45131ZM79.4462 0.000875406H73.1831V2.45219H79.4462V0.000875406ZM66.9209 0.000875406H60.6569V2.45219H66.92L66.9209 0.000875406ZM54.3947 0.000875406H48.1316V2.45219H54.3947V0.000875406ZM41.8685 0.000875406H35.6053V2.45219H41.8685V0.000875406ZM29.3431 0.000875406H23.08V2.45219H29.3431V0.000875406ZM16.8169 0.000875406H10.5538V2.45219H16.8169V0.000875406ZM89.9991 1.22566C89.9991 0.548919 89.4502 0 88.7735 0H85.7093V2.45131H87.5478V4.2898H90L89.9991 1.22566ZM89.9991 34.8936H87.5469V41.0166H89.9991V34.8936ZM89.9991 22.6563H87.5469V28.7723H89.9991V22.6563ZM89.9991 10.412H87.5469V16.5341H89.9991V10.412Z" fill="#113B98"/>
<path d="M14.0336 14.7954C14.0336 13.8324 14.8215 13.0444 15.7845 13.0444H74.3158C75.2788 13.0444 76.0667 13.8324 76.0667 14.7954V26.0128C76.0667 26.9758 75.2788 27.7637 74.3158 27.7637H15.7845C14.8215 27.7637 14.0336 26.9758 14.0336 26.0128V14.7954Z" fill="#113B98"/>
<path d="M14.1246 33.2092C14.1246 32.2462 14.9126 31.4583 15.8756 31.4583H74.3167C75.2797 31.4583 76.0676 32.2462 76.0676 33.2092V37.5576C76.0676 38.5207 75.2797 39.3086 74.3167 39.3086H15.8756C14.9126 39.3086 14.1246 38.5207 14.1246 37.5576V33.2092Z" fill="#D6E0F7"/>
</svg>
