<svg width="89" height="51" viewBox="0 0 89 51" fill="none" xmlns="http://www.w3.org/2000/svg">
<path d="M86.9151 50.4429H83.9151V48.042H85.7151V46.242H88.116V49.242C88.1151 49.9054 87.5777 50.4429 86.9151 50.4429ZM77.7823 48.0429H71.6503V50.4437H77.7823V48.0429ZM65.5191 48.0429H59.3871V50.4437H65.5191V48.0429ZM53.2551 48.0429H47.1231V50.4437H53.2551V48.0429ZM40.9911 48.0429H34.8591V50.4437H40.9911V48.0429ZM28.728 48.0429H22.596V50.4437H28.728V48.0429ZM16.464 48.0429H10.332V50.4437H16.464V48.0429ZM4.20086 48.0429H2.40086V46.2429H0V49.2429C0 49.9054 0.537429 50.4429 1.2 50.4429H4.2L4.20086 48.0429ZM2.40086 34.23H0V40.236H2.40086V34.23ZM2.40086 22.218H0V28.224H2.40086V22.218ZM2.40086 10.206H0V16.212H2.40086V10.206ZM2.40086 2.4H4.20086V0H1.20086C0.538286 0 0.000857183 0.536571 0.000857183 1.2V4.2H2.40171L2.40086 2.4ZM77.7831 0H71.6511V2.4H77.7831V0ZM65.52 0H59.3871V2.4H65.5191L65.52 0ZM53.256 0H47.124V2.4H53.256V0ZM40.992 0H34.86V2.4H40.992V0ZM28.7289 0H22.5969V2.4H28.7289V0ZM16.4649 0H10.3329V2.4H16.4649V0ZM88.1151 1.2C88.1151 0.537429 87.5777 0 86.9151 0H83.9151V2.4H85.7151V4.2H88.116L88.1151 1.2ZM88.1151 34.2309H85.7143V40.2369H88.1151V34.2309ZM88.1151 22.2189H85.7143V28.2249H88.1151V22.2189ZM88.1151 10.2069H85.7143V16.2129H88.1151V10.2069Z" fill="#7F8493"/>
<path d="M6.89398 8.62371C6.89398 7.68085 7.66541 6.90942 8.60827 6.90942H79.5214C80.4643 6.90942 81.2357 7.68085 81.2357 8.62371V12.5931C81.2357 13.536 80.4643 14.3074 79.5214 14.3074H8.60827C7.66541 14.3074 6.89398 13.536 6.89398 12.5931V8.62371Z" fill="#7F8493"/>
</svg>
