<svg width="89" height="51" viewBox="0 0 89 51" fill="none" xmlns="http://www.w3.org/2000/svg">
<path d="M86.9147 50.7873H83.9147V48.3865H85.7147V46.5865H88.1156V49.5865C88.1147 50.2499 87.5773 50.7873 86.9147 50.7873ZM77.7819 48.3865H71.6499V50.7873H77.7819V48.3865ZM65.5187 48.3865H59.3867V50.7873H65.5187V48.3865ZM53.2547 48.3865H47.1227V50.7873H53.2547V48.3865ZM40.9907 48.3865H34.8587V50.7873H40.9907V48.3865ZM28.7276 48.3865H22.5956V50.7873H28.7276V48.3865ZM16.4636 48.3865H10.3316V50.7873H16.4636V48.3865ZM4.20043 48.3865H2.40043V46.5865H-0.000427246V49.5865C-0.000427246 50.249 0.537001 50.7865 1.19957 50.7865H4.19957L4.20043 48.3865ZM2.40043 34.5985H-0.000427246V40.5925H2.40043V34.5985ZM2.40043 22.6105H-0.000427246V28.6045H2.40043V22.6105ZM2.40043 10.6225H-0.000427246V16.6165H2.40043V10.6225ZM2.40043 2.82932H4.20043V0.428467H1.20043C0.537859 0.428467 0.000429937 0.965895 0.000429937 1.62847V4.62847H2.40129L2.40043 2.82932ZM77.7827 0.428467H71.6507V2.82932H77.7827V0.428467ZM65.5196 0.428467H59.3867V2.82932H65.5187L65.5196 0.428467ZM53.2556 0.428467H47.1236V2.82932H53.2556V0.428467ZM40.9916 0.428467H34.8596V2.82932H40.9916V0.428467ZM28.7284 0.428467H22.5964V2.82932H28.7284V0.428467ZM16.4644 0.428467H10.3324V2.82932H16.4644V0.428467ZM88.1147 1.62847C88.1147 0.965895 87.5773 0.428467 86.9147 0.428467H83.9147V2.82932H85.7147V4.62932H88.1156L88.1147 1.62847ZM88.1147 34.5985H85.7139V40.5925H88.1147V34.5985ZM88.1147 22.6113H85.7139V28.6053H88.1147V22.6113ZM88.1147 10.6225H85.7139V16.6165H88.1147V10.6225Z" fill="#7F8493"/>
<path d="M6.89355 8.96307C6.89355 8.02021 7.66498 7.24878 8.60784 7.24878H79.521C80.4638 7.24878 81.2353 8.02021 81.2353 8.96307V13.1065C81.2353 14.0494 80.4638 14.8208 79.521 14.8208H8.60784C7.66498 14.8208 6.89355 14.0494 6.89355 13.1065V8.96307Z" fill="#7F8493"/>
<path d="M6.95526 43.0472C6.95526 43.9901 7.72669 44.7615 8.66955 44.7615H40.1215C41.0644 44.7615 41.8358 43.9901 41.8358 43.0472V20.0998C41.8358 19.1569 41.0644 18.3855 40.1215 18.3855H8.66955C7.72669 18.3855 6.95526 19.1569 6.95526 20.0998V43.0472ZM47.9841 18.3855C47.0413 18.3855 46.2698 19.1569 46.2698 20.0998V43.0472C46.2698 43.9901 47.0413 44.7615 47.9841 44.7615H79.5218C80.4647 44.7615 81.2361 43.9901 81.2361 43.0472V20.0998C81.2361 19.1569 80.4647 18.3855 79.5218 18.3855H47.9841Z" fill="#C7CAD1"/>
<path d="M33.3982 22.5994H15.3982C14.9242 22.5994 14.541 22.9825 14.541 23.4565V39.7422C14.541 40.2162 14.9242 40.5994 15.3982 40.5994H33.3982C33.8722 40.5994 34.2553 40.2162 34.2553 39.7422V23.4565C34.2553 22.9825 33.8722 22.5994 33.3982 22.5994Z" fill="#7F8493"/>
<path d="M31.6839 25.1709H17.1124V38.028H31.6839V25.1709Z" fill="white"/>
<path d="M22.2553 28.5993C22.2553 29.5456 21.4873 30.3136 20.541 30.3136C19.5948 30.3136 18.8268 29.5456 18.8268 28.5993C18.8268 27.653 19.5948 26.885 20.541 26.885C21.4873 26.885 22.2553 27.653 22.2553 28.5993ZM16.941 38.0279H31.6839V32.9707L27.9125 28.5993L16.941 38.0279Z" fill="#7F8493"/>
<path d="M25.5982 32.5422L22.3976 33.3994L27.9124 28.5994L31.6839 32.9708L29.6559 32.4565L27.4264 33.7422L25.5982 32.5422Z" fill="#C7CAD1"/>
<path d="M72.8267 22.5994H54.8267C54.3527 22.5994 53.9696 22.9825 53.9696 23.4565V39.7422C53.9696 40.2162 54.3527 40.5994 54.8267 40.5994H72.8267C73.3007 40.5994 73.6839 40.2162 73.6839 39.7422V23.4565C73.6839 22.9825 73.3007 22.5994 72.8267 22.5994Z" fill="#7F8493"/>
<path d="M71.1124 25.1709H56.541V38.028H71.1124V25.1709Z" fill="white"/>
<path d="M61.6839 28.5993C61.6839 29.5456 60.9159 30.3136 59.9696 30.3136C59.0233 30.3136 58.2553 29.5456 58.2553 28.5993C58.2553 27.653 59.0233 26.885 59.9696 26.885C60.9159 26.885 61.6839 27.653 61.6839 28.5993ZM56.3696 38.0279H71.1125V32.9707L67.3411 28.5993L56.3696 38.0279Z" fill="#7F8493"/>
<path d="M65.0267 32.5422L61.8262 33.3994L67.341 28.5994L71.1125 32.9708L69.0845 32.4565L66.855 33.7422L65.0267 32.5422Z" fill="#C7CAD1"/>
</svg>
