<svg width="800" height="800" viewBox="0 0 800 800" fill="none" xmlns="http://www.w3.org/2000/svg">
<g clip-path="url(#clip0_155_10)">
<path d="M745.711 576.416L764.211 501.417L745.711 504.416L716.211 504.416L699.711 493.916L688.711 466.416L673.211 450.916L647.711 445.416L617.211 453.416L594.211 540.916L623.711 534.416L647.711 540.916L663.211 556.916L679.211 578.416L697.711 588.416L726.211 586.416L745.711 576.416Z" fill="white"/>
<mask id="path-2-outside-1_155_10" maskUnits="userSpaceOnUse" x="442.959" y="377.721" width="357.909" height="352.796" fill="black">
<rect fill="white" x="442.959" y="377.721" width="357.909" height="352.796"/>
<path d="M685.963 490.994L679.461 514.091L651.698 508.594L658.388 484.809L637.619 478.974L643.455 458.185L664.254 464.031L658.428 484.811L685.963 490.994ZM645.873 529.374L651.717 508.615L630.929 502.759L625.084 523.518L645.873 529.374ZM746.293 579.93L741.696 581.404C724.43 592.301 706.1 592.237 695.627 589.285C672.963 582.902 664.392 562.603 664.04 561.763C657.038 549.922 647.704 542.168 636.474 539.015C615.676 533.169 594.977 545.063 594.752 545.212L589.714 548.179L552.268 681.4L538.905 677.67L605.586 440.417C603.18 439.251 601.814 436.558 602.564 433.885C603.419 430.85 606.545 429.104 609.572 429.948L620.594 433.062C623.601 433.886 625.366 437.033 624.511 440.069C623.797 442.594 621.485 444.126 618.961 444.098L617.147 450.513L617.338 450.452C636.094 443.565 652.2 441.934 665.187 445.609C688.775 452.25 693.765 473.53 693.965 474.433C697.993 492.858 708.097 499.333 715.858 501.513C719.189 502.44 721.538 502.381 721.538 502.381C742.825 504.689 758.98 498.646 765.213 496.794C771.426 494.941 766.599 506.258 766.599 506.258L746.293 579.93ZM752.33 505.382L750.819 510.756L759.832 512.263L762.785 501.731C760.259 502.449 756.392 504.551 752.33 505.382ZM601.889 536.598L598.146 535.554L597.369 538.384C598.635 537.832 600.213 537.203 601.889 536.598ZM667.218 557.643L668.518 553.016L664.383 553.456C665.361 554.79 666.335 556.184 667.218 557.643ZM688.32 562.429L693.418 544.263L717.484 549.493L723.31 528.714L699.242 523.523L705.29 501.968C703.28 500.61 701.245 498.893 699.299 496.732L685.962 491.014L689.669 477.73C689.492 476.977 689.294 476.263 689.118 475.49C689.059 475.238 688.596 473.28 687.352 470.513L664.254 464.031L667.692 451.681C666.5 451.192 665.206 450.76 663.841 450.373C658.516 448.874 652.57 448.422 646.068 448.881L643.435 458.184L625.211 453.044C623.569 453.56 621.946 454.078 620.25 454.682L615.318 472.695L637.619 478.974L630.929 502.759L608.814 496.538L603.127 517.343L625.084 523.518L622.574 532.518C627.462 532.358 632.614 532.776 637.841 534.232C639.923 534.837 641.918 535.618 643.891 536.458L645.873 529.374L673.557 535.076L679.461 514.091L699.223 523.503L693.389 544.252L673.567 535.086L668.738 552.28L688.32 562.429ZM743.049 572.991L743.201 572.451L733.713 571.589L738.731 553.669L747.961 555.225L754.108 532.968L744.568 532.88L750.797 510.795L738.762 507.409C735.677 507.706 732.481 507.818 729.231 507.809L723.34 528.705L744.597 532.891L738.731 553.669L717.504 549.494L712.406 567.66L688.05 563.402L683.9 578.198C687.537 580.808 691.855 583.08 696.973 584.521C700.235 585.435 703.663 585.949 707.216 586.1L712.406 567.66L733.713 571.589L730.749 582.131L743.049 572.991Z"/>
</mask>
<path d="M685.963 490.994L679.461 514.091L651.698 508.594L658.388 484.809L637.619 478.974L643.455 458.185L664.254 464.031L658.428 484.811L685.963 490.994ZM645.873 529.374L651.717 508.615L630.929 502.759L625.084 523.518L645.873 529.374ZM746.293 579.93L741.696 581.404C724.43 592.301 706.1 592.237 695.627 589.285C672.963 582.902 664.392 562.603 664.04 561.763C657.038 549.922 647.704 542.168 636.474 539.015C615.676 533.169 594.977 545.063 594.752 545.212L589.714 548.179L552.268 681.4L538.905 677.67L605.586 440.417C603.18 439.251 601.814 436.558 602.564 433.885C603.419 430.85 606.545 429.104 609.572 429.948L620.594 433.062C623.601 433.886 625.366 437.033 624.511 440.069C623.797 442.594 621.485 444.126 618.961 444.098L617.147 450.513L617.338 450.452C636.094 443.565 652.2 441.934 665.187 445.609C688.775 452.25 693.765 473.53 693.965 474.433C697.993 492.858 708.097 499.333 715.858 501.513C719.189 502.44 721.538 502.381 721.538 502.381C742.825 504.689 758.98 498.646 765.213 496.794C771.426 494.941 766.599 506.258 766.599 506.258L746.293 579.93ZM752.33 505.382L750.819 510.756L759.832 512.263L762.785 501.731C760.259 502.449 756.392 504.551 752.33 505.382ZM601.889 536.598L598.146 535.554L597.369 538.384C598.635 537.832 600.213 537.203 601.889 536.598ZM667.218 557.643L668.518 553.016L664.383 553.456C665.361 554.79 666.335 556.184 667.218 557.643ZM688.32 562.429L693.418 544.263L717.484 549.493L723.31 528.714L699.242 523.523L705.29 501.968C703.28 500.61 701.245 498.893 699.299 496.732L685.962 491.014L689.669 477.73C689.492 476.977 689.294 476.263 689.118 475.49C689.059 475.238 688.596 473.28 687.352 470.513L664.254 464.031L667.692 451.681C666.5 451.192 665.206 450.76 663.841 450.373C658.516 448.874 652.57 448.422 646.068 448.881L643.435 458.184L625.211 453.044C623.569 453.56 621.946 454.078 620.25 454.682L615.318 472.695L637.619 478.974L630.929 502.759L608.814 496.538L603.127 517.343L625.084 523.518L622.574 532.518C627.462 532.358 632.614 532.776 637.841 534.232C639.923 534.837 641.918 535.618 643.891 536.458L645.873 529.374L673.557 535.076L679.461 514.091L699.223 523.503L693.389 544.252L673.567 535.086L668.738 552.28L688.32 562.429ZM743.049 572.991L743.201 572.451L733.713 571.589L738.731 553.669L747.961 555.225L754.108 532.968L744.568 532.88L750.797 510.795L738.762 507.409C735.677 507.706 732.481 507.818 729.231 507.809L723.34 528.705L744.597 532.891L738.731 553.669L717.504 549.494L712.406 567.66L688.05 563.402L683.9 578.198C687.537 580.808 691.855 583.08 696.973 584.521C700.235 585.435 703.663 585.949 707.216 586.1L712.406 567.66L733.713 571.589L730.749 582.131L743.049 572.991Z" fill="#030104"/>
<path d="M685.963 490.994L686.925 491.265L687.211 490.25L686.182 490.018L685.963 490.994ZM651.698 508.594L650.736 508.324L650.443 509.365L651.504 509.575L651.698 508.594ZM658.388 484.809L659.351 485.08L659.621 484.117L658.658 483.847L658.388 484.809ZM643.455 458.185L643.726 457.222L642.763 456.952L642.492 457.915L643.455 458.185ZM658.428 484.811L657.465 484.541L657.18 485.556L658.209 485.787L658.428 484.811ZM651.717 508.615L652.68 508.886L652.951 507.924L651.989 507.652L651.717 508.615ZM746.293 579.93L746.598 580.882L747.113 580.717L747.257 580.195L746.293 579.93ZM741.696 581.404L741.391 580.452L741.27 580.491L741.163 580.558L741.696 581.404ZM695.627 589.285L695.898 588.323L695.898 588.323L695.627 589.285ZM664.04 561.763L664.962 561.377L664.936 561.313L664.901 561.254L664.04 561.763ZM636.474 539.015L636.204 539.978L636.204 539.978L636.474 539.015ZM594.752 545.212L595.26 546.074L595.283 546.06L595.305 546.045L594.752 545.212ZM589.714 548.179L589.207 547.318L588.86 547.522L588.752 547.909L589.714 548.179ZM552.268 681.4L551.999 682.363L552.96 682.632L553.23 681.671L552.268 681.4ZM538.905 677.67L537.943 677.399L537.671 678.363L538.636 678.633L538.905 677.67ZM605.586 440.417L606.549 440.687L606.776 439.882L606.023 439.517L605.586 440.417ZM602.564 433.885L601.601 433.614L601.601 433.615L602.564 433.885ZM609.572 429.948L609.843 428.986L609.84 428.985L609.572 429.948ZM620.594 433.062L620.322 434.025L620.33 434.027L620.594 433.062ZM624.511 440.069L625.473 440.341L625.474 440.34L624.511 440.069ZM618.961 444.098L618.972 443.098L618.207 443.09L617.999 443.826L618.961 444.098ZM617.147 450.513L616.185 450.241L615.677 452.035L617.452 451.465L617.147 450.513ZM617.338 450.452L617.644 451.404L617.664 451.397L617.683 451.39L617.338 450.452ZM665.187 445.609L664.915 446.571L664.916 446.571L665.187 445.609ZM693.965 474.433L694.942 474.22L694.941 474.217L693.965 474.433ZM715.858 501.513L715.588 502.476L715.59 502.476L715.858 501.513ZM721.538 502.381L721.646 501.387L721.579 501.38L721.513 501.381L721.538 502.381ZM765.213 496.794L765.497 497.753L765.498 497.752L765.213 496.794ZM766.599 506.258L765.679 505.866L765.653 505.928L765.635 505.992L766.599 506.258ZM752.33 505.382L752.129 504.403L751.532 504.525L751.367 505.112L752.33 505.382ZM750.819 510.756L749.856 510.486L749.554 511.559L750.654 511.743L750.819 510.756ZM759.832 512.263L759.667 513.25L760.552 513.398L760.794 512.533L759.832 512.263ZM762.785 501.731L763.748 502.001L764.231 500.281L762.512 500.769L762.785 501.731ZM601.889 536.598L602.229 537.539L605.174 536.476L602.158 535.635L601.889 536.598ZM598.146 535.554L598.415 534.591L597.447 534.321L597.182 535.289L598.146 535.554ZM597.369 538.384L596.405 538.12L595.851 540.138L597.769 539.301L597.369 538.384ZM667.218 557.643L666.362 558.161L667.556 560.135L668.18 557.914L667.218 557.643ZM668.518 553.016L669.481 553.286L669.88 551.865L668.412 552.021L668.518 553.016ZM664.383 553.456L664.278 552.462L662.55 552.646L663.577 554.047L664.383 553.456ZM688.32 562.429L687.86 563.317L688.951 563.882L689.283 562.699L688.32 562.429ZM693.418 544.263L693.63 543.286L692.71 543.086L692.455 543.993L693.418 544.263ZM717.484 549.493L717.272 550.47L718.192 550.67L718.447 549.763L717.484 549.493ZM723.31 528.714L724.273 528.984L724.56 527.96L723.521 527.736L723.31 528.714ZM699.242 523.523L698.279 523.253L697.992 524.277L699.031 524.501L699.242 523.523ZM705.29 501.968L706.253 502.238L706.448 501.543L705.85 501.139L705.29 501.968ZM699.299 496.732L700.042 496.063L699.895 495.899L699.693 495.813L699.299 496.732ZM685.962 491.014L684.999 490.745L684.763 491.588L685.568 491.933L685.962 491.014ZM689.669 477.73L690.632 477.999L690.701 477.752L690.643 477.502L689.669 477.73ZM689.118 475.49L690.093 475.268L690.092 475.261L689.118 475.49ZM687.352 470.513L688.264 470.103L688.072 469.676L687.622 469.55L687.352 470.513ZM667.692 451.681L668.656 451.949L668.894 451.092L668.071 450.755L667.692 451.681ZM663.841 450.373L664.113 449.411L664.112 449.411L663.841 450.373ZM646.068 448.881L645.998 447.883L645.297 447.933L645.106 448.609L646.068 448.881ZM643.435 458.184L643.164 459.146L644.125 459.418L644.397 458.456L643.435 458.184ZM625.211 453.044L625.483 452.081L625.196 452L624.911 452.09L625.211 453.044ZM620.25 454.682L619.915 453.74L619.423 453.914L619.286 454.418L620.25 454.682ZM615.318 472.695L614.353 472.431L614.091 473.389L615.047 473.658L615.318 472.695ZM608.814 496.538L609.085 495.575L608.116 495.303L607.85 496.274L608.814 496.538ZM603.127 517.343L602.162 517.08L601.9 518.037L602.856 518.306L603.127 517.343ZM622.574 532.518L621.61 532.249L621.244 533.562L622.606 533.517L622.574 532.518ZM637.841 534.232L638.121 533.271L638.11 533.268L637.841 534.232ZM643.891 536.458L643.499 537.378L644.547 537.824L644.854 536.727L643.891 536.458ZM673.557 535.076L673.355 536.056L674.268 536.243L674.52 535.347L673.557 535.076ZM699.223 523.503L700.186 523.773L700.414 522.962L699.653 522.6L699.223 523.503ZM693.389 544.252L692.969 545.16L694.034 545.652L694.351 544.523L693.389 544.252ZM673.567 535.086L673.986 534.179L672.921 533.686L672.604 534.816L673.567 535.086ZM668.738 552.28L667.776 552.009L667.556 552.793L668.278 553.167L668.738 552.28ZM743.049 572.991L743.645 573.794L743.919 573.59L744.011 573.262L743.049 572.991ZM743.201 572.451L744.164 572.722L744.49 571.564L743.291 571.455L743.201 572.451ZM747.961 555.225L747.795 556.211L748.685 556.361L748.925 555.491L747.961 555.225ZM754.108 532.968L755.072 533.234L755.419 531.98L754.118 531.968L754.108 532.968ZM744.568 532.88L743.605 532.608L743.25 533.868L744.558 533.88L744.568 532.88ZM750.797 510.795L751.759 511.067L752.031 510.103L751.068 509.832L750.797 510.795ZM738.762 507.409L739.033 506.447L738.853 506.396L738.667 506.414L738.762 507.409ZM729.231 507.809L729.233 506.809L728.474 506.807L728.268 507.538L729.231 507.809ZM723.34 528.705L722.378 528.434L722.083 529.477L723.147 529.686L723.34 528.705ZM744.597 532.891L745.559 533.163L745.854 532.119L744.79 531.91L744.597 532.891ZM717.504 549.494L717.697 548.513L716.791 548.335L716.541 549.224L717.504 549.494ZM688.05 563.402L688.222 562.417L687.331 562.261L687.087 563.132L688.05 563.402ZM683.9 578.198L682.937 577.928L682.748 578.602L683.317 579.01L683.9 578.198ZM696.973 584.521L696.702 585.483L696.704 585.484L696.973 584.521ZM707.216 586.1L707.174 587.099L707.964 587.133L708.179 586.371L707.216 586.1ZM730.749 582.131L729.786 581.86L728.993 584.682L731.346 582.934L730.749 582.131ZM685 490.723L678.499 513.82L680.424 514.362L686.925 491.265L685 490.723ZM679.656 513.11L651.893 507.613L651.504 509.575L679.267 515.072L679.656 513.11ZM652.661 508.865L659.351 485.08L657.425 484.539L650.736 508.324L652.661 508.865ZM658.658 483.847L637.889 478.011L637.348 479.937L658.117 485.772L658.658 483.847ZM638.582 479.244L644.418 458.455L642.492 457.915L636.656 478.704L638.582 479.244ZM643.184 459.148L663.983 464.994L664.524 463.069L643.726 457.222L643.184 459.148ZM663.291 463.762L657.465 484.541L659.391 485.081L665.216 464.301L663.291 463.762ZM658.209 485.787L685.743 491.97L686.182 490.018L658.647 483.835L658.209 485.787ZM646.835 529.645L652.68 508.886L650.755 508.344L644.91 529.103L646.835 529.645ZM651.989 507.652L631.2 501.796L630.658 503.721L651.446 509.578L651.989 507.652ZM629.967 502.488L624.122 523.247L626.047 523.789L631.892 503.03L629.967 502.488ZM624.813 524.48L645.601 530.336L646.144 528.411L625.356 522.555L624.813 524.48ZM745.987 578.977L741.391 580.452L742.002 582.356L746.598 580.882L745.987 578.977ZM741.163 580.558C724.164 591.287 706.132 591.207 695.898 588.323L695.356 590.248C706.068 593.267 724.696 593.316 742.23 582.25L741.163 580.558ZM695.898 588.323C673.705 582.072 665.294 562.168 664.962 561.377L663.117 562.15C663.49 563.039 672.22 583.732 695.356 590.248L695.898 588.323ZM664.901 561.254C657.794 549.237 648.269 541.288 636.745 538.052L636.204 539.978C647.139 543.048 656.281 550.607 663.179 562.272L664.901 561.254ZM636.745 538.053C626.098 535.06 615.519 536.615 607.62 538.905C599.729 541.192 594.404 544.243 594.199 544.379L595.305 546.045C595.294 546.053 596.571 545.308 598.855 544.269C601.118 543.24 604.331 541.94 608.177 540.826C615.883 538.592 626.052 537.124 636.204 539.978L636.745 538.053ZM594.245 544.351L589.207 547.318L590.222 549.041L595.26 546.074L594.245 544.351ZM588.752 547.909L551.305 681.129L553.23 681.671L590.677 548.45L588.752 547.909ZM552.537 680.437L539.174 676.706L538.636 678.633L551.999 682.363L552.537 680.437ZM539.868 677.94L606.549 440.687L604.624 440.146L537.943 677.399L539.868 677.94ZM606.023 439.517C604.019 438.546 602.917 436.327 603.527 434.156L601.601 433.615C600.71 436.789 602.342 439.956 605.15 441.317L606.023 439.517ZM603.526 434.156C604.231 431.653 606.806 430.215 609.303 430.912L609.84 428.985C606.285 427.993 602.606 430.046 601.601 433.614L603.526 434.156ZM609.3 430.911L620.322 434.025L620.866 432.1L609.843 428.986L609.3 430.911ZM620.33 434.027C622.794 434.702 624.255 437.289 623.549 439.798L625.474 440.34C626.477 436.778 624.409 433.071 620.858 432.098L620.33 434.027ZM623.549 439.797C622.97 441.845 621.09 443.122 618.972 443.098L618.95 445.098C621.88 445.13 624.625 443.343 625.473 440.341L623.549 439.797ZM617.999 443.826L616.185 450.241L618.109 450.785L619.923 444.37L617.999 443.826ZM617.452 451.465L617.644 451.404L617.033 449.499L616.841 449.561L617.452 451.465ZM617.683 451.39C636.331 444.543 652.207 442.975 664.915 446.571L665.459 444.647C652.193 440.893 635.857 442.587 616.994 449.513L617.683 451.39ZM664.916 446.571C687.939 453.054 692.806 473.824 692.989 474.65L694.941 474.217C694.724 473.236 689.612 451.447 665.458 444.646L664.916 446.571ZM692.988 474.647C695.035 484.01 698.643 490.409 702.788 494.755C706.931 499.101 711.565 501.346 715.588 502.476L716.128 500.55C712.39 499.5 708.09 497.418 704.235 493.375C700.38 489.333 696.923 483.281 694.942 474.22L692.988 474.647ZM715.59 502.476C717.318 502.958 718.795 503.184 719.847 503.29C720.373 503.343 720.793 503.366 721.086 503.375C721.232 503.38 721.347 503.382 721.428 503.382C721.468 503.382 721.499 503.382 721.522 503.382C721.533 503.381 721.542 503.381 721.549 503.381C721.553 503.381 721.556 503.381 721.558 503.381C721.559 503.381 721.56 503.381 721.561 503.381C721.561 503.381 721.562 503.381 721.562 503.381C721.562 503.381 721.562 503.381 721.562 503.381C721.563 503.381 721.563 503.381 721.538 502.381C721.513 501.381 721.513 501.381 721.513 501.381C721.513 501.381 721.513 501.381 721.513 501.381C721.514 501.381 721.514 501.381 721.514 501.381C721.514 501.381 721.514 501.381 721.514 501.381C721.514 501.381 721.514 501.381 721.513 501.381C721.51 501.382 721.506 501.382 721.499 501.382C721.486 501.382 721.464 501.382 721.433 501.382C721.372 501.382 721.277 501.381 721.152 501.376C720.9 501.368 720.525 501.348 720.047 501.3C719.091 501.203 717.728 500.996 716.126 500.55L715.59 502.476ZM721.43 503.375C742.952 505.709 759.303 499.593 765.497 497.753L764.928 495.835C758.656 497.699 742.698 503.67 721.646 501.387L721.43 503.375ZM765.498 497.752C766.174 497.551 766.57 497.57 766.781 497.63C766.955 497.68 767.069 497.772 767.166 497.957C767.279 498.173 767.365 498.516 767.382 499.01C767.4 499.494 767.35 500.058 767.249 500.668C767.047 501.887 766.658 503.184 766.311 504.193C766.138 504.694 765.979 505.115 765.863 505.411C765.806 505.558 765.759 505.674 765.727 505.752C765.711 505.791 765.699 505.82 765.691 505.84C765.686 505.849 765.684 505.856 765.682 505.861C765.681 505.863 765.68 505.864 765.68 505.865C765.679 505.866 765.679 505.866 765.679 505.866C765.679 505.866 765.679 505.866 765.679 505.866C765.679 505.866 765.679 505.866 766.599 506.258C767.519 506.65 767.519 506.65 767.519 506.65C767.519 506.65 767.52 506.65 767.52 506.649C767.52 506.649 767.52 506.648 767.521 506.647C767.521 506.645 767.522 506.643 767.524 506.639C767.527 506.633 767.53 506.624 767.535 506.612C767.545 506.589 767.559 506.555 767.577 506.511C767.613 506.424 767.664 506.299 767.726 506.14C767.85 505.824 768.019 505.376 768.202 504.844C768.565 503.789 768.994 502.373 769.222 500.994C769.337 500.305 769.405 499.599 769.381 498.938C769.358 498.286 769.243 497.609 768.935 497.025C768.611 496.409 768.083 495.922 767.331 495.707C766.617 495.503 765.805 495.574 764.927 495.836L765.498 497.752ZM765.635 505.992L745.329 579.664L747.257 580.195L767.563 506.524L765.635 505.992ZM751.367 505.112L749.856 510.486L751.781 511.027L753.293 505.653L751.367 505.112ZM750.654 511.743L759.667 513.25L759.996 511.277L750.984 509.77L750.654 511.743ZM760.794 512.533L763.748 502.001L761.822 501.461L758.869 511.993L760.794 512.533ZM762.512 500.769C761.182 501.147 759.494 501.89 757.761 502.586C755.982 503.301 754.068 504.006 752.129 504.403L752.53 506.362C754.653 505.927 756.705 505.166 758.506 504.442C760.354 503.7 761.863 503.033 763.059 502.693L762.512 500.769ZM602.158 535.635L598.415 534.591L597.877 536.517L601.621 537.562L602.158 535.635ZM597.182 535.289L596.405 538.12L598.334 538.649L599.11 535.819L597.182 535.289ZM597.769 539.301C599.013 538.758 600.571 538.137 602.229 537.539L601.55 535.658C599.856 536.269 598.258 536.906 596.969 537.468L597.769 539.301ZM668.18 557.914L669.481 553.286L667.556 552.745L666.255 557.373L668.18 557.914ZM668.412 552.021L664.278 552.462L664.489 554.451L668.624 554.01L668.412 552.021ZM663.577 554.047C664.546 555.371 665.501 556.737 666.362 558.161L668.073 557.126C667.169 555.63 666.175 554.21 665.19 552.865L663.577 554.047ZM689.283 562.699L694.381 544.533L692.455 543.993L687.357 562.159L689.283 562.699ZM693.206 545.24L717.272 550.47L717.696 548.516L693.63 543.286L693.206 545.24ZM718.447 549.763L724.273 528.984L722.347 528.444L716.521 549.223L718.447 549.763ZM723.521 527.736L699.453 522.546L699.031 524.501L723.099 529.691L723.521 527.736ZM700.205 523.793L706.253 502.238L704.327 501.698L698.279 523.253L700.205 523.793ZM705.85 501.139C703.905 499.825 701.932 498.161 700.042 496.063L698.556 497.401C700.558 499.624 702.655 501.394 704.73 502.796L705.85 501.139ZM699.693 495.813L686.356 490.095L685.568 491.933L698.905 497.651L699.693 495.813ZM686.925 491.283L690.632 477.999L688.706 477.461L684.999 490.745L686.925 491.283ZM690.643 477.502C690.552 477.114 690.455 476.738 690.363 476.371C690.269 476.002 690.178 475.641 690.093 475.268L688.143 475.711C688.234 476.111 688.33 476.494 688.424 476.863C688.518 477.235 688.61 477.593 688.695 477.958L690.643 477.502ZM690.092 475.261C690.023 474.969 689.542 472.946 688.264 470.103L686.439 470.923C687.65 473.614 688.095 475.508 688.145 475.718L690.092 475.261ZM687.622 469.55L664.524 463.069L663.983 464.994L687.081 471.476L687.622 469.55ZM665.217 464.3L668.656 451.949L666.729 451.412L663.29 463.763L665.217 464.3ZM668.071 450.755C666.837 450.25 665.507 449.805 664.113 449.411L663.569 451.336C664.906 451.714 666.163 452.135 667.313 452.606L668.071 450.755ZM664.112 449.411C658.651 447.873 652.586 447.418 645.998 447.883L646.139 449.879C652.554 449.426 658.381 449.875 663.57 451.336L664.112 449.411ZM645.106 448.609L642.473 457.912L644.397 458.456L647.03 449.153L645.106 448.609ZM643.707 457.222L625.483 452.081L624.94 454.006L643.164 459.146L643.707 457.222ZM624.911 452.09C623.268 452.607 621.63 453.129 619.915 453.74L620.586 455.624C622.263 455.027 623.87 454.514 625.512 453.998L624.911 452.09ZM619.286 454.418L614.353 472.431L616.282 472.96L621.215 454.946L619.286 454.418ZM615.047 473.658L637.348 479.936L637.89 478.011L615.589 471.733L615.047 473.658ZM636.656 478.703L629.967 502.488L631.892 503.03L638.581 479.245L636.656 478.703ZM631.2 501.796L609.085 495.575L608.544 497.501L630.659 503.722L631.2 501.796ZM607.85 496.274L602.162 517.08L604.091 517.607L609.779 496.802L607.85 496.274ZM602.856 518.306L624.814 524.48L625.355 522.555L603.397 516.381L602.856 518.306ZM624.121 523.249L621.61 532.249L623.537 532.786L626.048 523.786L624.121 523.249ZM622.606 533.517C627.415 533.36 632.463 533.772 637.573 535.195L638.11 533.268C632.765 531.78 627.509 531.356 622.541 531.518L622.606 533.517ZM637.562 535.192C639.589 535.781 641.542 536.545 643.499 537.378L644.282 535.538C642.294 534.691 640.258 533.893 638.121 533.271L637.562 535.192ZM644.854 536.727L646.836 529.643L644.91 529.104L642.928 536.188L644.854 536.727ZM645.671 530.353L673.355 536.056L673.759 534.097L646.074 528.394L645.671 530.353ZM674.52 535.347L680.424 514.362L678.499 513.82L672.594 534.805L674.52 535.347ZM679.031 514.994L698.793 524.405L699.653 522.6L679.891 513.188L679.031 514.994ZM698.261 523.232L692.426 543.981L694.351 544.523L700.186 523.773L698.261 523.232ZM693.808 543.344L673.986 534.179L673.147 535.994L692.969 545.16L693.808 543.344ZM672.604 534.816L667.776 552.009L669.701 552.55L674.529 535.357L672.604 534.816ZM668.278 553.167L687.86 563.317L688.78 561.541L669.199 551.392L668.278 553.167ZM744.011 573.262L744.164 572.722L742.239 572.18L742.086 572.72L744.011 573.262ZM743.291 571.455L733.804 570.594L733.623 572.585L743.111 573.447L743.291 571.455ZM734.676 571.859L739.694 553.938L737.768 553.399L732.75 571.32L734.676 571.859ZM738.565 554.655L747.795 556.211L748.127 554.239L738.898 552.683L738.565 554.655ZM748.925 555.491L755.072 533.234L753.144 532.702L746.997 554.959L748.925 555.491ZM754.118 531.968L744.577 531.88L744.558 533.88L754.099 533.968L754.118 531.968ZM745.53 533.151L751.759 511.067L749.835 510.524L743.605 532.608L745.53 533.151ZM751.068 509.832L739.033 506.447L738.491 508.372L750.526 511.758L751.068 509.832ZM738.667 506.414C735.622 506.706 732.46 506.818 729.233 506.809L729.228 508.809C732.502 508.818 735.732 508.705 738.858 508.405L738.667 506.414ZM728.268 507.538L722.378 528.434L724.302 528.976L730.193 508.08L728.268 507.538ZM723.147 529.686L744.404 533.872L744.79 531.91L723.533 527.724L723.147 529.686ZM743.635 532.619L737.769 553.397L739.694 553.94L745.559 533.163L743.635 532.619ZM738.924 552.688L717.697 548.513L717.311 550.475L738.538 554.65L738.924 552.688ZM716.541 549.224L711.443 567.39L713.368 567.93L718.467 549.764L716.541 549.224ZM712.578 566.675L688.222 562.417L687.878 564.387L712.233 568.645L712.578 566.675ZM687.087 563.132L682.937 577.928L684.863 578.468L689.013 563.672L687.087 563.132ZM683.317 579.01C687.037 581.68 691.459 584.007 696.702 585.483L697.244 583.558C692.251 582.153 688.038 579.937 684.483 577.385L683.317 579.01ZM696.704 585.484C700.047 586.421 703.552 586.945 707.174 587.099L707.259 585.101C703.775 584.953 700.423 584.449 697.243 583.558L696.704 585.484ZM708.179 586.371L713.368 567.931L711.443 567.389L706.254 585.829L708.179 586.371ZM712.224 568.643L733.532 572.573L733.895 570.606L712.587 566.676L712.224 568.643ZM732.751 571.319L729.786 581.86L731.712 582.402L734.676 571.86L732.751 571.319ZM731.346 582.934L743.645 573.794L742.452 572.188L730.153 581.328L731.346 582.934Z" fill="white" mask="url(#path-2-outside-1_155_10)"/>
<path d="M53.5005 572.5L35.0005 497.5L53.5005 500.5L83.0005 500.5L99.5005 490L110.5 462.5L126 447L151.5 441.5L182 449.5L205 537L175.5 530.5L151.5 537L136 553L120 574.5L101.5 584.5L73.0005 582.5L53.5005 572.5Z" fill="white"/>
<mask id="path-5-outside-2_155_10" maskUnits="userSpaceOnUse" x="-1.6569" y="373.804" width="357.909" height="352.796" fill="black">
<rect fill="white" x="-1.6569" y="373.804" width="357.909" height="352.796"/>
<path d="M113.249 487.078L119.751 510.175L147.513 504.678L140.824 480.893L161.593 475.058L155.757 454.269L134.958 460.115L140.784 480.895L113.249 487.078ZM153.339 525.458L147.494 504.699L168.283 498.843L174.128 519.601L153.339 525.458ZM52.9191 576.013L57.5155 577.488C74.7816 588.385 93.1121 588.32 103.585 585.369C126.249 578.986 134.82 558.687 135.172 557.847C142.174 546.006 151.508 538.251 162.737 535.099C183.536 529.252 204.235 541.147 204.46 541.296L209.498 544.263L246.944 677.484L260.307 673.753L193.625 436.501C196.031 435.334 197.398 432.641 196.648 429.969C195.793 426.933 192.667 425.187 189.64 426.032L178.618 429.146C175.611 429.97 173.846 433.117 174.701 436.153C175.415 438.678 177.727 440.21 180.251 440.182L182.065 446.597L181.874 446.535C163.118 439.649 147.012 438.018 134.025 441.692C110.437 448.334 105.447 469.614 105.247 470.517C101.219 488.942 91.1154 495.417 83.3539 497.597C80.023 498.524 77.6742 498.465 77.6742 498.465C56.387 500.773 40.2323 494.73 33.9993 492.878C27.7861 491.025 32.6126 502.342 32.6126 502.342L52.9191 576.013ZM46.882 501.466L48.3933 506.84L39.3804 508.347L36.4266 497.815C38.9526 498.533 42.8201 500.635 46.882 501.466ZM197.323 532.682L201.066 531.638L201.843 534.468C200.576 533.915 198.999 533.287 197.323 532.682ZM131.994 553.727L130.694 549.1L134.828 549.54C133.851 550.874 132.877 552.268 131.994 553.727ZM110.892 558.513L105.794 540.347L81.728 545.577L75.9021 524.797L99.9697 519.607L93.9218 498.052C95.932 496.693 97.9666 494.976 99.9127 492.815L113.25 487.098L109.543 473.814C109.72 473.061 109.918 472.346 110.094 471.573C110.153 471.322 110.616 469.364 111.86 466.597L134.958 460.115L131.519 447.764C132.712 447.276 134.006 446.843 135.371 446.457C140.696 444.958 146.642 444.506 153.144 444.965L155.777 454.268L174 449.127C175.643 449.644 177.266 450.162 178.962 450.765L183.894 468.779L161.593 475.058L168.283 498.843L190.397 492.622L196.085 513.427L174.128 519.601L176.638 528.602C171.75 528.442 166.598 528.86 161.371 530.315C159.289 530.921 157.294 531.702 155.321 532.541L153.339 525.458L125.655 531.16L119.751 510.175L99.9887 519.586L105.823 540.336L125.645 531.17L130.473 548.363L110.892 558.513ZM56.1631 569.075L56.0109 568.534L65.4987 567.673L60.4805 549.752L51.2509 551.309L45.1036 529.051L54.6443 528.963L48.4149 506.879L60.4498 503.493C63.5345 503.789 66.7307 503.902 69.9814 503.893L75.8719 524.789L54.615 528.975L60.4805 549.752L81.7081 545.578L86.8064 563.744L111.162 559.485L115.312 574.282C111.675 576.892 107.357 579.164 102.238 580.605C98.9766 581.519 95.5486 582.033 91.9958 582.184L86.8064 563.744L65.4987 567.673L68.4629 578.215L56.1631 569.075Z"/>
</mask>
<path d="M113.249 487.078L119.751 510.175L147.513 504.678L140.824 480.893L161.593 475.058L155.757 454.269L134.958 460.115L140.784 480.895L113.249 487.078ZM153.339 525.458L147.494 504.699L168.283 498.843L174.128 519.601L153.339 525.458ZM52.9191 576.013L57.5155 577.488C74.7816 588.385 93.1121 588.32 103.585 585.369C126.249 578.986 134.82 558.687 135.172 557.847C142.174 546.006 151.508 538.251 162.737 535.099C183.536 529.252 204.235 541.147 204.46 541.296L209.498 544.263L246.944 677.484L260.307 673.753L193.625 436.501C196.031 435.334 197.398 432.641 196.648 429.969C195.793 426.933 192.667 425.187 189.64 426.032L178.618 429.146C175.611 429.97 173.846 433.117 174.701 436.153C175.415 438.678 177.727 440.21 180.251 440.182L182.065 446.597L181.874 446.535C163.118 439.649 147.012 438.018 134.025 441.692C110.437 448.334 105.447 469.614 105.247 470.517C101.219 488.942 91.1154 495.417 83.3539 497.597C80.023 498.524 77.6742 498.465 77.6742 498.465C56.387 500.773 40.2323 494.73 33.9993 492.878C27.7861 491.025 32.6126 502.342 32.6126 502.342L52.9191 576.013ZM46.882 501.466L48.3933 506.84L39.3804 508.347L36.4266 497.815C38.9526 498.533 42.8201 500.635 46.882 501.466ZM197.323 532.682L201.066 531.638L201.843 534.468C200.576 533.915 198.999 533.287 197.323 532.682ZM131.994 553.727L130.694 549.1L134.828 549.54C133.851 550.874 132.877 552.268 131.994 553.727ZM110.892 558.513L105.794 540.347L81.728 545.577L75.9021 524.797L99.9697 519.607L93.9218 498.052C95.932 496.693 97.9666 494.976 99.9127 492.815L113.25 487.098L109.543 473.814C109.72 473.061 109.918 472.346 110.094 471.573C110.153 471.322 110.616 469.364 111.86 466.597L134.958 460.115L131.519 447.764C132.712 447.276 134.006 446.843 135.371 446.457C140.696 444.958 146.642 444.506 153.144 444.965L155.777 454.268L174 449.127C175.643 449.644 177.266 450.162 178.962 450.765L183.894 468.779L161.593 475.058L168.283 498.843L190.397 492.622L196.085 513.427L174.128 519.601L176.638 528.602C171.75 528.442 166.598 528.86 161.371 530.315C159.289 530.921 157.294 531.702 155.321 532.541L153.339 525.458L125.655 531.16L119.751 510.175L99.9887 519.586L105.823 540.336L125.645 531.17L130.473 548.363L110.892 558.513ZM56.1631 569.075L56.0109 568.534L65.4987 567.673L60.4805 549.752L51.2509 551.309L45.1036 529.051L54.6443 528.963L48.4149 506.879L60.4498 503.493C63.5345 503.789 66.7307 503.902 69.9814 503.893L75.8719 524.789L54.615 528.975L60.4805 549.752L81.7081 545.578L86.8064 563.744L111.162 559.485L115.312 574.282C111.675 576.892 107.357 579.164 102.238 580.605C98.9766 581.519 95.5486 582.033 91.9958 582.184L86.8064 563.744L65.4987 567.673L68.4629 578.215L56.1631 569.075Z" fill="#030104"/>
<path d="M113.249 487.078L112.287 487.349L112.001 486.333L113.03 486.102L113.249 487.078ZM147.513 504.678L148.476 504.407L148.769 505.449L147.708 505.659L147.513 504.678ZM140.824 480.893L139.861 481.164L139.59 480.201L140.553 479.93L140.824 480.893ZM155.757 454.269L155.486 453.306L156.449 453.035L156.72 453.998L155.757 454.269ZM140.784 480.895L141.747 480.625L142.032 481.64L141.003 481.87L140.784 480.895ZM147.494 504.699L146.532 504.97L146.261 504.007L147.223 503.736L147.494 504.699ZM52.9191 576.013L52.6136 576.966L52.0988 576.8L51.9551 576.279L52.9191 576.013ZM57.5155 577.488L57.821 576.536L57.9419 576.574L58.0492 576.642L57.5155 577.488ZM103.585 585.369L103.313 584.407L103.314 584.407L103.585 585.369ZM135.172 557.847L134.25 557.46L134.276 557.397L134.311 557.338L135.172 557.847ZM162.737 535.099L163.008 536.062L163.008 536.062L162.737 535.099ZM204.46 541.296L203.952 542.158L203.929 542.144L203.907 542.129L204.46 541.296ZM209.498 544.263L210.005 543.402L210.351 543.606L210.46 543.993L209.498 544.263ZM246.944 677.484L247.213 678.447L246.252 678.715L245.982 677.754L246.944 677.484ZM260.307 673.753L261.269 673.483L261.54 674.447L260.576 674.716L260.307 673.753ZM193.625 436.501L192.663 436.771L192.436 435.966L193.189 435.601L193.625 436.501ZM196.648 429.969L197.611 429.698L197.611 429.699L196.648 429.969ZM189.64 426.032L189.368 425.07L189.372 425.069L189.64 426.032ZM178.618 429.146L178.89 430.108L178.882 430.11L178.618 429.146ZM174.701 436.153L173.738 436.425L173.738 436.424L174.701 436.153ZM180.251 440.182L180.24 439.182L181.005 439.173L181.213 439.91L180.251 440.182ZM182.065 446.597L183.027 446.325L183.535 448.118L181.76 447.549L182.065 446.597ZM181.874 446.535L181.568 447.488L181.548 447.481L181.529 447.474L181.874 446.535ZM134.025 441.692L134.297 442.655L134.296 442.655L134.025 441.692ZM105.247 470.517L104.27 470.303L104.27 470.301L105.247 470.517ZM83.3539 497.597L83.6243 498.559L83.6221 498.56L83.3539 497.597ZM77.6742 498.465L77.5664 497.471L77.6327 497.464L77.6993 497.465L77.6742 498.465ZM33.9993 492.878L33.7144 493.836L33.7135 493.836L33.9993 492.878ZM32.6126 502.342L33.5325 501.95L33.5588 502.011L33.5767 502.076L32.6126 502.342ZM46.882 501.466L47.0825 500.486L47.6797 500.609L47.8447 501.195L46.882 501.466ZM48.3933 506.84L49.356 506.569L49.6578 507.642L48.5583 507.826L48.3933 506.84ZM39.3804 508.347L39.5453 509.333L38.6599 509.482L38.4175 508.617L39.3804 508.347ZM36.4266 497.815L35.4637 498.085L34.9813 496.365L36.6999 496.853L36.4266 497.815ZM197.323 532.682L196.983 533.623L194.038 532.56L197.054 531.719L197.323 532.682ZM201.066 531.638L200.797 530.675L201.765 530.405L202.03 531.373L201.066 531.638ZM201.843 534.468L202.807 534.203L203.361 536.222L201.443 535.385L201.843 534.468ZM131.994 553.727L132.85 554.244L131.656 556.219L131.032 553.998L131.994 553.727ZM130.694 549.1L129.731 549.37L129.331 547.949L130.8 548.105L130.694 549.1ZM134.828 549.54L134.934 548.546L136.662 548.73L135.635 550.131L134.828 549.54ZM110.892 558.513L111.352 559.401L110.261 559.966L109.929 558.783L110.892 558.513ZM105.794 540.347L105.581 539.37L106.502 539.17L106.757 540.077L105.794 540.347ZM81.728 545.577L81.9404 546.554L81.0195 546.754L80.7651 545.847L81.728 545.577ZM75.9021 524.797L74.9392 525.067L74.6523 524.044L75.6913 523.82L75.9021 524.797ZM99.9697 519.607L100.932 519.337L101.22 520.36L100.18 520.585L99.9697 519.607ZM93.9218 498.052L92.959 498.322L92.7641 497.627L93.362 497.223L93.9218 498.052ZM99.9127 492.815L99.1697 492.146L99.3167 491.983L99.5187 491.896L99.9127 492.815ZM113.25 487.098L114.213 486.829L114.449 487.672L113.644 488.017L113.25 487.098ZM109.543 473.814L108.58 474.083L108.511 473.835L108.569 473.585L109.543 473.814ZM110.094 471.573L109.119 471.351L109.12 471.345L110.094 471.573ZM111.86 466.597L110.948 466.186L111.14 465.76L111.59 465.634L111.86 466.597ZM131.519 447.764L130.556 448.033L130.318 447.176L131.14 446.839L131.519 447.764ZM135.371 446.457L135.099 445.495L135.1 445.495L135.371 446.457ZM153.144 444.965L153.214 443.967L153.915 444.017L154.106 444.692L153.144 444.965ZM155.777 454.268L156.048 455.23L155.087 455.501L154.814 454.54L155.777 454.268ZM174 449.127L173.729 448.165L174.016 448.084L174.3 448.173L174 449.127ZM178.962 450.765L179.297 449.823L179.788 449.998L179.926 450.501L178.962 450.765ZM183.894 468.779L184.859 468.515L185.121 469.473L184.165 469.742L183.894 468.779ZM190.397 492.622L190.127 491.659L191.096 491.386L191.362 492.358L190.397 492.622ZM196.085 513.427L197.05 513.163L197.312 514.121L196.356 514.39L196.085 513.427ZM176.638 528.602L177.602 528.333L177.968 529.646L176.606 529.601L176.638 528.602ZM161.371 530.315L161.091 529.355L161.102 529.352L161.371 530.315ZM155.321 532.541L155.713 533.462L154.665 533.908L154.358 532.811L155.321 532.541ZM125.655 531.16L125.857 532.139L124.944 532.327L124.692 531.431L125.655 531.16ZM99.9887 519.586L99.026 519.857L98.7979 519.046L99.5587 518.683L99.9887 519.586ZM105.823 540.336L106.243 541.243L105.178 541.736L104.861 540.606L105.823 540.336ZM125.645 531.17L125.226 530.263L126.291 529.77L126.608 530.9L125.645 531.17ZM130.473 548.363L131.436 548.093L131.656 548.877L130.934 549.251L130.473 548.363ZM56.1631 569.075L55.5667 569.877L55.2931 569.674L55.2006 569.346L56.1631 569.075ZM56.0109 568.534L55.0483 568.806L54.722 567.647L55.9205 567.539L56.0109 568.534ZM51.2509 551.309L51.4172 552.295L50.5273 552.445L50.287 551.575L51.2509 551.309ZM45.1036 529.051L44.1397 529.318L43.7933 528.064L45.0944 528.052L45.1036 529.051ZM54.6443 528.963L55.6068 528.692L55.962 529.951L54.6535 529.963L54.6443 528.963ZM48.4149 506.879L47.4524 507.15L47.1808 506.187L48.1441 505.916L48.4149 506.879ZM60.4498 503.493L60.179 502.531L60.3591 502.48L60.5454 502.498L60.4498 503.493ZM69.9814 503.893L69.9786 502.893L70.7379 502.891L70.9439 503.621L69.9814 503.893ZM75.8719 524.789L76.8344 524.517L77.1284 525.561L76.0651 525.77L75.8719 524.789ZM54.615 528.975L53.6526 529.246L53.358 528.203L54.4217 527.993L54.615 528.975ZM81.7081 545.578L81.5152 544.597L82.4214 544.418L82.6709 545.308L81.7081 545.578ZM111.162 559.485L110.99 558.5L111.881 558.345L112.125 559.215L111.162 559.485ZM115.312 574.282L116.274 574.012L116.464 574.686L115.895 575.094L115.312 574.282ZM102.238 580.605L102.509 581.567L102.508 581.567L102.238 580.605ZM91.9958 582.184L92.0383 583.183L91.2476 583.217L91.0332 582.455L91.9958 582.184ZM68.4629 578.215L69.4255 577.944L70.2189 580.766L67.8664 579.018L68.4629 578.215ZM114.212 486.807L120.713 509.904L118.788 510.446L112.287 487.349L114.212 486.807ZM119.556 509.194L147.319 503.697L147.708 505.659L119.945 511.156L119.556 509.194ZM146.551 504.949L139.861 481.164L141.787 480.622L148.476 504.407L146.551 504.949ZM140.553 479.93L161.323 474.095L161.864 476.02L141.094 481.856L140.553 479.93ZM160.63 475.328L154.794 454.539L156.72 453.998L162.556 474.787L160.63 475.328ZM156.027 455.231L135.229 461.078L134.688 459.153L155.486 453.306L156.027 455.231ZM135.921 459.845L141.747 480.625L139.821 481.165L133.995 460.385L135.921 459.845ZM141.003 481.87L113.468 488.054L113.03 486.102L140.565 479.919L141.003 481.87ZM152.377 525.729L146.532 504.97L148.457 504.428L154.302 525.187L152.377 525.729ZM147.223 503.736L168.011 497.88L168.554 499.805L147.766 505.661L147.223 503.736ZM169.245 498.572L175.09 519.33L173.165 519.872L167.32 499.114L169.245 498.572ZM174.399 520.564L153.611 526.42L153.068 524.495L173.856 518.639L174.399 520.564ZM53.2246 575.061L57.821 576.536L57.21 578.44L52.6136 576.966L53.2246 575.061ZM58.0492 576.642C75.0476 587.37 93.0799 587.291 103.313 584.407L103.856 586.332C93.1442 589.35 74.5156 589.4 56.9818 578.334L58.0492 576.642ZM103.314 584.407C125.507 578.156 133.918 558.252 134.25 557.46L136.094 558.233C135.722 559.123 126.992 579.816 103.856 586.332L103.314 584.407ZM134.311 557.338C141.417 545.321 150.943 537.371 162.467 534.136L163.008 536.062C152.073 539.131 142.931 546.691 136.033 558.356L134.311 557.338ZM162.467 534.136C173.114 531.143 183.693 532.699 191.592 534.989C199.483 537.275 204.808 540.327 205.013 540.463L203.907 542.129C203.918 542.137 202.641 541.392 200.357 540.353C198.094 539.324 194.881 538.024 191.035 536.91C183.329 534.676 173.16 533.208 163.008 536.062L162.467 534.136ZM204.967 540.435L210.005 543.402L208.99 545.125L203.952 542.158L204.967 540.435ZM210.46 543.993L247.907 677.213L245.982 677.754L208.535 544.534L210.46 543.993ZM246.675 676.521L260.038 672.79L260.576 674.716L247.213 678.447L246.675 676.521ZM259.344 674.024L192.663 436.771L194.588 436.23L261.269 673.483L259.344 674.024ZM193.189 435.601C195.193 434.629 196.295 432.41 195.685 430.239L197.611 429.699C198.502 432.872 196.87 436.039 194.062 437.4L193.189 435.601ZM195.686 430.24C194.981 427.737 192.406 426.298 189.909 426.995L189.372 425.069C192.927 424.077 196.606 426.13 197.611 429.698L195.686 430.24ZM189.912 426.994L178.89 430.108L178.346 428.184L189.368 425.07L189.912 426.994ZM178.882 430.11C176.418 430.786 174.957 433.373 175.663 435.882L173.738 436.424C172.735 432.862 174.803 429.154 178.354 428.182L178.882 430.11ZM175.663 435.881C176.242 437.929 178.122 439.205 180.24 439.182L180.262 441.182C177.332 441.214 174.587 439.426 173.738 436.425L175.663 435.881ZM181.213 439.91L183.027 446.325L181.103 446.869L179.289 440.454L181.213 439.91ZM181.76 447.549L181.568 447.488L182.179 445.583L182.371 445.645L181.76 447.549ZM181.529 447.474C162.881 440.627 147.005 439.059 134.297 442.655L133.753 440.73C147.019 436.976 163.355 438.67 182.218 445.597L181.529 447.474ZM134.296 442.655C111.273 449.137 106.406 469.908 106.223 470.733L104.27 470.301C104.488 469.32 109.6 447.531 133.754 440.73L134.296 442.655ZM106.224 470.731C104.177 480.094 100.569 486.493 96.4243 490.839C92.2805 495.185 87.6472 497.43 83.6243 498.559L83.0835 496.634C86.8221 495.584 91.1214 493.502 94.9769 489.459C98.8314 485.417 102.289 479.365 104.27 470.303L106.224 470.731ZM83.6221 498.56C81.8935 499.041 80.4164 499.268 79.3652 499.373C78.8393 499.426 78.4191 499.449 78.1261 499.459C77.9795 499.464 77.8647 499.465 77.7844 499.466C77.7442 499.466 77.7126 499.466 77.6899 499.465C77.6786 499.465 77.6695 499.465 77.6626 499.465C77.6592 499.465 77.6564 499.465 77.6541 499.465C77.653 499.465 77.652 499.465 77.6511 499.465C77.6507 499.465 77.6503 499.465 77.65 499.465C77.6498 499.465 77.6496 499.465 77.6495 499.465C77.6492 499.465 77.649 499.465 77.6742 498.465C77.6993 497.465 77.6991 497.465 77.6989 497.465C77.6989 497.465 77.6987 497.465 77.6986 497.465C77.6984 497.465 77.6982 497.465 77.6981 497.465C77.6978 497.465 77.6976 497.465 77.6977 497.465C77.6977 497.465 77.6982 497.465 77.6994 497.465C77.7016 497.465 77.7061 497.465 77.7128 497.465C77.7262 497.466 77.7483 497.466 77.7788 497.466C77.8399 497.465 77.9346 497.464 78.0604 497.46C78.3119 497.452 78.687 497.432 79.1647 497.384C80.1206 497.287 81.4834 497.079 83.0857 496.633L83.6221 498.56ZM77.782 499.459C56.2604 501.793 39.9091 495.677 33.7144 493.836L34.2842 491.919C40.5555 493.783 56.5136 499.753 77.5664 497.471L77.782 499.459ZM33.7135 493.836C33.0381 493.635 32.6423 493.653 32.4304 493.714C32.2572 493.763 32.1434 493.856 32.0464 494.04C31.9326 494.257 31.8472 494.6 31.8295 495.094C31.8121 495.578 31.8617 496.142 31.9626 496.752C32.1645 497.971 32.5537 499.268 32.9011 500.277C33.0735 500.777 33.2327 501.199 33.3485 501.494C33.4063 501.642 33.4531 501.758 33.4851 501.836C33.5011 501.875 33.5133 501.904 33.5214 501.923C33.5254 501.933 33.5284 501.94 33.5303 501.944C33.5312 501.947 33.5319 501.948 33.5322 501.949C33.5324 501.949 33.5325 501.95 33.5326 501.95C33.5326 501.95 33.5326 501.95 33.5326 501.95C33.5325 501.95 33.5325 501.95 32.6126 502.342C31.6928 502.734 31.6927 502.734 31.6926 502.734C31.6925 502.734 31.6924 502.733 31.6923 502.733C31.692 502.732 31.6917 502.732 31.6913 502.731C31.6905 502.729 31.6894 502.726 31.6881 502.723C31.6853 502.717 31.6815 502.707 31.6766 502.696C31.6668 502.672 31.6527 502.638 31.6348 502.595C31.5991 502.508 31.5483 502.382 31.4863 502.224C31.3624 501.908 31.1931 501.46 31.0101 500.928C30.6466 499.873 30.2176 498.456 29.9895 497.078C29.8753 496.389 29.807 495.683 29.8308 495.022C29.8542 494.37 29.9691 493.693 30.2765 493.109C30.6007 492.493 31.1292 492.005 31.8813 491.791C32.5946 491.587 33.4072 491.658 34.2851 491.919L33.7135 493.836ZM33.5767 502.076L53.8832 575.748L51.9551 576.279L31.6486 502.608L33.5767 502.076ZM47.8447 501.195L49.356 506.569L47.4307 507.111L45.9194 501.737L47.8447 501.195ZM48.5583 507.826L39.5453 509.333L39.2154 507.361L48.2284 505.854L48.5583 507.826ZM38.4175 508.617L35.4637 498.085L37.3894 497.545L40.3432 508.077L38.4175 508.617ZM36.6999 496.853C38.0302 497.231 39.7182 497.974 41.4511 498.67C43.2301 499.385 45.1437 500.09 47.0825 500.486L46.6815 502.446C44.5584 502.011 42.5073 501.25 40.7056 500.526C38.8577 499.784 37.3489 499.117 36.1533 498.777L36.6999 496.853ZM197.054 531.719L200.797 530.675L201.335 532.601L197.591 533.645L197.054 531.719ZM202.03 531.373L202.807 534.203L200.878 534.733L200.102 531.902L202.03 531.373ZM201.443 535.385C200.199 534.842 198.641 534.221 196.983 533.623L197.662 531.741C199.356 532.353 200.954 532.989 202.243 533.552L201.443 535.385ZM131.032 553.998L129.731 549.37L131.656 548.829L132.957 553.456L131.032 553.998ZM130.8 548.105L134.934 548.546L134.723 550.534L130.588 550.094L130.8 548.105ZM135.635 550.131C134.666 551.454 133.711 552.821 132.85 554.244L131.138 553.21C132.043 551.714 133.037 550.294 134.022 548.949L135.635 550.131ZM109.929 558.783L104.831 540.617L106.757 540.077L111.855 558.243L109.929 558.783ZM106.006 541.324L81.9404 546.554L81.5156 544.6L105.581 539.37L106.006 541.324ZM80.7651 545.847L74.9392 525.067L76.865 524.527L82.6909 545.307L80.7651 545.847ZM75.6913 523.82L99.7589 518.63L100.18 520.585L76.1129 525.775L75.6913 523.82ZM99.0068 519.877L92.959 498.322L94.8847 497.781L100.932 519.337L99.0068 519.877ZM93.362 497.223C95.307 495.909 97.2797 494.245 99.1697 492.146L100.656 493.485C98.6535 495.708 96.5569 497.478 94.4817 498.88L93.362 497.223ZM99.5187 491.896L112.856 486.179L113.644 488.017L100.307 493.735L99.5187 491.896ZM112.287 487.366L108.58 474.083L110.506 473.545L114.213 486.829L112.287 487.366ZM108.569 473.585C108.66 473.198 108.757 472.821 108.849 472.455C108.943 472.086 109.034 471.725 109.119 471.351L111.069 471.795C110.978 472.195 110.882 472.577 110.788 472.947C110.694 473.319 110.602 473.676 110.517 474.042L108.569 473.585ZM109.12 471.345C109.189 471.053 109.67 469.029 110.948 466.186L112.772 467.007C111.562 469.698 111.117 471.591 111.067 471.802L109.12 471.345ZM111.59 465.634L134.688 459.152L135.228 461.078L112.131 467.559L111.59 465.634ZM133.995 460.383L130.556 448.033L132.483 447.496L135.922 459.847L133.995 460.383ZM131.14 446.839C132.375 446.334 133.705 445.889 135.099 445.495L135.643 447.419C134.306 447.798 133.049 448.219 131.898 448.69L131.14 446.839ZM135.1 445.495C140.561 443.957 146.626 443.502 153.214 443.967L153.073 445.962C146.658 445.509 140.831 445.959 135.642 447.42L135.1 445.495ZM154.106 444.692L156.739 453.995L154.814 454.54L152.181 445.237L154.106 444.692ZM155.505 453.305L173.729 448.165L174.272 450.09L156.048 455.23L155.505 453.305ZM174.3 448.173C175.944 448.69 177.582 449.213 179.297 449.823L178.626 451.707C176.949 451.11 175.342 450.598 173.7 450.081L174.3 448.173ZM179.926 450.501L184.859 468.515L182.93 469.043L177.997 451.029L179.926 450.501ZM184.165 469.742L161.864 476.02L161.322 474.095L183.623 467.817L184.165 469.742ZM162.556 474.787L169.245 498.572L167.32 499.113L160.63 475.328L162.556 474.787ZM168.012 497.88L190.127 491.659L190.668 493.585L168.553 499.805L168.012 497.88ZM191.362 492.358L197.05 513.163L195.121 513.691L189.433 492.886L191.362 492.358ZM196.356 514.39L174.398 520.564L173.857 518.639L195.815 512.464L196.356 514.39ZM175.091 519.333L177.602 528.333L175.675 528.87L173.164 519.87L175.091 519.333ZM176.606 529.601C171.797 529.444 166.749 529.856 161.639 531.279L161.102 529.352C166.447 527.864 171.703 527.44 176.671 527.602L176.606 529.601ZM161.65 531.276C159.623 531.865 157.669 532.629 155.713 533.462L154.93 531.621C156.918 530.775 158.954 529.977 161.091 529.355L161.65 531.276ZM154.358 532.811L152.376 525.727L154.302 525.188L156.284 532.272L154.358 532.811ZM153.541 526.437L125.857 532.139L125.453 530.18L153.138 524.478L153.541 526.437ZM124.692 531.431L118.788 510.446L120.713 509.904L126.617 530.889L124.692 531.431ZM120.181 511.078L100.419 520.489L99.5587 518.683L119.321 509.272L120.181 511.078ZM100.951 519.316L106.786 540.065L104.861 540.606L99.026 519.857L100.951 519.316ZM105.404 539.428L125.226 530.263L126.065 532.078L106.243 541.243L105.404 539.428ZM126.608 530.9L131.436 548.093L129.511 548.634L124.683 531.441L126.608 530.9ZM130.934 549.251L111.352 559.401L110.432 557.625L130.013 547.475L130.934 549.251ZM55.2006 569.346L55.0483 568.806L56.9734 568.263L57.1256 568.804L55.2006 569.346ZM55.9205 567.539L65.4083 566.677L65.5891 568.669L56.1013 569.53L55.9205 567.539ZM64.5358 567.943L59.5176 550.022L61.4435 549.483L66.4617 567.404L64.5358 567.943ZM60.6468 550.739L51.4172 552.295L51.0847 550.323L60.3143 548.766L60.6468 550.739ZM50.287 551.575L44.1397 529.318L46.0676 528.785L52.2149 551.042L50.287 551.575ZM45.0944 528.052L54.6351 527.963L54.6535 529.963L45.1129 530.051L45.0944 528.052ZM53.6819 529.235L47.4524 507.15L49.3773 506.607L55.6068 528.692L53.6819 529.235ZM48.1441 505.916L60.179 502.531L60.7206 504.456L48.6857 507.841L48.1441 505.916ZM60.5454 502.498C63.5896 502.79 66.7519 502.902 69.9786 502.893L69.9842 504.893C66.7096 504.902 63.4794 504.789 60.3542 504.489L60.5454 502.498ZM70.9439 503.621L76.8344 524.517L74.9094 525.06L69.0189 504.164L70.9439 503.621ZM76.0651 525.77L54.8082 529.956L54.4217 527.993L75.6787 523.808L76.0651 525.77ZM55.5773 528.703L61.4429 549.481L59.5182 550.024L53.6526 529.246L55.5773 528.703ZM60.2876 548.771L81.5152 544.597L81.9011 546.559L60.6735 550.734L60.2876 548.771ZM82.6709 545.308L87.7692 563.473L85.8436 564.014L80.7453 545.848L82.6709 545.308ZM86.6341 562.759L110.99 558.5L111.334 560.471L86.9786 564.729L86.6341 562.759ZM112.125 559.215L116.274 574.012L114.349 574.552L110.199 559.756L112.125 559.215ZM115.895 575.094C112.175 577.764 107.753 580.091 102.509 581.567L101.968 579.642C106.961 578.236 111.174 576.02 114.728 573.469L115.895 575.094ZM102.508 581.567C99.1649 582.505 95.6598 583.029 92.0383 583.183L91.9532 581.185C95.4374 581.037 98.7884 580.533 101.969 579.642L102.508 581.567ZM91.0332 582.455L85.8437 564.015L87.769 563.473L92.9584 581.913L91.0332 582.455ZM86.9877 564.727L65.6801 568.657L65.3174 566.69L86.625 562.76L86.9877 564.727ZM66.4614 567.403L69.4255 577.944L67.5002 578.486L64.5361 567.944L66.4614 567.403ZM67.8664 579.018L55.5667 569.877L56.7596 568.272L69.0593 577.412L67.8664 579.018Z" fill="white" mask="url(#path-5-outside-2_155_10)"/>
<path fill-rule="evenodd" clip-rule="evenodd" d="M236.684 638.934C303.422 638.934 357.527 584.831 357.527 518.091V462.704H443.124V518.091C443.124 584.831 498.51 638.934 563.967 638.934C629.423 638.934 152.144 638.934 236.684 638.934Z" fill="#FCC402"/>
<path fill-rule="evenodd" clip-rule="evenodd" d="M563.967 719.496H236.684C214.437 719.496 196.403 701.46 196.403 679.215C196.403 656.967 214.437 638.934 236.684 638.934C260.065 638.934 541.249 638.934 563.967 638.934C586.212 638.934 604.248 656.967 604.248 679.215C604.248 701.46 586.212 719.496 563.967 719.496Z" fill="#FCE202"/>
<path fill-rule="evenodd" clip-rule="evenodd" d="M702.433 231.089H672.222C624.947 231.089 584.107 269.411 584.107 316.686H569.002V231.089C576.001 196.616 605.471 170.667 642.011 170.667H702.433C713.555 170.667 722.573 179.685 722.573 190.808V210.948C722.573 222.071 713.555 231.089 702.433 231.089ZM128.429 231.089H98.2181C87.0955 231.089 78.0776 222.071 78.0776 210.948V190.808C78.0776 179.685 87.0955 170.667 98.2181 170.667H158.64C195.177 170.667 224.65 196.616 231.649 231.089V316.686H216.543C216.543 269.411 175.704 231.089 128.429 231.089Z" fill="#FCE202"/>
<path fill-rule="evenodd" clip-rule="evenodd" d="M214.026 155.562H586.625V321.721C586.625 424.611 503.216 508.02 400.325 508.02C297.435 508.02 214.026 424.611 214.026 321.721V155.562Z" fill="url(#paint0_linear_155_10)"/>
<path fill-rule="evenodd" clip-rule="evenodd" d="M208.991 75H591.66C602.782 75 611.8 84.0179 611.8 95.1405V115.281C611.8 126.404 602.782 135.421 591.66 135.421H208.991C197.868 135.421 188.85 126.404 188.85 115.281V95.1405C188.85 84.0179 197.868 75 208.991 75Z" fill="#FCC402"/>
<path fill-rule="evenodd" clip-rule="evenodd" d="M488.078 302.459C473.803 317.323 455.369 337.39 455.369 337.39C455.369 337.39 458.534 362.392 461.009 382.502C463.572 403.31 452.026 401.409 439.476 395.755C421.395 387.608 400.325 377.389 400.325 377.389C400.325 377.389 379.256 387.608 361.175 395.755C348.625 401.409 337.077 403.31 339.64 382.502C342.117 362.392 345.281 337.39 345.281 337.39C345.281 337.39 326.848 317.323 312.573 302.459C305.343 294.932 303.404 284.672 318.855 281.78C339.159 277.976 366.306 272.661 366.306 272.661C366.306 272.661 377.977 246.096 388.395 228.03C393.745 218.75 406.906 218.75 412.256 228.03C422.674 246.096 434.345 272.661 434.345 272.661C434.345 272.661 461.492 277.976 481.796 281.78C497.244 284.672 495.308 294.932 488.078 302.459Z" fill="white"/>
</g>
<defs>
<linearGradient id="paint0_linear_155_10" x1="400.325" y1="508.02" x2="400.325" y2="155.562" gradientUnits="userSpaceOnUse">
<stop stop-color="#FC9502"/>
<stop offset="1" stop-color="#FCBE02"/>
</linearGradient>
<clipPath id="clip0_155_10">
<rect width="800" height="800" fill="white"/>
</clipPath>
</defs>
</svg>
