<svg width="800" height="800" viewBox="0 0 800 800" fill="none" xmlns="http://www.w3.org/2000/svg">
<g clip-path="url(#clip0_155_10)">
<path d="M687.134 487.078L680.633 510.175L652.87 504.678L659.56 480.893L638.791 475.057L644.627 454.268L665.425 460.115L659.6 480.894L687.134 487.078ZM647.044 525.457L652.889 504.698L632.101 498.842L626.256 519.601L647.044 525.457ZM747.465 576.013L742.868 577.488C725.602 588.385 707.272 588.32 696.799 585.369C674.134 578.986 665.564 558.687 665.212 557.847C658.209 546.006 648.876 538.251 637.646 535.099C616.848 529.252 596.149 541.146 595.924 541.296L590.886 544.263L553.44 677.484L540.077 673.753L606.758 436.5C604.352 435.334 602.986 432.641 603.736 429.969C604.591 426.933 607.717 425.187 610.743 426.032L621.766 429.146C624.773 429.97 626.538 433.117 625.683 436.153C624.969 438.677 622.657 440.209 620.133 440.182L618.319 446.597L618.51 446.535C637.266 439.648 653.372 438.018 666.359 441.692C689.947 448.334 694.937 469.613 695.137 470.517C699.165 488.942 709.268 495.417 717.03 497.596C720.361 498.524 722.71 498.465 722.71 498.465C743.997 500.773 760.151 494.73 766.385 492.877C772.598 491.024 767.771 502.342 767.771 502.342L747.465 576.013ZM753.502 501.466L751.99 506.84L761.003 508.347L763.957 497.815C761.431 498.532 757.564 500.635 753.502 501.466ZM603.061 532.682L599.318 531.638L598.541 534.468C599.807 533.915 601.385 533.286 603.061 532.682ZM668.39 553.727L669.69 549.099L665.555 549.54C666.533 550.874 667.507 552.267 668.39 553.727ZM689.492 558.512L694.59 540.347L718.656 545.577L724.482 524.797L700.414 519.607L706.462 498.051C704.452 496.693 702.417 494.976 700.471 492.815L687.134 487.097L690.841 473.814C690.664 473.06 690.466 472.346 690.29 471.573C690.231 471.322 689.768 469.363 688.523 466.596L665.425 460.115L668.864 447.764C667.672 447.276 666.378 446.843 665.013 446.457C659.688 444.958 653.742 444.506 647.24 444.964L644.607 454.268L626.383 449.127C624.741 449.644 623.118 450.161 621.422 450.765L616.489 468.779L638.791 475.057L632.101 498.842L609.986 492.622L604.299 513.427L626.256 519.601L623.745 528.601C628.634 528.442 633.786 528.86 639.013 530.315C641.095 530.921 643.09 531.702 645.063 532.541L647.044 525.457L674.729 531.16L680.633 510.175L700.395 519.586L694.561 540.335L674.738 531.17L669.91 548.363L689.492 558.512ZM744.221 569.075L744.373 568.534L734.885 567.673L739.903 549.752L749.133 551.308L755.28 529.051L745.739 528.963L751.969 506.879L739.934 503.493C736.849 503.789 733.653 503.902 730.402 503.892L724.512 524.789L745.769 528.974L739.903 549.752L718.676 545.578L713.577 563.743L689.222 559.485L685.072 574.281C688.709 576.892 693.027 579.164 698.145 580.604C701.407 581.519 704.835 582.033 708.388 582.184L713.577 563.743L734.885 567.673L731.921 578.215L744.221 569.075Z" fill="#030104"/>
<path d="M113.249 487.078L119.751 510.175L147.513 504.678L140.824 480.893L161.593 475.057L155.757 454.268L134.958 460.115L140.784 480.894L113.249 487.078ZM153.339 525.457L147.494 504.698L168.283 498.842L174.128 519.601L153.339 525.457ZM52.9191 576.013L57.5155 577.488C74.7816 588.385 93.1121 588.32 103.585 585.369C126.249 578.986 134.82 558.687 135.172 557.847C142.174 546.006 151.508 538.251 162.737 535.099C183.536 529.252 204.235 541.146 204.46 541.296L209.498 544.263L246.944 677.484L260.307 673.753L193.625 436.5C196.031 435.334 197.398 432.641 196.648 429.969C195.793 426.933 192.667 425.187 189.64 426.032L178.618 429.146C175.611 429.97 173.846 433.117 174.701 436.153C175.415 438.677 177.727 440.209 180.251 440.182L182.065 446.597L181.874 446.535C163.118 439.648 147.012 438.018 134.025 441.692C110.437 448.334 105.447 469.613 105.247 470.517C101.219 488.942 91.1154 495.417 83.3539 497.596C80.023 498.524 77.6742 498.465 77.6742 498.465C56.387 500.773 40.2323 494.73 33.9993 492.877C27.7861 491.024 32.6126 502.342 32.6126 502.342L52.9191 576.013ZM46.882 501.466L48.3933 506.84L39.3804 508.347L36.4266 497.815C38.9526 498.532 42.8201 500.635 46.882 501.466ZM197.323 532.682L201.066 531.638L201.843 534.468C200.576 533.915 198.999 533.286 197.323 532.682ZM131.994 553.727L130.694 549.099L134.828 549.54C133.851 550.874 132.877 552.267 131.994 553.727ZM110.892 558.512L105.794 540.347L81.728 545.577L75.9021 524.797L99.9697 519.607L93.9218 498.051C95.932 496.693 97.9666 494.976 99.9127 492.815L113.25 487.097L109.543 473.814C109.72 473.06 109.918 472.346 110.094 471.573C110.153 471.322 110.616 469.363 111.86 466.596L134.958 460.115L131.519 447.764C132.712 447.276 134.006 446.843 135.371 446.457C140.696 444.958 146.642 444.506 153.144 444.964L155.777 454.268L174 449.127C175.643 449.644 177.266 450.161 178.962 450.765L183.894 468.779L161.593 475.057L168.283 498.842L190.397 492.622L196.085 513.427L174.128 519.601L176.638 528.601C171.75 528.442 166.598 528.86 161.371 530.315C159.289 530.921 157.294 531.702 155.321 532.541L153.339 525.457L125.655 531.16L119.751 510.175L99.9887 519.586L105.823 540.335L125.645 531.17L130.473 548.363L110.892 558.512ZM56.1631 569.075L56.0109 568.534L65.4987 567.673L60.4806 549.752L51.2509 551.308L45.1036 529.051L54.6443 528.963L48.4149 506.879L60.4498 503.493C63.5345 503.789 66.7307 503.902 69.9814 503.892L75.8719 524.789L54.615 528.974L60.4806 549.752L81.7081 545.578L86.8064 563.743L111.162 559.485L115.312 574.281C111.675 576.892 107.357 579.164 102.238 580.604C98.9766 581.519 95.5486 582.033 91.9958 582.184L86.8064 563.743L65.4987 567.673L68.4629 578.215L56.1631 569.075Z" fill="#030104"/>
<path fill-rule="evenodd" clip-rule="evenodd" d="M236.684 638.934C303.422 638.934 357.527 584.831 357.527 518.091V462.704H443.124V518.091C443.124 584.831 498.51 638.934 563.967 638.934C629.423 638.934 152.144 638.934 236.684 638.934Z" fill="#FCC402"/>
<path fill-rule="evenodd" clip-rule="evenodd" d="M563.967 719.496H236.684C214.437 719.496 196.403 701.46 196.403 679.215C196.403 656.967 214.437 638.934 236.684 638.934C260.065 638.934 541.249 638.934 563.967 638.934C586.212 638.934 604.248 656.967 604.248 679.215C604.248 701.46 586.212 719.496 563.967 719.496Z" fill="#FCE202"/>
<path fill-rule="evenodd" clip-rule="evenodd" d="M702.433 231.089H672.222C624.947 231.089 584.107 269.411 584.107 316.686H569.002V231.089C576.001 196.616 605.471 170.667 642.011 170.667H702.433C713.555 170.667 722.573 179.685 722.573 190.808V210.948C722.573 222.071 713.555 231.089 702.433 231.089ZM128.429 231.089H98.2181C87.0955 231.089 78.0776 222.071 78.0776 210.948V190.808C78.0776 179.685 87.0955 170.667 98.2181 170.667H158.64C195.177 170.667 224.65 196.616 231.649 231.089V316.686H216.543C216.543 269.411 175.704 231.089 128.429 231.089Z" fill="#FCE202"/>
<path fill-rule="evenodd" clip-rule="evenodd" d="M214.026 155.562H586.625V321.721C586.625 424.611 503.216 508.02 400.325 508.02C297.435 508.02 214.026 424.611 214.026 321.721V155.562Z" fill="url(#paint0_linear_155_10)"/>
<path fill-rule="evenodd" clip-rule="evenodd" d="M208.991 75H591.66C602.782 75 611.8 84.0179 611.8 95.1405V115.281C611.8 126.404 602.782 135.421 591.66 135.421H208.991C197.868 135.421 188.85 126.404 188.85 115.281V95.1405C188.85 84.0179 197.868 75 208.991 75Z" fill="#FCC402"/>
<path fill-rule="evenodd" clip-rule="evenodd" d="M488.078 302.459C473.803 317.323 455.369 337.39 455.369 337.39C455.369 337.39 458.534 362.392 461.009 382.502C463.572 403.31 452.026 401.409 439.476 395.755C421.395 387.608 400.325 377.389 400.325 377.389C400.325 377.389 379.256 387.608 361.175 395.755C348.625 401.409 337.077 403.31 339.64 382.502C342.117 362.392 345.281 337.39 345.281 337.39C345.281 337.39 326.848 317.323 312.573 302.459C305.343 294.932 303.404 284.672 318.855 281.78C339.159 277.976 366.306 272.661 366.306 272.661C366.306 272.661 377.977 246.096 388.395 228.03C393.745 218.75 406.906 218.75 412.256 228.03C422.674 246.096 434.345 272.661 434.345 272.661C434.345 272.661 461.492 277.976 481.796 281.78C497.244 284.672 495.308 294.932 488.078 302.459Z" fill="white"/>
</g>
<defs>
<linearGradient id="paint0_linear_155_10" x1="400.325" y1="508.02" x2="400.325" y2="155.562" gradientUnits="userSpaceOnUse">
<stop stop-color="#FC9502"/>
<stop offset="1" stop-color="#FCBE02"/>
</linearGradient>
<clipPath id="clip0_155_10">
<rect width="800" height="800" fill="white"/>
</clipPath>
</defs>
</svg>
