<svg width="400" height="37" viewBox="0 0 400 37" fill="none" xmlns="http://www.w3.org/2000/svg">
<rect x="0.5" y="1" width="399" height="35" rx="6.5" stroke="black"/>
<rect x="127.5" y="9.5" width="18" height="18" rx="9" fill="#FC3F1D"/>
<path d="M137.768 23.909H139.649V13.109H136.914C134.163 13.109 132.718 14.5231 132.718 16.6054C132.718 18.2681 133.511 19.2471 134.925 20.2572L132.469 23.909H134.505L137.24 19.8221L136.292 19.185C135.142 18.408 134.583 17.802 134.583 16.4966C134.583 15.3467 135.391 14.5697 136.929 14.5697H137.768V23.909Z" fill="white"/>
<path d="M154.722 13.462H158.138C159.332 13.462 160.242 13.6487 160.868 14.022C161.493 14.3953 161.806 15.0253 161.806 15.912C161.806 16.276 161.754 16.5933 161.652 16.864C161.549 17.1253 161.4 17.354 161.204 17.55C161.017 17.7367 160.788 17.8907 160.518 18.012C160.247 18.1333 159.948 18.2267 159.622 18.292C160.462 18.3947 161.096 18.6233 161.526 18.978C161.955 19.3327 162.17 19.874 162.17 20.602C162.17 21.1247 162.067 21.5727 161.862 21.946C161.656 22.31 161.372 22.6087 161.008 22.842C160.644 23.066 160.214 23.234 159.72 23.346C159.225 23.4487 158.688 23.5 158.11 23.5H154.722V13.462ZM156.416 14.932V17.606H158.222C158.782 17.606 159.234 17.4893 159.58 17.256C159.925 17.0133 160.098 16.6353 160.098 16.122C160.098 15.6553 159.939 15.3427 159.622 15.184C159.314 15.016 158.875 14.932 158.306 14.932H156.416ZM156.416 19.062V22.044H158.278C158.595 22.044 158.884 22.0207 159.146 21.974C159.407 21.918 159.631 21.834 159.818 21.722C160.004 21.6007 160.149 21.4467 160.252 21.26C160.354 21.064 160.406 20.826 160.406 20.546C160.406 19.9953 160.224 19.6127 159.86 19.398C159.505 19.174 158.931 19.062 158.138 19.062H156.416Z" fill="black"/>
<path d="M166.864 23.64C166.35 23.64 165.874 23.556 165.436 23.388C164.997 23.22 164.614 22.9773 164.288 22.66C163.97 22.3333 163.718 21.9367 163.532 21.47C163.354 21.0033 163.266 20.4667 163.266 19.86C163.266 19.2533 163.354 18.7167 163.532 18.25C163.718 17.7833 163.97 17.3913 164.288 17.074C164.614 16.7473 164.997 16.5047 165.436 16.346C165.874 16.178 166.35 16.094 166.864 16.094C167.377 16.094 167.853 16.178 168.292 16.346C168.73 16.5047 169.113 16.7473 169.44 17.074C169.766 17.3913 170.023 17.7833 170.21 18.25C170.396 18.7167 170.49 19.2533 170.49 19.86C170.49 20.4667 170.396 21.0033 170.21 21.47C170.023 21.9367 169.766 22.3333 169.44 22.66C169.113 22.9773 168.73 23.22 168.292 23.388C167.853 23.556 167.377 23.64 166.864 23.64ZM166.864 22.282C167.424 22.282 167.886 22.086 168.25 21.694C168.623 21.302 168.81 20.6907 168.81 19.86C168.81 19.0387 168.623 18.432 168.25 18.04C167.886 17.6387 167.424 17.438 166.864 17.438C166.313 17.438 165.851 17.6387 165.478 18.04C165.114 18.432 164.932 19.0387 164.932 19.86C164.932 20.6907 165.114 21.302 165.478 21.694C165.851 22.086 166.313 22.282 166.864 22.282Z" fill="black"/>
<path d="M175.124 15.366C174.732 15.366 174.392 15.3147 174.102 15.212C173.822 15.1093 173.584 14.9693 173.388 14.792C173.202 14.6053 173.062 14.3907 172.968 14.148C172.875 13.896 172.828 13.63 172.828 13.35H174.256C174.256 13.6767 174.331 13.9147 174.48 14.064C174.639 14.204 174.854 14.274 175.124 14.274C175.395 14.274 175.605 14.204 175.754 14.064C175.904 13.9147 175.978 13.6767 175.978 13.35H177.42C177.42 13.63 177.374 13.896 177.28 14.148C177.187 14.3907 177.042 14.6053 176.846 14.792C176.66 14.9693 176.422 15.1093 176.132 15.212C175.843 15.3147 175.507 15.366 175.124 15.366ZM173.458 21.302L176.818 16.234H178.414V23.5H176.804V18.46L173.472 23.5H171.848V16.234H173.458V21.302Z" fill="black"/>
<path d="M183.491 17.55V23.5H181.867V17.55H179.669V16.234H185.731V17.55H183.491Z" fill="black"/>
<path d="M188.58 21.302L191.94 16.234H193.536V23.5H191.926V18.46L188.594 23.5H186.97V16.234H188.58V21.302Z" fill="black"/>
<path d="M201.786 23.64C201.198 23.64 200.671 23.556 200.204 23.388C199.738 23.2107 199.341 22.9633 199.014 22.646C198.688 22.3193 198.436 21.9227 198.258 21.456C198.081 20.9893 197.992 20.4573 197.992 19.86C197.992 19.272 198.081 18.7447 198.258 18.278C198.436 17.8113 198.688 17.4193 199.014 17.102C199.341 16.7753 199.742 16.528 200.218 16.36C200.694 16.1827 201.226 16.094 201.814 16.094C202.318 16.094 202.757 16.15 203.13 16.262C203.513 16.374 203.816 16.514 204.04 16.682V18.026C203.751 17.8393 203.434 17.6947 203.088 17.592C202.752 17.4893 202.36 17.438 201.912 17.438C200.41 17.438 199.658 18.2453 199.658 19.86C199.658 21.4747 200.396 22.282 201.87 22.282C202.346 22.282 202.752 22.2307 203.088 22.128C203.434 22.016 203.751 21.876 204.04 21.708V23.052C203.798 23.2107 203.494 23.3507 203.13 23.472C202.766 23.584 202.318 23.64 201.786 23.64Z" fill="black"/>
<path d="M208.71 16.612C208.71 16.08 208.803 15.618 208.99 15.226C209.177 14.8247 209.438 14.498 209.774 14.246C210.11 13.9847 210.511 13.7887 210.978 13.658C211.454 13.5273 211.981 13.462 212.56 13.462H215.822V23.5H214.114V19.636H212.56L209.998 23.5H208.024L210.852 19.384C210.124 19.2067 209.583 18.8847 209.228 18.418C208.883 17.942 208.71 17.34 208.71 16.612ZM214.114 18.222V14.932H212.546C211.911 14.932 211.403 15.058 211.02 15.31C210.647 15.5527 210.46 15.9727 210.46 16.57C210.46 17.158 210.628 17.5827 210.964 17.844C211.3 18.096 211.776 18.222 212.392 18.222H214.114Z" fill="black"/>
<path d="M222.49 20.434H219.424V23.5H217.8V16.234H219.424V19.118H222.49V16.234H224.114V23.5H222.49V20.434Z" fill="black"/>
<path d="M225.738 22.184C225.953 21.9973 226.121 21.7407 226.242 21.414C226.373 21.0873 226.476 20.6813 226.55 20.196C226.625 19.7013 226.681 19.1273 226.718 18.474C226.756 17.8207 226.788 17.074 226.816 16.234H232.136V22.184H233.228V25.572H231.814L231.688 23.5H226.676L226.55 25.572H225.122V22.184H225.738ZM230.512 22.184V17.55H228.216C228.17 18.698 228.09 19.65 227.978 20.406C227.876 21.1527 227.703 21.7453 227.46 22.184H230.512Z" fill="black"/>
<path d="M240.364 22.968C240.261 23.0333 240.135 23.108 239.986 23.192C239.837 23.2667 239.659 23.3367 239.454 23.402C239.249 23.4673 239.011 23.5233 238.74 23.57C238.469 23.6167 238.161 23.64 237.816 23.64C236.481 23.64 235.483 23.3087 234.82 22.646C234.167 21.9833 233.84 21.0547 233.84 19.86C233.84 19.272 233.929 18.7447 234.106 18.278C234.283 17.8113 234.531 17.4193 234.848 17.102C235.165 16.7753 235.543 16.528 235.982 16.36C236.421 16.1827 236.901 16.094 237.424 16.094C237.965 16.094 238.451 16.1827 238.88 16.36C239.319 16.5373 239.678 16.8033 239.958 17.158C240.238 17.5127 240.429 17.9513 240.532 18.474C240.644 18.9967 240.649 19.608 240.546 20.308H235.52C235.585 20.9707 235.805 21.47 236.178 21.806C236.551 22.1327 237.135 22.296 237.928 22.296C238.507 22.296 238.987 22.226 239.37 22.086C239.762 21.9367 240.093 21.7827 240.364 21.624V22.968ZM237.424 17.382C236.948 17.382 236.547 17.5267 236.22 17.816C235.893 18.1053 235.679 18.5347 235.576 19.104H238.992C239.011 18.516 238.88 18.082 238.6 17.802C238.32 17.522 237.928 17.382 237.424 17.382Z" fill="black"/>
<path d="M244.308 20.546H243.678V23.5H242.054V16.234H243.678V19.23H244.364L246.674 16.234H248.382L245.638 19.734L248.494 23.5H246.576L244.308 20.546Z" fill="black"/>
<path d="M252.577 23.64C251.989 23.64 251.462 23.556 250.995 23.388C250.529 23.2107 250.132 22.9633 249.805 22.646C249.479 22.3193 249.227 21.9227 249.049 21.456C248.872 20.9893 248.783 20.4573 248.783 19.86C248.783 19.272 248.872 18.7447 249.049 18.278C249.227 17.8113 249.479 17.4193 249.805 17.102C250.132 16.7753 250.533 16.528 251.009 16.36C251.485 16.1827 252.017 16.094 252.605 16.094C253.109 16.094 253.548 16.15 253.921 16.262C254.304 16.374 254.607 16.514 254.831 16.682V18.026C254.542 17.8393 254.225 17.6947 253.879 17.592C253.543 17.4893 253.151 17.438 252.703 17.438C251.201 17.438 250.449 18.2453 250.449 19.86C250.449 21.4747 251.187 22.282 252.661 22.282C253.137 22.282 253.543 22.2307 253.879 22.128C254.225 22.016 254.542 21.876 254.831 21.708V23.052C254.589 23.2107 254.285 23.3507 253.921 23.472C253.557 23.584 253.109 23.64 252.577 23.64Z" fill="black"/>
<path d="M261.265 13.462V23.5H259.571V13.462H261.265Z" fill="black"/>
<path d="M263.413 13.462H266.801C267.51 13.462 268.168 13.5413 268.775 13.7C269.391 13.8587 269.923 14.12 270.371 14.484C270.828 14.848 271.183 15.3287 271.435 15.926C271.696 16.5233 271.827 17.2607 271.827 18.138C271.827 19.0247 271.696 19.804 271.435 20.476C271.183 21.1387 270.824 21.694 270.357 22.142C269.9 22.59 269.354 22.9307 268.719 23.164C268.094 23.388 267.408 23.5 266.661 23.5H263.413V13.462ZM265.107 14.932V22.044H266.717C267.212 22.044 267.66 21.9693 268.061 21.82C268.472 21.6707 268.822 21.442 269.111 21.134C269.41 20.826 269.638 20.434 269.797 19.958C269.965 19.4727 270.049 18.8987 270.049 18.236C270.049 17.5827 269.97 17.046 269.811 16.626C269.652 16.1967 269.428 15.856 269.139 15.604C268.859 15.352 268.523 15.1793 268.131 15.086C267.739 14.9833 267.314 14.932 266.857 14.932H265.107Z" fill="black"/>
</svg>
