<svg version="1.1" id="Layer_1" xmlns="http://www.w3.org/2000/svg" x="0px" y="0px"
	 width="40px" height="40px" viewBox="0 0 40 40" enable-background="new 0 0 40 40" xml:space="preserve">
<g>
	<path fill="#595975" d="M30.912,13.915c0,4.542-5.945,8.255-5.945,12.881h-9.934c0-4.438-5.945-8.151-5.945-12.881
		C9.088,7.898,13.983,3.003,20,3.003S30.912,7.898,30.912,13.915z M15,28v4c0,1.1,0.72,2.54,1.6,3.2l0.8,0.6
		c0.88,0.66,2.05,1.2,2.6,1.2s1.721-0.54,2.6-1.2l0.801-0.6C24.279,34.54,25,33.1,25,32v-4H15z"/>
	<path fill="#B9B9D5" d="M7,14H3c-0.552,0-1-0.447-1-1s0.448-1,1-1h4c0.552,0,1,0.447,1,1S7.552,14,7,14z M8.895,7.197
		c0.247-0.494,0.047-1.095-0.447-1.342l-4-2C3.952,3.608,3.353,3.809,3.105,4.303S3.059,5.397,3.553,5.645l4,2
		C7.696,7.716,7.849,7.75,7.999,7.75C8.366,7.75,8.719,7.548,8.895,7.197z M4.447,21.895l4-2c0.494-0.247,0.694-0.848,0.447-1.342
		s-0.846-0.692-1.342-0.447l-4,2c-0.494,0.247-0.694,0.848-0.447,1.342C3.281,21.798,3.634,22,4.001,22
		C4.151,22,4.304,21.966,4.447,21.895z M33.05,14h4c0.552,0,1-0.447,1-1s-0.448-1-1-1h-4c-0.552,0-1,0.447-1,1S32.498,14,33.05,14z
		 M32.051,7.75c0.15,0,0.303-0.034,0.446-0.105l4-2c0.494-0.247,0.694-0.848,0.447-1.342s-0.847-0.694-1.342-0.447l-4,2
		c-0.494,0.247-0.694,0.848-0.447,1.342C31.33,7.548,31.684,7.75,32.051,7.75z M36.049,22c0.367,0,0.721-0.202,0.896-0.553
		c0.247-0.494,0.047-1.095-0.447-1.342l-4-2c-0.495-0.245-1.095-0.047-1.342,0.447s-0.047,1.095,0.447,1.342l4,2
		C35.746,21.966,35.898,22,36.049,22z"/>
	<path fill="#FFFFFF" d="M21.367,9.897c0.348-1.044,0.04-1.22-0.684-0.393l-4.366,4.99C15.593,15.322,15.9,16,17,16h1
		c1.1,0,1.715,0.854,1.368,1.897l-0.735,2.205c-0.348,1.044-0.04,1.22,0.685,0.393l4.367-4.99C24.407,14.678,24.1,14,23,14h-1
		c-1.1,0-1.715-0.854-1.368-1.897L21.367,9.897z"/>
</g>
</svg>
