<svg width="29" height="29" viewBox="0 0 29 29" fill="none" xmlns="http://www.w3.org/2000/svg">
<g clip-path="url(#clip0_101_97)">
<path d="M22.564 19.6618C22.251 17.6218 20.516 16.0568 18.427 16.0568C17.6501 16.0559 16.8888 16.2758 16.232 16.6908C15.236 14.9848 13.442 13.9238 11.45 13.9238C8.37203 13.9238 5.86703 16.4748 5.86703 19.6108L5.86803 19.6708C3.89003 20.0098 2.33203 21.7668 2.33203 23.8768C2.33203 26.2288 4.25703 28.1428 6.56503 28.1428H21.916C24.225 28.1428 26.149 26.2288 26.149 23.8768C26.1451 22.8641 25.783 21.8855 25.1269 21.1141C24.4708 20.3427 23.563 19.8282 22.564 19.6618Z" fill="#AEC0FF"/>
<path fill-rule="evenodd" clip-rule="evenodd" d="M12.3178 18.916C12.3714 18.8516 12.4386 18.7999 12.5144 18.7645C12.5903 18.7291 12.6731 18.7108 12.7568 18.711H16.2388C16.3906 18.7131 16.5354 18.7745 16.6424 18.8822C16.7493 18.9899 16.8098 19.1352 16.8108 19.287V19.879C16.811 20.1036 16.7308 20.321 16.5846 20.4916C16.4384 20.6622 16.2359 20.7748 16.0138 20.809L15.8678 21.347C15.8296 21.4891 15.7456 21.6147 15.6288 21.7044C15.5121 21.794 15.369 21.8427 15.2218 21.843H13.7738C13.6266 21.8427 13.4836 21.794 13.3668 21.7044C13.25 21.6147 13.166 21.4891 13.1278 21.347L12.9858 20.809C12.7628 20.7747 12.5594 20.6617 12.4126 20.4903C12.2658 20.3189 12.1853 20.1006 12.1858 19.875V19.283C12.1858 19.143 12.2348 19.015 12.3178 18.916ZM12.3428 17.691C12.4204 17.7736 12.5141 17.8394 12.6182 17.8843C12.7223 17.9292 12.8345 17.9522 12.9478 17.952H16.0478C16.1128 17.952 16.1778 17.945 16.2388 17.93L16.2488 17.928C16.406 17.8885 16.5481 17.8038 16.6576 17.6844C16.7671 17.5649 16.8391 17.416 16.8648 17.256C17.0068 16.3205 17.4351 15.4521 18.0908 14.77C18.7739 14.0633 19.2331 13.1707 19.4108 12.2041C19.5885 11.2375 19.4768 10.24 19.0897 9.33657C18.7027 8.43319 18.0574 7.66423 17.235 7.12615C16.4126 6.58807 15.4496 6.30483 14.4668 6.31196C13.8088 6.31441 13.1578 6.44727 12.5514 6.70285C11.9451 6.95843 11.3954 7.33167 10.9342 7.80099C10.473 8.2703 10.1093 8.82639 9.86433 9.43709C9.61933 10.0478 9.49781 10.701 9.50681 11.359C9.51846 12.6312 10.0174 13.8505 10.9008 14.766C11.5581 15.4511 11.9889 16.3218 12.1348 17.26C12.1598 17.427 12.2348 17.575 12.3428 17.691ZM11.0928 17.425C11.1428 17.755 11.2728 18.048 11.4588 18.29C11.2444 18.5765 11.1293 18.9251 11.1308 19.283V19.875C11.1308 20.625 11.5268 21.26 12.1048 21.608L12.1098 21.626L12.1118 21.634C12.3188 22.396 13.0008 22.918 13.7738 22.918H15.2218C15.9948 22.918 16.6768 22.396 16.8838 21.634L16.8898 21.612C17.4698 21.262 17.8648 20.622 17.8648 19.879V19.287C17.8648 18.907 17.7408 18.565 17.5348 18.291C17.7228 18.047 17.8548 17.753 17.9058 17.425V17.421C18.0147 16.707 18.342 16.0443 18.8428 15.524C19.9381 14.3925 20.5494 12.8787 20.5468 11.304C20.5468 7.92096 17.7998 5.21296 14.4588 5.23796C13.6608 5.24276 12.8717 5.40557 12.1369 5.717C11.4022 6.02842 10.7364 6.48228 10.178 7.05239C9.61958 7.62251 9.17963 8.29757 8.88353 9.03862C8.58743 9.77967 8.44104 10.572 8.45281 11.37C8.46668 12.9185 9.07324 14.4029 10.1478 15.518L10.1508 15.521C10.6508 16.036 10.9808 16.713 11.0928 17.425ZM14.4998 7.71796C14.6491 7.71796 14.7923 7.77728 14.8979 7.88286C15.0035 7.98845 15.0628 8.13165 15.0628 8.28096C15.0628 8.43028 15.0035 8.57349 14.8979 8.67908C14.7923 8.78466 14.6491 8.84396 14.4998 8.84396C13.8431 8.84476 13.2135 9.10598 12.7492 9.57034C12.2848 10.0347 12.0236 10.6643 12.0228 11.321C12.0228 11.4703 11.9635 11.6135 11.8579 11.7191C11.7523 11.8246 11.6091 11.884 11.4598 11.884C11.3105 11.884 11.1673 11.8246 11.0617 11.7191C10.9561 11.6135 10.8968 11.4703 10.8968 11.321C10.8979 10.3657 11.2778 9.4499 11.9533 8.77444C12.6287 8.09897 13.5446 7.71902 14.4998 7.71796Z" fill="white"/>
<path d="M16.8098 19.2871V19.8791C16.81 20.1037 16.7299 20.3209 16.5839 20.4915C16.4379 20.6621 16.2357 20.7747 16.0138 20.8091L15.8678 21.3471C15.8296 21.4893 15.7456 21.6149 15.6288 21.7046C15.512 21.7942 15.369 21.8429 15.2218 21.8431H13.7748C13.6274 21.8431 13.4841 21.7945 13.3672 21.7049C13.2502 21.6152 13.1661 21.4895 13.1278 21.3471L12.9858 20.8091C12.7628 20.7747 12.5596 20.6616 12.4128 20.4903C12.2661 20.3189 12.1855 20.1007 12.1858 19.8751V19.2831C12.1855 19.208 12.2001 19.1336 12.2287 19.0642C12.2573 18.9947 12.2993 18.9316 12.3524 18.8784C12.4054 18.8253 12.4685 18.7831 12.5379 18.7544C12.6073 18.7257 12.6817 18.711 12.7568 18.7111H16.2388C16.3909 18.7122 16.5363 18.7733 16.6435 18.8812C16.7507 18.9892 16.8108 19.1351 16.8108 19.2871H16.8098ZM19.4928 11.3041C19.4928 12.6521 18.9588 13.8741 18.0908 14.7701C17.4351 15.4522 17.0068 16.3207 16.8648 17.2561C16.8338 17.4504 16.7345 17.6273 16.5847 17.7549C16.435 17.8825 16.2445 17.9524 16.0478 17.9521H12.9478C12.752 17.953 12.5624 17.8837 12.4135 17.7567C12.2645 17.6298 12.1659 17.4536 12.1358 17.2601C11.9896 16.3218 11.5585 15.4511 10.9008 14.7661C10.0177 13.8505 9.51918 12.6312 9.50779 11.3591C9.4988 10.7013 9.62028 10.0481 9.86522 9.43749C10.1102 8.82685 10.4737 8.27081 10.9348 7.80151C11.3959 7.33221 11.9455 6.95895 12.5517 6.70331C13.158 6.44767 13.8089 6.31472 14.4668 6.31213C15.1252 6.30752 15.778 6.43324 16.3876 6.68207C16.9972 6.9309 17.5515 7.29791 18.0186 7.76194C18.4857 8.22598 18.8564 8.77787 19.1092 9.38581C19.362 9.99375 19.4931 10.6457 19.4928 11.3041ZM15.0628 8.28113C15.0628 8.13182 15.0035 7.98862 14.8979 7.88303C14.7923 7.77745 14.6491 7.71813 14.4998 7.71813C13.5445 7.71919 12.6287 8.09913 11.9533 8.7746C11.2778 9.45006 10.8978 10.3659 10.8968 11.3211C10.8968 11.4705 10.9561 11.6137 11.0617 11.7192C11.1673 11.8248 11.3105 11.8841 11.4598 11.8841C11.6091 11.8841 11.7523 11.8248 11.8579 11.7192C11.9635 11.6137 12.0228 11.4705 12.0228 11.3211C12.0236 10.6644 12.2848 10.0349 12.7492 9.57051C13.2135 9.10615 13.8431 8.84493 14.4998 8.84413C14.5738 8.84453 14.6472 8.83024 14.7157 8.80209C14.7842 8.77394 14.8464 8.73248 14.8988 8.68012C14.9511 8.62776 14.9926 8.56554 15.0207 8.49706C15.0489 8.42857 15.0632 8.35518 15.0628 8.28113Z" fill="#4971FF"/>
<path fill-rule="evenodd" clip-rule="evenodd" d="M14.4999 5.16711C14.3785 5.16593 14.2584 5.14084 14.1466 5.09326C14.0349 5.04569 13.9335 4.97656 13.8485 4.88983C13.7634 4.8031 13.6963 4.70046 13.6509 4.58778C13.6055 4.4751 13.5827 4.35458 13.5839 4.23311V2.36611C13.5839 1.85111 13.9939 1.43311 14.4999 1.43311C15.0059 1.43311 15.4159 1.85111 15.4159 2.36611V4.23311C15.4159 4.74911 15.0059 5.16711 14.4999 5.16711ZM8.85994 7.14711C8.77571 7.23356 8.67502 7.30227 8.56382 7.34918C8.45261 7.39609 8.33313 7.42026 8.21244 7.42026C8.09174 7.42026 7.97226 7.39609 7.86106 7.34918C7.74985 7.30227 7.64916 7.23356 7.56494 7.14711L6.26994 5.82711C6.09792 5.65047 6.00167 5.41366 6.00167 5.16711C6.00167 4.92055 6.09792 4.68374 6.26994 4.50711C6.35416 4.42065 6.45485 4.35195 6.56606 4.30503C6.67726 4.25812 6.79674 4.23395 6.91744 4.23395C7.03814 4.23395 7.15761 4.25812 7.26882 4.30503C7.38002 4.35195 7.48071 4.42065 7.56494 4.50711L8.86094 5.82711C9.03295 6.00374 9.12921 6.24055 9.12921 6.48711C9.12921 6.73366 9.03295 6.97047 8.86094 7.14711H8.85994ZM3.89994 11.5431C3.89994 11.0271 4.30994 10.6091 4.81594 10.6091H6.64994C7.15494 10.6091 7.56594 11.0271 7.56594 11.5431C7.56594 12.0581 7.15594 12.4761 6.64994 12.4761H4.81594C4.57078 12.4737 4.3366 12.3741 4.16484 12.1992C3.99309 12.0242 3.89781 11.7883 3.89994 11.5431ZM21.4359 11.5431C21.4359 11.0271 21.8459 10.6091 22.3519 10.6091H24.1839C24.6899 10.6091 25.0999 11.0271 25.0999 11.5431C25.0999 12.0581 24.6899 12.4761 24.1839 12.4761H22.3519C22.1068 12.4737 21.8726 12.3741 21.7008 12.1992C21.5291 12.0242 21.4338 11.7883 21.4359 11.5431ZM20.1399 7.14711C20.2242 7.23356 20.3248 7.30227 20.4361 7.34918C20.5473 7.39609 20.6667 7.42026 20.7874 7.42026C20.9081 7.42026 21.0276 7.39609 21.1388 7.34918C21.25 7.30227 21.3507 7.23356 21.4349 7.14711L22.7299 5.82711C22.902 5.65047 22.9982 5.41366 22.9982 5.16711C22.9982 4.92055 22.902 4.68374 22.7299 4.50711C22.6457 4.42065 22.545 4.35195 22.4338 4.30503C22.3226 4.25812 22.2031 4.23395 22.0824 4.23395C21.9617 4.23395 21.8423 4.25812 21.7311 4.30503C21.6198 4.35195 21.5192 4.42065 21.4349 4.50711L20.1389 5.82711C19.9669 6.00374 19.8707 6.24055 19.8707 6.48711C19.8707 6.73366 19.9679 6.97047 20.1399 7.14711Z" fill="#AEC0FF"/>
</g>
<defs>
<clipPath id="clip0_101_97">
<rect width="28" height="28" fill="white" transform="translate(0.5 0.5)"/>
</clipPath>
</defs>
</svg>
