<svg width="32" height="31" viewBox="0 0 32 31" fill="none" xmlns="http://www.w3.org/2000/svg">
<path d="M26.872 6.5H17.105C16.23 6.5 15.5 7.203 15.5 8.071V14.929C15.5 15.796 16.229 16.5 17.105 16.5H26.872C27.772 16.5 28.5 15.796 28.5 14.929V8.07C28.5 7.203 27.793 6.5 26.872 6.5ZM18.326 8C19 8 19.547 8.528 19.547 9.179C19.547 9.829 19.023 10.357 18.327 10.357C17.629 10.357 17.105 9.829 17.105 9.179C17.105 8.528 17.675 8 18.326 8ZM26.846 14.722C26.8102 14.7853 26.7581 14.8378 26.6952 14.8742C26.6322 14.9106 26.5607 14.9295 26.488 14.929H17.586C17.5118 14.9294 17.439 14.9095 17.3752 14.8717C17.3114 14.8338 17.2592 14.7793 17.224 14.714C17.1897 14.6497 17.1746 14.5768 17.1804 14.5042C17.1863 14.4315 17.2128 14.362 17.257 14.304L19.037 11.947C19.0757 11.8963 19.1256 11.8553 19.1829 11.8274C19.2402 11.7994 19.3033 11.7853 19.367 11.786C19.497 11.786 19.619 11.846 19.695 11.947L20.521 13.04L22.894 9.625C22.928 9.56513 22.9773 9.51541 23.0369 9.48096C23.0965 9.44651 23.1642 9.42857 23.233 9.429C23.367 9.429 23.496 9.494 23.571 9.604L26.827 14.318C26.91 14.438 26.917 14.592 26.846 14.722Z" fill="#4971FF"/>
<path d="M12.5 6.5H5.5C4.94772 6.5 4.5 6.94772 4.5 7.5C4.5 8.05228 4.94772 8.5 5.5 8.5H12.5C13.0523 8.5 13.5 8.05228 13.5 7.5C13.5 6.94772 13.0523 6.5 12.5 6.5Z" fill="#AEC0FF"/>
<path d="M10.5 10.5H5.5C4.94772 10.5 4.5 10.9477 4.5 11.5C4.5 12.0523 4.94772 12.5 5.5 12.5H10.5C11.0523 12.5 11.5 12.0523 11.5 11.5C11.5 10.9477 11.0523 10.5 10.5 10.5Z" fill="#AEC0FF"/>
<path d="M12.5 14.5H5.5C4.94772 14.5 4.5 14.9477 4.5 15.5C4.5 16.0523 4.94772 16.5 5.5 16.5H12.5C13.0523 16.5 13.5 16.0523 13.5 15.5C13.5 14.9477 13.0523 14.5 12.5 14.5Z" fill="#AEC0FF"/>
<path d="M27.5 18.5H5.5C4.94772 18.5 4.5 18.9477 4.5 19.5C4.5 20.0523 4.94772 20.5 5.5 20.5H27.5C28.0523 20.5 28.5 20.0523 28.5 19.5C28.5 18.9477 28.0523 18.5 27.5 18.5Z" fill="#AEC0FF"/>
<path d="M27.5 22.5H5.5C4.94772 22.5 4.5 22.9477 4.5 23.5C4.5 24.0523 4.94772 24.5 5.5 24.5H27.5C28.0523 24.5 28.5 24.0523 28.5 23.5C28.5 22.9477 28.0523 22.5 27.5 22.5Z" fill="#AEC0FF"/>
</svg>
