<svg version="1.1" id="Layer_1" xmlns="http://www.w3.org/2000/svg" x="0px" y="0px"
	 width="40px" height="40px" viewBox="0 0 40 40" enable-background="new 0 0 40 40" xml:space="preserve">
<g>
	<path fill="#595975" d="M36,7H15c-0.552,0-1,0.448-1,1v19c0,0.553,0.448,1,1,1h21c0.553,0,1-0.447,1-1V8C37,7.448,36.553,7,36,7z"
		/>
	<rect x="17" y="10" fill="#FFFFFF" width="17" height="15"/>
	<path fill="#595975" d="M23,14c0,1.104-0.896,2-2,2s-2-0.896-2-2s0.896-2,2-2S23,12.896,23,14z M16.8,25H34v-5.9L29.6,14L16.8,25z"
		/>
	<path fill="#B9B9D5" d="M26.9,18.6l-3.734,1L29.6,14l4.4,5.1l-2.366-0.6L29.033,20L26.9,18.6z M35,31.101H6c-1.1,0-2,0.63-2,1.399
		c0,0.771,0.9,1.4,2,1.4h29c1.1,0,2-0.63,2-1.4C37,31.73,36.1,31.101,35,31.101z M9,25.101H6c-1.1,0-2,0.63-2,1.399
		c0,0.771,0.9,1.4,2,1.4h3c1.1,0,2-0.63,2-1.4C11,25.73,10.1,25.101,9,25.101z M9,19.101H6c-1.1,0-2,0.63-2,1.4s0.9,1.4,2,1.4h3
		c1.1,0,2-0.63,2-1.4S10.1,19.101,9,19.101z M9,13.133H6c-1.1,0-2,0.63-2,1.4s0.9,1.4,2,1.4h3c1.1,0,2-0.63,2-1.4
		S10.1,13.133,9,13.133z M9,7H6c-1.1,0-2,0.63-2,1.4s0.9,1.4,2,1.4h3c1.1,0,2-0.63,2-1.4S10.1,7,9,7z"/>
</g>
</svg>
