<svg width="31" height="31" viewBox="0 0 31 31" fill="none" xmlns="http://www.w3.org/2000/svg">
<path d="M18.2541 21.3298C17.9955 22.4651 18.1219 23.6541 18.6132 24.7097C19.1046 25.7653 19.9331 26.6276 20.9682 27.1607C22.0033 27.6938 23.1864 27.8675 24.3311 27.6545C25.4758 27.4415 26.5172 26.8539 27.2913 25.9841C28.0654 25.1143 28.5283 24.0118 28.607 22.8501C28.6858 21.6884 28.376 20.5335 27.7264 19.5672C27.0768 18.6009 26.1243 17.8781 25.0188 17.5125C23.9134 17.1469 22.7177 17.1593 21.6201 17.5478C21.3366 18.3694 20.8933 19.1267 20.3155 19.7761C19.7378 20.4254 19.0372 20.9528 18.2541 21.3298ZM18.7401 20.0268C19.4152 19.5395 19.9756 18.9104 20.3821 18.1838C19.697 18.6597 19.1336 19.2913 18.7401 20.0268Z" fill="#AEC0FF"/>
<path fill-rule="evenodd" clip-rule="evenodd" d="M12.775 9.5299C13.0004 8.39964 12.8475 7.22659 12.3399 6.19188C11.8323 5.15717 10.9981 4.31834 9.96629 3.8049C8.93445 3.29147 7.76228 3.13198 6.63077 3.35107C5.49926 3.57016 4.47133 4.15563 3.7057 5.0171C2.94007 5.87857 2.47932 6.96812 2.39458 8.11753C2.30984 9.26694 2.60584 10.4123 3.23686 11.3767C3.86788 12.3411 4.79883 13.071 5.88598 13.4537C6.97313 13.8363 8.15602 13.8505 9.252 13.4939C9.5322 12.6251 9.99011 11.8241 10.5966 11.1418C11.2031 10.4595 11.945 9.91095 12.775 9.5309V9.5299ZM12.37 10.7529C11.5391 11.3019 10.8662 12.0586 10.418 12.9479C11.2635 12.4159 11.9404 11.6547 12.37 10.7529Z" fill="#AEC0FF"/>
<path d="M22.0769 15.4999C22.0769 17.2442 21.3839 18.9171 20.1505 20.1505C18.9171 21.3839 17.2442 22.0769 15.4999 22.0769C13.7555 22.0769 12.0826 21.3839 10.8492 20.1505C9.61578 18.9171 8.92285 17.2442 8.92285 15.4999C8.92285 13.7555 9.61578 12.0826 10.8492 10.8492C12.0826 9.61578 13.7555 8.92285 15.4999 8.92285C17.2442 8.92285 18.9171 9.61578 20.1505 10.8492C21.3839 12.0826 22.0769 13.7555 22.0769 15.4999Z" fill="#4971FF"/>
<path d="M13.9059 18.5129C13.6679 18.5129 13.4959 18.4589 13.3879 18.3529C13.2819 18.2399 13.2279 18.0759 13.2279 17.8629C13.2279 17.7249 13.2629 17.5959 13.3319 17.4769C13.4019 17.3579 13.4949 17.2359 13.6139 17.1099L15.3839 15.2459C15.6479 14.9639 15.8359 14.7129 15.9489 14.4929C16.0679 14.2729 16.1279 14.0539 16.1279 13.8349C16.1279 13.2699 15.7789 12.9869 15.0829 12.9869C14.9009 12.9869 14.7129 13.0129 14.5179 13.0629C14.3088 13.1221 14.1091 13.2106 13.9249 13.3259C13.7549 13.4259 13.5989 13.4489 13.4549 13.3919C13.3183 13.337 13.2073 13.2328 13.1439 13.0999C13.0815 12.9645 13.065 12.8125 13.0969 12.6669C13.1339 12.5109 13.2369 12.3819 13.4069 12.2809C13.6839 12.1119 13.9849 11.9869 14.3109 11.9049C14.6369 11.8169 14.9609 11.7729 15.2809 11.7729C16.0209 11.7729 16.5859 11.9399 16.9749 12.2729C17.3699 12.5979 17.5679 13.0659 17.5679 13.6749C17.5679 14.0759 17.4739 14.4619 17.2849 14.8319C17.1029 15.1959 16.8019 15.5919 16.3819 16.0179L15.1019 17.3179H17.2849C17.6929 17.3179 17.8969 17.5149 17.8969 17.9099C17.8969 18.3119 17.6929 18.5129 17.2849 18.5129H13.9059ZM23.2949 25.4009C23.0046 25.4 22.7153 25.3678 22.4319 25.3049C22.1678 25.2502 21.9142 25.1533 21.6809 25.0179C21.5109 24.9279 21.4039 24.8149 21.3609 24.6819C21.3178 24.5567 21.3236 24.42 21.3769 24.2989C21.4341 24.1827 21.5347 24.0937 21.6569 24.0509C21.7849 23.9979 21.9309 24.0109 22.0969 24.0909C22.4523 24.2748 22.8467 24.3709 23.2469 24.3709C23.8969 24.3709 24.2209 24.1279 24.2209 23.6439C24.2209 23.1969 23.9179 22.9729 23.3109 22.9729H22.8389C22.6639 22.9729 22.5279 22.9299 22.4319 22.8449C22.3856 22.7961 22.3496 22.7384 22.3262 22.6753C22.3029 22.6122 22.2925 22.5451 22.2959 22.4779C22.2959 22.3179 22.3409 22.1949 22.4319 22.1099C22.5279 22.0199 22.6639 21.9739 22.8389 21.9739H23.1909C23.4569 21.9739 23.6669 21.9139 23.8209 21.7909C23.8974 21.7301 23.9583 21.6519 23.9987 21.5629C24.039 21.4739 24.0576 21.3765 24.0529 21.2789C24.0529 20.8429 23.7679 20.6239 23.1989 20.6239C23.0229 20.6239 22.8529 20.6459 22.6869 20.6879C22.5269 20.7259 22.3519 20.7949 22.1599 20.8959C22.0109 20.9709 21.8779 20.9839 21.7599 20.9359C21.6443 20.889 21.5505 20.8005 21.4969 20.6879C21.4439 20.573 21.4325 20.4432 21.4649 20.3209C21.4969 20.1929 21.5899 20.0859 21.7449 20.0009C22.2205 19.7261 22.7617 19.5855 23.3109 19.5939C23.9179 19.5939 24.3909 19.7299 24.7319 20.0009C25.0729 20.2729 25.2439 20.6459 25.2439 21.1199C25.2439 21.4129 25.1689 21.6699 25.0199 21.8939C24.8699 22.1179 24.6629 22.2809 24.3969 22.3819C24.7169 22.4719 24.9639 22.6399 25.1399 22.8849C25.3199 23.1249 25.4109 23.4149 25.4109 23.7549C25.4109 24.2669 25.2219 24.6689 24.8439 24.9619C24.4659 25.2549 23.9499 25.4019 23.2939 25.4019L23.2949 25.4009ZM6.25188 11.3539C5.89988 11.3539 5.72488 11.1839 5.72488 10.8429C5.72488 10.5079 5.89988 10.3399 6.25188 10.3399H7.05888V7.09688L6.47488 7.44788C6.32088 7.53788 6.18188 7.56288 6.05988 7.51988C5.94007 7.47389 5.84056 7.38674 5.77917 7.27405C5.71778 7.16135 5.69854 7.03048 5.72488 6.90488C5.75088 6.76588 5.83888 6.64888 5.98788 6.55288L7.09788 5.88288C7.20988 5.81288 7.32188 5.75688 7.43388 5.71488C7.55088 5.67188 7.66588 5.65088 7.77688 5.65088C7.93688 5.65088 8.06188 5.69288 8.15288 5.77888C8.24888 5.86388 8.29688 5.98888 8.29688 6.15388V10.3399H9.02388C9.36988 10.3399 9.54288 10.5079 9.54288 10.8429C9.54288 11.1829 9.36988 11.3539 9.02288 11.3539H6.25188Z" fill="white"/>
</svg>
