<svg width="40" height="40" viewBox="0 0 40 40" fill="none" xmlns="http://www.w3.org/2000/svg">
<path d="M32.6515 35.205C32.9204 35.8755 32.5671 36.2744 31.8659 36.092L27.7096 35.0121C27.0084 34.8297 26.0896 35.1617 25.6691 35.7496L22.9022 39.6113C22.4817 40.1992 21.9808 40.11 21.7897 39.4132L19.5 31.0558L17.2103 39.4132C17.0192 40.11 16.5196 40.1979 16.0978 39.6113L13.3309 35.7496C12.9104 35.1617 11.9916 34.8309 11.2904 35.0121L7.13414 36.092C6.43286 36.2744 6.07959 35.8755 6.3485 35.205L9.72568 26.799C12.4174 28.9104 15.8064 30.1806 19.5 30.1806C23.1936 30.1806 26.5826 28.9104 29.2743 26.799L32.6515 35.205ZM5 14.4342C5 6.4757 11.5052 0 19.5 0C27.4948 0 34 6.4757 34 14.4342C34 22.3927 27.4948 28.8684 19.5 28.8684C11.5052 28.8684 5 22.3927 5 14.4342ZM11.5725 13.2597L13.6381 15.7097C14.1047 16.2621 14.4434 17.3039 14.3934 18.0244L14.1693 21.2156C14.1192 21.936 14.6267 22.3034 15.2989 22.0331L18.2781 20.8338C18.9503 20.5634 20.0497 20.5634 20.7219 20.8338L23.7011 22.0331C24.3733 22.3034 24.8821 21.936 24.8307 21.2156L24.6066 18.0244C24.5566 17.3039 24.8953 16.2634 25.3619 15.7097L27.4276 13.2597C27.8942 12.7073 27.6991 12.1115 26.9965 11.9371L23.8777 11.1642C23.1738 10.9897 22.284 10.3467 21.9004 9.7339L20.1986 7.02026C19.8151 6.40878 19.1863 6.40878 18.8014 7.02026L17.0983 9.7339C16.7147 10.3454 15.8249 10.9897 15.121 11.1642L12.0022 11.9371C11.2996 12.1115 11.1058 12.706 11.5725 13.2597Z" fill="#595975"/>
</svg>
