<svg width="800" height="800" viewBox="0 0 800 800" fill="none" xmlns="http://www.w3.org/2000/svg">
<path d="M649.425 695.725C654.525 708.5 647.825 716.1 634.525 712.625L555.7 692.05C542.4 688.575 524.975 694.9 517 706.1L464.525 779.675C456.55 790.875 447.05 789.175 443.425 775.9L400 616.675L356.575 775.9C352.95 789.175 343.475 790.85 335.475 779.675L283 706.1C275.025 694.9 257.6 688.6 244.3 692.05L165.475 712.625C152.175 716.1 145.475 708.5 150.575 695.725L214.625 535.575C265.675 575.8 329.95 600 400 600C470.05 600 534.325 575.8 585.375 535.575L649.425 695.725ZM125 300C125 148.375 248.375 25 400 25C551.625 25 675 148.375 675 300C675 451.625 551.625 575 400 575C248.375 575 125 451.625 125 300ZM249.65 277.625L288.825 324.3C297.675 334.825 304.1 354.675 303.15 368.4L298.9 429.2C297.95 442.925 307.575 449.925 320.325 444.775L376.825 421.925C389.575 416.775 410.425 416.775 423.175 421.925L479.675 444.775C492.425 449.925 502.075 442.925 501.1 429.2L496.85 368.4C495.9 354.675 502.325 334.85 511.175 324.3L550.35 277.625C559.2 267.1 555.5 255.75 542.175 252.425L483.025 237.7C469.675 234.375 452.8 222.125 445.525 210.45L413.25 158.75C405.975 147.1 394.05 147.1 386.75 158.75L354.45 210.45C347.175 222.1 330.3 234.375 316.95 237.7L257.8 252.425C244.475 255.75 240.8 267.075 249.65 277.625Z" fill="#4971FF"/>
</svg>
