<svg width="31" height="31" viewBox="0 0 31 31" fill="none" xmlns="http://www.w3.org/2000/svg">
<path d="M11.0929 9.81494H5.36991C4.31615 9.81494 3.46191 10.6692 3.46191 11.7229V17.4459C3.46191 18.4997 4.31615 19.3539 5.36991 19.3539H11.0929C12.1467 19.3539 13.0009 18.4997 13.0009 17.4459V11.7229C13.0009 10.6692 12.1467 9.81494 11.0929 9.81494Z" fill="#4971FF"/>
<path d="M18 18.5208V24.2438C18 25.2975 18.8542 26.1518 19.908 26.1518H25.631C26.6848 26.1518 27.539 25.2975 27.539 24.2438V18.5208C27.539 17.467 26.6848 16.6128 25.631 16.6128H19.908C18.8542 16.6128 18 17.467 18 18.5208Z" fill="#AEC0FF"/>
<path fill-rule="evenodd" clip-rule="evenodd" d="M18 10.6471C18 11.7011 18.854 12.5551 19.907 12.5551H25.631C26.1369 12.5548 26.6219 12.3537 26.9795 11.9959C27.3371 11.6381 27.538 11.153 27.538 10.6471V4.92411C27.538 4.41825 27.3371 3.9331 26.9795 3.57531C26.6219 3.21752 26.1369 3.01638 25.631 3.01611H19.907C19.4011 3.01638 18.9161 3.21752 18.5585 3.57531C18.2009 3.9331 18 4.41825 18 4.92411V10.6471ZM21.937 8.22811L24.233 5.93411C24.3536 5.81928 24.5143 5.75613 24.6808 5.75816C24.8473 5.76019 25.0064 5.82724 25.1241 5.94498C25.2419 6.06272 25.3089 6.22183 25.311 6.38833C25.313 6.55484 25.2498 6.71553 25.135 6.83611L22.297 9.67511C22.2497 9.7224 22.1936 9.75992 22.1318 9.78551C22.0701 9.81111 22.0039 9.82428 21.937 9.82428C21.8701 9.82428 21.8039 9.81111 21.7422 9.78551C21.6804 9.75992 21.6243 9.7224 21.577 9.67511L20.403 8.50011C20.3417 8.44127 20.2927 8.37077 20.259 8.29277C20.2252 8.21476 20.2074 8.1308 20.2065 8.04581C20.2056 7.96082 20.2216 7.87651 20.2537 7.7978C20.2858 7.7191 20.3333 7.64758 20.3933 7.58745C20.4534 7.52732 20.5249 7.47977 20.6035 7.4476C20.6822 7.41542 20.7665 7.39926 20.8515 7.40007C20.9365 7.40088 21.0205 7.41863 21.0985 7.45229C21.1765 7.48596 21.2471 7.53485 21.306 7.59611L21.937 8.22811Z" fill="#4971FF"/>
<path d="M15.525 6.77979H17.999V8.21078H15.525V6.77979ZM13.001 14.1068H15.475V15.5378H13.001V14.1068Z" fill="#AEC0FF"/>
<path d="M14.8101 7.4943V14.8233C14.8101 15.2182 15.1302 15.5383 15.5251 15.5383H15.5261C15.9209 15.5383 16.2411 15.2182 16.2411 14.8233V7.4943C16.2411 7.09941 15.9209 6.7793 15.5261 6.7793H15.5251C15.1302 6.7793 14.8101 7.09941 14.8101 7.4943Z" fill="#AEC0FF"/>
</svg>
