<svg width="31" height="31" viewBox="0 0 31 31" fill="none" xmlns="http://www.w3.org/2000/svg">
<path d="M25.5 18.083V18.708C25.5001 18.7901 25.4839 18.8714 25.4525 18.9472C25.4211 19.0231 25.3751 19.092 25.317 19.15L21.151 23.317C21.093 23.3751 21.0241 23.4211 20.9482 23.4525C20.8724 23.4839 20.7911 23.5001 20.709 23.5H20.084V18.708C20.0853 18.5427 20.1516 18.3844 20.2685 18.2675C20.3854 18.1506 20.5436 18.0843 20.709 18.083H25.5Z" fill="#AEC0FF"/>
<path d="M23.208 7.66699H16.958V9.54199C16.9575 9.92852 16.8037 10.2991 16.5304 10.5724C16.2571 10.8457 15.8865 10.9995 15.5 11C15.1135 10.9995 14.7429 10.8457 14.4696 10.5724C14.1963 10.2991 14.0425 9.92852 14.042 9.54199V7.66699H7.792C7.49102 7.66673 7.19294 7.7258 6.91481 7.84083C6.63668 7.95586 6.38395 8.12459 6.17108 8.33736C5.95821 8.55014 5.78937 8.8028 5.67422 9.08088C5.55907 9.35896 5.49987 9.65701 5.5 9.95799V21.208C5.49974 21.5091 5.55884 21.8072 5.67393 22.0854C5.78902 22.3636 5.95784 22.6164 6.17073 22.8293C6.38361 23.0422 6.63638 23.211 6.91458 23.3261C7.19278 23.4412 7.49094 23.5003 7.792 23.5H19.25V18.708C19.2505 18.3215 19.4043 17.9509 19.6776 17.6776C19.9509 17.4043 20.3215 17.2505 20.708 17.25H25.5V9.95799C25.5001 9.65701 25.4409 9.35896 25.3258 9.08088C25.2106 8.8028 25.0418 8.55014 24.8289 8.33736C24.6161 8.12459 24.3633 7.95586 24.0852 7.84083C23.8071 7.7258 23.509 7.66673 23.208 7.66699ZM17.167 19.75H9.458C9.29224 19.75 9.13327 19.6841 9.01606 19.5669C8.89885 19.4497 8.833 19.2908 8.833 19.125C8.833 18.9592 8.89885 18.8003 9.01606 18.6831C9.13327 18.5658 9.29224 18.5 9.458 18.5H17.167C17.3328 18.5 17.4917 18.5658 17.6089 18.6831C17.7262 18.8003 17.792 18.9592 17.792 19.125C17.792 19.2908 17.7262 19.4497 17.6089 19.5669C17.4917 19.6841 17.3328 19.75 17.167 19.75ZM21.542 16.417H9.458C9.29224 16.417 9.13327 16.3511 9.01606 16.2339C8.89885 16.1167 8.833 15.9578 8.833 15.792C8.833 15.6262 8.89885 15.4673 9.01606 15.3501C9.13327 15.2328 9.29224 15.167 9.458 15.167H21.542C21.7078 15.167 21.8667 15.2328 21.9839 15.3501C22.1012 15.4673 22.167 15.6262 22.167 15.792C22.167 15.9578 22.1012 16.1167 21.9839 16.2339C21.8667 16.3511 21.7078 16.417 21.542 16.417ZM21.542 13.083H9.458C9.29224 13.083 9.13327 13.0171 9.01606 12.8999C8.89885 12.7827 8.833 12.6238 8.833 12.458C8.833 12.2922 8.89885 12.1333 9.01606 12.0161C9.13327 11.8988 9.29224 11.833 9.458 11.833H21.542C21.7078 11.833 21.8667 11.8988 21.9839 12.0161C22.1012 12.1333 22.167 12.2922 22.167 12.458C22.167 12.6238 22.1012 12.7827 21.9839 12.8999C21.8667 13.0171 21.7078 13.083 21.542 13.083Z" fill="#4971FF"/>
<path d="M15.5 10.167C15.3342 10.167 15.1753 10.1011 15.0581 9.98393C14.9408 9.86672 14.875 9.70775 14.875 9.54199V6.41699C14.875 6.25123 14.9408 6.09226 15.0581 5.97505C15.1753 5.85784 15.3342 5.79199 15.5 5.79199C15.6658 5.79199 15.8247 5.85784 15.9419 5.97505C16.0592 6.09226 16.125 6.25123 16.125 6.41699V9.54199C16.125 9.88699 15.845 10.167 15.5 10.167Z" fill="#AEC0FF"/>
<path d="M15.5 6.833C14.582 6.833 13.834 6.086 13.834 5.167C13.834 4.247 14.582 3.5 15.501 3.5C16.42 3.5 17.167 4.248 17.167 5.167C17.167 6.086 16.42 6.833 15.501 6.833H15.5Z" fill="#AEC0FF"/>
</svg>
