<?xml version="1.0" encoding="utf-8"?>
<!-- Generator: Adobe Illustrator 15.0.0, SVG Export Plug-In . SVG Version: 6.00 Build 0)  -->
<!DOCTYPE svg PUBLIC "-//W3C//DTD SVG 1.1//EN" "http://www.w3.org/Graphics/SVG/1.1/DTD/svg11.dtd">
<svg version="1.1" id="Layer_1" xmlns="http://www.w3.org/2000/svg" xmlns:xlink="http://www.w3.org/1999/xlink" x="0px" y="0px"
	 width="40px" height="40px" viewBox="0 0 40 40" enable-background="new 0 0 40 40" xml:space="preserve">
<g>
	<path fill="#FFFFFF" d="M16.5,11c0,3.589-2.911,6.5-6.5,6.5S3.5,14.589,3.5,11S6.411,4.5,10,4.5S16.5,7.411,16.5,11z M10,22.5
		c-3.589,0-6.5,2.91-6.5,6.5s2.911,6.5,6.5,6.5s6.5-2.91,6.5-6.5S13.589,22.5,10,22.5z"/>
	<path fill="#B9B9D5" d="M10,18.9c-4.356,0-7.9-3.544-7.9-7.9S5.644,3.1,10,3.1s7.9,3.544,7.9,7.9S14.356,18.9,10,18.9z M10,5.9
		c-2.812,0-5.1,2.288-5.1,5.1s2.288,5.1,5.1,5.1s5.1-2.288,5.1-5.1S12.812,5.9,10,5.9z"/>
	<path fill="#595975" d="M38,8.5c0,0.825-0.9,1.5-2,1.5H22c-1.1,0-2-0.675-2-1.5S20.9,7,22,7h14C37.1,7,38,7.675,38,8.5z M28.875,12
		H22c-1.1,0-2,0.675-2,1.5s0.9,1.5,2,1.5h6.875c1.1,0,2-0.675,2-1.5S29.975,12,28.875,12z M36,25H22c-1.1,0-2,0.675-2,1.5
		s0.9,1.5,2,1.5h14c1.1,0,2-0.675,2-1.5S37.1,25,36,25z M28.875,30H22c-1.1,0-2,0.675-2,1.5s0.9,1.5,2,1.5h6.875
		c1.1,0,2-0.675,2-1.5S29.975,30,28.875,30z M17.9,29c0-4.355-3.544-7.9-7.9-7.9S2.1,24.645,2.1,29s3.544,7.9,7.9,7.9
		S17.9,33.355,17.9,29z M15.1,29c0,2.813-2.288,5.1-5.1,5.1S4.9,31.813,4.9,29s2.288-5.1,5.1-5.1S15.1,26.188,15.1,29z
		 M9.536,11.357L7.872,9.693L6.75,10.814L9.536,13.6l3.945-3.945l-1.122-1.121L9.536,11.357z"/>
</g>
</svg>
