<?xml version="1.0" encoding="utf-8"?>
<!-- Generator: Adobe Illustrator 15.0.0, SVG Export Plug-In . SVG Version: 6.00 Build 0)  -->
<!DOCTYPE svg PUBLIC "-//W3C//DTD SVG 1.1//EN" "http://www.w3.org/Graphics/SVG/1.1/DTD/svg11.dtd">
<svg version="1.1" id="Layer_1" xmlns="http://www.w3.org/2000/svg" xmlns:xlink="http://www.w3.org/1999/xlink" x="0px" y="0px"
	 width="40px" height="40px" viewBox="0 0 40 40" enable-background="new 0 0 40 40" xml:space="preserve">
<g>
	<path fill="#FFFFFF" d="M5.833,27.4c-0.773,0-1.4-0.627-1.4-1.4V5c0-0.773,0.626-1.4,1.4-1.4H30c0.773,0,1.4,0.626,1.4,1.4v21
		c0,0.773-0.627,1.4-1.4,1.4H5.833z"/>
	<path fill="#595975" d="M30,2.2H5.833c-1.546,0-2.8,1.253-2.8,2.8v21c0,1.547,1.253,2.8,2.8,2.8H20.01
		C20.118,23.379,24.554,19,30,19c0.973,0,1.91,0.146,2.8,0.406V5C32.8,3.454,31.547,2.2,30,2.2z M30,15.526l-6.256-4.664L6.639,26
		H5.833V5H30V15.526z M11.424,14.893c1.898,0,3.438-1.54,3.438-3.438c0-1.899-1.54-3.439-3.438-3.439C9.524,8.016,8,9.555,8,11.455
		C8,13.353,9.524,14.893,11.424,14.893z"/>
	<polygon fill="#B9B9D5" points="24.313,17.894 26.799,15.819 29.93,15.508 23.744,10.8 17.117,16.753 21.594,15.485 	"/>
	<circle fill="#FFFFFF" cx="30" cy="29" r="6.5"/>
	<path fill="#B9B9D5" d="M30,36.9c-4.355,0-7.9-3.545-7.9-7.9s3.545-7.9,7.9-7.9s7.9,3.545,7.9,7.9S34.355,36.9,30,36.9z M30,23.9
		c-2.813,0-5.1,2.287-5.1,5.1s2.287,5.1,5.1,5.1s5.1-2.287,5.1-5.1S32.813,23.9,30,23.9z"/>
	<polygon fill="#595975" points="29.535,29.357 27.871,27.693 26.75,28.814 29.535,31.6 33.48,27.654 32.359,26.533 	"/>
</g>
</svg>
