<svg width="31" height="31" viewBox="0 0 31 31" fill="none" xmlns="http://www.w3.org/2000/svg">
<g clip-path="url(#clip0_101_125)">
<mask id="mask0_101_125" style="mask-type:luminance" maskUnits="userSpaceOnUse" x="0" y="0" width="31" height="31">
<path d="M30.5 0.5H0.5V30.5H30.5V0.5Z" fill="white"/>
</mask>
<g mask="url(#mask0_101_125)">
<path fill-rule="evenodd" clip-rule="evenodd" d="M23.4998 8.51416C19.6638 8.51416 16.5278 11.6502 16.5278 15.4872C16.5278 19.3232 19.6638 22.4592 23.5008 22.4592C27.3368 22.4592 30.4728 19.3232 30.4728 15.4872C30.4728 11.6502 27.3368 8.51416 23.4998 8.51416ZM26.6568 17.4002C26.7401 17.4814 26.8064 17.5784 26.8519 17.6854C26.8974 17.7925 26.9212 17.9076 26.9219 18.0239C26.9227 18.1402 26.9003 18.2556 26.8561 18.3632C26.8119 18.4708 26.7468 18.5686 26.6645 18.6508C26.5822 18.7331 26.4845 18.7982 26.3768 18.8424C26.2692 18.8866 26.1539 18.909 26.0376 18.9083C25.9212 18.9076 25.8062 18.8838 25.6991 18.8382C25.5921 18.7927 25.4951 18.7264 25.4138 18.6432L23.4998 16.7292L21.5868 18.6432C21.5056 18.7264 21.4086 18.7927 21.3015 18.8382C21.1945 18.8838 21.0794 18.9076 20.9631 18.9083C20.8468 18.909 20.7314 18.8866 20.6238 18.8424C20.5162 18.7982 20.4184 18.7331 20.3362 18.6508C20.2539 18.5686 20.1888 18.4708 20.1446 18.3632C20.1004 18.2556 20.078 18.1402 20.0787 18.0239C20.0794 17.9076 20.1032 17.7925 20.1487 17.6854C20.1943 17.5784 20.2606 17.4814 20.3438 17.4002L22.2578 15.4872L20.3438 13.5732C20.2606 13.4919 20.1943 13.3949 20.1487 13.2879C20.1032 13.1808 20.0794 13.0658 20.0787 12.9494C20.078 12.8331 20.1004 12.7178 20.1446 12.6101C20.1888 12.5025 20.2539 12.4047 20.3362 12.3225C20.4184 12.2402 20.5162 12.1751 20.6238 12.1309C20.7314 12.0867 20.8468 12.0643 20.9631 12.065C21.0794 12.0658 21.1945 12.0896 21.3015 12.1351C21.4086 12.1806 21.5056 12.2469 21.5868 12.3302L23.4998 14.2442L25.4138 12.3302C25.4951 12.2469 25.5921 12.1806 25.6991 12.1351C25.8062 12.0896 25.9212 12.0658 26.0376 12.065C26.1539 12.0643 26.2692 12.0867 26.3768 12.1309C26.4845 12.1751 26.5822 12.2402 26.6645 12.3225C26.7468 12.4047 26.8119 12.5025 26.8561 12.6101C26.9003 12.7178 26.9227 12.8331 26.9219 12.9494C26.9212 13.0658 26.8974 13.1808 26.8519 13.2879C26.8064 13.3949 26.7401 13.4919 26.6568 13.5732L24.7428 15.4872L26.6568 17.4002Z" fill="#AEC0FF"/>
<path fill-rule="evenodd" clip-rule="evenodd" d="M7.968 17.4721C7.80316 17.637 7.5796 17.7295 7.3465 17.7295C7.1134 17.7295 6.88984 17.637 6.725 17.4721L4.865 15.6121C4.7035 15.4466 4.61373 15.2241 4.61515 14.9929C4.61657 14.7616 4.70906 14.5402 4.87259 14.3767C5.03611 14.2132 5.25748 14.1207 5.48874 14.1193C5.71999 14.1179 5.94248 14.2076 6.108 14.3691L7.347 15.6081L12.395 10.5601C11.7494 9.91226 10.9824 9.39813 10.1378 9.04721C9.29316 8.69629 8.38761 8.51548 7.473 8.51514C6.55775 8.51535 5.65155 8.69628 4.80639 9.04756C3.96123 9.39883 3.19376 9.91354 2.548 10.5621C1.8991 11.2079 1.38414 11.9755 1.03269 12.8209C0.681236 13.6662 0.500209 14.5726 0.5 15.4881C0.5 17.4061 1.284 19.1491 2.547 20.4131C3.19288 21.0619 3.96051 21.5766 4.80585 21.9279C5.65119 22.2792 6.55758 22.4601 7.473 22.4601C8.38825 22.4599 9.29445 22.279 10.1396 21.9277C10.9848 21.5764 11.7522 21.0617 12.398 20.4131C13.0466 19.7674 13.5614 18.9999 13.9127 18.1548C14.2639 17.3096 14.4448 16.4034 14.445 15.4881C14.4462 14.2466 14.1132 13.0276 13.481 11.9591L7.968 17.4721Z" fill="#4971FF"/>
</g>
</g>
<defs>
<clipPath id="clip0_101_125">
<rect width="30" height="30" fill="white" transform="translate(0.5 0.5)"/>
</clipPath>
</defs>
</svg>
