<svg width="31" height="31" viewBox="0 0 31 31" fill="none" xmlns="http://www.w3.org/2000/svg">
<path d="M9.67286 11.3359C10.5919 11.3359 11.3389 10.5889 11.3389 9.66993C11.3389 8.74993 10.5919 8.00293 9.67286 8.00293C8.75286 8.00293 8.00586 8.75093 8.00586 9.66993C8.00586 10.5899 8.75286 11.3359 9.67286 11.3359Z" fill="#AEC0FF"/>
<path d="M23.0431 5.50293H8.17308C6.75108 5.50293 5.50608 6.65393 5.50608 7.96693V18.1449C5.49862 18.2003 5.49862 18.2565 5.50608 18.3119V18.9659C5.50635 19.619 5.76576 20.2453 6.22736 20.7072C6.68896 21.1692 7.31502 21.4291 7.96808 21.4299H8.77008V24.6699C8.77 24.8367 8.81996 24.9996 8.9135 25.1376C9.00703 25.2757 9.13984 25.3824 9.29473 25.4442C9.44963 25.5059 9.61948 25.5197 9.78232 25.4838C9.94515 25.4479 10.0935 25.364 10.2081 25.2429L13.8281 21.4289H23.0441C23.697 21.4281 24.3229 21.1684 24.7845 20.7066C25.246 20.2448 25.5056 19.6188 25.5061 18.9659V7.96593C25.5053 7.31295 25.2455 6.68693 24.7838 6.2252C24.3221 5.76347 23.6961 5.50372 23.0431 5.50293ZM8.17308 7.16993H23.0431C23.4811 7.16993 23.8391 7.52693 23.8391 7.96693V14.6199L19.4561 10.2369C18.9061 9.68693 17.9391 9.68693 17.3891 10.2369L13.4221 14.2039L12.3721 13.1539C11.8221 12.6019 10.8561 12.6019 10.3061 13.1539L7.17208 16.2869V7.96693C7.17208 7.57893 7.68708 7.16993 8.17308 7.16993Z" fill="#4971FF"/>
</svg>
