<svg width="31" height="31" viewBox="0 0 31 31" fill="none" xmlns="http://www.w3.org/2000/svg">
<mask id="mask0_101_135" style="mask-type:luminance" maskUnits="userSpaceOnUse" x="5" y="5" width="21" height="21">
<path d="M5.5 5.5H25.5V25.5H5.5V5.5Z" fill="white"/>
</mask>
<g mask="url(#mask0_101_135)">
<path d="M10.0918 14.667H5.92479C5.81454 14.6673 5.70888 14.7112 5.63092 14.7891C5.55297 14.8671 5.50905 14.9728 5.50879 15.083V25.083C5.50879 25.313 5.69479 25.5 5.92479 25.5H10.0918C10.3218 25.5 10.5088 25.313 10.5088 25.083V15.083C10.5088 15.0283 10.498 14.9741 10.477 14.9236C10.4561 14.873 10.4253 14.8271 10.3866 14.7885C10.3479 14.7498 10.3019 14.7192 10.2513 14.6984C10.2007 14.6775 10.1465 14.6669 10.0918 14.667ZM17.5748 5.5H13.4078C13.2974 5.50026 13.1916 5.54432 13.1136 5.62249C13.0356 5.70066 12.9918 5.80658 12.9918 5.917V25.083C12.9918 25.313 13.1778 25.5 13.4078 25.5H17.5748C17.8048 25.5 17.9918 25.313 17.9918 25.083V5.917C17.9918 5.86224 17.981 5.80801 17.96 5.75742C17.9391 5.70683 17.9084 5.66086 17.8697 5.62214C17.8309 5.58341 17.785 5.5527 17.7344 5.53174C17.6838 5.51079 17.6296 5.5 17.5748 5.5Z" fill="#4971FF"/>
<path d="M25.0747 9.66699H20.9077C20.7975 9.66726 20.6918 9.71117 20.6138 9.78913C20.5359 9.86709 20.492 9.97274 20.4917 10.083V25.083C20.4917 25.313 20.6777 25.5 20.9077 25.5H25.0747C25.3047 25.5 25.4917 25.313 25.4917 25.083V10.083C25.4914 9.97257 25.4474 9.86676 25.3692 9.78878C25.291 9.71079 25.1851 9.66699 25.0747 9.66699Z" fill="#AEC0FF"/>
</g>
</svg>
