<svg version="1.1" id="Layer_1" xmlns="http://www.w3.org/2000/svg" x="0px" y="0px"
	 width="40px" height="40px" viewBox="0 0 40 40" enable-background="new 0 0 40 40" xml:space="preserve">
<g>
	<g>
		<g>
			<path fill="#B9B9D5" d="M36.904,5.121h-22.8c-1.1,0-2,0.9-2,2v2.441c1.652-0.475,3.422-0.747,5.274-0.747
				c8.679,0,15.741,5.677,15.741,12.657c0,2.646-1.019,5.103-2.751,7.137l5.168,3.107c0.942,0.567,1.556,0.146,1.363-0.938
				l-0.864-4.857h0.869c1.1,0,2-0.9,2-2V7.121C38.904,6.021,38.004,5.121,36.904,5.121z"/>
		</g>
	</g>
	<path fill="#595975" d="M17.5,10C9.492,10,3,15.148,3,21.5c0,2.346,0.89,4.524,2.41,6.344l-1.234,6.936
		c-0.193,1.083,0.421,1.505,1.363,0.938l6.136-3.689C13.459,32.649,15.426,33,17.5,33C25.508,33,32,27.852,32,21.5
		S25.508,10,17.5,10z"/>
	<g>
		<path fill="#FFFFFF" d="M15.341,19.104h-2.303c-0.012-1.128,0.375-2.061,1.16-2.798c0.785-0.736,1.819-1.104,3.103-1.104
			c0.826,0,1.529,0.152,2.109,0.457s1.044,0.744,1.393,1.318s0.522,1.178,0.522,1.811c0,0.346-0.055,0.686-0.166,1.02
			s-0.288,0.677-0.528,1.028c-0.141,0.205-0.478,0.551-1.011,1.037c-0.51,0.463-0.829,0.79-0.958,0.979
			c-0.129,0.191-0.237,0.444-0.325,0.761s-0.144,0.756-0.167,1.318H15.79l-0.009-0.396c0-0.785,0.144-1.498,0.431-2.141
			c0.287-0.641,0.753-1.243,1.397-1.806c0.621-0.545,0.996-0.92,1.125-1.125s0.193-0.445,0.193-0.721
			c0-0.375-0.157-0.692-0.47-0.954c-0.313-0.26-0.734-0.391-1.261-0.391c-0.539,0-0.981,0.159-1.327,0.477
			S15.347,18.603,15.341,19.104z M17.02,25.933c0.428,0,0.792,0.146,1.094,0.439s0.453,0.647,0.453,1.063s-0.149,0.772-0.448,1.068
			c-0.299,0.295-0.659,0.443-1.081,0.443s-0.781-0.148-1.077-0.443c-0.296-0.296-0.444-0.652-0.444-1.068s0.146-0.771,0.439-1.063
			S16.604,25.933,17.02,25.933z"/>
	</g>
</g>
</svg>
