<?xml version="1.0" encoding="utf-8"?>
<!-- Generator: Adobe Illustrator 15.0.0, SVG Export Plug-In . SVG Version: 6.00 Build 0)  -->
<!DOCTYPE svg PUBLIC "-//W3C//DTD SVG 1.1//EN" "http://www.w3.org/Graphics/SVG/1.1/DTD/svg11.dtd">
<svg version="1.1" id="Layer_1" xmlns="http://www.w3.org/2000/svg" xmlns:xlink="http://www.w3.org/1999/xlink" x="0px" y="0px"
	 width="40px" height="40px" viewBox="0 0 40 40" enable-background="new 0 0 40 40" xml:space="preserve">
<g>
	<path fill="#FFFFFF" d="M17.399,17.399h-12v-12h12V17.399z M17.399,23.399h-12v12h12V23.399z M35.701,5.399h-12v12h12V5.399z"/>
	<path fill="#595975" d="M17.419,18.899H5.58c-0.817,0-1.48-0.663-1.48-1.48V5.58c0-0.818,0.663-1.48,1.48-1.48h11.84
		c0.818,0,1.48,0.662,1.48,1.48v11.84C18.899,18.237,18.237,18.899,17.419,18.899z M6.959,16.04h9.08v-9.08h-9.08V16.04z
		 M17.419,36.899H5.58c-0.817,0-1.48-0.663-1.48-1.479V23.58c0-0.818,0.663-1.48,1.48-1.48h11.84c0.818,0,1.48,0.662,1.48,1.48
		v11.84C18.899,36.236,18.237,36.899,17.419,36.899z M6.959,34.039h9.08v-9.08h-9.08V34.039z M35.42,18.899H23.58
		c-0.816,0-1.479-0.663-1.479-1.48V5.58c0-0.818,0.663-1.48,1.479-1.48h11.84c0.818,0,1.48,0.662,1.48,1.48v11.84
		C36.9,18.237,36.238,18.899,35.42,18.899z M24.961,16.04h9.08v-9.08h-9.08V16.04z M25,27.9h3V25h4v-3H22v3h3V27.9z M34,22v6.031
		l-6,0.003v5.933h3V31h3v3h-3l0.012,2.834H37V22H34z M24.977,28.018h-2.883l0.001,8.816H28V34h-3.023V28.018z"/>
	<path fill="#B9B9D5" d="M14,12c0,1.1-0.9,2-2,2h-1c-1.1,0-2-0.9-2-2v-1c0-1.1,0.9-2,2-2h1c1.1,0,2,0.9,2,2V12z M14,29
		c0-1.1-0.9-2-2-2h-1c-1.1,0-2,0.9-2,2v1c0,1.1,0.9,2,2,2h1c1.1,0,2-0.9,2-2V29z M32,11c0-1.1-0.9-2-2-2h-1c-1.1,0-2,0.9-2,2v1
		c0,1.1,0.9,2,2,2h1c1.1,0,2-0.9,2-2V11z"/>
</g>
</svg>
