<svg width="30" height="30" viewBox="0 0 30 30" fill="none" xmlns="http://www.w3.org/2000/svg">
<path d="M12.143 5H6.429C6.05009 5.00026 5.68677 5.1509 5.41884 5.41884C5.1509 5.68677 5.00026 6.05009 5 6.429V12.143C5 12.931 5.64 13.571 6.429 13.571H12.143C12.5216 13.5705 12.8845 13.4199 13.1522 13.1522C13.4199 12.8845 13.5705 12.5216 13.571 12.143V6.429C13.5707 6.05026 13.4202 5.68709 13.1525 5.41919C12.8848 5.15129 12.5217 5.00053 12.143 5ZM10.714 10.714H7.857V7.857H10.714V10.714ZM23.572 5H17.857C17.4783 5.00053 17.1152 5.15129 16.8475 5.41919C16.5798 5.68709 16.4293 6.05026 16.429 6.429V12.143C16.429 12.931 17.069 13.571 17.857 13.571H23.572C23.9506 13.5705 24.3135 13.4199 24.5812 13.1522C24.8489 12.8845 24.9995 12.5216 25 12.143V6.429C24.9997 6.05026 24.8492 5.68709 24.5815 5.41919C24.3138 5.15129 23.9507 5.00053 23.572 5ZM22.143 10.714H19.286V7.857H22.143V10.714ZM12.143 16.429H6.429C6.05026 16.4293 5.68709 16.5798 5.41919 16.8475C5.15129 17.1152 5.00053 17.4783 5 17.857V23.572C5 24.36 5.64 25 6.429 25H12.143C12.5216 24.9995 12.8845 24.8489 13.1522 24.5812C13.4199 24.3135 13.5705 23.9506 13.571 23.572V17.857C13.5705 17.4784 13.4199 17.1155 13.1522 16.8478C12.8845 16.5801 12.5216 16.4295 12.143 16.429ZM10.714 22.143H7.857V19.286H10.714V22.143Z" fill="#4971FF"/>
<path d="M19.2862 16.429H16.4292V19.286H19.2862V16.429ZM22.1432 19.286V22.143H19.2862V25H23.5712C23.9503 24.9997 24.3138 24.8489 24.5817 24.5808C24.8497 24.3126 25.0002 23.949 25.0002 23.57V19.285L22.1432 19.286Z" fill="#AEC0FF"/>
</svg>
