<svg width="31" height="31" viewBox="0 0 31 31" fill="none" xmlns="http://www.w3.org/2000/svg">
<mask id="mask0_101_142" style="mask-type:luminance" maskUnits="userSpaceOnUse" x="3" y="3" width="25" height="25">
<path d="M3.5 3.5H27.5V27.5H3.5V3.5Z" fill="white"/>
</mask>
<g mask="url(#mask0_101_142)">
<path d="M27.5 19.742C27.4974 18.3058 27.0974 16.8983 26.3443 15.6753C25.5912 14.4524 24.5144 13.4617 23.233 12.813C23.153 18.523 18.523 23.153 12.813 23.233C13.4617 24.5146 14.4525 25.5916 15.6757 26.3447C16.8988 27.0979 18.3066 27.4977 19.743 27.5C21.1317 27.5014 22.4951 27.1287 23.69 26.421L27.466 27.466L26.422 23.689C27.1293 22.494 27.5017 21.1306 27.5 19.742Z" fill="#AEC0FF"/>
<path d="M21.828 12.664C21.828 7.611 17.718 3.5 12.664 3.5C7.611 3.5 3.5 7.61 3.5 12.664C3.5 14.311 3.938 15.914 4.77 17.322L3.534 21.794L8.006 20.557C9.41658 21.3908 11.0254 21.8298 12.664 21.828C17.717 21.828 21.828 17.718 21.828 12.664ZM11.258 10.531H9.852C9.85306 9.78554 10.1497 9.07091 10.6768 8.54378C11.2039 8.01666 11.9185 7.72006 12.664 7.719C13.4096 7.71979 14.1245 8.01628 14.6519 8.54343C15.1792 9.07058 15.4759 9.78536 15.477 10.531C15.4765 10.9215 15.395 11.3077 15.2375 11.6651C15.08 12.0224 14.85 12.3432 14.562 12.607L13.367 13.7V14.797H11.961V13.08L13.613 11.568C13.8212 11.3764 13.9669 11.1264 14.0309 10.8508C14.095 10.5752 14.0745 10.2866 13.9722 10.0228C13.8699 9.75898 13.6904 9.53211 13.4572 9.37178C13.2241 9.21145 12.948 9.1251 12.665 9.124C11.889 9.124 11.258 9.754 11.258 10.53V10.531ZM11.961 16.203H13.367V17.609H11.961V16.203Z" fill="#4971FF"/>
</g>
</svg>
