<svg width="32" height="32" viewBox="0 0 32 32" fill="none" xmlns="http://www.w3.org/2000/svg">
<mask id="mask0_101_152" style="mask-type:alpha" maskUnits="userSpaceOnUse" x="4" y="4" width="24" height="24">
<path fill-rule="evenodd" clip-rule="evenodd" d="M16.375 27.411C22.725 27.411 27.872 22.264 27.872 15.914C27.872 9.56401 22.724 4.41602 16.375 4.41602C10.025 4.41602 4.87695 9.56401 4.87695 15.914C4.87695 22.264 10.025 27.411 16.375 27.411ZM16.375 19.977C17.4527 19.977 18.4862 19.5489 19.2483 18.7868C20.0103 18.0248 20.4385 16.9912 20.4385 15.9135C20.4385 14.8358 20.0103 13.8022 19.2483 13.0402C18.4862 12.2781 17.4527 11.85 16.375 11.85C15.2972 11.85 14.2637 12.2781 13.5016 13.0402C12.7396 13.8022 12.3115 14.8358 12.3115 15.9135C12.3115 16.9912 12.7396 18.0248 13.5016 18.7868C14.2637 19.5489 15.2972 19.977 16.375 19.977Z" fill="#C4C4C4"/>
</mask>
<g mask="url(#mask0_101_152)">
<path d="M16.941 15.7741L17.42 17.4701L16.036 16.3791L6.99297 9.25011L6.54297 8.89611L6.89797 8.44611C7.68312 7.45024 8.62028 6.58429 9.67497 5.88011C10.7293 5.17496 11.8882 4.6404 13.109 4.29611L13.66 4.14111L13.816 4.69111L16.941 15.7741Z" fill="#AEC0FF" stroke="white" stroke-width="1.145"/>
<path d="M19.5158 27.0112C17.1754 27.6693 14.6869 27.571 12.4058 26.7302L16.3898 15.9302L19.5158 27.0112Z" fill="#AEC0FF"/>
<mask id="mask1_101_152" style="mask-type:luminance" maskUnits="userSpaceOnUse" x="8" y="11" width="14" height="20">
<path d="M8.68701 11.0303H21.727V30.1983H8.68701V11.0303Z" fill="white"/>
<path d="M19.5163 27.0112C17.1759 27.6693 14.6874 27.571 12.4062 26.7302L16.3903 15.9302L19.5163 27.0112Z" fill="white"/>
</mask>
<g mask="url(#mask1_101_152)">
<path d="M12.4061 26.7301L12.0111 27.8041L10.9351 27.409L11.3321 26.3341L12.4061 26.7301ZM16.3901 15.9301L15.3161 15.5331L16.5361 12.2271L17.4921 15.6181L16.3901 15.9291V15.9301ZM19.8271 28.1131C17.2281 28.8471 14.4891 28.7161 12.0111 27.8041L12.8011 25.6551C14.8351 26.4041 17.0801 26.5091 19.2051 25.909L19.8271 28.1131ZM11.3321 26.3341L15.3161 15.5331L17.4641 16.3251L13.4801 27.1259L11.3321 26.3341ZM17.4921 15.6181L20.6181 26.7001L18.4141 27.3221L15.2881 16.2401L17.4921 15.6181Z" fill="white"/>
</g>
<path d="M7.13482 22.8023L6.65882 23.1203L6.34082 22.6443C4.91964 20.5233 4.21009 18.0052 4.31482 15.4543L4.33782 14.8843L4.90882 14.9053L16.4128 15.3573L18.1728 15.4273L16.7078 16.4053L7.13482 22.8023Z" fill="#AEC0FF" stroke="white" stroke-width="1.145"/>
<path d="M20.3746 5.12793C22.5796 5.93993 24.5586 7.42793 25.9646 9.53193L16.3896 15.9299L20.3736 5.12993L20.3746 5.12793Z" fill="#AEC0FF"/>
<mask id="mask2_101_152" style="mask-type:luminance" maskUnits="userSpaceOnUse" x="12" y="2" width="17" height="18">
<path d="M12.001 2.60205H28.66V19.2611H12.001V2.60205Z" fill="white"/>
<path d="M20.3751 5.12793C22.5801 5.93993 24.5591 7.42793 25.9651 9.53193L16.3901 15.9299L20.3741 5.12993L20.3751 5.12793Z" fill="white"/>
</mask>
<g mask="url(#mask2_101_152)">
<path d="M25.9642 9.5322L26.9162 8.8962L27.5522 9.8482L26.6002 10.4842L25.9642 9.5322ZM16.3912 15.9292L17.0272 16.8812L14.0972 18.8392L15.3172 15.5332L16.3912 15.9292ZM20.7712 4.0542C23.1942 4.9462 25.3712 6.5842 26.9162 8.8962L25.0122 10.1682C23.7983 8.34581 22.0359 6.9571 19.9802 6.2032L20.7712 4.0542ZM26.6002 10.4842L17.0272 16.8812L15.7552 14.9772L25.3282 8.5802L26.6002 10.4842ZM15.3172 15.5332L19.3012 4.7332L21.4492 5.5252L17.4652 16.3252L15.3172 15.5332Z" fill="white"/>
</g>
<path d="M27.9158 15.8091L28.4888 15.8311L28.4658 16.4041C28.3648 18.9539 27.4608 21.4066 25.8828 23.4121L25.5278 23.8621L25.0778 23.5071L16.0358 16.3791L14.6528 15.2891L16.4128 15.3571L27.9158 15.8091Z" fill="#AEC0FF" stroke="white" stroke-width="1.145"/>
<path d="M16.3897 15.9303L7.34672 8.80029C5.84351 10.7111 4.98252 13.048 4.88672 15.4773L16.3897 15.9303Z" fill="#4971FF"/>
<path d="M12.4059 26.7302C10.1223 25.8928 8.16454 24.3504 6.81592 22.3262L16.3899 15.9292L12.4059 26.7302Z" fill="#4971FF"/>
<path d="M13.2646 4.84699C15.605 4.189 18.0935 4.28735 20.3746 5.12799L16.3896 15.93L13.2646 4.84699ZM19.5146 27.011L16.3896 15.93L25.4326 23.059C23.9276 24.9693 21.8557 26.3522 19.5146 27.011Z" fill="#4971FF"/>
<path d="M25.9626 9.53223C27.3164 11.5526 27.9923 13.9513 27.8926 16.3812L16.3896 15.9292L25.9626 9.53223Z" fill="#4971FF"/>
</g>
<path fill-rule="evenodd" clip-rule="evenodd" d="M29.0161 15.9631C29.0161 22.9181 23.3781 28.5561 16.4231 28.5561C9.46808 28.5561 3.83008 22.9181 3.83008 15.9631C3.83008 9.00812 9.46808 3.37012 16.4231 3.37012C23.3781 3.37012 29.0161 9.00812 29.0161 15.9631ZM16.4231 27.4101C22.7461 27.4101 27.8711 22.2851 27.8711 15.9621C27.8711 9.63912 22.7461 4.51512 16.4231 4.51512C10.1001 4.51512 4.97508 9.64012 4.97508 15.9631C4.97508 22.2861 10.1001 27.4101 16.4231 27.4101Z" fill="#AEC0FF"/>
<path d="M18.9918 15.914C18.9987 16.262 18.936 16.6079 18.8075 16.9315C18.679 17.255 18.4873 17.5497 18.2436 17.7982C17.9998 18.0467 17.709 18.2442 17.388 18.379C17.0671 18.5137 16.7225 18.5832 16.3743 18.5832C16.0262 18.5832 15.6816 18.5137 15.3607 18.379C15.0397 18.2442 14.7489 18.0467 14.5051 17.7982C14.2614 17.5497 14.0697 17.255 13.9412 16.9315C13.8127 16.6079 13.75 16.262 13.7568 15.914C13.7702 15.2287 14.0519 14.5759 14.5413 14.096C15.0307 13.616 15.6889 13.3472 16.3743 13.3472C17.0598 13.3472 17.718 13.616 18.2074 14.096C18.6968 14.5759 18.9785 15.2287 18.9918 15.914Z" fill="#4971FF"/>
</svg>
