<svg width="31" height="31" viewBox="0 0 31 31" fill="none" xmlns="http://www.w3.org/2000/svg">
<path d="M25.25 8.86621H5.75C5.41848 8.86621 5.10054 8.99791 4.86612 9.23233C4.6317 9.46675 4.5 9.78469 4.5 10.1162V21.5602C4.5 22.2482 5.057 22.8102 5.75 22.8102H25.25C25.5815 22.8102 25.8995 22.6785 26.1339 22.4441C26.3683 22.2097 26.5 21.8917 26.5 21.5602V10.1162C26.4992 9.78493 26.3673 9.46745 26.133 9.2332C25.8988 8.99895 25.5813 8.867 25.25 8.86621ZM18.251 11.4922C18.251 11.3212 18.391 11.1822 18.561 11.1822H19.834C20.004 11.1822 20.144 11.3212 20.144 11.4922V12.7422C20.144 12.9122 20.004 13.0522 19.834 13.0522H18.56C18.4778 13.0522 18.3989 13.0196 18.3408 12.9614C18.2827 12.9033 18.25 12.8244 18.25 12.7422L18.251 11.4922ZM16.705 14.8852H17.977C18.147 14.8852 18.287 15.0252 18.287 15.1952V16.4452C18.287 16.6162 18.147 16.7552 17.977 16.7552H16.705C16.6228 16.7552 16.5439 16.7226 16.4858 16.6644C16.4277 16.6063 16.395 16.5274 16.395 16.4452V15.1952C16.395 15.0252 16.534 14.8852 16.705 14.8852ZM14.556 11.4922C14.556 11.3212 14.696 11.1822 14.866 11.1822H16.138C16.309 11.1822 16.448 11.3212 16.448 11.4922V12.7422C16.448 12.9122 16.309 13.0522 16.138 13.0522H14.866C14.7838 13.0522 14.7049 13.0196 14.6468 12.9614C14.5887 12.9033 14.556 12.8244 14.556 12.7422V11.4922ZM13.006 14.8852H14.277C14.448 14.8852 14.587 15.0252 14.587 15.1952V16.4452C14.587 16.6162 14.448 16.7552 14.277 16.7552H13.005C12.9228 16.7552 12.8439 16.7226 12.7858 16.6644C12.7277 16.6063 12.695 16.5274 12.695 16.4452V15.1952C12.695 15.0252 12.836 14.8852 13.006 14.8852ZM10.856 11.4922C10.856 11.3212 10.996 11.1822 11.166 11.1822H12.439C12.609 11.1822 12.749 11.3212 12.749 11.4922V12.7422C12.749 12.9122 12.609 13.0522 12.439 13.0522H11.166C11.1253 13.0522 11.085 13.0442 11.0474 13.0286C11.0098 13.013 10.9756 12.9902 10.9468 12.9614C10.918 12.9326 10.8952 12.8985 10.8796 12.8608C10.864 12.8232 10.856 12.7829 10.856 12.7422V11.4922ZM7.139 11.4922C7.139 11.3212 7.279 11.1822 7.449 11.1822H8.72C8.89 11.1822 9.03 11.3212 9.03 11.4922V12.7422C9.03 12.9122 8.89 13.0522 8.72 13.0522H7.45C7.36778 13.0522 7.28893 13.0196 7.2308 12.9614C7.17266 12.9033 7.14 12.8244 7.14 12.7422L7.139 11.4922ZM9.031 20.1852C9.031 20.3562 8.891 20.4952 8.721 20.4952H7.45C7.36778 20.4952 7.28893 20.4626 7.2308 20.4044C7.17266 20.3463 7.14 20.2674 7.14 20.1852V18.9352C7.14 18.7652 7.28 18.6252 7.45 18.6252H8.72C8.89 18.6252 9.03 18.7652 9.03 18.9352V20.1852H9.031ZM10.56 16.7552H9.287C9.20478 16.7552 9.12593 16.7226 9.0678 16.6644C9.00966 16.6063 8.977 16.5274 8.977 16.4452V15.1952C8.977 15.0252 9.117 14.8852 9.287 14.8852H10.56C10.73 14.8852 10.87 15.0252 10.87 15.1952V16.4452C10.87 16.6162 10.73 16.7552 10.56 16.7552ZM20.144 20.1852C20.144 20.3562 20.004 20.4952 19.834 20.4952H11.17C11.0878 20.4952 11.0089 20.4626 10.9508 20.4044C10.8927 20.3463 10.86 20.2674 10.86 20.1852V18.9352C10.86 18.7652 11 18.6252 11.17 18.6252H19.833C20.003 18.6252 20.143 18.7652 20.143 18.9352L20.144 20.1852ZM21.672 16.7552H20.4C20.3178 16.7552 20.2389 16.7226 20.1808 16.6644C20.1227 16.6063 20.09 16.5274 20.09 16.4452V15.1952C20.09 15.0252 20.23 14.8852 20.4 14.8852H21.672C21.842 14.8852 21.982 15.0252 21.982 15.1952V16.4452C21.982 16.6162 21.842 16.7552 21.672 16.7552ZM23.862 20.1852C23.862 20.3562 23.722 20.4952 23.552 20.4952H22.279C22.1968 20.4952 22.1179 20.4626 22.0598 20.4044C22.0017 20.3463 21.969 20.2674 21.969 20.1852V18.9352C21.969 18.7652 22.109 18.6252 22.279 18.6252H23.551C23.721 18.6252 23.861 18.7652 23.861 18.9352L23.862 20.1852ZM23.862 12.7412C23.862 12.9122 23.722 13.0512 23.552 13.0512H22.279C22.1968 13.0512 22.1179 13.0186 22.0598 12.9604C22.0017 12.9023 21.969 12.8234 21.969 12.7412V11.4912C21.969 11.3212 22.109 11.1812 22.279 11.1812H23.551C23.721 11.1812 23.861 11.3212 23.861 11.4912L23.862 12.7412Z" fill="#4971FF"/>
</svg>
