<svg width="30" height="30" viewBox="0 0 30 30" fill="none" xmlns="http://www.w3.org/2000/svg">
<path d="M24.588 10.034C24.358 9.239 23.682 8.612 22.825 8.398C21.26 8 15 8 15 8C15 8 8.74 8 7.175 8.382C6.335 8.596 5.642 9.239 5.412 10.034C5 11.487 5 14.5 5 14.5C5 14.5 5 17.528 5.412 18.966C5.642 19.761 6.318 20.388 7.175 20.602C8.756 21 15 21 15 21C15 21 21.26 21 22.825 20.617C23.682 20.404 24.358 19.777 24.588 18.981C25 17.528 25 14.515 25 14.515C25 14.515 25.016 11.486 24.588 10.034ZM13.007 17.284V11.717L18.212 14.5L13.007 17.284Z" fill="#4971FF"/>
</svg>
