<svg width="31" height="31" viewBox="0 0 31 31" fill="none" xmlns="http://www.w3.org/2000/svg">
<path d="M24.586 14.0298C24.4157 12.9541 23.8674 11.9744 23.0397 11.2666C22.212 10.5588 21.1591 10.1692 20.07 10.1678C19.213 10.1678 18.388 10.4048 17.674 10.8478C17.1372 9.94206 16.3733 9.19209 15.4578 8.67208C14.5423 8.15206 13.5069 7.88001 12.454 7.88283C11.6486 7.88359 10.8514 8.04383 10.1082 8.35429C9.36511 8.66476 8.69081 9.11931 8.12426 9.69172C7.55771 10.2641 7.11011 10.9431 6.80731 11.6893C6.5045 12.4356 6.35247 13.2345 6.36 14.0398C4.2 14.4038 2.5 16.2858 2.5 18.5468C2.5 21.0668 4.6 23.1168 7.121 23.1168H23.88C26.4 23.1168 28.501 21.0668 28.501 18.5468C28.501 16.2668 26.773 14.3718 24.587 14.0308L24.586 14.0298Z" fill="#4971FF"/>
</svg>
