<svg version="1.1" id="Layer_1" xmlns="http://www.w3.org/2000/svg" x="0px" y="0px"
	 width="40px" height="40px" viewBox="0 0 40 40" enable-background="new 0 0 40 40" xml:space="preserve">
<g>
	<path fill="#B9B9D5" d="M28,15h-7.925c-1.1,0-2-0.675-2-1.5s0.9-1.5,2-1.5H28c1.1,0,2,0.675,2,1.5S29.1,15,28,15z M22,27.5
		c0-0.825-0.9-1.5-2-1.5H7.2c-1.1,0-2,0.675-2,1.5s0.9,1.5,2,1.5H20C21.1,29,22,28.325,22,27.5z"/>
	<path fill="#595975" d="M5.097,15.19h1.713l1.322,5.618l1.634-5.618h1.449l1.658,5.618l1.31-5.618h1.714l-2.062,8.801h-1.671
		l-1.686-5.689l-1.655,5.689H7.169L5.097,15.19z M19.481,17.262c0.602,0,1.167,0.15,1.696,0.451s0.942,0.709,1.239,1.225
		s0.445,1.072,0.445,1.67c0,0.602-0.149,1.164-0.448,1.688s-0.706,0.933-1.222,1.228s-1.084,0.442-1.705,0.442
		c-0.914,0-1.694-0.325-2.341-0.976s-0.97-1.44-0.97-2.37c0-0.996,0.365-1.826,1.096-2.49
		C17.913,17.551,18.649,17.262,19.481,17.262z M19.508,18.768c-0.497,0-0.911,0.173-1.241,0.519
		c-0.331,0.346-0.496,0.788-0.496,1.327c0,0.555,0.163,1.004,0.49,1.348c0.327,0.344,0.74,0.516,1.241,0.516s0.917-0.174,1.25-0.521
		c0.332-0.348,0.499-0.795,0.499-1.342s-0.163-0.991-0.49-1.333C20.434,18.938,20.017,18.768,19.508,18.768z M24.094,17.426h1.371
		v0.803c0.148-0.316,0.346-0.557,0.592-0.721s0.516-0.246,0.809-0.246c0.207,0,0.424,0.055,0.65,0.164l-0.498,1.377
		c-0.188-0.094-0.342-0.141-0.463-0.141c-0.246,0-0.453,0.152-0.623,0.457s-0.256,0.902-0.256,1.793l0.006,0.311v2.578h-1.588
		V17.426z M33.112,15.064h1.6v8.736h-1.6v-0.674c-0.312,0.297-0.626,0.511-0.939,0.642s-0.654,0.196-1.021,0.196
		c-0.824,0-1.536-0.319-2.137-0.958c-0.602-0.639-0.901-1.433-0.901-2.382c0-0.984,0.29-1.791,0.872-2.42s1.287-0.943,2.119-0.943
		c0.382,0,0.74,0.072,1.076,0.217s0.646,0.361,0.931,0.65V15.064z M31.431,18.738c-0.494,0-0.905,0.175-1.231,0.524
		c-0.328,0.35-0.491,0.798-0.491,1.345c0,0.551,0.167,1.004,0.499,1.359c0.333,0.355,0.742,0.533,1.229,0.533
		c0.503,0,0.919-0.175,1.249-0.524c0.332-0.35,0.497-0.808,0.497-1.374c0-0.555-0.165-1.004-0.497-1.348
		C32.355,18.91,31.938,18.738,31.431,18.738z M33,7h-8c-1.1,0-2-0.675-2-1.5S23.9,4,25,4h8c1.1,0,2,0.675,2,1.5S34.1,7,33,7z
		 M20,8.5C20,7.675,19.1,7,18,7H7.2c-1.1,0-2,0.675-2,1.5s0.9,1.5,2,1.5H18C19.1,10,20,9.325,20,8.5z M36,30.5
		c0-0.825-0.9-1.5-2-1.5h-7.8c-1.101,0-2,0.675-2,1.5s0.899,1.5,2,1.5H34C35.1,32,36,31.325,36,30.5z M26,35.5
		c0-0.825-0.9-1.5-2-1.5h-5.8c-1.1,0-2,0.675-2,1.5s0.9,1.5,2,1.5H24C25.1,37,26,36.325,26,35.5z"/>
</g>
</svg>
