<svg width="40" height="40" viewBox="0 0 40 40" fill="none" xmlns="http://www.w3.org/2000/svg">
<path d="M30.912 13.9149C30.912 18.4569 24.967 22.1699 24.967 26.7959H15.033C15.033 22.3579 9.08801 18.6449 9.08801 13.9149C9.08801 7.89793 13.983 3.00293 20 3.00293C26.017 3.00293 30.912 7.89793 30.912 13.9149ZM15 27.9999V31.9999C15 33.0999 15.72 34.5399 16.6 35.1999L17.4 35.7999C18.28 36.4599 19.45 36.9999 20 36.9999C20.55 36.9999 21.721 36.4599 22.6 35.7999L23.401 35.1999C24.279 34.5399 25 33.0999 25 31.9999V27.9999H15Z" fill="#113B98"/>
<path d="M7 13.9999H3C2.448 13.9999 2 13.5529 2 12.9999C2 12.4469 2.448 11.9999 3 11.9999H7C7.552 11.9999 8 12.4469 8 12.9999C8 13.5529 7.552 13.9999 7 13.9999ZM8.895 7.19691C9.142 6.70291 8.942 6.10191 8.448 5.85491L4.448 3.85491C3.952 3.60791 3.353 3.80891 3.105 4.30291C2.857 4.79691 3.059 5.39691 3.553 5.64491L7.553 7.64491C7.696 7.71591 7.849 7.74991 7.999 7.74991C8.366 7.74991 8.719 7.54791 8.895 7.19691ZM4.447 21.8949L8.447 19.8949C8.941 19.6479 9.141 19.0469 8.894 18.5529C8.647 18.0589 8.048 17.8609 7.552 18.1059L3.552 20.1059C3.058 20.3529 2.858 20.9539 3.105 21.4479C3.281 21.7979 3.634 21.9999 4.001 21.9999C4.151 21.9999 4.304 21.9659 4.447 21.8949ZM33.05 13.9999H37.05C37.602 13.9999 38.05 13.5529 38.05 12.9999C38.05 12.4469 37.602 11.9999 37.05 11.9999H33.05C32.498 11.9999 32.05 12.4469 32.05 12.9999C32.05 13.5529 32.498 13.9999 33.05 13.9999ZM32.051 7.74991C32.201 7.74991 32.354 7.71591 32.497 7.64491L36.497 5.64491C36.991 5.39791 37.191 4.79691 36.944 4.30291C36.697 3.80891 36.097 3.60891 35.602 3.85591L31.602 5.85591C31.108 6.10291 30.908 6.70391 31.155 7.19791C31.33 7.54791 31.684 7.74991 32.051 7.74991ZM36.049 21.9999C36.416 21.9999 36.77 21.7979 36.945 21.4469C37.192 20.9529 36.992 20.3519 36.498 20.1049L32.498 18.1049C32.003 17.8599 31.403 18.0579 31.156 18.5519C30.909 19.0459 31.109 19.6469 31.603 19.8939L35.603 21.8939C35.746 21.9659 35.898 21.9999 36.049 21.9999Z" fill="#D6E0F7"/>
<path d="M21.367 9.89696C21.715 8.85296 21.407 8.67695 20.683 9.50395L16.317 14.494C15.593 15.322 15.9 16 17 16H18C19.1 16 19.715 16.854 19.368 17.897L18.633 20.102C18.285 21.146 18.593 21.322 19.318 20.495L23.685 15.505C24.407 14.678 24.1 14 23 14H22C20.9 14 20.285 13.146 20.632 12.103L21.367 9.89696Z" fill="white"/>
</svg>
