<svg width="40" height="40" viewBox="0 0 40 40" fill="none" xmlns="http://www.w3.org/2000/svg">
<path d="M36 7H15C14.448 7 14 7.448 14 8V27C14 27.553 14.448 28 15 28H36C36.553 28 37 27.553 37 27V8C37 7.448 36.553 7 36 7Z" fill="#113B98"/>
<path d="M34 10H17V25H34V10Z" fill="white"/>
<path d="M23 14C23 15.104 22.104 16 21 16C19.896 16 19 15.104 19 14C19 12.896 19.896 12 21 12C22.104 12 23 12.896 23 14ZM16.8 25H34V19.1L29.6 14L16.8 25Z" fill="#113B98"/>
<path d="M26.9 18.6L23.166 19.6L29.6 14L34 19.1L31.634 18.5L29.033 20L26.9 18.6ZM35 31.101H6C4.9 31.101 4 31.731 4 32.5C4 33.271 4.9 33.9 6 33.9H35C36.1 33.9 37 33.27 37 32.5C37 31.73 36.1 31.101 35 31.101ZM9 25.101H6C4.9 25.101 4 25.731 4 26.5C4 27.271 4.9 27.9 6 27.9H9C10.1 27.9 11 27.27 11 26.5C11 25.73 10.1 25.101 9 25.101ZM9 19.101H6C4.9 19.101 4 19.731 4 20.501C4 21.271 4.9 21.901 6 21.901H9C10.1 21.901 11 21.271 11 20.501C11 19.731 10.1 19.101 9 19.101ZM9 13.133H6C4.9 13.133 4 13.763 4 14.533C4 15.303 4.9 15.933 6 15.933H9C10.1 15.933 11 15.303 11 14.533C11 13.763 10.1 13.133 9 13.133ZM9 7H6C4.9 7 4 7.63 4 8.4C4 9.17 4.9 9.8 6 9.8H9C10.1 9.8 11 9.17 11 8.4C11 7.63 10.1 7 9 7Z" fill="#D6E0F7"/>
</svg>
