<svg width="40" height="40" viewBox="0 0 40 40" fill="none" xmlns="http://www.w3.org/2000/svg">
<path d="M14.5 37.9C13.954 37.9 13.458 37.583 13.229 37.087L7.22897 24.087C7.02897 23.653 7.06297 23.148 7.32097 22.745C7.57897 22.342 8.02297 22.099 8.49997 22.099H12.1V8.99902H14.9V23.5C14.9 24.273 14.274 24.9 13.5 24.9H10.688L14.5 33.16L18.312 24.9H18.3V22.1H20.5C20.978 22.1 21.421 22.343 21.679 22.746C21.937 23.149 21.971 23.654 21.771 24.088L15.771 37.088C15.543 37.583 15.046 37.9 14.5 37.9Z" fill="#D6E0F7"/>
<path d="M32.771 15.9141L26.771 2.91407C26.542 2.41807 26.046 2.10107 25.5 2.10107C24.955 2.10107 24.458 2.41807 24.229 2.91407L18.229 15.9141C18.029 16.3481 18.063 16.8531 18.321 17.2551C18.578 17.6571 19.023 17.9011 19.5 17.9011H24.1V32.0001H26.9V17.9001H31.5C31.979 17.9001 32.422 17.6571 32.68 17.2541C32.938 16.8531 32.972 16.3471 32.771 15.9141Z" fill="#113B98"/>
</svg>
