<svg version="1.1" id="Layer_1" xmlns="http://www.w3.org/2000/svg" x="0px" y="0px"
	 width="40px" height="40px" viewBox="0 0 40 40" enable-background="new 0 0 40 40" xml:space="preserve">
<g>
	<path fill="#B9B9D5" d="M14.5,37.9c-0.546,0-1.042-0.317-1.271-0.813l-6-13c-0.2-0.434-0.166-0.939,0.092-1.342
		s0.702-0.646,1.179-0.646h3.6v-13.1h2.8V23.5c0,0.773-0.626,1.4-1.4,1.4h-2.812l3.812,8.26l3.812-8.26H18.3v-2.8h2.2
		c0.478,0,0.921,0.243,1.179,0.646s0.292,0.908,0.092,1.342l-6,13C15.543,37.583,15.046,37.9,14.5,37.9z"/>
	<path fill="#595975" d="M32.771,15.914l-6-13c-0.229-0.496-0.725-0.813-1.271-0.813c-0.545,0-1.042,0.317-1.271,0.813l-6,13
		c-0.2,0.434-0.166,0.939,0.092,1.341c0.257,0.402,0.702,0.646,1.179,0.646h4.6V32h2.8V17.9h4.6c0.479,0,0.922-0.243,1.18-0.646
		C32.938,16.853,32.972,16.347,32.771,15.914z"/>
</g>
</svg>
