<svg width="40" height="40" viewBox="0 0 40 40" fill="none" xmlns="http://www.w3.org/2000/svg">
<path d="M35.439 3.21142C33.7113 3.21142 32.1647 3.73308 30.9458 4.29521C30.988 3.20243 31.0125 2.1029 31.0125 1H9.01308C9.01308 2.08604 9.04086 3.1968 9.09419 4.31544C7.86867 3.74657 6.30649 3.21142 4.55876 3.21142C1.7044 3.21142 0 5.09456 0 8.24923C0 12.6653 3.52324 15.2084 6.35427 17.4322C7.51312 18.3428 9.26641 19.7201 9.26641 20.3125C9.26641 20.8398 9.11086 20.9905 9.06086 21.0388C8.65309 21.4368 7.56201 21.3963 7.20202 21.3828L6.85092 21.3761V24.5251L7.08758 24.5285C7.22202 24.5341 7.39313 24.5409 7.59535 24.5409C8.53532 24.5409 10.0997 24.3992 11.2208 23.3065C11.6141 22.9231 12.0619 22.3036 12.2652 21.3772C13.6996 25.0772 15.6196 27.8451 18.0439 28.8243C17.7184 31.988 17.1162 34.277 16.6206 35.7396H16.2751C14.6718 35.7396 13.3619 37.2068 13.3619 39H26.4726C26.4726 37.2394 25.2082 35.8015 23.6449 35.7486C23.146 34.2781 22.5372 31.97 22.2116 28.7715C24.5727 27.7945 26.4437 25.2469 27.8403 21.7291C28.0681 22.4666 28.437 23.0029 28.7803 23.3368C29.9003 24.4296 31.4647 24.5712 32.4047 24.5712C32.6058 24.5712 32.778 24.5645 32.9113 24.5589L33.3335 24.5555V21.4065L32.7969 21.4132C32.4424 21.4267 31.3469 21.4672 30.9391 21.0692C30.888 21.0197 30.7336 20.8691 30.7336 20.3429C30.7336 19.7515 32.4847 18.5666 33.6446 17.6559C36.4757 15.431 40 12.6631 40 8.24698C39.9989 5.09456 38.2945 3.21142 35.439 3.21142ZM8.2631 14.9465C5.84762 13.0487 3.11103 11.124 3.11103 8.24923C3.11103 6.35935 3.91322 6.35935 4.55876 6.35935C6.47649 6.35935 8.23644 7.36669 9.28752 7.96704C9.31419 7.98278 9.3353 7.9929 9.36085 8.00864C9.67529 11.2139 10.2064 14.3956 10.9597 17.2849C10.2275 16.4991 9.28197 15.7469 8.2631 14.9465ZM14.4007 4.09734H20.055V24.5667C16.8006 23.5099 14.4007 11.8322 14.4007 4.09734ZM31.7358 15.1713C30.8191 15.892 29.9636 16.5395 29.2647 17.2028C29.9592 14.3899 30.4425 11.2465 30.7225 7.96142C31.7747 7.35882 33.528 6.35935 35.439 6.35935C36.0846 6.35935 36.8868 6.35935 36.8868 8.24923C36.8868 11.124 34.1502 13.2747 31.7358 15.1713Z" fill="#595975"/>
</svg>
