<svg width="40" height="40" viewBox="0 0 40 40" fill="none" xmlns="http://www.w3.org/2000/svg">
<path d="M38.035 10.4231L25.035 4.13708C24.602 3.93208 24.092 3.96208 23.686 4.21808C23.28 4.47408 23.034 4.92108 23.034 5.40208V10.1661C18.093 10.1771 15.749 13.7831 13.483 17.2711C10.872 21.2911 8.405 25.0881 2 25.0881V27.8881C9.925 27.8881 13.2 22.8471 15.832 18.7961C18.175 15.1891 19.78 12.9771 23.035 12.9661V17.5731C23.035 18.0531 23.281 18.5001 23.687 18.7571C23.915 18.9011 24.174 18.9731 24.434 18.9731C24.639 18.9731 24.845 18.9281 25.036 18.8371L38.036 12.9511C38.524 12.7191 38.835 12.2271 38.835 11.6871C38.835 11.1471 38.523 10.6551 38.035 10.4231Z" fill="#113B98"/>
<path d="M38.035 27.0841L25.035 20.9991C24.602 20.7931 24.092 20.8241 23.686 21.0801C23.28 21.3371 23.034 21.7831 23.034 22.2641V25.8161H25.834V24.3801L34.176 28.3501L25.834 32.3201V28.1481L23.057 28.0251C19.786 28.0251 18.181 25.8101 15.832 22.1941C13.2 18.1421 9.925 13.1011 2 13.1011V15.9011C8.405 15.9011 10.872 19.6981 13.483 23.7181C15.749 27.2061 18.093 30.8121 23.034 30.8221V34.5351C23.034 35.0151 23.28 35.4621 23.686 35.7191C23.914 35.8621 24.173 35.9351 24.433 35.9351C24.638 35.9351 24.844 35.8901 25.035 35.7991L38.035 29.6131C38.523 29.3811 38.834 28.8881 38.834 28.3481C38.834 27.8081 38.523 27.3161 38.035 27.0841Z" fill="#D6E0F7"/>
</svg>
