<svg version="1.1" id="Layer_1" xmlns="http://www.w3.org/2000/svg" x="0px" y="0px"
	 width="40px" height="40px" viewBox="0 0 40 40" enable-background="new 0 0 40 40" xml:space="preserve">
<g>
	<path fill="#595975" d="M38.035,10.423l-13-6.286c-0.433-0.205-0.943-0.175-1.349,0.081c-0.406,0.256-0.652,0.703-0.652,1.184
		v4.764c-4.941,0.011-7.285,3.617-9.551,7.105C10.872,21.291,8.405,25.088,2,25.088v2.8c7.925,0,11.2-5.041,13.832-9.092
		c2.343-3.607,3.948-5.819,7.203-5.83v4.607c0,0.48,0.246,0.927,0.652,1.184c0.228,0.144,0.487,0.216,0.747,0.216
		c0.205,0,0.411-0.045,0.602-0.136l13-5.886c0.488-0.232,0.799-0.724,0.799-1.264S38.523,10.655,38.035,10.423z"/>
	<path fill="#B9B9D5" d="M38.035,27.084l-13-6.085c-0.433-0.206-0.943-0.175-1.349,0.081c-0.406,0.257-0.652,0.703-0.652,1.184
		v3.552h2.8v-1.436l8.342,3.97l-8.342,3.97v-4.172l-2.777-0.123c-3.271,0-4.876-2.215-7.225-5.831
		C13.2,18.142,9.925,13.101,2,13.101v2.8c6.405,0,8.872,3.797,11.483,7.817c2.266,3.488,4.61,7.094,9.551,7.104v3.713
		c0,0.48,0.246,0.927,0.652,1.184c0.228,0.143,0.487,0.216,0.747,0.216c0.205,0,0.411-0.045,0.602-0.136l13-6.186
		c0.488-0.232,0.799-0.725,0.799-1.265S38.523,27.316,38.035,27.084z"/>
</g>
</svg>
