<svg width="40" height="40" viewBox="0 0 40 40" fill="none" xmlns="http://www.w3.org/2000/svg">
<path d="M22.0821 6.03394C19.8791 6.03394 17.7811 6.37894 15.8521 6.98694C15.8721 7.15694 16.0021 7.32394 16.0021 7.49994C16.0021 9.18094 15.0001 10.5839 14.0001 11.3559V13.9499C14.0001 14.7789 13.3911 15.5219 12.6161 15.8179C12.3841 15.9069 12.0931 15.9499 11.8531 15.9499C11.2951 15.9499 10.7261 15.7169 10.3381 15.2839C10.1371 15.0599 9.07708 13.7569 8.19308 11.9099C8.10408 12.0179 8.00008 12.1309 8.00008 12.2399C8.00008 12.9919 8.00008 13.9499 8.00008 13.9499C8.00008 14.7789 7.41408 15.5219 6.64008 15.8179C6.40808 15.9069 6.12808 15.9499 5.88908 15.9499C5.87008 15.9499 5.83308 15.9449 5.81508 15.9439C5.43908 17.0549 5.21008 18.2169 5.21008 19.4229C5.21008 22.1539 6.24208 24.6909 8.01208 26.8089L7.07308 34.5829C6.84908 35.8439 7.56208 36.3349 8.65908 35.6739L15.3001 31.6799C17.3771 32.4039 19.6681 32.8119 22.0821 32.8119C31.4051 32.8119 38.9631 26.8189 38.9631 19.4229C38.9631 12.0279 31.4051 6.03394 22.0821 6.03394Z" fill="#113B98"/>
<path d="M27 16C27 16.55 26.1 17 25 17H19C17.9 17 17 16.55 17 16C17 15.45 17.9 15 19 15H25C26.1 15 27 15.45 27 16ZM29 20H15C13.9 20 13 20.45 13 21C13 21.55 13.9 22 15 22H29C30.1 22 31 21.55 31 21C31 20.45 30.1 20 29 20Z" fill="white"/>
<path d="M7.95005 7.5C7.95005 8.911 6.75105 10 5.85005 10C5.85005 10.57 5.85005 11.215 5.85005 11.806C5.85005 12.862 5.85005 13.95 5.85005 13.95C5.85005 13.95 3.05005 10.824 3.05005 7.5C3.05005 6.119 4.06905 5 5.45005 5C6.83105 5 7.95005 6.119 7.95005 7.5ZM11.404 5C10.023 5 9.00405 6.119 9.00405 7.5C9.00405 10.824 11.804 13.95 11.804 13.95C11.804 13.95 11.804 12.862 11.804 11.806C11.804 11.215 11.804 10.57 11.804 10C12.705 10 13.904 8.911 13.904 7.5C13.904 6.119 12.785 5 11.404 5Z" fill="#D6E0F7"/>
</svg>
