<svg version="1.1" id="Layer_1" xmlns="http://www.w3.org/2000/svg" x="0px" y="0px"
	 width="40px" height="40px" viewBox="0 0 40 40" enable-background="new 0 0 40 40" xml:space="preserve">
<g>
	<path fill="#595975" d="M22.082,6.034c-2.203,0-4.301,0.345-6.23,0.953c0.02,0.17,0.15,0.337,0.15,0.513
		c0,1.681-1.002,3.084-2.002,3.856v2.594c0,0.829-0.609,1.572-1.384,1.868c-0.232,0.089-0.523,0.132-0.763,0.132
		c-0.558,0-1.127-0.233-1.515-0.666c-0.201-0.224-1.261-1.527-2.145-3.374C8.104,12.018,8,12.131,8,12.24c0,0.752,0,1.71,0,1.71
		c0,0.829-0.586,1.572-1.36,1.868c-0.232,0.089-0.512,0.132-0.751,0.132c-0.019,0-0.056-0.005-0.074-0.006
		c-0.376,1.111-0.605,2.273-0.605,3.479c0,2.731,1.032,5.268,2.802,7.386l-0.939,7.774c-0.224,1.261,0.489,1.752,1.586,1.091
		L15.3,31.68c2.077,0.724,4.368,1.132,6.782,1.132c9.323,0,16.881-5.993,16.881-13.389C38.963,12.028,31.405,6.034,22.082,6.034z"/>
	<path fill="#FFFFFF" d="M27,16c0,0.55-0.9,1-2,1h-6c-1.1,0-2-0.45-2-1s0.9-1,2-1h6C26.1,15,27,15.45,27,16z M29,20H15
		c-1.1,0-2,0.45-2,1s0.9,1,2,1h14c1.1,0,2-0.45,2-1S30.1,20,29,20z"/>
	<path fill="#B9B9D5" d="M7.95,7.5c0,1.411-1.199,2.5-2.1,2.5c0,0.57,0,1.215,0,1.806c0,1.056,0,2.144,0,2.144s-2.8-3.126-2.8-6.45
		c0-1.381,1.019-2.5,2.4-2.5S7.95,6.119,7.95,7.5z M11.404,5c-1.381,0-2.4,1.119-2.4,2.5c0,3.324,2.8,6.45,2.8,6.45s0-1.088,0-2.144
		c0-0.591,0-1.236,0-1.806c0.901,0,2.1-1.089,2.1-2.5C13.904,6.119,12.785,5,11.404,5z"/>
</g>
</svg>
