<svg width="40" height="40" viewBox="0 0 40 40" fill="none" xmlns="http://www.w3.org/2000/svg">
<path d="M5.83298 27.3999C5.05998 27.3999 4.43298 26.7729 4.43298 25.9999V4.99985C4.43298 4.22685 5.05898 3.59985 5.83298 3.59985H30C30.773 3.59985 31.4 4.22585 31.4 4.99985V25.9999C31.4 26.7729 30.773 27.3999 30 27.3999H5.83298Z" fill="white"/>
<path d="M30 2.19995H5.83296C4.28696 2.19995 3.03296 3.45295 3.03296 4.99995V26C3.03296 27.547 4.28596 28.7999 5.83296 28.7999H20.01C20.118 23.3789 24.554 19 30 19C30.973 19 31.91 19.146 32.8 19.406V4.99995C32.8 3.45395 31.547 2.19995 30 2.19995ZM30 15.526L23.744 10.862L6.63896 26H5.83296V4.99995H30V15.526ZM11.424 14.893C13.322 14.893 14.862 13.353 14.862 11.455C14.862 9.55595 13.322 8.01595 11.424 8.01595C9.52396 8.01595 7.99996 9.55495 7.99996 11.455C7.99996 13.353 9.52396 14.893 11.424 14.893Z" fill="#113B98"/>
<path d="M24.3129 17.894L26.7989 15.819L29.9299 15.508L23.7439 10.8L17.1169 16.753L21.5939 15.485L24.3129 17.894Z" fill="#D6E0F7"/>
<path d="M30 35.5C33.5899 35.5 36.5 32.5899 36.5 29C36.5 25.4101 33.5899 22.5 30 22.5C26.4101 22.5 23.5 25.4101 23.5 29C23.5 32.5899 26.4101 35.5 30 35.5Z" fill="white"/>
<path d="M30 36.8999C25.645 36.8999 22.1 33.3549 22.1 28.9999C22.1 24.6449 25.645 21.0999 30 21.0999C34.355 21.0999 37.9 24.6449 37.9 28.9999C37.9 33.3549 34.355 36.8999 30 36.8999ZM30 23.8999C27.187 23.8999 24.9 26.1869 24.9 28.9999C24.9 31.8129 27.187 34.0999 30 34.0999C32.813 34.0999 35.1 31.8129 35.1 28.9999C35.1 26.1869 32.813 23.8999 30 23.8999Z" fill="#D6E0F7"/>
<path d="M29.535 29.357L27.871 27.693L26.75 28.814L29.535 31.6L33.48 27.654L32.359 26.533L29.535 29.357Z" fill="#113B98"/>
</svg>
