<svg width="40" height="40" viewBox="0 0 40 40" fill="none" xmlns="http://www.w3.org/2000/svg">
<path d="M16.5 11C16.5 14.589 13.589 17.5 10 17.5C6.411 17.5 3.5 14.589 3.5 11C3.5 7.411 6.411 4.5 10 4.5C13.589 4.5 16.5 7.411 16.5 11ZM10 22.5C6.411 22.5 3.5 25.41 3.5 29C3.5 32.59 6.411 35.5 10 35.5C13.589 35.5 16.5 32.59 16.5 29C16.5 25.41 13.589 22.5 10 22.5Z" fill="white"/>
<path d="M9.99998 18.9001C5.64398 18.9001 2.09998 15.3561 2.09998 11.0001C2.09998 6.6441 5.64398 3.1001 9.99998 3.1001C14.356 3.1001 17.9 6.6441 17.9 11.0001C17.9 15.3561 14.356 18.9001 9.99998 18.9001ZM9.99998 5.9001C7.18798 5.9001 4.89998 8.1881 4.89998 11.0001C4.89998 13.8121 7.18798 16.1001 9.99998 16.1001C12.812 16.1001 15.1 13.8121 15.1 11.0001C15.1 8.1881 12.812 5.9001 9.99998 5.9001Z" fill="#D6E0F7"/>
<path d="M38 8.5C38 9.325 37.1 10 36 10H22C20.9 10 20 9.325 20 8.5C20 7.675 20.9 7 22 7H36C37.1 7 38 7.675 38 8.5ZM28.875 12H22C20.9 12 20 12.675 20 13.5C20 14.325 20.9 15 22 15H28.875C29.975 15 30.875 14.325 30.875 13.5C30.875 12.675 29.975 12 28.875 12ZM36 25H22C20.9 25 20 25.675 20 26.5C20 27.325 20.9 28 22 28H36C37.1 28 38 27.325 38 26.5C38 25.675 37.1 25 36 25ZM28.875 30H22C20.9 30 20 30.675 20 31.5C20 32.325 20.9 33 22 33H28.875C29.975 33 30.875 32.325 30.875 31.5C30.875 30.675 29.975 30 28.875 30ZM17.9 29C17.9 24.645 14.356 21.1 9.99998 21.1C5.64398 21.1 2.09998 24.645 2.09998 29C2.09998 33.355 5.64398 36.9 9.99998 36.9C14.356 36.9 17.9 33.355 17.9 29ZM15.1 29C15.1 31.813 12.812 34.1 9.99998 34.1C7.18798 34.1 4.89998 31.813 4.89998 29C4.89998 26.187 7.18798 23.9 9.99998 23.9C12.812 23.9 15.1 26.188 15.1 29ZM9.53598 11.357L7.87198 9.693L6.74998 10.814L9.53598 13.6L13.481 9.655L12.359 8.534L9.53598 11.357Z" fill="#113B98"/>
</svg>
