<svg version="1.1" id="Layer_1" xmlns="http://www.w3.org/2000/svg" x="0px" y="0px"
	 width="40px" height="40px" viewBox="0 0 40 40" enable-background="new 0 0 40 40" xml:space="preserve">
<g>
	<path fill="#595975" d="M13,35c0,1.1-0.9,2-2,2H6c-1.1,0-2-0.9-2-2V6c0-1.1,0.9-2,2-2h5c1.1,0,2,0.9,2,2V35z M25,17
		c0-1.1-0.9-2-2-2h-5c-1.1,0-2,0.9-2,2v18c0,1.1,0.9,2,2,2h5c1.1,0,2-0.9,2-2V17z"/>
	<path fill="#B9B9D5" d="M37,35c0,1.1-0.9,2-2,2h-5c-1.1,0-2-0.9-2-2v-8c0-1.1,0.9-2,2-2h5c1.1,0,2,0.9,2,2V35z"/>
</g>
</svg>
