<svg width="40" height="40" viewBox="0 0 40 40" fill="none" xmlns="http://www.w3.org/2000/svg">
<path d="M36.904 5.12109H14.104C13.004 5.12109 12.104 6.02109 12.104 7.12109V9.56209C13.756 9.08709 15.526 8.81509 17.378 8.81509C26.057 8.81509 33.119 14.4921 33.119 21.4721C33.119 24.1181 32.1 26.5751 30.368 28.6091L35.536 31.7161C36.478 32.2831 37.092 31.8621 36.899 30.7781L36.035 25.9211H36.904C38.004 25.9211 38.904 25.0211 38.904 23.9211V7.12109C38.904 6.02109 38.004 5.12109 36.904 5.12109Z" fill="#D6E0F7"/>
<path d="M17.5 10C9.492 10 3 15.148 3 21.5C3 23.846 3.89 26.024 5.41 27.844L4.176 34.78C3.983 35.863 4.597 36.285 5.539 35.718L11.675 32.029C13.459 32.649 15.426 33 17.5 33C25.508 33 32 27.852 32 21.5C32 15.148 25.508 10 17.5 10Z" fill="#113B98"/>
<path d="M15.341 19.1041H13.038C13.026 17.9761 13.413 17.0431 14.198 16.3061C14.983 15.5701 16.017 15.2021 17.301 15.2021C18.127 15.2021 18.83 15.3541 19.41 15.6591C19.99 15.9641 20.454 16.4031 20.803 16.9771C21.152 17.5511 21.325 18.1551 21.325 18.7881C21.325 19.1341 21.27 19.4741 21.159 19.8081C21.048 20.1421 20.871 20.4851 20.631 20.8361C20.49 21.0411 20.153 21.3871 19.62 21.8731C19.11 22.3361 18.791 22.6631 18.662 22.8521C18.533 23.0431 18.425 23.2961 18.337 23.6131C18.249 23.9301 18.193 24.3691 18.17 24.9311H15.79L15.781 24.5351C15.781 23.7501 15.925 23.0371 16.212 22.3941C16.499 21.7531 16.965 21.1511 17.609 20.5881C18.23 20.0431 18.605 19.6681 18.734 19.4631C18.863 19.2581 18.927 19.0181 18.927 18.7421C18.927 18.3671 18.77 18.0501 18.457 17.7881C18.144 17.5281 17.723 17.3971 17.196 17.3971C16.657 17.3971 16.215 17.5561 15.869 17.8741C15.523 18.1921 15.347 18.6031 15.341 19.1041ZM17.02 25.9331C17.448 25.9331 17.812 26.0791 18.114 26.3721C18.416 26.6651 18.567 27.0191 18.567 27.4351C18.567 27.8511 18.418 28.2071 18.119 28.5031C17.82 28.7981 17.46 28.9461 17.038 28.9461C16.616 28.9461 16.257 28.7981 15.961 28.5031C15.665 28.2071 15.517 27.8511 15.517 27.4351C15.517 27.0191 15.663 26.6641 15.956 26.3721C16.249 26.0801 16.604 25.9331 17.02 25.9331Z" fill="white"/>
</svg>
