<svg width="40" height="40" viewBox="0 0 40 40" fill="none" xmlns="http://www.w3.org/2000/svg">
<path d="M17.3989 17.3992H5.39893V5.39917H17.3989V17.3992ZM17.3989 23.3992H5.39893V35.3992H17.3989V23.3992ZM35.7009 5.39917H23.7009V17.3992H35.7009V5.39917Z" fill="white"/>
<path d="M17.419 18.8991H5.57998C4.76298 18.8991 4.09998 18.2361 4.09998 17.4191V5.5801C4.09998 4.7621 4.76298 4.1001 5.57998 4.1001H17.42C18.238 4.1001 18.9 4.7621 18.9 5.5801V17.4201C18.899 18.2371 18.237 18.8991 17.419 18.8991ZM6.95898 16.0401H16.039V6.9601H6.95898V16.0401ZM17.419 36.8991H5.57998C4.76298 36.8991 4.09998 36.2361 4.09998 35.4201V23.5801C4.09998 22.7621 4.76298 22.1001 5.57998 22.1001H17.42C18.238 22.1001 18.9 22.7621 18.9 23.5801V35.4201C18.899 36.2361 18.237 36.8991 17.419 36.8991ZM6.95898 34.0391H16.039V24.9591H6.95898V34.0391ZM35.42 18.8991H23.58C22.764 18.8991 22.101 18.2361 22.101 17.4191V5.5801C22.101 4.7621 22.764 4.1001 23.58 4.1001H35.42C36.238 4.1001 36.9 4.7621 36.9 5.5801V17.4201C36.9 18.2371 36.238 18.8991 35.42 18.8991ZM24.961 16.0401H34.041V6.9601H24.961V16.0401ZM25 27.9001H28V25.0001H32V22.0001H22V25.0001H25V27.9001ZM34 22.0001V28.0311L28 28.0341V33.9671H31V31.0001H34V34.0001H31L31.012 36.8341H37V22.0001H34ZM24.977 28.0181H22.094L22.095 36.8341H28V34.0001H24.977V28.0181Z" fill="#113B98"/>
<path d="M14 12C14 13.1 13.1 14 12 14H11C9.9 14 9 13.1 9 12V11C9 9.9 9.9 9 11 9H12C13.1 9 14 9.9 14 11V12ZM14 29C14 27.9 13.1 27 12 27H11C9.9 27 9 27.9 9 29V30C9 31.1 9.9 32 11 32H12C13.1 32 14 31.1 14 30V29ZM32 11C32 9.9 31.1 9 30 9H29C27.9 9 27 9.9 27 11V12C27 13.1 27.9 14 29 14H30C31.1 14 32 13.1 32 12V11Z" fill="#D6E0F7"/>
</svg>
