<svg version="1.1" id="Layer_1" xmlns="http://www.w3.org/2000/svg" x="0px" y="0px"
	 width="40px" height="40px" viewBox="0 0 40 40" enable-background="new 0 0 40 40" xml:space="preserve">
<g>
	<g>
		<g>
			<path fill="#595975" d="M31,4.1H4C2.401,4.1,1.1,5.401,1.1,7v14c0,1.6,1.301,2.9,2.9,2.9h16.064
				c0.108-0.982,0.356-1.924,0.729-2.801H4c-0.055,0-0.1-0.045-0.1-0.1V7c0-0.055,0.045-0.1,0.1-0.1h27c0.055,0,0.1,0.045,0.1,0.1
				v8.064c0.9,0.099,1.762,0.322,2.574,0.645H33.9V7C33.9,5.401,32.6,4.1,31,4.1z M12,11V9H8v2h1v6H8v2h4v-2h-1v-6H12z"/>
		</g>
	</g>
	<circle fill="#FFFFFF" cx="30" cy="25" r="6.5"/>
	<path fill="#B9B9D5" d="M30,32.9c-4.355,0-7.9-3.545-7.9-7.9c0-4.356,3.545-7.9,7.9-7.9s7.9,3.544,7.9,7.9
		C37.9,29.355,34.355,32.9,30,32.9z M30,19.9c-2.813,0-5.1,2.288-5.1,5.1s2.287,5.1,5.1,5.1s5.1-2.287,5.1-5.1S32.813,19.9,30,19.9z
		 M18,17.5c0-0.825-0.675-1.5-1.5-1.5S15,16.675,15,17.5s0.675,1.5,1.5,1.5S18,18.325,18,17.5z M23,17.5c0-0.825-0.675-1.5-1.5-1.5
		S20,16.675,20,17.5s0.675,1.5,1.5,1.5S23,18.325,23,17.5z"/>
	<polygon fill="#595975" points="29.535,25.357 27.871,23.693 26.75,24.814 29.535,27.6 33.48,23.654 32.359,22.533 	"/>
</g>
</svg>
