<svg width="40" height="40" viewBox="0 0 40 40" fill="none" xmlns="http://www.w3.org/2000/svg">
<path d="M31 4.1001H3.99998C2.40098 4.1001 1.09998 5.4011 1.09998 7.0001V21.0001C1.09998 22.6001 2.40098 23.9001 3.99998 23.9001H20.064C20.172 22.9181 20.42 21.9761 20.793 21.0991H3.99998C3.94498 21.0991 3.89998 21.0541 3.89998 20.9991V7.0001C3.89998 6.9451 3.94498 6.9001 3.99998 6.9001H31C31.055 6.9001 31.1 6.9451 31.1 7.0001V15.0641C32 15.1631 32.862 15.3861 33.674 15.7091H33.9V7.0001C33.9 5.4011 32.6 4.1001 31 4.1001ZM12 11.0001V9.0001H7.99998V11.0001H8.99998V17.0001H7.99998V19.0001H12V17.0001H11V11.0001H12Z" fill="#113B98"/>
<path d="M30 31.5C33.5899 31.5 36.5 28.5899 36.5 25C36.5 21.4101 33.5899 18.5 30 18.5C26.4101 18.5 23.5 21.4101 23.5 25C23.5 28.5899 26.4101 31.5 30 31.5Z" fill="white"/>
<path d="M30 32.9C25.645 32.9 22.1 29.355 22.1 25C22.1 20.644 25.645 17.1 30 17.1C34.355 17.1 37.9 20.644 37.9 25C37.9 29.355 34.355 32.9 30 32.9ZM30 19.9C27.187 19.9 24.9 22.188 24.9 25C24.9 27.812 27.187 30.1 30 30.1C32.813 30.1 35.1 27.813 35.1 25C35.1 22.187 32.813 19.9 30 19.9ZM18 17.5C18 16.675 17.325 16 16.5 16C15.675 16 15 16.675 15 17.5C15 18.325 15.675 19 16.5 19C17.325 19 18 18.325 18 17.5ZM23 17.5C23 16.675 22.325 16 21.5 16C20.675 16 20 16.675 20 17.5C20 18.325 20.675 19 21.5 19C22.325 19 23 18.325 23 17.5Z" fill="#D6E0F7"/>
<path d="M29.535 25.3572L27.871 23.6932L26.75 24.8142L29.535 27.6002L33.48 23.6542L32.359 22.5332L29.535 25.3572Z" fill="#113B98"/>
</svg>
