<svg width="40" height="40" viewBox="0 0 40 40" fill="none" xmlns="http://www.w3.org/2000/svg">
<path d="M28.0001 15H20.0751C18.9751 15 18.0751 14.325 18.0751 13.5C18.0751 12.675 18.9751 12 20.0751 12H28.0001C29.1001 12 30.0001 12.675 30.0001 13.5C30.0001 14.325 29.1001 15 28.0001 15ZM22.0001 27.5C22.0001 26.675 21.1001 26 20.0001 26H7.20007C6.10007 26 5.20007 26.675 5.20007 27.5C5.20007 28.325 6.10007 29 7.20007 29H20.0001C21.1001 29 22.0001 28.325 22.0001 27.5Z" fill="#D6E0F7"/>
<path d="M5.09705 15.19H6.81005L8.13205 20.808L9.76605 15.19H11.215L12.873 20.808L14.183 15.19H15.897L13.835 23.991H12.164L10.478 18.302L8.82305 23.991H7.16905L5.09705 15.19ZM19.481 17.262C20.083 17.262 20.648 17.412 21.177 17.713C21.706 18.014 22.119 18.422 22.416 18.938C22.713 19.454 22.861 20.01 22.861 20.608C22.861 21.21 22.712 21.772 22.413 22.296C22.114 22.82 21.707 23.229 21.191 23.524C20.675 23.819 20.107 23.966 19.486 23.966C18.572 23.966 17.792 23.641 17.145 22.99C16.498 22.339 16.175 21.55 16.175 20.62C16.175 19.624 16.54 18.794 17.271 18.13C17.913 17.551 18.649 17.262 19.481 17.262ZM19.508 18.768C19.011 18.768 18.597 18.941 18.267 19.287C17.936 19.633 17.771 20.075 17.771 20.614C17.771 21.169 17.934 21.618 18.261 21.962C18.588 22.306 19.001 22.478 19.502 22.478C20.003 22.478 20.419 22.304 20.752 21.957C21.084 21.609 21.251 21.162 21.251 20.615C21.251 20.068 21.088 19.624 20.761 19.282C20.434 18.938 20.017 18.768 19.508 18.768ZM24.094 17.426H25.465V18.229C25.613 17.913 25.811 17.672 26.057 17.508C26.303 17.344 26.573 17.262 26.866 17.262C27.073 17.262 27.29 17.317 27.516 17.426L27.018 18.803C26.83 18.709 26.676 18.662 26.555 18.662C26.309 18.662 26.102 18.814 25.932 19.119C25.762 19.424 25.676 20.021 25.676 20.912L25.682 21.223V23.801H24.094V17.426ZM33.112 15.064H34.712V23.8H33.112V23.126C32.8 23.423 32.486 23.637 32.173 23.768C31.86 23.899 31.519 23.964 31.152 23.964C30.328 23.964 29.616 23.645 29.015 23.006C28.413 22.367 28.114 21.573 28.114 20.624C28.114 19.64 28.404 18.833 28.986 18.204C29.568 17.575 30.273 17.261 31.105 17.261C31.487 17.261 31.845 17.333 32.181 17.478C32.517 17.623 32.827 17.839 33.112 18.128V15.064ZM31.431 18.738C30.937 18.738 30.526 18.913 30.2 19.262C29.872 19.612 29.709 20.06 29.709 20.607C29.709 21.158 29.876 21.611 30.208 21.966C30.541 22.321 30.95 22.499 31.437 22.499C31.94 22.499 32.356 22.324 32.686 21.975C33.018 21.625 33.183 21.167 33.183 20.601C33.183 20.046 33.018 19.597 32.686 19.253C32.355 18.91 31.938 18.738 31.431 18.738ZM33 7H25C23.9 7 23 6.325 23 5.5C23 4.675 23.9 4 25 4H33C34.1 4 35 4.675 35 5.5C35 6.325 34.1 7 33 7ZM20 8.5C20 7.675 19.1 7 18 7H7.20005C6.10005 7 5.20005 7.675 5.20005 8.5C5.20005 9.325 6.10005 10 7.20005 10H18C19.1 10 20 9.325 20 8.5ZM36 30.5C36 29.675 35.1 29 34 29H26.2C25.099 29 24.2 29.675 24.2 30.5C24.2 31.325 25.099 32 26.2 32H34C35.1 32 36 31.325 36 30.5ZM26 35.5C26 34.675 25.1 34 24 34H18.2C17.1 34 16.2 34.675 16.2 35.5C16.2 36.325 17.1 37 18.2 37H24C25.1 37 26 36.325 26 35.5Z" fill="#113B98"/>
</svg>
