<svg width="203" height="219" viewBox="0 0 203 219" fill="none" xmlns="http://www.w3.org/2000/svg">
<path fill-rule="evenodd" clip-rule="evenodd" d="M101.349 0C157.323 0 202.698 45.3746 202.698 101.349C202.698 157.323 157.323 202.698 101.349 202.698C77.5161 202.698 55.6068 194.467 38.3014 180.699L0 219V101.35C0 45.3764 45.3746 0.000924484 101.349 0.000924484V0ZM101.348 70.0962C118.608 70.0962 132.601 84.0883 132.601 101.348C132.601 118.608 118.609 132.601 101.348 132.601C84.0883 132.601 70.0962 118.609 70.0962 101.348C70.0962 84.0883 84.0883 70.0962 101.348 70.0962ZM101.349 38.5704C136.021 38.5704 164.127 66.6775 164.127 101.348C164.127 136.02 136.021 164.126 101.349 164.126C93.0752 164.126 85.5425 162.225 79.5675 160.004C73.9975 157.934 69.7791 155.586 67.5751 154.243C66.4473 153.555 66.0128 153.245 65.8602 153.14L38.5713 180.429V101.349C38.5713 66.6775 66.6784 38.5713 101.349 38.5713V38.5704Z" fill="#1751D0"/>
</svg>
