<svg width="770" height="219" viewBox="0 0 770 219" fill="none" xmlns="http://www.w3.org/2000/svg">
<path d="M310.018 53.0096H258.692V177.76H281.859V141.761H310.017C342.809 141.761 363.126 124.83 363.126 97.3857C363.126 69.7621 342.81 53.0096 310.017 53.0096H310.018ZM308.949 122.157H281.859V72.6142H308.949C329.265 72.6142 339.78 81.7028 339.78 97.3866C339.78 113.07 329.265 122.158 308.949 122.158V122.157ZM397.094 96.4945V82.593H375.887V177.76H398.164V131.603C398.164 112.177 408.858 102.197 425.788 102.197C427.392 102.197 428.996 102.375 430.956 102.731V81.5234C415.095 81.5234 403.511 86.5138 397.095 96.4936L397.094 96.4945ZM531.041 130.711C531.041 100.95 510.725 81.5234 482.923 81.5234C454.586 81.5234 433.735 101.84 433.735 130.176C433.735 158.513 454.408 179.007 486.309 179.007C502.705 179.007 516.071 173.661 524.625 163.503L512.685 149.781C505.913 156.731 497.537 160.117 486.843 160.117C470.269 160.117 458.685 151.206 456.013 137.306H530.685C530.864 135.168 531.041 132.494 531.041 130.711ZM482.923 99.3456C497.536 99.3456 508.051 108.791 509.833 122.513H455.834C457.974 108.613 468.488 99.3456 482.924 99.3456H482.923ZM564.652 159.939L617.048 96.672V82.593H537.386V100.415H588.534L536.316 163.682V177.761H618.474V159.94H564.652V159.939ZM642.818 66.9101C651.193 66.9101 657.075 60.851 657.075 53.0096C657.075 45.7025 651.015 40.1777 642.818 40.1777C634.619 40.1777 628.56 46.0593 628.56 53.5439C628.56 61.0285 634.619 66.9101 642.818 66.9101ZM631.59 177.76H653.867V82.593H631.59V177.76ZM718.488 179.007C748.072 179.007 769.28 158.691 769.28 130.176C769.28 101.661 748.072 81.5234 718.488 81.5234C689.261 81.5234 667.874 101.661 667.874 130.176C667.874 158.691 689.26 179.007 718.488 179.007ZM718.488 159.939C702.449 159.939 690.33 148.355 690.33 130.177C690.33 111.999 702.448 100.415 718.488 100.415C734.706 100.415 746.824 111.999 746.824 130.177C746.824 148.355 734.706 159.939 718.488 159.939Z" fill="#0A090B"/>
<path fill-rule="evenodd" clip-rule="evenodd" d="M101.349 0C157.323 0 202.698 45.3746 202.698 101.349C202.698 157.323 157.323 202.698 101.349 202.698C77.5161 202.698 55.6068 194.467 38.3014 180.699L0 219V101.35C0 45.3764 45.3746 0.000924484 101.349 0.000924484V0ZM101.348 70.0962C118.608 70.0962 132.601 84.0883 132.601 101.348C132.601 118.608 118.609 132.601 101.348 132.601C84.0883 132.601 70.0962 118.609 70.0962 101.348C70.0962 84.0883 84.0883 70.0962 101.348 70.0962ZM101.349 38.5704C136.021 38.5704 164.127 66.6775 164.127 101.348C164.127 136.02 136.021 164.126 101.349 164.126C93.0752 164.126 85.5425 162.225 79.5675 160.004C73.9975 157.934 69.7791 155.586 67.5751 154.243C66.4473 153.555 66.0128 153.245 65.8602 153.14L38.5713 180.429V101.349C38.5713 66.6775 66.6784 38.5713 101.349 38.5713V38.5704Z" fill="#1751D0"/>
</svg>
