<svg width="24" height="25" viewBox="0 0 24 25" fill="none" xmlns="http://www.w3.org/2000/svg">
<path fill-rule="evenodd" clip-rule="evenodd" d="M23.04 12.7478C23.04 11.9323 22.9668 11.1482 22.8309 10.3955H12V14.8439H18.1891C17.9225 16.2814 17.1123 17.4994 15.8943 18.3148V21.2003H19.6109C21.7855 19.1982 23.04 16.2501 23.04 12.7478Z" fill="#1751D0"/>
<path fill-rule="evenodd" clip-rule="evenodd" d="M12 23.9861C15.105 23.9861 17.7081 22.9564 19.6109 21.2L15.8943 18.3146C14.8645 19.0046 13.5472 19.4123 12 19.4123C9.00474 19.4123 6.46951 17.3893 5.56519 14.6711H1.72314V17.6507C3.61542 21.4091 7.50451 23.9861 12 23.9861Z" fill="#34A853"/>
<path fill-rule="evenodd" clip-rule="evenodd" d="M5.56523 14.6713C5.33523 13.9813 5.20455 13.2443 5.20455 12.4863C5.20455 11.7284 5.33523 10.9913 5.56523 10.3013V7.32178H1.72318C0.944318 8.87428 0.5 10.6306 0.5 12.4863C0.5 14.342 0.944318 16.0984 1.72318 17.6509L5.56523 14.6713Z" fill="#FBBC05"/>
<path fill-rule="evenodd" clip-rule="evenodd" d="M12 5.56019C13.6884 5.56019 15.2043 6.14042 16.3961 7.27996L19.6945 3.98156C17.7029 2.12587 15.0997 0.986328 12 0.986328C7.50451 0.986328 3.61542 3.56337 1.72314 7.32178L5.56519 10.3013C6.46951 7.58315 9.00474 5.56019 12 5.56019Z" fill="#EA4335"/>
</svg>
